<svg xmlns="http://www.w3.org/2000/svg" xmlns:xlink="http://www.w3.org/1999/xlink" x="0" y="0" enable-background="new 0 0 486 87" version="1.1" viewBox="0 0 486 87" xml:space="preserve"><g id="Layer_4"><g><path fill="#ED1C24" d="M38,21.3v7.6h-8.9v-8.1c0-7.6-3-12.2-9.9-12.2c-6.8,0-9.9,4.6-9.9,12.2v44.7c0,7.6,3.1,12.2,9.9,12.2 c6.9,0,9.9-4.6,9.9-12.2v-11H38V65c0,12.8-6,21.3-19.1,21.3C6,86.2,0,77.8,0,65V21.3C0,8.5,6,0,19,0C32,0,38,8.5,38,21.3z"/><path fill="#ED1C24" d="M56,0.8v84.6h-9.4V0.8H56z"/><path fill="#ED1C24" d="M77.9,85.4v-76H62.3V0.8h40.5v8.6H87.2v76H77.9z"/><path fill="#ED1C24" d="M124.2,55.1L106.3,0.8h9.8l13.2,41.6l13.3-41.6h8.9l-18,54.2v30.3h-9.3V55.1z"/><path fill="#231F20" d="M158.2,85.4V0.8h9.4v76h24.2v8.6H158.2z"/><path fill="#231F20" d="M208.4,0.8v84.6h-9.4V0.8H208.4z"/><path fill="#231F20" d="M249.2,85.3h-9.1l-14-67.3v67.4h-8.2V0.8h13.2L245,68.4l13.4-67.5h13.2v84.6h-8.9v-68L249.2,85.3z"/><path fill="#231F20" d="M290.6,0.8v84.6h-9.4V0.8H290.6z"/><path fill="#231F20" d="M312.5,85.4v-76h-15.6V0.8h40.5v8.6h-15.6v76H312.5z"/><path fill="#231F20" d="M380.4,21.1v2.3h-8.9v-2.8c0-7.6-2.9-12.1-9.7-12.1c-6.8,0-9.7,4.5-9.7,12c0,19,28.4,20.8,28.4,44.6 c0,12.8-6.2,21.1-19.1,21.1c-12.9,0-19-8.3-19-21.1v-4.8h8.8v5.3c0,7.6,3.1,12.1,9.9,12.1c6.8,0,9.9-4.5,9.9-12.1 c0-18.8-28.3-20.7-28.3-44.5c0-13,6-21.1,18.7-21.1C374.3,0,380.4,8.3,380.4,21.1z"/></g></g><g id="Layer_3"><g><path fill="#231F20" d="M399.1,42.8c0-8.2,3.8-14.3,12.3-14.3c8.7,0,12.5,6,12.5,14.3v28.8c0,8.2-3.8,14.3-12.5,14.3 c-8.5,0-12.3-6-12.3-14.3V42.8z M402.8,71.9c0,6.1,2.4,10.6,8.6,10.6c6.3,0,8.8-4.5,8.8-10.6V42.6c0-6.1-2.5-10.6-8.8-10.6 c-6.2,0-8.6,4.5-8.6,10.6V71.9z"/><path fill="#231F20" d="M441.8,29c8.6,0,12.1,4.8,12.1,12.7v4.9c0,6.6-2.6,10.4-8.1,11.7c5.8,1.3,8.1,5.4,8.1,11.5v8.8 c0,2.3,0.2,4.9,1.4,6.8h-3.9c-1-1.7-1.2-3.7-1.2-6.8v-8.9c0-7.5-4.1-9.6-10.5-9.6h-5.9v25.2h-3.7V29H441.8z M439.7,56.8 c6.6,0,10.5-1.9,10.5-9.4v-5.3c0-6-2.3-9.7-8.5-9.7h-8v24.4H439.7z"/><path fill="#231F20" d="M485.2,42.8V47h-3.5v-4.4c0-6-2.3-10.6-8.5-10.6s-8.5,4.6-8.5,10.6v29.3c0,6,2.3,10.5,8.5,10.5 s8.5-4.5,8.5-10.5V59.7h-7.5v-3.4h11v15.3c0,8.1-3.5,14.3-12.2,14.3c-8.6,0-12.2-6.1-12.2-14.3V42.8c0-8.1,3.5-14.3,12.2-14.3 C481.7,28.5,485.2,34.7,485.2,42.8z"/></g></g><g id="Layer_2"><path fill="#231F20" d="M386.4,78.8h1.4c1.1,0,1.9,0.9,1.9,1.9v1.4c0,1.1-0.9,1.9-1.9,1.9h-1.4c-1.1,0-1.9-0.9-1.9-1.9v-1.4 C384.4,79.6,385.3,78.8,386.4,78.8z"/></g></svg>