<?xml version="1.0" encoding="UTF-8"?>
<svg width="340px" height="90px" viewBox="0 0 340 90" version="1.1" xmlns="http://www.w3.org/2000/svg" xmlns:xlink="http://www.w3.org/1999/xlink">
    <!-- Generator: Sketch 54.1 (76490) - https://sketchapp.com -->
    <title>newsletter ad 340x90</title>
    <desc>Created with Sketch.</desc>
    <defs>
        <rect id="path-1" x="0" y="0" width="340" height="90"></rect>
        <polygon id="path-3" points="0 0 125 0 125 45 0 45"></polygon>
        <filter x="-5.6%" y="-11.1%" width="111.2%" height="131.1%" filterUnits="objectBoundingBox" id="filter-4">
            <feOffset dx="0" dy="2" in="SourceAlpha" result="shadowOffsetOuter1"></feOffset>
            <feGaussianBlur stdDeviation="2" in="shadowOffsetOuter1" result="shadowBlurOuter1"></feGaussianBlur>
            <feColorMatrix values="0 0 0 0 0   0 0 0 0 0   0 0 0 0 0  0 0 0 0.272180944 0" type="matrix" in="shadowBlurOuter1"></feColorMatrix>
        </filter>
    </defs>
    <g id="Page-1" stroke="none" stroke-width="1" fill="none" fill-rule="evenodd">
        <g id="Direction-#1-grey-Revisions-2-fonts-outlines" transform="translate(-481.000000, -85.000000)">
            <g id="728x90" transform="translate(93.000000, 85.000000)">
                <g id="newsletter-ad-340x90" transform="translate(388.000000, 0.000000)">
                    <rect id="340x90-back" fill="#EBEBEB" x="0" y="0" width="340" height="90"></rect>
                    <g id="skyline-background">
                        <mask id="mask-2" fill="white">
                            <use xlink:href="#path-1"></use>
                        </mask>
                        <use id="Rectangle-Copy-8" fill="#EBEBEB" xlink:href="#path-1"></use>
                        <g id="Skyline" mask="url(#mask-2)">
                            <g transform="translate(-271.000000, 13.000000)">
                                <g>
                                    <path d="M161.32295,46.9983653 L161.32295,33.3466718 L163.679032,33.3466718 L163.679032,31.3279778 L169.737097,31.3279778 L169.737097,33.1786155 L171.924563,33.1786155 L171.924563,48.8021046 L174.301772,48.8021046 L176.3,48.8021046 L176.3,47.4775294 L187.238088,47.4775294 L187.238088,43.7767587 L188.752604,43.7767587 L188.752604,17.8701023 L190.940323,17.8701023 L190.940323,14.8420614 L192.62295,14.8420614 L192.62295,10.9729821 L194.137466,10.9729821 L194.137466,14.6737528 L195.651982,14.6737528 L195.651982,18.0384109 L198.176176,18.0384109 L198.176176,40.6768492 L203.486039,40.6768492 L203.486039,39.2608296 L204.177689,39.2608296 L204.177689,38.1651001 L204.177689,36.411933 L206.050206,36.411933 L206.050206,39.2945443 L206.488813,39.2945443 L206.488813,40.0194115 L207.247942,40.0194115 L207.247942,40.4121006 L212.984862,40.4121006 L212.984862,46.8047997 L213.540272,46.8047997 L213.540272,41.0814262 L217.360047,41.0814262 L217.360047,33.1786155 L221.56712,33.1786155 L221.56712,40.4121006 L223.081636,40.4121006 L223.081636,41.0814262 L228.803226,41.0814262 L228.803226,24.4308576 L238.395161,13.6644058 L240.246152,13.6644058 L240.246152,44.1131236 L243.443548,44.1131236 L243.443548,40.5804092 L253.708434,40.5804092 L253.708434,44.1131236 L256.737466,44.1131236 L256.737466,12.991676 L260.103226,12.991676 L260.103226,10.3 L267.002604,10.3 L267.002604,13.1597323 L270.368111,13.1597323 L270.368111,42.0944297 L276.426176,42.0944297 L276.426176,44.954162 L282.316129,44.954162 L282.316129,31.4962864 L283.830645,30.3186309 L291.739701,30.3186309 L293.254217,31.8326513 L293.254217,47.8138943 L297.46129,47.8138943 L297.46129,57.0663257 L301.5,57.0663257 L301.5,82.3 L249,82.3 L249,82.5 L60.5,82.5 L60.5,65.2380466 L60.5,62.1868615 L61.2759979,62.1868615 L61.2759979,55.3764814 L62.1194738,55.3764814 L62.1194738,51.2127094 L62.9460802,51.2127094 L62.9460802,50.5046996 L63.4184267,50.5046996 L63.4184267,48.7683899 L68.5298908,48.7683899 L68.5298908,50.4709849 L69.3058887,50.4709849 L69.3058887,51.3981406 L69.8794523,51.3981406 L69.8794523,58.090519 L73.4051817,58.090519 L76.5260426,58.090519 L76.5260426,43.4246016 L77.4538661,43.4246016 L77.4538661,42.4805885 L77.9093431,42.4805885 L77.9093431,41.8062934 L80.6590746,39.7834083 L83.240111,41.9580098 L83.240111,42.5817327 L83.5775013,42.5817327 L83.5775013,54.2301798 L88.7227045,54.2301798 L88.7227045,51.9712914 L97.0225076,51.9712914 L97.0225076,15.8290764 L98.9287632,15.8290764 L98.9287632,14.4973437 L101.374843,14.4973437 L101.408582,14.4973437 L101.661625,0 L101.931537,14.4973437 L104.411357,14.4973437 L104.411357,16.0482223 L106.553786,16.0482223 L106.553786,40.8622803 L113.04855,40.8622803 L113.04855,56.2193502 L117.535842,56.2193502 L117.535842,55.089906 L119.037229,55.089906 L119.037229,57.9725174 L121.888178,57.9725174 L121.888178,43.5931753 L126.577904,43.5931753 L126.577904,49.1392521 L127.674423,49.1392521 L127.674423,30.2252758 L136.227269,30.2252758 L136.227269,57.1465059 L137.003267,57.1465059 L137.003267,50.5552718 L139.634911,50.5552718 L139.634911,56.9610748 L140.157866,56.9610748 L140.157866,46.2566408 L142.030383,46.2566408 L142.030383,39.2945443 L152.118355,39.2945443 L152.118355,56.0676338 L152.118355,60.6696976 L155.154868,60.6696976 L155.154868,56.4722109 L155.610345,56.4722109 L155.610345,54.6347568 L156.217648,54.6347568 L156.217648,48.414385 L157.482862,48.414385 L157.482862,41.9242951 L160.181985,41.9242951 L160.181985,46.9983653 L161.32295,46.9983653 Z" id="Combined-Shape" fill="#B6B6B6"></path>
                                    <path d="M172,59.2440665 L172,58.1505085 L172,48.2420339 L172.824742,48.2420339 L172.824742,46.7118644 L175.195876,41.2935593 L175.195876,38.9105085 L175.737113,35.8 L176.304124,38.9105085 L176.304124,41.2935593 L178.649485,46.7118644 L178.649485,48.2420339 L179.5,48.2420339 L179.5,58.1505085 L179.5,59.8336357 L179.617571,59.8336357 L179.617571,54.6484505 L182.227454,54.6484505 L182.227454,53.5146636 L183.102444,53.5146636 L183.102444,54.603099 L183.389078,54.603099 L183.389078,54.11935 L185.229574,54.11935 L185.229574,55.1624339 L186.029133,55.1624339 L186.029133,54.603099 L188.442898,54.603099 L188.442898,56.3415722 L188.77479,56.3415722 L188.77479,62.7965986 L189.287715,62.7965986 L189.287715,66.0316704 L190.087275,66.0316704 L190.087275,69.9772487 L190.735974,69.9772487 L190.735974,61.7383976 L191.595877,61.7383976 L191.595877,57.9742252 L192.184232,57.9742252 L192.184232,56.900907 L193.496717,56.900907 L193.496717,62.6756614 L193.934212,62.6756614 L193.934212,61.4360544 L194.899717,61.4360544 L194.899717,60.3022676 L195.940653,60.3022676 L195.940653,55.6461829 L196.544094,55.6461829 L196.544094,55.2229025 L196.981589,55.2229025 L196.981589,54.5123961 L197.690633,53.4844293 L197.690633,52.395994 L198.278988,52.395994 L198.278988,53.5297808 L198.942773,54.603099 L198.942773,55.268254 L199.425526,55.268254 L199.425526,55.7973545 L199.863021,55.7973545 L199.863021,60.4836735 L200.858698,60.4836735 L200.858698,50.007483 L204.962098,50.007483 L204.962098,57.2486017 L208.115078,57.2486017 L208.115078,41.3 L219.565373,41.3 L219.565373,42.3430839 L219.927437,42.3430839 L219.927437,55.6461829 L219.927437,62.0860922 L222.507148,62.0860922 L222.507148,56.0845805 L224.196783,56.0845805 L224.196783,54.8147392 L227.093301,54.8147392 L227.093301,56.1148148 C227.093301,56.1148148 230.261366,56.2206349 230.261366,56.1148148 C230.261366,56.0089947 230.261366,47.5282691 230.261366,47.5282691 L229.718269,47.5282691 L229.718269,46.5003023 L242.918544,46.5003023 L242.918544,47.6038549 L242.224586,47.6038549 L242.224586,63.2652305 L244.019824,63.2652305 L244.019824,65.0037037 L244.608179,65.0037037 L244.608179,52.7739229 L247.384008,52.7739229 L247.384008,51.3982615 L251.89473,51.3982615 L251.89473,52.970446 L254.625301,52.970446 L254.625301,66.8177627 L260.569196,66.8177627 L260.569196,68.1132337 L264.523744,68.1132337 L264.523744,46.679936 L270.202451,46.679936 L270.202451,43.9627535 L273.051908,43.9627535 L273.051908,42.3 L278.104138,42.3 L278.104138,43.8613661 L280.286701,43.8613661 L280.286701,49.5390608 L285.722901,49.5390608 L285.722901,47.9168623 L289.380715,47.9168623 L289.380715,49.6607257 L292.189755,49.6607257 L292.189755,74.9872999 L292.816231,74.9872999 L292.816231,74.4195304 L295.322137,74.4195304 L295.322137,75.1089648 L300.253114,75.1089648 L300.253114,76.4270011 L310.862796,76.4270011 L310.862796,71.8240128 L328.242467,71.8240128 L328.242467,73.223159 L341.075131,73.223159 L341.075131,74.8048026 L351.806067,74.8048026 L351.806067,77.1569904 L372.5,77.1569904 L372.5,80.3 L280,80.3 L280,81.2848828 L280,81.3 L98.5,81.3 L98.5,72.4866969 L98.5,68.9795163 L102.558141,68.9795163 L102.558141,59.9092215 L112.183027,59.9092215 L112.183027,65.8200302 L114.189469,65.8200302 L115.547211,65.8200302 L115.547211,50.581935 L116.573061,50.581935 L116.573061,49.6749055 L117.131244,49.6749055 L117.251933,49.6749055 C117.553653,48.48065 118.639847,47.5887377 119.937245,47.5887377 C121.234644,47.5887377 122.320838,48.48065 122.622558,49.6749055 L123.37686,49.6749055 L123.37686,50.6575208 L124.146247,50.6575208 L124.146247,59.6219955 L126.424237,59.6219955 L126.424237,67.0747543 L126.816474,67.0747543 L126.816474,59.4405896 L127.404829,59.4405896 L127.404829,52.2901738 L128.174217,52.2901738 L128.174217,51.5947846 L128.611711,51.5947846 L128.611711,50.778458 L129.743163,49.6597884 L133.016832,49.6597884 L133.997423,50.9900983 L133.997423,51.6854875 L134.495262,51.6854875 L134.495262,52.4111111 L134.993101,52.4111111 L134.993101,59.6824641 L135.581456,59.6824641 L135.581456,64.584952 L136.230155,64.584952 L136.230155,56.8857899 L136.758166,56.8857899 L136.758166,55.7822373 L137.286177,55.7822373 L137.286177,55.1321995 L137.814188,55.1321995 L137.814188,54.4368103 L139.383135,54.4368103 L139.383135,55.0868481 L139.865888,55.0868481 L139.865888,55.8880574 L140.318469,55.8880574 L140.318469,56.99161 L140.69562,56.99161 L140.69562,57.6703308 L141.57268,57.6703308 L141.57268,59.3330843 L142.946886,59.3330843 L142.946886,58.5219851 L143.148975,58.5219851 L143.148975,57.6703308 L143.714825,57.6703308 L143.714825,56.4942369 L143.92403,56.4942369 L143.92403,56.0543462 L144.078586,56.0543462 L144.078586,55.4398079 L145.028405,55.4398079 L145.028405,56.0543462 L146.820547,56.0543462 L146.820547,57.3090703 L148.163203,57.3090703 L148.163203,53.257672 L149.038193,53.257672 L151.798936,54.2856387 L151.798936,55.3589569 L153.171765,55.3589569 L153.171765,67.6038549 C153.171765,67.6038549 154.574765,67.709675 154.574765,67.6038549 C154.574765,67.5131519 154.574765,60.5441421 154.574765,60.5441421 L155.344153,60.5441421 L155.344153,59.9394558 L155.495013,59.9394558 L155.495013,59.576644 L155.706217,59.576644 L155.706217,59.289418 L156.475605,59.289418 L156.475605,59.6219955 L156.732067,59.6219955 L156.732067,60.0150416 L156.943272,60.0150416 L156.943272,58.7452003 L158.693251,58.7452003 L158.693251,68.5796158 L159.010057,68.5796158 L159.010057,62.6605442 L160.488488,62.6605442 L160.488488,54.6484505 L161.921661,54.6484505 L161.921661,51.8064248 L162.540188,51.8064248 L162.540188,50.5517007 L164.063877,50.5517007 L164.063877,51.7913076 L164.486285,51.7913076 L164.486285,52.2145881 L164.938866,52.2145881 L164.938866,54.2554044 L165.466877,54.2554044 L165.466877,55.2229025 L167.956072,55.2229025 L167.956072,56.5683296 L168.544427,56.5683296 L168.544427,60.5139078 L169.02718,60.5139078 L169.02718,61.2395314 L169.630621,61.2395314 L169.630621,61.9286019 L169.917255,61.9286019 L169.917255,59.2440665 L172,59.2440665 Z" id="Combined-Shape" fill="#4D4D4D" fill-rule="nonzero"></path>
                                    <path d="M217.776034,69.9938776 L217.776034,65.8612245 L221.206847,65.8612245 L221.206847,71.0023245 L223.022259,71.0023245 L223.022259,70.9109697 L223.617689,70.9109697 L223.617689,70.8204082 L224.568074,70.8204082 L224.568074,69.9974208 L224.82311,69.9974208 L224.82311,69.3510204 L228.544936,69.3510204 L228.544936,65.0346939 L239.764622,65.0346939 L239.764622,67.9734694 L240.957204,67.9734694 L240.957204,68.0653061 L243.275321,68.0653061 L243.275321,65.8612245 L244.295292,65.8612245 L244.295292,64.7591837 L252.269615,64.7591837 L252.269615,65.2183673 L252.653352,65.2183673 L252.653352,64.3 L255.991441,64.3 L255.991441,65.2183673 L257.289586,65.2183673 L257.289586,70.6367347 L261.091298,70.6367347 L261.091298,72.0682533 L263.654055,72.0682533 L263.654055,73.8510204 L264.89301,73.8510204 L264.89301,72.4734694 L267.118402,72.4734694 L267.118402,73.8510204 L268.760197,73.8510204 L268.760197,69.8147111 L268.867332,69.8147111 L268.867332,66.1367347 L272.019971,66.1367347 L272.019971,64.5755102 L273.596291,64.5755102 L273.596291,66.1367347 L276.74893,66.1367347 L276.74893,69.9938776 L279.345221,69.9938776 L279.345221,72.3816327 L280.217414,72.3816327 L280.217414,72.189938 L281.945089,72.189938 L281.945089,71.0023245 L284.022259,71.0023245 L284.022259,70.9109697 L285.568074,70.9109697 L285.568074,69.9974208 L289.544936,69.9974208 L289.544936,65.0346939 L300.764622,65.0346939 L300.764622,68.0653061 L306.754832,68.0653061 L306.754832,67.4394842 L307.845996,67.4394842 L307.845996,66.8 L309.573672,66.8 L309.573672,67.5308391 L310.573905,67.5308391 L310.573905,70.6367347 L312.169757,70.6367347 L312.169757,65.2183673 L313.653352,65.2183673 L313.653352,64.3 L316.991441,64.3 L316.991441,65.2183673 L318.289586,65.2183673 L318.289586,68.1443878 L318.601284,68.1443878 L318.601284,70.6367347 L322.091298,70.6367347 L322.091298,71.1494898 L328.507133,71.1494898 L328.507133,72.4147959 L329.545649,72.4147959 L329.545649,74.7872449 L329.760197,74.7872449 L329.760197,69.8147111 L333.94299,69.8147111 L333.94299,69.9632653 L335.616976,69.9632653 L335.616976,74.7872449 L337.614123,74.7872449 L337.614123,68.1443878 L338.492867,68.1443878 L338.492867,67.1954082 L345.363053,67.1954082 L345.363053,68.1443878 L346.241797,68.1443878 L346.241797,70.7540816 L348.558488,70.7540816 L348.558488,71.0023245 L350.492304,71.0023245 L350.492304,72.189938 L352.129049,72.189938 L352.129049,73.4428571 L352.952211,73.4428571 L352.952211,75.0244898 L359.662625,75.0244898 L359.662625,68.3816327 L362.378745,68.3816327 L362.378745,67.0372449 L363.736805,67.0372449 L363.736805,68.3816327 L366.452924,68.3816327 L366.452924,71.7030612 L368.689729,71.7030612 L368.689729,73.7591837 L376.645506,73.7591837 L376.645506,68.1443878 L377.477175,68.1443878 L377.477175,67.4326531 L387.143367,67.4326531 L387.143367,70.0423469 L393.773894,70.0423469 L393.773894,72.2566327 L394.539943,72.2566327 L394.539943,69.9632653 L396.616976,69.9632653 L396.616976,72.2566327 L396.96933,72.2566327 L396.96933,67.5908163 L398.247504,67.5908163 L398.247504,66.8 L401.123395,66.8 L401.123395,67.1954082 L406.363053,67.1954082 L406.363053,68.1443878 L407.241797,68.1443878 L407.241797,70.7540816 L409.558488,70.7540816 L409.558488,73.4428571 L413.952211,73.4428571 L413.952211,75.0244898 L420.662625,75.0244898 L420.662625,68.3816327 L423.378745,68.3816327 L423.378745,67.0372449 L424.736805,67.0372449 L424.736805,68.3816327 L427.452924,68.3816327 L427.452924,71.0023245 L433.554911,71.0023245 L433.554911,72.189938 L435.282586,72.189938 L435.282586,73.7591837 L437.322804,73.7591837 L437.322804,73.2586604 L438.477175,73.2586604 L438.477175,67.4326531 L448.143367,67.4326531 L448.143367,70.0423469 L448.870951,70.0423469 L448.870951,69.5808897 L450.507696,69.5808897 L450.507696,68.0867954 L457.96933,68.0867954 L457.96933,67.5908163 L459.247504,67.5908163 L459.247504,66.8 L462.123395,66.8 L462.123395,67.5908163 L463.241797,67.5908163 L463.241797,72.2566327 L465.926095,72.2566327 L465.926095,67.5308391 L466.926328,67.5308391 L466.926328,66.8 L467.05701,66.8 L467.05701,66.592701 L471.239803,66.592701 L471.239803,73.8382653 L471.7097,73.8382653 L471.7097,76.8433673 L473.291449,76.8433673 L473.291449,75.4787137 L473.822804,75.4787137 L473.822804,75.1132942 L474.877015,75.1132942 L474.877015,72.6840088 L481.747966,72.6840088 L481.747966,71.1850343 L482.93006,71.1850343 L482.93006,69.9974208 L483.151672,69.9974208 L483.151672,68.6614471 L486.788883,68.6614471 L486.788883,69.9974208 L490.931926,69.9974208 L490.931926,70.9109697 L492.477741,70.9109697 L492.477741,71.0023245 L494.554911,71.0023245 L494.554911,72.189938 L496.282586,72.189938 L496.282586,74.2911003 L497.791449,74.2911003 L497.791449,73.7183818 L498.322804,73.7183818 L498.322804,73.2586604 L503.55701,73.2586604 L503.55701,69.8147111 L505.244286,69.8147111 L505.244286,69.4278025 L506.247966,69.4278025 L506.247966,68.3166561 L507.43006,68.3166561 L507.43006,66.8225617 L515.431926,66.8225617 L515.431926,67.9718651 L516.977741,67.9718651 L516.977741,68.0867954 L519.054911,68.0867954 L519.054911,69.5808897 L520.782586,69.5808897 L520.782586,71.4590989 L523.288883,71.4590989 L523.288883,72.2242874 L525.343328,72.2242874 L525.343328,71.5347054 L526.926095,71.5347054 L526.926095,67.5308391 L527.926328,67.5308391 L527.926328,66.8 L528.05701,66.8 L528.05701,66.592701 L532.239803,66.592701 L532.239803,66.8225617 L538.06994,66.8225617 L538.06994,68.3166561 L539.252034,68.3166561 L539.252034,69.4278025 L540.255714,69.4278025 L540.255714,72.6840088 L542.747966,72.6840088 L542.747966,71.1850343 L543.93006,71.1850343 L543.93006,69.9974208 L544.151672,69.9974208 L544.151672,68.6614471 L547.788883,68.6614471 L547.788883,69.9974208 L551.931926,69.9974208 L551.931926,70.9109697 L553.477741,70.9109697 L554.568074,70.9109697 L554.568074,69.9974208 L562.56994,69.9974208 L562.56994,71.1850343 L563.752034,71.1850343 L563.752034,72.6840088 L566.244286,72.6840088 L566.244286,69.4278025 L567.247966,69.4278025 L567.247966,68.3166561 L568.43006,68.3166561 L568.43006,66.8225617 L574.260197,66.8225617 L574.260197,66.592701 L578.44299,66.592701 L578.44299,66.8 L578.573672,66.8 L578.573672,67.5308391 L579.573905,67.5308391 L579.573905,71.5347054 L581.156672,71.5347054 L581.156672,72.2242874 L583.211117,72.2242874 L583.211117,71.4590989 L585.717414,71.4590989 L585.717414,69.5808897 L587.445089,69.5808897 L587.445089,68.0867954 L589.522259,68.0867954 L589.522259,67.9718651 L591.068074,67.9718651 L591.068074,66.8225617 L599.06994,66.8225617 L599.06994,68.3166561 L600.252034,68.3166561 L600.252034,69.4278025 L601.255714,69.4278025 L601.255714,69.8147111 L602.94299,69.8147111 L602.94299,73.2586604 L608.177196,73.2586604 L608.177196,73.7183818 L608.708551,73.7183818 L608.708551,74.2911003 L610.217414,74.2911003 L610.217414,72.189938 L611.945089,72.189938 L611.945089,71.0023245 L614.022259,71.0023245 L614.022259,70.9109697 L615.568074,70.9109697 L615.568074,69.9974208 L619.711117,69.9974208 L619.711117,68.6614471 L623.348328,68.6614471 L623.348328,69.9974208 L623.56994,69.9974208 L623.56994,71.1850343 L624.752034,71.1850343 L624.752034,72.6840088 L631.622985,72.6840088 L631.622985,75.1132942 L632.677196,75.1132942 L632.677196,75.4787137 L633.208551,75.4787137 L633.208551,76.9364311 L635.260197,76.9364311 L635.260197,66.592701 L639.44299,66.592701 L639.44299,66.8 L639.573672,66.8 L639.573672,67.5308391 L640.573905,67.5308391 L640.573905,74.7527548 L642.35276,74.7527548 L642.35276,76.5749723 L644.211117,76.5749723 L644.211117,71.4590989 L646.717414,71.4590989 L646.717414,69.5808897 L648.445089,69.5808897 L648.445089,68.0867954 L655.992304,68.0867954 L655.992304,69.5808897 L657.629049,69.5808897 L657.629049,75.7871278 L659.083934,75.7871278 L659.083934,77.6260132 L659.760197,77.6260132 L659.760197,69.8147111 L663.94299,69.8147111 L663.94299,73.2586604 L669.177196,73.2586604 L669.177196,75.6721975 L671.217414,75.6721975 L671.217414,72.189938 L672.945089,72.189938 L672.945089,71.0023245 L680.492304,71.0023245 L680.492304,72.189938 L682.129049,72.189938 L682.129049,77.0513615 L682.72581,77.0513615 L682.72581,77.1231016 L683.583934,77.1231016 L683.583934,78.5847797 L685.402539,78.5847797 L685.402539,75.1132942 L693.677196,75.1132942 L693.677196,77.0317467 L700.860689,77.0317467 L700.860689,79.4983285 L704.861622,79.4983285 L704.861622,78.1280053 L707.22581,78.1280053 L707.22581,79.4983285 L710.226509,79.4983285 L710.226509,81.1427164 L713.5,81.1427164 L713.5,82.3 L711.742317,82.3 L609.5,82.3 L585,82.3 L478.5,82.3 L366.5,82.3 L252.5,82.3 L192,82.3 L190.242317,82.3 L61,82.3 L0,82.3 L0,79.863748 L4.72837525,79.863748 L4.72837525,77.9149657 L8.24428597,77.9149657 L8.24428597,72.0682533 L11.1540554,72.0682533 L11.1540554,77.9149657 L14.427364,77.9149657 L14.427364,75.1132942 L15.080971,75.1132942 L15.080971,74.4390952 L19.2364854,74.4390952 L19.2364854,75.1132942 L19.7922514,75.1132942 L19.7922514,77.8539406 L21.0652755,77.8539406 L21.0652755,73.742971 L23.1566722,73.742971 L23.1566722,78.0366504 L23.7931843,78.0366504 L23.7931843,76.6663272 L25.7027204,76.6663272 L25.7027204,74.2911003 L28.5215595,74.2911003 L28.5215595,77.579876 L31.5222592,77.579876 L31.5222592,70.9109697 L33.0680742,70.9109697 L33.0680742,69.9974208 L41.06994,69.9974208 L41.06994,71.1850343 L42.2520338,71.1850343 L42.2520338,77.9452955 L43.8887791,77.9452955 L43.8887791,76.3009077 L45.434594,76.3009077 L45.434594,77.9452955 L47.0713393,77.9452955 L47.0713393,75.4787137 L50.7085511,75.4787137 L50.7085511,78.7674894 L54.2548325,78.7674894 L54.2548325,67.4394842 L55.345996,67.4394842 L55.345996,66.8 L57.0736716,66.8 L57.0736716,67.5308391 L58.0739048,67.5308391 L58.0739048,76.5749723 L61.7111165,76.5749723 L61.7111165,71.4590989 L65.3483283,71.4590989 L65.3483283,74.6565198 L69.244286,74.6565198 L69.244286,72.0682533 L72.1540554,72.0682533 L72.1540554,74.6565198 L73.622985,74.6565198 L73.622985,77.9149657 L75.427364,77.9149657 L75.427364,75.1132942 L76.080971,75.1132942 L76.080971,74.4390952 L77.2601967,74.4390952 L77.2601967,69.8147111 L81.4429902,69.8147111 L81.4429902,76.3009077 L82.0652755,76.3009077 L82.0652755,73.742971 L84.1566722,73.742971 L84.1566722,75.1132942 L84.580971,75.1132942 L84.580971,74.4390952 L86.7027204,74.4390952 L86.7027204,74.2911003 L88.7174136,74.2911003 L88.7174136,72.189938 L90.4450892,72.189938 L90.4450892,71.0023245 L92.5222592,71.0023245 L92.5222592,70.9109697 L94.0680742,70.9109697 L94.0680742,69.9974208 L102.06994,69.9974208 L102.06994,70.9109697 L102.568074,70.9109697 L102.568074,69.9974208 L110.56994,69.9974208 L110.56994,71.1850343 L111.752034,71.1850343 L111.752034,77.0317467 L113.388779,77.0317467 L113.388779,76.3009077 L114.934594,76.3009077 L114.934594,77.0317467 L115.254832,77.0317467 L115.254832,67.4394842 L116.345996,67.4394842 L116.345996,66.8 L118.073672,66.8 L118.073672,67.5308391 L119.073905,67.5308391 L119.073905,75.4787137 L120.208551,75.4787137 L120.208551,76.5749723 L122.711117,76.5749723 L122.711117,71.4590989 L123.754832,71.4590989 L123.754832,67.4394842 L124.845996,67.4394842 L124.845996,66.8 L126.573672,66.8 L126.573672,67.5308391 L127.573905,67.5308391 L127.573905,74.6565198 L131.211117,74.6565198 L131.211117,71.4590989 L134.848328,71.4590989 L134.848328,74.6565198 L138.260197,74.6565198 L138.260197,69.8147111 L142.44299,69.8147111 L142.44299,74.6565198 L143.122985,74.6565198 L143.122985,76.3009077 L144.927364,76.3009077 L144.927364,75.1132942 L145.580971,75.1132942 L145.580971,74.4390952 L146.760197,74.4390952 L146.760197,69.8147111 L150.94299,69.8147111 L150.94299,72.189938 L151.445089,72.189938 L151.445089,71.0023245 L156.776034,71.0023245 L156.776034,65.8612245 L160.206847,65.8612245 L160.206847,71.0023245 L162.022259,71.0023245 L162.022259,70.9109697 L162.617689,70.9109697 L162.617689,70.8204082 L163.568074,70.8204082 L163.568074,69.9974208 L163.82311,69.9974208 L163.82311,69.3510204 L171.704708,69.3510204 L171.704708,70.8204082 L172.910128,70.8204082 L172.910128,73.5755102 L177.546362,73.5755102 L177.546362,67.9734694 L179.957204,67.9734694 L179.957204,73.5755102 L182.275321,73.5755102 L182.275321,65.8612245 L183.295292,65.8612245 L183.295292,64.7591837 L191.269615,64.7591837 L191.269615,65.8612245 L192.289586,65.8612245 L192.289586,68.8918367 L194.978602,68.8918367 L194.978602,71.4590989 L195.848328,71.4590989 L195.848328,72.0142857 L200.078459,72.0142857 L200.078459,72.0682533 L202.654055,72.0682533 L202.654055,73.8510204 L207.760197,73.8510204 L207.760197,69.8147111 L207.867332,69.8147111 L207.867332,66.1367347 L211.019971,66.1367347 L211.019971,64.5755102 L212.596291,64.5755102 L212.596291,66.1367347 L215.74893,66.1367347 L215.74893,69.9938776 L217.776034,69.9938776 Z" id="Combined-Shape" fill="#7D7D7D"></path>
                                    <path d="M379.788873,76.3009077 L379.788873,73.5755102 L383.776034,73.5755102 L383.776034,65.8612245 L387.206847,65.8612245 L387.206847,71.0023245 L389.617689,71.0023245 L389.617689,70.8204082 L390.82311,70.8204082 L390.82311,69.3510204 L398.704708,69.3510204 L398.704708,70.8204082 L399.910128,70.8204082 L399.910128,73.5755102 L404.546362,73.5755102 L404.546362,67.9734694 L406.957204,67.9734694 L406.957204,73.5755102 L409.275321,73.5755102 L409.275321,65.8612245 L410.295292,65.8612245 L410.295292,64.7591837 L418.269615,64.7591837 L418.269615,65.8612245 L419.289586,65.8612245 L419.289586,68.8918367 L421.978602,68.8918367 L421.978602,72.0142857 L427.078459,72.0142857 L427.078459,72.0682533 L429.654055,72.0682533 L429.654055,73.8510204 L434.867332,73.8510204 L434.867332,66.1367347 L438.019971,66.1367347 L438.019971,64.5755102 L439.596291,64.5755102 L439.596291,66.1367347 L442.74893,66.1367347 L442.74893,69.9938776 L445.345221,69.9938776 L445.345221,72.3816327 L450.022259,72.3816327 L450.022259,70.9109697 L451.568074,70.9109697 L451.568074,69.9974208 L455.544936,69.9974208 L455.544936,65.0346939 L466.764622,65.0346939 L466.764622,68.0653061 L472.754832,68.0653061 L472.754832,67.4394842 L473.845996,67.4394842 L473.845996,66.8 L475.573672,66.8 L475.573672,67.5308391 L476.573905,67.5308391 L476.573905,70.6367347 L478.169757,70.6367347 L478.169757,65.2183673 L479.653352,65.2183673 L479.653352,64.3 L482.991441,64.3 L482.991441,65.2183673 L484.289586,65.2183673 L484.289586,70.6367347 L488.091298,70.6367347 L488.091298,73.9428571 L491.89301,73.9428571 L491.89301,72.4734694 L494.118402,72.4734694 L494.118402,75.9632653 L495.760197,75.9632653 L495.760197,69.8147111 L499.94299,69.8147111 L499.94299,76.3009077 L502.85276,76.3009077 L502.85276,78.2193602 L505.762529,78.2193602 L505.762529,76.5749723 L507.217414,76.5749723 L507.217414,72.189938 L508.945089,72.189938 L508.945089,71.0023245 L516.492304,71.0023245 L516.492304,72.189938 L518.129049,72.189938 L518.129049,77.1231016 L519.583934,77.1231016 L519.583934,78.5847797 L521.402539,78.5847797 L521.402539,75.1132942 L529.677196,75.1132942 L529.677196,77.0317467 L536.860689,77.0317467 L536.860689,79.4983285 L539.210414,79.4983285 L539.210414,74.7872449 L542.645506,74.7872449 L542.645506,68.1443878 L545.601284,68.1443878 L545.601284,74.7872449 L547.678317,74.7872449 L547.678317,72.4147959 L548.716833,72.4147959 L548.716833,71.1494898 L555.507133,71.1494898 L555.507133,72.4147959 L556.545649,72.4147959 L556.545649,74.7872449 L560.539943,74.7872449 L560.539943,69.9632653 L562.616976,69.9632653 L562.616976,74.7872449 L564.614123,74.7872449 L564.614123,68.1443878 L565.492867,68.1443878 L565.492867,67.1954082 L572.363053,67.1954082 L572.363053,68.1443878 L573.241797,68.1443878 L573.241797,70.7540816 L575.558488,70.7540816 L575.558488,73.4428571 L579.952211,73.4428571 L579.952211,75.0244898 L586.662625,75.0244898 L586.662625,68.3816327 L589.378745,68.3816327 L589.378745,67.0372449 L590.736805,67.0372449 L590.736805,68.3816327 L593.452924,68.3816327 L593.452924,71.7030612 L595.689729,71.7030612 L595.689729,73.7591837 L604.477175,73.7591837 L604.477175,67.4326531 L614.143367,67.4326531 L614.143367,70.0423469 L620.773894,70.0423469 L620.773894,72.2566327 L623.96933,72.2566327 L623.96933,67.5908163 L625.247504,67.5908163 L625.247504,66.8 L628.123395,66.8 L628.123395,67.5908163 L629.241797,67.5908163 L629.241797,72.2566327 L632.517118,72.2566327 L632.517118,75.1035714 L635.792439,75.1035714 L635.792439,73.8382653 L637.7097,73.8382653 L637.7097,76.8433673 L639.822804,76.8433673 L639.822804,75.1132942 L648.097461,75.1132942 L648.097461,78.5847797 L649.916066,78.5847797 L649.916066,77.1231016 L650.77419,77.1231016 L650.77419,77.0513615 L651.370951,77.0513615 L651.370951,72.189938 L653.007696,72.189938 L653.007696,71.0023245 L660.554911,71.0023245 L660.554911,72.189938 L662.282586,72.189938 L662.282586,75.6721975 L664.322804,75.6721975 L664.322804,73.2586604 L669.55701,73.2586604 L669.55701,69.8147111 L673.739803,69.8147111 L673.739803,77.6260132 L674.416066,77.6260132 L674.416066,75.7871278 L675.870951,75.7871278 L677.377015,75.6919492 L677.377015,74.6565198 L685.651672,74.6565198 L685.651672,71.4590989 L689.288883,71.4590989 L689.288883,76.5749723 L691.14724,76.5749723 L691.14724,74.7527548 L694.05701,74.7527548 L698.239803,76.9364311 L700.291449,76.9364311 L700.291449,75.4787137 L701.877015,75.4787137 L701.877015,72.6840088 L708.747966,72.6840088 L708.747966,71.1850343 L709.93006,71.1850343 L709.93006,69.9974208 L713.111323,69.9974208 L720.154004,63.6045123 L721.245168,63.6045123 L721.245168,77.579876 L722.47844,77.579876 L722.47844,74.2911003 L724.791449,74.2911003 L724.791449,73.7183818 L728.428661,73.7183818 L728.428661,73.742971 L729.934725,73.742971 L729.934725,76.8215008 L730.065406,76.8215008 L730.065406,74.7527548 L731.611221,74.7527548 L731.611221,75.1132942 L731.763515,75.1132942 L731.763515,74.4390952 L733.247966,74.4390952 L733.247966,68.3166561 L734.43006,68.3166561 L734.43006,66.8225617 L742.431926,66.8225617 L742.431926,67.9718651 L743.977741,67.9718651 L743.977741,76.3617795 L746.97844,76.3617795 L746.97844,72.2242874 L749.79728,72.2242874 L749.79728,75.2124761 L751.706816,75.2124761 L751.706816,76.9364311 L752.343328,76.9364311 L752.343328,71.5347054 L754.434725,71.5347054 L754.434725,76.7065705 L755.707749,76.7065705 L755.707749,73.2586604 L756.263515,73.2586604 L756.263515,72.4104746 L756.744286,72.4104746 L756.744286,72.0682533 L759.654055,72.0682533 L759.654055,72.4104746 L760.419029,72.4104746 L760.419029,73.2586604 L761.072636,73.2586604 L761.072636,76.7833439 L762.927364,76.7833439 L762.927364,75.1132942 L763.580971,75.1132942 L763.580971,74.4390952 L764.345945,74.4390952 L764.345945,69.4278025 L767.255714,69.4278025 L767.255714,74.4390952 L767.736485,74.4390952 L767.736485,75.1132942 L768.292251,75.1132942 L768.292251,76.7833439 L769.565275,76.7833439 L769.565275,73.742971 L771.656672,73.742971 L771.656672,78.0366504 L772.293184,78.0366504 L772.293184,76.6663272 L774.20272,76.6663272 L774.20272,74.2911003 L777.02156,74.2911003 L777.02156,77.579876 L780.022259,77.579876 L780.022259,70.9109697 L790.752034,77.9452955 L792.388779,77.9452955 L792.388779,76.3009077 L793.934594,76.3009077 L793.934594,77.9452955 L795.571339,77.9452955 L795.571339,75.4787137 L799.208551,75.4787137 L799.208551,78.7674894 L802.754832,78.7674894 L806.573905,76.5749723 L810.211117,76.5749723 L813.848328,74.6565198 L822.122985,74.6565198 L822.122985,78.0366504 L825.760197,78.0366504 L825.760197,69.8147111 L829.94299,69.8147111 L829.94299,76.3009077 L832.85276,76.3009077 L832.85276,78.2193602 L835.762529,78.2193602 L835.762529,76.5749723 L837.217414,76.5749723 L848.129049,76.1231016 L849.583934,77.1231016 L849.583934,78.5847797 L851.402539,78.5847797 L851.402539,75.1132942 L859.677196,75.1132942 L859.677196,77.0317467 L866.860689,77.0317467 L866.860689,79.4983285 L870.861622,79.4983285 L870.861622,78.1280053 L873.22581,78.1280053 L873.22581,79.4983285 L876.226509,79.4983285 L876.226509,81.1427164 L879.5,81.1427164 L879.5,82.3 L877.742317,82.3 L775.5,82.3 L751,82.3 L644.5,82.3 L532.5,82.3 L418.5,82.3 L358,82.3 L356.242317,82.3 L227,82.3 L227,79.863748 L231.728375,79.863748 L231.728375,77.9149657 L235.244286,77.9149657 L235.244286,72.0682533 L238.154055,72.0682533 L238.154055,77.9149657 L241.427364,77.9149657 L241.427364,75.1132942 L242.080971,75.1132942 L242.080971,74.4390952 L246.236485,74.4390952 L246.236485,75.1132942 L246.792251,75.1132942 L246.792251,77.8539406 L248.065275,77.8539406 L248.065275,73.742971 L250.156672,73.742971 L250.156672,78.0366504 L250.793184,78.0366504 L250.793184,76.6663272 L252.70272,76.6663272 L252.70272,74.2911003 L255.52156,74.2911003 L255.52156,77.579876 L258.522259,77.579876 L258.522259,70.9109697 L260.068074,70.9109697 L260.068074,69.9974208 L268.06994,69.9974208 L268.06994,71.1850343 L269.252034,71.1850343 L269.252034,77.9452955 L270.888779,77.9452955 L270.888779,76.3009077 L272.434594,76.3009077 L272.434594,77.9452955 L274.071339,77.9452955 L274.071339,75.4787137 L277.708551,75.4787137 L277.708551,78.7674894 L281.254832,78.7674894 L281.254832,67.4394842 L282.345996,67.4394842 L282.345996,66.8 L284.073672,66.8 L284.073672,67.5308391 L285.073905,67.5308391 L285.073905,76.5749723 L288.711117,76.5749723 L288.711117,71.4590989 L292.348328,71.4590989 L292.348328,74.6565198 L300.622985,74.6565198 L300.622985,78.0366504 L301.228375,78.0366504 L301.228375,77.9149657 L304.260197,77.9149657 L304.260197,69.8147111 L308.44299,69.8147111 L308.44299,76.3009077 L310.927364,76.3009077 L310.927364,75.1132942 L311.580971,75.1132942 L311.580971,74.4390952 L315.717414,74.4390952 L315.717414,72.189938 L317.445089,72.189938 L317.445089,71.0023245 L324.992304,71.0023245 L324.992304,72.189938 L326.629049,72.189938 L326.629049,77.1231016 L328.022259,77.1231016 L328.022259,70.9109697 L329.568074,70.9109697 L329.568074,69.9974208 L337.56994,69.9974208 L337.56994,71.1850343 L338.752034,71.1850343 L338.752034,77.0317467 L340.388779,77.0317467 L340.388779,76.3009077 L341.934594,76.3009077 L341.934594,77.0317467 L343.571339,77.0317467 L343.571339,75.4787137 L347.208551,75.4787137 L347.208551,78.7674894 L349.361622,78.7674894 L349.361622,78.1280053 L350.754832,78.1280053 L350.754832,67.4394842 L351.845996,67.4394842 L351.845996,66.8 L353.573672,66.8 L353.573672,67.5308391 L354.573905,67.5308391 L354.573905,76.5749723 L358.211117,76.5749723 L358.211117,71.4590989 L361.848328,71.4590989 L361.848328,74.6565198 L370.122985,74.6565198 L370.122985,78.0366504 L373.760197,78.0366504 L373.760197,69.8147111 L377.94299,69.8147111 L377.94299,76.3009077 L379.788873,76.3009077 Z" id="Combined-Shape-Copy-3" fill="#7D7D7D"></path>
                                </g>
                            </g>
                        </g>
                    </g>
                    <g id="titlearea" transform="translate(22.000000, 10.000000)">
                        <g transform="translate(0.000000, 3.932584)">
                            <path d="M17.9238102,40.2404494 C17.9238102,40.5438217 17.9585288,40.8387626 18.0279672,41.1252809 C18.0974055,41.4117992 18.2081744,41.6696618 18.3602774,41.8988764 C18.5123803,42.128091 18.7107725,42.3117971 18.9554599,42.45 C19.2001472,42.5882029 19.4977355,42.6573034 19.8482336,42.6573034 C20.1987317,42.6573034 20.4963199,42.5882029 20.7410073,42.45 C20.9856947,42.3117971 21.1840868,42.128091 21.3361898,41.8988764 C21.4882927,41.6696618 21.5990617,41.4117992 21.6685,41.1252809 C21.7379383,40.8387626 21.7726569,40.5438217 21.7726569,40.2404494 C21.7726569,39.9235939 21.7379383,39.6168554 21.6685,39.3202247 C21.5990617,39.023594 21.4882927,38.7589899 21.3361898,38.5264045 C21.1840868,38.2938191 20.9856947,38.1084277 20.7410073,37.9702247 C20.4963199,37.8320218 20.1987317,37.7629213 19.8482336,37.7629213 C19.4977355,37.7629213 19.2001472,37.8320218 18.9554599,37.9702247 C18.7107725,38.1084277 18.5123803,38.2938191 18.3602774,38.5264045 C18.2081744,38.7589899 18.0974055,39.023594 18.0279672,39.3202247 C17.9585288,39.6168554 17.9238102,39.9235939 17.9238102,40.2404494 Z M16.3664161,40.2404494 C16.3664161,39.7011209 16.4457729,39.2005641 16.6044891,38.738764 C16.7632052,38.276964 16.9913562,37.874159 17.2889489,37.5303371 C17.5865416,37.1865151 17.9519139,36.9168549 18.3850766,36.7213483 C18.8182394,36.5258417 19.3059535,36.4280899 19.8482336,36.4280899 C20.3971268,36.4280899 20.8864942,36.5258417 21.3163504,36.7213483 C21.7462065,36.9168549 22.1099255,37.1865151 22.4075182,37.5303371 C22.705111,37.874159 22.933262,38.276964 23.0919781,38.738764 C23.2506942,39.2005641 23.3300511,39.7011209 23.3300511,40.2404494 C23.3300511,40.7662948 23.2506942,41.2567393 23.0919781,41.7117978 C22.933262,42.1668562 22.705111,42.5629197 22.4075182,42.9 C22.1099255,43.2370803 21.7462065,43.5016844 21.3163504,43.6938202 C20.8864942,43.885956 20.3971268,43.9820225 19.8482336,43.9820225 C19.3059535,43.9820225 18.8182394,43.885956 18.3850766,43.6938202 C17.9519139,43.5016844 17.5865416,43.2370803 17.2889489,42.9 C16.9913562,42.5629197 16.7632052,42.1668562 16.6044891,41.7117978 C16.4457729,41.2567393 16.3664161,40.7662948 16.3664161,40.2404494 Z M29.0537226,43.8202247 L27.714562,43.8202247 L27.714562,43.0921348 L27.6848029,43.0921348 C27.5062473,43.3955071 27.2747897,43.6146061 26.9904234,43.7494382 C26.706057,43.8842703 26.4150818,43.9516854 26.1174891,43.9516854 C25.7405383,43.9516854 25.4313771,43.9011241 25.1899964,43.8 C24.9486156,43.6988759 24.7584897,43.5556189 24.6196131,43.3702247 C24.4807365,43.1848305 24.3831937,42.9589901 24.3269818,42.6926966 C24.2707698,42.4264032 24.2426642,42.1314623 24.2426642,41.8078652 L24.2426642,38.5921348 L25.6512628,38.5921348 L25.6512628,41.5449438 C25.6512628,41.9764067 25.7173935,42.2983135 25.8496569,42.5106742 C25.9819204,42.7230348 26.2166844,42.8292135 26.5539562,42.8292135 C26.9375202,42.8292135 27.2152692,42.7129225 27.3872117,42.4803371 C27.5591541,42.2477516 27.6451241,41.8651712 27.6451241,41.3325843 L27.6451241,38.5921348 L29.0537226,38.5921348 L29.0537226,43.8202247 Z M30.1250511,38.5921348 L31.4642117,38.5921348 L31.4642117,39.5629213 L31.4840511,39.5629213 C31.5501828,39.4011228 31.6394593,39.2511243 31.7518832,39.1129213 C31.8643071,38.9747184 31.993262,38.8567421 32.1387518,38.7589888 C32.2842416,38.6612355 32.4396488,38.5853935 32.6049781,38.5314607 C32.7703074,38.4775278 32.9422473,38.4505618 33.1208029,38.4505618 C33.2133873,38.4505618 33.3158899,38.4674156 33.4283139,38.5011236 L33.4283139,39.8359551 C33.3621822,39.8224718 33.2828253,39.8106742 33.1902409,39.8005618 C33.0976565,39.7904494 33.00838,39.7853933 32.9224088,39.7853933 C32.6644951,39.7853933 32.4462637,39.829213 32.267708,39.9168539 C32.0891524,40.0044948 31.9453181,40.1241565 31.8362007,40.2758427 C31.7270834,40.4275288 31.6493798,40.6044934 31.6030876,40.8067416 C31.5567954,41.0089898 31.5336496,41.2280887 31.5336496,41.4640449 L31.5336496,43.8202247 L30.1250511,43.8202247 L30.1250511,38.5921348 Z M38.4476861,39.8662921 L40.1538759,39.8662921 C40.5109872,39.8662921 40.7788166,39.7853941 40.9573723,39.6235955 C41.1359279,39.4617969 41.2252044,39.1988782 41.2252044,38.8348315 C41.2252044,38.4842679 41.1359279,38.2297761 40.9573723,38.0713483 C40.7788166,37.9129206 40.5109872,37.8337079 40.1538759,37.8337079 L38.4476861,37.8337079 L38.4476861,39.8662921 Z M36.890292,36.6 L40.7093796,36.6 C41.0268118,36.6 41.3128272,36.6522467 41.5674343,36.7567416 C41.8220414,36.8612365 42.0402728,37.0044935 42.222135,37.1865169 C42.4039973,37.3685402 42.5428718,37.5792123 42.6387628,37.8185393 C42.7346538,38.0578664 42.7825985,38.315729 42.7825985,38.5921348 C42.7825985,39.0168561 42.6949753,39.3842681 42.5197263,39.694382 C42.3444772,40.0044959 42.0584618,40.2404486 41.6616715,40.4022472 L41.6616715,40.4224719 C41.8534535,40.4764048 42.0121673,40.5589882 42.1378175,40.6702247 C42.2634678,40.7814612 42.3659704,40.9129206 42.4453285,41.0646067 C42.5246865,41.2162929 42.5825509,41.3831452 42.6189234,41.5651685 C42.6552958,41.7471919 42.6800948,41.9292126 42.6933212,42.111236 C42.6999343,42.2258433 42.7065474,42.3606734 42.7131606,42.5157303 C42.7197738,42.6707873 42.7313466,42.8292127 42.7478796,42.9910112 C42.7644125,43.1528098 42.7908648,43.3061791 42.8272372,43.4511236 C42.8636097,43.5960681 42.9181675,43.7191006 42.9909124,43.8202247 L41.4335182,43.8202247 C41.347547,43.5910101 41.2946424,43.3179791 41.2748029,43.0011236 C41.2549634,42.6842681 41.2252046,42.3809003 41.1855255,42.0910112 C41.1326202,41.7134813 41.0201979,41.4370795 40.8482555,41.2617978 C40.676313,41.086516 40.3952574,40.9988764 40.0050803,40.9988764 L38.4476861,40.9988764 L38.4476861,43.8202247 L36.890292,43.8202247 L36.890292,36.6 Z M47.3555839,40.6449438 C47.2894522,40.2808971 47.1720702,40.0044953 47.0034343,39.8157303 C46.8347984,39.6269653 46.5785419,39.5325843 46.2346569,39.5325843 C46.0098091,39.5325843 45.8229898,39.5713479 45.6741934,39.6488764 C45.5253971,39.7264049 45.4063618,39.8224713 45.3170839,39.9370787 C45.2278061,40.051686 45.1649819,40.1730331 45.1286095,40.3011236 C45.092237,40.4292141 45.0707446,40.5438197 45.0641314,40.6449438 L47.3555839,40.6449438 Z M45.0641314,41.5550562 C45.0839709,42.020227 45.1996997,42.3573023 45.4113212,42.5662921 C45.6229427,42.7752819 45.927144,42.8797753 46.3239343,42.8797753 C46.6083007,42.8797753 46.8529844,42.8073041 47.0579927,42.6623596 C47.263001,42.517415 47.3886494,42.3640458 47.4349416,42.2022472 L48.6749051,42.2022472 C48.47651,42.8292166 48.1723086,43.2775267 47.762292,43.547191 C47.3522753,43.8168553 46.8562949,43.9516854 46.2743358,43.9516854 C45.8709323,43.9516854 45.5072133,43.8859557 45.1831679,43.7544944 C44.8591225,43.6230331 44.58468,43.4359563 44.3598321,43.1932584 C44.1349843,42.9505606 43.9613911,42.6606758 43.8390474,42.3235955 C43.7167038,41.9865152 43.6555328,41.6157324 43.6555328,41.211236 C43.6555328,40.8202228 43.718357,40.4561815 43.8440073,40.1191011 C43.9696576,39.7820208 44.1482105,39.4904507 44.3796715,39.244382 C44.6111325,38.9983134 44.8872283,38.8044951 45.2079672,38.6629213 C45.528706,38.5213476 45.8841586,38.4505618 46.2743358,38.4505618 C46.7108051,38.4505618 47.0910568,38.536516 47.4151022,38.708427 C47.7391476,38.8803379 48.0053238,39.1112345 48.2136387,39.4011236 C48.4219536,39.6910127 48.572401,40.0213465 48.6649854,40.3921348 C48.7575698,40.7629232 48.7906352,41.1505598 48.7641825,41.5550562 L45.0641314,41.5550562 Z M52.1864818,42.8797753 C52.4179428,42.8797753 52.6113751,42.8325847 52.7667847,42.7382022 C52.9221942,42.6438198 53.0478426,42.5207873 53.1437336,42.3691011 C53.2396246,42.217415 53.3074086,42.0404504 53.3470876,41.8382022 C53.3867666,41.635954 53.4066058,41.4303381 53.4066058,41.2213483 C53.4066058,41.0123585 53.3851134,40.8067426 53.3421277,40.6044944 C53.2991421,40.4022462 53.2280516,40.2219109 53.128854,40.0634831 C53.0296564,39.9050554 52.9023548,39.7769668 52.7469453,39.6792135 C52.5915357,39.5814602 52.4014099,39.5325843 52.176562,39.5325843 C51.945101,39.5325843 51.7516687,39.5814602 51.5962591,39.6792135 C51.4408496,39.7769668 51.3152012,39.90337 51.2193102,40.058427 C51.1234192,40.2134839 51.0556352,40.3921338 51.0159562,40.594382 C50.9762772,40.7966302 50.956438,41.0056169 50.956438,41.2213483 C50.956438,41.4303381 50.9779304,41.635954 51.0209161,41.8382022 C51.0639017,42.0404504 51.1333389,42.217415 51.2292299,42.3691011 C51.3251209,42.5207873 51.4524226,42.6438198 51.6111387,42.7382022 C51.7698548,42.8325847 51.9616339,42.8797753 52.1864818,42.8797753 Z M49.597438,38.5921348 L50.9365985,38.5921348 L50.9365985,39.2595506 L50.956438,39.2595506 C51.1283804,38.9764031 51.3466118,38.7707872 51.6111387,38.6426966 C51.8756656,38.5146061 52.1666407,38.4505618 52.484073,38.4505618 C52.8874765,38.4505618 53.2346628,38.5280891 53.5256423,38.6831461 C53.8166219,38.838203 54.057999,39.0438189 54.249781,39.3 C54.441563,39.5561811 54.5837441,39.8544927 54.6763285,40.1949438 C54.7689129,40.535395 54.8152044,40.8910094 54.8152044,41.2617978 C54.8152044,41.6123613 54.7689129,41.9494366 54.6763285,42.2730337 C54.5837441,42.5966308 54.4432163,42.8831448 54.2547409,43.1325843 C54.0662655,43.3820237 53.8315014,43.5808981 53.5504416,43.7292135 C53.2693818,43.8775288 52.9403814,43.9516854 52.5634307,43.9516854 C52.2459984,43.9516854 51.95337,43.8859557 51.6855365,43.7544944 C51.417703,43.6230331 51.1978184,43.4292148 51.0258759,43.1730337 L51.0060365,43.1730337 L51.0060365,45.6505618 L49.597438,45.6505618 L49.597438,38.5921348 Z M56.9082628,41.211236 C56.9082628,41.4202258 56.928102,41.6241563 56.967781,41.8230337 C57.0074601,42.0219111 57.075244,42.200561 57.171135,42.3589888 C57.267026,42.5174165 57.3943277,42.6438198 57.5530438,42.7382022 C57.7117599,42.8325847 57.9101521,42.8797753 58.1482263,42.8797753 C58.3863005,42.8797753 58.5863459,42.8325847 58.7483686,42.7382022 C58.9103913,42.6438198 59.0393462,42.5174165 59.1352372,42.3589888 C59.2311282,42.200561 59.2989122,42.0219111 59.3385912,41.8230337 C59.3782703,41.6241563 59.3981095,41.4202258 59.3981095,41.211236 C59.3981095,41.0022461 59.3782703,40.7966302 59.3385912,40.594382 C59.2989122,40.3921338 59.2311282,40.2134839 59.1352372,40.058427 C59.0393462,39.90337 58.9103913,39.7769668 58.7483686,39.6792135 C58.5863459,39.5814602 58.3863005,39.5325843 58.1482263,39.5325843 C57.9101521,39.5325843 57.7117599,39.5814602 57.5530438,39.6792135 C57.3943277,39.7769668 57.267026,39.90337 57.171135,40.058427 C57.075244,40.2134839 57.0074601,40.3921338 56.967781,40.594382 C56.928102,40.7966302 56.9082628,41.0022461 56.9082628,41.211236 Z M55.4996642,41.211236 C55.4996642,40.7932563 55.5624884,40.4140466 55.6881387,40.0735955 C55.8137889,39.7331444 55.9923419,39.4432596 56.2238029,39.2039326 C56.4552639,38.9646055 56.733013,38.7792141 57.0570584,38.6477528 C57.3811038,38.5162915 57.7448228,38.4505618 58.1482263,38.4505618 C58.5516298,38.4505618 58.917002,38.5162915 59.244354,38.6477528 C59.571706,38.7792141 59.8511083,38.9646055 60.0825693,39.2039326 C60.3140304,39.4432596 60.4925833,39.7331444 60.6182336,40.0735955 C60.7438838,40.4140466 60.806708,40.7932563 60.806708,41.211236 C60.806708,41.6292156 60.7438838,42.0067399 60.6182336,42.3438202 C60.4925833,42.6809006 60.3140304,42.9690999 60.0825693,43.208427 C59.8511083,43.447754 59.571706,43.63146 59.244354,43.7595506 C58.917002,43.8876411 58.5516298,43.9516854 58.1482263,43.9516854 C57.7448228,43.9516854 57.3811038,43.8876411 57.0570584,43.7595506 C56.733013,43.63146 56.4552639,43.447754 56.2238029,43.208427 C55.9923419,42.9690999 55.8137889,42.6809006 55.6881387,42.3438202 C55.5624884,42.0067399 55.4996642,41.6292156 55.4996642,41.211236 Z M61.7193212,38.5921348 L63.0584818,38.5921348 L63.0584818,39.5629213 L63.0783212,39.5629213 C63.1444529,39.4011228 63.2337294,39.2511243 63.3461533,39.1129213 C63.4585772,38.9747184 63.5875321,38.8567421 63.7330219,38.7589888 C63.8785117,38.6612355 64.0339189,38.5853935 64.1992482,38.5314607 C64.3645775,38.4775278 64.5365174,38.4505618 64.715073,38.4505618 C64.8076574,38.4505618 64.91016,38.4674156 65.0225839,38.5011236 L65.0225839,39.8359551 C64.9564522,39.8224718 64.8770954,39.8106742 64.7845109,39.8005618 C64.6919265,39.7904494 64.6026501,39.7853933 64.5166788,39.7853933 C64.2587651,39.7853933 64.0405337,39.829213 63.8619781,39.9168539 C63.6834225,40.0044948 63.5395881,40.1241565 63.4304708,40.2758427 C63.3213535,40.4275288 63.2436499,40.6044934 63.1973577,40.8067416 C63.1510655,41.0089898 63.1279197,41.2280887 63.1279197,41.4640449 L63.1279197,43.8202247 L61.7193212,43.8202247 L61.7193212,38.5921348 Z M67.363635,38.5921348 L68.3952847,38.5921348 L68.3952847,39.552809 L67.363635,39.552809 L67.363635,42.141573 C67.363635,42.3842709 67.4033135,42.546067 67.4826715,42.6269663 C67.5620296,42.7078656 67.7207433,42.7483146 67.9588175,42.7483146 C68.0381756,42.7483146 68.1142259,42.7449439 68.1869708,42.7382022 C68.2597157,42.7314606 68.329153,42.7213484 68.3952847,42.7078652 L68.3952847,43.8202247 C68.2762476,43.8404495 68.1439861,43.8539326 67.9984964,43.8606742 C67.8530066,43.8674158 67.7108255,43.8707865 67.5719489,43.8707865 C67.3537142,43.8707865 67.1470557,43.8556181 66.9519672,43.8252809 C66.7568786,43.7949437 66.5849387,43.7359555 66.4361423,43.6483146 C66.287346,43.5606737 66.1699639,43.4359559 66.0839927,43.2741573 C65.9980215,43.1123587 65.9550365,42.9000013 65.9550365,42.6370787 L65.9550365,39.552809 L65.1019416,39.552809 L65.1019416,38.5921348 L65.9550365,38.5921348 L65.9550365,37.0247191 L67.363635,37.0247191 L67.363635,38.5921348 Z M70.5181022,37.7831461 L69.1095036,37.7831461 L69.1095036,36.6 L70.5181022,36.6 L70.5181022,37.7831461 Z M69.1095036,38.5921348 L70.5181022,38.5921348 L70.5181022,43.8202247 L69.1095036,43.8202247 L69.1095036,38.5921348 Z M71.6291095,38.5921348 L72.9682701,38.5921348 L72.9682701,39.3202247 L72.9980292,39.3202247 C73.1765848,39.0168524 73.4080424,38.7960681 73.6924088,38.6578652 C73.9767751,38.5196622 74.2677503,38.4505618 74.5653431,38.4505618 C74.9422939,38.4505618 75.251455,38.5028085 75.4928358,38.6073034 C75.7342165,38.7117983 75.9243424,38.8567406 76.063219,39.0421348 C76.2020956,39.227529 76.2996384,39.4533695 76.3558504,39.7196629 C76.4120623,39.9859564 76.4401679,40.2808973 76.4401679,40.6044944 L76.4401679,43.8202247 L75.0315693,43.8202247 L75.0315693,40.8674157 C75.0315693,40.4359529 74.9654386,40.114046 74.8331752,39.9016854 C74.7009117,39.6893248 74.4661477,39.5831461 74.1288759,39.5831461 C73.745312,39.5831461 73.4675629,39.699437 73.2956204,39.9320225 C73.123678,40.1646079 73.037708,40.5471883 73.037708,41.0797753 L73.037708,43.8202247 L71.6291095,43.8202247 L71.6291095,38.5921348 Z M79.902146,42.5865169 C80.1005411,42.5865169 80.2757876,42.5460678 80.4278905,42.4651685 C80.5799935,42.3842693 80.7056418,42.2764052 80.8048394,42.141573 C80.904037,42.0067409 80.9784341,41.8533716 81.0280328,41.6814607 C81.0776316,41.5095497 81.1024307,41.3292144 81.1024307,41.1404494 C81.1024307,40.924718 81.0825914,40.7207875 81.0429124,40.5286517 C81.0032334,40.3365159 80.9371027,40.1662929 80.8445182,40.0179775 C80.7519338,39.8696622 80.629592,39.7516858 80.4774891,39.6640449 C80.3253861,39.5764041 80.133607,39.5325843 79.902146,39.5325843 C79.7037508,39.5325843 79.5334642,39.5730333 79.391281,39.6539326 C79.2490978,39.7348319 79.1300625,39.8443813 79.0341715,39.9825843 C78.9382805,40.1207872 78.8688433,40.2792126 78.8258577,40.4578652 C78.782872,40.6365177 78.7613796,40.8235945 78.7613796,41.0191011 C78.7613796,41.2078661 78.7795655,41.3949429 78.815938,41.5803371 C78.8523104,41.7657313 78.9151346,41.9325835 79.0044124,42.0808989 C79.0936902,42.2292142 79.2110723,42.3505613 79.356562,42.4449438 C79.5020518,42.5393263 79.6839113,42.5865169 79.902146,42.5865169 Z M82.4415912,43.4865169 C82.4415912,43.6955067 82.4134857,43.9348301 82.3572737,44.2044944 C82.3010618,44.4741587 82.1803732,44.7252797 81.9952044,44.9578652 C81.8100356,45.1904506 81.5422061,45.3876396 81.191708,45.5494382 C80.8412099,45.7112368 80.3716818,45.7921348 79.7831095,45.7921348 C79.531809,45.7921348 79.2755524,45.7601127 79.0143321,45.6960674 C78.7531118,45.6320222 78.5150412,45.5325849 78.3001131,45.3977528 C78.0851851,45.2629207 77.9066321,45.0893269 77.7644489,44.8769663 C77.6222657,44.6646057 77.5412556,44.4101138 77.5214161,44.1134831 L78.9200949,44.1134831 C78.9862266,44.3831474 79.1151815,44.5702242 79.3069635,44.6747191 C79.4987455,44.779214 79.7202834,44.8314607 79.9715839,44.8314607 C80.3683742,44.8314607 80.6576962,44.7101136 80.8395584,44.4674157 C81.0214206,44.2247179 81.1090438,43.9179794 81.1024307,43.547191 L81.1024307,42.8595506 L81.0825912,42.8595506 C80.9304883,43.1359564 80.7139102,43.339887 80.4328504,43.4713483 C80.1517906,43.6028096 79.8558556,43.6685393 79.5450365,43.6685393 C79.1614725,43.6685393 78.8308189,43.5994389 78.5530657,43.461236 C78.2753125,43.323033 78.0471615,43.1342709 77.8686058,42.8949438 C77.6900502,42.6556168 77.559442,42.3758443 77.4767774,42.055618 C77.3941127,41.7353917 77.352781,41.396631 77.352781,41.0393258 C77.352781,40.7022455 77.4007258,40.3769679 77.4966168,40.0634831 C77.5925078,39.7499984 77.7330356,39.4735967 77.9182044,39.2342697 C78.1033732,38.9949426 78.3331775,38.8044951 78.6076241,38.6629213 C78.8820707,38.5213476 79.1978449,38.4505618 79.5549562,38.4505618 C79.892228,38.4505618 80.188163,38.5146061 80.4427701,38.6426966 C80.6973772,38.7707872 80.9106488,38.9865153 81.0825912,39.2898876 L81.1024307,39.2898876 L81.1024307,38.5921348 L82.4415912,38.5921348 L82.4415912,43.4865169 Z M86.4789124,36.6 L88.0363066,36.6 L88.0363066,43.8202247 L86.4789124,43.8202247 L86.4789124,36.6 Z M89.2564307,38.5921348 L90.5955912,38.5921348 L90.5955912,39.3202247 L90.6253504,39.3202247 C90.803906,39.0168524 91.0353635,38.7960681 91.3197299,38.6578652 C91.6040963,38.5196622 91.8950715,38.4505618 92.1926642,38.4505618 C92.569615,38.4505618 92.8787762,38.5028085 93.1201569,38.6073034 C93.3615377,38.7117983 93.5516635,38.8567406 93.6905401,39.0421348 C93.8294168,39.227529 93.9269596,39.4533695 93.9831715,39.7196629 C94.0393835,39.9859564 94.0674891,40.2808973 94.0674891,40.6044944 L94.0674891,43.8202247 L92.6588905,43.8202247 L92.6588905,40.8674157 C92.6588905,40.4359529 92.5927598,40.114046 92.4604964,39.9016854 C92.3282329,39.6893248 92.0934688,39.5831461 91.7561971,39.5831461 C91.3726331,39.5831461 91.0948841,39.699437 90.9229416,39.9320225 C90.7509991,40.1646079 90.6650292,40.5471883 90.6650292,41.0797753 L90.6650292,43.8202247 L89.2564307,43.8202247 L89.2564307,38.5921348 Z M99.880438,41.0089888 L97.2814745,36.6 L99.0273431,36.6 L100.683934,39.4516854 L102.330606,36.6 L104.066555,36.6 L101.437832,41.0494382 L101.437832,43.8202247 L99.880438,43.8202247 L99.880438,41.0089888 Z M104.661737,41.211236 C104.661737,41.4202258 104.681576,41.6241563 104.721255,41.8230337 C104.760935,42.0219111 104.828718,42.200561 104.924609,42.3589888 C105.0205,42.5174165 105.147802,42.6438198 105.306518,42.7382022 C105.465234,42.8325847 105.663627,42.8797753 105.901701,42.8797753 C106.139775,42.8797753 106.33982,42.8325847 106.501843,42.7382022 C106.663866,42.6438198 106.792821,42.5174165 106.888712,42.3589888 C106.984603,42.200561 107.052387,42.0219111 107.092066,41.8230337 C107.131745,41.6241563 107.151584,41.4202258 107.151584,41.211236 C107.151584,41.0022461 107.131745,40.7966302 107.092066,40.594382 C107.052387,40.3921338 106.984603,40.2134839 106.888712,40.058427 C106.792821,39.90337 106.663866,39.7769668 106.501843,39.6792135 C106.33982,39.5814602 106.139775,39.5325843 105.901701,39.5325843 C105.663627,39.5325843 105.465234,39.5814602 105.306518,39.6792135 C105.147802,39.7769668 105.0205,39.90337 104.924609,40.058427 C104.828718,40.2134839 104.760935,40.3921338 104.721255,40.594382 C104.681576,40.7966302 104.661737,41.0022461 104.661737,41.211236 Z M103.253139,41.211236 C103.253139,40.7932563 103.315963,40.4140466 103.441613,40.0735955 C103.567263,39.7331444 103.745816,39.4432596 103.977277,39.2039326 C104.208738,38.9646055 104.486487,38.7792141 104.810533,38.6477528 C105.134578,38.5162915 105.498297,38.4505618 105.901701,38.4505618 C106.305104,38.4505618 106.670476,38.5162915 106.997828,38.6477528 C107.32518,38.7792141 107.604583,38.9646055 107.836044,39.2039326 C108.067505,39.4432596 108.246058,39.7331444 108.371708,40.0735955 C108.497358,40.4140466 108.560182,40.7932563 108.560182,41.211236 C108.560182,41.6292156 108.497358,42.0067399 108.371708,42.3438202 C108.246058,42.6809006 108.067505,42.9690999 107.836044,43.208427 C107.604583,43.447754 107.32518,43.63146 106.997828,43.7595506 C106.670476,43.8876411 106.305104,43.9516854 105.901701,43.9516854 C105.498297,43.9516854 105.134578,43.8876411 104.810533,43.7595506 C104.486487,43.63146 104.208738,43.447754 103.977277,43.208427 C103.745816,42.9690999 103.567263,42.6809006 103.441613,42.3438202 C103.315963,42.0067399 103.253139,41.6292156 103.253139,41.211236 Z M114.283854,43.8202247 L112.944693,43.8202247 L112.944693,43.0921348 L112.914934,43.0921348 C112.736379,43.3955071 112.504921,43.6146061 112.220555,43.7494382 C111.936188,43.8842703 111.645213,43.9516854 111.34762,43.9516854 C110.97067,43.9516854 110.661509,43.9011241 110.420128,43.8 C110.178747,43.6988759 109.988621,43.5556189 109.849745,43.3702247 C109.710868,43.1848305 109.613325,42.9589901 109.557113,42.6926966 C109.500901,42.4264032 109.472796,42.1314623 109.472796,41.8078652 L109.472796,38.5921348 L110.881394,38.5921348 L110.881394,41.5449438 C110.881394,41.9764067 110.947525,42.2983135 111.079788,42.5106742 C111.212052,42.7230348 111.446816,42.8292135 111.784088,42.8292135 C112.167652,42.8292135 112.445401,42.7129225 112.617343,42.4803371 C112.789286,42.2477516 112.875255,41.8651712 112.875255,41.3325843 L112.875255,38.5921348 L114.283854,38.5921348 L114.283854,43.8202247 Z M115.355182,38.5921348 L116.694343,38.5921348 L116.694343,39.5629213 L116.714182,39.5629213 C116.780314,39.4011228 116.869591,39.2511243 116.982015,39.1129213 C117.094439,38.9747184 117.223393,38.8567421 117.368883,38.7589888 C117.514373,38.6612355 117.66978,38.5853935 117.835109,38.5314607 C118.000439,38.4775278 118.172379,38.4505618 118.350934,38.4505618 C118.443519,38.4505618 118.546021,38.4674156 118.658445,38.5011236 L118.658445,39.8359551 C118.592314,39.8224718 118.512957,39.8106742 118.420372,39.8005618 C118.327788,39.7904494 118.238511,39.7853933 118.15254,39.7853933 C117.894626,39.7853933 117.676395,39.829213 117.497839,39.9168539 C117.319284,40.0044948 117.175449,40.1241565 117.066332,40.2758427 C116.957215,40.4275288 116.879511,40.6044934 116.833219,40.8067416 C116.786927,41.0089898 116.763781,41.2280887 116.763781,41.4640449 L116.763781,43.8202247 L115.355182,43.8202247 L115.355182,38.5921348 Z M122.120423,36.6 L123.677818,36.6 L123.677818,43.8202247 L122.120423,43.8202247 L122.120423,36.6 Z M124.897942,38.5921348 L126.237102,38.5921348 L126.237102,39.3202247 L126.266861,39.3202247 C126.445417,39.0168524 126.676874,38.7960681 126.961241,38.6578652 C127.245607,38.5196622 127.536582,38.4505618 127.834175,38.4505618 C128.211126,38.4505618 128.520287,38.5028085 128.761668,38.6073034 C129.003049,38.7117983 129.193174,38.8567406 129.332051,39.0421348 C129.470928,39.227529 129.568471,39.4533695 129.624682,39.7196629 C129.680894,39.9859564 129.709,40.2808973 129.709,40.6044944 L129.709,43.8202247 L128.300401,43.8202247 L128.300401,40.8674157 C128.300401,40.4359529 128.234271,40.114046 128.102007,39.9016854 C127.969744,39.6893248 127.73498,39.5831461 127.397708,39.5831461 C127.014144,39.5831461 126.736395,39.699437 126.564453,39.9320225 C126.39251,40.1646079 126.30654,40.5471883 126.30654,41.0797753 L126.30654,43.8202247 L124.897942,43.8202247 L124.897942,38.5921348 Z M134.539898,41.211236 C134.539898,40.9887629 134.516752,40.7764055 134.47046,40.5741573 C134.424168,40.3719091 134.351424,40.1932592 134.252226,40.0382022 C134.153029,39.8831453 134.029034,39.7601128 133.880237,39.6691011 C133.731441,39.5780894 133.551235,39.5325843 133.339613,39.5325843 C133.134605,39.5325843 132.956052,39.5780894 132.803949,39.6691011 C132.651846,39.7601128 132.526198,39.8831453 132.427,40.0382022 C132.327802,40.1932592 132.255059,40.3719091 132.208766,40.5741573 C132.162474,40.7764055 132.139328,40.9887629 132.139328,41.211236 C132.139328,41.4269674 132.162474,41.635954 132.208766,41.8382022 C132.255059,42.0404504 132.327802,42.2191003 132.427,42.3741573 C132.526198,42.5292143 132.651846,42.6522467 132.803949,42.7432584 C132.956052,42.8342701 133.134605,42.8797753 133.339613,42.8797753 C133.551235,42.8797753 133.731441,42.8342701 133.880237,42.7432584 C134.029034,42.6522467 134.153029,42.5292143 134.252226,42.3741573 C134.351424,42.2191003 134.424168,42.0404504 134.47046,41.8382022 C134.516752,41.635954 134.539898,41.4269674 134.539898,41.211236 Z M130.780328,36.6 L132.188927,36.6 L132.188927,39.2292135 L132.208766,39.2292135 C132.380709,38.9595492 132.61382,38.7623602 132.908106,38.6376404 C133.202392,38.5129207 133.508247,38.4505618 133.825679,38.4505618 C134.083593,38.4505618 134.338196,38.5044938 134.589496,38.6123596 C134.840797,38.7202253 135.067295,38.8853921 135.268996,39.1078652 C135.470698,39.3303382 135.634372,39.6151668 135.760022,39.9623596 C135.885672,40.3095523 135.948496,40.7224695 135.948496,41.2011236 C135.948496,41.6797777 135.885672,42.0926949 135.760022,42.4398876 C135.634372,42.7870804 135.470698,43.071909 135.268996,43.294382 C135.067295,43.516855 134.840797,43.6820219 134.589496,43.7898876 C134.338196,43.8977533 134.083593,43.9516854 133.825679,43.9516854 C133.448728,43.9516854 133.111461,43.8910118 132.813869,43.7696629 C132.516276,43.648314 132.291431,43.4426981 132.139328,43.152809 L132.119489,43.152809 L132.119489,43.8202247 L130.780328,43.8202247 L130.780328,36.6 Z M138.091153,41.211236 C138.091153,41.4202258 138.110993,41.6241563 138.150672,41.8230337 C138.190351,42.0219111 138.258135,42.200561 138.354026,42.3589888 C138.449917,42.5174165 138.577218,42.6438198 138.735934,42.7382022 C138.89465,42.8325847 139.093043,42.8797753 139.331117,42.8797753 C139.569191,42.8797753 139.769236,42.8325847 139.931259,42.7382022 C140.093282,42.6438198 140.222237,42.5174165 140.318128,42.3589888 C140.414019,42.200561 140.481803,42.0219111 140.521482,41.8230337 C140.561161,41.6241563 140.581,41.4202258 140.581,41.211236 C140.581,41.0022461 140.561161,40.7966302 140.521482,40.594382 C140.481803,40.3921338 140.414019,40.2134839 140.318128,40.058427 C140.222237,39.90337 140.093282,39.7769668 139.931259,39.6792135 C139.769236,39.5814602 139.569191,39.5325843 139.331117,39.5325843 C139.093043,39.5325843 138.89465,39.5814602 138.735934,39.6792135 C138.577218,39.7769668 138.449917,39.90337 138.354026,40.058427 C138.258135,40.2134839 138.190351,40.3921338 138.150672,40.594382 C138.110993,40.7966302 138.091153,41.0022461 138.091153,41.211236 Z M136.682555,41.211236 C136.682555,40.7932563 136.745379,40.4140466 136.871029,40.0735955 C136.996679,39.7331444 137.175232,39.4432596 137.406693,39.2039326 C137.638154,38.9646055 137.915903,38.7792141 138.239949,38.6477528 C138.563994,38.5162915 138.927713,38.4505618 139.331117,38.4505618 C139.73452,38.4505618 140.099893,38.5162915 140.427245,38.6477528 C140.754597,38.7792141 141.033999,38.9646055 141.26546,39.2039326 C141.496921,39.4432596 141.675474,39.7331444 141.801124,40.0735955 C141.926774,40.4140466 141.989599,40.7932563 141.989599,41.211236 C141.989599,41.6292156 141.926774,42.0067399 141.801124,42.3438202 C141.675474,42.6809006 141.496921,42.9690999 141.26546,43.208427 C141.033999,43.447754 140.754597,43.63146 140.427245,43.7595506 C140.099893,43.8876411 139.73452,43.9516854 139.331117,43.9516854 C138.927713,43.9516854 138.563994,43.8876411 138.239949,43.7595506 C137.915903,43.63146 137.638154,43.447754 137.406693,43.208427 C137.175232,42.9690999 136.996679,42.6809006 136.871029,42.3438202 C136.745379,42.0067399 136.682555,41.6292156 136.682555,41.211236 Z M144.211613,41.0696629 L142.525263,38.5921348 L144.132255,38.5921348 L145.034949,39.9573034 L145.927723,38.5921348 L147.485117,38.5921348 L145.798766,41.0393258 L147.693431,43.8202247 L146.086438,43.8202247 L145.015109,42.1719101 L143.943781,43.8202247 L142.366547,43.8202247 L144.211613,41.0696629 Z" id="OurReportingInYourInbox" fill="#000000" fill-rule="nonzero"></path>
                            <path d="M7.8090146,4.31235955 C7.77080516,4.04943689 7.68483522,3.80842806 7.55110219,3.58932584 C7.41736916,3.37022362 7.25020538,3.17790345 7.04960584,3.01235955 C6.8490063,2.84681565 6.62214117,2.71779072 6.36900365,2.6252809 C6.11586613,2.53277107 5.85079214,2.48651685 5.57377372,2.48651685 C5.06749869,2.48651685 4.63764897,2.58632859 4.28421168,2.78595506 C3.93077439,2.98558152 3.64420791,3.25336911 3.42450365,3.58932584 C3.20479939,3.92528258 3.04479977,4.30748849 2.9445,4.73595506 C2.84420023,5.16442162 2.79405109,5.60748835 2.79405109,6.06516854 C2.79405109,6.50337298 2.84420023,6.92939868 2.9445,7.34325843 C3.04479977,7.75711817 3.20479939,8.12958636 3.42450365,8.46067416 C3.64420791,8.79176196 3.93077439,9.05711511 4.28421168,9.25674157 C4.63764897,9.45636804 5.06749869,9.55617978 5.57377372,9.55617978 C6.26154358,9.55617978 6.79885573,9.34194971 7.18572628,8.91348315 C7.57259682,8.48501658 7.80901417,7.92022822 7.8949854,7.21910112 L10.0729124,7.21910112 C10.0155983,7.87153884 9.86753891,8.46067153 9.62872993,8.98651685 C9.38992095,9.51236218 9.07469782,9.96029778 8.68305109,10.3303371 C8.29140437,10.7003764 7.832898,10.9827706 7.30751825,11.1775281 C6.78213849,11.3722856 6.20422943,11.4696629 5.57377372,11.4696629 C4.79048027,11.4696629 4.08600434,11.3309003 3.46032482,11.0533708 C2.83464529,10.7758413 2.30688536,10.3936354 1.8770292,9.90674157 C1.44717303,9.41984775 1.11762158,8.8477561 0.888364964,8.19044944 C0.659108343,7.53314278 0.544481752,6.8247229 0.544481752,6.06516854 C0.544481752,5.28613843 0.659108343,4.56311195 0.888364964,3.89606742 C1.11762158,3.22902288 1.44717303,2.64719349 1.8770292,2.1505618 C2.30688536,1.6539301 2.83464529,1.26442089 3.46032482,0.982022472 C4.08600434,0.699624056 4.79048027,0.558426966 5.57377372,0.558426966 C6.13736292,0.558426966 6.66989895,0.641197674 7.17139781,0.806741573 C7.67289667,0.972285472 8.12185082,1.2132943 8.51827372,1.52977528 C8.91469663,1.84625626 9.24186002,2.23819991 9.49977372,2.70561798 C9.75768742,3.17303604 9.92007509,3.70861121 9.98694161,4.31235955 L7.8090146,4.31235955 Z M13.4830876,2.51573034 L11.4484453,2.51573034 L11.4484453,0.806741573 L13.4830876,0.806741573 L13.4830876,2.51573034 Z M11.4484453,3.68426966 L13.4830876,3.68426966 L13.4830876,11.2359551 L11.4484453,11.2359551 L11.4484453,3.68426966 Z M17.667,3.68426966 L19.1571606,3.68426966 L19.1571606,5.07191011 L17.667,5.07191011 L17.667,8.81123596 C17.667,9.16179951 17.7243133,9.39550503 17.8389416,9.51235955 C17.9535699,9.62921407 18.1828231,9.68764045 18.526708,9.68764045 C18.6413363,9.68764045 18.7511868,9.68277158 18.8562628,9.67303371 C18.9613387,9.66329583 19.061637,9.64868924 19.1571606,9.62921348 L19.1571606,11.2359551 C18.9852181,11.2651687 18.7941738,11.2846441 18.5840219,11.294382 C18.37387,11.3041199 18.1684974,11.3089888 17.9678978,11.3089888 C17.65267,11.3089888 17.3541632,11.2870789 17.0723686,11.2432584 C16.790574,11.199438 16.5422164,11.1142328 16.3272883,10.9876404 C16.1123602,10.8610481 15.9428084,10.6809 15.8186277,10.447191 C15.6944471,10.213482 15.6323577,9.90674347 15.6323577,9.52696629 L15.6323577,5.07191011 L14.4001095,5.07191011 L14.4001095,3.68426966 L15.6323577,3.68426966 L15.6323577,1.42022472 L17.667,1.42022472 L17.667,3.68426966 Z M23.7852555,12.1707865 C23.5655512,12.7842727 23.2598803,13.2224706 22.8682336,13.4853933 C22.4765868,13.7483159 21.9321105,13.8797753 21.2347883,13.8797753 C21.0246364,13.8797753 20.8168757,13.872472 20.6115,13.8578652 C20.4061243,13.8432584 20.1983636,13.8262173 19.9882117,13.8067416 L19.9882117,12.0977528 C20.1792589,12.1172286 20.3750793,12.136704 20.5756788,12.1561798 C20.7762784,12.1756555 20.9768749,12.1805244 21.1774745,12.1707865 C21.4449405,12.1415729 21.643149,12.0344579 21.7721058,11.8494382 C21.9010627,11.6644186 21.9655401,11.4599262 21.9655401,11.2359551 C21.9655401,11.0704112 21.9368835,10.9146075 21.8795693,10.7685393 L19.2861168,3.68426966 L21.4497153,3.68426966 L23.126146,8.85505618 L23.1548029,8.85505618 L24.7739197,3.68426966 L26.8802044,3.68426966 L23.7852555,12.1707865 Z M31.7662117,0.806741573 L34.015781,0.806741573 L34.015781,9.30786517 L39.0020876,9.30786517 L39.0020876,11.2359551 L31.7662117,11.2359551 L31.7662117,0.806741573 Z M42.1400219,2.51573034 L40.1053796,2.51573034 L40.1053796,0.806741573 L42.1400219,0.806741573 L42.1400219,2.51573034 Z M40.1053796,3.68426966 L42.1400219,3.68426966 L42.1400219,11.2359551 L40.1053796,11.2359551 L40.1053796,3.68426966 Z M43.8021241,3.68426966 L45.7221387,3.68426966 L45.7221387,4.70674157 L45.7507956,4.70674157 C46.0182617,4.31722652 46.340649,4.01535688 46.7179672,3.8011236 C47.0952853,3.58689031 47.5275231,3.47977528 48.0146934,3.47977528 C48.482759,3.47977528 48.9102207,3.57228372 49.2970912,3.75730337 C49.6839618,3.94232302 49.9776924,4.26853699 50.178292,4.73595506 C50.3979962,4.40486726 50.696503,4.11273535 51.0738212,3.85955056 C51.4511394,3.60636578 51.8977055,3.47977528 52.4135328,3.47977528 C52.8051796,3.47977528 53.1681638,3.52846393 53.5024964,3.6258427 C53.8368289,3.72322146 54.1233954,3.87902515 54.3622044,4.09325843 C54.6010134,4.30749171 54.7872816,4.58745146 54.9210146,4.93314607 C55.0547476,5.27884068 55.1216131,5.69512865 55.1216131,6.18202247 L55.1216131,11.2359551 L53.0869708,11.2359551 L53.0869708,6.95617978 C53.0869708,6.70299499 53.0774186,6.4644206 53.0583139,6.24044944 C53.0392092,6.01647828 52.986672,5.82172367 52.9007007,5.65617978 C52.8147295,5.49063588 52.6881626,5.35917652 52.5209964,5.26179775 C52.3538301,5.16441899 52.1269649,5.11573034 51.8403942,5.11573034 C51.5538234,5.11573034 51.3221821,5.17172229 51.1454635,5.28370787 C50.9687449,5.39569344 50.8302377,5.5417594 50.729938,5.72191011 C50.6296382,5.90206083 50.5627727,6.10655316 50.5293394,6.33539326 C50.4959062,6.56423335 50.4791898,6.79550445 50.4791898,7.02921348 L50.4791898,11.2359551 L48.4445474,11.2359551 L48.4445474,7 C48.4445474,6.77602884 48.4397713,6.55449548 48.430219,6.33539326 C48.4206666,6.11629104 48.3800697,5.91423313 48.308427,5.72921348 C48.2367843,5.54419383 48.1173816,5.39569344 47.9502153,5.28370787 C47.783049,5.17172229 47.5370795,5.11573034 47.2122993,5.11573034 C47.1167757,5.11573034 46.9902088,5.13764023 46.8325949,5.18146067 C46.674981,5.22528112 46.5221455,5.30805183 46.3740839,5.42977528 C46.2260224,5.55149874 46.0994555,5.72677788 45.9943796,5.95561798 C45.8893036,6.18445807 45.8367664,6.48389328 45.8367664,6.85393258 L45.8367664,11.2359551 L43.8021241,11.2359551 L43.8021241,3.68426966 Z M58.8183577,2.51573034 L56.7837153,2.51573034 L56.7837153,0.806741573 L58.8183577,0.806741573 L58.8183577,2.51573034 Z M56.7837153,3.68426966 L58.8183577,3.68426966 L58.8183577,11.2359551 L56.7837153,11.2359551 L56.7837153,3.68426966 Z M63.0022701,3.68426966 L64.4924307,3.68426966 L64.4924307,5.07191011 L63.0022701,5.07191011 L63.0022701,8.81123596 C63.0022701,9.16179951 63.0595834,9.39550503 63.1742117,9.51235955 C63.28884,9.62921407 63.5180932,9.68764045 63.8619781,9.68764045 C63.9766064,9.68764045 64.0864569,9.68277158 64.1915328,9.67303371 C64.2966088,9.66329583 64.3969071,9.64868924 64.4924307,9.62921348 L64.4924307,11.2359551 C64.3204882,11.2651687 64.1294439,11.2846441 63.919292,11.294382 C63.7091401,11.3041199 63.5037674,11.3089888 63.3031679,11.3089888 C62.98794,11.3089888 62.6894333,11.2870789 62.4076387,11.2432584 C62.1258441,11.199438 61.8774865,11.1142328 61.6625584,10.9876404 C61.4476303,10.8610481 61.2780785,10.6809 61.1538978,10.447191 C61.0297171,10.213482 60.9676277,9.90674347 60.9676277,9.52696629 L60.9676277,5.07191011 L59.7353796,5.07191011 L59.7353796,3.68426966 L60.9676277,3.68426966 L60.9676277,1.42022472 L63.0022701,1.42022472 L63.0022701,3.68426966 Z M67.0428978,8.78202247 C67.0428978,9.00599363 67.0882708,9.1983138 67.1790182,9.35898876 C67.2697657,9.51966372 67.3867803,9.65112308 67.5300657,9.75337079 C67.6733511,9.85561849 67.8381268,9.9310859 68.0243978,9.97977528 C68.2106688,10.0284647 68.4041012,10.052809 68.6047007,10.052809 C68.7479861,10.052809 68.8984335,10.035768 69.0560474,10.0016854 C69.2136614,9.96760283 69.3569446,9.91404531 69.4859015,9.84101124 C69.6148583,9.76797716 69.7223207,9.67059986 69.808292,9.5488764 C69.8942632,9.42715295 69.9372482,9.2737837 69.9372482,9.08876404 C69.9372482,8.777152 69.7342636,8.54344647 69.3282883,8.38764045 C68.9223131,8.23183443 68.3563443,8.07603074 67.630365,7.92022472 C67.3342418,7.85205958 67.0452873,7.77172331 66.7634927,7.67921348 C66.4816981,7.58670366 66.2309524,7.46498203 66.0112482,7.31404494 C65.7915439,7.16310786 65.6148279,6.97322212 65.4810949,6.74438202 C65.3473619,6.51554193 65.2804964,6.23558218 65.2804964,5.90449438 C65.2804964,5.41760056 65.3736305,5.01835362 65.5599015,4.70674157 C65.7461725,4.39512953 65.992142,4.14925184 66.2978175,3.96910112 C66.603493,3.78895041 66.9473728,3.66235992 67.3294672,3.58932584 C67.7115615,3.51629177 68.1032024,3.47977528 68.5044015,3.47977528 C68.9056005,3.47977528 69.2948533,3.5187262 69.6721715,3.59662921 C70.0494897,3.67453222 70.3862053,3.80599158 70.6823285,3.99101124 C70.9784516,4.17603089 71.2244212,4.42190858 71.4202445,4.72865169 C71.6160679,5.03539479 71.7330825,5.42246957 71.771292,5.88988764 L69.8369489,5.88988764 C69.8082918,5.49063471 69.6602325,5.22041269 69.3927664,5.07921348 C69.1253004,4.93801428 68.8100772,4.86741573 68.4470876,4.86741573 C68.3324593,4.86741573 68.2082805,4.87471903 68.0745474,4.88932584 C67.9408144,4.90393266 67.8190237,4.93558028 67.7091715,4.98426966 C67.5993194,5.03295904 67.5061853,5.10355759 67.4297664,5.19606742 C67.3533475,5.28857724 67.3151387,5.4127333 67.3151387,5.56853933 C67.3151387,5.75355898 67.3820042,5.9044938 67.5157372,6.02134831 C67.6494703,6.13820283 67.8237982,6.2331457 68.0387263,6.30617978 C68.2536544,6.37921385 68.4996239,6.44494353 68.7766423,6.50337079 C69.0536608,6.56179804 69.3354511,6.62509329 69.6220219,6.69325843 C69.918145,6.76142356 70.2070996,6.84419427 70.4888942,6.94157303 C70.7706888,7.0389518 71.0214344,7.16797672 71.2411387,7.32865169 C71.4608429,7.48932665 71.6375589,7.68895012 71.771292,7.92752809 C71.905025,8.16610606 71.9718905,8.4606724 71.9718905,8.81123596 C71.9718905,9.30786765 71.8739803,9.72415562 71.6781569,10.0601124 C71.4823336,10.3960691 71.2268118,10.6662911 70.9115839,10.8707865 C70.5963561,11.0752819 70.2357599,11.2189134 69.8297847,11.3016854 C69.4238094,11.3844573 69.0106761,11.4258427 68.5903723,11.4258427 C68.1605161,11.4258427 67.7402186,11.3820229 67.3294672,11.294382 C66.9187157,11.2067411 66.5533434,11.0606752 66.2333394,10.8561798 C65.9133354,10.6516844 65.6506494,10.3814624 65.4452737,10.0455056 C65.239898,9.70954888 65.1276595,9.28839204 65.1085547,8.78202247 L67.0428978,8.78202247 Z" id="CityLimits" fill="#000000" fill-rule="nonzero"></path>
                            <path d="M1.82522628,12.7685393 L5.95182482,12.7685393 L13.8346861,25.6853933 L13.8875912,25.6853933 L13.8875912,12.7685393 L17.7761168,12.7685393 L17.7761168,32.0224719 L13.6230657,32.0224719 L5.76665693,19.1325843 L5.71375182,19.1325843 L5.71375182,32.0224719 L1.82522628,32.0224719 L1.82522628,12.7685393 Z M30.2352701,23.5550562 C30.0589188,22.5842648 29.7459001,21.8471935 29.2962044,21.3438202 C28.8465087,20.8404469 28.1631579,20.588764 27.2461314,20.588764 C26.6465371,20.588764 26.1483523,20.6921338 25.751562,20.8988764 C25.3547717,21.105619 25.0373443,21.3617962 24.7992701,21.6674157 C24.5611959,21.9730352 24.3936647,22.2966275 24.2966715,22.6382022 C24.1996783,22.979777 24.1423651,23.2853919 24.1247299,23.5550562 L30.2352701,23.5550562 Z M24.1247299,25.9820225 C24.1776353,27.2224781 24.4862454,28.1213455 25.0505693,28.6786517 C25.6148933,29.2359578 26.4260969,29.5146067 27.4842044,29.5146067 C28.2425147,29.5146067 28.8950046,29.3213502 29.4416934,28.9348315 C29.9883823,28.5483127 30.3234446,28.139328 30.4468905,27.7078652 L33.7534599,27.7078652 C33.2244061,29.3797836 32.4132025,30.5752773 31.3198248,31.294382 C30.2264471,32.0134867 28.9038326,32.3730337 27.3519416,32.3730337 C26.276199,32.3730337 25.3062817,32.1977546 24.4421606,31.847191 C23.5780395,31.4966275 22.8461928,30.997756 22.2465985,30.3505618 C21.6470043,29.7033676 21.1840892,28.9303416 20.8578394,28.0314607 C20.5315896,27.1325798 20.3684672,26.1438256 20.3684672,25.0651685 C20.3684672,24.0224667 20.5359983,23.0516899 20.8710657,22.152809 C21.2061331,21.2539281 21.6822743,20.4764078 22.2995036,19.8202247 C22.916733,19.1640417 23.6529884,18.6471929 24.508292,18.2696629 C25.3635955,17.8921329 26.3114693,17.7033708 27.3519416,17.7033708 C28.5158598,17.7033708 29.5298643,17.932582 30.3939854,18.3910112 C31.2581065,18.8494405 31.9679096,19.4651647 32.5234161,20.2382022 C33.0789225,21.0112398 33.4801156,21.8921299 33.7270073,22.8808989 C33.973899,23.8696679 34.0620733,24.9033654 33.9915328,25.9820225 L24.1247299,25.9820225 Z M51.8470073,32.0224719 L47.9849343,32.0224719 L45.5512993,22.6651685 L45.4983942,22.6651685 L43.1705693,32.0224719 L39.2820438,32.0224719 L34.9438248,18.0808989 L38.911708,18.0808989 L41.4247007,27.5460674 L41.4776058,27.5460674 L43.7525255,18.0808989 L47.4029781,18.0808989 L49.7308029,27.5191011 L49.783708,27.5191011 L52.2967007,18.0808989 L56.1587737,18.0808989 L51.8470073,32.0224719 Z M60.655708,27.4921348 C60.655708,27.90562 60.7394736,28.2606727 60.9070073,28.5573034 C61.074541,28.8539341 61.290568,29.0966283 61.5550949,29.2853933 C61.8196218,29.4741582 62.1238231,29.6134827 62.467708,29.7033708 C62.811593,29.7932589 63.1686989,29.8382022 63.5390365,29.8382022 C63.8035634,29.8382022 64.0813124,29.8067419 64.372292,29.7438202 C64.6632715,29.6808986 64.9277944,29.5820231 65.1658686,29.447191 C65.4039428,29.3123589 65.602335,29.1325854 65.7610511,28.9078652 C65.9197672,28.6831449 65.9991241,28.4000017 65.9991241,28.058427 C65.9991241,27.4831432 65.6243833,27.0516868 64.8748905,26.7640449 C64.1253977,26.4764031 63.0805322,26.1887655 61.7402628,25.9011236 C61.1935739,25.7752803 60.6601194,25.6269671 60.1398832,25.4561798 C59.619647,25.2853924 59.156732,25.0606756 58.7511241,24.7820225 C58.3455162,24.5033694 58.0192713,24.1528111 57.7723796,23.7303371 C57.5254878,23.3078631 57.4020438,22.7910143 57.4020438,22.1797753 C57.4020438,21.2808944 57.5739837,20.5438231 57.9178686,19.9685393 C58.2617535,19.3932556 58.7158512,18.9393275 59.2801752,18.6067416 C59.8444992,18.2741556 60.4793541,18.0404501 61.1847591,17.905618 C61.8901641,17.7707858 62.6131934,17.7033708 63.3538686,17.7033708 C64.0945438,17.7033708 64.8131644,17.7752802 65.5097518,17.9191011 C66.2063392,18.0629221 66.8279681,18.3056163 67.3746569,18.647191 C67.9213458,18.9887658 68.3754434,19.4426938 68.7369635,20.0089888 C69.0984836,20.5752837 69.3145106,21.2898833 69.3850511,22.152809 L65.8139562,22.152809 C65.7610508,21.4157267 65.4877105,20.9168552 64.993927,20.6561798 C64.5001435,20.3955043 63.9181931,20.2651685 63.2480584,20.2651685 C63.0364369,20.2651685 62.8071837,20.2786516 62.560292,20.305618 C62.3134002,20.3325844 62.0885558,20.3910108 61.8857518,20.4808989 C61.6829479,20.570787 61.511008,20.7011227 61.369927,20.8719101 C61.228846,21.0426975 61.1583066,21.2719087 61.1583066,21.5595506 C61.1583066,21.9011253 61.2817506,22.1797742 61.5286423,22.3955056 C61.7755341,22.611237 62.0973703,22.7865162 62.4941606,22.9213483 C62.8909509,23.0561804 63.3450485,23.1775276 63.8564672,23.2853933 C64.3678858,23.393259 64.8881141,23.5101117 65.4171679,23.6359551 C65.9638567,23.7617984 66.4973113,23.9146058 67.0175474,24.094382 C67.5377836,24.2741582 68.0006987,24.5123581 68.4063066,24.8089888 C68.8119144,25.1056195 69.1381593,25.4741551 69.3850511,25.9146067 C69.6319428,26.3550584 69.7553869,26.8988732 69.7553869,27.5460674 C69.7553869,28.4629259 69.5746295,29.2314576 69.2131095,29.8516854 C68.8515894,30.4719132 68.3798569,30.9707846 67.7978978,31.3483146 C67.2159387,31.7258446 66.5502227,31.9910105 65.8007299,32.1438202 C65.0512371,32.29663 64.2885294,32.3730337 63.5125839,32.3730337 C62.7190033,32.3730337 61.9430695,32.2921356 61.1847591,32.1303371 C60.4264488,31.9685385 59.7519154,31.6988783 59.1611387,31.3213483 C58.570362,30.9438183 58.0854034,30.4449469 57.7062482,29.8247191 C57.327093,29.2044913 57.1198834,28.426971 57.0846131,27.4921348 L60.655708,27.4921348 Z M72.0567591,12.7685393 L75.8130219,12.7685393 L75.8130219,32.0224719 L72.0567591,32.0224719 L72.0567591,12.7685393 Z M87.9811971,23.5550562 C87.8048458,22.5842648 87.4918271,21.8471935 87.0421314,21.3438202 C86.5924357,20.8404469 85.9090849,20.588764 84.9920584,20.588764 C84.3924642,20.588764 83.8942794,20.6921338 83.4974891,20.8988764 C83.1006987,21.105619 82.7832713,21.3617962 82.5451971,21.6674157 C82.3071229,21.9730352 82.1395917,22.2966275 82.0425985,22.6382022 C81.9456054,22.979777 81.8882921,23.2853919 81.8706569,23.5550562 L87.9811971,23.5550562 Z M81.8706569,25.9820225 C81.9235623,27.2224781 82.2321724,28.1213455 82.7964964,28.6786517 C83.3608203,29.2359578 84.1720239,29.5146067 85.2301314,29.5146067 C85.9884417,29.5146067 86.6409316,29.3213502 87.1876204,28.9348315 C87.7343093,28.5483127 88.0693716,28.139328 88.1928175,27.7078652 L91.4993869,27.7078652 C90.9703331,29.3797836 90.1591296,30.5752773 89.0657518,31.294382 C87.9723741,32.0134867 86.6497596,32.3730337 85.0978686,32.3730337 C84.022126,32.3730337 83.0522087,32.1977546 82.1880876,31.847191 C81.3239665,31.4966275 80.5921198,30.997756 79.9925255,30.3505618 C79.3929313,29.7033676 78.9300162,28.9303416 78.6037664,28.0314607 C78.2775166,27.1325798 78.1143942,26.1438256 78.1143942,25.0651685 C78.1143942,24.0224667 78.2819253,23.0516899 78.6169927,22.152809 C78.9520601,21.2539281 79.4282013,20.4764078 80.0454307,19.8202247 C80.66266,19.1640417 81.3989154,18.6471929 82.254219,18.2696629 C83.1095225,17.8921329 84.0573963,17.7033708 85.0978686,17.7033708 C86.2617868,17.7033708 87.2757913,17.932582 88.1399124,18.3910112 C89.0040335,18.8494405 89.7138366,19.4651647 90.2693431,20.2382022 C90.8248495,21.0112398 91.2260426,21.8921299 91.4729343,22.8808989 C91.7198261,23.8696679 91.8080004,24.9033654 91.7374599,25.9820225 L81.8706569,25.9820225 Z M98.7209343,18.0808989 L101.472,18.0808989 L101.472,20.6426966 L98.7209343,20.6426966 L98.7209343,27.5460674 C98.7209343,28.1932617 98.8267435,28.624718 99.038365,28.8404494 C99.2499865,29.0561809 99.6732231,29.1640449 100.308088,29.1640449 C100.519709,29.1640449 100.72251,29.1550563 100.916496,29.1370787 C101.110483,29.119101 101.295649,29.092135 101.472,29.0561798 L101.472,32.0224719 C101.154568,32.0764048 100.801871,32.1123595 100.413898,32.1303371 C100.025925,32.1483147 99.6467756,32.1573034 99.276438,32.1573034 C98.6944788,32.1573034 98.1433895,32.1168543 97.6231533,32.0359551 C97.1029171,31.9550558 96.6444107,31.797754 96.2476204,31.5640449 C95.8508301,31.3303359 95.5378114,30.997755 95.3085547,30.5662921 C95.0792981,30.1348293 94.9646715,29.5685428 94.9646715,28.8674157 L94.9646715,20.6426966 L92.6897518,20.6426966 L92.6897518,18.0808989 L94.9646715,18.0808989 L94.9646715,13.9011236 L98.7209343,13.9011236 L98.7209343,18.0808989 Z M108.032234,18.0808989 L110.783299,18.0808989 L110.783299,20.6426966 L108.032234,20.6426966 L108.032234,27.5460674 C108.032234,28.1932617 108.138043,28.624718 108.349664,28.8404494 C108.561286,29.0561809 108.984522,29.1640449 109.619387,29.1640449 C109.831008,29.1640449 110.033809,29.1550563 110.227796,29.1370787 C110.421782,29.119101 110.606948,29.092135 110.783299,29.0561798 L110.783299,32.0224719 C110.465867,32.0764048 110.11317,32.1123595 109.725197,32.1303371 C109.337224,32.1483147 108.958075,32.1573034 108.587737,32.1573034 C108.005778,32.1573034 107.454689,32.1168543 106.934453,32.0359551 C106.414216,31.9550558 105.95571,31.797754 105.55892,31.5640449 C105.162129,31.3303359 104.849111,30.997755 104.619854,30.5662921 C104.390597,30.1348293 104.275971,29.5685428 104.275971,28.8674157 L104.275971,20.6426966 L102.001051,20.6426966 L102.001051,18.0808989 L104.275971,18.0808989 L104.275971,13.9011236 L108.032234,13.9011236 L108.032234,18.0808989 Z M121.787562,23.5550562 C121.611211,22.5842648 121.298192,21.8471935 120.848496,21.3438202 C120.398801,20.8404469 119.71545,20.588764 118.798423,20.588764 C118.198829,20.588764 117.700644,20.6921338 117.303854,20.8988764 C116.907064,21.105619 116.589636,21.3617962 116.351562,21.6674157 C116.113488,21.9730352 115.945957,22.2966275 115.848964,22.6382022 C115.75197,22.979777 115.694657,23.2853919 115.677022,23.5550562 L121.787562,23.5550562 Z M115.677022,25.9820225 C115.729927,27.2224781 116.038537,28.1213455 116.602861,28.6786517 C117.167185,29.2359578 117.978389,29.5146067 119.036496,29.5146067 C119.794807,29.5146067 120.447297,29.3213502 120.993985,28.9348315 C121.540674,28.5483127 121.875737,28.139328 121.999182,27.7078652 L125.305752,27.7078652 C124.776698,29.3797836 123.965495,30.5752773 122.872117,31.294382 C121.778739,32.0134867 120.456125,32.3730337 118.904234,32.3730337 C117.828491,32.3730337 116.858574,32.1977546 115.994453,31.847191 C115.130331,31.4966275 114.398485,30.997756 113.798891,30.3505618 C113.199296,29.7033676 112.736381,28.9303416 112.410131,28.0314607 C112.083882,27.1325798 111.920759,26.1438256 111.920759,25.0651685 C111.920759,24.0224667 112.08829,23.0516899 112.423358,22.152809 C112.758425,21.2539281 113.234566,20.4764078 113.851796,19.8202247 C114.469025,19.1640417 115.20528,18.6471929 116.060584,18.2696629 C116.915887,17.8921329 117.863761,17.7033708 118.904234,17.7033708 C120.068152,17.7033708 121.082156,17.932582 121.946277,18.3910112 C122.810398,18.8494405 123.520202,19.4651647 124.075708,20.2382022 C124.631214,21.0112398 125.032408,21.8921299 125.279299,22.8808989 C125.526191,23.8696679 125.614365,24.9033654 125.543825,25.9820225 L115.677022,25.9820225 Z M127.765839,18.0808989 L131.336934,18.0808989 L131.336934,20.6696629 L131.389839,20.6696629 C131.566191,20.2382001 131.804261,19.8382041 132.104058,19.4696629 C132.403856,19.1011218 132.747735,18.7865182 133.135708,18.5258427 C133.523681,18.2651672 133.9381,18.0629221 134.378978,17.9191011 C134.819856,17.7752802 135.278363,17.7033708 135.754511,17.7033708 C136.001403,17.7033708 136.274743,17.7483142 136.57454,17.8382022 L136.57454,21.3977528 C136.398189,21.3617976 136.186571,21.3303372 135.939679,21.3033708 C135.692787,21.2764044 135.454716,21.2629213 135.22546,21.2629213 C134.53769,21.2629213 133.95574,21.3797741 133.479591,21.6134831 C133.003443,21.8471922 132.619885,22.1662901 132.328905,22.5707865 C132.037926,22.9752829 131.830716,23.4471883 131.70727,23.9865169 C131.583824,24.5258454 131.522102,25.1101092 131.522102,25.7393258 L131.522102,32.0224719 L127.765839,32.0224719 L127.765839,18.0808989 Z M140.965664,27.4921348 C140.965664,27.90562 141.04943,28.2606727 141.216964,28.5573034 C141.384497,28.8539341 141.600524,29.0966283 141.865051,29.2853933 C142.129578,29.4741582 142.433779,29.6134827 142.777664,29.7033708 C143.121549,29.7932589 143.478655,29.8382022 143.848993,29.8382022 C144.11352,29.8382022 144.391269,29.8067419 144.682248,29.7438202 C144.973228,29.6808986 145.237751,29.5820231 145.475825,29.447191 C145.713899,29.3123589 145.912291,29.1325854 146.071007,28.9078652 C146.229723,28.6831449 146.30908,28.4000017 146.30908,28.058427 C146.30908,27.4831432 145.93434,27.0516868 145.184847,26.7640449 C144.435354,26.4764031 143.390488,26.1887655 142.050219,25.9011236 C141.50353,25.7752803 140.970076,25.6269671 140.449839,25.4561798 C139.929603,25.2853924 139.466688,25.0606756 139.06108,24.7820225 C138.655472,24.5033694 138.329228,24.1528111 138.082336,23.7303371 C137.835444,23.3078631 137.712,22.7910143 137.712,22.1797753 C137.712,21.2808944 137.88394,20.5438231 138.227825,19.9685393 C138.57171,19.3932556 139.025807,18.9393275 139.590131,18.6067416 C140.154455,18.2741556 140.78931,18.0404501 141.494715,17.905618 C142.20012,17.7707858 142.92315,17.7033708 143.663825,17.7033708 C144.4045,17.7033708 145.123121,17.7752802 145.819708,17.9191011 C146.516295,18.0629221 147.137924,18.3056163 147.684613,18.647191 C148.231302,18.9887658 148.6854,19.4426938 149.04692,20.0089888 C149.40844,20.5752837 149.624467,21.2898833 149.695007,22.152809 L146.123912,22.152809 C146.071007,21.4157267 145.797667,20.9168552 145.303883,20.6561798 C144.8101,20.3955043 144.228149,20.2651685 143.558015,20.2651685 C143.346393,20.2651685 143.11714,20.2786516 142.870248,20.305618 C142.623356,20.3325844 142.398512,20.3910108 142.195708,20.4808989 C141.992904,20.570787 141.820964,20.7011227 141.679883,20.8719101 C141.538802,21.0426975 141.468263,21.2719087 141.468263,21.5595506 C141.468263,21.9011253 141.591707,22.1797742 141.838599,22.3955056 C142.08549,22.611237 142.407326,22.7865162 142.804117,22.9213483 C143.200907,23.0561804 143.655005,23.1775276 144.166423,23.2853933 C144.677842,23.393259 145.19807,23.5101117 145.727124,23.6359551 C146.273813,23.7617984 146.807267,23.9146058 147.327504,24.094382 C147.84774,24.2741582 148.310655,24.5123581 148.716263,24.8089888 C149.121871,25.1056195 149.448116,25.4741551 149.695007,25.9146067 C149.941899,26.3550584 150.065343,26.8988732 150.065343,27.5460674 C150.065343,28.4629259 149.884586,29.2314576 149.523066,29.8516854 C149.161546,30.4719132 148.689813,30.9707846 148.107854,31.3483146 C147.525895,31.7258446 146.860179,31.9910105 146.110686,32.1438202 C145.361193,32.29663 144.598486,32.3730337 143.82254,32.3730337 C143.02896,32.3730337 142.253026,32.2921356 141.494715,32.1303371 C140.736405,31.9685385 140.061872,31.6988783 139.471095,31.3213483 C138.880318,30.9438183 138.39536,30.4449469 138.016204,29.8247191 C137.637049,29.2044913 137.42984,28.426971 137.394569,27.4921348 L140.965664,27.4921348 Z" id="Newsletters" fill="#FF0000" fill-rule="nonzero"></path>
                        </g>
                    </g>
                    <g id="SIGN-UP-button-45" transform="translate(198.000000, 20.000000)">
                        <g>
                            <g id="Rectangle">
                                <use fill="black" fill-opacity="1" filter="url(#filter-4)" xlink:href="#path-3"></use>
                                <use fill="#FF0000" fill-rule="evenodd" xlink:href="#path-3"></use>
                            </g>
                            <path d="M28.9351852,25.874 C28.9351852,26.3660025 29.0129622,26.7859983 29.1685185,27.134 C29.3240749,27.4820017 29.5407394,27.7669989 29.8185185,27.989 C30.0962977,28.2110011 30.4157389,28.3729995 30.7768519,28.475 C31.1379648,28.5770005 31.5296275,28.628 31.9518519,28.628 C32.4074097,28.628 32.7962947,28.5710006 33.1185185,28.457 C33.4407424,28.3429994 33.7018509,28.1960009 33.9018519,28.016 C34.1018529,27.8359991 34.2462959,27.6290012 34.3351852,27.395 C34.4240745,27.1609988 34.4685185,26.9240012 34.4685185,26.684 C34.4685185,26.1919975 34.3657418,25.8290012 34.1601852,25.595 C33.9546286,25.3609988 33.7296309,25.1960005 33.4851852,25.1 C33.0629609,24.9319992 32.5712991,24.7730008 32.0101852,24.623 C31.4490713,24.4729993 30.7574115,24.2780012 29.9351852,24.038 C29.4240715,23.8939993 28.9990758,23.7050012 28.6601852,23.471 C28.3212946,23.2369988 28.0518529,22.9760014 27.8518519,22.688 C27.6518509,22.3999986 27.5101856,22.0940016 27.4268519,21.77 C27.3435181,21.4459984 27.3018519,21.1160017 27.3018519,20.78 C27.3018519,20.1319968 27.4268506,19.5710024 27.6768519,19.097 C27.9268531,18.6229976 28.2574054,18.2300016 28.6685185,17.918 C29.0796317,17.6059984 29.5462937,17.3750007 30.0685185,17.225 C30.5907434,17.0749992 31.1185159,17 31.6518519,17 C32.2740772,17 32.8601824,17.0869991 33.4101852,17.261 C33.9601879,17.4350009 34.4435164,17.6959983 34.8601852,18.044 C35.2768539,18.3920017 35.6074062,18.8209975 35.8518519,19.331 C36.0962975,19.8410025 36.2185185,20.4319966 36.2185185,21.104 L34.1351852,21.104 C34.0796294,20.2759959 33.8185209,19.6910017 33.3518519,19.349 C32.8851829,19.0069983 32.2907444,18.836 31.5685185,18.836 C31.3240729,18.836 31.0740754,18.8629997 30.8185185,18.917 C30.5629617,18.9710003 30.3296307,19.0609994 30.1185185,19.187 C29.9074064,19.3130006 29.7324081,19.4839989 29.5935185,19.7 C29.4546289,19.9160011 29.3851852,20.1859984 29.3851852,20.51 C29.3851852,20.9660023 29.5157394,21.3229987 29.7768519,21.581 C30.0379643,21.8390013 30.3796275,22.0339993 30.8018519,22.166 C30.8462965,22.1780001 31.0212948,22.2289996 31.3268519,22.319 C31.6324089,22.4090005 31.9740722,22.5079995 32.3518519,22.616 C32.7296315,22.7240005 33.0990723,22.8289995 33.4601852,22.931 C33.8212981,23.0330005 34.0796289,23.1079998 34.2351852,23.156 C34.624076,23.2880007 34.9629615,23.4679989 35.2518519,23.696 C35.5407422,23.9240011 35.7824064,24.1849985 35.9768519,24.479 C36.1712973,24.7730015 36.3157403,25.0879983 36.4101852,25.424 C36.5046301,25.7600017 36.5518519,26.0959983 36.5518519,26.432 C36.5518519,27.1520036 36.4157421,27.7669975 36.1435185,28.277 C35.8712949,28.7870026 35.5129652,29.2039984 35.0685185,29.528 C34.6240719,29.8520016 34.1185214,30.0889993 33.5518519,30.239 C32.9851824,30.3890008 32.4074104,30.464 31.8185185,30.464 C31.1407374,30.464 30.5018549,30.3740009 29.9018519,30.194 C29.3018489,30.0139991 28.7796319,29.7380019 28.3351852,29.366 C27.8907385,28.9939981 27.5351865,28.5170029 27.2685185,27.935 C27.0018505,27.3529971 26.862963,26.666004 26.8518519,25.874 L28.9351852,25.874 Z M39.2018518,17.306 L41.2851852,17.306 L41.2851852,30.158 L39.2018518,30.158 L39.2018518,17.306 Z M55.0518518,30.158 L53.7185185,30.158 L53.4018518,28.646 C52.8462935,29.3300034 52.2907435,29.8039987 51.7351851,30.068 C51.1796268,30.3320013 50.5407443,30.464 49.8185185,30.464 C48.9296251,30.464 48.1324109,30.2870018 47.4268518,29.933 C46.7212927,29.5789982 46.1240765,29.0960031 45.6351851,28.484 C45.1462938,27.8719969 44.7712976,27.1580041 44.5101851,26.342 C44.2490727,25.5259959 44.1185185,24.6560046 44.1185185,23.732 C44.1185185,22.8199954 44.2490727,21.9560041 44.5101851,21.14 C44.7712976,20.3239959 45.1462938,19.6100031 45.6351851,18.998 C46.1240765,18.3859969 46.7212927,17.9000018 47.4268518,17.54 C48.1324109,17.1799982 48.9296251,17 49.8185185,17 C50.4629661,17 51.0768489,17.0929991 51.6601851,17.279 C52.2435214,17.4650009 52.7629606,17.7409982 53.2185185,18.107 C53.6740763,18.4730018 54.0518503,18.9319972 54.3518518,19.484 C54.6518533,20.0360028 54.8407403,20.6719964 54.9185185,21.392 L52.8851851,21.392 C52.8296293,20.9719979 52.7101861,20.6030016 52.5268518,20.285 C52.3435176,19.9669984 52.1129643,19.7000011 51.8351851,19.484 C51.557406,19.2679989 51.246298,19.1060005 50.9018518,18.998 C50.5574056,18.8899995 50.1962981,18.836 49.8185185,18.836 C49.185182,18.836 48.6379652,18.9739986 48.1768518,19.25 C47.7157384,19.5260014 47.3407421,19.8949977 47.0518518,20.357 C46.7629615,20.8190023 46.5490747,21.3439971 46.4101851,21.932 C46.2712956,22.5200029 46.2018518,23.1199969 46.2018518,23.732 C46.2018518,24.3440031 46.2712956,24.9439971 46.4101851,25.532 C46.5490747,26.1200029 46.7629615,26.6449977 47.0518518,27.107 C47.3407421,27.5690023 47.7157384,27.9379986 48.1768518,28.214 C48.6379652,28.4900014 49.185182,28.628 49.8185185,28.628 C50.3518545,28.6400001 50.824072,28.5650008 51.2351851,28.403 C51.6462983,28.2409992 51.9935171,28.0070015 52.2768518,27.701 C52.5601866,27.3949985 52.7740733,27.0200022 52.9185185,26.576 C53.0629636,26.1319978 53.1407406,25.6400027 53.1518518,25.1 L49.9851851,25.1 L49.9851851,23.39 L55.0518518,23.39 L55.0518518,30.158 Z M58.0685185,17.306 L60.2685185,17.306 L65.7018518,26.774 L65.7351851,26.774 L65.7351851,17.306 L67.7185185,17.306 L67.7185185,30.158 L65.5185185,30.158 L60.1018518,20.708 L60.0518518,20.708 L60.0518518,30.158 L58.0685185,30.158 L58.0685185,17.306 Z M76.3518517,17.306 L78.4351851,17.306 L78.4351851,24.794 C78.4351851,25.2260022 78.4546293,25.6639978 78.4935184,26.108 C78.5324075,26.5520022 78.6435175,26.9509982 78.8268517,27.305 C79.010186,27.6590018 79.287961,27.9499989 79.6601851,28.178 C80.0324092,28.4060011 80.5574039,28.52 81.2351851,28.52 C81.9129662,28.52 82.437961,28.4060011 82.8101851,28.178 C83.1824092,27.9499989 83.4601842,27.6590018 83.6435184,27.305 C83.8268527,26.9509982 83.9379627,26.5520022 83.9768517,26.108 C84.0157408,25.6639978 84.0351851,25.2260022 84.0351851,24.794 L84.0351851,17.306 L86.1185184,17.306 L86.1185184,25.532 C86.1185184,26.3600041 86.0018529,27.0799969 85.7685184,27.692 C85.5351839,28.3040031 85.2046317,28.8169979 84.7768517,29.231 C84.3490718,29.6450021 83.8351881,29.953999 83.2351851,30.158 C82.6351821,30.362001 81.9685221,30.464 81.2351851,30.464 C80.5018481,30.464 79.8351881,30.362001 79.2351851,30.158 C78.6351821,29.953999 78.1212983,29.6450021 77.6935184,29.231 C77.2657385,28.8169979 76.9351862,28.3040031 76.7018517,27.692 C76.4685172,27.0799969 76.3518517,26.3600041 76.3518517,25.532 L76.3518517,17.306 Z M89.3518517,17.306 L94.6018517,17.306 C95.4463004,17.306 96.1351824,17.4379987 96.6685184,17.702 C97.2018544,17.9660013 97.6129614,18.295998 97.9018517,18.692 C98.1907421,19.088002 98.3879623,19.5199977 98.4935184,19.988 C98.5990745,20.4560023 98.6518517,20.887998 98.6518517,21.284 C98.6518517,21.680002 98.5990745,22.1089977 98.4935184,22.571 C98.3879623,23.0330023 98.1907421,23.461998 97.9018517,23.858 C97.6129614,24.254002 97.2018544,24.5809987 96.6685184,24.839 C96.1351824,25.0970013 95.4463004,25.226 94.6018517,25.226 L91.4351851,25.226 L91.4351851,30.158 L89.3518517,30.158 L89.3518517,17.306 Z M91.4351851,23.39 L94.4851851,23.39 C94.7185196,23.39 94.9574061,23.3540004 95.2018517,23.282 C95.4462974,23.2099996 95.6712951,23.0930008 95.8768517,22.931 C96.0824083,22.7689992 96.2490733,22.5530014 96.3768517,22.283 C96.5046301,22.0129987 96.5685184,21.674002 96.5685184,21.266 C96.5685184,20.8459979 96.5129634,20.4980014 96.4018517,20.222 C96.2907401,19.9459986 96.1407416,19.7270008 95.9518517,19.565 C95.7629619,19.4029992 95.5462974,19.2920003 95.3018517,19.232 C95.0574061,19.1719997 94.7962976,19.142 94.5185184,19.142 L91.4351851,19.142 L91.4351851,23.39 Z" id="SIGNUP" fill="#FFFFFF" fill-rule="nonzero"></path>
                        </g>
                    </g>
                </g>
            </g>
        </g>
    </g>
</svg>