<?xml version="1.0" encoding="utf-8"?>
<!-- Generator: Adobe Illustrator 18.1.1, SVG Export Plug-In . SVG Version: 6.00 Build 0)  -->
<svg version="1.1" id="Layer_1" xmlns="http://www.w3.org/2000/svg" xmlns:xlink="http://www.w3.org/1999/xlink" x="0px" y="0px"
	 viewBox="221 82 340 90" enable-background="new 221 82 340 90" xml:space="preserve">
<filter  width="108.7%" height="123.3%" y="-8.3%" id="filter-2" x="-4.3%" filterUnits="objectBoundingBox">
	<feOffset  result="shadowOffsetOuter1" dy="2" dx="0" in="SourceAlpha"></feOffset>
	<feGaussianBlur  stdDeviation="2" result="shadowBlurOuter1" in="shadowOffsetOuter1"></feGaussianBlur>
	<feColorMatrix  type="matrix" values="0 0 0 0 0   0 0 0 0 0   0 0 0 0 0  0 0 0 0.272180944 0" in="shadowBlurOuter1">
		</feColorMatrix>
</filter>
<title>728x90 -DONATE</title>
<desc>Created with Sketch.</desc>
<g id="Page-1">
	<g id="Direction-_x23_1-grey-Revisions-outlines" transform="translate(-627.000000, -1528.000000)">
		<g id="_x37_28x90--DONATE" transform="translate(627.000000, 1528.000000)">
			<g id="newsletter-ad" transform="translate(388.000000, 0.000000)">
				<rect id="_x33_40x90-back" x="-167" y="82" fill="#4D4D4D" width="340" height="90"/>
				<g id="titlearea-copy" transform="translate(20.000000, 24.000000)">
					<text transform="matrix(1 0 0 1 -167 113)" fill="#FFFFFF" font-family="'HelveticaNeue-Bold'" font-size="32.12">Support</text>
					<text transform="matrix(1 0 0 1 -144 129)" fill="#FFFFFF" font-family="'HelveticaNeue-Bold'" font-size="20.12">City Limits</text>
				</g>
				<g id="SIGN-UP-button" transform="translate(165.000000, 15.000000)">
					<g id="Rectangle">
						<g filter="url(#filter-2)">
							<polygon id="path-1_2_" points="-167,82 -6,82 -6,142 -167,142 							"/>
						</g>
						<g>
							<polygon id="path-1_1_" fill="#FF0000" points="-167,82 -6,82 -6,142 -167,142 							"/>
						</g>
					</g>
					<path id="Path" fill="#FFFFFF" d="M-133.5,101.5c9.8-8.1,23.7,5.3,6.1,18.8l-6.1,4.7l-6.1-4.7
						C-157.2,106.8-143.3,93.3-133.5,101.5z"/>
					<text transform="matrix(1 0 0 1 -109 119)" fill="#FFFFFF" font-family="'Georgia-Bold'" font-size="18">DONATE</text>
				</g>
			</g>
		</g>
	</g>
</g>
</svg>
