<?xml version="1.0" encoding="UTF-8"?>
<svg width="340px" height="90px" viewBox="0 0 340 90" version="1.1" xmlns="http://www.w3.org/2000/svg" xmlns:xlink="http://www.w3.org/1999/xlink">
    <!-- Generator: Sketch 54.1 (76490) - https://sketchapp.com -->
    <title>Donate Ad 340x90</title>
    <desc>Created with Sketch.</desc>
    <defs>
        <polygon id="path-1" points="0 0 161 0 161 60 0 60"></polygon>
        <filter x="-4.3%" y="-8.3%" width="108.7%" height="123.3%" filterUnits="objectBoundingBox" id="filter-2">
            <feOffset dx="0" dy="2" in="SourceAlpha" result="shadowOffsetOuter1"></feOffset>
            <feGaussianBlur stdDeviation="2" in="shadowOffsetOuter1" result="shadowBlurOuter1"></feGaussianBlur>
            <feColorMatrix values="0 0 0 0 0   0 0 0 0 0   0 0 0 0 0  0 0 0 0.272180944 0" type="matrix" in="shadowBlurOuter1"></feColorMatrix>
        </filter>
    </defs>
    <g id="Page-1" stroke="none" stroke-width="1" fill="none" fill-rule="evenodd">
        <g id="Direction-#1-grey-Revisions-2-fonts-outlines" transform="translate(-1015.000000, -1528.000000)">
            <g id="728x90--DONATE" transform="translate(627.000000, 1528.000000)">
                <g id="Donate-Ad-340x90" transform="translate(388.000000, 0.000000)">
                    <rect id="340x90-back" fill="#4D4D4D" x="0" y="0" width="340" height="90"></rect>
                    <g id="titlearea-copy" transform="translate(20.000000, 18.000000)" fill="#FFFFFF" fill-rule="nonzero">
                        <path d="M5.65312,16.30756 C5.65312,17.0784439 5.79230527,17.731544 6.07068,18.26688 C6.34905473,18.802216 6.71843103,19.2358317 7.17882,19.56774 C7.63920897,19.8996483 8.17989023,20.1458992 8.80088,20.3065 C9.42186977,20.4671008 10.0642633,20.5474 10.72808,20.5474 C11.1777622,20.5474 11.6595574,20.509927 12.17348,20.43498 C12.6874026,20.360033 13.1691978,20.2154944 13.61888,20.00136 C14.0685622,19.7872256 14.4432918,19.4927952 14.74308,19.11806 C15.0428682,18.7433248 15.19276,18.2668829 15.19276,17.68872 C15.19276,17.0677302 14.9946886,16.5645219 14.59854,16.17908 C14.2023914,15.7936381 13.6831232,15.4724413 13.04072,15.21548 C12.3983168,14.9585187 11.6702707,14.733681 10.85656,14.54096 C10.0428493,14.348239 9.21844418,14.1341078 8.38332,13.89856 C7.52678238,13.6844256 6.69167074,13.4221149 5.87796,13.11162 C5.06424926,12.8011251 4.33620321,12.3996291 3.6938,11.90712 C3.05139679,11.4146109 2.53212865,10.7989837 2.13598,10.06022 C1.73983135,9.32145631 1.54176,8.42745858 1.54176,7.3782 C1.54176,6.20046078 1.79336415,5.17798434 2.29658,4.31074 C2.79979585,3.44349566 3.45824926,2.72080289 4.27196,2.14264 C5.08567074,1.56447711 6.00643486,1.13621473 7.03428,0.85784 C8.06212514,0.579465275 9.08995486,0.44028 10.1178,0.44028 C11.3169527,0.44028 12.4679078,0.574111995 13.5707,0.84178 C14.6734922,1.10944801 15.6531424,1.54306367 16.50968,2.14264 C17.3662176,2.74221633 18.0460842,3.50773534 18.5493,4.43922 C19.0525158,5.37070466 19.30412,6.5002467 19.30412,7.82788 L14.42188,7.82788 C14.3790531,7.14264991 14.2345146,6.57520225 13.98826,6.12552 C13.7420054,5.67583775 13.4154554,5.32252128 13.0086,5.06556 C12.6017446,4.80859872 12.1360093,4.6265872 11.61138,4.51952 C11.0867507,4.4124528 10.5139498,4.35892 9.89296,4.35892 C9.48610463,4.35892 9.07925537,4.40174624 8.6724,4.4874 C8.26554463,4.57305376 7.89616833,4.7229456 7.56426,4.93708 C7.23235167,5.1512144 6.9593344,5.41887839 6.7452,5.74008 C6.5310656,6.06128161 6.424,6.46813087 6.424,6.96064 C6.424,7.41032225 6.50965248,7.77434527 6.68096,8.05272 C6.85226752,8.33109473 7.18952415,8.58805216 7.69274,8.8236 C8.19595585,9.05914784 8.89188222,9.29469216 9.78054,9.53024 C10.6691978,9.76578784 11.8308595,10.0655715 13.26556,10.4296 C13.6938288,10.5152538 14.2880429,10.6704989 15.04822,10.89534 C15.8083971,11.1201811 16.5632096,11.4788509 17.31268,11.97136 C18.0621504,12.4638691 18.7098973,13.1223225 19.25594,13.94674 C19.8019827,14.7711575 20.075,15.8257536 20.075,17.11056 C20.075,18.1598186 19.8715754,19.1341155 19.46472,20.03348 C19.0578646,20.9328445 18.452944,21.7090701 17.64994,22.36218 C16.846936,23.0152899 15.8512259,23.5238515 14.66278,23.88788 C13.4743341,24.2519085 12.0985411,24.43392 10.53536,24.43392 C9.27196702,24.43392 8.04606594,24.2786749 6.85762,23.96818 C5.66917406,23.6576851 4.61993122,23.1705367 3.70986,22.50672 C2.79978878,21.8429033 2.07709601,20.9970851 1.54176,19.96924 C1.00642399,18.9413949 0.74946656,17.7208471 0.77088,16.30756 L5.65312,16.30756 Z M38.15856,23.92 L33.82236,23.92 L33.82236,21.60736 L33.726,21.60736 C33.1478371,22.5709648 32.3983779,23.2668912 31.4776,23.69516 C30.5568221,24.1234288 29.6146448,24.33756 28.65104,24.33756 C27.4304739,24.33756 26.4294106,24.1769616 25.64782,23.85576 C24.8662294,23.5345584 24.2506022,23.0795296 23.80092,22.49066 C23.3512378,21.9017904 23.0353942,21.1844509 22.85338,20.33862 C22.6713658,19.4927891 22.58036,18.5559651 22.58036,17.52812 L22.58036,7.31396 L27.1414,7.31396 L27.1414,16.693 C27.1414,18.0634602 27.3555312,19.0859366 27.7838,19.76046 C28.2120688,20.4349834 28.9722345,20.77224 30.06432,20.77224 C31.3062995,20.77224 32.2056505,20.4028637 32.7624,19.6641 C33.3191495,18.9253363 33.59752,17.7101418 33.59752,16.01848 L33.59752,7.31396 L38.15856,7.31396 L38.15856,23.92 Z M50.01084,20.93284 C50.7603104,20.93284 51.3866442,20.7829482 51.88986,20.48316 C52.3930758,20.1833718 52.7999251,19.7925824 53.11042,19.31078 C53.4209149,18.8289776 53.6403994,18.2668832 53.76888,17.62448 C53.8973606,16.9820768 53.9616,16.3289767 53.9616,15.66516 C53.9616,15.0013433 53.8920074,14.3482432 53.75282,13.70584 C53.6136326,13.0634368 53.3834416,12.4906358 53.06224,11.98742 C52.7410384,11.4842042 52.3288358,11.0773549 51.82562,10.76686 C51.3224042,10.4563651 50.706777,10.30112 49.97872,10.30112 C49.2292496,10.30112 48.6029158,10.4563651 48.0997,10.76686 C47.5964842,11.0773549 47.1896349,11.4788509 46.87914,11.97136 C46.5686451,12.4638691 46.3491606,13.0313168 46.22068,13.67372 C46.0921994,14.3161232 46.02796,14.9799299 46.02796,15.66516 C46.02796,16.3289767 46.0975526,16.9820768 46.23674,17.62448 C46.3759274,18.2668832 46.6007651,18.8289776 46.91126,19.31078 C47.2217549,19.7925824 47.6339574,20.1833718 48.14788,20.48316 C48.6618026,20.7829482 49.282783,20.93284 50.01084,20.93284 Z M41.62752,7.31396 L45.96372,7.31396 L45.96372,9.43388 L46.02796,9.43388 C46.5847095,8.5345155 47.2913424,7.88141537 48.14788,7.47456 C49.0044176,7.06770463 49.9465949,6.86428 50.97444,6.86428 C52.2806599,6.86428 53.4048486,7.11053087 54.34704,7.60304 C55.2892314,8.09554913 56.0708102,8.74864926 56.6918,9.56236 C57.3127898,10.3760707 57.7731718,11.3236013 58.07296,12.40498 C58.3727482,13.4863587 58.52264,14.6159008 58.52264,15.79364 C58.52264,16.9071389 58.3727482,17.9777949 58.07296,19.00564 C57.7731718,20.0334851 57.3181431,20.9435427 56.70786,21.73584 C56.0975769,22.5281373 55.3374112,23.1598243 54.42734,23.63092 C53.5172688,24.1020157 52.4519661,24.33756 51.2314,24.33756 C50.2035549,24.33756 49.2560243,24.1287821 48.38878,23.71122 C47.5215357,23.2936579 46.8095495,22.6780307 46.2528,21.86432 L46.18856,21.86432 L46.18856,29.73372 L41.62752,29.73372 L41.62752,7.31396 Z M69.63616,20.93284 C70.3856304,20.93284 71.0119642,20.7829482 71.51518,20.48316 C72.0183958,20.1833718 72.4252451,19.7925824 72.73574,19.31078 C73.0462349,18.8289776 73.2657194,18.2668832 73.3942,17.62448 C73.5226806,16.9820768 73.58692,16.3289767 73.58692,15.66516 C73.58692,15.0013433 73.5173274,14.3482432 73.37814,13.70584 C73.2389526,13.0634368 73.0087616,12.4906358 72.68756,11.98742 C72.3663584,11.4842042 71.9541558,11.0773549 71.45094,10.76686 C70.9477242,10.4563651 70.332097,10.30112 69.60404,10.30112 C68.8545696,10.30112 68.2282358,10.4563651 67.72502,10.76686 C67.2218042,11.0773549 66.8149549,11.4788509 66.50446,11.97136 C66.1939651,12.4638691 65.9744806,13.0313168 65.846,13.67372 C65.7175194,14.3161232 65.65328,14.9799299 65.65328,15.66516 C65.65328,16.3289767 65.7228726,16.9820768 65.86206,17.62448 C66.0012474,18.2668832 66.2260851,18.8289776 66.53658,19.31078 C66.8470749,19.7925824 67.2592774,20.1833718 67.7732,20.48316 C68.2871226,20.7829482 68.908103,20.93284 69.63616,20.93284 Z M61.25284,7.31396 L65.58904,7.31396 L65.58904,9.43388 L65.65328,9.43388 C66.2100295,8.5345155 66.9166624,7.88141537 67.7732,7.47456 C68.6297376,7.06770463 69.5719149,6.86428 70.59976,6.86428 C71.9059799,6.86428 73.0301686,7.11053087 73.97236,7.60304 C74.9145514,8.09554913 75.6961302,8.74864926 76.31712,9.56236 C76.9381098,10.3760707 77.3984918,11.3236013 77.69828,12.40498 C77.9980682,13.4863587 78.14796,14.6159008 78.14796,15.79364 C78.14796,16.9071389 77.9980682,17.9777949 77.69828,19.00564 C77.3984918,20.0334851 76.9434631,20.9435427 76.33318,21.73584 C75.7228969,22.5281373 74.9627312,23.1598243 74.05266,23.63092 C73.1425888,24.1020157 72.0772861,24.33756 70.85672,24.33756 C69.8288749,24.33756 68.8813443,24.1287821 68.0141,23.71122 C67.1468557,23.2936579 66.4348695,22.6780307 65.87812,21.86432 L65.81388,21.86432 L65.81388,29.73372 L61.25284,29.73372 L61.25284,7.31396 Z M84.92528,15.63304 C84.92528,16.2968567 84.9895194,16.9446035 85.118,17.5763 C85.2464806,18.2079965 85.4659651,18.7754442 85.77646,19.27866 C86.0869549,19.7818758 86.4991574,20.1833718 87.01308,20.48316 C87.5270026,20.7829482 88.1693961,20.93284 88.94028,20.93284 C89.7111639,20.93284 90.3589107,20.7829482 90.88354,20.48316 C91.4081693,20.1833718 91.8257251,19.7818758 92.13622,19.27866 C92.4467149,18.7754442 92.6661994,18.2079965 92.79468,17.5763 C92.9231606,16.9446035 92.9874,16.2968567 92.9874,15.63304 C92.9874,14.9692233 92.9231606,14.3161232 92.79468,13.67372 C92.6661994,13.0313168 92.4467149,12.4638691 92.13622,11.97136 C91.8257251,11.4788509 91.4081693,11.0773549 90.88354,10.76686 C90.3589107,10.4563651 89.7111639,10.30112 88.94028,10.30112 C88.1693961,10.30112 87.5270026,10.4563651 87.01308,10.76686 C86.4991574,11.0773549 86.0869549,11.4788509 85.77646,11.97136 C85.4659651,12.4638691 85.2464806,13.0313168 85.118,13.67372 C84.9895194,14.3161232 84.92528,14.9692233 84.92528,15.63304 Z M80.36424,15.63304 C80.36424,14.3054067 80.5676646,13.1009187 80.97452,12.01954 C81.3813754,10.9381613 81.9595296,10.0173971 82.709,9.25722 C83.4584704,8.49704287 84.3578214,7.90818209 85.40708,7.49062 C86.4563386,7.07305791 87.6340601,6.86428 88.94028,6.86428 C90.2464999,6.86428 91.4295747,7.07305791 92.48954,7.49062 C93.5495053,7.90818209 94.4542096,8.49704287 95.20368,9.25722 C95.9531504,10.0173971 96.5313046,10.9381613 96.93816,12.01954 C97.3450154,13.1009187 97.54844,14.3054067 97.54844,15.63304 C97.54844,16.9606733 97.3450154,18.159808 96.93816,19.23048 C96.5313046,20.301152 95.9531504,21.2165629 95.20368,21.97674 C94.4542096,22.7369171 93.5495053,23.3204246 92.48954,23.72728 C91.4295747,24.1341354 90.2464999,24.33756 88.94028,24.33756 C87.6340601,24.33756 86.4563386,24.1341354 85.40708,23.72728 C84.3578214,23.3204246 83.4584704,22.7369171 82.709,21.97674 C81.9595296,21.2165629 81.3813754,20.301152 80.97452,19.23048 C80.5676646,18.159808 80.36424,16.9606733 80.36424,15.63304 Z M100.50348,7.31396 L104.83968,7.31396 L104.83968,10.39748 L104.90392,10.39748 C105.118054,9.88355743 105.407132,9.40711553 105.77116,8.96814 C106.135188,8.52916447 106.552744,8.15443489 107.02384,7.84394 C107.494936,7.53344511 107.998144,7.29254752 108.53348,7.12124 C109.068816,6.94993248 109.625557,6.86428 110.20372,6.86428 C110.503508,6.86428 110.835412,6.9178128 111.19944,7.02488 L111.19944,11.26472 C110.985306,11.2218931 110.728348,11.1844202 110.42856,11.1523 C110.128772,11.1201798 109.839695,11.10412 109.56132,11.10412 C108.726196,11.10412 108.019563,11.2433053 107.4414,11.52168 C106.863237,11.8000547 106.397502,12.1801376 106.04418,12.66194 C105.690858,13.1437424 105.439254,13.7058368 105.28936,14.34824 C105.139466,14.9906432 105.06452,15.6865696 105.06452,16.43604 L105.06452,23.92 L100.50348,23.92 L100.50348,7.31396 Z M118.77976,7.31396 L122.12024,7.31396 L122.12024,10.36536 L118.77976,10.36536 L118.77976,18.58808 C118.77976,19.3589639 118.908239,19.8728787 119.1652,20.12984 C119.422161,20.3868013 119.936076,20.51528 120.70696,20.51528 C120.963921,20.51528 121.210172,20.5045734 121.44572,20.48316 C121.681268,20.4617466 121.906106,20.4296269 122.12024,20.3868 L122.12024,23.92 C121.734798,23.9842403 121.306536,24.0270666 120.83544,24.04848 C120.364344,24.0698934 119.903962,24.0806 119.45428,24.0806 C118.747636,24.0806 118.078476,24.0324205 117.44678,23.93606 C116.815084,23.8396995 116.258342,23.6523347 115.77654,23.37396 C115.294738,23.0955853 114.914655,22.6994426 114.63628,22.18552 C114.357905,21.6715974 114.21872,20.9970842 114.21872,20.16196 L114.21872,10.36536 L111.4564,10.36536 L111.4564,7.31396 L114.21872,7.31396 L114.21872,2.33536 L118.77976,2.33536 L118.77976,7.31396 Z" id="Support"></path>
                        <path d="M33.9654,40.38312 C33.9117464,40.0209582 33.7910276,39.6889815 33.60324,39.38718 C33.4154524,39.0853785 33.1807214,38.8204678 32.89904,38.59244 C32.6173586,38.3644122 32.2987951,38.1866873 31.94334,38.05926 C31.5878849,37.9318327 31.2156686,37.86812 30.82668,37.86812 C30.1157698,37.86812 29.5121758,38.0056053 29.01588,38.28058 C28.5195842,38.5555547 28.1171882,38.9244177 27.80868,39.38718 C27.5001718,39.8499423 27.2755007,40.3764104 27.13466,40.9666 C26.9938193,41.5567896 26.9234,42.1670902 26.9234,42.79752 C26.9234,43.401123 26.9938193,43.9879505 27.13466,44.55802 C27.2755007,45.1280895 27.5001718,45.6411444 27.80868,46.0972 C28.1171882,46.5532556 28.5195842,46.9187653 29.01588,47.19374 C29.5121758,47.4687147 30.1157698,47.6062 30.82668,47.6062 C31.7924448,47.6062 32.5469373,47.3111096 33.09018,46.72092 C33.6334227,46.1307304 33.9653994,45.3527648 34.08612,44.387 L37.14436,44.387 C37.0638796,45.2856978 36.855975,46.0971964 36.52064,46.82152 C36.185305,47.5458436 35.7426694,48.1628508 35.19272,48.67256 C34.6427706,49.1822692 33.998937,49.571252 33.2612,49.83952 C32.523463,50.107788 31.7119644,50.24192 30.82668,50.24192 C29.7267812,50.24192 28.7375577,50.0507819 27.85898,49.6685 C26.9804023,49.2862181 26.239323,48.75975 25.63572,48.08908 C25.032117,47.41841 24.5693616,46.6303845 24.24744,45.72498 C23.9255184,44.8195755 23.76456,43.8437652 23.76456,42.79752 C23.76456,41.724448 23.9255184,40.7285179 24.24744,39.8097 C24.5693616,38.8908821 25.032117,38.0894434 25.63572,37.40536 C26.239323,36.7212766 26.9804023,36.1847486 27.85898,35.79576 C28.7375577,35.4067714 29.7267812,35.21228 30.82668,35.21228 C31.6180706,35.21228 32.3658565,35.3262922 33.07006,35.55432 C33.7742635,35.7823478 34.4046839,36.1143245 34.96134,36.55026 C35.5179961,36.9861955 35.9773982,37.5260768 36.33956,38.16992 C36.7017218,38.8137632 36.9297462,39.5514892 37.02364,40.38312 L33.9654,40.38312 Z M41.93292,37.90836 L39.07588,37.90836 L39.07588,35.55432 L41.93292,35.55432 L41.93292,37.90836 Z M39.07588,39.51796 L41.93292,39.51796 L41.93292,49.92 L39.07588,49.92 L39.07588,39.51796 Z M47.80796,39.51796 L49.90044,39.51796 L49.90044,41.42936 L47.80796,41.42936 L47.80796,46.58008 C47.80796,47.0629624 47.8884392,47.3848792 48.0494,47.54584 C48.2103608,47.7068008 48.5322776,47.78728 49.01516,47.78728 C49.1761208,47.78728 49.3303726,47.7805734 49.47792,47.76716 C49.6254674,47.7537466 49.766306,47.7336268 49.90044,47.7068 L49.90044,49.92 C49.6589988,49.9602402 49.3907348,49.9870666 49.09564,50.00048 C48.8005452,50.0138934 48.5121614,50.0206 48.23048,50.0206 C47.7878378,50.0206 47.3686753,49.9904203 46.97298,49.93006 C46.5772847,49.8696997 46.2285415,49.7523342 45.92674,49.57796 C45.6249385,49.4035858 45.3868542,49.1554416 45.21248,48.83352 C45.0381058,48.5115984 44.95092,48.0890826 44.95092,47.56596 L44.95092,41.42936 L43.2206,41.42936 L43.2206,39.51796 L44.95092,39.51796 L44.95092,36.39936 L47.80796,36.39936 L47.80796,39.51796 Z M56.3992,51.20768 C56.0906918,52.0527242 55.6614694,52.6563182 55.11152,53.01848 C54.5615706,53.3806418 53.7970182,53.56172 52.81784,53.56172 C52.5227452,53.56172 52.2310081,53.5516601 51.94262,53.53154 C51.6542319,53.5114199 51.3624948,53.4879468 51.0674,53.46112 L51.0674,51.10708 C51.335668,51.1339068 51.6106386,51.1607332 51.89232,51.18756 C52.1740014,51.2143868 52.4556786,51.2210934 52.73736,51.20768 C53.1129352,51.1674398 53.3912591,51.0198946 53.57234,50.76504 C53.7534209,50.5101854 53.84396,50.2285082 53.84396,49.92 C53.84396,49.6919722 53.8037204,49.477361 53.72324,49.27616 L50.08152,39.51796 L53.11964,39.51796 L55.47368,46.64044 L55.51392,46.64044 L57.78748,39.51796 L60.74512,39.51796 L56.3992,51.20768 Z M67.60604,35.55432 L70.76488,35.55432 L70.76488,47.26416 L77.76664,47.26416 L77.76664,49.92 L67.60604,49.92 L67.60604,35.55432 Z M82.17292,37.90836 L79.31588,37.90836 L79.31588,35.55432 L82.17292,35.55432 L82.17292,37.90836 Z M79.31588,39.51796 L82.17292,39.51796 L82.17292,49.92 L79.31588,49.92 L79.31588,39.51796 Z M84.50684,39.51796 L87.20292,39.51796 L87.20292,40.92636 L87.24316,40.92636 C87.6187352,40.389824 88.0714307,39.9740148 88.60126,39.67892 C89.1310893,39.3838252 89.7380366,39.23628 90.42212,39.23628 C91.0793766,39.23628 91.6796173,39.3637054 92.22286,39.61856 C92.7661027,39.8734146 93.1785586,40.3227568 93.46024,40.9666 C93.7687482,40.5105444 94.1879107,40.1081484 94.71774,39.7594 C95.2475693,39.4106516 95.8746364,39.23628 96.59896,39.23628 C97.1489094,39.23628 97.658611,39.303346 98.12808,39.43748 C98.597549,39.571614 98.999945,39.7862252 99.33528,40.08132 C99.670615,40.3764148 99.9321724,40.7620443 100.11996,41.23822 C100.307748,41.7143957 100.40164,42.28781 100.40164,42.95848 L100.40164,49.92 L97.5446,49.92 L97.5446,44.02484 C97.5446,43.6760916 97.5311868,43.3474682 97.50436,43.03896 C97.4775332,42.7304518 97.4037606,42.4621878 97.28304,42.23416 C97.1623194,42.0061322 96.9845945,41.825054 96.74986,41.69092 C96.5151255,41.556786 96.196562,41.48972 95.79416,41.48972 C95.391758,41.48972 95.0664879,41.5668459 94.81834,41.7211 C94.5701921,41.8753541 94.3757007,42.0765521 94.23486,42.3247 C94.0940193,42.5728479 94.0001269,42.8545251 93.95318,43.16974 C93.9062331,43.4849549 93.88276,43.8035184 93.88276,44.12544 L93.88276,49.92 L91.02572,49.92 L91.02572,44.0852 C91.02572,43.7766918 91.0190134,43.4715415 91.0056,43.16974 C90.9921866,42.8679385 90.9351805,42.5896146 90.83458,42.33476 C90.7339795,42.0799054 90.5663145,41.8753541 90.33158,41.7211 C90.0968455,41.5668459 89.7514556,41.48972 89.2954,41.48972 C89.161266,41.48972 88.9835411,41.5198997 88.76222,41.58026 C88.5408989,41.6406203 88.3262877,41.7546325 88.11838,41.9223 C87.9104723,42.0899675 87.7327474,42.3314051 87.5852,42.64662 C87.4376526,42.9618349 87.36388,43.3742908 87.36388,43.884 L87.36388,49.92 L84.50684,49.92 L84.50684,39.51796 Z M105.5926,37.90836 L102.73556,37.90836 L102.73556,35.55432 L105.5926,35.55432 L105.5926,37.90836 Z M102.73556,39.51796 L105.5926,39.51796 L105.5926,49.92 L102.73556,49.92 L102.73556,39.51796 Z M111.46764,39.51796 L113.56012,39.51796 L113.56012,41.42936 L111.46764,41.42936 L111.46764,46.58008 C111.46764,47.0629624 111.548119,47.3848792 111.70908,47.54584 C111.870041,47.7068008 112.191958,47.78728 112.67484,47.78728 C112.835801,47.78728 112.990053,47.7805734 113.1376,47.76716 C113.285147,47.7537466 113.425986,47.7336268 113.56012,47.7068 L113.56012,49.92 C113.318679,49.9602402 113.050415,49.9870666 112.75532,50.00048 C112.460225,50.0138934 112.171841,50.0206 111.89016,50.0206 C111.447518,50.0206 111.028355,49.9904203 110.63266,49.93006 C110.236965,49.8696997 109.888222,49.7523342 109.58642,49.57796 C109.284618,49.4035858 109.046534,49.1554416 108.87216,48.83352 C108.697786,48.5115984 108.6106,48.0890826 108.6106,47.56596 L108.6106,41.42936 L106.88028,41.42936 L106.88028,39.51796 L108.6106,39.51796 L108.6106,36.39936 L111.46764,36.39936 L111.46764,39.51796 Z M117.14148,46.53984 C117.14148,46.8483482 117.205193,47.1132589 117.33262,47.33458 C117.460047,47.5559011 117.624359,47.7369793 117.82556,47.87782 C118.026761,48.0186607 118.258139,48.122613 118.5197,48.18968 C118.781261,48.256747 119.052879,48.29028 119.33456,48.29028 C119.535761,48.29028 119.747019,48.2668069 119.96834,48.21986 C120.189661,48.1729131 120.390859,48.0991405 120.57194,47.99854 C120.753021,47.8979395 120.903919,47.7638075 121.02464,47.59614 C121.145361,47.4284725 121.20572,47.2172146 121.20572,46.96236 C121.20572,46.5331312 120.92069,46.2112144 120.35062,45.9966 C119.78055,45.7819856 118.985818,45.5673744 117.9664,45.35276 C117.550585,45.2588662 117.144835,45.1482073 116.74914,45.02078 C116.353445,44.8933527 116.001348,44.7256877 115.69284,44.51778 C115.384332,44.3098723 115.136188,44.0483149 114.9484,43.7331 C114.760612,43.4178851 114.66672,43.0322556 114.66672,42.5762 C114.66672,41.90553 114.797499,41.3555888 115.05906,40.92636 C115.320621,40.4971312 115.666011,40.1584479 116.09524,39.9103 C116.524469,39.6621521 117.007344,39.4877805 117.54388,39.38718 C118.080416,39.2865795 118.630357,39.23628 119.19372,39.23628 C119.757083,39.23628 120.303671,39.2899328 120.8335,39.39724 C121.363329,39.5045472 121.836145,39.6856254 122.25196,39.94048 C122.667775,40.1953346 123.013165,40.5340179 123.28814,40.95654 C123.563115,41.3790621 123.727426,41.9122368 123.78108,42.55608 L121.06488,42.55608 C121.02464,42.0061306 120.816735,41.6339143 120.44116,41.43942 C120.065585,41.2449257 119.622949,41.14768 119.11324,41.14768 C118.952279,41.14768 118.777908,41.1577399 118.59012,41.17786 C118.402332,41.1979801 118.231314,41.241573 118.07706,41.30864 C117.922806,41.375707 117.792027,41.4729527 117.68472,41.60038 C117.577413,41.7278073 117.52376,41.8988256 117.52376,42.11344 C117.52376,42.3682946 117.617652,42.5761992 117.80544,42.73716 C117.993228,42.8981208 118.238018,43.0288995 118.53982,43.1295 C118.841622,43.2301005 119.187011,43.3206396 119.576,43.40112 C119.964989,43.4816004 120.360678,43.5687862 120.76308,43.66268 C121.178895,43.7565738 121.584645,43.870586 121.98034,44.00472 C122.376035,44.138854 122.728132,44.3165789 123.03664,44.5379 C123.345148,44.7592211 123.593292,45.0341917 123.78108,45.36282 C123.968868,45.6914483 124.06276,46.0971976 124.06276,46.58008 C124.06276,47.2641634 123.925275,47.8375777 123.6503,48.30034 C123.375325,48.7631023 123.016522,49.1353186 122.57388,49.417 C122.131238,49.6986814 121.62489,49.8965261 121.05482,50.01054 C120.48475,50.1245539 119.90463,50.18156 119.31444,50.18156 C118.710837,50.18156 118.120656,50.1212006 117.54388,50.00048 C116.967104,49.8797594 116.454049,49.6785614 116.0047,49.39688 C115.555351,49.1151986 115.186488,48.7429823 114.8981,48.28022 C114.609712,47.8174577 114.452107,47.2373368 114.42528,46.53984 L117.14148,46.53984 Z" id="CityLimits"></path>
                    </g>
                    <g id="SIGN-UP-button" transform="translate(165.000000, 15.000000)">
                        <g id="Rectangle">
                            <use fill="black" fill-opacity="1" filter="url(#filter-2)" xlink:href="#path-1"></use>
                            <use fill="#D31213" fill-rule="evenodd" xlink:href="#path-1"></use>
                        </g>
                        <path d="M33.5,19.4779736 C43.2823859,11.3295407 57.1648247,24.755768 39.5616775,38.2968504 L33.5,43 L27.4383225,38.2968504 C9.83517533,24.755768 23.7176141,11.3295407 33.5,19.4779736 Z" id="Path" fill="#FFFFFF"></path>
                        <path d="M61.368,24.148 L66.696,24.148 C67.6800049,24.148 68.5319964,24.3159983 69.252,24.652 C69.9720036,24.9880017 70.5599977,25.4469971 71.016,26.029 C71.4720023,26.6110029 71.8109989,27.2919961 72.033,28.072 C72.2550011,28.8520039 72.366,29.6859956 72.366,30.574 C72.366,31.4620044 72.2550011,32.2959961 72.033,33.076 C71.8109989,33.8560039 71.4720023,34.5369971 71.016,35.119 C70.5599977,35.7010029 69.9720036,36.1599983 69.252,36.496 C68.5319964,36.8320017 67.6800049,37 66.696,37 L61.368,37 L61.368,24.148 Z M63.618,35.164 L65.832,35.164 C66.7080044,35.164 67.4249972,35.0470012 67.983,34.813 C68.5410028,34.5789988 68.9789984,34.2550021 69.297,33.841 C69.6150016,33.4269979 69.8309994,32.9410028 69.945,32.383 C70.0590006,31.8249972 70.116,31.2220032 70.116,30.574 C70.116,29.9259968 70.0590006,29.3230028 69.945,28.765 C69.8309994,28.2069972 69.6150016,27.7210021 69.297,27.307 C68.9789984,26.8929979 68.5410028,26.5690012 67.983,26.335 C67.4249972,26.1009988 66.7080044,25.984 65.832,25.984 L63.618,25.984 L63.618,35.164 Z M79.836,25.678 C79.1519966,25.678 78.5610025,25.8159986 78.063,26.092 C77.5649975,26.3680014 77.1600016,26.7369977 76.848,27.199 C76.5359984,27.6610023 76.3050008,28.1859971 76.155,28.774 C76.0049992,29.3620029 75.93,29.9619969 75.93,30.574 C75.93,31.1860031 76.0049992,31.7859971 76.155,32.374 C76.3050008,32.9620029 76.5359984,33.4869977 76.848,33.949 C77.1600016,34.4110023 77.5649975,34.7799986 78.063,35.056 C78.5610025,35.3320014 79.1519966,35.47 79.836,35.47 C80.5200034,35.47 81.1109975,35.3320014 81.609,35.056 C82.1070025,34.7799986 82.5119984,34.4110023 82.824,33.949 C83.1360016,33.4869977 83.3669993,32.9620029 83.517,32.374 C83.6670007,31.7859971 83.742,31.1860031 83.742,30.574 C83.742,29.9619969 83.6670007,29.3620029 83.517,28.774 C83.3669993,28.1859971 83.1360016,27.6610023 82.824,27.199 C82.5119984,26.7369977 82.1070025,26.3680014 81.609,26.092 C81.1109975,25.8159986 80.5200034,25.678 79.836,25.678 Z M79.836,23.842 C80.7960048,23.842 81.6569962,24.0219982 82.419,24.382 C83.1810038,24.7420018 83.8259974,25.2279969 84.354,25.84 C84.8820026,26.4520031 85.2869986,27.1659959 85.569,27.982 C85.8510014,28.7980041 85.992,29.6619954 85.992,30.574 C85.992,31.4980046 85.8510014,32.3679959 85.569,33.184 C85.2869986,34.0000041 84.8820026,34.7139969 84.354,35.326 C83.8259974,35.9380031 83.1810038,36.4209982 82.419,36.775 C81.6569962,37.1290018 80.7960048,37.306 79.836,37.306 C78.8759952,37.306 78.0150038,37.1290018 77.253,36.775 C76.4909962,36.4209982 75.8460026,35.9380031 75.318,35.326 C74.7899974,34.7139969 74.3850014,34.0000041 74.103,33.184 C73.8209986,32.3679959 73.68,31.4980046 73.68,30.574 C73.68,29.6619954 73.8209986,28.7980041 74.103,27.982 C74.3850014,27.1659959 74.7899974,26.4520031 75.318,25.84 C75.8460026,25.2279969 76.4909962,24.7420018 77.253,24.382 C78.0150038,24.0219982 78.8759952,23.842 79.836,23.842 Z M87.954,24.148 L90.33,24.148 L96.198,33.616 L96.234,33.616 L96.234,24.148 L98.376,24.148 L98.376,37 L96,37 L90.15,27.55 L90.096,27.55 L90.096,37 L87.954,37 L87.954,24.148 Z M104.478,24.148 L106.872,24.148 L111.822,37 L109.41,37 L108.204,33.598 L103.074,33.598 L101.868,37 L99.546,37 L104.478,24.148 Z M103.686,31.888 L107.61,31.888 L105.684,26.362 L105.63,26.362 L103.686,31.888 Z M111.822,24.148 L122.226,24.148 L122.226,26.092 L118.14,26.092 L118.14,37 L115.89,37 L115.89,26.092 L111.822,26.092 L111.822,24.148 Z M123.72,24.148 L132.972,24.148 L132.972,26.092 L125.97,26.092 L125.97,29.458 L132.45,29.458 L132.45,31.294 L125.97,31.294 L125.97,35.056 L133.098,35.056 L133.098,37 L123.72,37 L123.72,24.148 Z M134.988,34.75 L137.4,34.75 L137.4,37 L134.988,37 L134.988,34.75 Z M135.078,24.148 L137.328,24.148 L137.328,27.856 L136.734,33.418 L135.672,33.418 L135.078,27.856 L135.078,24.148 Z" id="DONATE!" fill="#FFFFFF" fill-rule="nonzero"></path>
                    </g>
                </g>
            </g>
        </g>
    </g>
</svg>