<?xml version="1.0" encoding="utf-8"?>
<!-- Generator: Adobe Illustrator 18.1.1, SVG Export Plug-In . SVG Version: 6.00 Build 0)  -->
<svg version="1.1" id="Layer_1" xmlns="http://www.w3.org/2000/svg" xmlns:xlink="http://www.w3.org/1999/xlink" x="0px" y="0px"
	 viewBox="221 82 340 90" enable-background="new 221 82 340 90" xml:space="preserve">
<filter  width="111.2%" height="131.1%" y="-11.1%" id="filter-4" x="-5.6%" filterUnits="objectBoundingBox">
	<feOffset  result="shadowOffsetOuter1" dy="2" dx="0" in="SourceAlpha"></feOffset>
	<feGaussianBlur  stdDeviation="2" result="shadowBlurOuter1" in="shadowOffsetOuter1"></feGaussianBlur>
	<feColorMatrix  type="matrix" values="0 0 0 0 0   0 0 0 0 0   0 0 0 0 0  0 0 0 0.272180944 0" in="shadowBlurOuter1">
		</feColorMatrix>
</filter>
<title>728x90</title>
<desc>Created with Sketch.</desc>
<g id="Page-1">
	<g id="Direction-_x23_1-grey-Revisions-outlines" transform="translate(-93.000000, -85.000000)">
		<g id="_x37_28x90" transform="translate(93.000000, 85.000000)">
			<rect id="_x37_28x90-back" x="-167" y="82" fill="#FFFFFF" width="728" height="90"/>
			<g id="newsletter-ad" transform="translate(388.000000, 0.000000)">
				<rect id="_x33_40x90-back" x="-167" y="82" fill="#EBEBEB" width="340" height="90"/>
				<g id="skyline-background">
					<g id="Rectangle-Copy-8">
						<rect id="path-1_1_" x="-167" y="82" fill="#EBEBEB" width="340" height="90"/>
					</g>
					<defs>
						<filter id="Adobe_OpacityMaskFilter" filterUnits="userSpaceOnUse" x="-438" y="95" width="879.5" height="82.5">
							<feColorMatrix  type="matrix" values="1 0 0 0 0  0 1 0 0 0  0 0 1 0 0  0 0 0 1 0"/>
						</filter>
					</defs>
					<mask maskUnits="userSpaceOnUse" x="-438" y="95" width="879.5" height="82.5" id="mask-2">
						<g filter="url(#Adobe_OpacityMaskFilter)">
							<rect id="path-1" x="-167" y="82" fill="#FFFFFF" width="340" height="90"/>
						</g>
					</mask>
					<g id="Skyline" mask="url(#mask-2)">
						<g transform="translate(-271.000000, 13.000000)">
							<g>
								<path id="Combined-Shape" fill="#B6B6B6" d="M-5.7,129v-13.7h2.4v-2h6.1v1.9h2.2v15.6h2.4h2v-1.3h10.9v-3.7h1.5V99.9h2.2v-3
									h1.7V93h1.5v3.7h1.5v3.4h2.5v22.6h5.3v-1.4h0.7v-1.1v-1.8h1.9v2.9h0.4v0.7h0.8v0.4H46v6.4h0.6v-5.7h3.8v-7.9h4.2v7.2h1.5
									v0.7h5.7v-16.7l9.6-10.8h1.9v30.4h3.2v-3.5h10.3v3.5h3V95h3.4v-2.7h6.9v2.9h3.4v28.9h6.1v2.9h5.9v-13.5l1.5-1.2h7.9l1.5,1.5
									v16h4.2v9.3h4v25.2H82v0.2h-188.5v-17.3v-3.1h0.8v-6.8h0.8v-4.2h0.8v-0.7h0.5v-1.7h5.1v1.7h0.8v0.9h0.6v6.7h3.5h3.1v-14.7
									h0.9v-0.9h0.5v-0.7l2.7-2l2.6,2.2v0.6h0.3v11.6h5.1V134h8.3V97.8h1.9v-1.3h2.4h0l0.3-14.5l0.3,14.5h2.5V98h2.1v24.8h6.5
									v15.4h4.5v-1.1h1.5v2.9h2.9v-14.4h4.7v5.5h1.1v-18.9h8.6v26.9h0.8v-6.6h2.6v6.4h0.5v-10.7h1.9v-7h10.1v16.8v4.6h3v-4.2h0.5
									v-1.8h0.6v-6.2h1.3v-6.5h2.7v5.1H-5.7z"/>
								<path id="Combined-Shape_1_" fill="#4D4D4D" d="M5,141.2v-1.1v-9.9h0.8v-1.5l2.4-5.4v-2.4l0.5-3.1l0.6,3.1v2.4l2.3,5.4v1.5
									h0.9v9.9v1.7h0.1v-5.2h2.6v-1.1h0.9v1.1h0.3v-0.5h1.8v1H19v-0.6h2.4v1.7h0.3v6.5h0.5v3.2h0.8v3.9h0.6v-8.2h0.9V140h0.6v-1.1
									h1.3v5.8h0.4v-1.2h1v-1.1h1v-4.7h0.6v-0.4H30v-0.7l0.7-1v-1.1h0.6v1.1l0.7,1.1v0.7h0.5v0.5h0.4v4.7h1V132H38v7.2h3.2v-15.9
									h11.5v1h0.4v13.3v6.4h2.6v-6h1.7v-1.3h2.9v1.3c0,0,3.2,0.1,3.2,0c0-0.1,0-8.6,0-8.6h-0.5v-1h13.2v1.1h-0.7v15.7H77v1.7h0.6
									v-12.2h2.8v-1.4h4.5v1.6h2.7v13.8h5.9v1.3h4v-21.4h5.7V126h2.8v-1.7h5.1v1.6h2.2v5.7h5.4v-1.6h3.7v1.7h2.8V157h0.6v-0.6h2.5
									v0.7h4.9v1.3h10.6v-4.6h17.4v1.4h12.8v1.6h10.7v2.4h20.7v3.1H113v1v0H-68.5v-8.8V151h4.1v-9.1h9.6v5.9h2h1.4v-15.2h1v-0.9
									h0.6h0.1c0.3-1.2,1.4-2.1,2.7-2.1c1.3,0,2.4,0.9,2.7,2.1h0.8v1h0.8v9h2.3v7.5h0.4v-7.6h0.6v-7.2h0.8v-0.7h0.4v-0.8l1.1-1.1
									h3.3l1,1.3v0.7h0.5v0.7h0.5v7.3h0.6v4.9h0.6v-7.7h0.5v-1.1h0.5v-0.7h0.5v-0.7h1.6v0.7h0.5v0.8h0.5v1.1h0.4v0.7h0.9v1.7h1.4
									v-0.8h0.2v-0.9h0.6v-1.2h0.2v-0.4h0.2v-0.6h0.9v0.6h1.8v1.3h1.3v-4.1h0.9l2.8,1v1.1h1.4v12.2c0,0,1.4,0.1,1.4,0
									c0-0.1,0-7.1,0-7.1h0.8v-0.6h0.2v-0.4h0.2v-0.3h0.8v0.3h0.3v0.4h0.2v-1.3h1.7v9.8H-8v-5.9h1.5v-8h1.4v-2.8h0.6v-1.3h1.5v1.2
									h0.4v0.4h0.5v2h0.5v1H1v1.3h0.6v3.9H2v0.7h0.6v0.7h0.3v-2.7H5z"/>
								<path id="Combined-Shape_2_" fill="#7D7D7D" d="M50.8,152v-4.1h3.4v5.1H56v-0.1h0.6v-0.1h1V152h0.3v-0.6h3.7V147h11.2v2.9
									H74v0.1h2.3v-2.2h1v-1.1h8v0.5h0.4v-0.9H89v0.9h1.3v5.4h3.8v1.4h2.6v1.8h1.2v-1.4h2.2v1.4h1.6v-4h0.1v-3.7h3.2v-1.6h1.6v1.6
									h3.2v3.9h2.6v2.4h0.9v-0.2h1.7V153h2.1v-0.1h1.5V152h4v-5h11.2v3h6v-0.6h1.1v-0.6h1.7v0.7h1v3.1h1.6v-5.4h1.5v-0.9h3.3v0.9
									h1.3v2.9h0.3v2.5h3.5v0.5h6.4v1.3h1v2.4h0.2v-5h4.2v0.1h1.7v4.8h2v-6.6h0.9v-0.9h6.9v0.9h0.9v2.6h2.3v0.2h1.9v1.2h1.6v1.3
									h0.8v1.6h6.7v-6.6h2.7V149h1.4v1.3h2.7v3.3h2.2v2.1h8v-5.6h0.8v-0.7h9.7v2.6h6.6v2.2h0.8V152h2.1v2.3h0.4v-4.7h1.3v-0.8h2.9
									v0.4h5.2v0.9h0.9v2.6h2.3v2.7h4.4v1.6h6.7v-6.6h2.7V149h1.4v1.3h2.7v2.6h6.1v1.2h1.7v1.6h2v-0.5h1.2v-5.8h9.7v2.6h0.7v-0.5
									h1.6v-1.5h7.5v-0.5h1.3v-0.8h2.9v0.8h1.1v4.7h2.7v-4.7h1v-0.7h0.1v-0.2h4.2v7.2h0.5v3h1.6v-1.4h0.5v-0.4h1.1v-2.4h6.9v-1.5
									h1.2V152h0.2v-1.3h3.6v1.3h4.1v0.9h1.5v0.1h2.1v1.2h1.7v2.1h1.5v-0.6h0.5v-0.5h5.2v-3.4h1.7v-0.4h1v-1.1h1.2v-1.5h8v1.1h1.5
									v0.1h2.1v1.5h1.7v1.9h2.5v0.8h2.1v-0.7h1.6v-4h1v-0.7h0.1v-0.2h4.2v0.2h5.8v1.5h1.2v1.1h1v3.3h2.5v-1.5h1.2V152h0.2v-1.3
									h3.6v1.3h4.1v0.9h1.5h1.1V152h8v1.2h1.2v1.5h2.5v-3.3h1v-1.1h1.2v-1.5h5.8v-0.2h4.2v0.2h0.1v0.7h1v4h1.6v0.7h2.1v-0.8h2.5
									v-1.9h1.7v-1.5h2.1V150h1.5v-1.1h8v1.5h1.2v1.1h1v0.4h1.7v3.4h5.2v0.5h0.5v0.6h1.5v-2.1h1.7V153h2.1v-0.1h1.5V152h4.1v-1.3
									h3.6v1.3h0.2v1.2h1.2v1.5h6.9v2.4h1.1v0.4h0.5v1.5h2.1v-10.3h4.2v0.2h0.1v0.7h1v7.2h1.8v1.8h1.9v-5.1h2.5v-1.9h1.7v-1.5h7.5
									v1.5h1.6v6.2h1.5v1.8h0.7v-7.8h4.2v3.4h5.2v2.4h2v-3.5h1.7V153h7.5v1.2h1.6v4.9h0.6v0.1h0.9v1.5h1.8v-3.5h8.3v1.9h7.2v2.5h4
									v-1.4h2.4v1.4h3v1.6h3.3v1.2h-1.8H442.5H418H311.5h-112h-114H25h-1.8H-106h-61v-2.4h4.7v-1.9h3.5v-5.8h2.9v5.8h3.3v-2.8h0.7
									v-0.7h4.2v0.7h0.6v2.7h1.3v-4.1h2.1v4.3h0.6v-1.4h1.9v-2.4h2.8v3.3h3v-6.7h1.5V152h8v1.2h1.2v6.8h1.6v-1.6h1.5v1.6h1.6v-2.5
									h3.6v3.3h3.5v-11.3h1.1v-0.6h1.7v0.7h1v9h3.6v-5.1h3.6v3.2h3.9v-2.6h2.9v2.6h1.5v3.3h1.8v-2.8h0.7v-0.7h1.2v-4.6h4.2v6.5
									h0.6v-2.6h2.1v1.4h0.4v-0.7h2.1v-0.1h2v-2.1h1.7V153h2.1v-0.1h1.5V152h8v0.9h0.5V152h8v1.2h1.2v5.8h1.6v-0.7h1.5v0.7h0.3
									v-9.6h1.1v-0.6h1.7v0.7h1v7.9h1.1v1.1h2.5v-5.1h1v-4h1.1v-0.6h1.7v0.7h1v7.1h3.6v-3.2h3.6v3.2h3.4v-4.8h4.2v4.8h0.7v1.6h1.8
									v-1.2h0.7v-0.7h1.2v-4.6h4.2v2.4h0.5V153h5.3v-5.1h3.4v5.1H-5v-0.1h0.6v-0.1h1V152h0.3v-0.6h7.9v1.5h1.2v2.8h4.6V150H13v5.6
									h2.3v-7.7h1v-1.1h8v1.1h1v3H28v2.6h0.9v0.6h4.2v0.1h2.6v1.8h5.1v-4h0.1v-3.7H44v-1.6h1.6v1.6h3.2v3.9H50.8z"/>
								<path id="Combined-Shape-Copy-3" fill="#7D7D7D" d="M212.8,158.3v-2.7h4v-7.7h3.4v5.1h2.4v-0.2h1.2v-1.5h7.9v1.5h1.2v2.8
									h4.6V150h2.4v5.6h2.3v-7.7h1v-1.1h8v1.1h1v3h2.7v3.1h5.1v0.1h2.6v1.8h5.2v-7.7h3.2v-1.6h1.6v1.6h3.2v3.9h2.6v2.4h4.7v-1.5
									h1.5V152h4v-5h11.2v3h6v-0.6h1.1v-0.6h1.7v0.7h1v3.1h1.6v-5.4h1.5v-0.9h3.3v0.9h1.3v5.4h3.8v3.3h3.8v-1.5h2.2v3.5h1.6v-6.1
									h4.2v6.5h2.9v1.9h2.9v-1.6h1.5v-4.4h1.7V153h7.5v1.2h1.6v4.9h1.5v1.5h1.8v-3.5h8.3v1.9h7.2v2.5h2.3v-4.7h3.4v-6.6h3v6.6h2.1
									v-2.4h1v-1.3h6.8v1.3h1v2.4h4V152h2.1v4.8h2v-6.6h0.9v-0.9h6.9v0.9h0.9v2.6h2.3v2.7h4.4v1.6h6.7v-6.6h2.7V149h1.4v1.3h2.7
									v3.3h2.2v2.1h8.8v-6.3h9.7v2.6h6.6v2.2h3.2v-4.7h1.3v-0.8h2.9v0.8h1.1v4.7h3.3v2.8h3.3v-1.3h1.9v3h2.1v-1.7h8.3v3.5h1.8
									v-1.5h0.9v-0.1h0.6v-4.9h1.6V153h7.5v1.2h1.7v3.5h2v-2.4h5.2v-3.4h4.2v7.8h0.7v-1.8h1.5l1.5-0.1v-1h8.3v-3.2h3.6v5.1h1.9
									v-1.8h2.9l4.2,2.2h2.1v-1.5h1.6v-2.8h6.9v-1.5h1.2V152h3.2l7-6.4h1.1v14h1.2v-3.3h2.3v-0.6h3.6v0h1.5v3.1h0.1v-2.1h1.5v0.4
									h0.2v-0.7h1.5v-6.1h1.2v-1.5h8v1.1h1.5v8.4h3v-4.1h2.8v3h1.9v1.7h0.6v-5.4h2.1v5.2h1.3v-3.4h0.6v-0.8h0.5v-0.3h2.9v0.3h0.8
									v0.8h0.7v3.5h1.9v-1.7h0.7v-0.7h0.8v-5h2.9v5h0.5v0.7h0.6v1.7h1.3v-3h2.1v4.3h0.6v-1.4h1.9v-2.4h2.8v3.3h3v-6.7l10.7,7h1.6
									v-1.6h1.5v1.6h1.6v-2.5h3.6v3.3h3.5l3.8-2.2h3.6l3.6-1.9h8.3v3.4h3.6v-8.2h4.2v6.5h2.9v1.9h2.9v-1.6h1.5l10.9-0.5l1.5,1v1.5
									h1.8v-3.5h8.3v1.9h7.2v2.5h4v-1.4h2.4v1.4h3v1.6h3.3v1.2h-1.8H608.5H584H477.5h-112h-114H191h-1.8H60v-2.4h4.7v-1.9h3.5
									v-5.8h2.9v5.8h3.3v-2.8h0.7v-0.7h4.2v0.7h0.6v2.7h1.3v-4.1h2.1v4.3h0.6v-1.4h1.9v-2.4h2.8v3.3h3v-6.7h1.5V152h8v1.2h1.2v6.8
									h1.6v-1.6h1.5v1.6h1.6v-2.5h3.6v3.3h3.5v-11.3h1.1v-0.6h1.7v0.7h1v9h3.6v-5.1h3.6v3.2h8.3v3.4h0.6v-0.1h3v-8.1h4.2v6.5h2.5
									v-1.2h0.7v-0.7h4.1v-2.2h1.7V153h7.5v1.2h1.6v4.9h1.4v-6.2h1.5V152h8v1.2h1.2v5.8h1.6v-0.7h1.5v0.7h1.6v-1.6h3.6v3.3h2.2
									v-0.6h1.4v-10.7h1.1v-0.6h1.7v0.7h1v9h3.6v-5.1h3.6v3.2h8.3v3.4h3.6v-8.2h4.2v6.5H212.8z"/>
							</g>
						</g>
					</g>
				</g>
				<g id="titlearea" transform="translate(22.000000, 10.000000)">
					<path id="OurReportingInYourInbox" d="M-149.4,126c0,0.3,0,0.6,0.1,0.9s0.2,0.5,0.3,0.8c0.2,0.2,0.4,0.4,0.6,0.5
						s0.6,0.2,0.9,0.2c0.4,0,0.7-0.1,0.9-0.2s0.5-0.3,0.6-0.5c0.2-0.2,0.3-0.5,0.3-0.8c0.1-0.3,0.1-0.6,0.1-0.9c0-0.3,0-0.6-0.1-0.9
						c-0.1-0.3-0.2-0.6-0.3-0.8s-0.4-0.4-0.6-0.6s-0.6-0.2-0.9-0.2c-0.4,0-0.7,0.1-0.9,0.2s-0.5,0.3-0.6,0.6
						c-0.2,0.2-0.3,0.5-0.3,0.8S-149.4,125.6-149.4,126z M-151,126c0-0.5,0.1-1,0.2-1.5c0.2-0.5,0.4-0.9,0.7-1.2
						c0.3-0.3,0.7-0.6,1.1-0.8c0.4-0.2,0.9-0.3,1.5-0.3c0.6,0,1.1,0.1,1.5,0.3s0.8,0.5,1.1,0.8c0.3,0.3,0.5,0.7,0.7,1.2
						c0.2,0.5,0.2,1,0.2,1.5c0,0.5-0.1,1-0.2,1.5s-0.4,0.8-0.7,1.2s-0.7,0.6-1.1,0.8c-0.4,0.2-0.9,0.3-1.5,0.3c-0.6,0-1-0.1-1.5-0.3
						c-0.4-0.2-0.8-0.5-1.1-0.8s-0.5-0.7-0.7-1.2C-150.9,127-151,126.5-151,126z M-138.1,129.5h-1.4v-0.7h0
						c-0.2,0.3-0.4,0.5-0.7,0.7c-0.3,0.1-0.6,0.2-0.9,0.2c-0.4,0-0.7-0.1-0.9-0.2s-0.4-0.2-0.6-0.4c-0.1-0.2-0.2-0.4-0.3-0.7
						c-0.1-0.3-0.1-0.6-0.1-0.9v-3.2h1.4v2.9c0,0.4,0.1,0.8,0.2,1c0.1,0.2,0.4,0.3,0.7,0.3c0.4,0,0.7-0.1,0.8-0.3
						c0.2-0.2,0.3-0.6,0.3-1.1v-2.7h1.4V129.5z M-137,124.3h1.4v1h0c0.1-0.2,0.2-0.3,0.3-0.4s0.2-0.3,0.4-0.4
						c0.1-0.1,0.3-0.2,0.5-0.2s0.3-0.1,0.5-0.1c0.1,0,0.2,0,0.3,0.1v1.3c-0.1,0-0.1,0-0.2,0c-0.1,0-0.2,0-0.3,0
						c-0.3,0-0.5,0-0.7,0.1c-0.2,0.1-0.3,0.2-0.4,0.4c-0.1,0.2-0.2,0.3-0.2,0.5s-0.1,0.4-0.1,0.7v2.3h-1.4V124.3z M-128.6,125.6h1.7
						c0.4,0,0.6-0.1,0.8-0.2c0.2-0.2,0.3-0.4,0.3-0.8c0-0.3-0.1-0.6-0.3-0.8c-0.2-0.2-0.5-0.2-0.8-0.2h-1.7V125.6z M-130.1,122.3
						h3.9c0.3,0,0.6,0.1,0.9,0.2c0.3,0.1,0.5,0.2,0.7,0.4c0.2,0.2,0.3,0.4,0.4,0.6c0.1,0.2,0.1,0.5,0.1,0.8c0,0.4-0.1,0.8-0.3,1.1
						c-0.2,0.3-0.5,0.5-0.9,0.7v0c0.2,0.1,0.4,0.1,0.5,0.2c0.1,0.1,0.2,0.2,0.3,0.4c0.1,0.2,0.1,0.3,0.2,0.5s0.1,0.4,0.1,0.5
						c0,0.1,0,0.2,0,0.4c0,0.2,0,0.3,0,0.5c0,0.2,0,0.3,0.1,0.5c0,0.1,0.1,0.3,0.2,0.4h-1.6c-0.1-0.2-0.1-0.5-0.2-0.8
						s-0.1-0.6-0.1-0.9c-0.1-0.4-0.2-0.7-0.3-0.8c-0.2-0.2-0.5-0.3-0.9-0.3h-1.6v2.8h-1.6V122.3z M-119.5,126.4
						c-0.1-0.4-0.2-0.6-0.4-0.8s-0.4-0.3-0.8-0.3c-0.2,0-0.4,0-0.6,0.1c-0.2,0.1-0.3,0.2-0.4,0.3s-0.2,0.2-0.2,0.4
						c0,0.1-0.1,0.2-0.1,0.3H-119.5z M-121.8,127.3c0,0.5,0.1,0.8,0.4,1s0.5,0.3,0.9,0.3c0.3,0,0.5-0.1,0.7-0.2
						c0.2-0.1,0.3-0.3,0.4-0.5h1.3c-0.2,0.6-0.5,1.1-0.9,1.3s-0.9,0.4-1.5,0.4c-0.4,0-0.8-0.1-1.1-0.2c-0.3-0.1-0.6-0.3-0.8-0.6
						c-0.2-0.2-0.4-0.5-0.5-0.9c-0.1-0.3-0.2-0.7-0.2-1.1c0-0.4,0.1-0.8,0.2-1.1s0.3-0.6,0.5-0.9c0.2-0.2,0.5-0.4,0.8-0.6
						c0.3-0.1,0.7-0.2,1.1-0.2c0.4,0,0.8,0.1,1.2,0.3s0.6,0.4,0.8,0.7c0.2,0.3,0.4,0.6,0.5,1c0.1,0.4,0.1,0.8,0.1,1.2H-121.8z
						 M-114.6,128.6c0.2,0,0.4,0,0.6-0.1c0.2-0.1,0.3-0.2,0.4-0.4s0.2-0.3,0.2-0.5c0-0.2,0.1-0.4,0.1-0.6c0-0.2,0-0.4-0.1-0.6
						c0-0.2-0.1-0.4-0.2-0.5c-0.1-0.2-0.2-0.3-0.4-0.4s-0.4-0.1-0.6-0.1c-0.2,0-0.4,0-0.6,0.1c-0.2,0.1-0.3,0.2-0.4,0.4
						c-0.1,0.2-0.2,0.3-0.2,0.5c0,0.2-0.1,0.4-0.1,0.6c0,0.2,0,0.4,0.1,0.6c0,0.2,0.1,0.4,0.2,0.5s0.2,0.3,0.4,0.4
						S-114.8,128.6-114.6,128.6z M-117.2,124.3h1.4v0.7h0c0.2-0.3,0.4-0.5,0.7-0.6s0.6-0.2,0.9-0.2c0.4,0,0.8,0.1,1.1,0.2
						s0.5,0.4,0.7,0.6c0.2,0.3,0.3,0.6,0.4,0.9c0.1,0.3,0.1,0.7,0.1,1.1c0,0.3,0,0.7-0.1,1c-0.1,0.3-0.2,0.6-0.4,0.9
						c-0.2,0.2-0.4,0.4-0.7,0.6s-0.6,0.2-1,0.2c-0.3,0-0.6-0.1-0.9-0.2s-0.5-0.3-0.7-0.6h0v2.5h-1.4V124.3z M-109.8,126.9
						c0,0.2,0,0.4,0.1,0.6c0,0.2,0.1,0.4,0.2,0.5c0.1,0.2,0.2,0.3,0.4,0.4c0.2,0.1,0.4,0.1,0.6,0.1c0.2,0,0.4,0,0.6-0.1
						s0.3-0.2,0.4-0.4c0.1-0.2,0.2-0.3,0.2-0.5c0-0.2,0.1-0.4,0.1-0.6c0-0.2,0-0.4-0.1-0.6c0-0.2-0.1-0.4-0.2-0.5
						c-0.1-0.2-0.2-0.3-0.4-0.4s-0.4-0.1-0.6-0.1c-0.2,0-0.4,0-0.6,0.1c-0.2,0.1-0.3,0.2-0.4,0.4s-0.2,0.3-0.2,0.5
						C-109.8,126.5-109.8,126.7-109.8,126.9z M-111.2,126.9c0-0.4,0.1-0.8,0.2-1.1c0.1-0.3,0.3-0.6,0.5-0.9c0.2-0.2,0.5-0.4,0.8-0.6
						c0.3-0.1,0.7-0.2,1.1-0.2c0.4,0,0.8,0.1,1.1,0.2c0.3,0.1,0.6,0.3,0.9,0.6s0.4,0.5,0.5,0.9c0.1,0.3,0.2,0.7,0.2,1.1
						s-0.1,0.8-0.2,1.1c-0.1,0.3-0.3,0.6-0.5,0.9s-0.5,0.4-0.9,0.5c-0.3,0.1-0.7,0.2-1.1,0.2c-0.4,0-0.8-0.1-1.1-0.2
						c-0.3-0.1-0.6-0.3-0.8-0.5c-0.2-0.2-0.4-0.5-0.5-0.9C-111.2,127.7-111.2,127.3-111.2,126.9z M-104.9,124.3h1.4v1h0
						c0.1-0.2,0.2-0.3,0.3-0.4c0.1-0.1,0.2-0.3,0.4-0.4c0.1-0.1,0.3-0.2,0.5-0.2s0.3-0.1,0.5-0.1c0.1,0,0.2,0,0.3,0.1v1.3
						c-0.1,0-0.1,0-0.2,0c-0.1,0-0.2,0-0.3,0c-0.3,0-0.5,0-0.7,0.1s-0.3,0.2-0.4,0.4c-0.1,0.2-0.2,0.3-0.2,0.5
						c0,0.2-0.1,0.4-0.1,0.7v2.3h-1.4V124.3z M-99.2,124.3h1v1h-1v2.6c0,0.2,0,0.4,0.1,0.5c0.1,0.1,0.2,0.1,0.5,0.1
						c0.1,0,0.2,0,0.2,0s0.1,0,0.2,0v1.1c-0.1,0-0.3,0-0.4,0c-0.1,0-0.3,0-0.4,0c-0.2,0-0.4,0-0.6,0s-0.4-0.1-0.5-0.2
						c-0.2-0.1-0.3-0.2-0.4-0.4c-0.1-0.2-0.1-0.4-0.1-0.6v-3.1h-0.9v-1h0.9v-1.6h1.4V124.3z M-96,123.5h-1.4v-1.2h1.4V123.5z
						 M-97.4,124.3h1.4v5.2h-1.4V124.3z M-94.8,124.3h1.4v0.7h0c0.2-0.3,0.4-0.5,0.7-0.7s0.6-0.2,0.9-0.2c0.4,0,0.7,0.1,0.9,0.2
						c0.2,0.1,0.4,0.2,0.6,0.4s0.2,0.4,0.3,0.7s0.1,0.6,0.1,0.9v3.2h-1.4v-2.9c0-0.4-0.1-0.8-0.2-1s-0.4-0.3-0.7-0.3
						c-0.4,0-0.7,0.1-0.8,0.3s-0.3,0.6-0.3,1.1v2.7h-1.4V124.3z M-86.4,128.3c0.2,0,0.4,0,0.5-0.1c0.2-0.1,0.3-0.2,0.4-0.3
						c0.1-0.1,0.2-0.3,0.2-0.5c0.1-0.2,0.1-0.4,0.1-0.5c0-0.2,0-0.4-0.1-0.6c0-0.2-0.1-0.4-0.2-0.5c-0.1-0.1-0.2-0.3-0.4-0.4
						c-0.2-0.1-0.3-0.1-0.6-0.1c-0.2,0-0.4,0-0.5,0.1c-0.1,0.1-0.3,0.2-0.4,0.3c-0.1,0.1-0.2,0.3-0.2,0.5c0,0.2-0.1,0.4-0.1,0.6
						c0,0.2,0,0.4,0.1,0.6c0,0.2,0.1,0.4,0.2,0.5s0.2,0.3,0.4,0.4C-86.8,128.2-86.6,128.3-86.4,128.3z M-83.8,129.2
						c0,0.2,0,0.4-0.1,0.7c-0.1,0.3-0.2,0.5-0.4,0.8c-0.2,0.2-0.5,0.4-0.8,0.6s-0.8,0.2-1.4,0.2c-0.3,0-0.5,0-0.8-0.1
						c-0.3-0.1-0.5-0.2-0.7-0.3s-0.4-0.3-0.5-0.5c-0.1-0.2-0.2-0.5-0.2-0.8h1.4c0.1,0.3,0.2,0.5,0.4,0.6c0.2,0.1,0.4,0.2,0.7,0.2
						c0.4,0,0.7-0.1,0.9-0.4c0.2-0.2,0.3-0.5,0.3-0.9v-0.7h0c-0.2,0.3-0.4,0.5-0.7,0.6c-0.3,0.1-0.6,0.2-0.9,0.2
						c-0.4,0-0.7-0.1-1-0.2c-0.3-0.1-0.5-0.3-0.7-0.6c-0.2-0.2-0.3-0.5-0.4-0.8s-0.1-0.7-0.1-1c0-0.3,0-0.7,0.1-1
						c0.1-0.3,0.2-0.6,0.4-0.8c0.2-0.2,0.4-0.4,0.7-0.6c0.3-0.1,0.6-0.2,1-0.2c0.3,0,0.6,0.1,0.9,0.2s0.5,0.3,0.7,0.6h0v-0.7h1.4
						V129.2z M-79.7,122.3h1.6v7.2h-1.6V122.3z M-76.9,124.3h1.4v0.7h0c0.2-0.3,0.4-0.5,0.7-0.7s0.6-0.2,0.9-0.2
						c0.4,0,0.7,0.1,0.9,0.2c0.2,0.1,0.4,0.2,0.6,0.4s0.2,0.4,0.3,0.7c0.1,0.3,0.1,0.6,0.1,0.9v3.2h-1.4v-2.9c0-0.4-0.1-0.8-0.2-1
						c-0.1-0.2-0.4-0.3-0.7-0.3c-0.4,0-0.7,0.1-0.8,0.3s-0.3,0.6-0.3,1.1v2.7h-1.4V124.3z M-66.1,126.7l-2.6-4.4h1.8l1.7,2.8
						l1.7-2.8h1.8l-2.7,4.4v2.8h-1.6V126.7z M-61.3,126.9c0,0.2,0,0.4,0.1,0.6c0,0.2,0.1,0.4,0.2,0.5c0.1,0.2,0.2,0.3,0.4,0.4
						c0.2,0.1,0.4,0.1,0.6,0.1s0.4,0,0.6-0.1s0.3-0.2,0.4-0.4c0.1-0.2,0.2-0.3,0.2-0.5c0-0.2,0.1-0.4,0.1-0.6c0-0.2,0-0.4-0.1-0.6
						c0-0.2-0.1-0.4-0.2-0.5c-0.1-0.2-0.2-0.3-0.4-0.4s-0.4-0.1-0.6-0.1s-0.4,0-0.6,0.1c-0.2,0.1-0.3,0.2-0.4,0.4
						c-0.1,0.2-0.2,0.3-0.2,0.5C-61.2,126.5-61.3,126.7-61.3,126.9z M-62.7,126.9c0-0.4,0.1-0.8,0.2-1.1c0.1-0.3,0.3-0.6,0.5-0.9
						c0.2-0.2,0.5-0.4,0.8-0.6c0.3-0.1,0.7-0.2,1.1-0.2c0.4,0,0.8,0.1,1.1,0.2c0.3,0.1,0.6,0.3,0.9,0.6c0.2,0.2,0.4,0.5,0.5,0.9
						c0.1,0.3,0.2,0.7,0.2,1.1s-0.1,0.8-0.2,1.1c-0.1,0.3-0.3,0.6-0.5,0.9c-0.2,0.2-0.5,0.4-0.9,0.5c-0.3,0.1-0.7,0.2-1.1,0.2
						c-0.4,0-0.8-0.1-1.1-0.2c-0.3-0.1-0.6-0.3-0.8-0.5c-0.2-0.2-0.4-0.5-0.5-0.9C-62.6,127.7-62.7,127.3-62.7,126.9z M-51.5,129.5
						h-1.4v-0.7h0c-0.2,0.3-0.4,0.5-0.7,0.7c-0.3,0.1-0.6,0.2-0.9,0.2c-0.4,0-0.7-0.1-0.9-0.2c-0.2-0.1-0.4-0.2-0.6-0.4
						s-0.2-0.4-0.3-0.7c-0.1-0.3-0.1-0.6-0.1-0.9v-3.2h1.4v2.9c0,0.4,0.1,0.8,0.2,1c0.1,0.2,0.4,0.3,0.7,0.3c0.4,0,0.7-0.1,0.8-0.3
						s0.3-0.6,0.3-1.1v-2.7h1.4V129.5z M-50.4,124.3h1.4v1h0c0.1-0.2,0.2-0.3,0.3-0.4s0.2-0.3,0.4-0.4s0.3-0.2,0.5-0.2
						s0.3-0.1,0.5-0.1c0.1,0,0.2,0,0.3,0.1v1.3c-0.1,0-0.1,0-0.2,0c-0.1,0-0.2,0-0.3,0c-0.3,0-0.5,0-0.7,0.1s-0.3,0.2-0.4,0.4
						c-0.1,0.2-0.2,0.3-0.2,0.5s-0.1,0.4-0.1,0.7v2.3h-1.4V124.3z M-43.5,122.3h1.6v7.2h-1.6V122.3z M-40.7,124.3h1.4v0.7h0
						c0.2-0.3,0.4-0.5,0.7-0.7c0.3-0.1,0.6-0.2,0.9-0.2c0.4,0,0.7,0.1,0.9,0.2s0.4,0.2,0.6,0.4c0.1,0.2,0.2,0.4,0.3,0.7
						c0.1,0.3,0.1,0.6,0.1,0.9v3.2h-1.4v-2.9c0-0.4-0.1-0.8-0.2-1s-0.4-0.3-0.7-0.3c-0.4,0-0.7,0.1-0.8,0.3s-0.3,0.6-0.3,1.1v2.7
						h-1.4V124.3z M-30.9,126.9c0-0.2,0-0.4-0.1-0.6s-0.1-0.4-0.2-0.5c-0.1-0.2-0.2-0.3-0.4-0.4c-0.2-0.1-0.3-0.1-0.5-0.1
						c-0.2,0-0.4,0-0.5,0.1c-0.2,0.1-0.3,0.2-0.4,0.4c-0.1,0.2-0.2,0.3-0.2,0.5c0,0.2-0.1,0.4-0.1,0.6c0,0.2,0,0.4,0.1,0.6
						c0,0.2,0.1,0.4,0.2,0.5c0.1,0.2,0.2,0.3,0.4,0.4c0.2,0.1,0.3,0.1,0.5,0.1c0.2,0,0.4,0,0.5-0.1c0.2-0.1,0.3-0.2,0.4-0.4
						c0.1-0.2,0.2-0.3,0.2-0.5C-30.9,127.3-30.9,127.1-30.9,126.9z M-34.7,122.3h1.4v2.6h0c0.2-0.3,0.4-0.5,0.7-0.6
						c0.3-0.1,0.6-0.2,0.9-0.2c0.3,0,0.5,0.1,0.8,0.2c0.3,0.1,0.5,0.3,0.7,0.5c0.2,0.2,0.4,0.5,0.5,0.9c0.1,0.3,0.2,0.8,0.2,1.2
						s-0.1,0.9-0.2,1.2c-0.1,0.3-0.3,0.6-0.5,0.9c-0.2,0.2-0.4,0.4-0.7,0.5c-0.3,0.1-0.5,0.2-0.8,0.2c-0.4,0-0.7-0.1-1-0.2
						c-0.3-0.1-0.5-0.3-0.7-0.6h0v0.7h-1.4V122.3z M-27.3,126.9c0,0.2,0,0.4,0.1,0.6c0,0.2,0.1,0.4,0.2,0.5c0.1,0.2,0.2,0.3,0.4,0.4
						s0.4,0.1,0.6,0.1c0.2,0,0.4,0,0.6-0.1s0.3-0.2,0.4-0.4c0.1-0.2,0.2-0.3,0.2-0.5c0-0.2,0.1-0.4,0.1-0.6c0-0.2,0-0.4-0.1-0.6
						c0-0.2-0.1-0.4-0.2-0.5s-0.2-0.3-0.4-0.4s-0.4-0.1-0.6-0.1c-0.2,0-0.4,0-0.6,0.1s-0.3,0.2-0.4,0.4s-0.2,0.3-0.2,0.5
						C-27.3,126.5-27.3,126.7-27.3,126.9z M-28.7,126.9c0-0.4,0.1-0.8,0.2-1.1c0.1-0.3,0.3-0.6,0.5-0.9c0.2-0.2,0.5-0.4,0.8-0.6
						c0.3-0.1,0.7-0.2,1.1-0.2c0.4,0,0.8,0.1,1.1,0.2c0.3,0.1,0.6,0.3,0.9,0.6s0.4,0.5,0.5,0.9c0.1,0.3,0.2,0.7,0.2,1.1
						s-0.1,0.8-0.2,1.1c-0.1,0.3-0.3,0.6-0.5,0.9s-0.5,0.4-0.9,0.5c-0.3,0.1-0.7,0.2-1.1,0.2c-0.4,0-0.8-0.1-1.1-0.2
						c-0.3-0.1-0.6-0.3-0.8-0.5c-0.2-0.2-0.4-0.5-0.5-0.9C-28.7,127.7-28.7,127.3-28.7,126.9z M-21.1,126.8l-1.7-2.5h1.6l0.9,1.4
						l0.9-1.4h1.6l-1.7,2.4l1.9,2.8h-1.6l-1.1-1.6l-1.1,1.6H-23L-21.1,126.8z"/>
					<path id="CityLimits" d="M-158.8,89.8c0-0.3-0.1-0.5-0.3-0.7c-0.1-0.2-0.3-0.4-0.5-0.6s-0.5-0.3-0.7-0.4s-0.5-0.1-0.8-0.1
						c-0.5,0-1,0.1-1.4,0.3c-0.4,0.2-0.7,0.5-0.9,0.8c-0.2,0.3-0.4,0.7-0.5,1.2c-0.1,0.4-0.2,0.9-0.2,1.4c0,0.5,0.1,0.9,0.2,1.3
						c0.1,0.4,0.3,0.8,0.5,1.2c0.2,0.3,0.5,0.6,0.9,0.8c0.4,0.2,0.8,0.3,1.4,0.3c0.7,0,1.3-0.2,1.7-0.7c0.4-0.4,0.7-1,0.7-1.8h2.3
						c-0.1,0.7-0.2,1.3-0.5,1.8c-0.3,0.5-0.6,1-1,1.4s-0.9,0.7-1.5,0.9c-0.6,0.2-1.2,0.3-1.8,0.3c-0.8,0-1.6-0.1-2.2-0.4
						c-0.7-0.3-1.2-0.7-1.7-1.2c-0.5-0.5-0.8-1.1-1-1.8c-0.2-0.7-0.4-1.4-0.4-2.2c0-0.8,0.1-1.6,0.4-2.2c0.2-0.7,0.6-1.3,1-1.8
						c0.5-0.5,1-0.9,1.7-1.2c0.7-0.3,1.4-0.4,2.2-0.4c0.6,0,1.2,0.1,1.7,0.3c0.5,0.2,1,0.4,1.4,0.7c0.4,0.3,0.8,0.7,1,1.2
						c0.3,0.5,0.4,1,0.5,1.7H-158.8z M-152.8,87.9h-2.1v-1.8h2.1V87.9z M-154.9,89.1h2.1v7.8h-2.1V89.1z M-148.4,89.1h1.6v1.4h-1.6
						v3.9c0,0.4,0.1,0.6,0.2,0.7c0.1,0.1,0.4,0.2,0.7,0.2c0.1,0,0.2,0,0.3,0s0.2,0,0.3,0v1.7c-0.2,0-0.4,0.1-0.6,0.1
						c-0.2,0-0.4,0-0.7,0c-0.3,0-0.6,0-0.9-0.1c-0.3,0-0.6-0.1-0.8-0.3c-0.2-0.1-0.4-0.3-0.5-0.6s-0.2-0.6-0.2-1v-4.6h-1.3v-1.4h1.3
						v-2.3h2.1V89.1z M-141.9,97.9c-0.2,0.6-0.6,1.1-1,1.4s-1,0.4-1.7,0.4c-0.2,0-0.4,0-0.7,0s-0.4,0-0.7-0.1v-1.8
						c0.2,0,0.4,0,0.6,0.1c0.2,0,0.4,0,0.6,0c0.3,0,0.5-0.1,0.6-0.3s0.2-0.4,0.2-0.6c0-0.2,0-0.3-0.1-0.5l-2.7-7.3h2.3l1.8,5.4h0
						l1.7-5.4h2.2L-141.9,97.9z M-133.5,86.1h2.4v8.8h5.3v2h-7.6V86.1z M-122.5,87.9h-2.1v-1.8h2.1V87.9z M-124.7,89.1h2.1v7.8h-2.1
						V89.1z M-120.8,89.1h2v1.1h0c0.3-0.4,0.6-0.7,1-0.9c0.4-0.2,0.9-0.3,1.4-0.3c0.5,0,0.9,0.1,1.4,0.3c0.4,0.2,0.7,0.5,0.9,1
						c0.2-0.3,0.5-0.6,0.9-0.9c0.4-0.3,0.9-0.4,1.4-0.4c0.4,0,0.8,0.1,1.1,0.2c0.4,0.1,0.7,0.3,0.9,0.5c0.3,0.2,0.4,0.5,0.6,0.9
						c0.1,0.4,0.2,0.8,0.2,1.3v5.2h-2.1v-4.4c0-0.3,0-0.5,0-0.7c0-0.2-0.1-0.4-0.2-0.6c-0.1-0.2-0.2-0.3-0.4-0.4
						c-0.2-0.1-0.4-0.2-0.7-0.2s-0.5,0.1-0.7,0.2s-0.3,0.3-0.4,0.5c-0.1,0.2-0.2,0.4-0.2,0.6c0,0.2-0.1,0.5-0.1,0.7v4.4h-2.1v-4.4
						c0-0.2,0-0.5,0-0.7c0-0.2-0.1-0.4-0.1-0.6c-0.1-0.2-0.2-0.3-0.4-0.5c-0.2-0.1-0.4-0.2-0.8-0.2c-0.1,0-0.2,0-0.4,0.1
						c-0.2,0-0.3,0.1-0.5,0.3c-0.2,0.1-0.3,0.3-0.4,0.5c-0.1,0.2-0.2,0.5-0.2,0.9v4.5h-2.1V89.1z M-104.9,87.9h-2.1v-1.8h2.1V87.9z
						 M-107.1,89.1h2.1v7.8h-2.1V89.1z M-100.5,89.1h1.6v1.4h-1.6v3.9c0,0.4,0.1,0.6,0.2,0.7c0.1,0.1,0.4,0.2,0.7,0.2
						c0.1,0,0.2,0,0.3,0c0.1,0,0.2,0,0.3,0v1.7c-0.2,0-0.4,0.1-0.6,0.1c-0.2,0-0.4,0-0.7,0c-0.3,0-0.6,0-0.9-0.1
						c-0.3,0-0.6-0.1-0.8-0.3c-0.2-0.1-0.4-0.3-0.5-0.6c-0.1-0.2-0.2-0.6-0.2-1v-4.6h-1.3v-1.4h1.3v-2.3h2.1V89.1z M-96.3,94.4
						c0,0.2,0,0.4,0.1,0.6c0.1,0.2,0.2,0.3,0.4,0.4c0.2,0.1,0.3,0.2,0.5,0.2c0.2,0.1,0.4,0.1,0.6,0.1c0.2,0,0.3,0,0.5-0.1
						c0.2,0,0.3-0.1,0.5-0.2c0.1-0.1,0.2-0.2,0.3-0.3s0.1-0.3,0.1-0.5c0-0.3-0.2-0.6-0.6-0.7c-0.4-0.2-1-0.3-1.8-0.5
						c-0.3-0.1-0.6-0.2-0.9-0.2c-0.3-0.1-0.6-0.2-0.8-0.4c-0.2-0.2-0.4-0.4-0.6-0.6c-0.1-0.2-0.2-0.5-0.2-0.9c0-0.5,0.1-0.9,0.3-1.2
						c0.2-0.3,0.5-0.6,0.8-0.8c0.3-0.2,0.7-0.3,1.1-0.4c0.4-0.1,0.8-0.1,1.2-0.1s0.8,0,1.2,0.1c0.4,0.1,0.8,0.2,1.1,0.4
						s0.6,0.4,0.8,0.8c0.2,0.3,0.3,0.7,0.4,1.2h-2c0-0.4-0.2-0.7-0.5-0.8s-0.6-0.2-1-0.2c-0.1,0-0.3,0-0.4,0c-0.1,0-0.3,0-0.4,0.1
						s-0.2,0.1-0.3,0.2c-0.1,0.1-0.1,0.2-0.1,0.4c0,0.2,0.1,0.3,0.2,0.5c0.1,0.1,0.3,0.2,0.6,0.3c0.2,0.1,0.5,0.1,0.8,0.2
						c0.3,0.1,0.6,0.1,0.9,0.2c0.3,0.1,0.6,0.2,0.9,0.3c0.3,0.1,0.6,0.2,0.8,0.4c0.2,0.2,0.4,0.4,0.6,0.6c0.1,0.2,0.2,0.6,0.2,0.9
						c0,0.5-0.1,0.9-0.3,1.3c-0.2,0.3-0.5,0.6-0.8,0.8s-0.7,0.4-1.1,0.4c-0.4,0.1-0.9,0.1-1.3,0.1c-0.5,0-0.9,0-1.3-0.1
						c-0.4-0.1-0.8-0.2-1.2-0.5c-0.3-0.2-0.6-0.5-0.8-0.8s-0.3-0.8-0.4-1.3H-96.3z"/>
					<path id="Newsletters" fill="#FF0000" d="M-165.2,99h4.1l7.8,12.6h0.1V99h3.9v18.8h-4.1l-7.8-12.6h-0.1v12.6h-3.9V99z
						 M-136.9,109.6c-0.2-0.9-0.5-1.7-0.9-2.2c-0.4-0.5-1.1-0.7-2-0.7c-0.6,0-1.1,0.1-1.5,0.3c-0.4,0.2-0.7,0.5-0.9,0.8
						c-0.2,0.3-0.4,0.6-0.5,0.9c-0.1,0.3-0.2,0.6-0.2,0.9H-136.9z M-143,111.9c0.1,1.2,0.4,2.1,0.9,2.6c0.6,0.5,1.4,0.8,2.4,0.8
						c0.8,0,1.4-0.2,1.9-0.6c0.5-0.4,0.9-0.8,1-1.2h3.3c-0.5,1.6-1.3,2.8-2.4,3.5c-1.1,0.7-2.4,1.1-3.9,1.1c-1.1,0-2-0.2-2.9-0.5
						c-0.9-0.3-1.6-0.8-2.2-1.5s-1.1-1.4-1.4-2.3s-0.5-1.8-0.5-2.9c0-1,0.2-2,0.5-2.8s0.8-1.6,1.4-2.3s1.3-1.1,2.2-1.5
						c0.9-0.4,1.8-0.6,2.8-0.6c1.2,0,2.2,0.2,3,0.7s1.6,1,2.1,1.8c0.6,0.8,1,1.6,1.2,2.6s0.3,2,0.3,3H-143z M-115.4,117.8h-3.8
						l-2.4-9.1h-0.1l-2.3,9.1h-3.9l-4.3-13.6h3.9l2.5,9.2h0.1l2.3-9.2h3.6l2.3,9.2h0.1l2.5-9.2h3.8L-115.4,117.8z M-106.6,113.4
						c0,0.4,0.1,0.8,0.3,1c0.2,0.3,0.4,0.5,0.6,0.7c0.3,0.2,0.6,0.3,0.9,0.4c0.3,0.1,0.7,0.1,1.1,0.1c0.3,0,0.5,0,0.8-0.1
						s0.6-0.2,0.8-0.3c0.2-0.1,0.4-0.3,0.6-0.5s0.2-0.5,0.2-0.8c0-0.6-0.4-1-1.1-1.3c-0.7-0.3-1.8-0.6-3.1-0.8
						c-0.5-0.1-1.1-0.3-1.6-0.4c-0.5-0.2-1-0.4-1.4-0.7c-0.4-0.3-0.7-0.6-1-1c-0.2-0.4-0.4-0.9-0.4-1.5c0-0.9,0.2-1.6,0.5-2.2
						c0.3-0.6,0.8-1,1.4-1.3c0.6-0.3,1.2-0.6,1.9-0.7c0.7-0.1,1.4-0.2,2.2-0.2s1.5,0.1,2.1,0.2s1.3,0.4,1.9,0.7
						c0.5,0.3,1,0.8,1.4,1.3c0.4,0.6,0.6,1.3,0.6,2.1h-3.6c-0.1-0.7-0.3-1.2-0.8-1.5c-0.5-0.3-1.1-0.4-1.7-0.4c-0.2,0-0.4,0-0.7,0
						c-0.2,0-0.5,0.1-0.7,0.2c-0.2,0.1-0.4,0.2-0.5,0.4s-0.2,0.4-0.2,0.7c0,0.3,0.1,0.6,0.4,0.8c0.2,0.2,0.6,0.4,1,0.5
						s0.8,0.3,1.4,0.4c0.5,0.1,1,0.2,1.6,0.3c0.5,0.1,1.1,0.3,1.6,0.4c0.5,0.2,1,0.4,1.4,0.7c0.4,0.3,0.7,0.6,1,1.1
						c0.2,0.4,0.4,1,0.4,1.6c0,0.9-0.2,1.6-0.5,2.3s-0.8,1.1-1.4,1.5c-0.6,0.4-1.2,0.6-2,0.8c-0.7,0.1-1.5,0.2-2.3,0.2
						c-0.8,0-1.6-0.1-2.3-0.2c-0.8-0.2-1.4-0.4-2-0.8c-0.6-0.4-1.1-0.9-1.4-1.5c-0.4-0.6-0.6-1.4-0.6-2.3H-106.6z M-95.3,99h3.7
						v18.8h-3.7V99z M-79.5,109.6c-0.2-0.9-0.5-1.7-0.9-2.2c-0.4-0.5-1.1-0.7-2-0.7c-0.6,0-1.1,0.1-1.5,0.3
						c-0.4,0.2-0.7,0.5-0.9,0.8c-0.2,0.3-0.4,0.6-0.5,0.9c-0.1,0.3-0.2,0.6-0.2,0.9H-79.5z M-85.5,111.9c0.1,1.2,0.4,2.1,0.9,2.6
						c0.6,0.5,1.4,0.8,2.4,0.8c0.8,0,1.4-0.2,1.9-0.6c0.5-0.4,0.9-0.8,1-1.2h3.3c-0.5,1.6-1.3,2.8-2.4,3.5c-1.1,0.7-2.4,1.1-3.9,1.1
						c-1.1,0-2-0.2-2.9-0.5c-0.9-0.3-1.6-0.8-2.2-1.5c-0.6-0.6-1.1-1.4-1.4-2.3s-0.5-1.8-0.5-2.9c0-1,0.2-2,0.5-2.8s0.8-1.6,1.4-2.3
						s1.3-1.1,2.2-1.5c0.9-0.4,1.8-0.6,2.8-0.6c1.2,0,2.2,0.2,3,0.7c0.9,0.4,1.6,1,2.1,1.8c0.6,0.8,1,1.6,1.2,2.6c0.2,1,0.3,2,0.3,3
						H-85.5z M-68.8,104.2h2.7v2.5h-2.7v6.7c0,0.6,0.1,1.1,0.3,1.3c0.2,0.2,0.6,0.3,1.3,0.3c0.2,0,0.4,0,0.6,0c0.2,0,0.4,0,0.6-0.1
						v2.9c-0.3,0.1-0.7,0.1-1.1,0.1c-0.4,0-0.8,0-1.1,0c-0.6,0-1.1,0-1.6-0.1c-0.5-0.1-1-0.2-1.4-0.5c-0.4-0.2-0.7-0.6-0.9-1
						c-0.2-0.4-0.3-1-0.3-1.7v-8h-2.3v-2.5h2.3v-4.1h3.7V104.2z M-59.5,104.2h2.7v2.5h-2.7v6.7c0,0.6,0.1,1.1,0.3,1.3
						c0.2,0.2,0.6,0.3,1.3,0.3c0.2,0,0.4,0,0.6,0c0.2,0,0.4,0,0.6-0.1v2.9c-0.3,0.1-0.7,0.1-1.1,0.1c-0.4,0-0.8,0-1.1,0
						c-0.6,0-1.1,0-1.6-0.1c-0.5-0.1-1-0.2-1.4-0.5c-0.4-0.2-0.7-0.6-0.9-1c-0.2-0.4-0.3-1-0.3-1.7v-8h-2.3v-2.5h2.3v-4.1h3.7V104.2
						z M-45.8,109.6c-0.2-0.9-0.5-1.7-0.9-2.2c-0.4-0.5-1.1-0.7-2-0.7c-0.6,0-1.1,0.1-1.5,0.3c-0.4,0.2-0.7,0.5-0.9,0.8
						c-0.2,0.3-0.4,0.6-0.5,0.9s-0.2,0.6-0.2,0.9H-45.8z M-51.9,111.9c0.1,1.2,0.4,2.1,0.9,2.6c0.6,0.5,1.4,0.8,2.4,0.8
						c0.8,0,1.4-0.2,1.9-0.6c0.5-0.4,0.9-0.8,1-1.2h3.3c-0.5,1.6-1.3,2.8-2.4,3.5c-1.1,0.7-2.4,1.1-3.9,1.1c-1.1,0-2-0.2-2.9-0.5
						c-0.9-0.3-1.6-0.8-2.2-1.5c-0.6-0.6-1.1-1.4-1.4-2.3s-0.5-1.8-0.5-2.9c0-1,0.2-2,0.5-2.8s0.8-1.6,1.4-2.3s1.3-1.1,2.2-1.5
						c0.9-0.4,1.8-0.6,2.8-0.6c1.2,0,2.2,0.2,3,0.7c0.9,0.4,1.6,1,2.1,1.8c0.6,0.8,1,1.6,1.2,2.6c0.2,1,0.3,2,0.3,3H-51.9z
						 M-39.9,104.2h3.6v2.5h0.1c0.2-0.4,0.4-0.8,0.7-1.2c0.3-0.4,0.6-0.7,1-0.9c0.4-0.3,0.8-0.5,1.2-0.6c0.4-0.1,0.9-0.2,1.4-0.2
						c0.2,0,0.5,0,0.8,0.1v3.5c-0.2,0-0.4-0.1-0.6-0.1c-0.2,0-0.5,0-0.7,0c-0.7,0-1.3,0.1-1.7,0.3c-0.5,0.2-0.9,0.5-1.1,0.9
						c-0.3,0.4-0.5,0.9-0.6,1.4c-0.1,0.5-0.2,1.1-0.2,1.7v6.1h-3.7V104.2z M-26.7,113.4c0,0.4,0.1,0.8,0.3,1
						c0.2,0.3,0.4,0.5,0.6,0.7c0.3,0.2,0.6,0.3,0.9,0.4c0.3,0.1,0.7,0.1,1.1,0.1c0.3,0,0.5,0,0.8-0.1s0.6-0.2,0.8-0.3
						s0.4-0.3,0.6-0.5c0.2-0.2,0.2-0.5,0.2-0.8c0-0.6-0.4-1-1.1-1.3c-0.7-0.3-1.8-0.6-3.1-0.8c-0.5-0.1-1.1-0.3-1.6-0.4
						c-0.5-0.2-1-0.4-1.4-0.7c-0.4-0.3-0.7-0.6-1-1c-0.2-0.4-0.4-0.9-0.4-1.5c0-0.9,0.2-1.6,0.5-2.2c0.3-0.6,0.8-1,1.4-1.3
						s1.2-0.6,1.9-0.7c0.7-0.1,1.4-0.2,2.2-0.2c0.7,0,1.5,0.1,2.1,0.2s1.3,0.4,1.9,0.7c0.5,0.3,1,0.8,1.4,1.3
						c0.4,0.6,0.6,1.3,0.6,2.1h-3.6c-0.1-0.7-0.3-1.2-0.8-1.5c-0.5-0.3-1.1-0.4-1.7-0.4c-0.2,0-0.4,0-0.7,0c-0.2,0-0.5,0.1-0.7,0.2
						c-0.2,0.1-0.4,0.2-0.5,0.4c-0.1,0.2-0.2,0.4-0.2,0.7c0,0.3,0.1,0.6,0.4,0.8c0.2,0.2,0.6,0.4,1,0.5c0.4,0.1,0.8,0.3,1.4,0.4
						c0.5,0.1,1,0.2,1.6,0.3c0.5,0.1,1.1,0.3,1.6,0.4c0.5,0.2,1,0.4,1.4,0.7s0.7,0.6,1,1.1c0.2,0.4,0.4,1,0.4,1.6
						c0,0.9-0.2,1.6-0.5,2.3s-0.8,1.1-1.4,1.5c-0.6,0.4-1.2,0.6-2,0.8c-0.7,0.1-1.5,0.2-2.3,0.2c-0.8,0-1.6-0.1-2.3-0.2
						c-0.8-0.2-1.4-0.4-2-0.8c-0.6-0.4-1.1-0.9-1.4-1.5s-0.6-1.4-0.6-2.3H-26.7z"/>
				</g>
				<g id="SIGN-UP-button" transform="translate(198.000000, 20.000000)">
					<g id="Rectangle">
						<g filter="url(#filter-4)">
							<polygon id="path-3_2_" points="-167,82 -42,82 -42,127 -167,127 							"/>
						</g>
						<g>
							<polygon id="path-3_1_" fill="#FF0000" points="-167,82 -42,82 -42,127 -167,127 							"/>
						</g>
					</g>
					<g enable-background="new    ">
						<path fill="#FFFFFF" d="M-135.2,111.3c-0.8,0-1.5-0.1-2.1-0.3c-0.7-0.2-1.2-0.4-1.7-0.7l-0.6,0.6h-0.7l-0.1-4.5h0.8
							c0.2,0.4,0.4,0.9,0.7,1.4s0.6,0.9,0.9,1.3c0.4,0.4,0.8,0.7,1.2,1c0.4,0.2,1,0.4,1.6,0.4c0.8,0,1.4-0.2,1.8-0.6
							c0.4-0.4,0.6-0.9,0.6-1.5c0-0.5-0.2-0.9-0.5-1.2c-0.4-0.3-0.9-0.6-1.7-0.9c-0.5-0.2-0.9-0.3-1.4-0.4c-0.4-0.1-0.8-0.3-1.2-0.4
							c-0.8-0.3-1.5-0.8-1.9-1.4c-0.4-0.6-0.6-1.3-0.6-2.1c0-0.5,0.1-1,0.3-1.4c0.2-0.4,0.5-0.9,0.9-1.2c0.4-0.3,0.9-0.6,1.5-0.8
							c0.6-0.2,1.3-0.3,2-0.3c0.7,0,1.3,0.1,1.9,0.3s1.1,0.4,1.4,0.6l0.5-0.5h0.8l0.1,4.3h-0.8c-0.2-0.5-0.4-0.9-0.6-1.4
							c-0.2-0.5-0.5-0.9-0.8-1.2c-0.3-0.3-0.6-0.6-1-0.8c-0.4-0.2-0.8-0.3-1.3-0.3c-0.6,0-1.1,0.2-1.6,0.5c-0.4,0.4-0.6,0.8-0.6,1.3
							c0,0.5,0.2,0.9,0.5,1.2c0.3,0.3,0.9,0.6,1.6,0.8c0.4,0.1,0.9,0.3,1.3,0.4s0.9,0.3,1.2,0.4c0.8,0.3,1.5,0.8,1.9,1.4
							c0.4,0.6,0.7,1.3,0.7,2.2c0,0.5-0.1,1.1-0.4,1.6c-0.3,0.5-0.6,0.9-1,1.3c-0.5,0.4-1,0.7-1.6,0.9
							C-133.6,111.2-134.3,111.3-135.2,111.3z"/>
						<path fill="#FFFFFF" d="M-123.3,111h-5.6v-0.6c0.2,0,0.3,0,0.4,0s0.3,0,0.4-0.1c0.2-0.1,0.3-0.2,0.4-0.3
							c0.1-0.1,0.1-0.3,0.1-0.5v-5.1c0-0.2,0-0.4-0.1-0.5c-0.1-0.2-0.2-0.3-0.4-0.4c-0.1-0.1-0.3-0.1-0.5-0.2
							c-0.2-0.1-0.4-0.1-0.6-0.1v-0.6l4.3-0.2l0.1,0.1v7c0,0.2,0,0.4,0.1,0.5c0.1,0.1,0.2,0.3,0.4,0.3c0.1,0.1,0.2,0.1,0.4,0.1
							s0.3,0.1,0.4,0.1V111z M-124.5,99c0,0.4-0.2,0.8-0.5,1.1c-0.3,0.3-0.7,0.5-1.2,0.5c-0.5,0-0.9-0.2-1.2-0.5
							c-0.3-0.3-0.5-0.7-0.5-1.1s0.2-0.8,0.5-1.1c0.3-0.3,0.8-0.5,1.2-0.5s0.9,0.2,1.2,0.5S-124.5,98.6-124.5,99z"/>
						<path fill="#FFFFFF" d="M-112.6,103.3h-1.9c0.2,0.3,0.4,0.5,0.5,0.8c0.1,0.3,0.2,0.6,0.2,0.9c0,0.4-0.1,0.8-0.3,1.1
							s-0.5,0.6-0.9,0.9c-0.4,0.2-0.8,0.4-1.3,0.5s-1,0.2-1.6,0.2h-1.4c-0.1,0.1-0.1,0.1-0.2,0.3c-0.1,0.1-0.1,0.2-0.1,0.3
							c0,0.3,0.1,0.4,0.3,0.5s0.6,0.2,1.1,0.2c0.5,0,1.1,0,1.6,0.1s0.9,0.1,1.2,0.1c0.3,0,0.7,0.1,1,0.2s0.6,0.3,0.9,0.5
							c0.3,0.2,0.5,0.5,0.7,0.8c0.2,0.3,0.3,0.7,0.3,1.1c0,0.4-0.1,0.9-0.3,1.3c-0.2,0.4-0.5,0.7-1,1c-0.5,0.3-1,0.5-1.7,0.7
							c-0.6,0.2-1.4,0.2-2.4,0.2c-1.5,0-2.7-0.2-3.5-0.6s-1.2-0.9-1.2-1.7c0-0.5,0.2-0.8,0.6-1.1c0.4-0.3,1.1-0.5,2-0.5v-0.1
							c-0.5-0.2-1-0.4-1.3-0.7c-0.3-0.3-0.5-0.7-0.5-1.1c0-0.2,0.1-0.5,0.2-0.6c0.1-0.2,0.3-0.3,0.5-0.4c0.2-0.1,0.4-0.2,0.6-0.3
							c0.2-0.1,0.4-0.1,0.6-0.2v-0.1c-0.8-0.3-1.4-0.7-1.7-1.1c-0.4-0.4-0.6-0.9-0.6-1.5c0-0.9,0.4-1.5,1.2-2.1
							c0.8-0.5,1.8-0.8,3-0.8c0.4,0,0.8,0,1.2,0.1c0.4,0.1,0.7,0.1,0.8,0.2h3.4V103.3z M-115.3,112.3c0-0.2-0.1-0.4-0.2-0.6
							c-0.1-0.2-0.4-0.4-0.7-0.5c-0.2,0-0.6-0.1-1-0.1s-1.1,0-2,0c-0.2,0.2-0.4,0.4-0.5,0.6s-0.2,0.5-0.2,0.9c0,0.1,0,0.3,0.1,0.5
							c0.1,0.2,0.2,0.3,0.4,0.5c0.2,0.2,0.4,0.3,0.7,0.4c0.3,0.1,0.6,0.1,1.1,0.1c0.8,0,1.3-0.1,1.7-0.4
							C-115.5,113.4-115.3,113-115.3,112.3z M-116.7,104.9c0-0.7-0.1-1.2-0.3-1.6c-0.2-0.4-0.6-0.6-1-0.6c-0.2,0-0.4,0.1-0.6,0.2
							c-0.2,0.1-0.3,0.3-0.4,0.5c-0.1,0.2-0.2,0.4-0.2,0.7c0,0.3-0.1,0.5-0.1,0.8c0,0.6,0.1,1.2,0.3,1.6s0.5,0.6,1,0.6
							c0.4,0,0.7-0.2,1-0.6S-116.7,105.6-116.7,104.9z"/>
						<path fill="#FFFFFF" d="M-100.5,111h-5.3v-0.6c0.1,0,0.2,0,0.4,0s0.3,0,0.4-0.1c0.1-0.1,0.2-0.2,0.3-0.3s0.1-0.3,0.1-0.5v-4.1
							c0-0.6-0.1-1-0.3-1.3c-0.2-0.3-0.5-0.5-1-0.5c-0.2,0-0.5,0-0.7,0.1s-0.4,0.2-0.6,0.3c-0.2,0.1-0.3,0.2-0.4,0.4
							c-0.1,0.1-0.2,0.2-0.3,0.3v4.7c0,0.2,0,0.4,0.1,0.5s0.2,0.2,0.3,0.3c0.1,0.1,0.2,0.1,0.4,0.1s0.3,0.1,0.4,0.1v0.6h-5.3v-0.6
							c0.1,0,0.3,0,0.4,0c0.2,0,0.3,0,0.4-0.1c0.2-0.1,0.3-0.2,0.4-0.3s0.1-0.3,0.1-0.5v-5.1c0-0.2,0-0.4-0.1-0.5s-0.2-0.3-0.4-0.4
							c-0.1-0.1-0.2-0.1-0.4-0.2c-0.2,0-0.3-0.1-0.5-0.1v-0.6l4.2-0.2l0.1,0.1v1.3h0c0.2-0.1,0.4-0.3,0.6-0.5s0.5-0.4,0.7-0.5
							c0.2-0.1,0.5-0.3,0.9-0.4s0.7-0.1,1.1-0.1c1,0,1.7,0.3,2.1,0.8c0.5,0.5,0.7,1.3,0.7,2.2v4.3c0,0.2,0,0.4,0.1,0.5
							s0.2,0.2,0.4,0.3c0.1,0,0.2,0.1,0.3,0.1c0.1,0,0.3,0.1,0.5,0.1V111z"/>
						<path fill="#FFFFFF" d="M-80.6,99.2c-0.2,0-0.4,0.1-0.7,0.1c-0.3,0.1-0.6,0.2-0.8,0.3c-0.2,0.1-0.4,0.4-0.5,0.8
							c-0.1,0.4-0.1,1-0.1,1.7v4.6c0,1.4-0.5,2.5-1.4,3.3s-2.2,1.2-3.7,1.2c-1.8,0-3.1-0.4-4.1-1.2s-1.5-1.9-1.5-3.4v-6.4
							c0-0.2,0-0.4-0.1-0.5c-0.1-0.1-0.2-0.3-0.5-0.4c-0.2-0.1-0.3-0.1-0.6-0.2s-0.4-0.1-0.5-0.1v-0.7h6.5v0.7c-0.2,0-0.4,0-0.6,0.1
							c-0.2,0-0.4,0.1-0.6,0.1c-0.2,0.1-0.4,0.2-0.4,0.4s-0.1,0.3-0.1,0.6v6.3c0,1.2,0.3,2.1,0.8,2.7c0.5,0.6,1.3,0.8,2.4,0.8
							c1,0,1.8-0.3,2.4-0.9c0.6-0.6,0.9-1.5,0.9-2.7v-4.2c0-0.8-0.1-1.3-0.2-1.7c-0.1-0.4-0.3-0.6-0.5-0.8c-0.2-0.1-0.4-0.2-0.8-0.4
							c-0.4-0.1-0.6-0.2-0.8-0.2v-0.7h5.4V99.2z"/>
						<path fill="#FFFFFF" d="M-69.4,106.7c0,1.2-0.4,2.3-1.2,3.2c-0.8,0.9-1.9,1.3-3.1,1.3c-0.6,0-1-0.1-1.4-0.2
							c-0.4-0.1-0.6-0.3-0.9-0.4H-76v2.5c0,0.2,0,0.4,0.1,0.5c0.1,0.2,0.2,0.3,0.4,0.3c0.2,0.1,0.4,0.1,0.7,0.2
							c0.3,0.1,0.5,0.1,0.7,0.1v0.7h-6.4v-0.7c0.1,0,0.3,0,0.6-0.1s0.4-0.1,0.5-0.1c0.2-0.1,0.3-0.2,0.4-0.3
							c0.1-0.2,0.1-0.3,0.1-0.5v-9c0-0.2-0.1-0.4-0.1-0.5c-0.1-0.1-0.2-0.3-0.3-0.4c-0.1-0.1-0.3-0.1-0.5-0.2
							c-0.2,0-0.4-0.1-0.6-0.1v-0.6l4.3-0.2l0.1,0.1v1l0.1,0c0.4-0.4,0.8-0.7,1.3-0.9c0.5-0.2,0.9-0.3,1.4-0.3
							c1.2,0,2.2,0.4,2.9,1.3C-69.7,104.2-69.4,105.3-69.4,106.7z M-72.5,106.8c0-0.4,0-0.9-0.1-1.3s-0.2-0.8-0.3-1.1
							c-0.2-0.3-0.4-0.6-0.6-0.8s-0.6-0.3-1-0.3c-0.4,0-0.7,0.1-0.9,0.2c-0.2,0.1-0.4,0.3-0.6,0.5v5c0,0.1,0.1,0.3,0.2,0.5
							c0.1,0.2,0.2,0.3,0.3,0.4c0.1,0.2,0.3,0.3,0.5,0.4c0.2,0.1,0.4,0.1,0.6,0.1c0.6,0,1-0.3,1.4-0.9
							C-72.7,108.9-72.5,108-72.5,106.8z"/>
					</g>
				</g>
			</g>
		</g>
	</g>
</g>
</svg>
