<?xml version="1.0" encoding="utf-8"?>
<!-- Generator: Adobe Illustrator 18.1.1, SVG Export Plug-In . SVG Version: 6.00 Build 0)  -->
<svg version="1.1" id="Layer_1" xmlns="http://www.w3.org/2000/svg" xmlns:xlink="http://www.w3.org/1999/xlink" x="0px" y="0px"
	 viewBox="221 82 340 90" enable-background="new 221 82 340 90" xml:space="preserve">
<filter  width="108.7%" height="123.3%" y="-8.3%" id="filter-2" x="-4.3%" filterUnits="objectBoundingBox">
	<feOffset  result="shadowOffsetOuter1" dy="2" dx="0" in="SourceAlpha"></feOffset>
	<feGaussianBlur  stdDeviation="2" result="shadowBlurOuter1" in="shadowOffsetOuter1"></feGaussianBlur>
	<feColorMatrix  type="matrix" values="0 0 0 0 0   0 0 0 0 0   0 0 0 0 0  0 0 0 0.272180944 0" in="shadowBlurOuter1">
		</feColorMatrix>
</filter>
<title>728x90 -DONATE</title>
<desc>Created with Sketch.</desc>
<g id="Page-1">
	<g id="Direction-_x23_1-grey-Revisions-outlines" transform="translate(-627.000000, -1528.000000)">
		<g id="_x37_28x90--DONATE" transform="translate(627.000000, 1528.000000)">
			<g id="newsletter-ad" transform="translate(388.000000, 0.000000)">
				<rect id="_x33_40x90-back" x="-167" y="82" fill="#4D4D4D" width="340" height="90"/>
				<g id="titlearea-copy" transform="translate(20.000000, 18.000000)">
					<path id="Support" fill="#FFFFFF" d="M-161.3,98.3c0,0.8,0.1,1.4,0.4,2c0.3,0.5,0.6,1,1.1,1.3s1,0.6,1.6,0.7
						c0.6,0.2,1.3,0.2,1.9,0.2c0.4,0,0.9,0,1.4-0.1c0.5-0.1,1-0.2,1.4-0.4s0.8-0.5,1.1-0.9c0.3-0.4,0.4-0.9,0.4-1.4
						c0-0.6-0.2-1.1-0.6-1.5c-0.4-0.4-0.9-0.7-1.6-1c-0.6-0.3-1.4-0.5-2.2-0.7c-0.8-0.2-1.6-0.4-2.5-0.6c-0.9-0.2-1.7-0.5-2.5-0.8
						c-0.8-0.3-1.5-0.7-2.2-1.2c-0.6-0.5-1.2-1.1-1.6-1.8s-0.6-1.6-0.6-2.7c0-1.2,0.3-2.2,0.8-3.1c0.5-0.9,1.2-1.6,2-2.2
						c0.8-0.6,1.7-1,2.8-1.3c1-0.3,2.1-0.4,3.1-0.4c1.2,0,2.4,0.1,3.5,0.4c1.1,0.3,2.1,0.7,2.9,1.3s1.5,1.4,2,2.3
						c0.5,0.9,0.8,2.1,0.8,3.4h-4.9c0-0.7-0.2-1.3-0.4-1.7c-0.2-0.4-0.6-0.8-1-1.1c-0.4-0.3-0.9-0.4-1.4-0.5
						c-0.5-0.1-1.1-0.2-1.7-0.2c-0.4,0-0.8,0-1.2,0.1c-0.4,0.1-0.8,0.2-1.1,0.4s-0.6,0.5-0.8,0.8c-0.2,0.3-0.3,0.7-0.3,1.2
						c0,0.4,0.1,0.8,0.3,1.1c0.2,0.3,0.5,0.5,1,0.8c0.5,0.2,1.2,0.5,2.1,0.7c0.9,0.2,2.1,0.5,3.5,0.9c0.4,0.1,1,0.2,1.8,0.5
						s1.5,0.6,2.3,1.1c0.7,0.5,1.4,1.2,1.9,2c0.5,0.8,0.8,1.9,0.8,3.2c0,1-0.2,2-0.6,2.9c-0.4,0.9-1,1.7-1.8,2.3
						c-0.8,0.7-1.8,1.2-3,1.5s-2.6,0.5-4.1,0.5c-1.3,0-2.5-0.2-3.7-0.5s-2.2-0.8-3.1-1.5c-0.9-0.7-1.6-1.5-2.2-2.5s-0.8-2.2-0.8-3.7
						H-161.3z M-128.8,105.9h-4.3v-2.3h-0.1c-0.6,1-1.3,1.7-2.2,2.1s-1.9,0.6-2.8,0.6c-1.2,0-2.2-0.2-3-0.5
						c-0.8-0.3-1.4-0.8-1.8-1.4c-0.4-0.6-0.8-1.3-0.9-2.2c-0.2-0.8-0.3-1.8-0.3-2.8V89.3h4.6v9.4c0,1.4,0.2,2.4,0.6,3.1s1.2,1,2.3,1
						c1.2,0,2.1-0.4,2.7-1.1s0.8-2,0.8-3.6v-8.7h4.6V105.9z M-117,102.9c0.7,0,1.4-0.1,1.9-0.4c0.5-0.3,0.9-0.7,1.2-1.2
						c0.3-0.5,0.5-1,0.7-1.7c0.1-0.6,0.2-1.3,0.2-2s-0.1-1.3-0.2-2c-0.1-0.6-0.4-1.2-0.7-1.7c-0.3-0.5-0.7-0.9-1.2-1.2
						c-0.5-0.3-1.1-0.5-1.8-0.5c-0.7,0-1.4,0.2-1.9,0.5s-0.9,0.7-1.2,1.2c-0.3,0.5-0.5,1.1-0.7,1.7s-0.2,1.3-0.2,2
						c0,0.7,0.1,1.3,0.2,2s0.4,1.2,0.7,1.7c0.3,0.5,0.7,0.9,1.2,1.2C-118.3,102.8-117.7,102.9-117,102.9z M-125.4,89.3h4.3v2.1h0.1
						c0.6-0.9,1.3-1.6,2.1-2c0.9-0.4,1.8-0.6,2.8-0.6c1.3,0,2.4,0.2,3.4,0.7s1.7,1.1,2.3,2c0.6,0.8,1.1,1.8,1.4,2.8
						c0.3,1.1,0.4,2.2,0.4,3.4c0,1.1-0.1,2.2-0.4,3.2c-0.3,1-0.8,1.9-1.4,2.7c-0.6,0.8-1.4,1.4-2.3,1.9c-0.9,0.5-2,0.7-3.2,0.7
						c-1,0-2-0.2-2.8-0.6s-1.6-1-2.1-1.8h-0.1v7.9h-4.6V89.3z M-97.4,102.9c0.7,0,1.4-0.1,1.9-0.4c0.5-0.3,0.9-0.7,1.2-1.2
						c0.3-0.5,0.5-1,0.7-1.7c0.1-0.6,0.2-1.3,0.2-2s-0.1-1.3-0.2-2c-0.1-0.6-0.4-1.2-0.7-1.7c-0.3-0.5-0.7-0.9-1.2-1.2
						c-0.5-0.3-1.1-0.5-1.8-0.5c-0.7,0-1.4,0.2-1.9,0.5c-0.5,0.3-0.9,0.7-1.2,1.2c-0.3,0.5-0.5,1.1-0.7,1.7s-0.2,1.3-0.2,2
						c0,0.7,0.1,1.3,0.2,2c0.1,0.6,0.4,1.2,0.7,1.7c0.3,0.5,0.7,0.9,1.2,1.2C-98.7,102.8-98.1,102.9-97.4,102.9z M-105.7,89.3h4.3
						v2.1h0.1c0.6-0.9,1.3-1.6,2.1-2c0.9-0.4,1.8-0.6,2.8-0.6c1.3,0,2.4,0.2,3.4,0.7s1.7,1.1,2.3,2c0.6,0.8,1.1,1.8,1.4,2.8
						c0.3,1.1,0.4,2.2,0.4,3.4c0,1.1-0.1,2.2-0.4,3.2c-0.3,1-0.8,1.9-1.4,2.7s-1.4,1.4-2.3,1.9s-2,0.7-3.2,0.7c-1,0-2-0.2-2.8-0.6
						c-0.9-0.4-1.6-1-2.1-1.8h-0.1v7.9h-4.6V89.3z M-82.1,97.6c0,0.7,0.1,1.3,0.2,1.9c0.1,0.6,0.3,1.2,0.7,1.7
						c0.3,0.5,0.7,0.9,1.2,1.2c0.5,0.3,1.2,0.4,1.9,0.4c0.8,0,1.4-0.1,1.9-0.4c0.5-0.3,0.9-0.7,1.3-1.2c0.3-0.5,0.5-1.1,0.7-1.7
						c0.1-0.6,0.2-1.3,0.2-1.9s-0.1-1.3-0.2-2c-0.1-0.6-0.3-1.2-0.7-1.7c-0.3-0.5-0.7-0.9-1.3-1.2c-0.5-0.3-1.2-0.5-1.9-0.5
						c-0.8,0-1.4,0.2-1.9,0.5c-0.5,0.3-0.9,0.7-1.2,1.2s-0.5,1.1-0.7,1.7C-82,96.3-82.1,97-82.1,97.6z M-86.6,97.6
						c0-1.3,0.2-2.5,0.6-3.6c0.4-1.1,1-2,1.7-2.8s1.6-1.3,2.7-1.8c1-0.4,2.2-0.6,3.5-0.6c1.3,0,2.5,0.2,3.5,0.6c1.1,0.4,2,1,2.7,1.8
						c0.7,0.8,1.3,1.7,1.7,2.8c0.4,1.1,0.6,2.3,0.6,3.6c0,1.3-0.2,2.5-0.6,3.6c-0.4,1.1-1,2-1.7,2.7c-0.7,0.8-1.7,1.3-2.7,1.8
						c-1.1,0.4-2.2,0.6-3.5,0.6c-1.3,0-2.5-0.2-3.5-0.6c-1-0.4-1.9-1-2.7-1.8s-1.3-1.7-1.7-2.7C-86.4,100.2-86.6,99-86.6,97.6z
						 M-66.5,89.3h4.3v3.1h0.1c0.2-0.5,0.5-1,0.9-1.4c0.4-0.4,0.8-0.8,1.3-1.1c0.5-0.3,1-0.6,1.5-0.7c0.5-0.2,1.1-0.3,1.7-0.3
						c0.3,0,0.6,0.1,1,0.2v4.2c-0.2,0-0.5-0.1-0.8-0.1s-0.6,0-0.9,0c-0.8,0-1.5,0.1-2.1,0.4c-0.6,0.3-1,0.7-1.4,1.1
						c-0.4,0.5-0.6,1-0.8,1.7c-0.1,0.6-0.2,1.3-0.2,2.1v7.5h-4.6V89.3z M-48.2,89.3h3.3v3.1h-3.3v8.2c0,0.8,0.1,1.3,0.4,1.5
						c0.3,0.3,0.8,0.4,1.5,0.4c0.3,0,0.5,0,0.7,0c0.2,0,0.5-0.1,0.7-0.1v3.5c-0.4,0.1-0.8,0.1-1.3,0.1c-0.5,0-0.9,0-1.4,0
						c-0.7,0-1.4,0-2-0.1c-0.6-0.1-1.2-0.3-1.7-0.6c-0.5-0.3-0.9-0.7-1.1-1.2c-0.3-0.5-0.4-1.2-0.4-2v-9.8h-2.8v-3.1h2.8v-5h4.6
						V89.3z"/>
					<path id="CityLimits" fill="#FFFFFF" d="M-133,122.4c-0.1-0.4-0.2-0.7-0.4-1s-0.4-0.6-0.7-0.8c-0.3-0.2-0.6-0.4-1-0.5
						c-0.4-0.1-0.7-0.2-1.1-0.2c-0.7,0-1.3,0.1-1.8,0.4s-0.9,0.6-1.2,1.1c-0.3,0.5-0.5,1-0.7,1.6c-0.1,0.6-0.2,1.2-0.2,1.8
						c0,0.6,0.1,1.2,0.2,1.8c0.1,0.6,0.4,1.1,0.7,1.5c0.3,0.5,0.7,0.8,1.2,1.1s1.1,0.4,1.8,0.4c1,0,1.7-0.3,2.3-0.9
						c0.5-0.6,0.9-1.4,1-2.3h3.1c-0.1,0.9-0.3,1.7-0.6,2.4c-0.3,0.7-0.8,1.3-1.3,1.9c-0.5,0.5-1.2,0.9-1.9,1.2s-1.5,0.4-2.4,0.4
						c-1.1,0-2.1-0.2-3-0.6c-0.9-0.4-1.6-0.9-2.2-1.6c-0.6-0.7-1.1-1.5-1.4-2.4c-0.3-0.9-0.5-1.9-0.5-2.9c0-1.1,0.2-2.1,0.5-3
						c0.3-0.9,0.8-1.7,1.4-2.4c0.6-0.7,1.3-1.2,2.2-1.6c0.9-0.4,1.9-0.6,3-0.6c0.8,0,1.5,0.1,2.2,0.3c0.7,0.2,1.3,0.6,1.9,1
						c0.6,0.4,1,1,1.4,1.6c0.4,0.6,0.6,1.4,0.7,2.2H-133z M-125.1,119.9h-2.9v-2.4h2.9V119.9z M-127.9,121.5h2.9v10.4h-2.9V121.5z
						 M-119.2,121.5h2.1v1.9h-2.1v5.2c0,0.5,0.1,0.8,0.2,1c0.2,0.2,0.5,0.2,1,0.2c0.2,0,0.3,0,0.5,0c0.1,0,0.3,0,0.4-0.1v2.2
						c-0.2,0-0.5,0.1-0.8,0.1c-0.3,0-0.6,0-0.9,0c-0.4,0-0.9,0-1.3-0.1c-0.4-0.1-0.7-0.2-1-0.4c-0.3-0.2-0.5-0.4-0.7-0.7
						c-0.2-0.3-0.3-0.7-0.3-1.3v-6.1h-1.7v-1.9h1.7v-3.1h2.9V121.5z M-110.6,133.2c-0.3,0.8-0.7,1.4-1.3,1.8s-1.3,0.5-2.3,0.5
						c-0.3,0-0.6,0-0.9,0s-0.6,0-0.9-0.1v-2.4c0.3,0,0.5,0.1,0.8,0.1s0.6,0,0.8,0c0.4,0,0.7-0.2,0.8-0.4c0.2-0.3,0.3-0.5,0.3-0.8
						c0-0.2,0-0.4-0.1-0.6l-3.6-9.8h3l2.4,7.1h0l2.3-7.1h3L-110.6,133.2z M-99.4,117.6h3.2v11.7h7v2.7h-10.2V117.6z M-84.8,119.9
						h-2.9v-2.4h2.9V119.9z M-87.7,121.5h2.9v10.4h-2.9V121.5z M-82.5,121.5h2.7v1.4h0c0.4-0.5,0.8-1,1.4-1.2
						c0.5-0.3,1.1-0.4,1.8-0.4c0.7,0,1.3,0.1,1.8,0.4s1,0.7,1.2,1.3c0.3-0.5,0.7-0.9,1.3-1.2c0.5-0.3,1.2-0.5,1.9-0.5
						c0.5,0,1.1,0.1,1.5,0.2c0.5,0.1,0.9,0.3,1.2,0.6s0.6,0.7,0.8,1.2c0.2,0.5,0.3,1,0.3,1.7v7h-2.9V126c0-0.3,0-0.7,0-1
						c0-0.3-0.1-0.6-0.2-0.8s-0.3-0.4-0.5-0.5c-0.2-0.1-0.6-0.2-1-0.2c-0.4,0-0.7,0.1-1,0.2c-0.2,0.2-0.4,0.4-0.6,0.6
						c-0.1,0.2-0.2,0.5-0.3,0.8c0,0.3-0.1,0.6-0.1,1v5.8H-76v-5.8c0-0.3,0-0.6,0-0.9s-0.1-0.6-0.2-0.8s-0.3-0.5-0.5-0.6
						s-0.6-0.2-1-0.2c-0.1,0-0.3,0-0.5,0.1s-0.4,0.2-0.6,0.3c-0.2,0.2-0.4,0.4-0.5,0.7c-0.1,0.3-0.2,0.7-0.2,1.2v6h-2.9V121.5z
						 M-61.4,119.9h-2.9v-2.4h2.9V119.9z M-64.3,121.5h2.9v10.4h-2.9V121.5z M-55.5,121.5h2.1v1.9h-2.1v5.2c0,0.5,0.1,0.8,0.2,1
						c0.2,0.2,0.5,0.2,1,0.2c0.2,0,0.3,0,0.5,0c0.1,0,0.3,0,0.4-0.1v2.2c-0.2,0-0.5,0.1-0.8,0.1c-0.3,0-0.6,0-0.9,0
						c-0.4,0-0.9,0-1.3-0.1c-0.4-0.1-0.7-0.2-1-0.4c-0.3-0.2-0.5-0.4-0.7-0.7c-0.2-0.3-0.3-0.7-0.3-1.3v-6.1h-1.7v-1.9h1.7v-3.1h2.9
						V121.5z M-49.9,128.5c0,0.3,0.1,0.6,0.2,0.8s0.3,0.4,0.5,0.5s0.4,0.2,0.7,0.3s0.5,0.1,0.8,0.1c0.2,0,0.4,0,0.6-0.1
						s0.4-0.1,0.6-0.2c0.2-0.1,0.3-0.2,0.5-0.4c0.1-0.2,0.2-0.4,0.2-0.6c0-0.4-0.3-0.8-0.9-1c-0.6-0.2-1.4-0.4-2.4-0.6
						c-0.4-0.1-0.8-0.2-1.2-0.3c-0.4-0.1-0.7-0.3-1.1-0.5c-0.3-0.2-0.6-0.5-0.7-0.8c-0.2-0.3-0.3-0.7-0.3-1.2c0-0.7,0.1-1.2,0.4-1.6
						s0.6-0.8,1-1s0.9-0.4,1.4-0.5c0.5-0.1,1.1-0.2,1.6-0.2s1.1,0.1,1.6,0.2c0.5,0.1,1,0.3,1.4,0.5c0.4,0.3,0.8,0.6,1,1
						c0.3,0.4,0.4,1,0.5,1.6h-2.7c0-0.5-0.2-0.9-0.6-1.1c-0.4-0.2-0.8-0.3-1.3-0.3c-0.2,0-0.3,0-0.5,0c-0.2,0-0.4,0.1-0.5,0.1
						c-0.2,0.1-0.3,0.2-0.4,0.3s-0.2,0.3-0.2,0.5c0,0.3,0.1,0.5,0.3,0.6c0.2,0.2,0.4,0.3,0.7,0.4s0.6,0.2,1,0.3
						c0.4,0.1,0.8,0.2,1.2,0.3c0.4,0.1,0.8,0.2,1.2,0.3c0.4,0.1,0.7,0.3,1.1,0.5c0.3,0.2,0.6,0.5,0.7,0.8c0.2,0.3,0.3,0.7,0.3,1.2
						c0,0.7-0.1,1.3-0.4,1.7c-0.3,0.5-0.6,0.8-1.1,1.1c-0.4,0.3-0.9,0.5-1.5,0.6c-0.6,0.1-1.2,0.2-1.7,0.2c-0.6,0-1.2-0.1-1.8-0.2
						c-0.6-0.1-1.1-0.3-1.5-0.6s-0.8-0.7-1.1-1.1c-0.3-0.5-0.4-1-0.5-1.7H-49.9z"/>
				</g>
				<g id="SIGN-UP-button" transform="translate(165.000000, 15.000000)">
					<g id="Rectangle">
						<g filter="url(#filter-2)">
							<polygon id="path-1_2_" points="-167,82 -6,82 -6,142 -167,142 							"/>
						</g>
						<g>
							<polygon id="path-1_1_" fill="#FF0000" points="-167,82 -6,82 -6,142 -167,142 							"/>
						</g>
					</g>
					<path id="Path" fill="#FFFFFF" d="M-133.5,101.5c9.8-8.1,23.7,5.3,6.1,18.8l-6.1,4.7l-6.1-4.7
						C-157.2,106.8-143.3,93.3-133.5,101.5z"/>
					<path id="DONATE" fill="#FFFFFF" d="M-97.2,107.8c0.8,0.5,1.4,1.2,1.8,2s0.7,1.8,0.7,3c0,1.1-0.2,2-0.6,2.8s-1,1.4-1.7,1.9
						c-0.7,0.5-1.5,0.9-2.4,1.1s-1.8,0.4-2.8,0.4h-6.3v-0.7c0.2,0,0.4,0,0.7-0.1s0.5-0.1,0.6-0.1c0.2-0.1,0.4-0.2,0.4-0.4
						s0.1-0.3,0.1-0.5v-8.8c0-0.2,0-0.4-0.1-0.5s-0.2-0.3-0.4-0.4s-0.5-0.2-0.7-0.2s-0.4-0.1-0.6-0.1v-0.7h6.6
						c0.7,0,1.5,0.1,2.3,0.3S-97.9,107.3-97.2,107.8z M-99,116.8c0.3-0.5,0.5-1,0.6-1.7s0.2-1.4,0.2-2.2c0-0.8-0.1-1.6-0.3-2.3
						s-0.4-1.3-0.8-1.7s-0.8-0.9-1.3-1.1s-1.1-0.4-1.7-0.4c-0.2,0-0.4,0-0.7,0s-0.5,0-0.6,0v9.5c0,0.2,0,0.4,0.1,0.6
						s0.2,0.3,0.3,0.4s0.3,0.2,0.5,0.3s0.5,0.1,0.8,0.1c0.7,0,1.2-0.1,1.7-0.4S-99.2,117.2-99,116.8z M-81.9,107.9
						c0.6,0.6,1.1,1.2,1.5,2s0.5,1.7,0.5,2.7c0,0.9-0.2,1.8-0.5,2.6s-0.7,1.5-1.3,2.1c-0.6,0.6-1.3,1.1-2.1,1.4s-1.8,0.5-2.9,0.5
						c-0.9,0-1.8-0.1-2.6-0.4s-1.5-0.7-2.1-1.3c-0.6-0.6-1.1-1.2-1.5-2s-0.5-1.7-0.5-2.7c0-1,0.2-1.9,0.5-2.8s0.8-1.5,1.4-2.1
						c0.6-0.6,1.3-1,2.1-1.3s1.7-0.5,2.6-0.5c0.9,0,1.8,0.2,2.6,0.5S-82.5,107.4-81.9,107.9z M-84.1,116.8c0.3-0.5,0.5-1.1,0.6-1.8
						s0.2-1.4,0.2-2.3c0-0.7-0.1-1.4-0.2-2.1s-0.3-1.3-0.5-1.8c-0.3-0.5-0.6-1-1-1.3s-0.9-0.5-1.6-0.5c-1.1,0-1.9,0.5-2.4,1.5
						s-0.8,2.4-0.8,4.3c0,0.8,0.1,1.5,0.2,2.2s0.3,1.3,0.6,1.8c0.3,0.5,0.6,0.9,1,1.2s0.9,0.4,1.5,0.4c0.6,0,1.1-0.1,1.5-0.4
						S-84.4,117.3-84.1,116.8z M-64.3,107.2c-0.2,0-0.4,0-0.7,0.1s-0.6,0.2-0.8,0.3c-0.2,0.2-0.4,0.4-0.5,0.8s-0.1,0.9-0.1,1.7v8.9
						H-68l-7.8-9.6v5.9c0,0.7,0,1.3,0.1,1.7s0.3,0.7,0.5,0.8c0.2,0.1,0.4,0.2,0.8,0.3s0.6,0.2,0.8,0.2v0.7h-5.4v-0.7
						c0.2,0,0.5-0.1,0.8-0.1s0.5-0.2,0.7-0.3c0.2-0.2,0.4-0.4,0.5-0.8s0.1-0.9,0.1-1.7v-5.9c0-0.3,0-0.6-0.1-0.8s-0.2-0.5-0.4-0.7
						c-0.2-0.2-0.4-0.4-0.7-0.5s-0.6-0.2-0.9-0.3v-0.7h4.7l6.8,8.4v-4.7c0-0.8,0-1.3-0.1-1.7s-0.3-0.6-0.5-0.8
						c-0.2-0.1-0.4-0.3-0.8-0.3s-0.6-0.2-0.8-0.2v-0.7h5.4V107.2z M-50,119h-6.8v-0.7c0.3,0,0.7-0.1,1.1-0.2s0.6-0.2,0.6-0.3
						c0,0,0-0.1,0-0.2s0-0.1-0.1-0.2l-1.1-2.6h-4.3c-0.1,0.2-0.2,0.5-0.3,0.8s-0.2,0.6-0.3,0.9c-0.1,0.3-0.2,0.6-0.2,0.7
						s0,0.2,0,0.3c0,0.2,0.1,0.3,0.4,0.5s0.8,0.2,1.4,0.3v0.7h-5.1v-0.7c0.2,0,0.4,0,0.7-0.1s0.4-0.1,0.6-0.2
						c0.2-0.1,0.4-0.3,0.6-0.5s0.3-0.4,0.4-0.7c0.7-1.6,1.4-3.3,2-4.9s1.4-3.5,2.3-5.5h1.8c1.1,2.8,2,5.1,2.7,6.7s1.2,3,1.7,4.1
						c0.1,0.2,0.2,0.3,0.3,0.5s0.3,0.3,0.5,0.4c0.2,0.1,0.4,0.2,0.6,0.2s0.4,0.1,0.6,0.1V119z M-56.5,114l-1.8-4.5l-1.8,4.5H-56.5z
						 M-38.3,110.1H-39c-0.2-0.5-0.5-1.1-0.9-1.7s-0.8-0.9-1.1-1c-0.2,0-0.4,0-0.7-0.1s-0.5,0-0.7,0h-0.4v9.8c0,0.2,0,0.4,0.1,0.6
						s0.2,0.3,0.4,0.4c0.1,0.1,0.3,0.1,0.6,0.2s0.5,0.1,0.7,0.1v0.7h-7v-0.7c0.2,0,0.4,0,0.7-0.1s0.5-0.1,0.6-0.1
						c0.2-0.1,0.4-0.2,0.5-0.4s0.1-0.3,0.1-0.6v-9.9h-0.4c-0.2,0-0.4,0-0.7,0s-0.5,0-0.7,0.1c-0.3,0-0.7,0.4-1.1,1s-0.7,1.2-0.9,1.7
						h-0.7v-3.6h12.1V110.1z M-26.5,109.7h-0.7c-0.2-0.5-0.5-1-0.9-1.4s-0.8-0.8-1.2-0.9c-0.2,0-0.4-0.1-0.7-0.1s-0.6,0-0.8,0h-1.8
						v4.8h1.3c0.3,0,0.6,0,0.9-0.1s0.5-0.2,0.7-0.4c0.1-0.1,0.3-0.4,0.4-0.7s0.2-0.6,0.3-0.9h0.7v5.2H-29c0-0.2-0.1-0.6-0.3-0.9
						s-0.3-0.6-0.4-0.8c-0.2-0.2-0.4-0.4-0.7-0.4s-0.6-0.1-0.9-0.1h-1.3v3.6c0,0.4,0,0.7,0.1,0.9s0.2,0.4,0.3,0.5
						c0.1,0.1,0.3,0.2,0.6,0.2s0.6,0.1,1,0.1c0.2,0,0.5,0,0.7,0s0.5,0,0.8-0.1c0.2,0,0.5-0.1,0.7-0.1s0.4-0.1,0.5-0.3
						c0.3-0.3,0.6-0.7,0.9-1.3s0.6-1,0.7-1.3h0.6l-0.2,3.9h-11.7v-0.7c0.2,0,0.4,0,0.7-0.1s0.5-0.1,0.6-0.1c0.2-0.1,0.4-0.2,0.4-0.4
						s0.1-0.3,0.1-0.5v-8.8c0-0.2,0-0.4-0.1-0.5s-0.2-0.3-0.5-0.4c-0.2-0.1-0.4-0.1-0.6-0.2s-0.5-0.1-0.6-0.1v-0.7h11.1V109.7z"/>
				</g>
			</g>
		</g>
	</g>
</g>
</svg>
