<?xml version="1.0" encoding="utf-8"?>
<!-- Generator: Adobe Illustrator 18.1.1, SVG Export Plug-In . SVG Version: 6.00 Build 0)  -->
<svg version="1.1" id="Layer_2" xmlns="http://www.w3.org/2000/svg" xmlns:xlink="http://www.w3.org/1999/xlink" x="0px" y="0px"
	 viewBox="221 82 388 90" enable-background="new 221 82 388 90" xml:space="preserve">
<g enable-background="new    ">
	<path d="M287.7,110.3c0-1-0.3-1.5-1-1.5c-0.2,0-0.3,0-0.4,0c-0.2,0-0.4,0.1-0.5,0.1c-0.2,0-0.3-0.1-0.4-0.2s-0.2-0.3-0.2-0.5
		c0-0.5,0.3-0.7,0.9-0.7c0.1,0,0.2,0,0.3,0l1.1,0.1c0.4,0.1,0.8,0.1,1.2,0.1c0.4,0,0.9,0,1.4-0.1l0.9-0.1c0.1,0,0.2,0,0.3,0
		c0.6,0,0.9,0.2,0.9,0.7c0,0.2-0.1,0.3-0.2,0.5s-0.3,0.2-0.4,0.2c-0.1,0-0.3,0-0.5-0.1c-0.1,0-0.2,0-0.4,0c-0.7,0-1,0.5-1,1.5v8
		c0,1,0.3,1.5,1,1.5c0.1,0,0.2,0,0.4,0c0.3,0,0.4-0.1,0.5-0.1c0.4,0,0.6,0.2,0.6,0.6c0,0.5-0.3,0.7-0.9,0.7c0,0-0.1,0-0.1,0
		c-0.1,0-0.1,0-0.1,0l-1-0.2c-0.3-0.1-0.7-0.1-1.1-0.1c-0.6,0-1.1,0-1.5,0.1l-0.9,0.1c0,0-0.1,0-0.1,0c-0.1,0-0.1,0-0.2,0
		c-0.6,0-0.9-0.2-0.9-0.7c0-0.4,0.2-0.6,0.6-0.6c0.1,0,0.2,0,0.5,0c0.1,0,0.3,0.1,0.4,0.1c0.7,0,1-0.5,1-1.5V110.3z"/>
	<path d="M296.2,111.6v0.6c0.8-1,1.9-1.5,3.2-1.5c0.7,0,1.4,0.2,2,0.5c0.6,0.4,1.1,0.8,1.3,1.4c0.2,0.5,0.3,1,0.3,1.8v3.8
		c0,0.6,0,0.9,0,1c0.1,0.5,0.2,0.7,0.5,0.7c0.1,0,0.3,0,0.5-0.1c0.2,0,0.3,0,0.4,0c0.2,0,0.3,0.1,0.4,0.2c0.1,0.1,0.2,0.3,0.2,0.4
		c0,0.2-0.1,0.4-0.2,0.5s-0.4,0.2-0.6,0.2c-0.2,0-0.5,0-0.9-0.1s-0.8-0.1-1.2-0.1c-0.3,0-0.6,0-0.9,0c-0.7,0.1-1,0.1-1.1,0.1
		c-0.5,0-0.8-0.2-0.8-0.7c0-0.4,0.2-0.6,0.7-0.6c0.1,0,0.2,0,0.4,0c0.3,0.1,0.4,0.1,0.5,0.1c0.3,0,0.5-0.4,0.5-1.1v-1v-1.2V115
		c0-0.7,0-1.2-0.1-1.5c-0.1-0.5-0.4-0.9-0.8-1.2c-0.4-0.3-0.9-0.5-1.5-0.5c-1.1,0-1.8,0.4-2.3,1.1c-0.3,0.5-0.5,1.4-0.5,2.7v2.7
		c0,0.6,0,1,0.1,1.2s0.2,0.3,0.4,0.3c0.1,0,0.3,0,0.4-0.1c0.2,0,0.3-0.1,0.5-0.1c0.4,0,0.6,0.2,0.6,0.7c0,0.4-0.3,0.7-0.8,0.7
		c-0.1,0-0.5,0-1-0.1c-0.3,0-0.6-0.1-1-0.1c-0.3,0-0.7,0-1.1,0.1c-0.6,0.1-0.9,0.1-1,0.1c-0.6,0-0.8-0.2-0.8-0.7
		c0-0.4,0.2-0.6,0.7-0.6c0.1,0,0.2,0,0.4,0.1s0.4,0.1,0.5,0.1c0.4,0,0.6-0.4,0.6-1.2v-2.2v-2.4v-0.7c0-0.5-0.1-0.8-0.2-0.9
		s-0.2-0.2-0.5-0.2c-0.1,0-0.2,0-0.4,0c-0.2,0-0.3,0-0.4,0c-0.5,0-0.7-0.2-0.7-0.6c0-0.4,0.3-0.7,0.9-0.7c0.1,0,0.1,0,0.2,0l0.7,0.1
		c0.2,0,0.4,0,0.6,0c0.3,0,0.5,0,0.5,0C296,111,296.2,111.2,296.2,111.6z"/>
	<path d="M308.8,113.3l2.3,6.3l2.3-6.2c0.1-0.4,0.2-0.6,0.2-0.7c0-0.3-0.1-0.4-0.4-0.4c-0.1,0-0.3,0-0.5,0.1c-0.2,0-0.4,0.1-0.5,0.1
		c-0.4,0-0.7-0.2-0.7-0.7c0-0.5,0.3-0.7,1-0.7c0,0,0.1,0,0.2,0c0.1,0,0.1,0,0.2,0l0.8,0.1c0.2,0.1,0.4,0.1,0.6,0.1
		c0.3,0,0.7,0,1.3-0.1c0.4,0,0.6-0.1,0.8-0.1c0.6,0,0.9,0.2,0.9,0.7c0,0.4-0.2,0.7-0.7,0.7c-0.1,0-0.3,0-0.3,0
		c-0.2,0-0.3-0.1-0.4-0.1c-0.2,0-0.5,0.3-0.7,1l-2.8,7.2c-0.2,0.6-0.6,0.9-1.2,0.9c-0.5,0-0.9-0.3-1.2-0.9L307,113
		c-0.2-0.5-0.4-0.7-0.7-0.7c-0.1,0-0.2,0-0.4,0.1s-0.3,0.1-0.4,0.1c-0.4,0-0.7-0.2-0.7-0.6c0-0.5,0.3-0.7,0.9-0.7c0.1,0,0.2,0,0.2,0
		l0.8,0.1c0.3,0,0.6,0.1,0.8,0.1c0.2,0,0.6,0,1-0.1l0.7-0.1c0.1,0,0.2,0,0.3,0c0.6,0,0.9,0.2,0.9,0.7c0,0.4-0.3,0.6-0.8,0.6
		c-0.2,0-0.3,0-0.3,0c-0.3-0.1-0.4-0.1-0.5-0.1c-0.2,0-0.3,0.1-0.3,0.3c0,0.1,0,0.2,0.1,0.4L308.8,113.3z"/>
	<path d="M326.7,115.1c0,0.5,0,0.8-0.1,0.9c-0.1,0.1-0.3,0.2-0.6,0.2h-6.4c-0.2,0-0.3,0-0.3,0.1s-0.1,0.1-0.1,0.2
		c0,1,0.3,1.8,0.9,2.5c0.6,0.7,1.3,1,2.2,1c0.6,0,1.1-0.2,1.6-0.5s0.8-0.7,1-1.2l0.2-0.6c0.1-0.3,0.3-0.5,0.7-0.5
		c0.5,0,0.7,0.3,0.7,0.8c0,0.9-0.4,1.6-1.3,2.3c-0.9,0.7-1.9,1-3,1c-1.4,0-2.5-0.5-3.3-1.4c-0.8-0.9-1.2-2.2-1.2-3.8
		c0-1.6,0.4-2.9,1.3-4c0.9-1,2-1.5,3.4-1.5c1.3,0,2.3,0.4,3.1,1.3C326.3,112.8,326.7,113.8,326.7,115.1z M319.4,114.6
		c0,0.2,0.1,0.3,0.4,0.3h4.8c0.3,0,0.4-0.1,0.4-0.3c0-0.7-0.3-1.3-0.8-1.8c-0.5-0.5-1.2-0.8-1.9-0.8c-0.7,0-1.4,0.3-2,0.8
		S319.4,113.9,319.4,114.6z"/>
	<path d="M332.4,110.7c0.9,0,1.6,0.2,2.2,0.7v-0.1c0-0.5,0.2-0.7,0.6-0.7c0.4,0,0.7,0.2,0.7,0.6c0,0.1,0,0.3,0,0.6
		c0,0.3-0.1,0.5-0.1,0.8c0,0.2,0,0.4,0.1,0.7c0,0.3,0,0.5,0,0.7c0,0.5-0.2,0.8-0.6,0.8c-0.4,0-0.6-0.2-0.6-0.6v-0.7
		c0-0.4-0.2-0.7-0.7-1s-1-0.4-1.6-0.4c-0.6,0-1.1,0.2-1.5,0.5c-0.4,0.3-0.6,0.7-0.6,1.2c0,0.9,0.6,1.4,1.8,1.5l1.2,0.2
		c2.3,0.3,3.4,1.2,3.4,2.8c0,1-0.4,1.7-1.1,2.3c-0.7,0.6-1.7,0.9-2.9,0.9c-1.1,0-2.1-0.3-2.9-0.9c0,0.1,0,0.3,0,0.4
		c0,0.5-0.2,0.7-0.7,0.7c-0.5,0-0.7-0.3-0.7-0.8c0,0.1,0-0.3,0.1-1c0-0.2,0-0.4,0-0.6c0-0.3,0-0.6-0.1-0.9c-0.1-0.3-0.1-0.5-0.1-0.7
		c0-0.5,0.2-0.7,0.6-0.7c0.3,0,0.5,0.1,0.5,0.2c0.1,0.1,0.1,0.5,0.1,1.1c0,0.6,0.3,1,0.9,1.4c0.6,0.4,1.3,0.5,2.2,0.5
		c0.7,0,1.2-0.2,1.6-0.5c0.4-0.3,0.6-0.8,0.6-1.3c0-0.9-0.7-1.4-2.2-1.6c-1.4-0.1-2.4-0.4-3.1-0.8c-0.7-0.4-1.1-1.1-1.1-2.1
		c0-0.9,0.4-1.7,1.1-2.3C330.3,111,331.2,110.7,332.4,110.7z"/>
	<path d="M343.6,118.2V117c0-0.5,0.3-0.8,0.7-0.8c0.5,0,0.7,0.3,0.7,0.9c0,1.5-0.2,2.5-0.6,3c-0.5,0.8-1.3,1.2-2.5,1.2
		c-1.1,0-1.8-0.3-2.3-1c-0.3-0.5-0.5-1.3-0.5-2.5v-4.8c0-0.3-0.1-0.4-0.4-0.4h-0.7c-0.2,0-0.4-0.1-0.5-0.2s-0.2-0.3-0.2-0.5
		c0-0.2,0.1-0.4,0.2-0.5c0.1-0.1,0.3-0.2,0.5-0.2h0.8c0.2,0,0.3-0.1,0.3-0.4v-2.1c0-0.5,0.3-0.8,0.8-0.8c0.5,0,0.7,0.3,0.7,0.8v2.1
		c0,0.2,0.1,0.3,0.4,0.3h2.2c0.5,0,0.8,0.2,0.8,0.7c0,0.5-0.3,0.7-0.8,0.7H341c-0.2,0-0.3,0.1-0.3,0.4v4.9c0,1.4,0.5,2.1,1.4,2.1
		C343,119.9,343.5,119.4,343.6,118.2z"/>
	<path d="M349.2,115.2v2.6c0,0.7,0,1.1,0,1.2c0.1,0.6,0.2,0.9,0.5,0.9c0.1,0,0.2,0,0.5-0.1c0.1,0,0.2,0,0.3,0c0.5,0,0.8,0.2,0.8,0.7
		c0,0.2-0.1,0.3-0.3,0.5c-0.2,0.1-0.4,0.2-0.6,0.2c-0.2,0-0.5,0-1-0.1c-0.4-0.1-0.8-0.1-1-0.1c-0.3,0-0.7,0-1.2,0.1
		c-0.5,0.1-0.9,0.1-1,0.1c-0.5,0-0.8-0.2-0.8-0.7c0-0.4,0.2-0.7,0.7-0.7c0.1,0,0.3,0,0.5,0.1c0.2,0,0.4,0.1,0.5,0.1
		c0.3,0,0.5-0.4,0.6-1.3c0-0.1,0-0.6,0-1.7v-1.6c0-1.1,0-1.7,0-1.7c-0.1-0.8-0.3-1.3-0.6-1.3c-0.1,0-0.3,0-0.5,0.1
		c-0.2,0-0.3,0.1-0.4,0.1c-0.5,0-0.7-0.2-0.7-0.6c0-0.5,0.3-0.7,0.9-0.7c0.3,0,0.4,0,0.5,0c0.4,0.1,0.7,0.1,0.8,0.1
		c0.1,0,0.3,0,0.5,0c0.2,0,0.4-0.1,0.5-0.1c0.4,0,0.6,0.3,0.6,0.8c0,0.1,0,0.1,0,0.2s0,0.2,0,0.2c0,0.1,0,0.5,0,1.2
		C349.2,114.1,349.2,114.6,349.2,115.2z M348.2,110c-0.3,0-0.6-0.1-0.8-0.3c-0.2-0.2-0.3-0.5-0.3-0.8s0.1-0.6,0.3-0.8
		c0.2-0.2,0.5-0.3,0.8-0.3s0.6,0.1,0.8,0.3c0.2,0.2,0.3,0.5,0.3,0.8s-0.1,0.6-0.3,0.8S348.5,110,348.2,110z"/>
	<path d="M356.9,110.7c0.3,0,0.7,0.1,1.2,0.2c0.1-1.3,0.8-2,2.3-2c0.6,0,1.1,0.2,1.5,0.5c0.4,0.3,0.6,0.7,0.6,1.2
		c0,0.3-0.1,0.6-0.3,0.8c-0.2,0.2-0.5,0.3-0.7,0.3c-0.2,0-0.4-0.1-0.6-0.2s-0.2-0.3-0.2-0.5c0-0.2,0.1-0.4,0.4-0.7
		c-0.2-0.3-0.5-0.4-0.8-0.4c-0.7,0-1.1,0.4-1.1,1.3c1,0.7,1.5,1.6,1.5,2.7c0,0.9-0.3,1.7-1,2.3s-1.6,0.9-2.6,0.9
		c-0.7,0-1.5-0.2-2.3-0.5c-0.2-0.1-0.4-0.1-0.5-0.1c-0.2,0-0.4,0.1-0.5,0.2c-0.1,0.2-0.2,0.4-0.2,0.6c0,0.7,0.7,1,2.1,1h0.1
		c0.1,0,0.2,0,0.4,0s0.2,0,0.2,0c1.3,0,2.3,0.1,3.1,0.4c0.7,0.2,1.3,0.6,1.7,1.1s0.6,1,0.6,1.6c0,1-0.5,1.7-1.4,2.3
		c-0.9,0.6-2.1,0.8-3.6,0.8s-2.7-0.3-3.6-0.8c-0.9-0.5-1.3-1.3-1.3-2.2c0-1.1,0.6-1.8,1.8-2.3c-1.1-0.4-1.6-1.1-1.6-1.9
		c0-0.9,0.5-1.6,1.6-1.9c-0.3-0.5-0.5-1-0.5-1.6c0-0.9,0.4-1.7,1.1-2.3C355,111,355.9,110.7,356.9,110.7z M357,119.7
		c-1.1,0-1.9,0.2-2.5,0.5c-0.6,0.3-0.9,0.8-0.9,1.3c0,0.5,0.3,1,0.9,1.3s1.4,0.5,2.4,0.5c1.1,0,1.9-0.2,2.5-0.5
		c0.6-0.3,0.9-0.7,0.9-1.3c0-0.6-0.3-1-0.9-1.3C358.9,119.9,358.1,119.7,357,119.7z M357,112c-0.6,0-1.1,0.2-1.5,0.5
		c-0.4,0.3-0.6,0.8-0.7,1.3v0.1c0,0.6,0.2,1.1,0.6,1.4c0.4,0.4,0.9,0.5,1.6,0.5c0.7,0,1.2-0.2,1.6-0.5c0.4-0.4,0.6-0.8,0.6-1.4
		c0-0.6-0.2-1-0.6-1.4C358.2,112.2,357.6,112,357,112z"/>
	<path d="M371.5,121.3c-1.1,0-1.8-0.5-2-1.4c-0.7,1-1.7,1.5-3.2,1.5c-1.1,0-1.9-0.3-2.6-0.8c-0.6-0.5-1-1.2-1-2.1
		c0-1.1,0.5-1.9,1.4-2.4c0.4-0.2,0.7-0.3,0.9-0.4c0.3-0.1,0.8-0.1,1.6-0.2c1.1-0.1,1.9-0.3,2.2-0.5c0.3-0.2,0.5-0.6,0.5-1.2
		c0-0.5-0.2-1-0.6-1.3s-0.9-0.5-1.6-0.5c-0.6,0-1.2,0.2-1.7,0.5c-0.2,0.1-0.3,0.3-0.3,0.4c0,0.1,0.1,0.1,0.2,0.2
		c0.2,0.1,0.3,0.4,0.3,0.7c0,0.3-0.1,0.5-0.3,0.7c-0.2,0.2-0.4,0.3-0.7,0.3c-0.3,0-0.6-0.1-0.9-0.4s-0.4-0.5-0.4-0.9
		c0-0.7,0.4-1.4,1.1-1.9c0.7-0.5,1.6-0.8,2.7-0.8c2.4,0,3.6,1.2,3.6,3.5v4c0,0.6,0,1,0,1.1c0.1,0.5,0.3,0.7,0.7,0.7
		c0.5,0,0.7-0.4,0.7-1.3v-1c0-0.4,0.2-0.6,0.6-0.6c0.4,0,0.6,0.3,0.6,1v0.1v1.1C373.5,120.6,372.8,121.3,371.5,121.3z M369.3,117.3
		v-1.4c-0.3,0.3-0.6,0.5-0.9,0.6c-0.3,0.1-0.9,0.2-1.7,0.3c-1.5,0.1-2.3,0.7-2.3,1.7c0,0.5,0.2,0.9,0.5,1.2s0.9,0.4,1.5,0.4
		c0.9,0,1.6-0.2,2.1-0.7C369,118.8,369.2,118.1,369.3,117.3z"/>
	<path d="M379.7,118.2V117c0-0.5,0.3-0.8,0.7-0.8c0.5,0,0.7,0.3,0.7,0.9c0,1.5-0.2,2.5-0.6,3c-0.5,0.8-1.3,1.2-2.5,1.2
		c-1.1,0-1.8-0.3-2.3-1c-0.3-0.5-0.5-1.3-0.5-2.5v-4.8c0-0.3-0.1-0.4-0.4-0.4h-0.7c-0.2,0-0.4-0.1-0.5-0.2s-0.2-0.3-0.2-0.5
		c0-0.2,0.1-0.4,0.2-0.5c0.1-0.1,0.3-0.2,0.5-0.2h0.8c0.2,0,0.3-0.1,0.3-0.4v-2.1c0-0.5,0.3-0.8,0.8-0.8c0.5,0,0.7,0.3,0.7,0.8v2.1
		c0,0.2,0.1,0.3,0.4,0.3h2.2c0.5,0,0.8,0.2,0.8,0.7c0,0.5-0.3,0.7-0.8,0.7h-2.2c-0.2,0-0.3,0.1-0.3,0.4v4.9c0,1.4,0.5,2.1,1.4,2.1
		C379.2,119.9,379.7,119.4,379.7,118.2z"/>
	<path d="M385.4,115.2v2.6c0,0.7,0,1.1,0,1.2c0.1,0.6,0.2,0.9,0.5,0.9c0.1,0,0.2,0,0.5-0.1c0.1,0,0.2,0,0.3,0c0.5,0,0.8,0.2,0.8,0.7
		c0,0.2-0.1,0.3-0.3,0.5c-0.2,0.1-0.4,0.2-0.6,0.2c-0.2,0-0.5,0-1-0.1c-0.4-0.1-0.8-0.1-1-0.1c-0.3,0-0.7,0-1.2,0.1
		c-0.5,0.1-0.9,0.1-1,0.1c-0.5,0-0.8-0.2-0.8-0.7c0-0.4,0.2-0.7,0.7-0.7c0.1,0,0.3,0,0.5,0.1c0.2,0,0.4,0.1,0.5,0.1
		c0.3,0,0.5-0.4,0.6-1.3c0-0.1,0-0.6,0-1.7v-1.6c0-1.1,0-1.7,0-1.7c-0.1-0.8-0.3-1.3-0.6-1.3c-0.1,0-0.3,0-0.5,0.1
		c-0.2,0-0.3,0.1-0.4,0.1c-0.5,0-0.7-0.2-0.7-0.6c0-0.5,0.3-0.7,0.9-0.7c0.3,0,0.4,0,0.5,0c0.4,0.1,0.7,0.1,0.8,0.1
		c0.1,0,0.3,0,0.5,0c0.2,0,0.4-0.1,0.5-0.1c0.4,0,0.6,0.3,0.6,0.8c0,0.1,0,0.1,0,0.2s0,0.2,0,0.2c0,0.1,0,0.5,0,1.2
		C385.4,114.1,385.4,114.6,385.4,115.2z M384.4,110c-0.3,0-0.6-0.1-0.8-0.3c-0.2-0.2-0.3-0.5-0.3-0.8s0.1-0.6,0.3-0.8
		c0.2-0.2,0.5-0.3,0.8-0.3s0.6,0.1,0.8,0.3c0.2,0.2,0.3,0.5,0.3,0.8s-0.1,0.6-0.3,0.8S384.7,110,384.4,110z"/>
	<path d="M391.4,111.6v0.6c0.8-1,1.9-1.5,3.2-1.5c0.7,0,1.4,0.2,2,0.5c0.6,0.4,1.1,0.8,1.3,1.4c0.2,0.5,0.3,1,0.3,1.8v3.8
		c0,0.6,0,0.9,0,1c0.1,0.5,0.2,0.7,0.5,0.7c0.1,0,0.3,0,0.5-0.1c0.2,0,0.3,0,0.4,0c0.2,0,0.3,0.1,0.4,0.2c0.1,0.1,0.2,0.3,0.2,0.4
		c0,0.2-0.1,0.4-0.2,0.5s-0.4,0.2-0.6,0.2c-0.2,0-0.5,0-0.9-0.1s-0.8-0.1-1.2-0.1c-0.3,0-0.6,0-0.9,0c-0.7,0.1-1,0.1-1.1,0.1
		c-0.5,0-0.8-0.2-0.8-0.7c0-0.4,0.2-0.6,0.7-0.6c0.1,0,0.2,0,0.4,0c0.3,0.1,0.4,0.1,0.5,0.1c0.3,0,0.5-0.4,0.5-1.1v-1v-1.2V115
		c0-0.7,0-1.2-0.1-1.5c-0.1-0.5-0.4-0.9-0.8-1.2c-0.4-0.3-0.9-0.5-1.5-0.5c-1.1,0-1.8,0.4-2.3,1.1c-0.3,0.5-0.5,1.4-0.5,2.7v2.7
		c0,0.6,0,1,0.1,1.2s0.2,0.3,0.4,0.3c0.1,0,0.3,0,0.4-0.1c0.2,0,0.3-0.1,0.5-0.1c0.4,0,0.6,0.2,0.6,0.7c0,0.4-0.3,0.7-0.8,0.7
		c-0.1,0-0.5,0-1-0.1c-0.3,0-0.6-0.1-1-0.1c-0.3,0-0.7,0-1.1,0.1c-0.6,0.1-0.9,0.1-1,0.1c-0.6,0-0.8-0.2-0.8-0.7
		c0-0.4,0.2-0.6,0.7-0.6c0.1,0,0.2,0,0.4,0.1s0.4,0.1,0.5,0.1c0.4,0,0.6-0.4,0.6-1.2v-2.2v-2.4v-0.7c0-0.5-0.1-0.8-0.2-0.9
		s-0.2-0.2-0.5-0.2c-0.1,0-0.2,0-0.4,0c-0.2,0-0.3,0-0.4,0c-0.5,0-0.7-0.2-0.7-0.6c0-0.4,0.3-0.7,0.9-0.7c0.1,0,0.1,0,0.2,0l0.7,0.1
		c0.2,0,0.4,0,0.6,0c0.3,0,0.5,0,0.5,0C391.2,111,391.4,111.2,391.4,111.6z"/>
	<path d="M405.8,110.7c0.3,0,0.7,0.1,1.2,0.2c0.1-1.3,0.8-2,2.3-2c0.6,0,1.1,0.2,1.5,0.5c0.4,0.3,0.6,0.7,0.6,1.2
		c0,0.3-0.1,0.6-0.3,0.8c-0.2,0.2-0.5,0.3-0.7,0.3c-0.2,0-0.4-0.1-0.6-0.2s-0.2-0.3-0.2-0.5c0-0.2,0.1-0.4,0.4-0.7
		c-0.2-0.3-0.5-0.4-0.8-0.4c-0.7,0-1.1,0.4-1.1,1.3c1,0.7,1.5,1.6,1.5,2.7c0,0.9-0.3,1.7-1,2.3s-1.6,0.9-2.6,0.9
		c-0.7,0-1.5-0.2-2.3-0.5c-0.2-0.1-0.4-0.1-0.5-0.1c-0.2,0-0.4,0.1-0.5,0.2c-0.1,0.2-0.2,0.4-0.2,0.6c0,0.7,0.7,1,2.1,1h0.1
		c0.1,0,0.2,0,0.4,0s0.2,0,0.2,0c1.3,0,2.3,0.1,3.1,0.4c0.7,0.2,1.3,0.6,1.7,1.1s0.6,1,0.6,1.6c0,1-0.5,1.7-1.4,2.3
		c-0.9,0.6-2.1,0.8-3.6,0.8s-2.7-0.3-3.6-0.8c-0.9-0.5-1.3-1.3-1.3-2.2c0-1.1,0.6-1.8,1.8-2.3c-1.1-0.4-1.6-1.1-1.6-1.9
		c0-0.9,0.5-1.6,1.6-1.9c-0.3-0.5-0.5-1-0.5-1.6c0-0.9,0.4-1.7,1.1-2.3C403.9,111,404.8,110.7,405.8,110.7z M405.9,119.7
		c-1.1,0-1.9,0.2-2.5,0.5c-0.6,0.3-0.9,0.8-0.9,1.3c0,0.5,0.3,1,0.9,1.3s1.4,0.5,2.4,0.5c1.1,0,1.9-0.2,2.5-0.5
		c0.6-0.3,0.9-0.7,0.9-1.3c0-0.6-0.3-1-0.9-1.3C407.8,119.9,407,119.7,405.9,119.7z M405.9,112c-0.6,0-1.1,0.2-1.5,0.5
		c-0.4,0.3-0.6,0.8-0.7,1.3v0.1c0,0.6,0.2,1.1,0.6,1.4c0.4,0.4,0.9,0.5,1.6,0.5c0.7,0,1.2-0.2,1.6-0.5c0.4-0.4,0.6-0.8,0.6-1.4
		c0-0.6-0.2-1-0.6-1.4C407.1,112.2,406.5,112,405.9,112z"/>
	<path d="M422.6,118.2V117c0-0.5,0.3-0.8,0.7-0.8c0.5,0,0.7,0.3,0.7,0.9c0,1.5-0.2,2.5-0.6,3c-0.5,0.8-1.3,1.2-2.5,1.2
		c-1.1,0-1.8-0.3-2.3-1c-0.3-0.5-0.5-1.3-0.5-2.5v-4.8c0-0.3-0.1-0.4-0.4-0.4h-0.7c-0.2,0-0.4-0.1-0.5-0.2s-0.2-0.3-0.2-0.5
		c0-0.2,0.1-0.4,0.2-0.5c0.1-0.1,0.3-0.2,0.5-0.2h0.8c0.2,0,0.3-0.1,0.3-0.4v-2.1c0-0.5,0.3-0.8,0.8-0.8c0.5,0,0.7,0.3,0.7,0.8v2.1
		c0,0.2,0.1,0.3,0.4,0.3h2.2c0.5,0,0.8,0.2,0.8,0.7c0,0.5-0.3,0.7-0.8,0.7H420c-0.2,0-0.3,0.1-0.3,0.4v4.9c0,1.4,0.5,2.1,1.4,2.1
		C422,119.9,422.5,119.4,422.6,118.2z"/>
	<path d="M428.1,108.1l-0.1,3.9c0.5-0.5,1-0.9,1.5-1s1-0.3,1.6-0.3c1.2,0,2.1,0.3,2.8,1c0.7,0.7,1,1.5,1,2.6v3.3c0,0.8,0,1.2,0,1.3
		c0.1,0.7,0.2,1,0.5,1c0.1,0,0.3,0,0.5-0.1c0.1,0,0.2,0,0.3,0c0.5,0,0.7,0.2,0.7,0.7s-0.3,0.7-1,0.7c-0.2,0-0.4,0-0.8-0.1
		c-0.6-0.1-1-0.1-1.4-0.1c-0.3,0-0.6,0-0.8,0c-0.6,0.1-0.9,0.1-1,0.1c-0.2,0-0.4-0.1-0.6-0.2s-0.2-0.3-0.2-0.5
		c0-0.2,0.1-0.3,0.2-0.4c0.1-0.1,0.3-0.2,0.5-0.2c0.1,0,0.3,0,0.5,0.1c0.1,0,0.2,0.1,0.3,0.1c0.4,0,0.6-0.4,0.6-1.3
		c0-0.2,0-0.5,0-0.9v-0.9v-1.1c0-1.4-0.1-2.3-0.4-2.7c-0.4-0.7-1.1-1-2-1c-1.1,0-1.8,0.4-2.3,1.1c-0.3,0.5-0.5,1.3-0.5,2.4v1.4
		c0,0.1,0,0.2-0.1,0.4c0,0.2,0,0.3,0,0.4c0,0.8,0,1.2,0,1.3c0.1,0.7,0.3,1,0.6,1c0.1,0,0.3,0,0.5-0.1c0.2-0.1,0.3-0.1,0.4-0.1
		c0.4,0,0.7,0.2,0.7,0.6c0,0.5-0.3,0.7-0.9,0.7c-0.2,0-0.5,0-0.8-0.1c-0.5-0.1-0.9-0.1-1.3-0.1c-0.2,0-0.5,0-0.9,0.1
		c-0.5,0.1-0.9,0.1-1,0.1c-0.6,0-0.8-0.2-0.8-0.7c0-0.4,0.3-0.6,0.8-0.6c0.2,0,0.3,0,0.4,0.1c0.2,0.1,0.4,0.1,0.5,0.1
		c0.2,0,0.4-0.2,0.4-0.6c0.1-0.4,0.1-1.2,0.1-2.5v-3.6c0-2,0-3.3-0.1-3.8c-0.1-0.5-0.3-0.8-0.6-0.8c-0.1,0-0.2,0-0.4,0.1
		c-0.2,0-0.3,0.1-0.4,0.1c-0.5,0-0.7-0.2-0.7-0.6c0-0.2,0.1-0.3,0.2-0.5c0.2-0.1,0.4-0.2,0.6-0.2c0.1,0,0.3,0,0.7,0.1
		c0.3,0,0.5,0,0.8,0c0.1,0,0.3,0,0.5,0s0.4,0,0.5,0C428,107.4,428.1,107.6,428.1,108.1L428.1,108.1z"/>
	<path d="M446.8,115.1c0,0.5,0,0.8-0.1,0.9s-0.3,0.2-0.6,0.2h-6.4c-0.2,0-0.3,0-0.3,0.1c-0.1,0-0.1,0.1-0.1,0.2c0,1,0.3,1.8,0.9,2.5
		c0.6,0.7,1.3,1,2.2,1c0.6,0,1.1-0.2,1.6-0.5c0.5-0.3,0.8-0.7,0.9-1.2l0.2-0.6c0.1-0.3,0.3-0.5,0.7-0.5c0.5,0,0.7,0.3,0.7,0.8
		c0,0.9-0.4,1.6-1.3,2.3s-1.9,1-3,1c-1.4,0-2.5-0.5-3.3-1.4c-0.8-0.9-1.2-2.2-1.2-3.8c0-1.6,0.4-2.9,1.3-4c0.9-1,2-1.5,3.4-1.5
		c1.3,0,2.3,0.4,3.1,1.3S446.8,113.8,446.8,115.1z M439.6,114.6c0,0.2,0.1,0.3,0.4,0.3h4.8c0.3,0,0.4-0.1,0.4-0.3
		c0-0.7-0.3-1.3-0.8-1.8c-0.5-0.5-1.2-0.8-1.9-0.8c-0.7,0-1.4,0.3-2,0.8S439.6,113.9,439.6,114.6z"/>
	<path d="M459.3,107.2c1.5,0,2.7,0.6,3.6,1.7v-0.2c0-0.1,0-0.1,0-0.2c0-0.1,0-0.1,0-0.1c0-0.3,0-0.4,0-0.4c0-0.5,0.2-0.7,0.6-0.7
		c0.4,0,0.7,0.3,0.7,0.8c0,0.1,0,0.4,0,1c-0.1,0.7-0.1,1.1-0.1,1.4c0,0.4,0,0.7,0.1,1.1l0.1,0.8v0.2c0,0.6-0.2,0.9-0.7,0.9
		c-0.5,0-0.8-0.3-0.8-0.9v-0.7c0-1-0.3-1.7-0.9-2.3s-1.4-0.9-2.5-0.9c-1.3,0-2.3,0.5-3.1,1.5c-0.7,1-1.1,2.4-1.1,4.2
		c0,1.8,0.4,3.2,1.2,4.3c0.8,1,1.8,1.5,3.2,1.5c0.7,0,1.4-0.2,2-0.5c0.6-0.4,1-0.8,1.2-1.4c0.2-0.4,0.2-0.9,0.2-1.6
		c0-0.6,0.3-0.9,0.8-0.9c0.5,0,0.8,0.3,0.8,0.9c0,1.4-0.5,2.6-1.5,3.5c-1,0.9-2.3,1.4-3.8,1.4c-1.8,0-3.2-0.6-4.3-1.9
		s-1.6-3-1.6-5.1c0-2.2,0.5-3.9,1.7-5.3C456,107.9,457.5,107.2,459.3,107.2z"/>
	<path d="M469.3,115.2v2.6c0,0.7,0,1.1,0,1.2c0.1,0.6,0.2,0.9,0.5,0.9c0.1,0,0.2,0,0.5-0.1c0.1,0,0.2,0,0.3,0c0.5,0,0.8,0.2,0.8,0.7
		c0,0.2-0.1,0.3-0.3,0.5c-0.2,0.1-0.4,0.2-0.6,0.2c-0.2,0-0.5,0-1-0.1c-0.4-0.1-0.8-0.1-1-0.1c-0.3,0-0.7,0-1.2,0.1
		c-0.5,0.1-0.9,0.1-1,0.1c-0.5,0-0.8-0.2-0.8-0.7c0-0.4,0.2-0.7,0.7-0.7c0.1,0,0.3,0,0.5,0.1c0.2,0,0.4,0.1,0.5,0.1
		c0.3,0,0.5-0.4,0.6-1.3c0-0.1,0-0.6,0-1.7v-1.6c0-1.1,0-1.7,0-1.7c-0.1-0.8-0.3-1.3-0.6-1.3c-0.1,0-0.3,0-0.5,0.1
		c-0.2,0-0.3,0.1-0.4,0.1c-0.5,0-0.7-0.2-0.7-0.6c0-0.5,0.3-0.7,0.9-0.7c0.3,0,0.4,0,0.5,0c0.4,0.1,0.7,0.1,0.8,0.1
		c0.1,0,0.3,0,0.5,0c0.2,0,0.4-0.1,0.5-0.1c0.4,0,0.6,0.3,0.6,0.8c0,0.1,0,0.1,0,0.2s0,0.2,0,0.2c0,0.1,0,0.5,0,1.2
		C469.3,114.1,469.3,114.6,469.3,115.2z M468.3,110c-0.3,0-0.6-0.1-0.8-0.3c-0.2-0.2-0.3-0.5-0.3-0.8s0.1-0.6,0.3-0.8
		c0.2-0.2,0.5-0.3,0.8-0.3c0.3,0,0.6,0.1,0.8,0.3c0.2,0.2,0.3,0.5,0.3,0.8s-0.1,0.6-0.3,0.8C468.8,109.8,468.6,110,468.3,110z"/>
	<path d="M477.8,118.2V117c0-0.5,0.3-0.8,0.7-0.8s0.7,0.3,0.7,0.9c0,1.5-0.2,2.5-0.6,3c-0.5,0.8-1.3,1.2-2.5,1.2
		c-1.1,0-1.8-0.3-2.3-1c-0.3-0.5-0.5-1.3-0.5-2.5v-4.8c0-0.3-0.1-0.4-0.4-0.4h-0.7c-0.2,0-0.4-0.1-0.5-0.2c-0.1-0.1-0.2-0.3-0.2-0.5
		c0-0.2,0.1-0.4,0.2-0.5s0.3-0.2,0.5-0.2h0.8c0.2,0,0.3-0.1,0.3-0.4v-2.1c0-0.5,0.3-0.8,0.8-0.8c0.5,0,0.7,0.3,0.7,0.8v2.1
		c0,0.2,0.1,0.3,0.4,0.3h2.2c0.5,0,0.8,0.2,0.8,0.7c0,0.5-0.3,0.7-0.8,0.7h-2.2c-0.2,0-0.3,0.1-0.3,0.4v4.9c0,1.4,0.5,2.1,1.4,2.1
		C477.3,119.9,477.8,119.4,477.8,118.2z"/>
	<path d="M483.4,112.9l2.3,6.8l2.4-6.7c0.1-0.2,0.1-0.3,0.1-0.4c0-0.2-0.2-0.3-0.5-0.3c-0.2,0-0.3,0-0.4,0c-0.2,0-0.4,0-0.4,0
		c-0.4,0-0.7-0.2-0.7-0.6c0-0.5,0.3-0.7,0.9-0.7c0.1,0,0.2,0,0.4,0l0.7,0.1c0.2,0,0.4,0,0.6,0c0.2,0,0.6,0,1-0.1
		c0.4-0.1,0.8-0.1,1-0.1c0.6,0,0.9,0.2,0.9,0.7c0,0.4-0.2,0.7-0.7,0.7c-0.1,0-0.2,0-0.3,0c-0.2,0-0.3-0.1-0.4-0.1
		c-0.3,0-0.5,0.3-0.8,1L487,120c-0.6,1.5-1.2,2.6-1.7,3.3c-0.9,1.2-2,1.7-3.4,1.7c-0.8,0-1.5-0.2-2-0.6c-0.6-0.4-0.8-0.9-0.8-1.5
		c0-0.4,0.1-0.8,0.4-1c0.2-0.3,0.6-0.4,0.9-0.4c0.3,0,0.6,0.1,0.8,0.3c0.2,0.2,0.3,0.4,0.3,0.7c0,0.4-0.2,0.7-0.6,0.8
		c0.2,0.3,0.6,0.4,1.1,0.4c0.7,0,1.3-0.3,1.9-0.8c0.6-0.5,0.8-1.1,0.8-1.8c0-0.3-0.2-1-0.5-1.9l-2.2-5.6l-0.2-0.6
		c-0.2-0.6-0.5-0.9-0.8-0.9c-0.1,0-0.2,0-0.4,0c-0.2,0-0.3,0.1-0.4,0.1c-0.5,0-0.7-0.2-0.7-0.6c0-0.5,0.3-0.7,0.9-0.7
		c0.2,0,0.4,0,0.5,0l0.8,0.1c0,0,0.1,0,0.2,0c0.1,0,0.2,0,0.2,0c0.5,0,1,0,1.5-0.1c0.4,0,0.7-0.1,0.8-0.1c0.6,0,0.8,0.2,0.8,0.7
		c0,0.4-0.3,0.7-0.8,0.7c-0.1,0-0.2,0-0.4,0c-0.2,0-0.3,0-0.4,0c-0.2,0-0.3,0.1-0.3,0.3C483.3,112.6,483.4,112.8,483.4,112.9z"/>
	<path d="M492.6,121.3c-0.3,0-0.6-0.1-0.9-0.4c-0.2-0.2-0.4-0.5-0.4-0.9s0.1-0.6,0.4-0.9c0.2-0.2,0.5-0.4,0.9-0.4s0.6,0.1,0.9,0.4
		c0.2,0.2,0.4,0.5,0.4,0.9s-0.1,0.6-0.4,0.9C493.2,121.2,492.9,121.3,492.6,121.3z"/>
</g>
<g enable-background="new    ">
	<path d="M264.3,133.3c0-1-0.3-1.5-1-1.5c-0.2,0-0.3,0-0.4,0c-0.2,0-0.4,0.1-0.5,0.1c-0.2,0-0.3-0.1-0.4-0.2s-0.2-0.3-0.2-0.5
		c0-0.5,0.3-0.7,0.8-0.7c0,0,0.1,0,0.3,0c2,0.1,2.9,0.2,2.8,0.2h0.2l4.8-0.1c0.1,0,0.4,0,1-0.1c0.2,0,0.4,0,0.6,0c0.7,0,1,0.3,1,0.9
		c0,0.1,0,0.4-0.1,1c0,0.4,0,0.8,0,1.2c0,0.5,0,0.8,0,1c0,0.4,0.1,0.7,0.1,0.9c0,0.5-0.2,0.8-0.7,0.8c-0.5,0-0.7-0.4-0.7-1.1v-1
		c0-1.1-0.2-1.8-0.7-2c-0.3-0.1-1.2-0.2-2.7-0.2c-0.9,0-1.5,0-1.7,0.1c-0.6,0.1-0.9,0.5-0.9,1.2v0.9c0,0.1,0,0.3,0,0.4
		c0,0.2,0,0.3,0,0.4v0.3c0,0.5,0.1,0.8,0.4,0.9c0.1,0,0.2,0,0.5,0h0.8c0.8,0,1.2-0.3,1.2-0.9c0-0.2,0-0.4,0-0.6
		c0-0.3-0.1-0.5-0.1-0.7c0-0.5,0.2-0.8,0.7-0.8s0.7,0.3,0.7,0.9c0,0.1,0,0.5-0.1,1.2c-0.1,0.6-0.1,1.2-0.1,1.6c0,0.3,0,0.7,0.1,1.4
		c0,0.1,0,0.3,0.1,0.7c0,0.3,0.1,0.5,0.1,0.7c0,0.5-0.2,0.7-0.7,0.7c-0.5,0-0.7-0.3-0.7-0.8c0-0.1,0-0.4,0.1-0.6c0-0.3,0-0.5,0-0.6
		c0-0.6-0.4-0.9-1.1-0.9h-0.9c-0.4,0-0.6,0.1-0.7,0.2c-0.1,0.1-0.1,0.4-0.1,0.9v1.2c0,0.2,0,0.5,0,0.9c0,0.4,0,0.7,0,0.9
		c0,0.5,0.1,0.9,0.3,1c0.1,0.1,0.5,0.1,1,0.1h2.7c0.8,0,1.3-0.1,1.6-0.3s0.4-0.7,0.4-1.3c0-0.2,0-0.5,0-0.9c0-0.4,0-0.7,0-0.9
		c0-0.6,0.2-0.9,0.7-0.9c0.5,0,0.8,0.3,0.8,0.9c0,0.2,0,0.6,0,1.1s0,0.9,0,1.1c0,0.2,0,0.5,0,0.8c0,0.4,0,0.6,0,0.8
		c0,0.6-0.3,0.9-0.9,0.9c-0.1,0-0.4,0-0.7,0c-0.2,0-0.5,0-0.9,0c0.1,0-0.4,0-1.6,0c-1.1,0-2.1,0-2.9,0c-1.3,0-2.5,0-3.7,0.1
		c-0.1,0-0.1,0-0.2,0c-0.1,0-0.1,0-0.1,0c-0.6,0-0.8-0.2-0.8-0.7c0-0.4,0.2-0.6,0.6-0.6c0.1,0,0.2,0,0.5,0c0.1,0,0.3,0.1,0.4,0.1
		c0.7,0,1-0.5,1-1.5V133.3z"/>
	<path d="M278.5,134.6v0.6c0.5-0.6,0.9-1,1.4-1.2c0.4-0.2,1-0.3,1.6-0.3c1.3,0,2.3,0.5,2.9,1.5c0.5-0.6,0.9-1,1.4-1.2
		s1.1-0.3,1.8-0.3c0.8,0,1.4,0.2,2,0.5c0.7,0.4,1.1,0.9,1.4,1.5c0.2,0.4,0.3,1.1,0.3,2.1v1.9v1.5c0,0.5,0,0.9,0,1
		c0.1,0.5,0.2,0.7,0.5,0.7c0.1,0,0.2,0,0.4-0.1c0.2,0,0.3-0.1,0.4-0.1c0.5,0,0.7,0.2,0.7,0.6c0,0.5-0.3,0.7-0.8,0.7
		c-0.2,0-0.5,0-0.9-0.1c-0.4,0-0.7-0.1-0.9-0.1c-0.2,0-0.6,0-1,0.1c-0.4,0-0.8,0.1-1,0.1c-0.6,0-0.8-0.2-0.8-0.7
		c0-0.4,0.2-0.6,0.6-0.6c0.1,0,0.2,0,0.4,0c0.1,0,0.2,0,0.3,0c0.2,0,0.4-0.1,0.4-0.3c0.1-0.2,0.1-0.8,0.1-1.7v-1.2v-1.3
		c0-0.9-0.1-1.6-0.2-2c-0.1-0.4-0.4-0.8-0.8-1c-0.4-0.2-0.8-0.4-1.3-0.4c-0.9,0-1.6,0.3-2,1c-0.3,0.5-0.4,1.4-0.4,2.7v1.4
		c0,1.3,0,2,0.1,2.3c0.1,0.3,0.2,0.5,0.5,0.5c0.1,0,0.2,0,0.4,0c0.2,0,0.3,0,0.4,0c0.2,0,0.3,0.1,0.5,0.2c0.1,0.1,0.2,0.3,0.2,0.5
		c0,0.4-0.3,0.7-0.9,0.7c-0.2,0-0.5,0-0.9-0.1c-0.4-0.1-0.7-0.1-0.9-0.1c-0.3,0-0.6,0-0.9,0.1c-0.3,0.1-0.6,0.1-0.9,0.1
		c-0.5,0-0.8-0.2-0.8-0.7c0-0.4,0.2-0.6,0.6-0.6c0.1,0,0.3,0,0.3,0.1c0.2,0.1,0.3,0.1,0.4,0.1c0.3,0,0.5-0.3,0.5-1l0.1-0.9
		c0-0.3,0-0.6,0-0.9c0-0.2,0-0.4,0-0.4V138c0-1.2-0.2-2-0.5-2.4c-0.3-0.5-0.9-0.7-1.7-0.7c-0.9,0-1.6,0.3-2,1
		c-0.4,0.5-0.6,1.4-0.6,2.7v2.7c0,0.5,0,0.9,0,0.9c0.1,0.5,0.2,0.7,0.4,0.7c0.1,0,0.2,0,0.4-0.1c0,0,0.1,0,0.1,0c0.1,0,0.1,0,0.1,0
		c0.5,0,0.8,0.2,0.8,0.7c0,0.4-0.3,0.6-0.9,0.6c-0.2,0-0.5,0-0.8-0.1c-0.5-0.1-0.8-0.1-1.2-0.1c-0.2,0-0.5,0-0.9,0.1
		c-0.6,0.1-0.9,0.1-1,0.1c-0.5,0-0.8-0.2-0.8-0.7c0-0.4,0.3-0.6,0.8-0.6c0,0,0.1,0,0.1,0c0.1,0,0.1,0,0.1,0l0.5,0.1c0,0,0,0,0.1,0
		c0.4,0,0.6-0.3,0.6-1v-1.1v-3.1c0-1.1,0-1.8-0.1-2.1s-0.2-0.4-0.5-0.4c-0.1,0-0.2,0-0.6,0.1c-0.1,0-0.2,0-0.3,0
		c-0.5,0-0.7-0.2-0.7-0.6c0-0.5,0.3-0.7,0.8-0.7c0.1,0,0.3,0,0.6,0c0.3,0,0.5,0,0.7,0c0.1,0,0.1,0,0.2,0s0.1,0,0.1,0l0.5-0.1h0.1
		C278.4,134,278.5,134.2,278.5,134.6z"/>
	<path d="M296.6,134.6v0.6c0.7-1,1.8-1.6,3.1-1.6c1.3,0,2.4,0.5,3.2,1.4c0.8,0.9,1.2,2.2,1.2,3.7c0,1.7-0.4,3-1.2,4
		c-0.8,1-1.9,1.5-3.3,1.5c-1.2,0-2.1-0.4-2.8-1.2v1.7c0,0.5,0,0.8,0,1c0.1,0.4,0.3,0.6,0.6,0.6c0.1,0,0.2,0,0.4-0.1s0.3-0.1,0.4-0.1
		c0.4,0,0.6,0.2,0.6,0.7c0,0.4-0.3,0.7-0.8,0.7c-0.2,0-0.5,0-0.9-0.1c-0.3,0-0.7-0.1-1.3-0.1c-0.3,0-0.6,0-0.8,0
		c-0.5,0.1-0.9,0.1-1.1,0.1c-0.2,0-0.4-0.1-0.6-0.2c-0.2-0.1-0.2-0.3-0.2-0.5c0-0.4,0.2-0.6,0.7-0.6c0.1,0,0.2,0,0.4,0.1
		c0.2,0,0.4,0.1,0.5,0.1c0.3,0,0.4-0.1,0.5-0.4s0.1-1,0.1-2.2v-7.7c0-0.6-0.2-0.9-0.5-0.9c-0.1,0-0.2,0-0.4,0.1
		c-0.2,0-0.3,0.1-0.4,0.1c-0.5,0-0.7-0.2-0.7-0.7c0-0.4,0.3-0.6,0.9-0.6c0.1,0,0.3,0,0.5,0c0.3,0,0.6,0,0.7,0c0.1,0,0.3,0,0.5,0
		c0.2,0,0.4,0,0.5,0C296.5,134,296.6,134.2,296.6,134.6z M297,137c-0.1,0.5-0.2,1.2-0.2,1.9c0,0.1,0,0.2,0,0.3c0,0.1,0,0.2,0,0.3
		c0,0.9,0.1,1.5,0.2,2c0.1,0.4,0.4,0.8,0.9,1.1c0.4,0.3,1,0.5,1.6,0.5c1,0,1.7-0.3,2.2-1c0.5-0.7,0.8-1.7,0.8-3c0-2.7-0.9-4-2.8-4
		c-0.6,0-1.2,0.2-1.7,0.6C297.4,135.9,297.1,136.4,297,137z"/>
	<path d="M310.2,144.3c-1.4,0-2.5-0.5-3.4-1.5c-0.8-1-1.3-2.3-1.3-3.9s0.4-2.9,1.3-3.9s2-1.5,3.4-1.5c1.5,0,2.6,0.5,3.4,1.4
		c0.8,0.9,1.3,2.2,1.3,3.9c0,1.6-0.4,2.9-1.3,3.9C312.8,143.8,311.6,144.3,310.2,144.3z M310.3,135c-0.9,0-1.7,0.3-2.2,1
		s-0.8,1.6-0.9,2.8v0.3c0,1.3,0.3,2.2,0.8,3s1.3,1.1,2.2,1.1c1,0,1.7-0.4,2.3-1.1s0.8-1.7,0.8-3C313.3,136.3,312.3,135,310.3,135z"
		/>
	<path d="M319.1,136.8l1.5,6.1l1.6-7c0.2-0.7,0.3-1.2,0.5-1.5c0.2-0.2,0.5-0.4,0.9-0.4c0.4,0,0.7,0.1,0.9,0.4
		c0.2,0.3,0.4,0.7,0.5,1.5l1.5,7l1.5-6.1c0.1-0.4,0.1-0.7,0.1-1v0c0-0.4-0.2-0.5-0.5-0.5c-0.1,0-0.3,0-0.5,0.1
		c-0.2,0-0.4,0.1-0.5,0.1c-0.5,0-0.7-0.2-0.7-0.7c0-0.5,0.3-0.7,1-0.7c0.1,0,0.2,0,0.3,0l0.8,0.1c0.2,0,0.5,0,1,0c0.4,0,0.7,0,1-0.1
		l0.7-0.1c0.1,0,0.1,0,0.2,0c0.6,0,0.9,0.2,0.9,0.7c0,0.4-0.2,0.7-0.7,0.7c-0.1,0-0.3,0-0.3-0.1c-0.2,0-0.3-0.1-0.4-0.1
		c-0.4,0-0.7,0.7-1.1,2.2l-1.4,5.2c-0.2,0.6-0.3,1.1-0.6,1.3s-0.5,0.4-0.9,0.4c-0.7,0-1.2-0.6-1.4-1.7l-1.5-7.1l-1.6,7
		c-0.1,0.7-0.3,1.1-0.6,1.4s-0.5,0.4-0.9,0.4c-0.6,0-1-0.4-1.3-1.2l-1.9-7.2c-0.1-0.4-0.3-0.6-0.6-0.6c-0.1,0-0.2,0-0.4,0.1
		c-0.2,0-0.4,0.1-0.4,0.1c-0.4,0-0.7-0.2-0.7-0.6c0-0.5,0.3-0.7,0.9-0.7c0.1,0,0.2,0,0.2,0l0.9,0.1c0.2,0,0.4,0,0.7,0
		c0.4,0,0.8,0,1.3-0.1c0.6-0.1,0.9-0.1,1-0.1c0.6,0,0.9,0.2,0.9,0.7c0,0.4-0.2,0.7-0.7,0.7c-0.1,0-0.3,0-0.5,0
		c-0.2-0.1-0.3-0.1-0.5-0.1c-0.3,0-0.5,0.2-0.5,0.6C318.9,136.1,319,136.4,319.1,136.8z"/>
	<path d="M341.1,138.1c0,0.5,0,0.8-0.1,0.9c-0.1,0.1-0.3,0.2-0.6,0.2h-6.4c-0.2,0-0.3,0-0.3,0.1s-0.1,0.1-0.1,0.2
		c0,1,0.3,1.8,0.9,2.5c0.6,0.7,1.3,1,2.2,1c0.6,0,1.1-0.2,1.6-0.5s0.8-0.7,1-1.2l0.2-0.6c0.1-0.3,0.3-0.5,0.7-0.5
		c0.5,0,0.7,0.3,0.7,0.8c0,0.9-0.4,1.6-1.3,2.3c-0.9,0.7-1.9,1-3,1c-1.4,0-2.5-0.5-3.3-1.4c-0.8-0.9-1.2-2.2-1.2-3.8
		c0-1.6,0.4-2.9,1.3-4c0.9-1,2-1.5,3.4-1.5c1.3,0,2.3,0.4,3.1,1.3C340.7,135.8,341.1,136.8,341.1,138.1z M333.9,137.6
		c0,0.2,0.1,0.3,0.4,0.3h4.8c0.3,0,0.4-0.1,0.4-0.3c0-0.7-0.3-1.3-0.8-1.8c-0.5-0.5-1.2-0.8-1.9-0.8c-0.7,0-1.4,0.3-2,0.8
		S333.9,136.9,333.9,137.6z"/>
	<path d="M345.6,134.6v0.5c0.7-1,1.6-1.5,2.8-1.5c0.9,0,1.7,0.3,2.3,0.8s0.9,1.2,0.9,2c0,0.6-0.1,1.1-0.4,1.4s-0.7,0.5-1.2,0.5
		c-0.3,0-0.6-0.1-0.8-0.3c-0.2-0.2-0.3-0.4-0.3-0.7c0-0.2,0.1-0.4,0.2-0.6c0.2-0.2,0.3-0.2,0.6-0.2c0,0,0.1,0,0.3,0.1
		c0.1-0.2,0.1-0.3,0.1-0.4c0-0.4-0.2-0.7-0.5-1s-0.8-0.4-1.3-0.4c-1,0-1.7,0.5-2.1,1.4c-0.2,0.6-0.3,1.4-0.3,2.6v1.3
		c0,0.9,0,1.4,0,1.5c0.1,0.8,0.3,1.1,0.6,1.1c0.2,0,0.4,0,0.5-0.1c0.1,0,0.3-0.1,0.4-0.1c0.4,0,0.6,0.2,0.6,0.6
		c0,0.5-0.3,0.7-0.8,0.7h-0.1c-0.2,0-0.5,0-0.9-0.1c-0.4,0-0.7-0.1-0.9-0.1c-0.5,0-1,0-1.3,0l-1.1,0.1c-0.5,0-0.8-0.2-0.8-0.7
		c0-0.4,0.3-0.6,0.8-0.6c0.1,0,0.2,0,0.3,0l0.3,0.1c0.1,0,0.2,0,0.3,0c0.3,0,0.5-0.3,0.5-0.9v-1l-0.1-4.5c0-0.8-0.2-1.2-0.6-1.2
		c-0.1,0-0.3,0-0.4,0.1c-0.2,0-0.3,0.1-0.4,0.1c-0.4,0-0.7-0.2-0.7-0.6c0-0.5,0.3-0.7,0.9-0.7c0.1,0,0.3,0,0.6,0s0.5,0,0.6,0
		c0.1,0,0.3,0,0.5,0c0.1,0,0.2,0,0.4,0C345.5,134,345.6,134.2,345.6,134.6z"/>
	<path d="M355.7,138.2v2.6c0,0.7,0,1.1,0,1.2c0.1,0.6,0.2,0.9,0.5,0.9c0.1,0,0.2,0,0.5-0.1c0.1,0,0.2,0,0.3,0c0.5,0,0.8,0.2,0.8,0.7
		c0,0.2-0.1,0.3-0.3,0.5c-0.2,0.1-0.4,0.2-0.6,0.2c-0.2,0-0.5,0-1-0.1c-0.4-0.1-0.8-0.1-1-0.1c-0.3,0-0.7,0-1.2,0.1
		c-0.5,0.1-0.9,0.1-1,0.1c-0.5,0-0.8-0.2-0.8-0.7c0-0.4,0.2-0.7,0.7-0.7c0.1,0,0.3,0,0.5,0.1c0.2,0,0.4,0.1,0.5,0.1
		c0.3,0,0.5-0.4,0.6-1.3c0-0.1,0-0.6,0-1.7v-1.6c0-1.1,0-1.7,0-1.7c-0.1-0.8-0.3-1.3-0.6-1.3c-0.1,0-0.3,0-0.5,0.1
		c-0.2,0-0.3,0.1-0.4,0.1c-0.5,0-0.7-0.2-0.7-0.6c0-0.5,0.3-0.7,0.9-0.7c0.3,0,0.4,0,0.5,0c0.4,0.1,0.7,0.1,0.8,0.1
		c0.1,0,0.3,0,0.5,0c0.2,0,0.4-0.1,0.5-0.1c0.4,0,0.6,0.3,0.6,0.8c0,0.1,0,0.1,0,0.2s0,0.2,0,0.2c0,0.1,0,0.5,0,1.2
		C355.7,137.1,355.7,137.6,355.7,138.2z M354.6,133c-0.3,0-0.6-0.1-0.8-0.3c-0.2-0.2-0.3-0.5-0.3-0.8s0.1-0.6,0.3-0.8
		c0.2-0.2,0.5-0.3,0.8-0.3s0.6,0.1,0.8,0.3c0.2,0.2,0.3,0.5,0.3,0.8s-0.1,0.6-0.3,0.8S355,133,354.6,133z"/>
	<path d="M361.7,134.6v0.6c0.8-1,1.9-1.5,3.2-1.5c0.7,0,1.4,0.2,2,0.5c0.6,0.4,1.1,0.8,1.3,1.4c0.2,0.5,0.3,1,0.3,1.8v3.8
		c0,0.6,0,0.9,0,1c0.1,0.5,0.2,0.7,0.5,0.7c0.1,0,0.3,0,0.5-0.1c0.2,0,0.3,0,0.4,0c0.2,0,0.3,0.1,0.4,0.2c0.1,0.1,0.2,0.3,0.2,0.4
		c0,0.2-0.1,0.4-0.2,0.5s-0.4,0.2-0.6,0.2c-0.2,0-0.5,0-0.9-0.1s-0.8-0.1-1.2-0.1c-0.3,0-0.6,0-0.9,0c-0.7,0.1-1,0.1-1.1,0.1
		c-0.5,0-0.8-0.2-0.8-0.7c0-0.4,0.2-0.6,0.7-0.6c0.1,0,0.2,0,0.4,0c0.3,0.1,0.4,0.1,0.5,0.1c0.3,0,0.5-0.4,0.5-1.1v-1v-1.2V138
		c0-0.7,0-1.2-0.1-1.5c-0.1-0.5-0.4-0.9-0.8-1.2c-0.4-0.3-0.9-0.5-1.5-0.5c-1.1,0-1.8,0.4-2.3,1.1c-0.3,0.5-0.5,1.4-0.5,2.7v2.7
		c0,0.6,0,1,0.1,1.2s0.2,0.3,0.4,0.3c0.1,0,0.3,0,0.4-0.1c0.2,0,0.3-0.1,0.5-0.1c0.4,0,0.6,0.2,0.6,0.7c0,0.4-0.3,0.7-0.8,0.7
		c-0.1,0-0.5,0-1-0.1c-0.3,0-0.6-0.1-1-0.1c-0.3,0-0.7,0-1.1,0.1c-0.6,0.1-0.9,0.1-1,0.1c-0.6,0-0.8-0.2-0.8-0.7
		c0-0.4,0.2-0.6,0.7-0.6c0.1,0,0.2,0,0.4,0.1s0.4,0.1,0.5,0.1c0.4,0,0.6-0.4,0.6-1.2v-2.2v-2.4v-0.7c0-0.5-0.1-0.8-0.2-0.9
		s-0.2-0.2-0.5-0.2c-0.1,0-0.2,0-0.4,0c-0.2,0-0.3,0-0.4,0c-0.5,0-0.7-0.2-0.7-0.6c0-0.4,0.3-0.7,0.9-0.7c0.1,0,0.1,0,0.2,0l0.7,0.1
		c0.2,0,0.4,0,0.6,0c0.3,0,0.5,0,0.5,0C361.5,134,361.7,134.2,361.7,134.6z"/>
	<path d="M376.1,133.7c0.3,0,0.7,0.1,1.2,0.2c0.1-1.3,0.8-2,2.3-2c0.6,0,1.1,0.2,1.5,0.5c0.4,0.3,0.6,0.7,0.6,1.2
		c0,0.3-0.1,0.6-0.3,0.8c-0.2,0.2-0.5,0.3-0.7,0.3c-0.2,0-0.4-0.1-0.6-0.2s-0.2-0.3-0.2-0.5c0-0.2,0.1-0.4,0.4-0.7
		c-0.2-0.3-0.5-0.4-0.8-0.4c-0.7,0-1.1,0.4-1.1,1.3c1,0.7,1.5,1.6,1.5,2.7c0,0.9-0.3,1.7-1,2.3s-1.6,0.9-2.6,0.9
		c-0.7,0-1.5-0.2-2.3-0.5c-0.2-0.1-0.4-0.1-0.5-0.1c-0.2,0-0.4,0.1-0.5,0.2c-0.1,0.2-0.2,0.4-0.2,0.6c0,0.7,0.7,1,2.1,1h0.1
		c0.1,0,0.2,0,0.4,0s0.2,0,0.2,0c1.3,0,2.3,0.1,3.1,0.4c0.7,0.2,1.3,0.6,1.7,1.1s0.6,1,0.6,1.6c0,1-0.5,1.7-1.4,2.3
		c-0.9,0.6-2.1,0.8-3.6,0.8s-2.7-0.3-3.6-0.8c-0.9-0.5-1.3-1.3-1.3-2.2c0-1.1,0.6-1.8,1.8-2.3c-1.1-0.4-1.6-1.1-1.6-1.9
		c0-0.9,0.5-1.6,1.6-1.9c-0.3-0.5-0.5-1-0.5-1.6c0-0.9,0.4-1.7,1.1-2.3C374.2,134,375.1,133.7,376.1,133.7z M376.2,142.7
		c-1.1,0-1.9,0.2-2.5,0.5c-0.6,0.3-0.9,0.8-0.9,1.3c0,0.5,0.3,1,0.9,1.3s1.4,0.5,2.4,0.5c1.1,0,1.9-0.2,2.5-0.5
		c0.6-0.3,0.9-0.7,0.9-1.3c0-0.6-0.3-1-0.9-1.3C378.1,142.9,377.3,142.7,376.2,142.7z M376.2,135c-0.6,0-1.1,0.2-1.5,0.5
		c-0.4,0.3-0.6,0.8-0.7,1.3v0.1c0,0.6,0.2,1.1,0.6,1.4c0.4,0.4,0.9,0.5,1.6,0.5c0.7,0,1.2-0.2,1.6-0.5c0.4-0.4,0.6-0.8,0.6-1.4
		c0-0.6-0.2-1-0.6-1.4C377.4,135.2,376.8,135,376.2,135z"/>
	<path d="M393.3,130.2c1.5,0,2.7,0.6,3.6,1.7v-0.2c0-0.1,0-0.1,0-0.2c0-0.1,0-0.1,0-0.1c0-0.3,0-0.4,0-0.4c0-0.5,0.2-0.7,0.6-0.7
		c0.4,0,0.7,0.3,0.7,0.8c0,0.1,0,0.4,0,1c-0.1,0.7-0.1,1.1-0.1,1.4c0,0.4,0,0.7,0.1,1.1l0.1,0.8v0.2c0,0.6-0.2,0.9-0.7,0.9
		c-0.5,0-0.8-0.3-0.8-0.9v-0.7c0-1-0.3-1.7-0.9-2.3s-1.4-0.9-2.5-0.9c-1.3,0-2.3,0.5-3.1,1.5c-0.7,1-1.1,2.4-1.1,4.2
		c0,1.8,0.4,3.2,1.1,4.3c0.8,1,1.8,1.5,3.2,1.5c0.7,0,1.4-0.2,2-0.5c0.6-0.4,1-0.8,1.2-1.4c0.2-0.4,0.2-0.9,0.2-1.6
		c0-0.6,0.3-0.9,0.8-0.9c0.5,0,0.8,0.3,0.8,0.9c0,1.4-0.5,2.6-1.5,3.5c-1,0.9-2.3,1.4-3.8,1.4c-1.8,0-3.2-0.6-4.3-1.9
		c-1.1-1.3-1.6-3-1.6-5.1c0-2.2,0.6-3.9,1.7-5.3C390,130.9,391.5,130.2,393.3,130.2z"/>
	<path d="M404.6,144.3c-1.4,0-2.5-0.5-3.4-1.5c-0.8-1-1.3-2.3-1.3-3.9s0.4-2.9,1.3-3.9s2-1.5,3.4-1.5c1.5,0,2.6,0.5,3.4,1.4
		c0.8,0.9,1.3,2.2,1.3,3.9c0,1.6-0.4,2.9-1.3,3.9C407.2,143.8,406.1,144.3,404.6,144.3z M404.7,135c-0.9,0-1.7,0.3-2.2,1
		s-0.8,1.6-0.9,2.8v0.3c0,1.3,0.3,2.2,0.8,3s1.3,1.1,2.2,1.1c1,0,1.7-0.4,2.3-1.1c0.6-0.7,0.8-1.7,0.8-3
		C407.8,136.3,406.8,135,404.7,135z"/>
	<path d="M414,134.6v0.6c0.5-0.6,0.9-1,1.4-1.2c0.4-0.2,1-0.3,1.6-0.3c1.3,0,2.3,0.5,2.9,1.5c0.5-0.6,0.9-1,1.4-1.2s1.1-0.3,1.8-0.3
		c0.8,0,1.4,0.2,2,0.5c0.7,0.4,1.1,0.9,1.4,1.5c0.2,0.4,0.3,1.1,0.3,2.1v1.9v1.5c0,0.5,0,0.9,0,1c0.1,0.5,0.2,0.7,0.5,0.7
		c0.1,0,0.2,0,0.4-0.1c0.2,0,0.3-0.1,0.4-0.1c0.5,0,0.7,0.2,0.7,0.6c0,0.5-0.3,0.7-0.8,0.7c-0.2,0-0.5,0-0.9-0.1
		c-0.4,0-0.7-0.1-0.9-0.1c-0.2,0-0.6,0-1,0.1c-0.4,0-0.8,0.1-1,0.1c-0.6,0-0.8-0.2-0.8-0.7c0-0.4,0.2-0.6,0.6-0.6c0.1,0,0.2,0,0.4,0
		c0.1,0,0.2,0,0.3,0c0.2,0,0.4-0.1,0.4-0.3c0.1-0.2,0.1-0.8,0.1-1.7v-1.2v-1.3c0-0.9-0.1-1.6-0.2-2c-0.1-0.4-0.4-0.8-0.8-1
		c-0.4-0.2-0.8-0.4-1.3-0.4c-0.9,0-1.6,0.3-2,1c-0.3,0.5-0.4,1.4-0.4,2.7v1.4c0,1.3,0,2,0.1,2.3c0.1,0.3,0.2,0.5,0.5,0.5
		c0.1,0,0.2,0,0.3,0c0.2,0,0.3,0,0.3,0c0.2,0,0.3,0.1,0.5,0.2c0.1,0.1,0.2,0.3,0.2,0.5c0,0.4-0.3,0.7-0.9,0.7c-0.2,0-0.5,0-0.9-0.1
		c-0.4-0.1-0.7-0.1-0.9-0.1c-0.3,0-0.6,0-0.9,0.1s-0.6,0.1-0.9,0.1c-0.5,0-0.8-0.2-0.8-0.7c0-0.4,0.2-0.6,0.6-0.6
		c0.1,0,0.3,0,0.3,0.1c0.2,0.1,0.3,0.1,0.4,0.1c0.3,0,0.5-0.3,0.5-1l0.1-0.9c0-0.3,0-0.6,0-0.9c0-0.2,0-0.4,0-0.4V138
		c0-1.2-0.2-2-0.5-2.4c-0.3-0.5-0.9-0.7-1.7-0.7c-0.9,0-1.6,0.3-2,1c-0.4,0.5-0.6,1.4-0.6,2.7v2.7c0,0.5,0,0.9,0,0.9
		c0.1,0.5,0.2,0.7,0.4,0.7c0.1,0,0.2,0,0.4-0.1c0,0,0.1,0,0.1,0c0.1,0,0.1,0,0.1,0c0.5,0,0.8,0.2,0.8,0.7c0,0.4-0.3,0.6-0.9,0.6
		c-0.2,0-0.5,0-0.8-0.1c-0.5-0.1-0.8-0.1-1.2-0.1c-0.2,0-0.5,0-0.9,0.1c-0.6,0.1-0.9,0.1-1,0.1c-0.5,0-0.8-0.2-0.8-0.7
		c0-0.4,0.3-0.6,0.8-0.6c0,0,0.1,0,0.1,0c0.1,0,0.1,0,0.1,0l0.5,0.1c0,0,0,0,0.1,0c0.4,0,0.6-0.3,0.6-1v-1.1v-3.1
		c0-1.1,0-1.8-0.1-2.1c-0.1-0.3-0.2-0.4-0.5-0.4c-0.1,0-0.2,0-0.6,0.1c-0.1,0-0.2,0-0.3,0c-0.5,0-0.7-0.2-0.7-0.6
		c0-0.5,0.3-0.7,0.8-0.7c0.1,0,0.3,0,0.6,0c0.3,0,0.5,0,0.7,0c0.1,0,0.1,0,0.2,0s0.1,0,0.1,0l0.5-0.1h0.1
		C413.8,134,414,134.2,414,134.6z"/>
	<path d="M432.5,134.6v0.6c0.5-0.6,0.9-1,1.4-1.2c0.4-0.2,1-0.3,1.6-0.3c1.3,0,2.3,0.5,2.9,1.5c0.5-0.6,0.9-1,1.4-1.2
		s1.1-0.3,1.8-0.3c0.8,0,1.4,0.2,2,0.5c0.7,0.4,1.1,0.9,1.4,1.5c0.2,0.4,0.3,1.1,0.3,2.1v1.9v1.5c0,0.5,0,0.9,0,1
		c0.1,0.5,0.2,0.7,0.5,0.7c0.1,0,0.2,0,0.4-0.1c0.2,0,0.3-0.1,0.4-0.1c0.5,0,0.7,0.2,0.7,0.6c0,0.5-0.3,0.7-0.8,0.7
		c-0.2,0-0.5,0-0.9-0.1c-0.4,0-0.7-0.1-0.9-0.1c-0.2,0-0.6,0-1,0.1c-0.4,0-0.8,0.1-1,0.1c-0.6,0-0.8-0.2-0.8-0.7
		c0-0.4,0.2-0.6,0.6-0.6c0.1,0,0.2,0,0.4,0c0.1,0,0.2,0,0.3,0c0.2,0,0.4-0.1,0.4-0.3c0.1-0.2,0.1-0.8,0.1-1.7v-1.2v-1.3
		c0-0.9-0.1-1.6-0.2-2c-0.1-0.4-0.4-0.8-0.8-1c-0.4-0.2-0.8-0.4-1.3-0.4c-0.9,0-1.6,0.3-2,1c-0.3,0.5-0.4,1.4-0.4,2.7v1.4
		c0,1.3,0,2,0.1,2.3c0.1,0.3,0.2,0.5,0.5,0.5c0.1,0,0.2,0,0.3,0c0.2,0,0.3,0,0.3,0c0.2,0,0.3,0.1,0.5,0.2c0.1,0.1,0.2,0.3,0.2,0.5
		c0,0.4-0.3,0.7-0.9,0.7c-0.2,0-0.5,0-0.9-0.1c-0.4-0.1-0.7-0.1-0.9-0.1c-0.3,0-0.6,0-0.9,0.1s-0.6,0.1-0.9,0.1
		c-0.5,0-0.8-0.2-0.8-0.7c0-0.4,0.2-0.6,0.6-0.6c0.1,0,0.3,0,0.3,0.1c0.2,0.1,0.3,0.1,0.4,0.1c0.3,0,0.5-0.3,0.5-1l0.1-0.9
		c0-0.3,0-0.6,0-0.9c0-0.2,0-0.4,0-0.4V138c0-1.2-0.2-2-0.5-2.4c-0.3-0.5-0.9-0.7-1.7-0.7c-0.9,0-1.6,0.3-2,1
		c-0.4,0.5-0.6,1.4-0.6,2.7v2.7c0,0.5,0,0.9,0,0.9c0.1,0.5,0.2,0.7,0.4,0.7c0.1,0,0.2,0,0.4-0.1c0,0,0.1,0,0.1,0c0.1,0,0.1,0,0.1,0
		c0.5,0,0.8,0.2,0.8,0.7c0,0.4-0.3,0.6-0.9,0.6c-0.2,0-0.5,0-0.8-0.1c-0.5-0.1-0.8-0.1-1.2-0.1c-0.2,0-0.5,0-0.9,0.1
		c-0.6,0.1-0.9,0.1-1,0.1c-0.5,0-0.8-0.2-0.8-0.7c0-0.4,0.3-0.6,0.8-0.6c0,0,0.1,0,0.1,0c0.1,0,0.1,0,0.1,0l0.5,0.1c0,0,0,0,0.1,0
		c0.4,0,0.6-0.3,0.6-1v-1.1v-3.1c0-1.1,0-1.8-0.1-2.1c-0.1-0.3-0.2-0.4-0.5-0.4c-0.1,0-0.2,0-0.6,0.1c-0.1,0-0.2,0-0.3,0
		c-0.5,0-0.7-0.2-0.7-0.6c0-0.5,0.3-0.7,0.8-0.7c0.1,0,0.3,0,0.6,0c0.3,0,0.5,0,0.7,0c0.1,0,0.1,0,0.2,0s0.1,0,0.1,0l0.5-0.1h0.1
		C432.4,134,432.5,134.2,432.5,134.6z"/>
	<path d="M456.3,143.5v-0.6c-0.7,1-1.8,1.5-3.1,1.5c-1.6,0-2.7-0.5-3.3-1.5c-0.3-0.4-0.4-0.9-0.4-1.5c0-0.3,0-0.9,0-1.8V138
		c0-1.8-0.2-2.7-0.6-2.7c-0.1,0-0.2,0-0.4,0s-0.3,0-0.4,0c-0.5,0-0.7-0.2-0.7-0.7c0-0.4,0.3-0.6,0.9-0.6c0.1,0,0.3,0,0.6,0
		s0.5,0,0.6,0c0.1,0,0.3,0,0.6-0.1c0.2,0,0.3,0,0.3,0c0.4,0,0.6,0.3,0.6,0.8v0.4v1.3l-0.1,1.5v1.3c0,1.2,0.1,2,0.3,2.5
		c0.3,0.8,1,1.3,2.2,1.3c0.6,0,1.1-0.1,1.5-0.4c0.4-0.3,0.7-0.6,0.9-1c0.2-0.5,0.3-1.5,0.3-3v-1.1c0-0.8,0-1.2,0-1.3
		c-0.1-0.6-0.2-1-0.5-1c-0.1,0-0.3,0-0.4,0H455c-0.5,0-0.7-0.2-0.7-0.6c0-0.5,0.3-0.7,0.8-0.7c0.1,0,0.3,0,0.5,0c0.2,0,0.4,0,0.6,0
		c0.1,0,0.3,0,0.5,0s0.4,0,0.5,0c0.4,0,0.6,0.2,0.6,0.6c0,0.2,0,0.3,0,0.4c-0.1,0.5-0.1,1.3-0.1,2.2v3.1c0,0.8,0,1.3,0,1.4
		c0.1,0.7,0.3,1.1,0.6,1.1c0.1,0,0.2,0,0.4,0c0.2,0,0.3,0,0.4,0c0.5,0,0.7,0.2,0.7,0.7c0,0.5-0.3,0.7-0.8,0.7c-0.1,0-0.3,0-0.5,0
		c-0.3,0-0.5-0.1-0.6-0.1c0,0-0.2,0-0.4,0c-0.2,0-0.3,0.1-0.4,0.1C456.5,144.1,456.3,143.9,456.3,143.5z"/>
	<path d="M463.5,134.6v0.6c0.8-1,1.9-1.5,3.2-1.5c0.7,0,1.4,0.2,2,0.5c0.6,0.4,1.1,0.8,1.3,1.4c0.2,0.5,0.3,1,0.3,1.8v3.8
		c0,0.6,0,0.9,0,1c0.1,0.5,0.2,0.7,0.5,0.7c0.1,0,0.3,0,0.5-0.1c0.2,0,0.3,0,0.4,0c0.2,0,0.3,0.1,0.5,0.2c0.1,0.1,0.2,0.3,0.2,0.4
		c0,0.2-0.1,0.4-0.2,0.5s-0.4,0.2-0.6,0.2c-0.2,0-0.5,0-0.9-0.1s-0.8-0.1-1.2-0.1c-0.3,0-0.6,0-0.9,0c-0.7,0.1-1,0.1-1.1,0.1
		c-0.5,0-0.8-0.2-0.8-0.7c0-0.4,0.2-0.6,0.7-0.6c0.1,0,0.2,0,0.4,0c0.3,0.1,0.4,0.1,0.5,0.1c0.3,0,0.5-0.4,0.5-1.1v-1v-1.2V138
		c0-0.7,0-1.2-0.1-1.5c-0.1-0.5-0.4-0.9-0.8-1.2c-0.4-0.3-0.9-0.5-1.5-0.5c-1.1,0-1.8,0.4-2.3,1.1c-0.3,0.5-0.5,1.4-0.5,2.7v2.7
		c0,0.6,0,1,0.1,1.2s0.2,0.3,0.4,0.3c0.1,0,0.3,0,0.4-0.1c0.2,0,0.3-0.1,0.5-0.1c0.4,0,0.6,0.2,0.6,0.7c0,0.4-0.3,0.7-0.8,0.7
		c-0.1,0-0.5,0-1-0.1c-0.3,0-0.6-0.1-1-0.1c-0.3,0-0.7,0-1.1,0.1c-0.6,0.1-0.9,0.1-1,0.1c-0.6,0-0.8-0.2-0.8-0.7
		c0-0.4,0.2-0.6,0.7-0.6c0.1,0,0.2,0,0.4,0.1s0.4,0.1,0.5,0.1c0.4,0,0.6-0.4,0.6-1.2v-2.2v-2.4v-0.7c0-0.5-0.1-0.8-0.2-0.9
		s-0.2-0.2-0.5-0.2c-0.1,0-0.2,0-0.4,0s-0.3,0-0.4,0c-0.5,0-0.7-0.2-0.7-0.6c0-0.4,0.3-0.7,0.9-0.7c0.1,0,0.1,0,0.2,0l0.7,0.1
		c0.2,0,0.4,0,0.6,0c0.3,0,0.5,0,0.5,0C463.3,134,463.5,134.2,463.5,134.6z"/>
	<path d="M476.4,138.2v2.6c0,0.7,0,1.1,0,1.2c0.1,0.6,0.2,0.9,0.5,0.9c0.1,0,0.2,0,0.5-0.1c0.1,0,0.2,0,0.3,0c0.5,0,0.8,0.2,0.8,0.7
		c0,0.2-0.1,0.3-0.3,0.5c-0.2,0.1-0.4,0.2-0.6,0.2c-0.2,0-0.5,0-1-0.1c-0.4-0.1-0.8-0.1-1-0.1c-0.3,0-0.7,0-1.2,0.1
		c-0.5,0.1-0.9,0.1-1,0.1c-0.5,0-0.8-0.2-0.8-0.7c0-0.4,0.2-0.7,0.7-0.7c0.1,0,0.3,0,0.5,0.1c0.2,0,0.4,0.1,0.5,0.1
		c0.3,0,0.5-0.4,0.6-1.3c0-0.1,0-0.6,0-1.7v-1.6c0-1.1,0-1.7,0-1.7c-0.1-0.8-0.3-1.3-0.6-1.3c-0.1,0-0.3,0-0.5,0.1
		c-0.2,0-0.3,0.1-0.4,0.1c-0.5,0-0.7-0.2-0.7-0.6c0-0.5,0.3-0.7,0.9-0.7c0.3,0,0.4,0,0.5,0c0.4,0.1,0.7,0.1,0.8,0.1
		c0.1,0,0.3,0,0.5,0c0.2,0,0.4-0.1,0.5-0.1c0.4,0,0.6,0.3,0.6,0.8c0,0.1,0,0.1,0,0.2s0,0.2,0,0.2c0,0.1,0,0.5,0,1.2
		C476.5,137.1,476.4,137.6,476.4,138.2z M475.4,133c-0.3,0-0.6-0.1-0.8-0.3c-0.2-0.2-0.3-0.5-0.3-0.8s0.1-0.6,0.3-0.8
		c0.2-0.2,0.5-0.3,0.8-0.3c0.3,0,0.6,0.1,0.8,0.3c0.2,0.2,0.3,0.5,0.3,0.8s-0.1,0.6-0.3,0.8C476,132.8,475.7,133,475.4,133z"/>
	<path d="M485,141.2V140c0-0.5,0.3-0.8,0.7-0.8s0.7,0.3,0.7,0.9c0,1.5-0.2,2.5-0.6,3c-0.5,0.8-1.3,1.2-2.5,1.2c-1.1,0-1.8-0.3-2.3-1
		c-0.3-0.5-0.5-1.3-0.5-2.5v-4.8c0-0.3-0.1-0.4-0.4-0.4h-0.7c-0.2,0-0.4-0.1-0.5-0.2c-0.1-0.1-0.2-0.3-0.2-0.5
		c0-0.2,0.1-0.4,0.2-0.5s0.3-0.2,0.5-0.2h0.8c0.2,0,0.3-0.1,0.3-0.4v-2.1c0-0.5,0.3-0.8,0.8-0.8c0.5,0,0.7,0.3,0.7,0.8v2.1
		c0,0.2,0.1,0.3,0.4,0.3h2.2c0.5,0,0.8,0.2,0.8,0.7c0,0.5-0.3,0.7-0.8,0.7h-2.2c-0.2,0-0.3,0.1-0.3,0.4v4.9c0,1.4,0.5,2.1,1.4,2.1
		C484.4,142.9,484.9,142.4,485,141.2z"/>
	<path d="M490.6,138.2v2.6c0,0.7,0,1.1,0,1.2c0.1,0.6,0.2,0.9,0.5,0.9c0.1,0,0.2,0,0.5-0.1c0.1,0,0.2,0,0.3,0c0.5,0,0.8,0.2,0.8,0.7
		c0,0.2-0.1,0.3-0.3,0.5c-0.2,0.1-0.4,0.2-0.6,0.2c-0.2,0-0.5,0-1-0.1c-0.4-0.1-0.8-0.1-1-0.1c-0.3,0-0.7,0-1.2,0.1
		c-0.5,0.1-0.9,0.1-1,0.1c-0.5,0-0.8-0.2-0.8-0.7c0-0.4,0.2-0.7,0.7-0.7c0.1,0,0.3,0,0.5,0.1c0.2,0,0.4,0.1,0.5,0.1
		c0.3,0,0.5-0.4,0.6-1.3c0-0.1,0-0.6,0-1.7v-1.6c0-1.1,0-1.7,0-1.7c-0.1-0.8-0.3-1.3-0.6-1.3c-0.1,0-0.3,0-0.5,0.1
		c-0.2,0-0.3,0.1-0.4,0.1c-0.5,0-0.7-0.2-0.7-0.6c0-0.5,0.3-0.7,0.9-0.7c0.3,0,0.4,0,0.5,0c0.4,0.1,0.7,0.1,0.8,0.1
		c0.1,0,0.3,0,0.5,0c0.2,0,0.4-0.1,0.5-0.1c0.4,0,0.6,0.3,0.6,0.8c0,0.1,0,0.1,0,0.2s0,0.2,0,0.2c0,0.1,0,0.5,0,1.2
		C490.7,137.1,490.6,137.6,490.6,138.2z M489.6,133c-0.3,0-0.6-0.1-0.8-0.3c-0.2-0.2-0.3-0.5-0.3-0.8s0.1-0.6,0.3-0.8
		c0.2-0.2,0.5-0.3,0.8-0.3c0.3,0,0.6,0.1,0.8,0.3c0.2,0.2,0.3,0.5,0.3,0.8s-0.1,0.6-0.3,0.8C490.2,132.8,489.9,133,489.6,133z"/>
	<path d="M502.7,138.1c0,0.5,0,0.8-0.1,0.9s-0.3,0.2-0.6,0.2h-6.4c-0.2,0-0.3,0-0.3,0.1c-0.1,0-0.1,0.1-0.1,0.2c0,1,0.3,1.8,0.9,2.5
		c0.6,0.7,1.3,1,2.2,1c0.6,0,1.1-0.2,1.6-0.5c0.5-0.3,0.8-0.7,0.9-1.2l0.2-0.6c0.1-0.3,0.3-0.5,0.7-0.5c0.5,0,0.7,0.3,0.7,0.8
		c0,0.9-0.4,1.6-1.3,2.3s-1.9,1-3,1c-1.4,0-2.5-0.5-3.3-1.4c-0.8-0.9-1.2-2.2-1.2-3.8c0-1.6,0.4-2.9,1.3-4c0.9-1,2-1.5,3.4-1.5
		c1.3,0,2.3,0.4,3.1,1.3S502.7,136.8,502.7,138.1z M495.4,137.6c0,0.2,0.1,0.3,0.4,0.3h4.8c0.3,0,0.4-0.1,0.4-0.3
		c0-0.7-0.3-1.3-0.8-1.8c-0.5-0.5-1.2-0.8-1.9-0.8c-0.7,0-1.4,0.3-2,0.8S495.4,136.9,495.4,137.6z"/>
	<path d="M508.4,133.7c0.9,0,1.6,0.2,2.2,0.7v-0.1c0-0.5,0.2-0.7,0.6-0.7c0.4,0,0.7,0.2,0.7,0.6c0,0.1,0,0.3,0,0.6
		c0,0.3-0.1,0.5-0.1,0.8c0,0.2,0,0.4,0,0.7s0,0.5,0,0.7c0,0.5-0.2,0.8-0.6,0.8c-0.4,0-0.6-0.2-0.7-0.6v-0.7c0-0.4-0.2-0.7-0.7-1
		c-0.4-0.3-1-0.4-1.6-0.4c-0.6,0-1.1,0.2-1.5,0.5s-0.6,0.7-0.6,1.2c0,0.9,0.6,1.4,1.8,1.5l1.2,0.2c2.3,0.3,3.4,1.2,3.4,2.8
		c0,1-0.4,1.7-1.1,2.3c-0.7,0.6-1.7,0.9-2.9,0.9c-1.1,0-2.1-0.3-2.9-0.9c0,0.1,0,0.3,0,0.4c0,0.5-0.2,0.7-0.7,0.7
		c-0.5,0-0.7-0.3-0.7-0.8c0,0.1,0-0.3,0.1-1c0-0.2,0-0.4,0-0.6c0-0.3,0-0.6-0.1-0.9c-0.1-0.3-0.1-0.5-0.1-0.7c0-0.5,0.2-0.7,0.6-0.7
		c0.3,0,0.5,0.1,0.5,0.2c0.1,0.1,0.1,0.5,0.1,1.1c0,0.6,0.3,1,0.9,1.4c0.6,0.4,1.3,0.5,2.2,0.5c0.7,0,1.2-0.2,1.6-0.5
		c0.4-0.3,0.6-0.8,0.6-1.3c0-0.9-0.7-1.4-2.2-1.6c-1.4-0.1-2.4-0.4-3.1-0.8c-0.7-0.4-1.1-1.1-1.1-2.1c0-0.9,0.4-1.7,1.1-2.3
		C506.3,134,507.2,133.7,508.4,133.7z"/>
	<path d="M515.9,144.3c-0.3,0-0.6-0.1-0.9-0.4c-0.2-0.2-0.4-0.5-0.4-0.9s0.1-0.6,0.4-0.9c0.2-0.2,0.5-0.4,0.9-0.4s0.6,0.1,0.9,0.4
		c0.2,0.2,0.4,0.5,0.4,0.9s-0.1,0.6-0.4,0.9C516.6,144.2,516.3,144.3,515.9,144.3z"/>
</g>
</svg>
