<svg xmlns="http://www.w3.org/2000/svg" width="20.01" height="18.965" viewBox="0 0 20.01 18.965">
  <defs>
    <style>
      .cls-1 {
        fill: none;
        stroke: #000;
        stroke-linecap: round;
        stroke-linejoin: round;
        stroke-width: 1.5px;
      }
    </style>
  </defs>
  <g id="Logos_Professional-Networks_professional-network-linkedin" data-name="Logos / Professional-Networks / professional-network-linkedin" transform="translate(0.75 0.75)">
    <path id="Path_11" data-name="Path 11" class="cls-1" d="M276.864,963.844h-3.992V952.4h3.992Zm8.3-7.72a1.76,1.76,0,0,0-1.761,1.761v5.958h-4.2V952.4h4.2V953.7a5.555,5.555,0,0,1,3.514-1.317c2.608,0,4.412,1.934,4.412,5.6v5.86h-4.4v-5.958A1.761,1.761,0,0,0,285.159,956.124Zm-8.237-7.69a2.055,2.055,0,1,1-2.055-2.055A2.055,2.055,0,0,1,276.922,948.434Z" transform="translate(-272.813 -946.379)"/>
  </g>
</svg>
