<?xml version="1.0" encoding="utf-8"?>
<!-- Generator: Adobe Illustrator 18.1.1, SVG Export Plug-In . SVG Version: 6.00 Build 0)  -->
<svg version="1.1" id="Layer_1" xmlns="http://www.w3.org/2000/svg" xmlns:xlink="http://www.w3.org/1999/xlink" x="0px" y="0px"
	 viewBox="440 77 1165 100" enable-background="new 440 77 1165 100" xml:space="preserve">
<filter  width="110.4%" height="131.1%" x="-5.2%" id="filter-4" filterUnits="objectBoundingBox" y="-11.1%">
	<feOffset  dx="0" in="SourceAlpha" result="shadowOffsetOuter1" dy="2"></feOffset>
	<feGaussianBlur  in="shadowOffsetOuter1" result="shadowBlurOuter1" stdDeviation="2"></feGaussianBlur>
	<feColorMatrix  type="matrix" values="0 0 0 0 0   0 0 0 0 0   0 0 0 0 0  0 0 0 0.272180944 0" in="shadowBlurOuter1">
		</feColorMatrix>
</filter>
<title>1165x100 Collapsed</title>
<desc>Created with Sketch.</desc>
<g id="Page-1">
	<g id="Direction-_x23_1-grey-Revisions" transform="translate(-91.000000, -987.000000)">
		<g id="_x31_165x100-Collapsed" transform="translate(91.000000, 987.000000)">
			<rect id="Rectangle-Copy-3" x="440" y="77" fill="#EBEBEB" width="1165" height="100"/>
			<g id="skyline-Background">
				<g id="Rectangle-Copy-5">
				</g>
				<defs>
					<filter id="Adobe_OpacityMaskFilter" filterUnits="userSpaceOnUse" x="264" y="53" width="1407.2" height="132">
						<feColorMatrix  type="matrix" values="1 0 0 0 0  0 1 0 0 0  0 0 1 0 0  0 0 0 1 0"/>
					</filter>
				</defs>
				<mask maskUnits="userSpaceOnUse" x="264" y="53" width="1407.2" height="132" id="mask-2">
					<g filter="url(#Adobe_OpacityMaskFilter)">
						<rect id="path-1" x="440" y="77" fill="#FFFFFF" width="1165" height="100"/>
					</g>
				</mask>
				<g id="Skyline" mask="url(#mask-2)">
					<g transform="translate(-176.000000, -24.000000)">
						<g>
							<path id="Combined-Shape" fill="#B6B6B6" d="M698.1,152.2v-21.8h3.8v-3.2h9.7v3h3.5v25h3.8h3.2V153h17.5V147h2.4v-41.5h3.5
								v-4.8h2.7v-6.2h2.4v5.9h2.4v5.4h4v36.2h8.5v-2.3h1.1v-1.8v-2.8h3v4.6h0.7v1.2h1.2v0.6h9.2v10.2h0.9v-9.2h6.1v-12.6h6.7v11.6
								h2.4v1.1h9.2v-26.6l15.3-17.2h3v48.7h5.1v-5.7h16.4v5.7h4.8V97.8h5.4v-4.3h11v4.6h5.4v46.3h9.7v4.6h9.4v-21.5l2.4-1.9h12.7
								l2.4,2.4v25.6h6.7v14.8h6.5v40.4h-84v0.3H536.8v-27.6v-4.9h1.2v-10.9h1.3v-6.7h1.3v-1.1h0.8V155h8.2v2.7h1.2v1.5h0.9v10.7
								h5.6h5v-23.5h1.5V145h0.7v-1.1l4.4-3.2l4.1,3.5v1h0.5v18.6h8.2v-3.6h13.3v-57.8h3v-2.1h3.9h0.1l0.4-23.2l0.4,23.2h4v2.5h3.4
								v39.7h10.4V167h7.2v-1.8h2.4v4.6h4.6v-23h7.5v8.9h1.8v-30.3H658v43.1h1.2v-10.5h4.2v10.2h0.8V151h3v-11.1h16.1v26.8v7.4h4.9
								v-6.7h0.7v-2.9h1v-10h2v-10.4h4.3v8.1H698.1z"/>
							<path id="Combined-Shape_1_" fill="#4D4D4D" d="M715.2,171.8V170v-15.9h1.3v-2.4l3.8-8.7v-3.8l0.9-5l0.9,5v3.8l3.8,8.7v2.4
								h1.4V170v2.7h0.2v-8.3h4.2v-1.8h1.4v1.7h0.5v-0.8h2.9v1.7h1.3v-0.9h3.9v2.8h0.5v10.3h0.8v5.2h1.3v6.3h1v-13.2h1.4v-6h0.9V168
								h2.1v9.2h0.7v-2h1.5v-1.8h1.7V166h1v-0.7h0.7v-1.1l1.1-1.6v-1.7h0.9v1.8l1.1,1.7v1.1h0.8v0.8h0.7v7.5h1.6V157h6.6v11.6h5
								v-25.5h18.3v1.7h0.6V166v10.3h4.1v-9.6h2.7v-2h4.6v2.1c0,0,5.1,0.2,5.1,0s0-13.7,0-13.7h-0.9v-1.6h21.1v1.8h-1.1v25.1h2.9
								v2.8h0.9v-19.6h4.4v-2.2h7.2v2.5h4.4v22.2h9.5v2.1h6.3v-34.3h9.1v-4.3h4.6v-2.7h8.1v2.5h3.5v9.1h8.7v-2.6h5.9v2.8h4.5V197h1
								v-0.9h4v1.1h7.9v2.1h17v-7.4h27.8v2.2h20.5v2.5h17.2v3.8h33.1v5H888v1.6v0H597.6V193v-5.6h6.5v-14.5h15.4v9.5h3.2h2.2v-24.4
								h1.6v-1.5h0.9h0.2c0.5-1.9,2.2-3.3,4.3-3.3s3.8,1.4,4.3,3.3h1.2v1.6h1.2v14.3h3.6v11.9h0.6v-12.2h0.9v-11.4h1.2v-1.1h0.7
								v-1.3l1.8-1.8h5.2l1.6,2.1v1.1h0.8v1.2h0.8v11.6h0.9v7.8h1V168h0.8v-1.8h0.8v-1h0.8v-1.1h2.5v1h0.8v1.3h0.7v1.8h0.6v1.1h1.4
								v2.7h2.2v-1.3h0.3v-1.4h0.9v-1.9h0.3v-0.7h0.2v-1h1.5v1h2.9v2h2.1v-6.5h1.4l4.4,1.6v1.7h2.2v19.6c0,0,2.2,0.2,2.2,0
								c0-0.1,0-11.3,0-11.3h1.2v-1h0.2v-0.6h0.3v-0.5h1.2v0.5h0.4v0.6h0.3v-2h2.8v15.7h0.5v-9.5h2.4v-12.8h2.3v-4.5h1v-2h2.4v2h0.7
								v0.7h0.7v3.3h0.8v1.5h4v2.2h0.9v6.3h0.8v1.2h1v1.1h0.5v-4.3H715.2z"/>
							<path id="Combined-Shape_2_" fill="#7D7D7D" d="M788.4,189v-6.6h5.5v8.2h2.9v-0.1h1v-0.1h1.5V189h0.4v-1h6v-6.9h18v4.7h1.9
								v0.1h3.7v-3.5h1.6v-1.8h12.8v0.7h0.6v-1.5h5.3v1.5h2.1v8.7h6.1v2.3h4.1v2.9h2V193h3.6v2.2h2.6v-6.5h0.2v-5.9h5v-2.5h2.5v2.5
								h5v6.2h4.2v3.8h1.4v-0.3h2.8v-1.9h3.3v-0.1h2.5V189h6.4v-7.9h18v4.8h9.6v-1h1.7v-1h2.8v1.2h1.6v5h2.6v-8.7h2.4v-1.5h5.3v1.5
								h2.1v4.7h0.5v4h5.6v0.8h10.3v2h1.7v3.8h0.3v-8h6.7v0.2h2.7v7.7h3.2V186h1.4v-1.5h11v1.5h1.4v4.2h3.7v0.4h3.1v1.9h2.6v2h1.3
								v2.5h10.7v-10.6h4.3v-2.2h2.2v2.2h4.3v5.3h3.6v3.3h12.7v-9h1.3v-1.1h15.5v4.2h10.6v3.5h1.2v-3.7h3.3v3.7h0.6v-7.5h2v-1.3h4.6
								v0.6h8.4v1.5h1.4v4.2h3.7v4.3h7v2.5h10.7v-10.6h4.3v-2.2h2.2v2.2h4.3v4.2h9.8v1.9h2.8v2.5h3.3v-0.8h1.8v-9.3h15.5v4.2h1.2
								v-0.7h2.6v-2.4h11.9v-0.8h2v-1.3h4.6v1.3h1.8v7.5h4.3V185h1.6v-1.2h0.2v-0.3h6.7v11.6h0.8v4.8h2.5v-2.2h0.9v-0.6h1.7v-3.9h11
								v-2.4h1.9V189h0.4v-2.1h5.8v2.1h6.6v1.5h2.5v0.1h3.3v1.9h2.8v3.4h2.4v-0.9h0.9v-0.7h8.4v-5.5h2.7v-0.6h1.6v-1.8h1.9v-2.4
								h12.8v1.8h2.5v0.2h3.3v2.4h2.8v3h4v1.2h3.3v-1.1h2.5V185h1.6v-1.2h0.2v-0.3h6.7v0.4h9.3v2.4h1.9v1.8h1.6v5.2h4v-2.4h1.9V189
								h0.4v-2.1h5.8v2.1h6.6v1.5h2.5h1.7V189h12.8v1.9h1.9v2.4h4v-5.2h1.6v-1.8h1.9v-2.4h9.3v-0.4h6.7v0.3h0.2v1.2h1.6v6.4h2.5v1.1
								h3.3v-1.2h4v-3h2.8v-2.4h3.3v-0.2h2.5v-1.8h12.8v2.4h1.9v1.8h1.6v0.6h2.7v5.5h8.4v0.7h0.9v0.9h2.4v-3.4h2.8v-1.9h3.3v-0.1
								h2.5V189h6.6v-2.1h5.8v2.1h0.4v1.9h1.9v2.4h11v3.9h1.7v0.6h0.9v2.3h3.3v-16.5h6.7v0.3h0.2v1.2h1.6v11.6h2.8v2.9h3v-8.2h4v-3
								h2.8v-2.4h12.1v2.4h2.6v9.9h2.3v2.9h1.1v-12.5h6.7v5.5h8.4v3.9h3.3v-5.6h2.8v-1.9h12.1v1.9h2.6v7.8h1v0.1h1.4v2.3h2.9v-5.6
								h13.2v3.1h11.5v3.9h6.4V202h3.8v2.2h4.8v2.6h5.2v1.9h-2.8h-163.6H1376h-170.4h-179.2H844h-96.8h-2.8H537.6H440v-3.9h7.6v-3.1
								h5.6v-9.4h4.7v9.4h5.2v-4.5h1v-1.1h6.6v1.1h0.9v4.4h2V195h3.3v6.9h1v-2.2h3.1v-3.8h4.5v5.3h4.8v-10.7h2.5V189h12.8v1.9h1.9
								v10.8h2.6v-2.6h2.5v2.6h2.6v-3.9h5.8v5.3h5.7v-18.1h1.7v-1h2.8v1.2h1.6v14.5h5.8v-8.2h5.8v5.1h6.2v-4.1h4.7v4.1h2.4v5.2h2.9
								v-4.5h1v-1.1h1.9v-7.4h6.7v10.4h1V195h3.3v2.2h0.7v-1.1h3.4v-0.2h3.2v-3.4h2.8v-1.9h3.3v-0.1h2.5V189h12.8v1.5h0.8V189h12.8
								v1.9h1.9v9.4h2.6v-1.2h2.5v1.2h0.5v-15.3h1.7v-1h2.8v1.2h1.6v12.7h1.8v1.8h4v-8.2h1.7v-6.4h1.7v-1h2.8v1.2h1.6v11.4h5.8v-5.1
								h5.8v5.1h5.5v-7.7h6.7v7.7h1.1v2.6h2.9v-1.9h1v-1.1h1.9v-7.4h6.7v3.8h0.8v-1.9h8.5v-8.2h5.5v8.2h2.9v-0.1h1v-0.1h1.5V189h0.4
								v-1h12.6v2.4h1.9v4.4h7.4v-9h3.9v9h3.7v-12.3h1.6v-1.8H746v1.8h1.6v4.8h4.3v4.1h1.4v0.9h6.8v0.1h4.1v2.9h8.2v-6.5h0.2v-5.9h5
								v-2.5h2.5v2.5h5v6.2H788.4z"/>
							<path id="Combined-Shape-Copy-3" fill="#7D7D7D" d="M1047.7,199.1v-4.4h6.4v-12.3h5.5v8.2h3.9v-0.3h1.9V188h12.6v2.4h1.9v4.4
								h7.4v-9h3.9v9h3.7v-12.3h1.6v-1.8h12.8v1.8h1.6v4.8h4.3v5h8.2v0.1h4.1v2.9h8.3v-12.3h5v-2.5h2.5v2.5h5v6.2h4.2v3.8h7.5v-2.4
								h2.5V189h6.4v-7.9h18v4.8h9.6v-1h1.7v-1h2.8v1.2h1.6v5h2.6v-8.7h2.4v-1.5h5.3v1.5h2.1v8.7h6.1v5.3h6.1V193h3.6v5.6h2.6v-9.8
								h6.7v10.4h4.7v3.1h4.7v-2.6h2.3v-7h2.8v-1.9h12.1v1.9h2.6v7.9h2.3v2.3h2.9v-5.6h13.2v3.1h11.5v3.9h3.8v-7.5h5.5V186h4.7v10.6
								h3.3v-3.8h1.7v-2h10.9v2h1.7v3.8h6.4v-7.7h3.3v7.7h3.2V186h1.4v-1.5h11v1.5h1.4v4.2h3.7v4.3h7v2.5h10.7v-10.6h4.3v-2.2h2.2
								v2.2h4.3v5.3h3.6v3.3h14.1v-10.1h15.5v4.2h10.6v3.5h5.1v-7.5h2v-1.3h4.6v1.3h1.8v7.5h5.2v4.6h5.2v-2h3.1v4.8h3.4v-2.8h13.2
								v5.6h2.9v-2.3h1.4v-0.1h1v-7.8h2.6v-1.9h12.1v1.9h2.8v5.6h3.3v-3.9h8.4v-5.5h6.7v12.5h1.1v-2.9h2.3l2.4-0.2v-1.7h13.2v-5.1
								h5.8v8.2h3v-2.9h4.7l6.7,3.5h3.3v-2.3h2.5v-4.5h11v-2.4h1.9V189h5.1l11.3-10.2h1.7v22.4h2v-5.3h3.7v-0.9h5.8v0h2.4v4.9h0.2
								v-3.3h2.5v0.6h0.2v-1.1h2.4v-9.8h1.9v-2.4h12.8v1.8h2.5v13.4h4.8v-6.6h4.5v4.8h3.1v2.8h1v-8.6h3.3v8.3h2v-5.5h0.9v-1.4h0.8
								v-0.5h4.7v0.5h1.2v1.4h1v5.6h3v-2.7h1v-1.1h1.2v-8h4.7v8h0.8v1.1h0.9v2.7h2V195h3.3v6.9h1v-2.2h3.1v-3.8h4.5v5.3h4.8v-10.7
								l17.2,11.3h2.6v-2.6h2.5v2.6h2.6v-3.9h5.8v5.3h5.7l6.1-3.5h5.8l5.8-3.1h13.2v5.4h5.8v-13.2h6.7v10.4h4.7v3.1h4.7v-2.6h2.3
								l17.5-0.7l2.3,1.6v2.3h2.9v-5.6h13.2v3.1h11.5v3.9h6.4V202h3.8v2.2h4.8v2.6h5.2v1.9h-2.8h-163.6h-39.2h-170.4H1292h-182.4
								h-96.8h-2.8H803.2v-3.9h7.6v-3.1h5.6v-9.4h4.7v9.4h5.2v-4.5h1v-1.1h6.6v1.1h0.9v4.4h2V195h3.3v6.9h1v-2.2h3.1v-3.8h4.5v5.3
								h4.8v-10.7h2.5V189h12.8v1.9h1.9v10.8h2.6v-2.6h2.5v2.6h2.6v-3.9h5.8v5.3h5.7v-18.1h1.7v-1h2.8v1.2h1.6v14.5h5.8v-8.2h5.8
								v5.1H921v5.4h1v-0.2h4.9v-13h6.7v10.4h4v-1.9h1v-1.1h6.6v-3.6h2.8v-1.9H960v1.9h2.6v7.9h2.2v-9.9h2.5V189h12.8v1.9h1.9v9.4
								h2.6v-1.2h2.5v1.2h2.6v-2.5h5.8v5.3h3.4v-1h2.2v-17.1h1.7v-1h2.8v1.2h1.6v14.5h5.8v-8.2h5.8v5.1h13.2v5.4h5.8v-13.2h6.7v10.4
								H1047.7z"/>
						</g>
					</g>
				</g>
			</g>
			<g id="titlearea" transform="translate(374.000000, 13.000000)">
				<g enable-background="new    ">
					<path d="M456.2,123.6c0.2-0.5,0.4-0.9,0.7-1.2c0.3-0.3,0.7-0.6,1.1-0.8s0.9-0.3,1.5-0.3c0.6,0,1,0.1,1.5,0.3
						c0.4,0.2,0.8,0.5,1.1,0.8c0.3,0.3,0.5,0.7,0.7,1.2c0.2,0.5,0.2,1,0.2,1.5c0,0.5-0.1,1-0.2,1.5c-0.2,0.5-0.4,0.8-0.7,1.2
						c-0.3,0.3-0.7,0.6-1.1,0.8c-0.4,0.2-0.9,0.3-1.5,0.3c-0.5,0-1-0.1-1.5-0.3s-0.8-0.5-1.1-0.8c-0.3-0.3-0.5-0.7-0.7-1.2
						c-0.2-0.5-0.2-0.9-0.2-1.5C455.9,124.6,456,124.1,456.2,123.6z M457.6,126c0.1,0.3,0.2,0.5,0.3,0.8c0.2,0.2,0.4,0.4,0.6,0.5
						c0.2,0.1,0.5,0.2,0.9,0.2c0.4,0,0.7-0.1,0.9-0.2c0.2-0.1,0.4-0.3,0.6-0.5c0.2-0.2,0.3-0.5,0.3-0.8c0.1-0.3,0.1-0.6,0.1-0.9
						c0-0.3,0-0.6-0.1-0.9c-0.1-0.3-0.2-0.6-0.3-0.8c-0.2-0.2-0.4-0.4-0.6-0.5s-0.5-0.2-0.9-0.2c-0.4,0-0.7,0.1-0.9,0.2
						c-0.2,0.1-0.4,0.3-0.6,0.5c-0.2,0.2-0.3,0.5-0.3,0.8c-0.1,0.3-0.1,0.6-0.1,0.9C457.5,125.4,457.5,125.7,457.6,126z"/>
					<path d="M467.4,128.6v-0.7h0c-0.2,0.3-0.4,0.5-0.7,0.6c-0.3,0.1-0.6,0.2-0.9,0.2c-0.4,0-0.7,0-0.9-0.1
						c-0.2-0.1-0.4-0.2-0.6-0.4c-0.1-0.2-0.2-0.4-0.3-0.7c-0.1-0.3-0.1-0.6-0.1-0.9v-3.2h1.4v2.9c0,0.4,0.1,0.7,0.2,1
						c0.1,0.2,0.4,0.3,0.7,0.3c0.4,0,0.7-0.1,0.8-0.3c0.2-0.2,0.3-0.6,0.3-1.1v-2.7h1.4v5.2H467.4z"/>
					<path d="M471.1,123.5v1h0c0.1-0.2,0.2-0.3,0.3-0.4c0.1-0.1,0.2-0.3,0.4-0.3c0.1-0.1,0.3-0.2,0.5-0.2c0.2-0.1,0.3-0.1,0.5-0.1
						c0.1,0,0.2,0,0.3,0v1.3c-0.1,0-0.1,0-0.2,0c-0.1,0-0.2,0-0.3,0c-0.3,0-0.5,0-0.7,0.1c-0.2,0.1-0.3,0.2-0.4,0.4
						c-0.1,0.1-0.2,0.3-0.2,0.5c0,0.2-0.1,0.4-0.1,0.7v2.3h-1.4v-5.2H471.1z"/>
					<path d="M480.5,121.5c0.3,0,0.6,0.1,0.9,0.2c0.3,0.1,0.5,0.2,0.7,0.4c0.2,0.2,0.3,0.4,0.4,0.6c0.1,0.2,0.1,0.5,0.1,0.8
						c0,0.4-0.1,0.8-0.3,1.1c-0.2,0.3-0.5,0.5-0.9,0.7v0c0.2,0.1,0.4,0.1,0.5,0.2c0.1,0.1,0.2,0.2,0.3,0.4c0.1,0.1,0.1,0.3,0.2,0.5
						c0,0.2,0.1,0.4,0.1,0.5c0,0.1,0,0.2,0,0.4c0,0.2,0,0.3,0,0.5c0,0.2,0,0.3,0.1,0.5c0,0.1,0.1,0.3,0.2,0.4h-1.6
						c-0.1-0.2-0.1-0.5-0.2-0.8s0-0.6-0.1-0.9c-0.1-0.4-0.2-0.6-0.3-0.8c-0.2-0.2-0.5-0.3-0.9-0.3h-1.6v2.8h-1.6v-7.1H480.5z
						 M479.9,124.7c0.4,0,0.6-0.1,0.8-0.2c0.2-0.2,0.3-0.4,0.3-0.8c0-0.3-0.1-0.6-0.3-0.8c-0.2-0.2-0.5-0.2-0.8-0.2h-1.7v2H479.9z"
						/>
					<path d="M485.2,127.4c0.2,0.2,0.5,0.3,0.9,0.3c0.3,0,0.5-0.1,0.7-0.2c0.2-0.1,0.3-0.3,0.4-0.5h1.2c-0.2,0.6-0.5,1.1-0.9,1.3
						c-0.4,0.3-0.9,0.4-1.5,0.4c-0.4,0-0.8-0.1-1.1-0.2c-0.3-0.1-0.6-0.3-0.8-0.6s-0.4-0.5-0.5-0.9c-0.1-0.3-0.2-0.7-0.2-1.1
						c0-0.4,0.1-0.7,0.2-1.1c0.1-0.3,0.3-0.6,0.5-0.9c0.2-0.2,0.5-0.4,0.8-0.6c0.3-0.1,0.7-0.2,1.1-0.2c0.4,0,0.8,0.1,1.1,0.3
						s0.6,0.4,0.8,0.7c0.2,0.3,0.4,0.6,0.5,1c0.1,0.4,0.1,0.8,0.1,1.1h-3.7C484.9,126.9,485,127.2,485.2,127.4z M486.8,124.7
						c-0.2-0.2-0.4-0.3-0.8-0.3c-0.2,0-0.4,0-0.6,0.1c-0.2,0.1-0.3,0.2-0.4,0.3c-0.1,0.1-0.2,0.2-0.2,0.4c0,0.1-0.1,0.2-0.1,0.3h2.3
						C487.1,125.1,487,124.9,486.8,124.7z"/>
					<path d="M490.8,123.5v0.7h0c0.2-0.3,0.4-0.5,0.7-0.6c0.3-0.1,0.6-0.2,0.9-0.2c0.4,0,0.8,0.1,1,0.2s0.5,0.4,0.7,0.6
						c0.2,0.3,0.3,0.5,0.4,0.9c0.1,0.3,0.1,0.7,0.1,1.1c0,0.3,0,0.7-0.1,1c-0.1,0.3-0.2,0.6-0.4,0.9c-0.2,0.2-0.4,0.4-0.7,0.6
						s-0.6,0.2-1,0.2c-0.3,0-0.6-0.1-0.9-0.2c-0.3-0.1-0.5-0.3-0.7-0.6h0v2.4h-1.4v-7H490.8z M492.6,127.6c0.2-0.1,0.3-0.2,0.4-0.4
						c0.1-0.2,0.2-0.3,0.2-0.5s0.1-0.4,0.1-0.6c0-0.2,0-0.4-0.1-0.6c0-0.2-0.1-0.4-0.2-0.5s-0.2-0.3-0.4-0.4s-0.3-0.1-0.6-0.1
						c-0.2,0-0.4,0-0.6,0.1c-0.2,0.1-0.3,0.2-0.4,0.4s-0.2,0.3-0.2,0.5c0,0.2-0.1,0.4-0.1,0.6c0,0.2,0,0.4,0.1,0.6
						c0,0.2,0.1,0.4,0.2,0.5c0.1,0.1,0.2,0.3,0.4,0.4c0.2,0.1,0.4,0.1,0.6,0.1C492.3,127.7,492.5,127.7,492.6,127.6z"/>
					<path d="M495.6,124.9c0.1-0.3,0.3-0.6,0.5-0.9c0.2-0.2,0.5-0.4,0.8-0.5c0.3-0.1,0.7-0.2,1.1-0.2s0.8,0.1,1.1,0.2
						c0.3,0.1,0.6,0.3,0.8,0.5c0.2,0.2,0.4,0.5,0.5,0.9c0.1,0.3,0.2,0.7,0.2,1.1s-0.1,0.8-0.2,1.1c-0.1,0.3-0.3,0.6-0.5,0.9
						c-0.2,0.2-0.5,0.4-0.8,0.5c-0.3,0.1-0.7,0.2-1.1,0.2s-0.8-0.1-1.1-0.2c-0.3-0.1-0.6-0.3-0.8-0.5c-0.2-0.2-0.4-0.5-0.5-0.9
						c-0.1-0.3-0.2-0.7-0.2-1.1S495.4,125.3,495.6,124.9z M496.9,126.7c0,0.2,0.1,0.4,0.2,0.5c0.1,0.2,0.2,0.3,0.4,0.4
						c0.2,0.1,0.4,0.1,0.6,0.1c0.2,0,0.4,0,0.6-0.1c0.2-0.1,0.3-0.2,0.4-0.4c0.1-0.2,0.2-0.3,0.2-0.5c0-0.2,0.1-0.4,0.1-0.6
						c0-0.2,0-0.4-0.1-0.6c0-0.2-0.1-0.4-0.2-0.5s-0.2-0.3-0.4-0.4c-0.2-0.1-0.4-0.1-0.6-0.1c-0.2,0-0.4,0-0.6,0.1
						c-0.2,0.1-0.3,0.2-0.4,0.4s-0.2,0.3-0.2,0.5c0,0.2-0.1,0.4-0.1,0.6C496.8,126.3,496.8,126.5,496.9,126.7z"/>
					<path d="M503,123.5v1h0c0.1-0.2,0.2-0.3,0.3-0.4c0.1-0.1,0.2-0.3,0.4-0.3c0.1-0.1,0.3-0.2,0.5-0.2c0.2-0.1,0.3-0.1,0.5-0.1
						c0.1,0,0.2,0,0.3,0v1.3c-0.1,0-0.1,0-0.2,0c-0.1,0-0.2,0-0.3,0c-0.3,0-0.5,0-0.7,0.1c-0.2,0.1-0.3,0.2-0.4,0.4
						c-0.1,0.1-0.2,0.3-0.2,0.5c0,0.2-0.1,0.4-0.1,0.7v2.3h-1.4v-5.2H503z"/>
					<path d="M508.4,123.5v1h-1v2.6c0,0.2,0,0.4,0.1,0.5s0.2,0.1,0.5,0.1c0.1,0,0.2,0,0.2,0c0.1,0,0.1,0,0.2,0v1.1
						c-0.1,0-0.3,0-0.4,0s-0.3,0-0.4,0c-0.2,0-0.4,0-0.6,0c-0.2,0-0.4-0.1-0.5-0.2c-0.1-0.1-0.3-0.2-0.4-0.4
						c-0.1-0.2-0.1-0.4-0.1-0.6v-3h-0.9v-1h0.9v-1.5h1.4v1.5H508.4z"/>
					<path d="M509.1,122.7v-1.2h1.4v1.2H509.1z M510.5,123.5v5.2h-1.4v-5.2H510.5z"/>
					<path d="M513,123.5v0.7h0c0.2-0.3,0.4-0.5,0.7-0.7c0.3-0.1,0.6-0.2,0.9-0.2c0.4,0,0.7,0.1,0.9,0.2c0.2,0.1,0.4,0.2,0.6,0.4
						c0.1,0.2,0.2,0.4,0.3,0.7c0.1,0.3,0.1,0.6,0.1,0.9v3.2h-1.4v-2.9c0-0.4-0.1-0.7-0.2-1s-0.4-0.3-0.7-0.3c-0.4,0-0.7,0.1-0.8,0.3
						c-0.2,0.2-0.3,0.6-0.3,1.1v2.7h-1.4v-5.2H513z"/>
					<path d="M522.4,129c-0.1,0.3-0.2,0.5-0.4,0.7c-0.2,0.2-0.5,0.4-0.8,0.6s-0.8,0.2-1.4,0.2c-0.3,0-0.5,0-0.8-0.1
						c-0.3-0.1-0.5-0.2-0.7-0.3c-0.2-0.1-0.4-0.3-0.5-0.5s-0.2-0.5-0.2-0.8h1.4c0.1,0.3,0.2,0.5,0.4,0.6s0.4,0.2,0.7,0.2
						c0.4,0,0.7-0.1,0.9-0.4c0.2-0.2,0.3-0.5,0.3-0.9v-0.7h0c-0.2,0.3-0.4,0.5-0.7,0.6s-0.6,0.2-0.9,0.2c-0.4,0-0.7-0.1-1-0.2
						c-0.3-0.1-0.5-0.3-0.7-0.6c-0.2-0.2-0.3-0.5-0.4-0.8s-0.1-0.7-0.1-1c0-0.3,0-0.7,0.1-1c0.1-0.3,0.2-0.6,0.4-0.8
						c0.2-0.2,0.4-0.4,0.7-0.6c0.3-0.1,0.6-0.2,1-0.2c0.3,0,0.6,0.1,0.9,0.2c0.3,0.1,0.5,0.3,0.6,0.6h0v-0.7h1.3v4.8
						C522.5,128.5,522.5,128.8,522.4,129z M520.5,127.3c0.2-0.1,0.3-0.2,0.4-0.3c0.1-0.1,0.2-0.3,0.2-0.5s0.1-0.3,0.1-0.5
						c0-0.2,0-0.4-0.1-0.6c0-0.2-0.1-0.4-0.2-0.5s-0.2-0.3-0.4-0.4c-0.2-0.1-0.3-0.1-0.6-0.1c-0.2,0-0.4,0-0.5,0.1
						c-0.1,0.1-0.3,0.2-0.4,0.3c-0.1,0.1-0.2,0.3-0.2,0.5c0,0.2-0.1,0.4-0.1,0.6c0,0.2,0,0.4,0.1,0.6s0.1,0.3,0.2,0.5
						s0.2,0.3,0.4,0.4c0.1,0.1,0.3,0.1,0.6,0.1C520.2,127.4,520.4,127.4,520.5,127.3z"/>
					<path d="M528.2,121.5v7.1h-1.6v-7.1H528.2z"/>
					<path d="M530.8,123.5v0.7h0c0.2-0.3,0.4-0.5,0.7-0.7c0.3-0.1,0.6-0.2,0.9-0.2c0.4,0,0.7,0.1,0.9,0.2c0.2,0.1,0.4,0.2,0.6,0.4
						c0.1,0.2,0.2,0.4,0.3,0.7c0.1,0.3,0.1,0.6,0.1,0.9v3.2h-1.4v-2.9c0-0.4-0.1-0.7-0.2-1s-0.4-0.3-0.7-0.3c-0.4,0-0.7,0.1-0.8,0.3
						c-0.2,0.2-0.3,0.6-0.3,1.1v2.7h-1.4v-5.2H530.8z"/>
					<path d="M537.5,121.5h1.8l1.7,2.8l1.7-2.8h1.8l-2.6,4.4v2.7h-1.6v-2.8L537.5,121.5z"/>
					<path d="M543.7,124.9c0.1-0.3,0.3-0.6,0.5-0.9c0.2-0.2,0.5-0.4,0.8-0.5c0.3-0.1,0.7-0.2,1.1-0.2s0.8,0.1,1.1,0.2
						c0.3,0.1,0.6,0.3,0.8,0.5c0.2,0.2,0.4,0.5,0.5,0.9c0.1,0.3,0.2,0.7,0.2,1.1s-0.1,0.8-0.2,1.1c-0.1,0.3-0.3,0.6-0.5,0.9
						c-0.2,0.2-0.5,0.4-0.8,0.5c-0.3,0.1-0.7,0.2-1.1,0.2s-0.8-0.1-1.1-0.2c-0.3-0.1-0.6-0.3-0.8-0.5c-0.2-0.2-0.4-0.5-0.5-0.9
						c-0.1-0.3-0.2-0.7-0.2-1.1S543.6,125.3,543.7,124.9z M545,126.7c0,0.2,0.1,0.4,0.2,0.5c0.1,0.2,0.2,0.3,0.4,0.4
						c0.2,0.1,0.4,0.1,0.6,0.1c0.2,0,0.4,0,0.6-0.1c0.2-0.1,0.3-0.2,0.4-0.4c0.1-0.2,0.2-0.3,0.2-0.5c0-0.2,0.1-0.4,0.1-0.6
						c0-0.2,0-0.4-0.1-0.6c0-0.2-0.1-0.4-0.2-0.5s-0.2-0.3-0.4-0.4c-0.2-0.1-0.4-0.1-0.6-0.1c-0.2,0-0.4,0-0.6,0.1
						c-0.2,0.1-0.3,0.2-0.4,0.4s-0.2,0.3-0.2,0.5c0,0.2-0.1,0.4-0.1,0.6C544.9,126.3,545,126.5,545,126.7z"/>
					<path d="M553.3,128.6v-0.7h0c-0.2,0.3-0.4,0.5-0.7,0.6c-0.3,0.1-0.6,0.2-0.9,0.2c-0.4,0-0.7,0-0.9-0.1
						c-0.2-0.1-0.4-0.2-0.6-0.4c-0.1-0.2-0.2-0.4-0.3-0.7c-0.1-0.3-0.1-0.6-0.1-0.9v-3.2h1.4v2.9c0,0.4,0.1,0.7,0.2,1
						c0.1,0.2,0.4,0.3,0.7,0.3c0.4,0,0.7-0.1,0.8-0.3c0.2-0.2,0.3-0.6,0.3-1.1v-2.7h1.4v5.2H553.3z"/>
					<path d="M557.1,123.5v1h0c0.1-0.2,0.2-0.3,0.3-0.4c0.1-0.1,0.2-0.3,0.4-0.3c0.1-0.1,0.3-0.2,0.5-0.2c0.2-0.1,0.3-0.1,0.5-0.1
						c0.1,0,0.2,0,0.3,0v1.3c-0.1,0-0.1,0-0.2,0c-0.1,0-0.2,0-0.3,0c-0.3,0-0.5,0-0.7,0.1c-0.2,0.1-0.3,0.2-0.4,0.4
						c-0.1,0.1-0.2,0.3-0.2,0.5c0,0.2-0.1,0.4-0.1,0.7v2.3h-1.4v-5.2H557.1z"/>
					<path d="M564.1,121.5v7.1h-1.6v-7.1H564.1z"/>
					<path d="M566.7,123.5v0.7h0c0.2-0.3,0.4-0.5,0.7-0.7c0.3-0.1,0.6-0.2,0.9-0.2c0.4,0,0.7,0.1,0.9,0.2c0.2,0.1,0.4,0.2,0.6,0.4
						c0.1,0.2,0.2,0.4,0.3,0.7c0.1,0.3,0.1,0.6,0.1,0.9v3.2h-1.4v-2.9c0-0.4-0.1-0.7-0.2-1s-0.4-0.3-0.7-0.3c-0.4,0-0.7,0.1-0.8,0.3
						c-0.2,0.2-0.3,0.6-0.3,1.1v2.7h-1.4v-5.2H566.7z"/>
					<path d="M572.7,121.5v2.6h0c0.2-0.3,0.4-0.5,0.7-0.6c0.3-0.1,0.6-0.2,0.9-0.2c0.3,0,0.5,0.1,0.8,0.2c0.3,0.1,0.5,0.3,0.7,0.5
						c0.2,0.2,0.4,0.5,0.5,0.8c0.1,0.3,0.2,0.8,0.2,1.2s-0.1,0.9-0.2,1.2c-0.1,0.3-0.3,0.6-0.5,0.8c-0.2,0.2-0.4,0.4-0.7,0.5
						s-0.5,0.2-0.8,0.2c-0.4,0-0.7-0.1-1-0.2c-0.3-0.1-0.5-0.3-0.7-0.6h0v0.7h-1.4v-7.1H572.7z M575,125.4c0-0.2-0.1-0.4-0.2-0.5
						s-0.2-0.3-0.4-0.4c-0.1-0.1-0.3-0.1-0.5-0.1c-0.2,0-0.4,0-0.5,0.1c-0.2,0.1-0.3,0.2-0.4,0.4c-0.1,0.2-0.2,0.3-0.2,0.5
						c0,0.2-0.1,0.4-0.1,0.6c0,0.2,0,0.4,0.1,0.6c0,0.2,0.1,0.4,0.2,0.5c0.1,0.2,0.2,0.3,0.4,0.4c0.2,0.1,0.3,0.1,0.5,0.1
						c0.2,0,0.4,0,0.5-0.1c0.1-0.1,0.3-0.2,0.4-0.4s0.2-0.3,0.2-0.5c0-0.2,0.1-0.4,0.1-0.6C575.1,125.8,575,125.6,575,125.4z"/>
					<path d="M577.4,124.9c0.1-0.3,0.3-0.6,0.5-0.9c0.2-0.2,0.5-0.4,0.8-0.5c0.3-0.1,0.7-0.2,1.1-0.2s0.8,0.1,1.1,0.2
						c0.3,0.1,0.6,0.3,0.8,0.5c0.2,0.2,0.4,0.5,0.5,0.9c0.1,0.3,0.2,0.7,0.2,1.1s-0.1,0.8-0.2,1.1c-0.1,0.3-0.3,0.6-0.5,0.9
						c-0.2,0.2-0.5,0.4-0.8,0.5c-0.3,0.1-0.7,0.2-1.1,0.2s-0.8-0.1-1.1-0.2c-0.3-0.1-0.6-0.3-0.8-0.5c-0.2-0.2-0.4-0.5-0.5-0.9
						c-0.1-0.3-0.2-0.7-0.2-1.1S577.3,125.3,577.4,124.9z M578.7,126.7c0,0.2,0.1,0.4,0.2,0.5c0.1,0.2,0.2,0.3,0.4,0.4
						c0.2,0.1,0.4,0.1,0.6,0.1c0.2,0,0.4,0,0.6-0.1c0.2-0.1,0.3-0.2,0.4-0.4c0.1-0.2,0.2-0.3,0.2-0.5c0-0.2,0.1-0.4,0.1-0.6
						c0-0.2,0-0.4-0.1-0.6c0-0.2-0.1-0.4-0.2-0.5s-0.2-0.3-0.4-0.4c-0.2-0.1-0.4-0.1-0.6-0.1c-0.2,0-0.4,0-0.6,0.1
						c-0.2,0.1-0.3,0.2-0.4,0.4s-0.2,0.3-0.2,0.5c0,0.2-0.1,0.4-0.1,0.6C578.6,126.3,578.7,126.5,578.7,126.7z"/>
					<path d="M583.1,123.5h1.6l0.9,1.3l0.9-1.3h1.6l-1.7,2.4l1.9,2.8h-1.6l-1.1-1.6l-1.1,1.6h-1.6l1.9-2.7L583.1,123.5z"/>
				</g>
				<g enable-background="new    ">
					<path d="M448.4,85.6c-0.1-0.2-0.3-0.5-0.6-0.6s-0.5-0.3-0.8-0.4s-0.6-0.2-0.9-0.2c-0.6,0-1,0.1-1.4,0.3c-0.4,0.2-0.7,0.5-1,0.9
						c-0.2,0.4-0.4,0.8-0.5,1.3c-0.1,0.5-0.2,1-0.2,1.5c0,0.5,0.1,0.9,0.2,1.4c0.1,0.5,0.3,0.9,0.5,1.2c0.2,0.4,0.6,0.7,1,0.9
						c0.4,0.2,0.9,0.3,1.4,0.3c0.8,0,1.4-0.2,1.8-0.7s0.7-1.1,0.8-1.9h2.4c-0.1,0.7-0.2,1.4-0.5,1.9s-0.6,1.1-1.1,1.5
						s-0.9,0.7-1.5,0.9c-0.6,0.2-1.2,0.3-1.9,0.3c-0.9,0-1.7-0.2-2.4-0.5s-1.3-0.7-1.8-1.3s-0.8-1.2-1.1-1.9
						c-0.3-0.7-0.4-1.5-0.4-2.3c0-0.9,0.1-1.6,0.4-2.4c0.3-0.7,0.6-1.4,1.1-1.9s1.1-1,1.8-1.3c0.7-0.3,1.5-0.5,2.4-0.5
						c0.6,0,1.2,0.1,1.8,0.3c0.6,0.2,1.1,0.4,1.5,0.8c0.4,0.3,0.8,0.8,1.1,1.3c0.3,0.5,0.5,1.1,0.5,1.8h-2.4
						C448.7,86.1,448.6,85.9,448.4,85.6z"/>
					<path d="M452.8,84.4v-1.9h2.3v1.9H452.8z M455.1,85.7V94h-2.3v-8.3H455.1z"/>
					<path d="M461.4,85.7v1.5h-1.7v4.1c0,0.4,0.1,0.6,0.2,0.8s0.4,0.2,0.8,0.2c0.1,0,0.3,0,0.4,0c0.1,0,0.2,0,0.3,0V94
						c-0.2,0-0.4,0.1-0.6,0.1c-0.2,0-0.5,0-0.7,0c-0.4,0-0.7,0-1-0.1c-0.3,0-0.6-0.1-0.8-0.3c-0.2-0.1-0.4-0.3-0.6-0.6
						c-0.1-0.3-0.2-0.6-0.2-1v-4.9h-1.4v-1.5h1.4v-2.5h2.3v2.5H461.4z"/>
					<path d="M465.5,96.5c-0.4,0.3-1,0.4-1.8,0.4c-0.2,0-0.5,0-0.7,0s-0.5,0-0.7-0.1v-1.9c0.2,0,0.4,0,0.7,0.1c0.2,0,0.4,0,0.7,0
						c0.3,0,0.5-0.2,0.7-0.4s0.2-0.4,0.2-0.7c0-0.2,0-0.4-0.1-0.5l-2.9-7.8h2.4l1.9,5.7h0l1.8-5.7h2.4l-3.5,9.3
						C466.3,95.7,466,96.2,465.5,96.5z"/>
					<path d="M478,82.6v9.3h5.6V94h-8.1V82.6H478z"/>
					<path d="M484.8,84.4v-1.9h2.3v1.9H484.8z M487.1,85.7V94h-2.3v-8.3H487.1z"/>
					<path d="M491.1,85.7v1.1h0c0.3-0.4,0.7-0.8,1.1-1c0.4-0.2,0.9-0.4,1.4-0.4c0.5,0,1,0.1,1.4,0.3c0.4,0.2,0.8,0.6,1,1.1
						c0.2-0.4,0.6-0.7,1-1s0.9-0.4,1.5-0.4c0.4,0,0.8,0.1,1.2,0.2c0.4,0.1,0.7,0.3,1,0.5c0.3,0.2,0.5,0.5,0.6,0.9
						c0.1,0.4,0.2,0.8,0.2,1.4V94h-2.3v-4.7c0-0.3,0-0.5,0-0.8c0-0.2-0.1-0.5-0.2-0.6c-0.1-0.2-0.2-0.3-0.4-0.4
						c-0.2-0.1-0.4-0.2-0.8-0.2c-0.3,0-0.6,0.1-0.8,0.2c-0.2,0.1-0.4,0.3-0.5,0.5c-0.1,0.2-0.2,0.4-0.2,0.7c0,0.3-0.1,0.5-0.1,0.8
						V94h-2.3v-4.6c0-0.2,0-0.5,0-0.7c0-0.2-0.1-0.5-0.1-0.7c-0.1-0.2-0.2-0.4-0.4-0.5c-0.2-0.1-0.5-0.2-0.8-0.2
						c-0.1,0-0.2,0-0.4,0.1s-0.3,0.1-0.5,0.3c-0.2,0.1-0.3,0.3-0.4,0.6c-0.1,0.3-0.2,0.6-0.2,1V94h-2.3v-8.3H491.1z"/>
					<path d="M503.4,84.4v-1.9h2.3v1.9H503.4z M505.7,85.7V94h-2.3v-8.3H505.7z"/>
					<path d="M512,85.7v1.5h-1.7v4.1c0,0.4,0.1,0.6,0.2,0.8s0.4,0.2,0.8,0.2c0.1,0,0.3,0,0.4,0c0.1,0,0.2,0,0.3,0V94
						c-0.2,0-0.4,0.1-0.6,0.1c-0.2,0-0.5,0-0.7,0c-0.4,0-0.7,0-1-0.1c-0.3,0-0.6-0.1-0.8-0.3c-0.2-0.1-0.4-0.3-0.6-0.6
						c-0.1-0.3-0.2-0.6-0.2-1v-4.9h-1.4v-1.5h1.4v-2.5h2.3v2.5H512z"/>
					<path d="M515,91.9c0.1,0.2,0.2,0.3,0.4,0.4s0.3,0.2,0.6,0.2s0.4,0.1,0.6,0.1c0.2,0,0.3,0,0.5-0.1c0.2,0,0.3-0.1,0.5-0.2
						s0.3-0.2,0.4-0.3c0.1-0.1,0.1-0.3,0.1-0.5c0-0.3-0.2-0.6-0.7-0.8c-0.5-0.2-1.1-0.3-1.9-0.5c-0.3-0.1-0.7-0.2-1-0.3
						c-0.3-0.1-0.6-0.2-0.8-0.4c-0.2-0.2-0.4-0.4-0.6-0.6s-0.2-0.6-0.2-0.9c0-0.5,0.1-1,0.3-1.3c0.2-0.3,0.5-0.6,0.8-0.8
						s0.7-0.3,1.2-0.4s0.9-0.1,1.3-0.1c0.4,0,0.9,0,1.3,0.1c0.4,0.1,0.8,0.2,1.1,0.4c0.3,0.2,0.6,0.5,0.8,0.8
						c0.2,0.3,0.3,0.8,0.4,1.3H518c0-0.4-0.2-0.7-0.5-0.9c-0.3-0.2-0.7-0.2-1.1-0.2c-0.1,0-0.3,0-0.4,0c-0.1,0-0.3,0.1-0.4,0.1
						c-0.1,0.1-0.2,0.1-0.3,0.2c-0.1,0.1-0.1,0.2-0.1,0.4c0,0.2,0.1,0.4,0.2,0.5s0.3,0.2,0.6,0.3c0.2,0.1,0.5,0.2,0.8,0.2
						c0.3,0.1,0.6,0.1,0.9,0.2c0.3,0.1,0.7,0.2,1,0.3c0.3,0.1,0.6,0.2,0.8,0.4c0.2,0.2,0.4,0.4,0.6,0.7c0.1,0.3,0.2,0.6,0.2,1
						c0,0.5-0.1,1-0.3,1.4s-0.5,0.7-0.9,0.9c-0.4,0.2-0.8,0.4-1.2,0.5c-0.5,0.1-0.9,0.1-1.4,0.1c-0.5,0-0.9,0-1.4-0.1
						c-0.5-0.1-0.9-0.3-1.2-0.5c-0.4-0.2-0.7-0.5-0.9-0.9s-0.4-0.8-0.4-1.4h2.2C514.9,91.6,514.9,91.8,515,91.9z"/>
				</g>
				<g enable-background="new    ">
					<path fill="#FF0000" d="M445.9,97.4l7.7,12.5h0.1V97.4h3.8V116h-4.1l-7.7-12.4h-0.1V116h-3.8V97.4H445.9z"/>
					<path fill="#FF0000" d="M464.6,112.8c0.6,0.5,1.4,0.8,2.4,0.8c0.7,0,1.4-0.2,1.9-0.6c0.5-0.4,0.9-0.8,1-1.2h3.2
						c-0.5,1.6-1.3,2.8-2.4,3.5c-1.1,0.7-2.4,1-3.9,1c-1.1,0-2-0.2-2.9-0.5s-1.6-0.8-2.2-1.4c-0.6-0.6-1-1.4-1.4-2.2
						c-0.3-0.9-0.5-1.8-0.5-2.9c0-1,0.2-1.9,0.5-2.8c0.3-0.9,0.8-1.6,1.4-2.2c0.6-0.6,1.3-1.1,2.2-1.5c0.8-0.4,1.8-0.5,2.8-0.5
						c1.1,0,2.1,0.2,3,0.7c0.8,0.4,1.5,1,2.1,1.8c0.5,0.7,0.9,1.6,1.2,2.5c0.2,1,0.3,2,0.3,3h-9.7
						C463.8,111.3,464.1,112.2,464.6,112.8z M468.8,105.7c-0.4-0.5-1.1-0.7-2-0.7c-0.6,0-1.1,0.1-1.5,0.3s-0.7,0.4-0.9,0.7
						c-0.2,0.3-0.4,0.6-0.5,0.9c-0.1,0.3-0.2,0.6-0.2,0.9h6C469.5,106.9,469.2,106.2,468.8,105.7z"/>
					<path fill="#FF0000" d="M487.2,116l-2.4-9h-0.1l-2.3,9h-3.8l-4.3-13.4h3.9l2.5,9.1h0.1l2.2-9.1h3.6l2.3,9.1h0.1l2.5-9.1h3.8
						L491,116H487.2z"/>
					<path fill="#FF0000" d="M499.9,112.6c0.2,0.3,0.4,0.5,0.6,0.7c0.3,0.2,0.6,0.3,0.9,0.4c0.3,0.1,0.7,0.1,1.1,0.1
						c0.3,0,0.5,0,0.8-0.1c0.3-0.1,0.5-0.2,0.8-0.3c0.2-0.1,0.4-0.3,0.6-0.5c0.2-0.2,0.2-0.5,0.2-0.8c0-0.6-0.4-1-1.1-1.2
						c-0.7-0.3-1.8-0.6-3.1-0.8c-0.5-0.1-1.1-0.3-1.6-0.4c-0.5-0.2-1-0.4-1.4-0.7c-0.4-0.3-0.7-0.6-1-1c-0.2-0.4-0.4-0.9-0.4-1.5
						c0-0.9,0.2-1.6,0.5-2.1c0.3-0.6,0.8-1,1.3-1.3c0.6-0.3,1.2-0.5,1.9-0.7c0.7-0.1,1.4-0.2,2.1-0.2s1.4,0.1,2.1,0.2
						c0.7,0.1,1.3,0.4,1.8,0.7c0.5,0.3,1,0.8,1.3,1.3c0.4,0.5,0.6,1.2,0.6,2.1h-3.5c-0.1-0.7-0.3-1.2-0.8-1.4s-1.1-0.4-1.7-0.4
						c-0.2,0-0.4,0-0.7,0c-0.2,0-0.5,0.1-0.7,0.2c-0.2,0.1-0.4,0.2-0.5,0.4s-0.2,0.4-0.2,0.7c0,0.3,0.1,0.6,0.4,0.8
						c0.2,0.2,0.6,0.4,0.9,0.5c0.4,0.1,0.8,0.2,1.3,0.4c0.5,0.1,1,0.2,1.5,0.3c0.5,0.1,1.1,0.3,1.6,0.4c0.5,0.2,1,0.4,1.4,0.7
						s0.7,0.6,1,1.1c0.2,0.4,0.4,0.9,0.4,1.6c0,0.9-0.2,1.6-0.5,2.2c-0.4,0.6-0.8,1.1-1.4,1.4c-0.6,0.4-1.2,0.6-2,0.8
						c-0.7,0.1-1.5,0.2-2.2,0.2c-0.8,0-1.5-0.1-2.3-0.2c-0.7-0.2-1.4-0.4-2-0.8c-0.6-0.4-1.1-0.8-1.4-1.4c-0.4-0.6-0.6-1.3-0.6-2.2
						h3.5C499.6,112,499.7,112.4,499.9,112.6z"/>
					<path fill="#FF0000" d="M514.5,97.4V116h-3.7V97.4H514.5z"/>
					<path fill="#FF0000" d="M521.4,112.8c0.6,0.5,1.4,0.8,2.4,0.8c0.7,0,1.4-0.2,1.9-0.6c0.5-0.4,0.9-0.8,1-1.2h3.2
						c-0.5,1.6-1.3,2.8-2.4,3.5c-1.1,0.7-2.4,1-3.9,1c-1.1,0-2-0.2-2.9-0.5s-1.6-0.8-2.2-1.4c-0.6-0.6-1-1.4-1.4-2.2
						c-0.3-0.9-0.5-1.8-0.5-2.9c0-1,0.2-1.9,0.5-2.8c0.3-0.9,0.8-1.6,1.4-2.2c0.6-0.6,1.3-1.1,2.2-1.5c0.8-0.4,1.8-0.5,2.8-0.5
						c1.1,0,2.1,0.2,3,0.7c0.8,0.4,1.5,1,2.1,1.8c0.5,0.7,0.9,1.6,1.2,2.5c0.2,1,0.3,2,0.3,3h-9.7
						C520.5,111.3,520.8,112.2,521.4,112.8z M525.6,105.7c-0.4-0.5-1.1-0.7-2-0.7c-0.6,0-1.1,0.1-1.5,0.3s-0.7,0.4-0.9,0.7
						c-0.2,0.3-0.4,0.6-0.5,0.9c-0.1,0.3-0.2,0.6-0.2,0.9h6C526.3,106.9,526,106.2,525.6,105.7z"/>
					<path fill="#FF0000" d="M539.7,102.5v2.5H537v6.7c0,0.6,0.1,1,0.3,1.2s0.6,0.3,1.2,0.3c0.2,0,0.4,0,0.6,0c0.2,0,0.4,0,0.5-0.1
						v2.9c-0.3,0.1-0.7,0.1-1,0.1c-0.4,0-0.8,0-1.1,0c-0.6,0-1.1,0-1.6-0.1s-1-0.2-1.4-0.5c-0.4-0.2-0.7-0.5-0.9-1
						c-0.2-0.4-0.3-1-0.3-1.6V105h-2.2v-2.5h2.2v-4h3.7v4H539.7z"/>
					<path fill="#FF0000" d="M548.9,102.5v2.5h-2.7v6.7c0,0.6,0.1,1,0.3,1.2s0.6,0.3,1.2,0.3c0.2,0,0.4,0,0.6,0c0.2,0,0.4,0,0.5-0.1
						v2.9c-0.3,0.1-0.7,0.1-1,0.1c-0.4,0-0.8,0-1.1,0c-0.6,0-1.1,0-1.6-0.1s-1-0.2-1.4-0.5c-0.4-0.2-0.7-0.5-0.9-1
						c-0.2-0.4-0.3-1-0.3-1.6V105h-2.2v-2.5h2.2v-4h3.7v4H548.9z"/>
					<path fill="#FF0000" d="M554.6,112.8c0.6,0.5,1.4,0.8,2.4,0.8c0.7,0,1.4-0.2,1.9-0.6c0.5-0.4,0.9-0.8,1-1.2h3.2
						c-0.5,1.6-1.3,2.8-2.4,3.5c-1.1,0.7-2.4,1-3.9,1c-1.1,0-2-0.2-2.9-0.5s-1.6-0.8-2.2-1.4c-0.6-0.6-1-1.4-1.4-2.2
						c-0.3-0.9-0.5-1.8-0.5-2.9c0-1,0.2-1.9,0.5-2.8c0.3-0.9,0.8-1.6,1.4-2.2c0.6-0.6,1.3-1.1,2.2-1.5c0.8-0.4,1.8-0.5,2.8-0.5
						c1.1,0,2.1,0.2,3,0.7c0.8,0.4,1.5,1,2.1,1.8c0.5,0.7,0.9,1.6,1.2,2.5c0.2,1,0.3,2,0.3,3h-9.7
						C553.7,111.3,554.1,112.2,554.6,112.8z M558.8,105.7c-0.4-0.5-1.1-0.7-2-0.7c-0.6,0-1.1,0.1-1.5,0.3s-0.7,0.4-0.9,0.7
						c-0.2,0.3-0.4,0.6-0.5,0.9c-0.1,0.3-0.2,0.6-0.2,0.9h6C559.5,106.9,559.2,106.2,558.8,105.7z"/>
					<path fill="#FF0000" d="M569.1,102.5v2.5h0.1c0.2-0.4,0.4-0.8,0.7-1.2c0.3-0.4,0.6-0.7,1-0.9c0.4-0.3,0.8-0.4,1.2-0.6
						s0.9-0.2,1.4-0.2c0.2,0,0.5,0,0.8,0.1v3.4c-0.2,0-0.4-0.1-0.6-0.1c-0.2,0-0.5,0-0.7,0c-0.7,0-1.2,0.1-1.7,0.3
						c-0.5,0.2-0.8,0.5-1.1,0.9c-0.3,0.4-0.5,0.8-0.6,1.4c-0.1,0.5-0.2,1.1-0.2,1.7v6.1h-3.7v-13.4H569.1z"/>
					<path fill="#FF0000" d="M578.8,112.6c0.2,0.3,0.4,0.5,0.6,0.7c0.3,0.2,0.6,0.3,0.9,0.4c0.3,0.1,0.7,0.1,1.1,0.1
						c0.3,0,0.5,0,0.8-0.1c0.3-0.1,0.5-0.2,0.8-0.3c0.2-0.1,0.4-0.3,0.6-0.5s0.2-0.5,0.2-0.8c0-0.6-0.4-1-1.1-1.2
						c-0.7-0.3-1.8-0.6-3.1-0.8c-0.5-0.1-1.1-0.3-1.6-0.4c-0.5-0.2-1-0.4-1.4-0.7c-0.4-0.3-0.7-0.6-1-1c-0.2-0.4-0.4-0.9-0.4-1.5
						c0-0.9,0.2-1.6,0.5-2.1c0.3-0.6,0.8-1,1.3-1.3c0.6-0.3,1.2-0.5,1.9-0.7c0.7-0.1,1.4-0.2,2.1-0.2s1.4,0.1,2.1,0.2
						c0.7,0.1,1.3,0.4,1.8,0.7c0.5,0.3,1,0.8,1.3,1.3s0.6,1.2,0.6,2.1h-3.5c-0.1-0.7-0.3-1.2-0.8-1.4c-0.5-0.3-1.1-0.4-1.7-0.4
						c-0.2,0-0.4,0-0.7,0c-0.2,0-0.5,0.1-0.7,0.2c-0.2,0.1-0.4,0.2-0.5,0.4s-0.2,0.4-0.2,0.7c0,0.3,0.1,0.6,0.4,0.8
						c0.2,0.2,0.6,0.4,0.9,0.5c0.4,0.1,0.8,0.2,1.3,0.4c0.5,0.1,1,0.2,1.5,0.3c0.5,0.1,1.1,0.3,1.6,0.4c0.5,0.2,1,0.4,1.4,0.7
						s0.7,0.6,1,1.1s0.4,0.9,0.4,1.6c0,0.9-0.2,1.6-0.5,2.2c-0.4,0.6-0.8,1.1-1.4,1.4c-0.6,0.4-1.2,0.6-2,0.8
						c-0.7,0.1-1.5,0.2-2.2,0.2c-0.8,0-1.5-0.1-2.3-0.2c-0.7-0.2-1.4-0.4-2-0.8c-0.6-0.4-1.1-0.8-1.4-1.4c-0.4-0.6-0.6-1.3-0.6-2.2
						h3.5C578.6,112,578.6,112.4,578.8,112.6z"/>
				</g>
			</g>
			<g id="SIGN-UP-button" transform="translate(546.000000, 19.000000)">
				<g id="Rectangle">
					<g filter="url(#filter-4)">
						<polygon id="path-3_2_" points="440,77 575,77 575,122 440,122 						"/>
					</g>
					<g>
						<polygon id="path-3_1_" fill="#FF0000" points="440,77 575,77 575,122 440,122 						"/>
					</g>
				</g>
				<g enable-background="new    ">
					<path fill="#FFFFFF" d="M476.8,106.3c-0.8,0-1.5-0.1-2.1-0.3c-0.7-0.2-1.2-0.4-1.7-0.7l-0.6,0.6h-0.7l-0.1-4.5h0.8
						c0.2,0.4,0.4,0.9,0.7,1.4s0.6,0.9,0.9,1.3c0.4,0.4,0.8,0.7,1.2,1c0.4,0.2,1,0.4,1.6,0.4c0.8,0,1.4-0.2,1.8-0.6
						c0.4-0.4,0.6-0.9,0.6-1.5c0-0.5-0.2-0.9-0.5-1.2c-0.4-0.3-0.9-0.6-1.7-0.9c-0.5-0.2-0.9-0.3-1.4-0.4c-0.4-0.1-0.8-0.3-1.2-0.4
						c-0.8-0.3-1.5-0.8-1.9-1.4c-0.4-0.6-0.6-1.3-0.6-2.1c0-0.5,0.1-1,0.3-1.4c0.2-0.4,0.5-0.9,0.9-1.2c0.4-0.3,0.9-0.6,1.5-0.8
						c0.6-0.2,1.3-0.3,2-0.3c0.7,0,1.3,0.1,1.9,0.3s1.1,0.4,1.4,0.6l0.5-0.5h0.8l0.1,4.3h-0.8c-0.2-0.5-0.4-0.9-0.6-1.4
						c-0.2-0.5-0.5-0.9-0.8-1.2c-0.3-0.3-0.6-0.6-1-0.8c-0.4-0.2-0.8-0.3-1.3-0.3c-0.6,0-1.1,0.2-1.6,0.5s-0.6,0.8-0.6,1.3
						c0,0.5,0.2,0.9,0.5,1.2c0.3,0.3,0.9,0.6,1.6,0.8c0.4,0.1,0.9,0.3,1.3,0.4s0.9,0.3,1.2,0.4c0.8,0.3,1.5,0.8,1.9,1.4
						c0.4,0.6,0.7,1.3,0.7,2.2c0,0.5-0.1,1.1-0.4,1.6c-0.3,0.5-0.6,0.9-1,1.3c-0.5,0.4-1,0.7-1.6,0.9
						C478.4,106.2,477.7,106.3,476.8,106.3z"/>
					<path fill="#FFFFFF" d="M488.7,106h-5.6v-0.6c0.2,0,0.3,0,0.4,0s0.3,0,0.4-0.1c0.2-0.1,0.3-0.2,0.4-0.3
						c0.1-0.1,0.1-0.3,0.1-0.5v-5.1c0-0.2,0-0.4-0.1-0.5c-0.1-0.2-0.2-0.3-0.4-0.4c-0.1-0.1-0.3-0.1-0.5-0.2
						c-0.2-0.1-0.4-0.1-0.6-0.1v-0.6l4.3-0.2l0.1,0.1v7c0,0.2,0,0.4,0.1,0.5c0.1,0.1,0.2,0.3,0.4,0.3c0.1,0.1,0.2,0.1,0.4,0.1
						s0.3,0.1,0.4,0.1V106z M487.5,94c0,0.4-0.2,0.8-0.5,1.1c-0.3,0.3-0.7,0.5-1.2,0.5c-0.5,0-0.9-0.2-1.2-0.5
						c-0.3-0.3-0.5-0.7-0.5-1.1s0.2-0.8,0.5-1.1c0.3-0.3,0.8-0.5,1.2-0.5s0.9,0.2,1.2,0.5S487.5,93.6,487.5,94z"/>
					<path fill="#FFFFFF" d="M499.4,98.3h-1.9c0.2,0.3,0.4,0.5,0.5,0.8c0.1,0.3,0.2,0.6,0.2,0.9c0,0.4-0.1,0.8-0.3,1.1
						s-0.5,0.6-0.9,0.9c-0.4,0.2-0.8,0.4-1.3,0.5s-1,0.2-1.6,0.2h-1.4c-0.1,0.1-0.1,0.1-0.2,0.3c-0.1,0.1-0.1,0.2-0.1,0.3
						c0,0.3,0.1,0.4,0.3,0.5s0.6,0.2,1.1,0.2c0.5,0,1.1,0,1.6,0.1s0.9,0.1,1.2,0.1c0.3,0,0.7,0.1,1,0.2s0.6,0.3,0.9,0.5
						c0.3,0.2,0.5,0.5,0.7,0.8c0.2,0.3,0.3,0.7,0.3,1.1c0,0.4-0.1,0.9-0.3,1.3c-0.2,0.4-0.5,0.7-1,1c-0.5,0.3-1,0.5-1.7,0.7
						c-0.6,0.2-1.4,0.2-2.4,0.2c-1.5,0-2.7-0.2-3.5-0.6s-1.2-0.9-1.2-1.7c0-0.5,0.2-0.8,0.6-1.1c0.4-0.3,1.1-0.5,2-0.5v-0.1
						c-0.5-0.2-1-0.4-1.3-0.7c-0.3-0.3-0.5-0.7-0.5-1.1c0-0.2,0.1-0.5,0.2-0.6c0.1-0.2,0.3-0.3,0.5-0.4c0.2-0.1,0.4-0.2,0.6-0.3
						c0.2-0.1,0.4-0.1,0.6-0.2v-0.1c-0.8-0.3-1.4-0.7-1.7-1.1c-0.4-0.4-0.6-0.9-0.6-1.5c0-0.9,0.4-1.5,1.2-2.1
						c0.8-0.5,1.8-0.8,3-0.8c0.4,0,0.8,0,1.2,0.1c0.4,0.1,0.7,0.1,0.8,0.2h3.4V98.3z M496.7,107.3c0-0.2-0.1-0.4-0.2-0.6
						c-0.1-0.2-0.4-0.4-0.7-0.5c-0.2,0-0.6-0.1-1-0.1s-1.1,0-2,0c-0.2,0.2-0.4,0.4-0.5,0.6s-0.2,0.5-0.2,0.9c0,0.1,0,0.3,0.1,0.5
						c0.1,0.2,0.2,0.3,0.4,0.5c0.2,0.2,0.4,0.3,0.7,0.4c0.3,0.1,0.6,0.1,1.1,0.1c0.8,0,1.3-0.1,1.7-0.4
						C496.5,108.4,496.7,108,496.7,107.3z M495.3,99.9c0-0.7-0.1-1.2-0.3-1.6c-0.2-0.4-0.6-0.6-1-0.6c-0.2,0-0.4,0.1-0.6,0.2
						c-0.2,0.1-0.3,0.3-0.4,0.5c-0.1,0.2-0.2,0.4-0.2,0.7c0,0.3-0.1,0.5-0.1,0.8c0,0.6,0.1,1.2,0.3,1.6s0.5,0.6,1,0.6
						c0.4,0,0.7-0.2,1-0.6S495.3,100.6,495.3,99.9z"/>
					<path fill="#FFFFFF" d="M511.5,106h-5.3v-0.6c0.1,0,0.2,0,0.4,0s0.3,0,0.4-0.1c0.1-0.1,0.2-0.2,0.3-0.3s0.1-0.3,0.1-0.5v-4.1
						c0-0.6-0.1-1-0.3-1.3c-0.2-0.3-0.5-0.5-1-0.5c-0.2,0-0.5,0-0.7,0.1s-0.4,0.2-0.6,0.3c-0.2,0.1-0.3,0.2-0.4,0.4
						c-0.1,0.1-0.2,0.2-0.3,0.3v4.7c0,0.2,0,0.4,0.1,0.5s0.2,0.2,0.3,0.3c0.1,0.1,0.2,0.1,0.4,0.1s0.3,0.1,0.4,0.1v0.6h-5.3v-0.6
						c0.1,0,0.3,0,0.4,0c0.2,0,0.3,0,0.4-0.1c0.2-0.1,0.3-0.2,0.4-0.3s0.1-0.3,0.1-0.5v-5.1c0-0.2,0-0.4-0.1-0.5s-0.2-0.3-0.4-0.4
						c-0.1-0.1-0.2-0.1-0.4-0.2c-0.2,0-0.3-0.1-0.5-0.1v-0.6l4.2-0.2l0.1,0.1v1.3h0c0.2-0.1,0.4-0.3,0.6-0.5s0.5-0.4,0.7-0.5
						c0.2-0.1,0.5-0.3,0.9-0.4s0.7-0.1,1.1-0.1c1,0,1.7,0.3,2.1,0.8c0.5,0.5,0.7,1.3,0.7,2.2v4.3c0,0.2,0,0.4,0.1,0.5
						s0.2,0.2,0.4,0.3c0.1,0,0.2,0.1,0.3,0.1c0.1,0,0.3,0.1,0.5,0.1V106z"/>
					<path fill="#FFFFFF" d="M531.4,94.2c-0.2,0-0.4,0.1-0.7,0.1c-0.3,0.1-0.6,0.2-0.8,0.3c-0.2,0.1-0.4,0.4-0.5,0.8
						c-0.1,0.4-0.1,1-0.1,1.7v4.6c0,1.4-0.5,2.5-1.4,3.3s-2.2,1.2-3.7,1.2c-1.8,0-3.1-0.4-4.1-1.2s-1.5-1.9-1.5-3.4v-6.4
						c0-0.2,0-0.4-0.1-0.5c-0.1-0.1-0.2-0.3-0.5-0.4c-0.2-0.1-0.3-0.1-0.6-0.2s-0.4-0.1-0.5-0.1v-0.7h6.5v0.7c-0.2,0-0.4,0-0.6,0.1
						c-0.2,0-0.4,0.1-0.6,0.1c-0.2,0.1-0.4,0.2-0.4,0.4s-0.1,0.3-0.1,0.6v6.3c0,1.2,0.3,2.1,0.8,2.7c0.5,0.6,1.3,0.8,2.4,0.8
						c1,0,1.8-0.3,2.4-0.9c0.6-0.6,0.9-1.5,0.9-2.7v-4.2c0-0.8-0.1-1.3-0.2-1.7c-0.1-0.4-0.3-0.6-0.5-0.8c-0.2-0.1-0.4-0.2-0.8-0.4
						c-0.4-0.1-0.6-0.2-0.8-0.2v-0.7h5.4V94.2z"/>
					<path fill="#FFFFFF" d="M542.6,101.7c0,1.2-0.4,2.3-1.2,3.2c-0.8,0.9-1.9,1.3-3.1,1.3c-0.6,0-1-0.1-1.4-0.2
						c-0.4-0.1-0.6-0.3-0.9-0.4H536v2.5c0,0.2,0,0.4,0.1,0.5c0.1,0.2,0.2,0.3,0.4,0.3c0.2,0.1,0.4,0.1,0.7,0.2
						c0.3,0.1,0.5,0.1,0.7,0.1v0.7h-6.4v-0.7c0.1,0,0.3,0,0.6-0.1s0.4-0.1,0.5-0.1c0.2-0.1,0.3-0.2,0.4-0.3c0.1-0.2,0.1-0.3,0.1-0.5
						v-9c0-0.2-0.1-0.4-0.1-0.5c-0.1-0.1-0.2-0.3-0.3-0.4c-0.1-0.1-0.3-0.1-0.5-0.2c-0.2,0-0.4-0.1-0.6-0.1v-0.6l4.3-0.2l0.1,0.1v1
						l0.1,0c0.4-0.4,0.8-0.7,1.3-0.9c0.5-0.2,0.9-0.3,1.4-0.3c1.2,0,2.2,0.4,2.9,1.3C542.3,99.2,542.6,100.3,542.6,101.7z
						 M539.5,101.8c0-0.4,0-0.9-0.1-1.3s-0.2-0.8-0.3-1.1c-0.2-0.3-0.4-0.6-0.6-0.8s-0.6-0.3-1-0.3c-0.4,0-0.7,0.1-0.9,0.2
						c-0.2,0.1-0.4,0.3-0.6,0.5v5c0,0.1,0.1,0.3,0.2,0.5c0.1,0.2,0.2,0.3,0.3,0.4c0.1,0.2,0.3,0.3,0.5,0.4c0.2,0.1,0.4,0.1,0.6,0.1
						c0.6,0,1-0.3,1.4-0.9C539.3,103.9,539.5,103,539.5,101.8z"/>
				</g>
			</g>
		</g>
	</g>
</g>
</svg>
