<?xml version="1.0" encoding="utf-8"?>
<!-- Generator: Adobe Illustrator 18.1.1, SVG Export Plug-In . SVG Version: 6.00 Build 0)  -->
<svg version="1.1" id="Layer_1" xmlns="http://www.w3.org/2000/svg" xmlns:xlink="http://www.w3.org/1999/xlink" x="0px" y="0px"
	 viewBox="440 77 1165 100" enable-background="new 440 77 1165 100" xml:space="preserve">
<title>1165x100 Collapsed</title>
<desc>Created with Sketch.</desc>
<g id="Page-1">
	<g id="Direction-_x23_1-grey-Revisions" transform="translate(-91.000000, -987.000000)">
		<g id="_x31_165x100-Collapsed" transform="translate(91.000000, 987.000000)">
			<rect id="Rectangle-Copy-3" x="440" y="77" fill="#EBEBEB" width="1165" height="100"/>
			<g id="skyline-Background">
				<g id="Rectangle-Copy-5">
				</g>
				<defs>
					<filter id="Adobe_OpacityMaskFilter" filterUnits="userSpaceOnUse" x="264" y="53" width="1407.2" height="132">
						<feColorMatrix  type="matrix" values="1 0 0 0 0  0 1 0 0 0  0 0 1 0 0  0 0 0 1 0"/>
					</filter>
				</defs>
				<mask maskUnits="userSpaceOnUse" x="264" y="53" width="1407.2" height="132" id="mask-2">
					<g filter="url(#Adobe_OpacityMaskFilter)">
						<rect id="path-1" x="440" y="77" fill="#FFFFFF" width="1165" height="100"/>
					</g>
				</mask>
				<g id="Skyline" mask="url(#mask-2)">
					<g transform="translate(-176.000000, -24.000000)">
						<g>
							<path id="Combined-Shape" fill="#B6B6B6" d="M698.1,152.2v-21.8h3.8v-3.2h9.7v3h3.5v25h3.8h3.2V153h17.5V147h2.4v-41.5h3.5
								v-4.8h2.7v-6.2h2.4v5.9h2.4v5.4h4v36.2h8.5v-2.3h1.1v-1.8v-2.8h3v4.6h0.7v1.2h1.2v0.6h9.2v10.2h0.9v-9.2h6.1v-12.6h6.7v11.6
								h2.4v1.1h9.2v-26.6l15.3-17.2h3v48.7h5.1v-5.7h16.4v5.7h4.8V97.8h5.4v-4.3h11v4.6h5.4v46.3h9.7v4.6h9.4v-21.5l2.4-1.9h12.7
								l2.4,2.4v25.6h6.7v14.8h6.5v40.4h-84v0.3H536.8v-27.6v-4.9h1.2v-10.9h1.3v-6.7h1.3v-1.1h0.8V155h8.2v2.7h1.2v1.5h0.9v10.7
								h5.6h5v-23.5h1.5V145h0.7v-1.1l4.4-3.2l4.1,3.5v1h0.5v18.6h8.2v-3.6h13.3v-57.8h3v-2.1h3.9h0.1l0.4-23.2l0.4,23.2h4v2.5h3.4
								v39.7h10.4V167h7.2v-1.8h2.4v4.6h4.6v-23h7.5v8.9h1.8v-30.3H658v43.1h1.2v-10.5h4.2v10.2h0.8V151h3v-11.1h16.1v26.8v7.4h4.9
								v-6.7h0.7v-2.9h1v-10h2v-10.4h4.3v8.1H698.1z"/>
							<path id="Combined-Shape_1_" fill="#4D4D4D" d="M715.2,171.8V170v-15.9h1.3v-2.4l3.8-8.7v-3.8l0.9-5l0.9,5v3.8l3.8,8.7v2.4
								h1.4V170v2.7h0.2v-8.3h4.2v-1.8h1.4v1.7h0.5v-0.8h2.9v1.7h1.3v-0.9h3.9v2.8h0.5v10.3h0.8v5.2h1.3v6.3h1v-13.2h1.4v-6h0.9V168
								h2.1v9.2h0.7v-2h1.5v-1.8h1.7V166h1v-0.7h0.7v-1.1l1.1-1.6v-1.7h0.9v1.8l1.1,1.7v1.1h0.8v0.8h0.7v7.5h1.6V157h6.6v11.6h5
								v-25.5h18.3v1.7h0.6V166v10.3h4.1v-9.6h2.7v-2h4.6v2.1c0,0,5.1,0.2,5.1,0s0-13.7,0-13.7h-0.9v-1.6h21.1v1.8h-1.1v25.1h2.9
								v2.8h0.9v-19.6h4.4v-2.2h7.2v2.5h4.4v22.2h9.5v2.1h6.3v-34.3h9.1v-4.3h4.6v-2.7h8.1v2.5h3.5v9.1h8.7v-2.6h5.9v2.8h4.5V197h1
								v-0.9h4v1.1h7.9v2.1h17v-7.4h27.8v2.2h20.5v2.5h17.2v3.8h33.1v5H888v1.6v0H597.6V193v-5.6h6.5v-14.5h15.4v9.5h3.2h2.2v-24.4
								h1.6v-1.5h0.9h0.2c0.5-1.9,2.2-3.3,4.3-3.3s3.8,1.4,4.3,3.3h1.2v1.6h1.2v14.3h3.6v11.9h0.6v-12.2h0.9v-11.4h1.2v-1.1h0.7
								v-1.3l1.8-1.8h5.2l1.6,2.1v1.1h0.8v1.2h0.8v11.6h0.9v7.8h1V168h0.8v-1.8h0.8v-1h0.8v-1.1h2.5v1h0.8v1.3h0.7v1.8h0.6v1.1h1.4
								v2.7h2.2v-1.3h0.3v-1.4h0.9v-1.9h0.3v-0.7h0.2v-1h1.5v1h2.9v2h2.1v-6.5h1.4l4.4,1.6v1.7h2.2v19.6c0,0,2.2,0.2,2.2,0
								c0-0.1,0-11.3,0-11.3h1.2v-1h0.2v-0.6h0.3v-0.5h1.2v0.5h0.4v0.6h0.3v-2h2.8v15.7h0.5v-9.5h2.4v-12.8h2.3v-4.5h1v-2h2.4v2h0.7
								v0.7h0.7v3.3h0.8v1.5h4v2.2h0.9v6.3h0.8v1.2h1v1.1h0.5v-4.3H715.2z"/>
							<path id="Combined-Shape_2_" fill="#7D7D7D" d="M788.4,189v-6.6h5.5v8.2h2.9v-0.1h1v-0.1h1.5V189h0.4v-1h6v-6.9h18v4.7h1.9
								v0.1h3.7v-3.5h1.6v-1.8h12.8v0.7h0.6v-1.5h5.3v1.5h2.1v8.7h6.1v2.3h4.1v2.9h2V193h3.6v2.2h2.6v-6.5h0.2v-5.9h5v-2.5h2.5v2.5
								h5v6.2h4.2v3.8h1.4v-0.3h2.8v-1.9h3.3v-0.1h2.5V189h6.4v-7.9h18v4.8h9.6v-1h1.7v-1h2.8v1.2h1.6v5h2.6v-8.7h2.4v-1.5h5.3v1.5
								h2.1v4.7h0.5v4h5.6v0.8h10.3v2h1.7v3.8h0.3v-8h6.7v0.2h2.7v7.7h3.2V186h1.4v-1.5h11v1.5h1.4v4.2h3.7v0.4h3.1v1.9h2.6v2h1.3
								v2.5h10.7v-10.6h4.3v-2.2h2.2v2.2h4.3v5.3h3.6v3.3h12.7v-9h1.3v-1.1h15.5v4.2h10.6v3.5h1.2v-3.7h3.3v3.7h0.6v-7.5h2v-1.3h4.6
								v0.6h8.4v1.5h1.4v4.2h3.7v4.3h7v2.5h10.7v-10.6h4.3v-2.2h2.2v2.2h4.3v4.2h9.8v1.9h2.8v2.5h3.3v-0.8h1.8v-9.3h15.5v4.2h1.2
								v-0.7h2.6v-2.4h11.9v-0.8h2v-1.3h4.6v1.3h1.8v7.5h4.3V185h1.6v-1.2h0.2v-0.3h6.7v11.6h0.8v4.8h2.5v-2.2h0.9v-0.6h1.7v-3.9h11
								v-2.4h1.9V189h0.4v-2.1h5.8v2.1h6.6v1.5h2.5v0.1h3.3v1.9h2.8v3.4h2.4v-0.9h0.9v-0.7h8.4v-5.5h2.7v-0.6h1.6v-1.8h1.9v-2.4
								h12.8v1.8h2.5v0.2h3.3v2.4h2.8v3h4v1.2h3.3v-1.1h2.5V185h1.6v-1.2h0.2v-0.3h6.7v0.4h9.3v2.4h1.9v1.8h1.6v5.2h4v-2.4h1.9V189
								h0.4v-2.1h5.8v2.1h6.6v1.5h2.5h1.7V189h12.8v1.9h1.9v2.4h4v-5.2h1.6v-1.8h1.9v-2.4h9.3v-0.4h6.7v0.3h0.2v1.2h1.6v6.4h2.5v1.1
								h3.3v-1.2h4v-3h2.8v-2.4h3.3v-0.2h2.5v-1.8h12.8v2.4h1.9v1.8h1.6v0.6h2.7v5.5h8.4v0.7h0.9v0.9h2.4v-3.4h2.8v-1.9h3.3v-0.1
								h2.5V189h6.6v-2.1h5.8v2.1h0.4v1.9h1.9v2.4h11v3.9h1.7v0.6h0.9v2.3h3.3v-16.5h6.7v0.3h0.2v1.2h1.6v11.6h2.8v2.9h3v-8.2h4v-3
								h2.8v-2.4h12.1v2.4h2.6v9.9h2.3v2.9h1.1v-12.5h6.7v5.5h8.4v3.9h3.3v-5.6h2.8v-1.9h12.1v1.9h2.6v7.8h1v0.1h1.4v2.3h2.9v-5.6
								h13.2v3.1h11.5v3.9h6.4V202h3.8v2.2h4.8v2.6h5.2v1.9h-2.8h-163.6H1376h-170.4h-179.2H844h-96.8h-2.8H537.6H440v-3.9h7.6v-3.1
								h5.6v-9.4h4.7v9.4h5.2v-4.5h1v-1.1h6.6v1.1h0.9v4.4h2V195h3.3v6.9h1v-2.2h3.1v-3.8h4.5v5.3h4.8v-10.7h2.5V189h12.8v1.9h1.9
								v10.8h2.6v-2.6h2.5v2.6h2.6v-3.9h5.8v5.3h5.7v-18.1h1.7v-1h2.8v1.2h1.6v14.5h5.8v-8.2h5.8v5.1h6.2v-4.1h4.7v4.1h2.4v5.2h2.9
								v-4.5h1v-1.1h1.9v-7.4h6.7v10.4h1V195h3.3v2.2h0.7v-1.1h3.4v-0.2h3.2v-3.4h2.8v-1.9h3.3v-0.1h2.5V189h12.8v1.5h0.8V189h12.8
								v1.9h1.9v9.4h2.6v-1.2h2.5v1.2h0.5v-15.3h1.7v-1h2.8v1.2h1.6v12.7h1.8v1.8h4v-8.2h1.7v-6.4h1.7v-1h2.8v1.2h1.6v11.4h5.8v-5.1
								h5.8v5.1h5.5v-7.7h6.7v7.7h1.1v2.6h2.9v-1.9h1v-1.1h1.9v-7.4h6.7v3.8h0.8v-1.9h8.5v-8.2h5.5v8.2h2.9v-0.1h1v-0.1h1.5V189h0.4
								v-1h12.6v2.4h1.9v4.4h7.4v-9h3.9v9h3.7v-12.3h1.6v-1.8H746v1.8h1.6v4.8h4.3v4.1h1.4v0.9h6.8v0.1h4.1v2.9h8.2v-6.5h0.2v-5.9h5
								v-2.5h2.5v2.5h5v6.2H788.4z"/>
							<path id="Combined-Shape-Copy-3" fill="#7D7D7D" d="M1047.7,199.1v-4.4h6.4v-12.3h5.5v8.2h3.9v-0.3h1.9V188h12.6v2.4h1.9v4.4
								h7.4v-9h3.9v9h3.7v-12.3h1.6v-1.8h12.8v1.8h1.6v4.8h4.3v5h8.2v0.1h4.1v2.9h8.3v-12.3h5v-2.5h2.5v2.5h5v6.2h4.2v3.8h7.5v-2.4
								h2.5V189h6.4v-7.9h18v4.8h9.6v-1h1.7v-1h2.8v1.2h1.6v5h2.6v-8.7h2.4v-1.5h5.3v1.5h2.1v8.7h6.1v5.3h6.1V193h3.6v5.6h2.6v-9.8
								h6.7v10.4h4.7v3.1h4.7v-2.6h2.3v-7h2.8v-1.9h12.1v1.9h2.6v7.9h2.3v2.3h2.9v-5.6h13.2v3.1h11.5v3.9h3.8v-7.5h5.5V186h4.7v10.6
								h3.3v-3.8h1.7v-2h10.9v2h1.7v3.8h6.4v-7.7h3.3v7.7h3.2V186h1.4v-1.5h11v1.5h1.4v4.2h3.7v4.3h7v2.5h10.7v-10.6h4.3v-2.2h2.2
								v2.2h4.3v5.3h3.6v3.3h14.1v-10.1h15.5v4.2h10.6v3.5h5.1v-7.5h2v-1.3h4.6v1.3h1.8v7.5h5.2v4.6h5.2v-2h3.1v4.8h3.4v-2.8h13.2
								v5.6h2.9v-2.3h1.4v-0.1h1v-7.8h2.6v-1.9h12.1v1.9h2.8v5.6h3.3v-3.9h8.4v-5.5h6.7v12.5h1.1v-2.9h2.3l2.4-0.2v-1.7h13.2v-5.1
								h5.8v8.2h3v-2.9h4.7l6.7,3.5h3.3v-2.3h2.5v-4.5h11v-2.4h1.9V189h5.1l11.3-10.2h1.7v22.4h2v-5.3h3.7v-0.9h5.8v0h2.4v4.9h0.2
								v-3.3h2.5v0.6h0.2v-1.1h2.4v-9.8h1.9v-2.4h12.8v1.8h2.5v13.4h4.8v-6.6h4.5v4.8h3.1v2.8h1v-8.6h3.3v8.3h2v-5.5h0.9v-1.4h0.8
								v-0.5h4.7v0.5h1.2v1.4h1v5.6h3v-2.7h1v-1.1h1.2v-8h4.7v8h0.8v1.1h0.9v2.7h2V195h3.3v6.9h1v-2.2h3.1v-3.8h4.5v5.3h4.8v-10.7
								l17.2,11.3h2.6v-2.6h2.5v2.6h2.6v-3.9h5.8v5.3h5.7l6.1-3.5h5.8l5.8-3.1h13.2v5.4h5.8v-13.2h6.7v10.4h4.7v3.1h4.7v-2.6h2.3
								l17.5-0.7l2.3,1.6v2.3h2.9v-5.6h13.2v3.1h11.5v3.9h6.4V202h3.8v2.2h4.8v2.6h5.2v1.9h-2.8h-163.6h-39.2h-170.4H1292h-182.4
								h-96.8h-2.8H803.2v-3.9h7.6v-3.1h5.6v-9.4h4.7v9.4h5.2v-4.5h1v-1.1h6.6v1.1h0.9v4.4h2V195h3.3v6.9h1v-2.2h3.1v-3.8h4.5v5.3
								h4.8v-10.7h2.5V189h12.8v1.9h1.9v10.8h2.6v-2.6h2.5v2.6h2.6v-3.9h5.8v5.3h5.7v-18.1h1.7v-1h2.8v1.2h1.6v14.5h5.8v-8.2h5.8
								v5.1H921v5.4h1v-0.2h4.9v-13h6.7v10.4h4v-1.9h1v-1.1h6.6v-3.6h2.8v-1.9H960v1.9h2.6v7.9h2.2v-9.9h2.5V189h12.8v1.9h1.9v9.4
								h2.6v-1.2h2.5v1.2h2.6v-2.5h5.8v5.3h3.4v-1h2.2v-17.1h1.7v-1h2.8v1.2h1.6v14.5h5.8v-8.2h5.8v5.1h13.2v5.4h5.8v-13.2h6.7v10.4
								H1047.7z"/>
						</g>
					</g>
				</g>
			</g>
		</g>
	</g>
</g>
<g id="titlearea_1_" transform="translate(256.000000, 4.000000)">
	<text transform="matrix(1 0 0 1 577.6541 135.4835)" font-family="'HelveticaNeue-Bold'" font-size="9.7121">Our Reporting In Your Inbox</text>
	<text transform="matrix(1 0 0 1 558.285 102.463)" font-family="'HelveticaNeue-Bold'" font-size="14.5682">City Limits</text>
	<text transform="matrix(1 0 0 1 558.285 124.3859)" fill="#FF0000" font-family="'HelveticaNeue-Bold'" font-size="25.6677">Newsletters</text>
</g>
</svg>
