<?xml version="1.0" encoding="utf-8"?>
<!-- Generator: Adobe Illustrator 18.1.1, SVG Export Plug-In . SVG Version: 6.00 Build 0)  -->
<svg version="1.1" id="Layer_1" xmlns="http://www.w3.org/2000/svg" xmlns:xlink="http://www.w3.org/1999/xlink" x="0px" y="0px"
	 viewBox="245 77 776 100" enable-background="new 245 77 776 100" xml:space="preserve">
<title>776x100 collapsed</title>
<desc>Created with Sketch.</desc>
<g id="Page-1">
	<g id="Direction-_x23_1-grey-Revisions" transform="translate(-93.000000, -205.000000)">
		<g id="_x37_76x100-collapsed" transform="translate(93.000000, 205.000000)">
			<rect id="Rectangle-Copy-2" x="245" y="77" fill="#EBEBEB" width="776" height="100"/>
			<g id="Skyline-Background">
				<g id="Rectangle-Copy-7">
				</g>
				<defs>
					<filter id="Adobe_OpacityMaskFilter" filterUnits="userSpaceOnUse" x="59" y="65" width="1187.3" height="112.4">
						<feColorMatrix  type="matrix" values="1 0 0 0 0  0 1 0 0 0  0 0 1 0 0  0 0 0 1 0"/>
					</filter>
				</defs>
				<mask maskUnits="userSpaceOnUse" x="59" y="65" width="1187.3" height="112.4" id="mask-2">
					<g filter="url(#Adobe_OpacityMaskFilter)">
						<rect id="path-1" x="245" y="77" fill="#FFFFFF" width="776" height="100"/>
					</g>
				</mask>
				<g id="Skyline" mask="url(#mask-2)">
					<g transform="translate(-186.000000, -12.000000)">
						<g>
							<path id="Combined-Shape" fill="#B6B6B6" d="M462.8,141v-18.6h3.2v-2.7h8.2v2.5h3v21.3h3.2h2.7v-1.8h14.8v-5h2v-35.3h3v-4.1
								h2.3v-5.3h2v5h2v4.6h3.4v30.8h7.2v-1.9h0.9V129v-2.4h2.5v3.9h0.6v1h1v0.5h7.7v8.7h0.7V133h5.2v-10.8h5.7v9.9h2v0.9h7.7v-22.7
								l12.9-14.7h2.5v41.5h4.3v-4.8h13.9v4.8h4.1V94.7h4.5V91h9.3v3.9h4.5v39.4h8.2v3.9h8v-18.3l2-1.6h10.7l2,2.1v21.8h5.7v12.6
								h5.5v34.4h-70.9v0.3H326.7v-23.5v-4.2h1v-9.3h1.1v-5.7h1.1v-1h0.6v-2.4h6.9v2.3h1v1.3h0.8v9.1h4.8h4.2v-20h1.3v-1.3h0.6v-0.9
								l3.7-2.8l3.5,3v0.8h0.5v15.9h6.9v-3.1H376V98.6h2.6v-1.8h3.3h0l0.3-19.7l0.4,19.7h3.3v2.1h2.9v33.8h8.8v20.9h6.1V152h2v3.9
								h3.8v-19.6h6.3v7.6h1.5v-25.8h11.5v36.7h1v-9h3.6v8.7h0.7V140h2.5v-9.5h13.6v22.8v6.3h4.1v-5.7h0.6v-2.5h0.8v-8.5h1.7v-8.8
								h3.6v6.9H462.8z"/>
							<path id="Combined-Shape_1_" fill="#4D4D4D" d="M477.2,157.7v-1.5v-13.5h1.1v-2.1l3.2-7.4V130l0.7-4.2l0.8,4.2v3.2l3.2,7.4
								v2.1h1.1v13.5v2.3h0.2v-7.1h3.5v-1.5h1.2v1.5h0.4v-0.7h2.5v1.4h1.1v-0.8h3.3v2.4h0.4v8.8h0.7v4.4h1.1v5.4h0.9v-11.2h1.2V156
								h0.8v-1.5h1.8v7.9h0.6v-1.7h1.3v-1.5h1.4v-6.3h0.8v-0.6h0.6v-1l1-1.4v-1.5h0.8v1.5l0.9,1.5v0.9h0.7v0.7h0.6v6.4h1.3v-14.3
								h5.5v9.9h4.3v-21.7h15.5v1.4h0.5v18.1v8.8h3.5v-8.2h2.3v-1.7h3.9v1.8c0,0,4.3,0.1,4.3,0c0-0.1,0-11.7,0-11.7h-0.7v-1.4h17.8
								v1.5H572v21.3h2.4v2.4h0.8v-16.7h3.7V147h6.1v2.1h3.7V168h8v1.8h5.3v-29.2h7.7v-3.7h3.8v-2.3h6.8v2.1h2.9v7.7h7.3v-2.2h4.9
								v2.4h3.8v34.5h0.8v-0.8h3.4v0.9h6.7v1.8h14.3v-6.3h23.5v1.9h17.3v2.2h14.5v3.2h27.9v4.3H623v1.3v0H378v-12V171h5.5v-12.4h13
								v8.1h2.7h1.8v-20.8h1.4v-1.2h0.8h0.2c0.4-1.6,1.9-2.8,3.6-2.8c1.8,0,3.2,1.2,3.6,2.8h1v1.3h1v12.2h3.1v10.2h0.5V158h0.8v-9.7
								h1v-0.9h0.6v-1.1l1.5-1.5h4.4l1.3,1.8v0.9h0.7v1h0.7v9.9h0.8v6.7h0.9v-10.5h0.7V153h0.7v-0.9h0.7v-0.9h2.1v0.9h0.7v1.1h0.6
								v1.5h0.5v0.9h1.2v2.3h1.9v-1.1h0.3v-1.2h0.8V154h0.3v-0.6h0.2v-0.8h1.3v0.8h2.4v1.7h1.8v-5.5h1.2l3.7,1.4v1.5h1.9v16.7
								c0,0,1.9,0.1,1.9,0c0-0.1,0-9.6,0-9.6h1v-0.8h0.2v-0.5h0.3v-0.4h1v0.5h0.3v0.5h0.3V157h2.4v13.4h0.4v-8.1h2v-10.9h1.9v-3.9
								h0.8v-1.7h2.1v1.7h0.6v0.6h0.6v2.8h0.7v1.3h3.4v1.8h0.8v5.4h0.7v1h0.8v0.9h0.4v-3.7H477.2z"/>
							<path id="Combined-Shape_2_" fill="#7D7D7D" d="M539,172.3v-5.6h4.6v7h2.5v-0.1h0.8v-0.1h1.3v-1.1h0.3v-0.9h5v-5.9h15.1v4
								h1.6v0.1h3.1v-3h1.4v-1.5h10.8v0.6h0.5v-1.3h4.5v1.3h1.8v7.4h5.1v1.9h3.5v2.4h1.7v-1.9h3v1.9h2.2v-5.5h0.1v-5h4.3V165h2.1
								v2.1h4.3v5.3h3.5v3.3h1.2v-0.3h2.3v-1.6h2.8v-0.1h2.1v-1.2h5.4v-6.8H651v4.1h8.1v-0.9h1.5V168h2.3v1h1.4v4.2h2.2v-7.4h2v-1.3
								h4.5v1.3h1.8v4h0.4v3.4h4.7v0.7h8.7v1.7h1.4v3.2h0.3v-6.8h5.6v0.2h2.3v6.6h2.7v-9h1.2v-1.3h9.3v1.3h1.2v3.6h3.1v0.3h2.6v1.6
								h2.2v1.7h1.1v2.2h9.1v-9h3.7v-1.8h1.8v1.8h3.7v4.5h3v2.8h10.7v-7.6h1.1v-1h13v3.6h9v3h1v-3.1h2.8v3.1h0.5v-6.4h1.7V168h3.9
								v0.5h7.1v1.3h1.2v3.6h3.1v3.7h5.9v2.2h9.1v-9h3.7v-1.8h1.8v1.8h3.7v3.6h8.2v1.6h2.3v2.1h2.8v-0.7h1.6v-7.9h13v3.6h1v-0.6h2.2
								v-2h10.1v-0.7h1.7V168h3.9v1.1h1.5v6.4h3.6V169h1.4v-1h0.2v-0.3h5.6v9.9h0.6v4.1h2.1v-1.9h0.7v-0.5h1.4V176h9.3v-2h1.6v-1.6
								h0.3v-1.8h4.9v1.8h5.6v1.2h2.1v0.1h2.8v1.6h2.3v2.9h2v-0.8h0.7v-0.6h7.1v-4.7h2.3v-0.5h1.4v-1.5h1.6v-2h10.8v1.6h2.1v0.2h2.8
								v2h2.3v2.6h3.4v1h2.8v-0.9h2.1V169h1.4v-1h0.2v-0.3h5.6v0.3h7.9v2h1.6v1.5h1.4v4.4h3.4v-2h1.6v-1.6h0.3v-1.8h4.9v1.8h5.6v1.2
								h2.1h1.5v-1.2h10.8v1.6h1.6v2h3.4v-4.4h1.4v-1.5h1.6v-2h7.9v-0.3h5.6v0.3h0.2v1h1.4v5.5h2.1v0.9h2.8v-1h3.4v-2.6h2.3v-2h2.8
								v-0.2h2.1V168h10.8v2h1.6v1.5h1.4v0.5h2.3v4.7h7.1v0.6h0.7v0.8h2v-2.9h2.3v-1.6h2.8v-0.1h2.1v-1.2h5.6v-1.8h4.9v1.8h0.3v1.6
								h1.6v2h9.3v3.3h1.4v0.5h0.7v2h2.8v-14.1h5.6v0.3h0.2v1h1.4v9.8h2.4v2.5h2.5v-7h3.4v-2.6h2.3v-2h10.2v2h2.2v8.5h2v2.5h0.9
								v-10.6h5.6v4.7h7.1v3.3h2.8v-4.7h2.3v-1.6h10.2v1.6h2.2v6.6h0.8v0.1h1.2v2h2.5v-4.7h11.2v2.6h9.7v3.4h5.4v-1.9h3.2v1.9h4.1
								v2.2h4.4v1.6h-2.4h-138h-33.1H891H739.8H585.9h-81.7h-2.4H327.4H245v-3.3h6.4v-2.7h4.7v-8h3.9v8h4.4v-3.8h0.9v-0.9h5.6v0.9
								h0.8v3.7h1.7v-5.6h2.8v5.8h0.9v-1.9h2.6v-3.2h3.8v4.5h4.1v-9.1h2.1v-1.2h10.8v1.6h1.6v9.2h2.2v-2.2h2.1v2.2h2.2v-3.4h4.9v4.5
								h4.8v-15.4h1.5V168h2.3v1h1.4v12.3h4.9v-7h4.9v4.4h5.3v-3.5h3.9v3.5h2v4.4h2.4v-3.8h0.9v-0.9h1.6v-6.3h5.6v8.8h0.8v-3.5h2.8
								v1.9h0.6v-0.9h2.9v-0.2h2.7v-2.9h2.3v-1.6h2.8v-0.1h2.1v-1.2h10.8v1.2h0.7v-1.2h10.8v1.6h1.6v8h2.2v-1h2.1v1h0.4v-13.1h1.5
								V168h2.3v1h1.4v10.8h1.5v1.5h3.4v-7h1.4v-5.5h1.5V168h2.3v1h1.4v9.7h4.9v-4.4h4.9v4.4h4.6v-6.6h5.6v6.6h0.9v2.2h2.4v-1.6h0.9
								v-0.9h1.6v-6.3h5.6v3.2h0.7v-1.6h7.2v-7h4.6v7h2.5v-0.1h0.8v-0.1h1.3v-1.1h0.3v-0.9h10.6v2h1.6v3.8h6.3v-7.6h3.3v7.6h3.1
								v-10.5h1.4v-1.5h10.8v1.5h1.4v4.1h3.6v3.5h1.2v0.8h5.7v0.1h3.5v2.4h6.9v-5.5h0.1v-5h4.3V165h2.1v2.1h4.3v5.3H539z"/>
							<path id="Combined-Shape-Copy-3" fill="#7D7D7D" d="M757.7,180.9v-3.7h5.4v-10.5h4.6v7h3.3v-0.2h1.6v-2h10.6v2h1.6v3.8h6.3
								v-7.6h3.3v7.6h3.1v-10.5h1.4v-1.5h10.8v1.5h1.4v4.1h3.6v4.3h6.9v0.1h3.5v2.4h7v-10.5h4.3V165h2.1v2.1h4.3v5.3h3.5v3.3h6.3v-2
								h2.1v-1.2h5.4v-6.8h15.1v4.1h8.1v-0.9h1.5V168h2.3v1h1.4v4.2h2.2v-7.4h2v-1.3h4.5v1.3h1.8v7.4h5.1v4.5h5.1v-2h3v4.8h2.2v-8.4
								h5.6v8.8h3.9v2.6h3.9v-2.2h2v-6h2.3v-1.6h10.2v1.6h2.2v6.7h2v2h2.5v-4.7h11.2v2.6h9.7v3.4h3.2v-6.4h4.6v-9h4v9h2.8v-3.2h1.4
								v-1.7h9.2v1.7h1.4v3.2h5.4v-6.6h2.8v6.6h2.7v-9h1.2v-1.3h9.3v1.3h1.2v3.6h3.1v3.7h5.9v2.2h9.1v-9h3.7v-1.8h1.8v1.8h3.7v4.5h3
								v2.8h11.9v-8.6h13v3.6h9v3h4.3v-6.4h1.7V168h3.9v1.1h1.5v6.4h4.4v3.9h4.4v-1.7h2.6v4.1h2.9v-2.4h11.2v4.7h2.5v-2h1.2V182h0.8
								v-6.6h2.2v-1.6h10.2v1.6h2.3v4.7h2.8v-3.3h7.1v-4.7h5.6v10.6h0.9v-2.5h2l2-0.1v-1.4h11.2v-4.4h4.9v7h2.5v-2.5h3.9l5.6,3h2.8
								v-2h2.1V176h9.3v-2h1.6v-1.6h4.3l9.5-8.7h1.5v19h1.7v-4.5h3.1v-0.8h4.9v0h2v4.2h0.2v-2.8h2.1v0.5h0.2v-0.9h2v-8.3h1.6v-2
								h10.8v1.6h2.1V181h4.1v-5.6h3.8v4.1h2.6v2.3h0.9v-7.4h2.8v7h1.7v-4.7h0.8v-1.2h0.6v-0.5h3.9v0.5h1v1.2h0.9v4.8h2.5v-2.3h0.9
								v-0.9h1v-6.8h3.9v6.8h0.6v0.9h0.8v2.3h1.7v-4.1h2.8v5.8h0.9v-1.9h2.6v-3.2h3.8v4.5h4.1v-9.1l14.5,9.6h2.2v-2.2h2.1v2.2h2.2
								v-3.4h4.9v4.5h4.8l5.2-3h4.9l4.9-2.6h11.2v4.6h4.9v-11.2h5.6v8.8h3.9v2.6h3.9v-2.2h2l14.7-0.6l2,1.4v2h2.5v-4.7h11.2v2.6h9.7
								v3.4h5.4v-1.9h3.2v1.9h4.1v2.2h4.4v1.6h-2.4h-138h-33.1h-143.8H963.9H810h-81.7h-2.4H551.5v-3.3h6.4v-2.7h4.7v-8h3.9v8h4.4
								v-3.8h0.9v-0.9h5.6v0.9h0.8v3.7h1.7v-5.6h2.8v5.8h0.9v-1.9h2.6v-3.2h3.8v4.5h4.1v-9.1h2.1v-1.2h10.8v1.6h1.6v9.2h2.2v-2.2
								h2.1v2.2h2.2v-3.4h4.9v4.5h4.8v-15.4h1.5V168h2.3v1h1.4v12.3h4.9v-7h4.9v4.4h11.2v4.6h0.8v-0.2h4.1v-11h5.6v8.8h3.4v-1.6h0.9
								v-0.9h5.6v-3.1h2.3v-1.6h10.2v1.6h2.2v6.7h1.9v-8.5h2.1v-1.2h10.8v1.6h1.6v8h2.2v-1h2.1v1h2.2v-2.1h4.9v4.5h2.9v-0.9h1.9
								v-14.6h1.5V168h2.3v1h1.4v12.3h4.9v-7h4.9v4.4h11.2v4.6h4.9v-11.2h5.6v8.8H757.7z"/>
						</g>
					</g>
				</g>
			</g>
			<g id="titlearea" transform="translate(256.000000, 4.000000)">
				<text transform="matrix(1 0 0 1 272.922 144.6)" font-family="'HelveticaNeue-Bold'" font-size="14">Our Reporting In Your Inbox</text>
				<text transform="matrix(1 0 0 1 245 97)" font-family="'HelveticaNeue-Bold'" font-size="21">City Limits</text>
				<text transform="matrix(1 0 0 1 245 128.6)" fill="#FF0000" font-family="'HelveticaNeue-Bold'" font-size="37">Newsletters</text>
			</g>
		</g>
	</g>
</g>
</svg>
