<?xml version="1.0" encoding="utf-8"?>
<!-- Generator: Adobe Illustrator 18.1.1, SVG Export Plug-In . SVG Version: 6.00 Build 0)  -->
<svg version="1.1" id="Layer_1" xmlns="http://www.w3.org/2000/svg" xmlns:xlink="http://www.w3.org/1999/xlink" x="0px" y="0px"
	 viewBox="-71 100 143 53" enable-background="new -71 100 143 53" xml:space="preserve">
<filter  height="131.1%" width="110.4%" x="-5.2%" id="filter-2" filterUnits="objectBoundingBox" y="-11.1%">
	<feOffset  dx="0" in="SourceAlpha" result="shadowOffsetOuter1" dy="2"></feOffset>
	<feGaussianBlur  in="shadowOffsetOuter1" result="shadowBlurOuter1" stdDeviation="2"></feGaussianBlur>
	<feColorMatrix  type="matrix" values="0 0 0 0 0   0 0 0 0 0   0 0 0 0 0  0 0 0 0.272180944 0" in="shadowBlurOuter1">
		</feColorMatrix>
</filter>
<title>SIGN UP button</title>
<desc>Created with Sketch.</desc>
<g id="Page-1">
	<g id="Direction-_x23_1-grey-Revisions" transform="translate(-633.000000, -1004.000000)">
		<g id="_x31_165x100-Collapsed" transform="translate(91.000000, 987.000000)">
			<g id="SIGN-UP-button" transform="translate(546.000000, 19.000000)">
				<g id="Rectangle">
					<g filter="url(#filter-2)">
						<polygon id="path-1_2_" points="-71,100 64,100 64,145 -71,145 						"/>
					</g>
					<g>
						<polygon id="path-1_1_" fill="#FF0000" points="-71,100 64,100 64,145 -71,145 						"/>
					</g>
				</g>
				<g enable-background="new    ">
					<path fill="#FFFFFF" d="M-34.2,129.3c-0.8,0-1.5-0.1-2.1-0.3c-0.7-0.2-1.2-0.4-1.7-0.7l-0.6,0.6h-0.7l-0.1-4.5h0.8
						c0.2,0.4,0.4,0.9,0.7,1.4s0.6,0.9,0.9,1.3c0.4,0.4,0.8,0.7,1.2,1c0.4,0.2,1,0.4,1.6,0.4c0.8,0,1.4-0.2,1.8-0.6s0.6-0.9,0.6-1.5
						c0-0.5-0.2-0.9-0.5-1.2c-0.4-0.3-0.9-0.6-1.7-0.9c-0.5-0.2-0.9-0.3-1.4-0.4c-0.4-0.1-0.8-0.3-1.2-0.4c-0.8-0.3-1.5-0.8-1.9-1.4
						c-0.4-0.6-0.6-1.3-0.6-2.1c0-0.5,0.1-1,0.3-1.4c0.2-0.4,0.5-0.9,0.9-1.2c0.4-0.3,0.9-0.6,1.5-0.8c0.6-0.2,1.3-0.3,2-0.3
						c0.7,0,1.3,0.1,1.9,0.3s1.1,0.4,1.4,0.6l0.5-0.5h0.8l0.1,4.3h-0.8c-0.2-0.5-0.4-0.9-0.6-1.4s-0.5-0.9-0.8-1.2
						c-0.3-0.3-0.6-0.6-1-0.8c-0.4-0.2-0.8-0.3-1.3-0.3c-0.6,0-1.1,0.2-1.6,0.5s-0.6,0.8-0.6,1.3c0,0.5,0.2,0.9,0.5,1.2
						c0.3,0.3,0.9,0.6,1.6,0.8c0.4,0.1,0.9,0.3,1.3,0.4s0.9,0.3,1.2,0.4c0.8,0.3,1.5,0.8,1.9,1.4s0.7,1.3,0.7,2.2
						c0,0.5-0.1,1.1-0.4,1.6c-0.3,0.5-0.6,0.9-1,1.3c-0.5,0.4-1,0.7-1.6,0.9C-32.6,129.2-33.3,129.3-34.2,129.3z"/>
					<path fill="#FFFFFF" d="M-22.3,129h-5.6v-0.6c0.2,0,0.3,0,0.4,0s0.3,0,0.4-0.1c0.2-0.1,0.3-0.2,0.4-0.3
						c0.1-0.1,0.1-0.3,0.1-0.5v-5.1c0-0.2,0-0.4-0.1-0.5c-0.1-0.2-0.2-0.3-0.4-0.4c-0.1-0.1-0.3-0.1-0.5-0.2s-0.4-0.1-0.6-0.1v-0.6
						l4.3-0.2l0.1,0.1v7c0,0.2,0,0.4,0.1,0.5c0.1,0.1,0.2,0.3,0.4,0.3c0.1,0.1,0.2,0.1,0.4,0.1s0.3,0.1,0.4,0.1V129z M-23.5,117
						c0,0.4-0.2,0.8-0.5,1.1s-0.7,0.5-1.2,0.5c-0.5,0-0.9-0.2-1.2-0.5s-0.5-0.7-0.5-1.1s0.2-0.8,0.5-1.1s0.8-0.5,1.2-0.5
						s0.9,0.2,1.2,0.5S-23.5,116.6-23.5,117z"/>
					<path fill="#FFFFFF" d="M-11.6,121.3h-1.9c0.2,0.3,0.4,0.5,0.5,0.8c0.1,0.3,0.2,0.6,0.2,0.9c0,0.4-0.1,0.8-0.3,1.1
						s-0.5,0.6-0.9,0.9c-0.4,0.2-0.8,0.4-1.3,0.5s-1,0.2-1.6,0.2h-1.4c-0.1,0.1-0.1,0.1-0.2,0.3s-0.1,0.2-0.1,0.3
						c0,0.3,0.1,0.4,0.3,0.5s0.6,0.2,1.1,0.2c0.5,0,1.1,0,1.6,0.1s0.9,0.1,1.2,0.1c0.3,0,0.7,0.1,1,0.2s0.6,0.3,0.9,0.5
						c0.3,0.2,0.5,0.5,0.7,0.8c0.2,0.3,0.3,0.7,0.3,1.1c0,0.4-0.1,0.9-0.3,1.3s-0.5,0.7-1,1c-0.5,0.3-1,0.5-1.7,0.7
						s-1.4,0.2-2.4,0.2c-1.5,0-2.7-0.2-3.5-0.6s-1.2-0.9-1.2-1.7c0-0.5,0.2-0.8,0.6-1.1s1.1-0.5,2-0.5v-0.1c-0.5-0.2-1-0.4-1.3-0.7
						c-0.3-0.3-0.5-0.7-0.5-1.1c0-0.2,0.1-0.5,0.2-0.6c0.1-0.2,0.3-0.3,0.5-0.4c0.2-0.1,0.4-0.2,0.6-0.3c0.2-0.1,0.4-0.1,0.6-0.2
						v-0.1c-0.8-0.3-1.4-0.7-1.7-1.1s-0.6-0.9-0.6-1.5c0-0.9,0.4-1.5,1.2-2.1s1.8-0.8,3-0.8c0.4,0,0.8,0,1.2,0.1
						c0.4,0.1,0.7,0.1,0.8,0.2h3.4V121.3z M-14.3,130.3c0-0.2-0.1-0.4-0.2-0.6c-0.1-0.2-0.4-0.4-0.7-0.5c-0.2,0-0.6-0.1-1-0.1
						c-0.5,0-1.1,0-2,0c-0.2,0.2-0.4,0.4-0.5,0.6s-0.2,0.5-0.2,0.9c0,0.1,0,0.3,0.1,0.5c0.1,0.2,0.2,0.3,0.4,0.5
						c0.2,0.2,0.4,0.3,0.7,0.4c0.3,0.1,0.6,0.1,1.1,0.1c0.8,0,1.3-0.1,1.7-0.4C-14.5,131.4-14.3,131-14.3,130.3z M-15.7,122.9
						c0-0.7-0.1-1.2-0.3-1.6c-0.2-0.4-0.6-0.6-1-0.6c-0.2,0-0.4,0.1-0.6,0.2c-0.2,0.1-0.3,0.3-0.4,0.5c-0.1,0.2-0.2,0.4-0.2,0.7
						c0,0.3-0.1,0.5-0.1,0.8c0,0.6,0.1,1.2,0.3,1.6c0.2,0.4,0.5,0.6,1,0.6c0.4,0,0.7-0.2,1-0.6C-15.8,124.1-15.7,123.6-15.7,122.9z"
						/>
					<path fill="#FFFFFF" d="M0.5,129h-5.3v-0.6c0.1,0,0.2,0,0.4,0s0.3,0,0.4-0.1c0.1-0.1,0.2-0.2,0.3-0.3s0.1-0.3,0.1-0.5v-4.1
						c0-0.6-0.1-1-0.3-1.3c-0.2-0.3-0.5-0.5-1-0.5c-0.2,0-0.5,0-0.7,0.1s-0.4,0.2-0.6,0.3c-0.2,0.1-0.3,0.2-0.4,0.4
						c-0.1,0.1-0.2,0.2-0.3,0.3v4.7c0,0.2,0,0.4,0.1,0.5s0.2,0.2,0.3,0.3c0.1,0.1,0.2,0.1,0.4,0.1s0.3,0.1,0.4,0.1v0.6h-5.3v-0.6
						c0.1,0,0.3,0,0.4,0s0.3,0,0.4-0.1c0.2-0.1,0.3-0.2,0.4-0.3s0.1-0.3,0.1-0.5v-5.1c0-0.2,0-0.4-0.1-0.5s-0.2-0.3-0.4-0.4
						c-0.1-0.1-0.2-0.1-0.4-0.2s-0.3-0.1-0.5-0.1v-0.6l4.2-0.2l0.1,0.1v1.3h0c0.2-0.1,0.4-0.3,0.6-0.5s0.5-0.4,0.7-0.5
						c0.2-0.1,0.5-0.3,0.9-0.4S-4,120-3.6,120c1,0,1.7,0.3,2.1,0.8c0.5,0.5,0.7,1.3,0.7,2.2v4.3c0,0.2,0,0.4,0.1,0.5
						s0.2,0.2,0.4,0.3c0.1,0,0.2,0.1,0.3,0.1c0.1,0,0.3,0.1,0.5,0.1V129z"/>
					<path fill="#FFFFFF" d="M20.4,117.2c-0.2,0-0.4,0.1-0.7,0.1c-0.3,0.1-0.6,0.2-0.8,0.3c-0.2,0.1-0.4,0.4-0.5,0.8
						c-0.1,0.4-0.1,1-0.1,1.7v4.6c0,1.4-0.5,2.5-1.4,3.3s-2.2,1.2-3.7,1.2c-1.8,0-3.1-0.4-4.1-1.2s-1.5-1.9-1.5-3.4v-6.4
						c0-0.2,0-0.4-0.1-0.5c-0.1-0.1-0.2-0.3-0.5-0.4c-0.2-0.1-0.3-0.1-0.6-0.2s-0.4-0.1-0.5-0.1v-0.7h6.5v0.7c-0.2,0-0.4,0-0.6,0.1
						c-0.2,0-0.4,0.1-0.6,0.1c-0.2,0.1-0.4,0.2-0.4,0.4s-0.1,0.3-0.1,0.6v6.3c0,1.2,0.3,2.1,0.8,2.7c0.5,0.6,1.3,0.8,2.4,0.8
						c1,0,1.8-0.3,2.4-0.9c0.6-0.6,0.9-1.5,0.9-2.7v-4.2c0-0.8-0.1-1.3-0.2-1.7c-0.1-0.4-0.3-0.6-0.5-0.8c-0.2-0.1-0.4-0.2-0.8-0.4
						c-0.4-0.1-0.6-0.2-0.8-0.2v-0.7h5.4V117.2z"/>
					<path fill="#FFFFFF" d="M31.6,124.7c0,1.2-0.4,2.3-1.2,3.2c-0.8,0.9-1.9,1.3-3.1,1.3c-0.6,0-1-0.1-1.4-0.2
						c-0.4-0.1-0.6-0.3-0.9-0.4H25v2.5c0,0.2,0,0.4,0.1,0.5c0.1,0.2,0.2,0.3,0.4,0.3c0.2,0.1,0.4,0.1,0.7,0.2
						c0.3,0.1,0.5,0.1,0.7,0.1v0.7h-6.4v-0.7c0.1,0,0.3,0,0.6-0.1s0.4-0.1,0.5-0.1c0.2-0.1,0.3-0.2,0.4-0.3c0.1-0.2,0.1-0.3,0.1-0.5
						v-9c0-0.2-0.1-0.4-0.1-0.5c-0.1-0.1-0.2-0.3-0.3-0.4c-0.1-0.1-0.3-0.1-0.5-0.2c-0.2,0-0.4-0.1-0.6-0.1v-0.6l4.3-0.2l0.1,0.1v1
						l0.1,0c0.4-0.4,0.8-0.7,1.3-0.9c0.5-0.2,0.9-0.3,1.4-0.3c1.2,0,2.2,0.4,2.9,1.3C31.3,122.2,31.6,123.3,31.6,124.7z M28.5,124.8
						c0-0.4,0-0.9-0.1-1.3s-0.2-0.8-0.3-1.1c-0.2-0.3-0.4-0.6-0.6-0.8s-0.6-0.3-1-0.3c-0.4,0-0.7,0.1-0.9,0.2
						c-0.2,0.1-0.4,0.3-0.6,0.5v5c0,0.1,0.1,0.3,0.2,0.5c0.1,0.2,0.2,0.3,0.3,0.4c0.1,0.2,0.3,0.3,0.5,0.4c0.2,0.1,0.4,0.1,0.6,0.1
						c0.6,0,1-0.3,1.4-0.9C28.3,126.9,28.5,126,28.5,124.8z"/>
				</g>
			</g>
		</g>
	</g>
</g>
</svg>
