<?xml version="1.0" encoding="UTF-8"?>
<svg width="776px" height="100px" viewBox="0 0 776 100" version="1.1" xmlns="http://www.w3.org/2000/svg" xmlns:xlink="http://www.w3.org/1999/xlink">
    <!-- Generator: Sketch 54.1 (76490) - https://sketchapp.com -->
    <title>776x100 collapsed</title>
    <desc>Created with Sketch.</desc>
    <defs>
        <rect id="path-1" x="0" y="0" width="776" height="100"></rect>
        <polygon id="path-3" points="0 0 135 0 135 45 0 45"></polygon>
        <filter x="-5.2%" y="-11.1%" width="110.4%" height="131.1%" filterUnits="objectBoundingBox" id="filter-4">
            <feOffset dx="0" dy="2" in="SourceAlpha" result="shadowOffsetOuter1"></feOffset>
            <feGaussianBlur stdDeviation="2" in="shadowOffsetOuter1" result="shadowBlurOuter1"></feGaussianBlur>
            <feColorMatrix values="0 0 0 0 0   0 0 0 0 0   0 0 0 0 0  0 0 0 0.272180944 0" type="matrix" in="shadowBlurOuter1"></feColorMatrix>
        </filter>
    </defs>
    <g id="Page-1" stroke="none" stroke-width="1" fill="none" fill-rule="evenodd">
        <g id="Direction-#1-grey-Revisions-2-fonts-Copy" transform="translate(-93.000000, -205.000000)">
            <g id="776x100-collapsed" transform="translate(93.000000, 205.000000)">
                <rect id="Rectangle-Copy-2" fill="#EBEBEB" x="0" y="0" width="776" height="100"></rect>
                <g id="Skyline-Background">
                    <mask id="mask-2" fill="white">
                        <use xlink:href="#path-1"></use>
                    </mask>
                    <g id="Rectangle-Copy-7"></g>
                    <g id="Skyline" mask="url(#mask-2)">
                        <g transform="translate(-186.000000, -12.000000)">
                            <g>
                                <path d="M217.785983,64.019395 L217.785983,45.4235745 L220.966694,45.4235745 L220.966694,42.673786 L229.145081,42.673786 L229.145081,45.1946546 L232.09816,45.1946546 L232.09816,66.4763803 L235.307392,66.4763803 L238.005,66.4763803 L238.005,64.6720941 L252.771419,64.6720941 L252.771419,59.6310443 L254.816015,59.6310443 L254.816015,24.3419772 L257.769435,24.3419772 L257.769435,20.2172944 L260.040983,20.2172944 L260.040983,14.946981 L262.085579,14.946981 L262.085579,19.9880308 L264.130176,19.9880308 L264.130176,24.5712408 L267.537837,24.5712408 L267.537837,55.4084649 L274.706153,55.4084649 L274.706153,53.4796165 L275.639881,53.4796165 L275.639881,51.9870553 L275.639881,49.5989574 L278.167778,49.5989574 L278.167778,53.5255415 L278.759898,53.5255415 L278.759898,54.5129281 L279.784721,54.5129281 L279.784721,55.0478343 L287.529564,55.0478343 L287.529564,63.7557271 L288.279367,63.7557271 L288.279367,55.9595644 L293.436063,55.9595644 L293.436063,45.1946546 L299.115612,45.1946546 L299.115612,55.0478343 L301.160209,55.0478343 L301.160209,55.9595644 L308.884355,55.9595644 L308.884355,33.2787899 L321.833468,18.6131365 L324.332306,18.6131365 L324.332306,60.0892278 L328.64879,60.0892278 L328.64879,55.2770979 L342.506386,55.2770979 L342.506386,60.0892278 L346.595579,60.0892278 L346.595579,17.6967695 L351.139355,17.6967695 L351.139355,14.0302703 L360.453515,14.0302703 L360.453515,17.9256894 L364.99695,17.9256894 L364.99695,57.3394393 L373.175337,57.3394393 L373.175337,61.2348585 L381.126774,61.2348585 L381.126774,42.9030496 L383.171371,41.2988918 L393.848596,41.2988918 L395.893193,43.3612332 L395.893193,65.1302776 L401.572742,65.1302776 L401.572742,77.7335895 L407.025,77.7335895 L407.025,112.105946 L336.15,112.105946 L336.15,112.378378 L81.675,112.378378 L81.675,88.8647986 L81.675,84.7085897 L82.7225971,84.7085897 L82.7225971,75.4317476 L83.8612896,75.4317476 L83.8612896,69.760015 L84.9772083,69.760015 L84.9772083,68.7955909 L85.6148761,68.7955909 L85.6148761,66.4304554 L92.5153526,66.4304554 L92.5153526,68.7496659 L93.5629497,68.7496659 L93.5629497,70.0126023 L94.3372606,70.0126023 L94.3372606,79.128707 L99.0969953,79.128707 L103.310158,79.128707 L103.310158,59.1513491 L104.562719,59.1513491 L104.562719,57.8654502 L105.177613,57.8654502 L105.177613,56.946951 L108.889751,54.1914534 L112.37415,57.1536134 L112.37415,58.0032251 L112.829627,58.0032251 L112.829627,73.870299 L119.775651,73.870299 L119.775651,70.7933266 L130.980385,70.7933266 L130.980385,21.561769 L133.55383,21.561769 L133.55383,19.747733 L136.856039,19.747733 L136.901586,19.747733 L137.243194,0 L137.607576,19.747733 L140.955332,19.747733 L140.955332,21.8602812 L143.847611,21.8602812 L143.847611,55.6610521 L152.615543,55.6610521 L152.615543,76.5798717 L158.673387,76.5798717 L158.673387,75.0413855 L160.70026,75.0413855 L160.70026,78.9679696 L164.54904,78.9679696 L164.54904,59.3809739 L170.88017,59.3809739 L170.88017,66.9356299 L172.360471,66.9356299 L172.360471,41.1717271 L183.906813,41.1717271 L183.906813,77.8428081 L184.95441,77.8428081 L184.95441,68.8644783 L188.50713,68.8644783 L188.50713,77.5902208 L189.21312,77.5902208 L189.21312,63.0090458 L191.741017,63.0090458 L191.741017,53.5255415 L205.359779,53.5255415 L205.359779,76.3732093 L205.359779,82.6419664 L209.459072,82.6419664 L209.459072,76.9243089 L210.073966,76.9243089 L210.073966,74.4213985 L210.893825,74.4213985 L210.893825,65.9482433 L212.601864,65.9482433 L212.601864,57.1076884 L216.24568,57.1076884 L216.24568,64.019395 L217.785983,64.019395 Z" id="Combined-Shape" fill="#B6B6B6"></path>
                                <path d="M232.2,80.7000257 L232.2,79.2104224 L232.2,65.7134732 L233.313402,65.7134732 L233.313402,63.6291342 L236.514433,56.248524 L236.514433,53.0024224 L237.245103,48.7654054 L238.010567,53.0024224 L238.010567,56.248524 L241.176804,63.6291342 L241.176804,65.7134732 L242.325,65.7134732 L242.325,79.2104224 L242.325,81.5031145 L242.483721,81.5031145 L242.483721,74.4400515 L246.007063,74.4400515 L246.007063,72.8956499 L247.188299,72.8956499 L247.188299,74.3782754 L247.575256,74.3782754 L247.575256,73.7193308 L250.059924,73.7193308 L250.059924,75.1401802 L251.13933,75.1401802 L251.13933,74.3782754 L254.397912,74.3782754 L254.397912,76.7463578 L254.845967,76.7463578 L254.845967,85.5391506 L255.538415,85.5391506 L255.538415,89.945843 L256.617821,89.945843 L256.617821,95.3203604 L257.493565,95.3203604 L257.493565,84.0977091 L258.654434,84.0977091 L258.654434,78.970296 L259.448714,78.970296 L259.448714,77.5082625 L261.220568,77.5082625 L261.220568,85.3744144 L261.811186,85.3744144 L261.811186,83.6858687 L263.114618,83.6858687 L263.114618,82.1414672 L264.519882,82.1414672 L264.519882,75.7991248 L265.334527,75.7991248 L265.334527,75.2225483 L265.925145,75.2225483 L265.925145,74.2547233 L266.882354,72.8544659 L266.882354,71.3718404 L267.676633,71.3718404 L267.676633,72.916242 L268.572743,74.3782754 L268.572743,75.2843243 L269.22446,75.2843243 L269.22446,76.005045 L269.815078,76.005045 L269.815078,82.3885714 L271.159243,82.3885714 L271.159243,68.1183012 L276.698832,68.1183012 L276.698832,77.981879 L280.955355,77.981879 L280.955355,56.2572973 L296.413253,56.2572973 L296.413253,57.6781467 L296.902041,57.6781467 L296.902041,75.7991248 L296.902041,84.5713256 L300.38465,84.5713256 L300.38465,76.3962934 L302.665657,76.3962934 L302.665657,74.6665637 L306.575956,74.6665637 L306.575956,76.4374775 C306.575956,76.4374775 310.852845,76.5816216 310.852845,76.4374775 C310.852845,76.2933333 310.852845,64.7412098 310.852845,64.7412098 L310.119664,64.7412098 L310.119664,63.3409524 L327.940034,63.3409524 L327.940034,64.8441699 L327.003192,64.8441699 L327.003192,86.1775032 L329.426762,86.1775032 L329.426762,88.5455856 L330.221041,88.5455856 L330.221041,71.8866409 L333.968411,71.8866409 L333.968411,70.0127671 L340.057886,70.0127671 L340.057886,72.1543372 L343.744157,72.1543372 L343.744157,91.0166281 L351.768415,91.0166281 L351.768415,92.7812697 L357.107055,92.7812697 L357.107055,63.5856425 L364.773309,63.5856425 L364.773309,59.8843993 L368.620076,59.8843993 L368.620076,57.6194595 L375.440587,57.6194595 L375.440587,59.7462932 L378.387047,59.7462932 L378.387047,67.4802342 L385.725916,67.4802342 L385.725916,65.2705368 L390.663965,65.2705368 L390.663965,67.6459615 L394.456169,67.6459615 L394.456169,102.144863 L395.301912,102.144863 L395.301912,101.371468 L398.684885,101.371468 L398.684885,102.31059 L405.341703,102.31059 L405.341703,104.105969 L419.664775,104.105969 L419.664775,97.8359526 L443.12733,97.8359526 L443.12733,99.7418166 L460.451426,99.7418166 L460.451426,101.896272 L474.93819,101.896272 L474.93819,105.100333 L502.875,105.100333 L502.875,109.381622 L378,109.381622 L378,110.723192 L378,110.743784 L132.975,110.743784 L132.975,98.7386358 L132.975,93.961287 L138.453491,93.961287 L138.453491,81.6060746 L151.447087,81.6060746 L151.447087,89.6575547 L154.155783,89.6575547 L155.988735,89.6575547 L155.988735,68.9007979 L157.373633,68.9007979 L157.373633,67.6652767 L158.12718,67.6652767 L158.290109,67.6652767 C158.697432,66.0385071 160.163794,64.8235779 161.915281,64.8235779 C163.666769,64.8235779 165.133131,66.0385071 165.540454,67.6652767 L166.558761,67.6652767 L166.558761,69.003758 L167.597434,69.003758 L167.597434,81.2148263 L170.67272,81.2148263 L170.67272,91.3666924 L171.20224,91.3666924 L171.20224,80.967722 L171.996519,80.967722 L171.996519,71.2276963 L173.035192,71.2276963 L173.035192,70.2804633 L173.62581,70.2804633 L173.62581,69.1684942 L175.153271,67.6446847 L179.572723,67.6446847 L180.896521,69.4567825 L180.896521,70.4040154 L181.568604,70.4040154 L181.568604,71.3924324 L182.240687,71.3924324 L182.240687,81.2971943 L183.034966,81.2971943 L183.034966,87.9751778 L183.91071,87.9751778 L183.91071,77.4876705 L184.623525,77.4876705 L184.623525,75.984453 L185.336339,75.984453 L185.336339,75.0989961 L186.049154,75.0989961 L186.049154,74.1517632 L188.167233,74.1517632 L188.167233,75.0372201 L188.818949,75.0372201 L188.818949,76.1285972 L189.429933,76.1285972 L189.429933,77.6318147 L189.939087,77.6318147 L189.939087,78.5563426 L191.123118,78.5563426 L191.123118,80.8212824 L192.978297,80.8212824 L192.978297,79.7164337 L193.251117,79.7164337 L193.251117,78.5563426 L194.015014,78.5563426 L194.015014,76.9543119 L194.29744,76.9543119 L194.29744,76.3551094 L194.506091,76.3551094 L194.506091,75.5180086 L195.788347,75.5180086 L195.788347,76.3551094 L198.207738,76.3551094 L198.207738,78.0642471 L200.020325,78.0642471 L200.020325,72.5455856 L201.201561,72.5455856 L204.928564,73.945843 L204.928564,75.4078764 L206.781882,75.4078764 L206.781882,92.0874131 C206.781882,92.0874131 208.675933,92.2315573 208.675933,92.0874131 C208.675933,91.963861 208.675933,82.4709395 208.675933,82.4709395 L209.714606,82.4709395 L209.714606,81.6472587 L209.918267,81.6472587 L209.918267,81.1530502 L210.203393,81.1530502 L210.203393,80.7618018 L211.242066,80.7618018 L211.242066,81.2148263 L211.588291,81.2148263 L211.588291,81.7502188 L211.873417,81.7502188 L211.873417,80.0204891 L214.235889,80.0204891 L214.235889,93.4165577 L214.663577,93.4165577 L214.663577,85.3538224 L216.659459,85.3538224 L216.659459,74.4400515 L218.594242,74.4400515 L218.594242,70.5687516 L219.429254,70.5687516 L219.429254,68.8596139 L221.486233,68.8596139 L221.486233,70.5481596 L222.056485,70.5481596 L222.056485,71.1247362 L222.667469,71.1247362 L222.667469,73.9046589 L223.380284,73.9046589 L223.380284,75.2225483 L226.740697,75.2225483 L226.740697,77.0552381 L227.534976,77.0552381 L227.534976,82.4297555 L228.186693,82.4297555 L228.186693,83.4181725 L229.001338,83.4181725 L229.001338,84.3567983 L229.388295,84.3567983 L229.388295,80.7000257 L232.2,80.7000257 Z" id="Combined-Shape" fill="#4D4D4D" fill-rule="nonzero"></path>
                                <path d="M293.997646,95.3430116 L293.997646,89.713668 L298.629244,89.713668 L298.629244,96.7166799 L301.08005,96.7166799 L301.08005,96.5922398 L301.88388,96.5922398 L301.88388,96.4688803 L303.1669,96.4688803 L303.1669,95.3478381 L303.511198,95.3478381 L303.511198,94.4673359 L308.535663,94.4673359 L308.535663,88.5877992 L323.68224,88.5877992 L323.68224,92.590888 L325.292225,92.590888 L325.292225,92.7159846 L328.421683,92.7159846 L328.421683,89.713668 L329.798645,89.713668 L329.798645,88.2125097 L340.56398,88.2125097 L340.56398,88.8379923 L341.082026,88.8379923 L341.082026,87.587027 L345.588445,87.587027 L345.588445,88.8379923 L347.340942,88.8379923 L347.340942,96.2186873 L352.473252,96.2186873 L352.473252,98.1686477 L355.932975,98.1686477 L355.932975,100.597066 L357.605563,100.597066 L357.605563,98.7206178 L360.609843,98.7206178 L360.609843,100.597066 L362.826266,100.597066 L362.826266,95.0989578 L362.970899,95.0989578 L362.970899,90.0889575 L367.226961,90.0889575 L367.226961,87.9623166 L369.354993,87.9623166 L369.354993,90.0889575 L373.611056,90.0889575 L373.611056,95.3430116 L377.116049,95.3430116 L377.116049,98.5955212 L378.293508,98.5955212 L378.293508,98.334402 L380.62587,98.334402 L380.62587,96.7166799 L383.43005,96.7166799 L383.43005,96.5922398 L385.5169,96.5922398 L385.5169,95.3478381 L390.885663,95.3478381 L390.885663,88.5877992 L406.03224,88.5877992 L406.03224,92.7159846 L414.119024,92.7159846 L414.119024,91.8635136 L415.592095,91.8635136 L415.592095,90.9924324 L417.924457,90.9924324 L417.924457,91.9879537 L419.274771,91.9879537 L419.274771,96.2186873 L421.429173,96.2186873 L421.429173,88.8379923 L423.432026,88.8379923 L423.432026,87.587027 L427.938445,87.587027 L427.938445,88.8379923 L429.690942,88.8379923 L429.690942,92.8237066 L430.111733,92.8237066 L430.111733,96.2186873 L434.823252,96.2186873 L434.823252,96.9171429 L443.484629,96.9171429 L443.484629,98.640695 L444.886626,98.640695 L444.886626,101.872355 L445.176266,101.872355 L445.176266,95.0989578 L450.823037,95.0989578 L450.823037,95.3013127 L453.082917,95.3013127 L453.082917,101.872355 L455.779066,101.872355 L455.779066,92.8237066 L456.965371,92.8237066 L456.965371,91.5310425 L466.240121,91.5310425 L466.240121,92.8237066 L467.426427,92.8237066 L467.426427,96.3785328 L470.553959,96.3785328 L470.553959,96.7166799 L473.16461,96.7166799 L473.16461,98.334402 L475.374216,98.334402 L475.374216,100.041081 L476.485485,100.041081 L476.485485,102.195521 L485.544544,102.195521 L485.544544,93.1468726 L489.211305,93.1468726 L489.211305,91.3155985 L491.044686,91.3155985 L491.044686,93.1468726 L494.711448,93.1468726 L494.711448,97.6711969 L497.731134,97.6711969 L497.731134,100.471969 L508.471434,100.471969 L508.471434,92.8237066 L509.594187,92.8237066 L509.594187,91.8542085 L522.643545,91.8542085 L522.643545,95.4090347 L531.594757,95.4090347 L531.594757,98.425251 L532.628923,98.425251 L532.628923,95.3013127 L535.432917,95.3013127 L535.432917,98.425251 L535.908595,98.425251 L535.908595,92.0696525 L537.63413,92.0696525 L537.63413,90.9924324 L541.516583,90.9924324 L541.516583,91.5310425 L548.590121,91.5310425 L548.590121,92.8237066 L549.776427,92.8237066 L549.776427,96.3785328 L552.903959,96.3785328 L552.903959,100.041081 L558.835485,100.041081 L558.835485,102.195521 L567.894544,102.195521 L567.894544,93.1468726 L571.561305,93.1468726 L571.561305,91.3155985 L573.394686,91.3155985 L573.394686,93.1468726 L577.061448,93.1468726 L577.061448,96.7166799 L585.29913,96.7166799 L585.29913,98.334402 L587.631492,98.334402 L587.631492,100.471969 L590.385785,100.471969 L590.385785,99.7901753 L591.944187,99.7901753 L591.944187,91.8542085 L604.993545,91.8542085 L604.993545,95.4090347 L605.975784,95.4090347 L605.975784,94.7804552 L608.18539,94.7804552 L608.18539,92.7452564 L618.258595,92.7452564 L618.258595,92.0696525 L619.98413,92.0696525 L619.98413,90.9924324 L623.866583,90.9924324 L623.866583,92.0696525 L625.376427,92.0696525 L625.376427,98.425251 L629.000229,98.425251 L629.000229,91.9879537 L630.350543,91.9879537 L630.350543,90.9924324 L630.526963,90.9924324 L630.526963,90.7100576 L636.173734,90.7100576 L636.173734,100.579691 L636.808096,100.579691 L636.808096,104.673127 L638.943456,104.673127 L638.943456,102.814248 L639.660785,102.814248 L639.660785,102.316487 L641.08397,102.316487 L641.08397,99.0074065 L650.359754,99.0074065 L650.359754,96.9655602 L651.955581,96.9655602 L651.955581,95.3478381 L652.254757,95.3478381 L652.254757,93.5280252 L657.164993,93.5280252 L657.164993,95.3478381 L662.7581,95.3478381 L662.7581,96.5922398 L664.84495,96.5922398 L664.84495,96.7166799 L667.64913,96.7166799 L667.64913,98.334402 L669.981492,98.334402 L669.981492,101.196526 L672.018456,101.196526 L672.018456,100.41639 L672.735785,100.41639 L672.735785,99.7901753 L679.801963,99.7901753 L679.801963,95.0989578 L682.079786,95.0989578 L682.079786,94.5719256 L683.434754,94.5719256 L683.434754,93.0583639 L685.030581,93.0583639 L685.030581,91.0231651 L695.8331,91.0231651 L695.8331,92.5887027 L697.91995,92.5887027 L697.91995,92.7452564 L700.72413,92.7452564 L700.72413,94.7804552 L703.056492,94.7804552 L703.056492,97.3388807 L706.439993,97.3388807 L706.439993,98.3811915 L709.213493,98.3811915 L709.213493,97.441869 L711.350229,97.441869 L711.350229,91.9879537 L712.700543,91.9879537 L712.700543,90.9924324 L712.876963,90.9924324 L712.876963,90.7100576 L718.523734,90.7100576 L718.523734,91.0231651 L726.394419,91.0231651 L726.394419,93.0583639 L727.990246,93.0583639 L727.990246,94.5719256 L729.345214,94.5719256 L729.345214,99.0074065 L732.709754,99.0074065 L732.709754,96.9655602 L734.305581,96.9655602 L734.305581,95.3478381 L734.604757,95.3478381 L734.604757,93.5280252 L739.514993,93.5280252 L739.514993,95.3478381 L745.1081,95.3478381 L745.1081,96.5922398 L747.19495,96.5922398 L748.6669,96.5922398 L748.6669,95.3478381 L759.469419,95.3478381 L759.469419,96.9655602 L761.065246,96.9655602 L761.065246,99.0074065 L764.429786,99.0074065 L764.429786,94.5719256 L765.784754,94.5719256 L765.784754,93.0583639 L767.380581,93.0583639 L767.380581,91.0231651 L775.251266,91.0231651 L775.251266,90.7100576 L780.898037,90.7100576 L780.898037,90.9924324 L781.074457,90.9924324 L781.074457,91.9879537 L782.424771,91.9879537 L782.424771,97.441869 L784.561507,97.441869 L784.561507,98.3811915 L787.335007,98.3811915 L787.335007,97.3388807 L790.718508,97.3388807 L790.718508,94.7804552 L793.05087,94.7804552 L793.05087,92.7452564 L795.85505,92.7452564 L795.85505,92.5887027 L797.9419,92.5887027 L797.9419,91.0231651 L808.744419,91.0231651 L808.744419,93.0583639 L810.340246,93.0583639 L810.340246,94.5719256 L811.695214,94.5719256 L811.695214,95.0989578 L813.973037,95.0989578 L813.973037,99.7901753 L821.039215,99.7901753 L821.039215,100.41639 L821.756544,100.41639 L821.756544,101.196526 L823.793508,101.196526 L823.793508,98.334402 L826.12587,98.334402 L826.12587,96.7166799 L828.93005,96.7166799 L828.93005,96.5922398 L831.0169,96.5922398 L831.0169,95.3478381 L836.610007,95.3478381 L836.610007,93.5280252 L841.520243,93.5280252 L841.520243,95.3478381 L841.819419,95.3478381 L841.819419,96.9655602 L843.415246,96.9655602 L843.415246,99.0074065 L852.69103,99.0074065 L852.69103,102.316487 L854.114215,102.316487 L854.114215,102.814248 L854.831544,102.814248 L854.831544,104.799895 L857.601266,104.799895 L857.601266,90.7100576 L863.248037,90.7100576 L863.248037,90.9924324 L863.424457,90.9924324 L863.424457,91.9879537 L864.774771,91.9879537 L864.774771,101.825374 L867.176225,101.825374 L867.176225,104.30753 L869.685007,104.30753 L869.685007,97.3388807 L873.068508,97.3388807 L873.068508,94.7804552 L875.40087,94.7804552 L875.40087,92.7452564 L885.58961,92.7452564 L885.58961,94.7804552 L887.799216,94.7804552 L887.799216,103.234358 L889.76331,103.234358 L889.76331,105.739218 L890.676266,105.739218 L890.676266,95.0989578 L896.323037,95.0989578 L896.323037,99.7901753 L903.389215,99.7901753 L903.389215,103.077804 L906.143508,103.077804 L906.143508,98.334402 L908.47587,98.334402 L908.47587,96.7166799 L918.66461,96.7166799 L918.66461,98.334402 L920.874216,98.334402 L920.874216,104.956449 L921.679843,104.956449 L921.679843,105.054171 L922.83831,105.054171 L922.83831,107.045213 L925.293428,107.045213 L925.293428,102.316487 L936.464215,102.316487 L936.464215,104.929731 L946.16193,104.929731 L946.16193,108.289615 L951.56319,108.289615 L951.56319,106.423013 L954.754843,106.423013 L954.754843,108.289615 L958.805788,108.289615 L958.805788,110.529538 L963.225,110.529538 L963.225,112.105946 L960.852129,112.105946 L822.825,112.105946 L789.75,112.105946 L645.975,112.105946 L494.775,112.105946 L340.875,112.105946 L259.2,112.105946 L256.827129,112.105946 L82.35,112.105946 L0,112.105946 L0,108.787376 L6.38330659,108.787376 L6.38330659,106.132818 L11.1297861,106.132818 L11.1297861,98.1686477 L15.0579747,98.1686477 L15.0579747,106.132818 L19.4769415,106.132818 L19.4769415,102.316487 L20.3593108,102.316487 L20.3593108,101.398119 L25.9692553,101.398119 L25.9692553,102.316487 L26.7195393,102.316487 L26.7195393,106.049692 L28.4381219,106.049692 L28.4381219,100.449885 L31.2615075,100.449885 L31.2615075,106.298572 L32.1207987,106.298572 L32.1207987,104.43197 L34.6986726,104.43197 L34.6986726,101.196526 L38.5041053,101.196526 L38.5041053,105.676372 L42.5550499,105.676372 L42.5550499,96.5922398 L44.6419001,96.5922398 L44.6419001,95.3478381 L55.444419,95.3478381 L55.444419,96.9655602 L57.0402456,96.9655602 L57.0402456,106.174132 L59.2498517,106.174132 L59.2498517,103.934209 L61.336702,103.934209 L61.336702,106.174132 L63.5463081,106.174132 L63.5463081,102.814248 L68.4565439,102.814248 L68.4565439,107.294094 L73.2440239,107.294094 L73.2440239,91.8635136 L74.7170946,91.8635136 L74.7170946,90.9924324 L77.0494566,90.9924324 L77.0494566,91.9879537 L78.3997715,91.9879537 L78.3997715,104.30753 L83.3100073,104.30753 L83.3100073,97.3388807 L88.2202432,97.3388807 L88.2202432,101.694286 L93.4797861,101.694286 L93.4797861,98.1686477 L97.4079747,98.1686477 L97.4079747,101.694286 L99.3910297,101.694286 L99.3910297,106.132818 L101.826941,106.132818 L101.826941,102.316487 L102.709311,102.316487 L102.709311,101.398119 L104.301266,101.398119 L104.301266,95.0989578 L109.948037,95.0989578 L109.948037,103.934209 L110.788122,103.934209 L110.788122,100.449885 L113.611507,100.449885 L113.611507,102.316487 L114.184311,102.316487 L114.184311,101.398119 L117.048673,101.398119 L117.048673,101.196526 L119.768508,101.196526 L119.768508,98.334402 L122.10087,98.334402 L122.10087,96.7166799 L124.90505,96.7166799 L124.90505,96.5922398 L126.9919,96.5922398 L126.9919,95.3478381 L137.794419,95.3478381 L137.794419,96.5922398 L138.4669,96.5922398 L138.4669,95.3478381 L149.269419,95.3478381 L149.269419,96.9655602 L150.865246,96.9655602 L150.865246,104.929731 L153.074852,104.929731 L153.074852,103.934209 L155.161702,103.934209 L155.161702,104.929731 L155.594024,104.929731 L155.594024,91.8635136 L157.067095,91.8635136 L157.067095,90.9924324 L159.399457,90.9924324 L159.399457,91.9879537 L160.749771,91.9879537 L160.749771,102.814248 L162.281544,102.814248 L162.281544,104.30753 L165.660007,104.30753 L165.660007,97.3388807 L167.069024,97.3388807 L167.069024,91.8635136 L168.542095,91.8635136 L168.542095,90.9924324 L170.874457,90.9924324 L170.874457,91.9879537 L172.224771,91.9879537 L172.224771,101.694286 L177.135007,101.694286 L177.135007,97.3388807 L182.045243,97.3388807 L182.045243,101.694286 L186.651266,101.694286 L186.651266,95.0989578 L192.298037,95.0989578 L192.298037,101.694286 L193.21603,101.694286 L193.21603,103.934209 L195.651941,103.934209 L195.651941,102.316487 L196.534311,102.316487 L196.534311,101.398119 L198.126266,101.398119 L198.126266,95.0989578 L203.773037,95.0989578 L203.773037,98.334402 L204.45087,98.334402 L204.45087,96.7166799 L211.647646,96.7166799 L211.647646,89.713668 L216.279244,89.713668 L216.279244,96.7166799 L218.73005,96.7166799 L218.73005,96.5922398 L219.53388,96.5922398 L219.53388,96.4688803 L220.8169,96.4688803 L220.8169,95.3478381 L221.161198,95.3478381 L221.161198,94.4673359 L231.801355,94.4673359 L231.801355,96.4688803 L233.428673,96.4688803 L233.428673,100.221776 L239.687589,100.221776 L239.687589,92.590888 L242.942225,92.590888 L242.942225,100.221776 L246.071683,100.221776 L246.071683,89.713668 L247.448645,89.713668 L247.448645,88.2125097 L258.21398,88.2125097 L258.21398,89.713668 L259.590942,89.713668 L259.590942,93.8418533 L263.221113,93.8418533 L263.221113,97.3388807 L264.395243,97.3388807 L264.395243,98.0951351 L270.10592,98.0951351 L270.10592,98.1686477 L273.582975,98.1686477 L273.582975,100.597066 L280.476266,100.597066 L280.476266,95.0989578 L280.620899,95.0989578 L280.620899,90.0889575 L284.876961,90.0889575 L284.876961,87.9623166 L287.004993,87.9623166 L287.004993,90.0889575 L291.261056,90.0889575 L291.261056,95.3430116 L293.997646,95.3430116 Z" id="Combined-Shape" fill="#7D7D7D"></path>
                                <path d="M512.714979,103.934209 L512.714979,100.221776 L518.097646,100.221776 L518.097646,89.713668 L522.729244,89.713668 L522.729244,96.7166799 L525.98388,96.7166799 L525.98388,96.4688803 L527.611198,96.4688803 L527.611198,94.4673359 L538.251355,94.4673359 L538.251355,96.4688803 L539.878673,96.4688803 L539.878673,100.221776 L546.137589,100.221776 L546.137589,92.590888 L549.392225,92.590888 L549.392225,100.221776 L552.521683,100.221776 L552.521683,89.713668 L553.898645,89.713668 L553.898645,88.2125097 L564.66398,88.2125097 L564.66398,89.713668 L566.040942,89.713668 L566.040942,93.8418533 L569.671113,93.8418533 L569.671113,98.0951351 L576.55592,98.0951351 L576.55592,98.1686477 L580.032975,98.1686477 L580.032975,100.597066 L587.070899,100.597066 L587.070899,90.0889575 L591.326961,90.0889575 L591.326961,87.9623166 L593.454993,87.9623166 L593.454993,90.0889575 L597.711056,90.0889575 L597.711056,95.3430116 L601.216049,95.3430116 L601.216049,98.5955212 L607.53005,98.5955212 L607.53005,96.5922398 L609.6169,96.5922398 L609.6169,95.3478381 L614.985663,95.3478381 L614.985663,88.5877992 L630.13224,88.5877992 L630.13224,92.7159846 L638.219024,92.7159846 L638.219024,91.8635136 L639.692095,91.8635136 L639.692095,90.9924324 L642.024457,90.9924324 L642.024457,91.9879537 L643.374771,91.9879537 L643.374771,96.2186873 L645.529173,96.2186873 L645.529173,88.8379923 L647.532026,88.8379923 L647.532026,87.587027 L652.038445,87.587027 L652.038445,88.8379923 L653.790942,88.8379923 L653.790942,96.2186873 L658.923252,96.2186873 L658.923252,100.722162 L664.055563,100.722162 L664.055563,98.7206178 L667.059843,98.7206178 L667.059843,103.474286 L669.276266,103.474286 L669.276266,95.0989578 L674.923037,95.0989578 L674.923037,103.934209 L678.851225,103.934209 L678.851225,106.547453 L682.779414,106.547453 L682.779414,104.30753 L684.743508,104.30753 L684.743508,98.334402 L687.07587,98.334402 L687.07587,96.7166799 L697.26461,96.7166799 L697.26461,98.334402 L699.474216,98.334402 L699.474216,105.054171 L701.43831,105.054171 L701.43831,107.045213 L703.893428,107.045213 L703.893428,102.316487 L715.064215,102.316487 L715.064215,104.929731 L724.76193,104.929731 L724.76193,108.289615 L727.934058,108.289615 L727.934058,101.872355 L732.571434,101.872355 L732.571434,92.8237066 L736.561733,92.8237066 L736.561733,101.872355 L739.365728,101.872355 L739.365728,98.640695 L740.767725,98.640695 L740.767725,96.9171429 L749.934629,96.9171429 L749.934629,98.640695 L751.336626,98.640695 L751.336626,101.872355 L756.728923,101.872355 L756.728923,95.3013127 L759.532917,95.3013127 L759.532917,101.872355 L762.229066,101.872355 L762.229066,92.8237066 L763.415371,92.8237066 L763.415371,91.5310425 L772.690121,91.5310425 L772.690121,92.8237066 L773.876427,92.8237066 L773.876427,96.3785328 L777.003959,96.3785328 L777.003959,100.041081 L782.935485,100.041081 L782.935485,102.195521 L791.994544,102.195521 L791.994544,93.1468726 L795.661305,93.1468726 L795.661305,91.3155985 L797.494686,91.3155985 L797.494686,93.1468726 L801.161448,93.1468726 L801.161448,97.6711969 L804.181134,97.6711969 L804.181134,100.471969 L816.044187,100.471969 L816.044187,91.8542085 L829.093545,91.8542085 L829.093545,95.4090347 L838.044757,95.4090347 L838.044757,98.425251 L842.358595,98.425251 L842.358595,92.0696525 L844.08413,92.0696525 L844.08413,90.9924324 L847.966583,90.9924324 L847.966583,92.0696525 L849.476427,92.0696525 L849.476427,98.425251 L853.89811,98.425251 L853.89811,102.303243 L858.319793,102.303243 L858.319793,100.579691 L860.908096,100.579691 L860.908096,104.673127 L863.760785,104.673127 L863.760785,102.316487 L874.931572,102.316487 L874.931572,107.045213 L877.38669,107.045213 L877.38669,105.054171 L878.545157,105.054171 L878.545157,104.956449 L879.350784,104.956449 L879.350784,98.334402 L881.56039,98.334402 L881.56039,96.7166799 L891.74913,96.7166799 L891.74913,98.334402 L894.081492,98.334402 L894.081492,103.077804 L896.835785,103.077804 L896.835785,99.7901753 L903.901963,99.7901753 L903.901963,95.0989578 L909.548734,95.0989578 L909.548734,105.739218 L910.46169,105.739218 L910.46169,103.234358 L912.425784,103.234358 L914.45897,103.104709 L914.45897,101.694286 L925.629757,101.694286 L925.629757,97.3388807 L930.539993,97.3388807 L930.539993,104.30753 L933.048775,104.30753 L933.048775,101.825374 L936.976963,101.825374 L942.623734,104.799895 L945.393456,104.799895 L945.393456,102.814248 L947.53397,102.814248 L947.53397,99.0074065 L956.809754,99.0074065 L956.809754,96.9655602 L958.405581,96.9655602 L958.405581,95.3478381 L962.700286,95.3478381 L972.207905,86.6396601 L973.680976,86.6396601 L973.680976,105.676372 L975.345895,105.676372 L975.345895,101.196526 L978.468456,101.196526 L978.468456,100.41639 L983.378692,100.41639 L983.378692,100.449885 L985.411878,100.449885 L985.411878,104.643342 L985.588298,104.643342 L985.588298,101.825374 L987.675148,101.825374 L987.675148,102.316487 L987.880745,102.316487 L987.880745,101.398119 L989.884754,101.398119 L989.884754,93.0583639 L991.480581,93.0583639 L991.480581,91.0231651 L1002.2831,91.0231651 L1002.2831,92.5887027 L1004.36995,92.5887027 L1004.36995,104.017127 L1008.42089,104.017127 L1008.42089,98.3811915 L1012.22633,98.3811915 L1012.22633,102.451589 L1014.8042,102.451589 L1014.8042,104.799895 L1015.66349,104.799895 L1015.66349,97.441869 L1018.48688,97.441869 L1018.48688,104.486788 L1020.20546,104.486788 L1020.20546,99.7901753 L1020.95574,99.7901753 L1020.95574,98.6348086 L1021.60479,98.6348086 L1021.60479,98.1686477 L1025.53297,98.1686477 L1025.53297,98.6348086 L1026.56569,98.6348086 L1026.56569,99.7901753 L1027.44806,99.7901753 L1027.44806,104.591366 L1029.95194,104.591366 L1029.95194,102.316487 L1030.83431,102.316487 L1030.83431,101.398119 L1031.86703,101.398119 L1031.86703,94.5719256 L1035.79521,94.5719256 L1035.79521,101.398119 L1036.44426,101.398119 L1036.44426,102.316487 L1037.19454,102.316487 L1037.19454,104.591366 L1038.91312,104.591366 L1038.91312,100.449885 L1041.73651,100.449885 L1041.73651,106.298572 L1042.5958,106.298572 L1042.5958,104.43197 L1045.17367,104.43197 L1045.17367,101.196526 L1048.97911,101.196526 L1048.97911,105.676372 L1053.03005,105.676372 L1053.03005,96.5922398 L1067.51525,106.174132 L1069.72485,106.174132 L1069.72485,103.934209 L1071.8117,103.934209 L1071.8117,106.174132 L1074.02131,106.174132 L1074.02131,102.814248 L1078.93154,102.814248 L1078.93154,107.294094 L1083.71902,107.294094 L1088.87477,104.30753 L1093.78501,104.30753 L1098.69524,101.694286 L1109.86603,101.694286 L1109.86603,106.298572 L1114.77627,106.298572 L1114.77627,95.0989578 L1120.42304,95.0989578 L1120.42304,103.934209 L1124.35123,103.934209 L1124.35123,106.547453 L1128.27941,106.547453 L1128.27941,104.30753 L1130.24351,104.30753 L1144.97422,103.692009 L1146.93831,105.054171 L1146.93831,107.045213 L1149.39343,107.045213 L1149.39343,102.316487 L1160.56421,102.316487 L1160.56421,104.929731 L1170.26193,104.929731 L1170.26193,108.289615 L1175.66319,108.289615 L1175.66319,106.423013 L1178.85484,106.423013 L1178.85484,108.289615 L1182.90579,108.289615 L1182.90579,110.529538 L1187.325,110.529538 L1187.325,112.105946 L1184.95213,112.105946 L1046.925,112.105946 L1013.85,112.105946 L870.075,112.105946 L718.875,112.105946 L564.975,112.105946 L483.3,112.105946 L480.927129,112.105946 L306.45,112.105946 L306.45,108.787376 L312.833307,108.787376 L312.833307,106.132818 L317.579786,106.132818 L317.579786,98.1686477 L321.507975,98.1686477 L321.507975,106.132818 L325.926941,106.132818 L325.926941,102.316487 L326.809311,102.316487 L326.809311,101.398119 L332.419255,101.398119 L332.419255,102.316487 L333.169539,102.316487 L333.169539,106.049692 L334.888122,106.049692 L334.888122,100.449885 L337.711507,100.449885 L337.711507,106.298572 L338.570799,106.298572 L338.570799,104.43197 L341.148673,104.43197 L341.148673,101.196526 L344.954105,101.196526 L344.954105,105.676372 L349.00505,105.676372 L349.00505,96.5922398 L351.0919,96.5922398 L351.0919,95.3478381 L361.894419,95.3478381 L361.894419,96.9655602 L363.490246,96.9655602 L363.490246,106.174132 L365.699852,106.174132 L365.699852,103.934209 L367.786702,103.934209 L367.786702,106.174132 L369.996308,106.174132 L369.996308,102.814248 L374.906544,102.814248 L374.906544,107.294094 L379.694024,107.294094 L379.694024,91.8635136 L381.167095,91.8635136 L381.167095,90.9924324 L383.499457,90.9924324 L383.499457,91.9879537 L384.849771,91.9879537 L384.849771,104.30753 L389.760007,104.30753 L389.760007,97.3388807 L394.670243,97.3388807 L394.670243,101.694286 L405.84103,101.694286 L405.84103,106.298572 L406.658307,106.298572 L406.658307,106.132818 L410.751266,106.132818 L410.751266,95.0989578 L416.398037,95.0989578 L416.398037,103.934209 L419.751941,103.934209 L419.751941,102.316487 L420.634311,102.316487 L420.634311,101.398119 L426.218508,101.398119 L426.218508,98.334402 L428.55087,98.334402 L428.55087,96.7166799 L438.73961,96.7166799 L438.73961,98.334402 L440.949216,98.334402 L440.949216,105.054171 L442.83005,105.054171 L442.83005,96.5922398 L444.9169,96.5922398 L444.9169,95.3478381 L455.719419,95.3478381 L455.719419,96.9655602 L457.315246,96.9655602 L457.315246,104.929731 L459.524852,104.929731 L459.524852,103.934209 L461.611702,103.934209 L461.611702,104.929731 L463.821308,104.929731 L463.821308,102.814248 L468.731544,102.814248 L468.731544,107.294094 L471.63819,107.294094 L471.63819,106.423013 L473.519024,106.423013 L473.519024,91.8635136 L474.992095,91.8635136 L474.992095,90.9924324 L477.324457,90.9924324 L477.324457,91.9879537 L478.674771,91.9879537 L478.674771,104.30753 L483.585007,104.30753 L483.585007,97.3388807 L488.495243,97.3388807 L488.495243,101.694286 L499.66603,101.694286 L499.66603,106.298572 L504.576266,106.298572 L504.576266,95.0989578 L510.223037,95.0989578 L510.223037,103.934209 L512.714979,103.934209 Z" id="Combined-Shape-Copy-3" fill="#7D7D7D"></path>
                            </g>
                        </g>
                    </g>
                </g>
                <g id="titlearea" transform="translate(256.000000, 4.000000)">
                    <g transform="translate(0.000000, 5.584270)">
                        <path d="M25.4019562,57.1414382 C25.4019562,57.5722269 25.4511601,57.9910429 25.5495693,58.3978989 C25.6479786,58.8047548 25.8049624,59.1709197 26.0205255,59.4964045 C26.2360887,59.8218893 26.5172537,60.0827518 26.8640292,60.279 C27.2108047,60.4752482 27.6325523,60.5733708 28.1292847,60.5733708 C28.6260171,60.5733708 29.0477647,60.4752482 29.3945401,60.279 C29.7413156,60.0827518 30.0224807,59.8218893 30.2380438,59.4964045 C30.4536069,59.1709197 30.6105907,58.8047548 30.709,58.3978989 C30.8074093,57.9910429 30.8566131,57.5722269 30.8566131,57.1414382 C30.8566131,56.6915034 30.8074093,56.2559347 30.709,55.8347191 C30.6105907,55.4135035 30.4536069,55.0377657 30.2380438,54.7074944 C30.0224807,54.3772231 29.7413156,54.1139673 29.3945401,53.9177191 C29.0477647,53.7214709 28.6260171,53.6233483 28.1292847,53.6233483 C27.6325523,53.6233483 27.2108047,53.7214709 26.8640292,53.9177191 C26.5172537,54.1139673 26.2360887,54.3772231 26.0205255,54.7074944 C25.8049624,55.0377657 25.6479786,55.4135035 25.5495693,55.8347191 C25.4511601,56.2559347 25.4019562,56.6915034 25.4019562,57.1414382 Z M23.1947883,57.1414382 C23.1947883,56.3755917 23.3072543,55.664801 23.5321898,55.0090449 C23.7571252,54.3532889 24.080465,53.7813058 24.502219,53.2930787 C24.9239729,52.8048515 25.4417853,52.421934 26.0556715,52.1443146 C26.6695578,51.8666952 27.3607553,51.7278876 28.1292847,51.7278876 C28.9071864,51.7278876 29.6007269,51.8666952 30.209927,52.1443146 C30.8191271,52.421934 31.3345964,52.8048515 31.7563504,53.2930787 C32.1781043,53.7813058 32.5014441,54.3532889 32.7263796,55.0090449 C32.951315,55.664801 33.063781,56.3755917 33.063781,57.1414382 C33.063781,57.8881386 32.951315,58.5845698 32.7263796,59.2307528 C32.5014441,59.8769358 32.1781043,60.4393459 31.7563504,60.918 C31.3345964,61.3966541 30.8191271,61.7723919 30.209927,62.0452247 C29.6007269,62.3180575 28.9071864,62.4544719 28.1292847,62.4544719 C27.3607553,62.4544719 26.6695578,62.3180575 26.0556715,62.0452247 C25.4417853,61.7723919 24.9239729,61.3966541 24.502219,60.918 C24.080465,60.4393459 23.7571252,59.8769358 23.5321898,59.2307528 C23.3072543,58.5845698 23.1947883,57.8881386 23.1947883,57.1414382 Z M41.1754745,62.2247191 L39.2775912,62.2247191 L39.2775912,61.1908315 L39.2354161,61.1908315 C38.9823637,61.6216201 38.6543378,61.9327406 38.2513285,62.1242022 C37.8483192,62.3156639 37.4359437,62.4113933 37.0141898,62.4113933 C36.4799681,62.4113933 36.0418192,62.3395962 35.6997299,62.196 C35.3576406,62.0524038 35.0881908,61.8489788 34.8913723,61.5857191 C34.6945538,61.3224594 34.5563143,61.0017659 34.4766496,60.6236292 C34.396985,60.2454925 34.3571533,59.8266765 34.3571533,59.3671685 L34.3571533,54.8008315 L36.3534453,54.8008315 L36.3534453,58.9938202 C36.3534453,59.6064974 36.4471669,60.0636052 36.6346131,60.3651573 C36.8220593,60.6667094 37.1547713,60.8174831 37.6327591,60.8174831 C38.1763531,60.8174831 38.5699842,60.65235 38.8136642,60.3220787 C39.0573443,59.9918073 39.1791825,59.4485431 39.1791825,58.6922697 L39.1791825,54.8008315 L41.1754745,54.8008315 L41.1754745,62.2247191 Z M42.693781,54.8008315 L44.5916642,54.8008315 L44.5916642,56.1793483 L44.619781,56.1793483 C44.7135041,55.9495944 44.8400284,55.7365965 44.9993577,55.5403483 C45.1586869,55.3441001 45.3414442,55.1765737 45.547635,55.037764 C45.7538258,54.8989544 45.9740718,54.7912588 46.2083796,54.7146742 C46.4426873,54.6380895 46.6863637,54.5997978 46.9394161,54.5997978 C47.0706284,54.5997978 47.215897,54.6237301 47.3752263,54.6715955 L47.3752263,56.5670562 C47.2815032,56.54791 47.1690372,56.5311574 47.0378248,56.5167978 C46.9066125,56.5024381 46.7800882,56.4952584 46.6582482,56.4952584 C46.2927281,56.4952584 45.9834465,56.5574825 45.7303942,56.6819326 C45.4773418,56.8063826 45.2734971,56.9763023 45.118854,57.1916966 C44.9642109,57.407091 44.8540879,57.6583806 44.7884818,57.945573 C44.7228756,58.2327655 44.690073,58.543886 44.690073,58.8789438 L44.690073,62.2247191 L42.693781,62.2247191 L42.693781,54.8008315 Z M54.4887737,56.6101348 L56.9068175,56.6101348 C57.4129222,56.6101348 57.7924951,56.4952596 58.0455474,56.2655056 C58.2985998,56.0357517 58.4251241,55.6624071 58.4251241,55.1454607 C58.4251241,54.6476604 58.2985998,54.286282 58.0455474,54.0613146 C57.7924951,53.8363472 57.4129222,53.7238652 56.9068175,53.7238652 L54.4887737,53.7238652 L54.4887737,56.6101348 Z M52.2816058,51.972 L57.6940876,51.972 C58.1439585,51.972 58.5493048,52.0461903 58.9101387,52.194573 C59.2709726,52.3429558 59.5802542,52.5463807 59.8379927,52.8048539 C60.0957312,53.0633271 60.2925468,53.3624814 60.4284453,53.7023258 C60.5643437,54.0421702 60.632292,54.4083351 60.632292,54.8008315 C60.632292,55.4039356 60.5081107,55.9256607 60.2597445,56.3660225 C60.0113783,56.8063842 59.606032,57.1414371 59.0436934,57.371191 L59.0436934,57.3999101 C59.3154904,57.4764948 59.5404225,57.5937633 59.7184964,57.7517191 C59.8965702,57.9096749 60.0418389,58.0963472 60.1543066,58.3117416 C60.2667743,58.5271359 60.3487808,58.7640661 60.4003285,59.0225393 C60.4518762,59.2810125 60.4870218,59.5394819 60.5057664,59.7979551 C60.5151387,59.9606974 60.5245109,60.1521562 60.5338832,60.3723371 C60.5432555,60.592518 60.5596568,60.817482 60.5830876,61.047236 C60.6065184,61.2769899 60.644007,61.4947743 60.6955547,61.7005955 C60.7471024,61.9064168 60.8244228,62.0811229 60.9275182,62.2247191 L58.7203504,62.2247191 C58.5985103,61.8992343 58.523533,61.5115303 58.4954161,61.0615955 C58.4672991,60.6116607 58.4251244,60.1808785 58.3688905,59.769236 C58.293912,59.2331434 58.1345852,58.8406529 57.8909051,58.5917528 C57.6472251,58.3428527 57.2489079,58.2184045 56.6959416,58.2184045 L54.4887737,58.2184045 L54.4887737,62.2247191 L52.2816058,62.2247191 L52.2816058,51.972 Z M67.1132117,57.7158202 C67.0194886,57.1988738 66.8531326,56.8063834 66.6141387,56.5383371 C66.3751448,56.2702908 66.0119732,56.1362697 65.5246131,56.1362697 C65.2059546,56.1362697 64.9411908,56.1913141 64.7303139,56.3014045 C64.5194369,56.4114949 64.3507379,56.5479093 64.2242117,56.7106517 C64.0976855,56.8733941 64.0086499,57.045707 63.9571022,57.2275955 C63.9055545,57.4094841 63.8750949,57.572224 63.8657226,57.7158202 L67.1132117,57.7158202 Z M63.8657226,59.0081798 C63.8938396,59.6687224 64.0578525,60.1473693 64.3577664,60.4441348 C64.6576803,60.7409004 65.0888001,60.8892809 65.6511387,60.8892809 C66.054148,60.8892809 66.4009183,60.7863718 66.6914599,60.5805506 C66.9820015,60.3747293 67.1600727,60.156945 67.2256788,59.927191 L68.9829781,59.927191 C68.7018088,60.8174876 68.270689,61.454088 67.6896058,61.8370112 C67.1085226,62.2199345 66.40561,62.4113933 65.5808467,62.4113933 C65.0091358,62.4113933 64.4936665,62.3180571 64.0344234,62.131382 C63.5751802,61.9447069 63.1862352,61.6790579 62.8675766,61.334427 C62.5489181,60.989796 62.3028987,60.5781597 62.1295109,60.0995056 C61.9561232,59.6208515 61.8694307,59.09434 61.8694307,58.5199551 C61.8694307,57.9647163 61.9584663,57.4477777 62.1365401,56.9691236 C62.314614,56.4904695 62.5676626,56.0764399 62.8956934,55.7270225 C63.2237243,55.377605 63.6150123,55.102383 64.0695693,54.9013483 C64.5241264,54.7003136 65.0278804,54.5997978 65.5808467,54.5997978 C66.1994192,54.5997978 66.7383189,54.7218527 67.197562,54.9659663 C67.6568052,55.2100799 68.034035,55.537953 68.3292628,55.9495955 C68.6244905,56.361238 68.8377074,56.830312 68.9689197,57.3568315 C69.100132,57.8833509 69.1469929,58.4337949 69.1095036,59.0081798 L63.8657226,59.0081798 Z M73.9596496,60.8892809 C74.2876805,60.8892809 74.5618164,60.8222703 74.7820657,60.6882472 C75.002315,60.554224 75.1803862,60.3795179 75.3162847,60.1641236 C75.4521832,59.9487293 75.5482479,59.6974396 75.6044818,59.4102472 C75.6607156,59.1230547 75.6888321,58.8310801 75.6888321,58.5343146 C75.6888321,58.2375491 75.6583726,57.9455745 75.5974526,57.658382 C75.5365325,57.3711896 75.4357817,57.1151135 75.2951971,56.8901461 C75.1546124,56.6651787 74.9741982,56.4832928 74.7539489,56.3444831 C74.5336996,56.2056735 74.2642498,56.1362697 73.9455912,56.1362697 C73.6175604,56.1362697 73.3434245,56.2056735 73.1231752,56.3444831 C72.9029259,56.4832928 72.7248547,56.6627854 72.5889562,56.8829663 C72.4530577,57.1031472 72.356993,57.35683 72.3007591,57.6440225 C72.2445253,57.9312149 72.2164088,58.227976 72.2164088,58.5343146 C72.2164088,58.8310801 72.2468683,59.1230547 72.3077883,59.4102472 C72.3687083,59.6974396 72.4671161,59.9487293 72.6030146,60.1641236 C72.7389131,60.3795179 72.9193273,60.554224 73.1442628,60.6882472 C73.3691982,60.8222703 73.6409911,60.8892809 73.9596496,60.8892809 Z M70.2904088,54.8008315 L72.188292,54.8008315 L72.188292,55.7485618 L72.2164088,55.7485618 C72.4600888,55.3464924 72.7693704,55.0545178 73.1442628,54.8726292 C73.5191552,54.6907407 73.9315306,54.5997978 74.3814015,54.5997978 C74.9531123,54.5997978 75.4451512,54.7098865 75.8575328,54.9300674 C76.2699145,55.1502483 76.6119986,55.4422229 76.8837956,55.806 C77.1555926,56.1697771 77.3570942,56.5933796 77.4883066,57.0768202 C77.6195189,57.5602608 77.6851241,58.0652333 77.6851241,58.5917528 C77.6851241,59.0895531 77.6195189,59.5681999 77.4883066,60.0277079 C77.3570942,60.4872158 77.1579356,60.8940656 76.8908248,61.2482697 C76.623714,61.6024737 76.291002,61.8848754 75.8926788,62.0954831 C75.4943557,62.3060909 75.0280903,62.4113933 74.4938686,62.4113933 C74.0439978,62.4113933 73.6292793,62.3180571 73.2497007,62.131382 C72.8701222,61.9447069 72.5584976,61.669485 72.3148175,61.3057079 L72.2867007,61.3057079 L72.2867007,64.8237978 L70.2904088,64.8237978 L70.2904088,54.8008315 Z M80.6514453,58.5199551 C80.6514453,58.8167206 80.6795618,59.106302 80.7357956,59.3887079 C80.7920295,59.6711138 80.8880942,59.9247966 81.0239927,60.149764 C81.1598912,60.3747315 81.3403054,60.554224 81.5652409,60.6882472 C81.7901763,60.8222703 82.0713414,60.8892809 82.4087445,60.8892809 C82.7461477,60.8892809 83.0296558,60.8222703 83.2592774,60.6882472 C83.488899,60.554224 83.6716563,60.3747315 83.8075547,60.149764 C83.9434532,59.9247966 84.039518,59.6711138 84.0957518,59.3887079 C84.1519857,59.106302 84.1801022,58.8167206 84.1801022,58.5199551 C84.1801022,58.2231895 84.1519857,57.9312149 84.0957518,57.6440225 C84.039518,57.35683 83.9434532,57.1031472 83.8075547,56.8829663 C83.6716563,56.6627854 83.488899,56.4832928 83.2592774,56.3444831 C83.0296558,56.2056735 82.7461477,56.1362697 82.4087445,56.1362697 C82.0713414,56.1362697 81.7901763,56.2056735 81.5652409,56.3444831 C81.3403054,56.4832928 81.1598912,56.6627854 81.0239927,56.8829663 C80.8880942,57.1031472 80.7920295,57.35683 80.7357956,57.6440225 C80.6795618,57.9312149 80.6514453,58.2231895 80.6514453,58.5199551 Z M78.6551533,58.5199551 C78.6551533,57.926424 78.7441889,57.3879462 78.9222628,56.9045056 C79.1003367,56.421065 79.3533852,56.0094287 79.6814161,55.6695843 C80.0094469,55.3297399 80.403078,55.0664841 80.8623212,54.879809 C81.3215643,54.6931339 81.8370336,54.5997978 82.4087445,54.5997978 C82.9804554,54.5997978 83.4982678,54.6931339 83.9621971,54.879809 C84.4261264,55.0664841 84.8221005,55.3297399 85.1501314,55.6695843 C85.4781622,56.0094287 85.7312108,56.421065 85.9092847,56.9045056 C86.0873586,57.3879462 86.1763942,57.926424 86.1763942,58.5199551 C86.1763942,59.1134861 86.0873586,59.6495706 85.9092847,60.1282247 C85.7312108,60.6068788 85.4781622,61.0161219 85.1501314,61.3559663 C84.8221005,61.6958107 84.4261264,61.9566732 83.9621971,62.1385618 C83.4982678,62.3204503 82.9804554,62.4113933 82.4087445,62.4113933 C81.8370336,62.4113933 81.3215643,62.3204503 80.8623212,62.1385618 C80.403078,61.9566732 80.0094469,61.6958107 79.6814161,61.3559663 C79.3533852,61.0161219 79.1003367,60.6068788 78.9222628,60.1282247 C78.7441889,59.6495706 78.6551533,59.1134861 78.6551533,58.5199551 Z M87.4697664,54.8008315 L89.3676496,54.8008315 L89.3676496,56.1793483 L89.3957664,56.1793483 C89.4894895,55.9495944 89.6160138,55.7365965 89.7753431,55.5403483 C89.9346723,55.3441001 90.1174296,55.1765737 90.3236204,55.037764 C90.5298112,54.8989544 90.7500572,54.7912588 90.984365,54.7146742 C91.2186727,54.6380895 91.4623491,54.5997978 91.7154015,54.5997978 C91.8466138,54.5997978 91.9918824,54.6237301 92.1512117,54.6715955 L92.1512117,56.5670562 C92.0574886,56.54791 91.9450226,56.5311574 91.8138102,56.5167978 C91.6825979,56.5024381 91.5560736,56.4952584 91.4342336,56.4952584 C91.0687135,56.4952584 90.7594319,56.5574825 90.5063796,56.6819326 C90.2533272,56.8063826 90.0494825,56.9763023 89.8948394,57.1916966 C89.7401963,57.407091 89.6300733,57.6583806 89.5644672,57.945573 C89.498861,58.2327655 89.4660584,58.543886 89.4660584,58.8789438 L89.4660584,62.2247191 L87.4697664,62.2247191 L87.4697664,54.8008315 Z M95.4689927,54.8008315 L96.9310657,54.8008315 L96.9310657,56.1649888 L95.4689927,56.1649888 L95.4689927,59.8410337 C95.4689927,60.1856646 95.5252257,60.4154152 95.6376934,60.5302921 C95.7501611,60.6451691 95.9750932,60.7026067 96.3124964,60.7026067 C96.4249641,60.7026067 96.532744,60.6978203 96.6358394,60.6882472 C96.7389348,60.6786741 96.8373426,60.6643147 96.9310657,60.6451685 L96.9310657,62.2247191 C96.7623641,62.2534383 96.5749207,62.2725842 96.3687299,62.2821573 C96.1625391,62.2917304 95.9610375,62.2965169 95.764219,62.2965169 C95.4549328,62.2965169 95.1620525,62.2749777 94.8855693,62.2318989 C94.6090862,62.18882 94.3654098,62.1050568 94.1545328,61.9806067 C93.9436559,61.8561567 93.7772999,61.6790573 93.6554599,61.4493034 C93.5336198,61.2195494 93.4727007,60.9180019 93.4727007,60.5446517 L93.4727007,56.1649888 L92.2636788,56.1649888 L92.2636788,54.8008315 L93.4727007,54.8008315 L93.4727007,52.5751011 L95.4689927,52.5751011 L95.4689927,54.8008315 Z M99.939562,53.6520674 L97.9432701,53.6520674 L97.9432701,51.972 L99.939562,51.972 L99.939562,53.6520674 Z M97.9432701,54.8008315 L99.939562,54.8008315 L99.939562,62.2247191 L97.9432701,62.2247191 L97.9432701,54.8008315 Z M101.514102,54.8008315 L103.411985,54.8008315 L103.411985,55.8347191 L103.454161,55.8347191 C103.707213,55.4039304 104.035239,55.0904167 104.438248,54.8941685 C104.841257,54.6979204 105.253633,54.5997978 105.675387,54.5997978 C106.209609,54.5997978 106.647757,54.673988 106.989847,54.8223708 C107.331936,54.9707536 107.601386,55.1765717 107.798204,55.4398315 C107.995023,55.7030912 108.133262,56.0237846 108.212927,56.4019213 C108.292592,56.7800581 108.332423,57.1988741 108.332423,57.658382 L108.332423,62.2247191 L106.336131,62.2247191 L106.336131,58.0317303 C106.336131,57.4190531 106.24241,56.9619453 106.054964,56.6603933 C105.867517,56.3588412 105.534805,56.2080674 105.056818,56.2080674 C104.513224,56.2080674 104.119592,56.3732006 103.875912,56.7034719 C103.632232,57.0337432 103.510394,57.5770075 103.510394,58.3332809 L103.510394,62.2247191 L101.514102,62.2247191 L101.514102,54.8008315 Z M113.238803,60.4728539 C113.519972,60.4728539 113.768335,60.4154163 113.983898,60.3005393 C114.199461,60.1856623 114.377532,60.0324953 114.518117,59.8410337 C114.658701,59.6495721 114.764138,59.4317877 114.834431,59.1876742 C114.904723,58.9435606 114.939869,58.6874845 114.939869,58.4194382 C114.939869,58.1130996 114.911752,57.8235182 114.855518,57.5506854 C114.799284,57.2778526 114.705563,57.0361359 114.57435,56.8255281 C114.443138,56.6149203 114.269753,56.4473939 114.05419,56.3229438 C113.838627,56.1984938 113.566834,56.1362697 113.238803,56.1362697 C112.957634,56.1362697 112.7163,56.1937073 112.514796,56.3085843 C112.313291,56.4234612 112.144592,56.5790215 112.008693,56.7752697 C111.872795,56.9715178 111.774387,57.1964819 111.713467,57.4501685 C111.652547,57.7038552 111.622088,57.9695042 111.622088,58.2471236 C111.622088,58.5151699 111.647861,58.7808189 111.699409,59.0440787 C111.750956,59.3073384 111.839992,59.5442686 111.966518,59.7548764 C112.093044,59.9654842 112.2594,60.1377971 112.465591,60.2718202 C112.671782,60.4058434 112.929517,60.4728539 113.238803,60.4728539 Z M116.837752,61.7508539 C116.837752,62.0476195 116.79792,62.3874588 116.718255,62.770382 C116.638591,63.1533053 116.467549,63.5098972 116.205124,63.8401685 C115.942699,64.1704399 115.563127,64.4504483 115.066394,64.6802022 C114.569662,64.9099562 113.904238,65.0248315 113.070102,65.0248315 C112.713954,65.0248315 112.350783,64.97936 111.980577,64.8884157 C111.61037,64.7974715 111.272972,64.6562706 110.968372,64.464809 C110.663772,64.2733474 110.410724,64.0268442 110.209219,63.7252921 C110.007714,63.4237401 109.892905,63.0623617 109.864788,62.6411461 L111.847022,62.6411461 C111.940745,63.0240693 112.123502,63.2897184 112.395299,63.4381011 C112.667096,63.5864839 112.981064,63.6606742 113.337212,63.6606742 C113.89955,63.6606742 114.309583,63.4883613 114.567321,63.1437303 C114.82506,62.7990994 114.949241,62.3635307 114.939869,61.8370112 L114.939869,60.8605618 L114.911752,60.8605618 C114.696189,61.2530581 114.38925,61.5426395 113.990927,61.7293146 C113.592604,61.9159897 113.173199,62.0093258 112.732701,62.0093258 C112.189107,62.0093258 111.720498,61.9112032 111.326861,61.7149551 C110.933224,61.5187069 110.609884,61.2506646 110.356832,60.9108202 C110.10378,60.5709758 109.918679,60.1736989 109.801526,59.7189775 C109.684372,59.2642562 109.625796,58.783216 109.625796,58.2758427 C109.625796,57.7971886 109.693744,57.3352944 109.829642,56.8901461 C109.965541,56.4449978 110.164699,56.0525073 110.427124,55.7126629 C110.689549,55.3728185 111.015232,55.102383 111.404182,54.9013483 C111.793133,54.7003136 112.240654,54.5997978 112.746759,54.5997978 C113.224747,54.5997978 113.644151,54.6907407 114.004985,54.8726292 C114.365819,55.0545178 114.668072,55.3608518 114.911752,55.7916404 L114.939869,55.7916404 L114.939869,54.8008315 L116.837752,54.8008315 L116.837752,61.7508539 Z M122.559518,51.972 L124.766686,51.972 L124.766686,62.2247191 L122.559518,62.2247191 L122.559518,51.972 Z M126.495869,54.8008315 L128.393752,54.8008315 L128.393752,55.8347191 L128.435927,55.8347191 C128.688979,55.4039304 129.017005,55.0904167 129.420015,54.8941685 C129.823024,54.6979204 130.235399,54.5997978 130.657153,54.5997978 C131.191375,54.5997978 131.629524,54.673988 131.971613,54.8223708 C132.313702,54.9707536 132.583152,55.1765717 132.779971,55.4398315 C132.976789,55.7030912 133.115029,56.0237846 133.194693,56.4019213 C133.274358,56.7800581 133.31419,57.1988741 133.31419,57.658382 L133.31419,62.2247191 L131.317898,62.2247191 L131.317898,58.0317303 C131.317898,57.4190531 131.224176,56.9619453 131.03673,56.6603933 C130.849284,56.3588412 130.516572,56.2080674 130.038584,56.2080674 C129.49499,56.2080674 129.101359,56.3732006 128.857679,56.7034719 C128.613999,57.0337432 128.492161,57.5770075 128.492161,58.3332809 L128.492161,62.2247191 L126.495869,62.2247191 L126.495869,54.8008315 Z M141.552409,58.232764 L137.869109,51.972 L140.343387,51.972 L142.691139,56.0213933 L145.024832,51.972 L147.485051,51.972 L143.759577,58.2902022 L143.759577,62.2247191 L141.552409,62.2247191 L141.552409,58.232764 Z M148.328555,58.5199551 C148.328555,58.8167206 148.356671,59.106302 148.412905,59.3887079 C148.469139,59.6711138 148.565204,59.9247966 148.701102,60.149764 C148.837001,60.3747315 149.017415,60.554224 149.24235,60.6882472 C149.467286,60.8222703 149.748451,60.8892809 150.085854,60.8892809 C150.423257,60.8892809 150.706765,60.8222703 150.936387,60.6882472 C151.166008,60.554224 151.348766,60.3747315 151.484664,60.149764 C151.620563,59.9247966 151.716627,59.6711138 151.772861,59.3887079 C151.829095,59.106302 151.857212,58.8167206 151.857212,58.5199551 C151.857212,58.2231895 151.829095,57.9312149 151.772861,57.6440225 C151.716627,57.35683 151.620563,57.1031472 151.484664,56.8829663 C151.348766,56.6627854 151.166008,56.4832928 150.936387,56.3444831 C150.706765,56.2056735 150.423257,56.1362697 150.085854,56.1362697 C149.748451,56.1362697 149.467286,56.2056735 149.24235,56.3444831 C149.017415,56.4832928 148.837001,56.6627854 148.701102,56.8829663 C148.565204,57.1031472 148.469139,57.35683 148.412905,57.6440225 C148.356671,57.9312149 148.328555,58.2231895 148.328555,58.5199551 Z M146.332263,58.5199551 C146.332263,57.926424 146.421298,57.3879462 146.599372,56.9045056 C146.777446,56.421065 147.030495,56.0094287 147.358526,55.6695843 C147.686556,55.3297399 148.080187,55.0664841 148.539431,54.879809 C148.998674,54.6931339 149.514143,54.5997978 150.085854,54.5997978 C150.657565,54.5997978 151.175377,54.6931339 151.639307,54.879809 C152.103236,55.0664841 152.49921,55.3297399 152.827241,55.6695843 C153.155272,56.0094287 153.40832,56.421065 153.586394,56.9045056 C153.764468,57.3879462 153.853504,57.926424 153.853504,58.5199551 C153.853504,59.1134861 153.764468,59.6495706 153.586394,60.1282247 C153.40832,60.6068788 153.155272,61.0161219 152.827241,61.3559663 C152.49921,61.6958107 152.103236,61.9566732 151.639307,62.1385618 C151.175377,62.3204503 150.657565,62.4113933 150.085854,62.4113933 C149.514143,62.4113933 148.998674,62.3204503 148.539431,62.1385618 C148.080187,61.9566732 147.686556,61.6958107 147.358526,61.3559663 C147.030495,61.0161219 146.777446,60.6068788 146.599372,60.1282247 C146.421298,59.6495706 146.332263,59.1134861 146.332263,58.5199551 Z M161.965197,62.2247191 L160.067314,62.2247191 L160.067314,61.1908315 L160.025139,61.1908315 C159.772086,61.6216201 159.44406,61.9327406 159.041051,62.1242022 C158.638042,62.3156639 158.225666,62.4113933 157.803912,62.4113933 C157.269691,62.4113933 156.831542,62.3395962 156.489453,62.196 C156.147363,62.0524038 155.877913,61.8489788 155.681095,61.5857191 C155.484276,61.3224594 155.346037,61.0017659 155.266372,60.6236292 C155.186708,60.2454925 155.146876,59.8266765 155.146876,59.3671685 L155.146876,54.8008315 L157.143168,54.8008315 L157.143168,58.9938202 C157.143168,59.6064974 157.23689,60.0636052 157.424336,60.3651573 C157.611782,60.6667094 157.944494,60.8174831 158.422482,60.8174831 C158.966076,60.8174831 159.359707,60.65235 159.603387,60.3220787 C159.847067,59.9918073 159.968905,59.4485431 159.968905,58.6922697 L159.968905,54.8008315 L161.965197,54.8008315 L161.965197,62.2247191 Z M163.483504,54.8008315 L165.381387,54.8008315 L165.381387,56.1793483 L165.409504,56.1793483 C165.503227,55.9495944 165.629751,55.7365965 165.78908,55.5403483 C165.94841,55.3441001 166.131167,55.1765737 166.337358,55.037764 C166.543548,54.8989544 166.763794,54.7912588 166.998102,54.7146742 C167.23241,54.6380895 167.476086,54.5997978 167.729139,54.5997978 C167.860351,54.5997978 168.00562,54.6237301 168.164949,54.6715955 L168.164949,56.5670562 C168.071226,56.54791 167.95876,56.5311574 167.827547,56.5167978 C167.696335,56.5024381 167.569811,56.4952584 167.447971,56.4952584 C167.082451,56.4952584 166.773169,56.5574825 166.520117,56.6819326 C166.267064,56.8063826 166.06322,56.9763023 165.908577,57.1916966 C165.753934,57.407091 165.643811,57.6583806 165.578204,57.945573 C165.512598,58.2327655 165.479796,58.543886 165.479796,58.8789438 L165.479796,62.2247191 L163.483504,62.2247191 L163.483504,54.8008315 Z M173.071328,51.972 L175.278496,51.972 L175.278496,62.2247191 L173.071328,62.2247191 L173.071328,51.972 Z M177.007679,54.8008315 L178.905562,54.8008315 L178.905562,55.8347191 L178.947737,55.8347191 C179.20079,55.4039304 179.528816,55.0904167 179.931825,54.8941685 C180.334834,54.6979204 180.74721,54.5997978 181.168964,54.5997978 C181.703185,54.5997978 182.141334,54.673988 182.483423,54.8223708 C182.825513,54.9707536 183.094963,55.1765717 183.291781,55.4398315 C183.4886,55.7030912 183.626839,56.0237846 183.706504,56.4019213 C183.786168,56.7800581 183.826,57.1988741 183.826,57.658382 L183.826,62.2247191 L181.829708,62.2247191 L181.829708,58.0317303 C181.829708,57.4190531 181.735986,56.9619453 181.54854,56.6603933 C181.361094,56.3588412 181.028382,56.2080674 180.550394,56.2080674 C180.0068,56.2080674 179.613169,56.3732006 179.369489,56.7034719 C179.125809,57.0337432 179.003971,57.5770075 179.003971,58.3332809 L179.003971,62.2247191 L177.007679,62.2247191 L177.007679,54.8008315 Z M190.672438,58.5199551 C190.672438,58.2040434 190.639635,57.9024958 190.574029,57.6153034 C190.508423,57.3281109 190.405329,57.0744281 190.264745,56.8542472 C190.12416,56.6340663 189.948432,56.4593602 189.737555,56.3301236 C189.526678,56.200887 189.271286,56.1362697 188.971372,56.1362697 C188.680831,56.1362697 188.427782,56.200887 188.212219,56.3301236 C187.996656,56.4593602 187.818585,56.6340663 187.678,56.8542472 C187.537415,57.0744281 187.434321,57.3281109 187.368715,57.6153034 C187.303109,57.9024958 187.270307,58.2040434 187.270307,58.5199551 C187.270307,58.8262937 187.303109,59.1230547 187.368715,59.4102472 C187.434321,59.6974396 187.537415,59.9511225 187.678,60.1713034 C187.818585,60.3914842 187.996656,60.5661904 188.212219,60.695427 C188.427782,60.8246636 188.680831,60.8892809 188.971372,60.8892809 C189.271286,60.8892809 189.526678,60.8246636 189.737555,60.695427 C189.948432,60.5661904 190.12416,60.3914842 190.264745,60.1713034 C190.405329,59.9511225 190.508423,59.6974396 190.574029,59.4102472 C190.639635,59.1230547 190.672438,58.8262937 190.672438,58.5199551 Z M185.344307,51.972 L187.340599,51.972 L187.340599,55.7054831 L187.368715,55.7054831 C187.612395,55.3225599 187.942764,55.0425514 188.359832,54.8654494 C188.7769,54.6883474 189.210363,54.5997978 189.660234,54.5997978 C190.025754,54.5997978 190.386582,54.6763813 190.74273,54.8295506 C191.098878,54.9827199 191.419874,55.2172568 191.70573,55.5331685 C191.991585,55.8490802 192.223547,56.2535369 192.40162,56.7465506 C192.579694,57.2395643 192.66873,57.8259067 192.66873,58.5055955 C192.66873,59.1852843 192.579694,59.7716267 192.40162,60.2646404 C192.223547,60.7576542 191.991585,61.1621108 191.70573,61.4780225 C191.419874,61.7939342 191.098878,62.0284711 190.74273,62.1816404 C190.386582,62.3348098 190.025754,62.4113933 189.660234,62.4113933 C189.126012,62.4113933 188.648031,62.3252368 188.226277,62.1529213 C187.804523,61.9806059 187.48587,61.6886313 187.270307,61.2769888 L187.24219,61.2769888 L187.24219,62.2247191 L185.344307,62.2247191 L185.344307,51.972 Z M195.705343,58.5199551 C195.705343,58.8167206 195.73346,59.106302 195.789693,59.3887079 C195.845927,59.6711138 195.941992,59.9247966 196.077891,60.149764 C196.213789,60.3747315 196.394203,60.554224 196.619139,60.6882472 C196.844074,60.8222703 197.125239,60.8892809 197.462642,60.8892809 C197.800045,60.8892809 198.083554,60.8222703 198.313175,60.6882472 C198.542797,60.554224 198.725554,60.3747315 198.861453,60.149764 C198.997351,59.9247966 199.093416,59.6711138 199.14965,59.3887079 C199.205883,59.106302 199.234,58.8167206 199.234,58.5199551 C199.234,58.2231895 199.205883,57.9312149 199.14965,57.6440225 C199.093416,57.35683 198.997351,57.1031472 198.861453,56.8829663 C198.725554,56.6627854 198.542797,56.4832928 198.313175,56.3444831 C198.083554,56.2056735 197.800045,56.1362697 197.462642,56.1362697 C197.125239,56.1362697 196.844074,56.2056735 196.619139,56.3444831 C196.394203,56.4832928 196.213789,56.6627854 196.077891,56.8829663 C195.941992,57.1031472 195.845927,57.35683 195.789693,57.6440225 C195.73346,57.9312149 195.705343,58.2231895 195.705343,58.5199551 Z M193.709051,58.5199551 C193.709051,57.926424 193.798087,57.3879462 193.976161,56.9045056 C194.154234,56.421065 194.407283,56.0094287 194.735314,55.6695843 C195.063345,55.3297399 195.456976,55.0664841 195.916219,54.879809 C196.375462,54.6931339 196.890931,54.5997978 197.462642,54.5997978 C198.034353,54.5997978 198.552166,54.6931339 199.016095,54.879809 C199.480024,55.0664841 199.875998,55.3297399 200.204029,55.6695843 C200.53206,56.0094287 200.785109,56.421065 200.963182,56.9045056 C201.141256,57.3879462 201.230292,57.926424 201.230292,58.5199551 C201.230292,59.1134861 201.141256,59.6495706 200.963182,60.1282247 C200.785109,60.6068788 200.53206,61.0161219 200.204029,61.3559663 C199.875998,61.6958107 199.480024,61.9566732 199.016095,62.1385618 C198.552166,62.3204503 198.034353,62.4113933 197.462642,62.4113933 C196.890931,62.4113933 196.375462,62.3204503 195.916219,62.1385618 C195.456976,61.9566732 195.063345,61.6958107 194.735314,61.3559663 C194.407283,61.0161219 194.154234,60.6068788 193.976161,60.1282247 C193.798087,59.6495706 193.709051,59.1134861 193.709051,58.5199551 Z M204.379372,58.3189213 L201.989445,54.8008315 L204.266905,54.8008315 L205.546219,56.7393708 L206.811474,54.8008315 L209.018642,54.8008315 L206.628715,58.2758427 L209.313869,62.2247191 L207.036409,62.2247191 L205.518102,59.8841124 L203.999796,62.2247191 L201.764511,62.2247191 L204.379372,58.3189213 Z" id="OurReportingInYourInbox" fill="#000000" fill-rule="nonzero"></path>
                        <path d="M11.0670803,6.12355056 C11.0129292,5.75020038 10.891091,5.40796785 10.701562,5.0968427 C10.5120331,4.78571755 10.2751255,4.5126229 9.99083212,4.27755056 C9.70653872,4.04247823 9.38502126,3.85926283 9.02627007,3.72789888 C8.66751889,3.59653492 8.29185111,3.53085393 7.89925547,3.53085393 C7.1817531,3.53085393 6.57256212,3.6725866 6.07166423,3.95605618 C5.57076635,4.23952576 5.16463903,4.61978413 4.85327007,5.0968427 C4.54190112,5.57390126 4.3151467,6.11663366 4.173,6.72505618 C4.0308533,7.3334787 3.95978102,7.96263345 3.95978102,8.61253933 C3.95978102,9.23478963 4.0308533,9.83974613 4.173,10.427427 C4.3151467,11.0151078 4.54190112,11.5440126 4.85327007,12.0141573 C5.16463903,12.484302 5.57076635,12.8611035 6.07166423,13.144573 C6.57256212,13.4280426 7.1817531,13.5697753 7.89925547,13.5697753 C8.87397568,13.5697753 9.63546441,13.2655686 10.1837445,12.6571461 C10.7320246,12.0487235 11.0670797,11.2467241 11.1889197,10.2511236 L14.2755182,10.2511236 C14.1942916,11.1775852 13.9844591,12.0141536 13.6460146,12.7608539 C13.3075701,13.5075543 12.86083,14.1436228 12.305781,14.6690787 C11.750732,15.1945345 11.1009283,15.5955342 10.3563504,15.8720899 C9.61177243,16.1486456 8.79274899,16.2869213 7.89925547,16.2869213 C6.78915747,16.2869213 5.79076112,16.0898784 4.9040365,15.6957865 C4.01731187,15.3016947 3.26936071,14.7589623 2.66016058,14.067573 C2.05096046,13.3761838 1.58391403,12.5638137 1.2590073,11.6304382 C0.934100565,10.6970627 0.771649635,9.69110652 0.771649635,8.61253933 C0.771649635,7.50631657 0.934100565,6.47961897 1.2590073,5.53241573 C1.58391403,4.58521249 2.05096046,3.75901476 2.66016058,3.05379775 C3.26936071,2.34858074 4.01731187,1.79547766 4.9040365,1.39447191 C5.79076112,0.99346616 6.78915747,0.792966292 7.89925547,0.792966292 C8.69798453,0.792966292 9.45270448,0.910500697 10.163438,1.14557303 C10.8741714,1.38064537 11.5104376,1.7228779 12.0722555,2.1722809 C12.6340734,2.62168389 13.0977354,3.17824387 13.4632555,3.84197753 C13.8287756,4.50571118 14.0589144,5.26622792 14.1536788,6.12355056 L11.0670803,6.12355056 Z M19.1084818,3.57233708 L16.2249489,3.57233708 L16.2249489,1.14557303 L19.1084818,1.14557303 L19.1084818,3.57233708 Z M16.2249489,5.23166292 L19.1084818,5.23166292 L19.1084818,15.9550562 L16.2249489,15.9550562 L16.2249489,5.23166292 Z M25.038,5.23166292 L27.1498832,5.23166292 L27.1498832,7.20211236 L25.038,7.20211236 L25.038,12.5119551 C25.038,13.0097553 25.1192255,13.3416171 25.2816788,13.5075506 C25.4441322,13.673484 25.7690341,13.7564494 26.2563942,13.7564494 C26.4188475,13.7564494 26.5745297,13.7495356 26.7234453,13.7357079 C26.8723608,13.7218801 27.0145054,13.7011387 27.1498832,13.6734831 L27.1498832,15.9550562 C26.9062032,15.9965395 26.6354516,16.0241947 26.3376204,16.0380225 C26.0397893,16.0518503 25.7487313,16.058764 25.464438,16.058764 C25.0176912,16.058764 24.5946419,16.027652 24.1952774,15.965427 C23.7959128,15.9032019 23.4439358,15.7822106 23.1393358,15.6024494 C22.8347357,15.4226882 22.5944437,15.1668781 22.4184526,14.8350112 C22.2424614,14.5031444 22.1544672,14.0675757 22.1544672,13.5282921 L22.1544672,7.20211236 L20.4081022,7.20211236 L20.4081022,5.23166292 L22.1544672,5.23166292 L22.1544672,2.0167191 L25.038,2.0167191 L25.038,5.23166292 Z M33.7089051,17.2825169 C33.3975362,18.1536673 32.9643337,18.7759082 32.4092847,19.1492584 C31.8542357,19.5226086 31.0825937,19.7092809 30.0943358,19.7092809 C29.7965046,19.7092809 29.5020623,19.6989102 29.211,19.6781685 C28.9199377,19.6574269 28.6254954,19.6332286 28.3276642,19.605573 L28.3276642,17.178809 C28.5984198,17.2064646 28.8759402,17.2341197 29.1602336,17.2617753 C29.444527,17.2894308 29.7288161,17.2963446 30.0131095,17.2825169 C30.3921673,17.2410335 30.6730721,17.0889302 30.8558321,16.8262022 C31.0385922,16.5634743 31.1299708,16.2730952 31.1299708,15.9550562 C31.1299708,15.7199838 31.0893581,15.4987426 31.0081314,15.2913258 L27.3326423,5.23166292 L30.3989343,5.23166292 L32.7748029,12.5741798 L32.8154161,12.5741798 L35.1100584,5.23166292 L38.0951241,5.23166292 L33.7089051,17.2825169 Z M45.0196642,1.14557303 L48.2077956,1.14557303 L48.2077956,13.2171685 L55.2744818,13.2171685 L55.2744818,15.9550562 L45.0196642,15.9550562 L45.0196642,1.14557303 Z M59.7216204,3.57233708 L56.8380876,3.57233708 L56.8380876,1.14557303 L59.7216204,1.14557303 L59.7216204,3.57233708 Z M56.8380876,5.23166292 L59.7216204,5.23166292 L59.7216204,15.9550562 L56.8380876,15.9550562 L56.8380876,5.23166292 Z M62.0771825,5.23166292 L64.7982628,5.23166292 L64.7982628,6.68357303 L64.8388759,6.68357303 C65.2179338,6.13046165 65.674827,5.70180676 66.2095693,5.39759551 C66.7443117,5.09338425 67.3568871,4.9412809 68.0473139,4.9412809 C68.7106651,4.9412809 69.3164717,5.07264288 69.8647518,5.33537079 C70.4130319,5.59809869 70.8293124,6.06132252 71.1136058,6.72505618 C71.4249748,6.25491151 71.8480241,5.84008419 72.3827664,5.4805618 C72.9175088,5.1210394 73.5503905,4.9412809 74.2814307,4.9412809 C74.8364797,4.9412809 75.3509076,5.01041878 75.8247299,5.14869663 C76.2985522,5.28697447 76.7046796,5.50821571 77.0431241,5.81242697 C77.3815686,6.11663823 77.6455514,6.51418107 77.8350803,7.00506742 C78.0246092,7.49595377 78.1193723,8.08708269 78.1193723,8.77847191 L78.1193723,15.9550562 L75.2358394,15.9550562 L75.2358394,9.87777528 C75.2358394,9.51825288 75.2223018,9.17947725 75.1952263,8.8614382 C75.1681507,8.54339916 75.093694,8.26684762 74.971854,8.03177528 C74.850014,7.79670294 74.6706411,7.61003065 74.4337299,7.47175281 C74.1968188,7.33347496 73.8753013,7.26433708 73.4691679,7.26433708 C73.0630345,7.26433708 72.7347482,7.34384565 72.4842993,7.50286517 C72.2338503,7.66188469 72.0375555,7.86929835 71.8954088,8.12511236 C71.7532621,8.38092637 71.658499,8.67130549 71.6111168,8.99625843 C71.5637346,9.32121136 71.5400438,9.64961632 71.5400438,9.98148315 L71.5400438,15.9550562 L68.6565109,15.9550562 L68.6565109,9.94 C68.6565109,9.62196096 68.6497422,9.30738358 68.6362044,8.99625843 C68.6226666,8.68513328 68.5651319,8.39821105 68.4635985,8.13548315 C68.3620652,7.87275524 68.1928455,7.66188469 67.9559343,7.50286517 C67.7190231,7.34384565 67.3704305,7.26433708 66.910146,7.26433708 C66.7747682,7.26433708 66.5953953,7.29544913 66.3720219,7.35767416 C66.1486485,7.41989919 65.9320473,7.53743359 65.7222117,7.7102809 C65.5123761,7.88312821 65.3330032,8.13202459 65.1840876,8.45697753 C65.035172,8.78193046 64.9607153,9.20712846 64.9607153,9.73258427 L64.9607153,15.9550562 L62.0771825,15.9550562 L62.0771825,5.23166292 Z M83.3584672,3.57233708 L80.4749343,3.57233708 L80.4749343,1.14557303 L83.3584672,1.14557303 L83.3584672,3.57233708 Z M80.4749343,5.23166292 L83.3584672,5.23166292 L83.3584672,15.9550562 L80.4749343,15.9550562 L80.4749343,5.23166292 Z M89.2879854,5.23166292 L91.3998686,5.23166292 L91.3998686,7.20211236 L89.2879854,7.20211236 L89.2879854,12.5119551 C89.2879854,13.0097553 89.3692109,13.3416171 89.5316642,13.5075506 C89.6941176,13.673484 90.0190195,13.7564494 90.5063796,13.7564494 C90.6688329,13.7564494 90.8245151,13.7495356 90.9734307,13.7357079 C91.1223462,13.7218801 91.2644908,13.7011387 91.3998686,13.6734831 L91.3998686,15.9550562 C91.1561886,15.9965395 90.885437,16.0241947 90.5876058,16.0380225 C90.2897747,16.0518503 89.9987167,16.058764 89.7144234,16.058764 C89.2676766,16.058764 88.8446273,16.027652 88.4452628,15.965427 C88.0458982,15.9032019 87.6939212,15.7822106 87.3893212,15.6024494 C87.0847211,15.4226882 86.8444291,15.1668781 86.668438,14.8350112 C86.4924468,14.5031444 86.4044526,14.0675757 86.4044526,13.5282921 L86.4044526,7.20211236 L84.6580876,7.20211236 L84.6580876,5.23166292 L86.4044526,5.23166292 L86.4044526,2.0167191 L89.2879854,2.0167191 L89.2879854,5.23166292 Z M95.014438,12.4704719 C95.014438,12.788511 95.0787414,13.0616056 95.2073504,13.289764 C95.3359593,13.5179225 95.5017946,13.7045948 95.7048613,13.8497865 C95.907928,13.9949783 96.1414512,14.102142 96.405438,14.1712809 C96.6694247,14.2404198 96.9435606,14.2749888 97.227854,14.2749888 C97.4309207,14.2749888 97.6441376,14.2507905 97.8675109,14.2023933 C98.0908843,14.153996 98.293948,14.0779443 98.476708,13.974236 C98.6594681,13.8705276 98.8117658,13.7322518 98.9336058,13.5594045 C99.0554459,13.3865572 99.116365,13.1687728 99.116365,12.9060449 C99.116365,12.4635558 98.8286914,12.131694 98.2533358,11.9104494 C97.6779801,11.6892049 96.8758786,11.4679637 95.8470073,11.2467191 C95.4273361,11.1499246 95.0178244,11.0358471 94.6184599,10.9044831 C94.2190953,10.7731192 93.8637339,10.6002745 93.552365,10.3859438 C93.240996,10.1716132 92.9905508,9.90197541 92.8010219,9.57702247 C92.611493,9.25206954 92.5167299,8.8545267 92.5167299,8.38438202 C92.5167299,7.6929928 92.6487213,7.12606214 92.912708,6.68357303 C93.1766948,6.24108393 93.5252874,5.89193761 93.9584964,5.6361236 C94.3917053,5.38030958 94.8790581,5.20055108 95.4205693,5.0968427 C95.9620806,4.99313431 96.5171212,4.9412809 97.085708,4.9412809 C97.6542948,4.9412809 98.2059511,4.99659121 98.7406934,5.10721348 C99.2754358,5.21783576 99.7526354,5.40450805 100.172307,5.66723596 C100.591978,5.92996386 100.94057,6.27911018 101.218095,6.71468539 C101.495619,7.1502606 101.661455,7.69990679 101.715606,8.36364045 L98.974219,8.36364045 C98.9336056,7.79670129 98.7237732,7.41298602 98.3447153,7.21248315 C97.9656575,7.01198027 97.5189174,6.91173034 97.0044818,6.91173034 C96.8420284,6.91173034 96.6660399,6.92210102 96.4765109,6.9428427 C96.286982,6.96358437 96.1143779,7.008524 95.9586934,7.07766292 C95.803009,7.14680184 95.6710176,7.24705178 95.5627153,7.37841573 C95.4544131,7.50977968 95.4002628,7.68608129 95.4002628,7.90732584 C95.4002628,8.17005375 95.4950258,8.38438119 95.6845547,8.55031461 C95.8740837,8.71624802 96.1211445,8.8510669 96.4257445,8.95477528 C96.7303446,9.05848366 97.0789372,9.15181981 97.4715328,9.23478652 C97.8641285,9.31775322 98.263487,9.40763247 98.6696204,9.50442697 C99.0892916,9.60122146 99.4988034,9.71875586 99.8981679,9.85703371 C100.297532,9.99531155 100.652894,10.1785269 100.964263,10.4066854 C101.275632,10.6348438 101.526077,10.9183092 101.715606,11.2570899 C101.905135,11.5958706 101.999898,12.0141548 101.999898,12.5119551 C101.999898,13.2171721 101.861138,13.808301 101.583613,14.2853596 C101.306089,14.7624181 100.943958,15.1461334 100.497212,15.4365169 C100.050465,15.7269003 99.5394214,15.9308571 98.9640657,16.0483933 C98.38871,16.1659294 97.8032098,16.2246966 97.2075474,16.2246966 C96.5983473,16.2246966 96.0026939,16.1624725 95.4205693,16.0380225 C94.8384448,15.9135724 94.3206324,15.7061588 93.8671168,15.4157753 C93.4136011,15.1253918 93.0413178,14.7416765 92.7502555,14.264618 C92.4591932,13.7875594 92.3001267,13.1895167 92.2730511,12.4704719 L95.014438,12.4704719 Z" id="CityLimits" fill="#000000" fill-rule="nonzero"></path>
                        <path d="M2.58674453,18.1313258 L8.4350365,18.1313258 L19.6067737,36.4732584 L19.6817518,36.4732584 L19.6817518,18.1313258 L25.1926423,18.1313258 L25.1926423,45.4719101 L19.3068613,45.4719101 L8.17261314,27.1682697 L8.09763504,27.1682697 L8.09763504,45.4719101 L2.58674453,45.4719101 L2.58674453,18.1313258 Z M42.8499854,33.4481798 C42.6000571,32.069656 42.1564411,31.0230148 41.5191241,30.3082247 C40.881807,29.5934346 39.9133496,29.2360449 38.6137226,29.2360449 C37.7639666,29.2360449 37.0579298,29.38283 36.4955912,29.6764045 C35.9332527,29.969979 35.4833885,30.3337506 35.1459854,30.7677303 C34.8085823,31.20171 34.571154,31.6612111 34.4336934,32.1462472 C34.2962329,32.6312833 34.2150074,33.0652565 34.1900146,33.4481798 L42.8499854,33.4481798 Z M34.1900146,36.8944719 C34.2649931,38.6559189 34.702361,39.9323106 35.5021314,40.7236854 C36.3019018,41.5150601 37.4515545,41.9107416 38.9511241,41.9107416 C40.0258156,41.9107416 40.9505363,41.6363174 41.7253139,41.0874607 C42.5000915,40.538604 42.974948,39.9578458 43.1498978,39.3451685 L47.8360292,39.3451685 C47.0862444,41.7192928 45.9365917,43.4168938 44.3870365,44.4380225 C42.8374813,45.4591512 40.9630475,45.9697079 38.7636788,45.9697079 C37.2391165,45.9697079 35.8645317,45.7208115 34.6398832,45.2230112 C33.4152348,44.725211 32.378048,44.0168136 31.528292,43.0977978 C30.6785359,42.1787819 30.0224841,41.081085 29.5601168,39.8046742 C29.0977495,38.5282633 28.8665693,37.1242324 28.8665693,35.5925393 C28.8665693,34.1119027 29.1039976,32.7333996 29.5788613,31.4569888 C30.053725,30.1805779 30.7285212,29.076499 31.6032701,28.1447191 C32.478019,27.2129392 33.5214538,26.4790139 34.7336058,25.9429213 C35.9457579,25.4068288 37.2891021,25.1387865 38.7636788,25.1387865 C40.4132053,25.1387865 41.8502712,25.4642664 43.0749197,26.115236 C44.2995682,26.7662055 45.3055143,27.6405338 46.0927883,28.7382472 C46.8800623,29.8359605 47.4486406,31.0868244 47.7985401,32.4908764 C48.1484397,33.8949284 48.273402,35.3627789 48.1734307,36.8944719 L34.1900146,36.8944719 Z M73.4785401,45.4719101 L68.0051387,45.4719101 L64.556146,32.1845393 L64.4811679,32.1845393 L61.1821314,45.4719101 L55.6712409,45.4719101 L49.5230365,25.6748764 L55.1463942,25.6748764 L58.707854,39.1154157 L58.7828321,39.1154157 L62.0068905,25.6748764 L67.1803796,25.6748764 L70.4794161,39.0771236 L70.5543942,39.0771236 L74.115854,25.6748764 L79.5892555,25.6748764 L73.4785401,45.4719101 Z M85.9623942,39.0388315 C85.9623942,39.6259805 86.0811083,40.1301552 86.3185401,40.5513708 C86.555972,40.9725864 86.8621295,41.3172121 87.2370219,41.5852584 C87.6119143,41.8533047 88.0430341,42.0511454 88.5303942,42.1787865 C89.0177543,42.3064276 89.5238514,42.3702472 90.0487007,42.3702472 C90.4235931,42.3702472 90.8172242,42.3255735 91.2296058,42.2362247 C91.6419875,42.146876 92.0168742,42.0064729 92.3542774,41.8150112 C92.6916805,41.6235496 92.9728456,41.3682713 93.197781,41.0491685 C93.4227165,40.7300658 93.5351825,40.3280024 93.5351825,39.8429663 C93.5351825,39.0260633 93.0040929,38.4133953 91.9418978,38.0049438 C90.8797027,37.5964923 89.3989,37.188047 87.4994453,36.7795955 C86.7246677,36.600898 85.968646,36.3902933 85.2313577,36.1477753 C84.4940693,35.9052572 83.8380175,35.5861593 83.2631825,35.1904719 C82.6883475,34.7947845 82.2259872,34.2969918 81.8760876,33.6970787 C81.526188,33.0971655 81.3512409,32.3632403 81.3512409,31.4952809 C81.3512409,30.21887 81.5949173,29.1722288 82.0822774,28.3553258 C82.5696375,27.5384229 83.2131931,26.8938451 84.0129635,26.421573 C84.8127339,25.949301 85.7124622,25.6174392 86.7121752,25.4259775 C87.7118882,25.2345159 88.7365787,25.1387865 89.7862774,25.1387865 C90.8359761,25.1387865 91.8544184,25.2408979 92.841635,25.4451236 C93.8288517,25.6493493 94.7098355,25.9939751 95.4846131,26.4790112 C96.2593907,26.9640474 96.9029463,27.6086252 97.4152993,28.412764 C97.9276522,29.2169029 98.2338097,30.2316343 98.333781,31.4569888 L93.2727591,31.4569888 C93.1977806,30.4103318 92.8103977,29.7019344 92.1105985,29.3317753 C91.4107994,28.9616161 90.5860485,28.7765393 89.6363212,28.7765393 C89.3364073,28.7765393 89.0115054,28.7956852 88.6616058,28.8339775 C88.3117063,28.8722699 87.9930525,28.9552353 87.705635,29.0828764 C87.4182175,29.2105175 87.1745411,29.3955943 86.9745985,29.6381124 C86.7746559,29.8806304 86.6746861,30.2061103 86.6746861,30.6145618 C86.6746861,31.0995979 86.8496333,31.4952794 87.1995328,31.801618 C87.5494324,32.1079566 88.0055446,32.356853 88.5678832,32.5483146 C89.1302218,32.7397762 89.7737774,32.9120891 90.4985693,33.0652584 C91.2233613,33.2184277 91.9606386,33.3843587 92.7104234,33.5630562 C93.485201,33.7417537 94.2412226,33.9587403 94.9785109,34.2140225 C95.7157993,34.4693046 96.3718511,34.8075485 96.9466861,35.228764 C97.5215211,35.6499796 97.9838815,36.1733002 98.333781,36.7987416 C98.6836806,37.4241829 98.8586277,38.1963999 98.8586277,39.1154157 C98.8586277,40.4173548 98.6024551,41.5086698 98.0901022,42.3893933 C97.5777493,43.2701168 96.9092012,43.9785142 96.084438,44.5146067 C95.2596747,45.0506993 94.3162097,45.4272349 93.2540146,45.6442247 C92.1918195,45.8612146 91.110896,45.9697079 90.0112117,45.9697079 C88.8865345,45.9697079 87.7868667,45.8548326 86.7121752,45.6250787 C85.6374837,45.3953247 84.6815224,45.0124072 83.8442628,44.4763146 C83.0070031,43.940222 82.3197107,43.2318246 81.782365,42.3511011 C81.2450192,41.4703776 80.9513579,40.3662988 80.9013723,39.0388315 L85.9623942,39.0388315 Z M102.120175,18.1313258 L107.44362,18.1313258 L107.44362,45.4719101 L102.120175,45.4719101 L102.120175,18.1313258 Z M124.688584,33.4481798 C124.438656,32.069656 123.99504,31.0230148 123.357723,30.3082247 C122.720406,29.5934346 121.751948,29.2360449 120.452321,29.2360449 C119.602565,29.2360449 118.896528,29.38283 118.33419,29.6764045 C117.771851,29.969979 117.321987,30.3337506 116.984584,30.7677303 C116.647181,31.20171 116.409753,31.6612111 116.272292,32.1462472 C116.134831,32.6312833 116.053606,33.0652565 116.028613,33.4481798 L124.688584,33.4481798 Z M116.028613,36.8944719 C116.103592,38.6559189 116.54096,39.9323106 117.34073,40.7236854 C118.1405,41.5150601 119.290153,41.9107416 120.789723,41.9107416 C121.864414,41.9107416 122.789135,41.6363174 123.563912,41.0874607 C124.33869,40.538604 124.813547,39.9578458 124.988496,39.3451685 L129.674628,39.3451685 C128.924843,41.7192928 127.77519,43.4168938 126.225635,44.4380225 C124.67608,45.4591512 122.801646,45.9697079 120.602277,45.9697079 C119.077715,45.9697079 117.70313,45.7208115 116.478482,45.2230112 C115.253833,44.725211 114.216647,44.0168136 113.366891,43.0977978 C112.517134,42.1787819 111.861083,41.081085 111.398715,39.8046742 C110.936348,38.5282633 110.705168,37.1242324 110.705168,35.5925393 C110.705168,34.1119027 110.942596,32.7333996 111.41746,31.4569888 C111.892324,30.1805779 112.56712,29.076499 113.441869,28.1447191 C114.316618,27.2129392 115.360052,26.4790139 116.572204,25.9429213 C117.784356,25.4068288 119.127701,25.1387865 120.602277,25.1387865 C122.251804,25.1387865 123.68887,25.4642664 124.913518,26.115236 C126.138167,26.7662055 127.144113,27.6405338 127.931387,28.7382472 C128.718661,29.8359605 129.287239,31.0868244 129.637139,32.4908764 C129.987038,33.8949284 130.112,35.3627789 130.012029,36.8944719 L116.028613,36.8944719 Z M139.909139,25.6748764 L143.808,25.6748764 L143.808,29.3126292 L139.909139,29.3126292 L139.909139,39.1154157 C139.909139,40.0344316 140.059093,40.6470996 140.359007,40.9534382 C140.658921,41.2597768 141.25874,41.4129438 142.158482,41.4129438 C142.458396,41.4129438 142.745809,41.4001799 143.02073,41.3746517 C143.295651,41.3491235 143.558072,41.3108317 143.808,41.2597753 L143.808,45.4719101 C143.358129,45.5484948 142.85828,45.5995504 142.308438,45.6250787 C141.758596,45.6506069 141.221258,45.6633708 140.696409,45.6633708 C139.871646,45.6633708 139.090631,45.6059332 138.353343,45.4910562 C137.616055,45.3761792 136.966251,45.1528106 136.403912,44.8209438 C135.841574,44.489077 135.397958,44.0168121 135.073051,43.4041348 C134.748144,42.7914576 134.585693,41.9873308 134.585693,40.9917303 L134.585693,29.3126292 L131.361635,29.3126292 L131.361635,25.6748764 L134.585693,25.6748764 L134.585693,19.7395955 L139.909139,19.7395955 L139.909139,25.6748764 Z M153.105285,25.6748764 L157.004146,25.6748764 L157.004146,29.3126292 L153.105285,29.3126292 L153.105285,39.1154157 C153.105285,40.0344316 153.255239,40.6470996 153.555153,40.9534382 C153.855067,41.2597768 154.454886,41.4129438 155.354628,41.4129438 C155.654542,41.4129438 155.941955,41.4001799 156.216876,41.3746517 C156.491797,41.3491235 156.754218,41.3108317 157.004146,41.2597753 L157.004146,45.4719101 C156.554275,45.5484948 156.054426,45.5995504 155.504584,45.6250787 C154.954742,45.6506069 154.417404,45.6633708 153.892555,45.6633708 C153.067791,45.6633708 152.286777,45.6059332 151.549489,45.4910562 C150.812201,45.3761792 150.162397,45.1528106 149.600058,44.8209438 C149.03772,44.489077 148.594104,44.0168121 148.269197,43.4041348 C147.94429,42.7914576 147.781839,41.9873308 147.781839,40.9917303 L147.781839,29.3126292 L144.557781,29.3126292 L144.557781,25.6748764 L147.781839,25.6748764 L147.781839,19.7395955 L153.105285,19.7395955 L153.105285,25.6748764 Z M172.599591,33.4481798 C172.349663,32.069656 171.906047,31.0230148 171.26873,30.3082247 C170.631413,29.5934346 169.662955,29.2360449 168.363328,29.2360449 C167.513572,29.2360449 166.807536,29.38283 166.245197,29.6764045 C165.682859,29.969979 165.232994,30.3337506 164.895591,30.7677303 C164.558188,31.20171 164.32076,31.6612111 164.183299,32.1462472 C164.045839,32.6312833 163.964613,33.0652565 163.93962,33.4481798 L172.599591,33.4481798 Z M163.93962,36.8944719 C164.014599,38.6559189 164.451967,39.9323106 165.251737,40.7236854 C166.051508,41.5150601 167.20116,41.9107416 168.70073,41.9107416 C169.775421,41.9107416 170.700142,41.6363174 171.47492,41.0874607 C172.249697,40.538604 172.724554,39.9578458 172.899504,39.3451685 L177.585635,39.3451685 C176.83585,41.7192928 175.686198,43.4168938 174.136642,44.4380225 C172.587087,45.4591512 170.712653,45.9697079 168.513285,45.9697079 C166.988722,45.9697079 165.614138,45.7208115 164.389489,45.2230112 C163.164841,44.725211 162.127654,44.0168136 161.277898,43.0977978 C160.428142,42.1787819 159.77209,41.081085 159.309723,39.8046742 C158.847355,38.5282633 158.616175,37.1242324 158.616175,35.5925393 C158.616175,34.1119027 158.853603,32.7333996 159.328467,31.4569888 C159.803331,30.1805779 160.478127,29.076499 161.352876,28.1447191 C162.227625,27.2129392 163.27106,26.4790139 164.483212,25.9429213 C165.695364,25.4068288 167.038708,25.1387865 168.513285,25.1387865 C170.162811,25.1387865 171.599877,25.4642664 172.824526,26.115236 C174.049174,26.7662055 175.05512,27.6405338 175.842394,28.7382472 C176.629668,29.8359605 177.198246,31.0868244 177.548146,32.4908764 C177.898046,33.8949284 178.023008,35.3627789 177.923036,36.8944719 L163.93962,36.8944719 Z M181.072117,25.6748764 L186.133139,25.6748764 L186.133139,29.3509213 L186.208117,29.3509213 C186.458045,28.7382441 186.795443,28.1702498 187.220321,27.6469213 C187.645199,27.1235929 188.132552,26.6768558 188.682394,26.3066966 C189.232236,25.9365375 189.819559,25.6493493 190.44438,25.4451236 C191.0692,25.2408979 191.719004,25.1387865 192.39381,25.1387865 C192.74371,25.1387865 193.131093,25.2026061 193.555971,25.3302472 L193.555971,30.384809 C193.306043,30.3337526 193.006133,30.2890788 192.656234,30.2507865 C192.306334,30.2124942 191.968936,30.1933483 191.644029,30.1933483 C190.669309,30.1933483 189.844558,30.3592792 189.169752,30.6911461 C188.494946,31.0230129 187.95136,31.476132 187.538978,32.0505169 C187.126596,32.6249017 186.832935,33.2950074 186.657985,34.0608539 C186.483036,34.8267005 186.395562,35.6563551 186.395562,36.5498427 L186.395562,45.4719101 L181.072117,45.4719101 L181.072117,25.6748764 Z M199.779153,39.0388315 C199.779153,39.6259805 199.897867,40.1301552 200.135299,40.5513708 C200.372731,40.9725864 200.678889,41.3172121 201.053781,41.5852584 C201.428673,41.8533047 201.859793,42.0511454 202.347153,42.1787865 C202.834513,42.3064276 203.340611,42.3702472 203.86546,42.3702472 C204.240352,42.3702472 204.633983,42.3255735 205.046365,42.2362247 C205.458747,42.146876 205.833633,42.0064729 206.171036,41.8150112 C206.50844,41.6235496 206.789605,41.3682713 207.01454,41.0491685 C207.239476,40.7300658 207.351942,40.3280024 207.351942,39.8429663 C207.351942,39.0260633 206.820852,38.4133953 205.758657,38.0049438 C204.696462,37.5964923 203.215659,37.188047 201.316204,36.7795955 C200.541427,36.600898 199.785405,36.3902933 199.048117,36.1477753 C198.310828,35.9052572 197.654777,35.5861593 197.079942,35.1904719 C196.505107,34.7947845 196.042746,34.2969918 195.692847,33.6970787 C195.342947,33.0971655 195.168,32.3632403 195.168,31.4952809 C195.168,30.21887 195.411676,29.1722288 195.899036,28.3553258 C196.386397,27.5384229 197.029952,26.8938451 197.829723,26.421573 C198.629493,25.949301 199.529221,25.6174392 200.528934,25.4259775 C201.528647,25.2345159 202.553338,25.1387865 203.603036,25.1387865 C204.652735,25.1387865 205.671178,25.2408979 206.658394,25.4451236 C207.645611,25.6493493 208.526595,25.9939751 209.301372,26.4790112 C210.07615,26.9640474 210.719705,27.6086252 211.232058,28.412764 C211.744411,29.2169029 212.050569,30.2316343 212.15054,31.4569888 L207.089518,31.4569888 C207.01454,30.4103318 206.627157,29.7019344 205.927358,29.3317753 C205.227559,28.9616161 204.402808,28.7765393 203.45308,28.7765393 C203.153166,28.7765393 202.828265,28.7956852 202.478365,28.8339775 C202.128465,28.8722699 201.809812,28.9552353 201.522394,29.0828764 C201.234977,29.2105175 200.9913,29.3955943 200.791358,29.6381124 C200.591415,29.8806304 200.491445,30.2061103 200.491445,30.6145618 C200.491445,31.0995979 200.666392,31.4952794 201.016292,31.801618 C201.366192,32.1079566 201.822304,32.356853 202.384642,32.5483146 C202.946981,32.7397762 203.590537,32.9120891 204.315328,33.0652584 C205.04012,33.2184277 205.777398,33.3843587 206.527182,33.5630562 C207.30196,33.7417537 208.057982,33.9587403 208.79527,34.2140225 C209.532558,34.4693046 210.18861,34.8075485 210.763445,35.228764 C211.33828,35.6499796 211.800641,36.1733002 212.15054,36.7987416 C212.50044,37.4241829 212.675387,38.1963999 212.675387,39.1154157 C212.675387,40.4173548 212.419214,41.5086698 211.906861,42.3893933 C211.394508,43.2701168 210.72596,43.9785142 209.901197,44.5146067 C209.076434,45.0506993 208.132969,45.4272349 207.070774,45.6442247 C206.008579,45.8612146 204.927655,45.9697079 203.827971,45.9697079 C202.703294,45.9697079 201.603626,45.8548326 200.528934,45.6250787 C199.454243,45.3953247 198.498282,45.0124072 197.661022,44.4763146 C196.823762,43.940222 196.13647,43.2318246 195.599124,42.3511011 C195.061778,41.4703776 194.768117,40.3662988 194.718131,39.0388315 L199.779153,39.0388315 Z" id="Newsletters" fill="#FF0000" fill-rule="nonzero"></path>
                    </g>
                </g>
                <g id="SIGN-UP-button-45" transform="translate(560.000000, 20.000000)">
                    <g>
                        <g id="Rectangle">
                            <use fill="black" fill-opacity="1" filter="url(#filter-4)" xlink:href="#path-3"></use>
                            <use fill="#FF0000" fill-rule="evenodd" xlink:href="#path-3"></use>
                        </g>
                        <path d="M31.25,25.874 C31.25,26.3660025 31.3339992,26.7859983 31.502,27.134 C31.6700008,27.4820017 31.9039985,27.7669989 32.204,27.989 C32.5040015,28.2110011 32.848998,28.3729995 33.239,28.475 C33.6290019,28.5770005 34.0519977,28.628 34.508,28.628 C35.0000025,28.628 35.4199983,28.5710006 35.768,28.457 C36.1160017,28.3429994 36.3979989,28.1960009 36.614,28.016 C36.8300011,27.8359991 36.9859995,27.6290012 37.082,27.395 C37.1780005,27.1609988 37.226,26.9240012 37.226,26.684 C37.226,26.1919975 37.1150011,25.8290012 36.893,25.595 C36.6709989,25.3609988 36.4280013,25.1960005 36.164,25.1 C35.7079977,24.9319992 35.177003,24.7730008 34.571,24.623 C33.964997,24.4729993 33.2180044,24.2780012 32.33,24.038 C31.7779972,23.8939993 31.3190018,23.7050012 30.953,23.471 C30.5869982,23.2369988 30.2960011,22.9760014 30.08,22.688 C29.8639989,22.3999986 29.7110005,22.0940016 29.621,21.77 C29.5309995,21.4459984 29.486,21.1160017 29.486,20.78 C29.486,20.1319968 29.6209986,19.5710024 29.891,19.097 C30.1610013,18.6229976 30.5179978,18.2300016 30.962,17.918 C31.4060022,17.6059984 31.9099972,17.3750007 32.474,17.225 C33.0380028,17.0749992 33.6079971,17 34.184,17 C34.8560034,17 35.488997,17.0869991 36.083,17.261 C36.677003,17.4350009 37.1989977,17.6959983 37.649,18.044 C38.0990022,18.3920017 38.4559987,18.8209975 38.72,19.331 C38.9840013,19.8410025 39.116,20.4319966 39.116,21.104 L36.866,21.104 C36.8059997,20.2759959 36.5240025,19.6910017 36.02,19.349 C35.5159975,19.0069983 34.8740039,18.836 34.094,18.836 C33.8299987,18.836 33.5600014,18.8629997 33.284,18.917 C33.0079986,18.9710003 32.7560011,19.0609994 32.528,19.187 C32.2999989,19.3130006 32.1110008,19.4839989 31.961,19.7 C31.8109992,19.9160011 31.736,20.1859984 31.736,20.51 C31.736,20.9660023 31.8769986,21.3229987 32.159,21.581 C32.4410014,21.8390013 32.8099977,22.0339993 33.266,22.166 C33.3140002,22.1780001 33.5029983,22.2289996 33.833,22.319 C34.1630016,22.4090005 34.531998,22.5079995 34.94,22.616 C35.348002,22.7240005 35.7469981,22.8289995 36.137,22.931 C36.5270019,23.0330005 36.8059992,23.1079998 36.974,23.156 C37.3940021,23.2880007 37.7599984,23.4679989 38.072,23.696 C38.3840016,23.9240011 38.644999,24.1849985 38.855,24.479 C39.065001,24.7730015 39.2209995,25.0879983 39.323,25.424 C39.4250005,25.7600017 39.476,26.0959983 39.476,26.432 C39.476,27.1520036 39.3290015,27.7669975 39.035,28.277 C38.7409985,28.7870026 38.3540024,29.2039984 37.874,29.528 C37.3939976,29.8520016 36.8480031,30.0889993 36.236,30.239 C35.6239969,30.3890008 35.0000032,30.464 34.364,30.464 C33.6319963,30.464 32.9420032,30.3740009 32.294,30.194 C31.6459968,30.0139991 31.0820024,29.7380019 30.602,29.366 C30.1219976,28.9939981 29.7380014,28.5170029 29.45,27.935 C29.1619986,27.3529971 29.0120001,26.666004 29,25.874 L31.25,25.874 Z M42.338,17.306 L44.588,17.306 L44.588,30.158 L42.338,30.158 L42.338,17.306 Z M59.456,30.158 L58.016,30.158 L57.674,28.646 C57.073997,29.3300034 56.474003,29.8039987 55.874,30.068 C55.273997,30.3320013 54.5840039,30.464 53.804,30.464 C52.8439952,30.464 51.9830038,30.2870018 51.221,29.933 C50.4589961,29.5789982 49.8140026,29.0960031 49.286,28.484 C48.7579973,27.8719969 48.3530014,27.1580041 48.071,26.342 C47.7889985,25.5259959 47.648,24.6560046 47.648,23.732 C47.648,22.8199954 47.7889985,21.9560041 48.071,21.14 C48.3530014,20.3239959 48.7579973,19.6100031 49.286,18.998 C49.8140026,18.3859969 50.4589961,17.9000018 51.221,17.54 C51.9830038,17.1799982 52.8439952,17 53.804,17 C54.5000034,17 55.1629968,17.0929991 55.793,17.279 C56.4230031,17.4650009 56.9839975,17.7409982 57.476,18.107 C57.9680024,18.4730018 58.3759983,18.9319972 58.7,19.484 C59.0240016,20.0360028 59.2279995,20.6719964 59.312,21.392 L57.116,21.392 C57.0559997,20.9719979 56.9270009,20.6030016 56.729,20.285 C56.530999,19.9669984 56.2820015,19.7000011 55.982,19.484 C55.6819985,19.2679989 55.3460018,19.1060005 54.974,18.998 C54.6019981,18.8899995 54.212002,18.836 53.804,18.836 C53.1199965,18.836 52.5290024,18.9739986 52.031,19.25 C51.5329975,19.5260014 51.1280015,19.8949977 50.816,20.357 C50.5039984,20.8190023 50.2730007,21.3439971 50.123,21.932 C49.9729992,22.5200029 49.898,23.1199969 49.898,23.732 C49.898,24.3440031 49.9729992,24.9439971 50.123,25.532 C50.2730007,26.1200029 50.5039984,26.6449977 50.816,27.107 C51.1280015,27.5690023 51.5329975,27.9379986 52.031,28.214 C52.5290024,28.4900014 53.1199965,28.628 53.804,28.628 C54.3800028,28.6400001 54.8899977,28.5650008 55.334,28.403 C55.7780022,28.2409992 56.1529984,28.0070015 56.459,27.701 C56.7650015,27.3949985 56.9959992,27.0200022 57.152,26.576 C57.3080007,26.1319978 57.3919999,25.6400027 57.404,25.1 L53.984,25.1 L53.984,23.39 L59.456,23.39 L59.456,30.158 Z M62.7139999,17.306 L65.0899999,17.306 L70.9579999,26.774 L70.9939999,26.774 L70.9939999,17.306 L73.1359999,17.306 L73.1359999,30.158 L70.7599999,30.158 L64.9099999,20.708 L64.8559999,20.708 L64.8559999,30.158 L62.7139999,30.158 L62.7139999,17.306 Z M82.4599999,17.306 L84.7099999,17.306 L84.7099999,24.794 C84.7099999,25.2260022 84.7309997,25.6639978 84.7729999,26.108 C84.8150001,26.5520022 84.9349989,26.9509982 85.1329999,27.305 C85.3310009,27.6590018 85.6309979,27.9499989 86.0329999,28.178 C86.4350019,28.4060011 87.0019962,28.52 87.7339999,28.52 C88.4660035,28.52 89.0329979,28.4060011 89.4349999,28.178 C89.8370019,27.9499989 90.1369989,27.6590018 90.3349999,27.305 C90.5330009,26.9509982 90.6529997,26.5520022 90.6949999,26.108 C90.7370001,25.6639978 90.7579999,25.2260022 90.7579999,24.794 L90.7579999,17.306 L93.0079999,17.306 L93.0079999,25.532 C93.0079999,26.3600041 92.8820011,27.0799969 92.6299999,27.692 C92.3779986,28.3040031 92.0210022,28.8169979 91.5589999,29.231 C91.0969976,29.6450021 90.5420031,29.953999 89.8939999,30.158 C89.2459966,30.362001 88.5260038,30.464 87.7339999,30.464 C86.9419959,30.464 86.2220031,30.362001 85.5739999,30.158 C84.9259966,29.953999 84.3710022,29.6450021 83.9089999,29.231 C83.4469976,28.8169979 83.0900011,28.3040031 82.8379999,27.692 C82.5859986,27.0799969 82.4599999,26.3600041 82.4599999,25.532 L82.4599999,17.306 Z M96.4999999,17.306 L102.17,17.306 C103.082004,17.306 103.825997,17.4379987 104.402,17.702 C104.978003,17.9660013 105.421998,18.295998 105.734,18.692 C106.046001,19.088002 106.258999,19.5199977 106.373,19.988 C106.487,20.4560023 106.544,20.887998 106.544,21.284 C106.544,21.680002 106.487,22.1089977 106.373,22.571 C106.258999,23.0330023 106.046001,23.461998 105.734,23.858 C105.421998,24.254002 104.978003,24.5809987 104.402,24.839 C103.825997,25.0970013 103.082004,25.226 102.17,25.226 L98.7499999,25.226 L98.7499999,30.158 L96.4999999,30.158 L96.4999999,17.306 Z M98.7499999,23.39 L102.044,23.39 C102.296001,23.39 102.553999,23.3540004 102.818,23.282 C103.082001,23.2099996 103.324999,23.0930008 103.547,22.931 C103.769001,22.7689992 103.948999,22.5530014 104.087,22.283 C104.225001,22.0129987 104.294,21.674002 104.294,21.266 C104.294,20.8459979 104.234,20.4980014 104.114,20.222 C103.993999,19.9459986 103.832001,19.7270008 103.628,19.565 C103.423999,19.4029992 103.190001,19.2920003 102.926,19.232 C102.661999,19.1719997 102.380001,19.142 102.08,19.142 L98.7499999,19.142 L98.7499999,23.39 Z" id="SIGNUP" fill="#FFFFFF" fill-rule="nonzero"></path>
                    </g>
                </g>
            </g>
        </g>
    </g>
</svg>