<?xml version="1.0" encoding="UTF-8"?>
<svg width="1165px" height="100px" viewBox="0 0 1165 100" version="1.1" xmlns="http://www.w3.org/2000/svg" xmlns:xlink="http://www.w3.org/1999/xlink">
    <!-- Generator: Sketch 54.1 (76490) - https://sketchapp.com -->
    <title>1165x100 Collapsed</title>
    <desc>Created with Sketch.</desc>
    <defs>
        <rect id="path-1" x="0" y="0" width="1165" height="100"></rect>
        <polygon id="path-3" points="0 0 135 0 135 45 0 45"></polygon>
        <filter x="-5.2%" y="-11.1%" width="110.4%" height="131.1%" filterUnits="objectBoundingBox" id="filter-4">
            <feOffset dx="0" dy="2" in="SourceAlpha" result="shadowOffsetOuter1"></feOffset>
            <feGaussianBlur stdDeviation="2" in="shadowOffsetOuter1" result="shadowBlurOuter1"></feGaussianBlur>
            <feColorMatrix values="0 0 0 0 0   0 0 0 0 0   0 0 0 0 0  0 0 0 0.272180944 0" type="matrix" in="shadowBlurOuter1"></feColorMatrix>
        </filter>
    </defs>
    <g id="Page-1" stroke="none" stroke-width="1" fill="none" fill-rule="evenodd">
        <g id="Direction-#1-grey-Revisions-2-fonts-Copy" transform="translate(-91.000000, -987.000000)">
            <g id="1165x100-Collapsed" transform="translate(91.000000, 987.000000)">
                <rect id="Rectangle-Copy-3" fill="#EBEBEB" x="0" y="0" width="1165" height="100"></rect>
                <g id="skyline-Background">
                    <mask id="mask-2" fill="white">
                        <use xlink:href="#path-1"></use>
                    </mask>
                    <g id="Rectangle-Copy-5"></g>
                    <g id="Skyline" mask="url(#mask-2)">
                        <g transform="translate(-176.000000, -24.000000)">
                            <g>
                                <path d="M258.11672,75.1973846 L258.11672,53.3546749 L261.886452,53.3546749 L261.886452,50.1247645 L271.579355,50.1247645 L271.579355,53.0857848 L275.079301,53.0857848 L275.079301,78.0833674 L278.882835,78.0833674 L282.08,78.0833674 L282.08,75.9640471 L299.580941,75.9640471 L299.580941,70.042814 L302.004166,70.042814 L302.004166,28.5921637 L305.504516,28.5921637 L305.504516,23.7472982 L308.19672,23.7472982 L308.19672,17.5567714 L310.619946,17.5567714 L310.619946,23.4780044 L313.043172,23.4780044 L313.043172,28.8614575 L317.081881,28.8614575 L317.081881,65.0829587 L325.577662,65.0829587 L325.577662,62.8173273 L326.684303,62.8173273 L326.684303,61.0641602 L326.684303,58.2590928 L329.680329,58.2590928 L329.680329,62.8712709 L330.382101,62.8712709 L330.382101,64.0310584 L331.596707,64.0310584 L331.596707,64.659361 L340.775779,64.659361 L340.775779,74.8876794 L341.664435,74.8876794 L341.664435,65.730282 L347.776075,65.730282 L347.776075,53.0857848 L354.507392,53.0857848 L354.507392,64.659361 L356.930618,64.659361 L356.930618,65.730282 L366.085161,65.730282 L366.085161,39.0893722 L381.432258,21.8630493 L384.393844,21.8630493 L384.393844,70.5809978 L389.509677,70.5809978 L389.509677,64.9286547 L405.933494,64.9286547 L405.933494,70.5809978 L410.779946,70.5809978 L410.779946,20.7866817 L416.165161,20.7866817 L416.165161,16.48 L427.204166,16.48 L427.204166,21.0555717 L432.588978,21.0555717 L432.588978,67.3510875 L442.281881,67.3510875 L442.281881,71.9266592 L451.705806,71.9266592 L451.705806,50.3940583 L454.129032,48.5098094 L466.783521,48.5098094 L469.206747,50.9322421 L469.206747,76.5022309 L475.938065,76.5022309 L475.938065,91.3061211 L482.4,91.3061211 L482.4,131.68 L398.4,131.68 L398.4,132 L96.8,132 L96.8,104.380875 L96.8,99.4989783 L98.0415966,99.4989783 L98.0415966,88.6023702 L99.391158,88.6023702 L99.391158,81.9403351 L100.713728,81.9403351 L100.713728,80.8075194 L101.469483,80.8075194 L101.469483,78.0294238 L109.647825,78.0294238 L109.647825,80.7535758 L110.889422,80.7535758 L110.889422,82.2370249 L111.807124,82.2370249 L111.807124,92.9448304 L117.448291,92.9448304 L122.441668,92.9448304 L122.441668,69.4793625 L123.926186,69.4793625 L123.926186,67.9689416 L124.654949,67.9689416 L124.654949,66.8900695 L129.054519,63.6534532 L133.184178,67.1328157 L133.184178,68.1307724 L133.724002,68.1307724 L133.724002,86.7682877 L141.956327,86.7682877 L141.956327,83.1540662 L155.236012,83.1540662 L155.236012,25.3265223 L158.286021,25.3265223 L158.286021,23.1957499 L162.199749,23.1957499 L162.253732,23.1957499 L162.6586,0 L163.09046,23.1957499 L167.058171,23.1957499 L167.058171,25.6771557 L170.486057,25.6771557 L170.486057,65.3796485 L180.87768,65.3796485 L180.87768,89.9509604 L188.057347,89.9509604 L188.057347,88.1438496 L190.459567,88.1438496 L190.459567,92.7560278 L195.021085,92.7560278 L195.021085,69.7490805 L202.524647,69.7490805 L202.524647,78.6228034 L204.279076,78.6228034 L204.279076,48.3604414 L217.96363,48.3604414 L217.96363,91.4344095 L219.205226,91.4344095 L219.205226,80.8884348 L223.415858,80.8884348 L223.415858,91.1377197 L224.252586,91.1377197 L224.252586,74.0106253 L227.248613,74.0106253 L227.248613,62.8712709 L243.389368,62.8712709 L243.389368,89.7082141 L243.389368,97.0715161 L248.24779,97.0715161 L248.24779,90.3555374 L248.976553,90.3555374 L248.976553,87.415611 L249.948237,87.415611 L249.948237,77.4630159 L251.972579,77.4630159 L251.972579,67.0788721 L256.291176,67.0788721 L256.291176,75.1973846 L258.11672,75.1973846 Z" id="Combined-Shape" fill="#B6B6B6"></path>
                                <path d="M275.2,94.7905064 L275.2,93.0408136 L275.2,77.1872542 L276.519588,77.1872542 L276.519588,74.7389831 L280.313402,66.0696949 L280.313402,62.2568136 L281.179381,57.28 L282.086598,62.2568136 L282.086598,66.0696949 L285.839175,74.7389831 L285.839175,77.1872542 L287.2,77.1872542 L287.2,93.0408136 L287.2,95.7338171 L287.388114,95.7338171 L287.388114,87.4375208 L291.563927,87.4375208 L291.563927,85.6234618 L292.96391,85.6234618 L292.96391,87.3649584 L293.422525,87.3649584 L293.422525,86.5909599 L296.367318,86.5909599 L296.367318,88.2598942 L297.646613,88.2598942 L297.646613,87.3649584 L301.508636,87.3649584 L301.508636,90.1465155 L302.039664,90.1465155 L302.039664,100.474558 L302.860344,100.474558 L302.860344,105.650673 L304.139639,105.650673 L304.139639,111.963598 L305.177558,111.963598 L305.177558,98.7814361 L306.553404,98.7814361 L306.553404,92.7587604 L307.494772,92.7587604 L307.494772,91.0414512 L309.594747,91.0414512 L309.594747,100.281058 L310.294739,100.281058 L310.294739,98.2976871 L311.839548,98.2976871 L311.839548,96.4836281 L313.505045,96.4836281 L313.505045,89.0338927 L314.470551,89.0338927 L314.470551,88.356644 L315.170543,88.356644 L315.170543,87.2198337 L316.305012,85.5750869 L316.305012,83.8335903 L317.24638,83.8335903 L317.24638,85.6476493 L318.308437,87.3649584 L318.308437,88.4292063 L319.080841,88.4292063 L319.080841,89.2757672 L319.780833,89.2757672 L319.780833,96.7738776 L321.373917,96.7738776 L321.373917,80.0119728 L327.939357,80.0119728 L327.939357,91.5977627 L332.984124,91.5977627 L332.984124,66.08 L351.304596,66.08 L351.304596,67.7489342 L351.8839,67.7489342 L351.8839,89.0338927 L351.8839,99.3377475 L356.011437,99.3377475 L356.011437,89.7353288 L358.714853,89.7353288 L358.714853,87.7035828 L363.349281,87.7035828 L363.349281,89.7837037 C363.349281,89.7837037 368.418186,89.9530159 368.418186,89.7837037 C368.418186,89.6143915 368.418186,76.0452305 368.418186,76.0452305 L367.549231,76.0452305 L367.549231,74.4004837 L388.66967,74.4004837 L388.66967,76.1661678 L387.559338,76.1661678 L387.559338,101.224369 L390.431718,101.224369 L390.431718,104.005926 L391.373086,104.005926 L391.373086,84.4382766 L395.814413,84.4382766 L395.814413,82.2372184 L403.031568,82.2372184 L403.031568,84.7527135 L407.400482,84.7527135 L407.400482,106.90842 L416.910714,106.90842 L416.910714,108.981174 L423.237991,108.981174 L423.237991,74.6878975 L432.323921,74.6878975 L432.323921,70.3404055 L436.883053,70.3404055 L436.883053,67.68 L444.966621,67.68 L444.966621,70.1781857 L448.458722,70.1781857 L448.458722,79.2624973 L457.156641,79.2624973 L457.156641,76.6669797 L463.009144,76.6669797 L463.009144,79.4571612 L467.503608,79.4571612 L467.503608,119.97968 L468.50597,119.97968 L468.50597,119.071249 L472.51542,119.071249 L472.51542,120.174344 L480.404982,120.174344 L480.404982,122.283202 L497.380474,122.283202 L497.380474,114.91842 L525.187947,114.91842 L525.187947,117.157054 L545.720209,117.157054 L545.720209,119.687684 L562.889707,119.687684 L562.889707,123.451185 L596,123.451185 L596,128.48 L448,128.48 L448,130.055813 L448,130.08 L157.6,130.08 L157.6,115.978715 L157.6,110.367226 L164.093026,110.367226 L164.093026,95.8547543 L179.492843,95.8547543 L179.492843,105.312048 L182.70315,105.312048 L184.875538,105.312048 L184.875538,80.931096 L186.516898,80.931096 L186.516898,79.4798488 L187.409991,79.4798488 L187.603092,79.4798488 C188.085845,77.5690401 189.823755,76.1419803 191.899593,76.1419803 C193.97543,76.1419803 195.713341,77.5690401 196.196093,79.4798488 L197.402976,79.4798488 L197.402976,81.0520333 L198.633996,81.0520333 L198.633996,95.3951927 L202.27878,95.3951927 L202.27878,107.319607 L202.906359,107.319607 L202.906359,95.1049433 L203.847727,95.1049433 L203.847727,83.6642782 L205.078747,83.6642782 L205.078747,82.5516553 L205.778738,82.5516553 L205.778738,81.2455329 L207.589062,79.4556614 L212.82693,79.4556614 L214.395877,81.5841572 L214.395877,82.69678 L215.19242,82.69678 L215.19242,83.8577778 L215.988962,83.8577778 L215.988962,95.4919426 L216.93033,95.4919426 L216.93033,103.335923 L217.968249,103.335923 L217.968249,91.0172638 L218.813066,91.0172638 L218.813066,89.2515797 L219.657884,89.2515797 L219.657884,88.2115193 L220.502701,88.2115193 L220.502701,87.0988964 L223.013016,87.0988964 L223.013016,88.1389569 L223.785421,88.1389569 L223.785421,89.4208919 L224.50955,89.4208919 L224.50955,91.186576 L225.112991,91.186576 L225.112991,92.2725293 L226.516288,92.2725293 L226.516288,94.9329349 L228.715018,94.9329349 L228.715018,93.6351761 L229.038361,93.6351761 L229.038361,92.2725293 L229.94372,92.2725293 L229.94372,90.3907791 L230.278447,90.3907791 L230.278447,89.6869539 L230.525737,89.6869539 L230.525737,88.7036926 L232.045448,88.7036926 L232.045448,89.6869539 L234.912875,89.6869539 L234.912875,91.6945125 L237.061125,91.6945125 L237.061125,85.2122751 L238.461109,85.2122751 L242.878298,86.8570219 L242.878298,88.5743311 L245.074823,88.5743311 L245.074823,108.166168 C245.074823,108.166168 247.319624,108.33548 247.319624,108.166168 C247.319624,108.021043 247.319624,96.8706274 247.319624,96.8706274 L248.550644,96.8706274 L248.550644,95.9031293 L248.792021,95.9031293 L248.792021,95.3226304 L249.129948,95.3226304 L249.129948,94.8630688 L250.360968,94.8630688 L250.360968,95.3951927 L250.771307,95.3951927 L250.771307,96.0240665 L251.109234,96.0240665 L251.109234,93.9923205 L253.909201,93.9923205 L253.909201,109.727385 L254.416092,109.727385 L254.416092,100.256871 L256.781581,100.256871 L256.781581,87.4375208 L259.074657,87.4375208 L259.074657,82.8902797 L260.064301,82.8902797 L260.064301,80.8827211 L262.502203,80.8827211 L262.502203,82.8660922 L263.178057,82.8660922 L263.178057,83.5433409 L263.902186,83.5433409 L263.902186,86.808647 L264.747004,86.808647 L264.747004,88.356644 L268.729715,88.356644 L268.729715,90.5093273 L269.671083,90.5093273 L269.671083,96.8222525 L270.443488,96.8222525 L270.443488,97.9832502 L271.408993,97.9832502 L271.408993,99.0857631 L271.867609,99.0857631 L271.867609,94.7905064 L275.2,94.7905064 Z" id="Combined-Shape" fill="#4D4D4D" fill-rule="nonzero"></path>
                                <path d="M348.441655,111.990204 L348.441655,105.377959 L353.930956,105.377959 L353.930956,113.603719 L356.835615,113.603719 L356.835615,113.457551 L357.788302,113.457551 L357.788302,113.312653 L359.308919,113.312653 L359.308919,111.995873 L359.716976,111.995873 L359.716976,110.961633 L365.671897,110.961633 L365.671897,104.05551 L383.623395,104.05551 L383.623395,108.757551 L385.531526,108.757551 L385.531526,108.90449 L389.240514,108.90449 L389.240514,105.377959 L390.872468,105.377959 L390.872468,103.614694 L403.631384,103.614694 L403.631384,104.349388 L404.245364,104.349388 L404.245364,102.88 L409.586305,102.88 L409.586305,104.349388 L411.663338,104.349388 L411.663338,113.018776 L417.746077,113.018776 L417.746077,115.309205 L421.846489,115.309205 L421.846489,118.161633 L423.828816,118.161633 L423.828816,115.957551 L427.389444,115.957551 L427.389444,118.161633 L430.016315,118.161633 L430.016315,111.703538 L430.187732,111.703538 L430.187732,105.818776 L435.231954,105.818776 L435.231954,103.320816 L437.754066,103.320816 L437.754066,105.818776 L442.798288,105.818776 L442.798288,111.990204 L446.952354,111.990204 L446.952354,115.810612 L448.347862,115.810612 L448.347862,115.503901 L451.112143,115.503901 L451.112143,113.603719 L454.435615,113.603719 L454.435615,113.457551 L456.908919,113.457551 L456.908919,111.995873 L463.271897,111.995873 L463.271897,104.05551 L481.223395,104.05551 L481.223395,108.90449 L490.807732,108.90449 L490.807732,107.903175 L492.553594,107.903175 L492.553594,106.88 L495.317875,106.88 L495.317875,108.049342 L496.918248,108.049342 L496.918248,113.018776 L499.471612,113.018776 L499.471612,104.349388 L501.845364,104.349388 L501.845364,102.88 L507.186305,102.88 L507.186305,104.349388 L509.263338,104.349388 L509.263338,109.03102 L509.762054,109.03102 L509.762054,113.018776 L515.346077,113.018776 L515.346077,113.839184 L525.611412,113.839184 L525.611412,115.863673 L527.273039,115.863673 L527.273039,119.659592 L527.616315,119.659592 L527.616315,111.703538 L534.308784,111.703538 L534.308784,111.941224 L536.987161,111.941224 L536.987161,119.659592 L540.182596,119.659592 L540.182596,109.03102 L541.588588,109.03102 L541.588588,107.512653 L552.580884,107.512653 L552.580884,109.03102 L553.986876,109.03102 L553.986876,113.206531 L557.693581,113.206531 L557.693581,113.603719 L560.787686,113.603719 L560.787686,115.503901 L563.406478,115.503901 L563.406478,117.508571 L564.723538,117.508571 L564.723538,120.039184 L575.4602,120.039184 L575.4602,109.410612 L579.805991,109.410612 L579.805991,107.259592 L581.978887,107.259592 L581.978887,109.410612 L586.324679,109.410612 L586.324679,114.724898 L589.903566,114.724898 L589.903566,118.014694 L602.63281,118.014694 L602.63281,109.03102 L603.963481,109.03102 L603.963481,107.892245 L619.429387,107.892245 L619.429387,112.067755 L630.038231,112.067755 L630.038231,115.610612 L631.263909,115.610612 L631.263909,111.941224 L634.587161,111.941224 L634.587161,115.610612 L635.150927,115.610612 L635.150927,108.145306 L637.196006,108.145306 L637.196006,106.88 L641.797432,106.88 L641.797432,107.512653 L650.180884,107.512653 L650.180884,109.03102 L651.586876,109.03102 L651.586876,113.206531 L655.293581,113.206531 L655.293581,117.508571 L662.323538,117.508571 L662.323538,120.039184 L673.0602,120.039184 L673.0602,109.410612 L677.405991,109.410612 L677.405991,107.259592 L679.578887,107.259592 L679.578887,109.410612 L683.924679,109.410612 L683.924679,113.603719 L693.687857,113.603719 L693.687857,115.503901 L696.452138,115.503901 L696.452138,118.014694 L699.716486,118.014694 L699.716486,117.213857 L701.563481,117.213857 L701.563481,107.892245 L717.029387,107.892245 L717.029387,112.067755 L718.193522,112.067755 L718.193522,111.329424 L720.812314,111.329424 L720.812314,108.938873 L732.750927,108.938873 L732.750927,108.145306 L734.796006,108.145306 L734.796006,106.88 L739.397432,106.88 L739.397432,108.145306 L741.186876,108.145306 L741.186876,115.610612 L745.481752,115.610612 L745.481752,108.049342 L747.082125,108.049342 L747.082125,106.88 L747.291216,106.88 L747.291216,106.548322 L753.983685,106.548322 L753.983685,118.141224 L754.735521,118.141224 L754.735521,122.949388 L757.266318,122.949388 L757.266318,120.765942 L758.116486,120.765942 L758.116486,120.181271 L759.803224,120.181271 L759.803224,116.294414 L770.796746,116.294414 L770.796746,113.896055 L772.688096,113.896055 L772.688096,111.995873 L773.042675,111.995873 L773.042675,109.858315 L778.862214,109.858315 L778.862214,111.995873 L785.491081,111.995873 L785.491081,113.457551 L787.964385,113.457551 L787.964385,113.603719 L791.287857,113.603719 L791.287857,115.503901 L794.052138,115.503901 L794.052138,118.86576 L796.466318,118.86576 L796.466318,117.949411 L797.316486,117.949411 L797.316486,117.213857 L805.691216,117.213857 L805.691216,111.703538 L808.390858,111.703538 L808.390858,111.084484 L809.996746,111.084484 L809.996746,109.30665 L811.888096,109.30665 L811.888096,106.916099 L824.691081,106.916099 L824.691081,108.754984 L827.164385,108.754984 L827.164385,108.938873 L830.487857,108.938873 L830.487857,111.329424 L833.252138,111.329424 L833.252138,114.334558 L837.262214,114.334558 L837.262214,115.55886 L840.549324,115.55886 L840.549324,114.455529 L843.081752,114.455529 L843.081752,108.049342 L844.682125,108.049342 L844.682125,106.88 L844.891216,106.88 L844.891216,106.548322 L851.583685,106.548322 L851.583685,106.916099 L860.911904,106.916099 L860.911904,109.30665 L862.803254,109.30665 L862.803254,111.084484 L864.409142,111.084484 L864.409142,116.294414 L868.396746,116.294414 L868.396746,113.896055 L870.288096,113.896055 L870.288096,111.995873 L870.642675,111.995873 L870.642675,109.858315 L876.462214,109.858315 L876.462214,111.995873 L883.091081,111.995873 L883.091081,113.457551 L885.564385,113.457551 L887.308919,113.457551 L887.308919,111.995873 L900.111904,111.995873 L900.111904,113.896055 L902.003254,113.896055 L902.003254,116.294414 L905.990858,116.294414 L905.990858,111.084484 L907.596746,111.084484 L907.596746,109.30665 L909.488096,109.30665 L909.488096,106.916099 L918.816315,106.916099 L918.816315,106.548322 L925.508784,106.548322 L925.508784,106.88 L925.717875,106.88 L925.717875,108.049342 L927.318248,108.049342 L927.318248,114.455529 L929.850676,114.455529 L929.850676,115.55886 L933.137786,115.55886 L933.137786,114.334558 L937.147862,114.334558 L937.147862,111.329424 L939.912143,111.329424 L939.912143,108.938873 L943.235615,108.938873 L943.235615,108.754984 L945.708919,108.754984 L945.708919,106.916099 L958.511904,106.916099 L958.511904,109.30665 L960.403254,109.30665 L960.403254,111.084484 L962.009142,111.084484 L962.009142,111.703538 L964.708784,111.703538 L964.708784,117.213857 L973.083514,117.213857 L973.083514,117.949411 L973.933682,117.949411 L973.933682,118.86576 L976.347862,118.86576 L976.347862,115.503901 L979.112143,115.503901 L979.112143,113.603719 L982.435615,113.603719 L982.435615,113.457551 L984.908919,113.457551 L984.908919,111.995873 L991.537786,111.995873 L991.537786,109.858315 L997.357325,109.858315 L997.357325,111.995873 L997.711904,111.995873 L997.711904,113.896055 L999.603254,113.896055 L999.603254,116.294414 L1010.59678,116.294414 L1010.59678,120.181271 L1012.28351,120.181271 L1012.28351,120.765942 L1013.13368,120.765942 L1013.13368,123.09829 L1016.41631,123.09829 L1016.41631,106.548322 L1023.10878,106.548322 L1023.10878,106.88 L1023.31787,106.88 L1023.31787,108.049342 L1024.91825,108.049342 L1024.91825,119.604408 L1027.76442,119.604408 L1027.76442,122.519956 L1030.73779,122.519956 L1030.73779,114.334558 L1034.74786,114.334558 L1034.74786,111.329424 L1037.51214,111.329424 L1037.51214,108.938873 L1049.58769,108.938873 L1049.58769,111.329424 L1052.20648,111.329424 L1052.20648,121.259404 L1054.53429,121.259404 L1054.53429,124.201621 L1055.61631,124.201621 L1055.61631,111.703538 L1062.30878,111.703538 L1062.30878,117.213857 L1070.68351,117.213857 L1070.68351,121.075516 L1073.94786,121.075516 L1073.94786,115.503901 L1076.71214,115.503901 L1076.71214,113.603719 L1088.78769,113.603719 L1088.78769,115.503901 L1091.40648,115.503901 L1091.40648,123.282178 L1092.3613,123.282178 L1092.3613,123.396963 L1093.73429,123.396963 L1093.73429,125.735647 L1096.64406,125.735647 L1096.64406,120.181271 L1109.88351,120.181271 L1109.88351,123.250795 L1121.3771,123.250795 L1121.3771,127.197326 L1127.7786,127.197326 L1127.7786,125.004808 L1131.5613,125.004808 L1131.5613,127.197326 L1136.36242,127.197326 L1136.36242,129.828346 L1141.6,129.828346 L1141.6,131.68 L1138.78771,131.68 L975.2,131.68 L936,131.68 L765.6,131.68 L586.4,131.68 L404,131.68 L307.2,131.68 L304.387708,131.68 L97.6,131.68 L0,131.68 L0,127.781997 L7.5654004,127.781997 L7.5654004,124.663945 L13.1908575,124.663945 L13.1908575,115.309205 L17.8464886,115.309205 L17.8464886,124.663945 L23.0837825,124.663945 L23.0837825,120.181271 L24.1295536,120.181271 L24.1295536,119.102552 L30.7783766,119.102552 L30.7783766,120.181271 L31.6676022,120.181271 L31.6676022,124.566305 L33.7044407,124.566305 L33.7044407,117.988754 L37.0506755,117.988754 L37.0506755,124.858641 L38.0690948,124.858641 L38.0690948,122.666123 L41.1243527,122.666123 L41.1243527,118.86576 L45.6344952,118.86576 L45.6344952,124.127802 L50.4356147,124.127802 L50.4356147,113.457551 L52.9089187,113.457551 L52.9089187,111.995873 L65.711904,111.995873 L65.711904,113.896055 L67.6032541,113.896055 L67.6032541,124.712473 L70.2220465,124.712473 L70.2220465,122.081452 L72.6953505,122.081452 L72.6953505,124.712473 L75.3141429,124.712473 L75.3141429,120.765942 L81.1336817,120.765942 L81.1336817,126.027983 L86.807732,126.027983 L86.807732,107.903175 L88.5535936,107.903175 L88.5535936,106.88 L91.3178745,106.88 L91.3178745,108.049342 L92.9182477,108.049342 L92.9182477,122.519956 L98.7377865,122.519956 L98.7377865,114.334558 L104.557325,114.334558 L104.557325,119.450432 L110.790858,119.450432 L110.790858,115.309205 L115.446489,115.309205 L115.446489,119.450432 L117.796776,119.450432 L117.796776,124.663945 L120.683782,124.663945 L120.683782,120.181271 L121.729554,120.181271 L121.729554,119.102552 L123.616315,119.102552 L123.616315,111.703538 L130.308784,111.703538 L130.308784,122.081452 L131.304441,122.081452 L131.304441,117.988754 L134.650676,117.988754 L134.650676,120.181271 L135.329554,120.181271 L135.329554,119.102552 L138.724353,119.102552 L138.724353,118.86576 L141.947862,118.86576 L141.947862,115.503901 L144.712143,115.503901 L144.712143,113.603719 L148.035615,113.603719 L148.035615,113.457551 L150.508919,113.457551 L150.508919,111.995873 L163.311904,111.995873 L163.311904,113.457551 L164.108919,113.457551 L164.108919,111.995873 L176.911904,111.995873 L176.911904,113.896055 L178.803254,113.896055 L178.803254,123.250795 L181.422047,123.250795 L181.422047,122.081452 L183.89535,122.081452 L183.89535,123.250795 L184.407732,123.250795 L184.407732,107.903175 L186.153594,107.903175 L186.153594,106.88 L188.917875,106.88 L188.917875,108.049342 L190.518248,108.049342 L190.518248,120.765942 L192.333682,120.765942 L192.333682,122.519956 L196.337786,122.519956 L196.337786,114.334558 L198.007732,114.334558 L198.007732,107.903175 L199.753594,107.903175 L199.753594,106.88 L202.517875,106.88 L202.517875,108.049342 L204.118248,108.049342 L204.118248,119.450432 L209.937786,119.450432 L209.937786,114.334558 L215.757325,114.334558 L215.757325,119.450432 L221.216315,119.450432 L221.216315,111.703538 L227.908784,111.703538 L227.908784,119.450432 L228.996776,119.450432 L228.996776,122.081452 L231.883782,122.081452 L231.883782,120.181271 L232.929554,120.181271 L232.929554,119.102552 L234.816315,119.102552 L234.816315,111.703538 L241.508784,111.703538 L241.508784,115.503901 L242.312143,115.503901 L242.312143,113.603719 L250.841655,113.603719 L250.841655,105.377959 L256.330956,105.377959 L256.330956,113.603719 L259.235615,113.603719 L259.235615,113.457551 L260.188302,113.457551 L260.188302,113.312653 L261.708919,113.312653 L261.708919,111.995873 L262.116976,111.995873 L262.116976,110.961633 L274.727532,110.961633 L274.727532,113.312653 L276.656205,113.312653 L276.656205,117.720816 L284.07418,117.720816 L284.07418,108.757551 L287.931526,108.757551 L287.931526,117.720816 L291.640514,117.720816 L291.640514,105.377959 L293.272468,105.377959 L293.272468,103.614694 L306.031384,103.614694 L306.031384,105.377959 L307.663338,105.377959 L307.663338,110.226939 L311.965763,110.226939 L311.965763,114.334558 L313.357325,114.334558 L313.357325,115.222857 L320.125535,115.222857 L320.125535,115.309205 L324.246489,115.309205 L324.246489,118.161633 L332.416315,118.161633 L332.416315,111.703538 L332.587732,111.703538 L332.587732,105.818776 L337.631954,105.818776 L337.631954,103.320816 L340.154066,103.320816 L340.154066,105.818776 L345.198288,105.818776 L345.198288,111.990204 L348.441655,111.990204 Z" id="Combined-Shape" fill="#7D7D7D"></path>
                                <path d="M607.662197,122.081452 L607.662197,117.720816 L614.041655,117.720816 L614.041655,105.377959 L619.530956,105.377959 L619.530956,113.603719 L623.388302,113.603719 L623.388302,113.312653 L625.316976,113.312653 L625.316976,110.961633 L637.927532,110.961633 L637.927532,113.312653 L639.856205,113.312653 L639.856205,117.720816 L647.27418,117.720816 L647.27418,108.757551 L651.131526,108.757551 L651.131526,117.720816 L654.840514,117.720816 L654.840514,105.377959 L656.472468,105.377959 L656.472468,103.614694 L669.231384,103.614694 L669.231384,105.377959 L670.863338,105.377959 L670.863338,110.226939 L675.165763,110.226939 L675.165763,115.222857 L683.325535,115.222857 L683.325535,115.309205 L687.446489,115.309205 L687.446489,118.161633 L695.787732,118.161633 L695.787732,105.818776 L700.831954,105.818776 L700.831954,103.320816 L703.354066,103.320816 L703.354066,105.818776 L708.398288,105.818776 L708.398288,111.990204 L712.552354,111.990204 L712.552354,115.810612 L720.035615,115.810612 L720.035615,113.457551 L722.508919,113.457551 L722.508919,111.995873 L728.871897,111.995873 L728.871897,104.05551 L746.823395,104.05551 L746.823395,108.90449 L756.407732,108.90449 L756.407732,107.903175 L758.153594,107.903175 L758.153594,106.88 L760.917875,106.88 L760.917875,108.049342 L762.518248,108.049342 L762.518248,113.018776 L765.071612,113.018776 L765.071612,104.349388 L767.445364,104.349388 L767.445364,102.88 L772.786305,102.88 L772.786305,104.349388 L774.863338,104.349388 L774.863338,113.018776 L780.946077,113.018776 L780.946077,118.308571 L787.028816,118.308571 L787.028816,115.957551 L790.589444,115.957551 L790.589444,121.541224 L793.216315,121.541224 L793.216315,111.703538 L799.908784,111.703538 L799.908784,122.081452 L804.564415,122.081452 L804.564415,125.150976 L809.220046,125.150976 L809.220046,122.519956 L811.547862,122.519956 L811.547862,115.503901 L814.312143,115.503901 L814.312143,113.603719 L826.387686,113.603719 L826.387686,115.503901 L829.006478,115.503901 L829.006478,123.396963 L831.334294,123.396963 L831.334294,125.735647 L834.244063,125.735647 L834.244063,120.181271 L847.483514,120.181271 L847.483514,123.250795 L858.977103,123.250795 L858.977103,127.197326 L862.736662,127.197326 L862.736662,119.659592 L868.23281,119.659592 L868.23281,109.03102 L872.962054,109.03102 L872.962054,119.659592 L876.285307,119.659592 L876.285307,115.863673 L877.946933,115.863673 L877.946933,113.839184 L888.811412,113.839184 L888.811412,115.863673 L890.473039,115.863673 L890.473039,119.659592 L896.863909,119.659592 L896.863909,111.941224 L900.187161,111.941224 L900.187161,119.659592 L903.382596,119.659592 L903.382596,109.03102 L904.788588,109.03102 L904.788588,107.512653 L915.780884,107.512653 L915.780884,109.03102 L917.186876,109.03102 L917.186876,113.206531 L920.893581,113.206531 L920.893581,117.508571 L927.923538,117.508571 L927.923538,120.039184 L938.6602,120.039184 L938.6602,109.410612 L943.005991,109.410612 L943.005991,107.259592 L945.178887,107.259592 L945.178887,109.410612 L949.524679,109.410612 L949.524679,114.724898 L953.103566,114.724898 L953.103566,118.014694 L967.163481,118.014694 L967.163481,107.892245 L982.629387,107.892245 L982.629387,112.067755 L993.238231,112.067755 L993.238231,115.610612 L998.350927,115.610612 L998.350927,108.145306 L1000.39601,108.145306 L1000.39601,106.88 L1004.99743,106.88 L1004.99743,108.145306 L1006.78688,108.145306 L1006.78688,115.610612 L1012.02739,115.610612 L1012.02739,120.165714 L1017.2679,120.165714 L1017.2679,118.141224 L1020.33552,118.141224 L1020.33552,122.949388 L1023.71649,122.949388 L1023.71649,120.181271 L1036.95594,120.181271 L1036.95594,125.735647 L1039.86571,125.735647 L1039.86571,123.396963 L1041.2387,123.396963 L1041.2387,123.282178 L1042.19352,123.282178 L1042.19352,115.503901 L1044.81231,115.503901 L1044.81231,113.603719 L1056.88786,113.603719 L1056.88786,115.503901 L1059.65214,115.503901 L1059.65214,121.075516 L1062.91649,121.075516 L1062.91649,117.213857 L1071.29122,117.213857 L1071.29122,111.703538 L1077.98369,111.703538 L1077.98369,124.201621 L1079.06571,124.201621 L1079.06571,121.259404 L1081.39352,121.259404 L1083.80322,121.107119 L1083.80322,119.450432 L1097.04267,119.450432 L1097.04267,114.334558 L1102.86221,114.334558 L1102.86221,122.519956 L1105.83558,122.519956 L1105.83558,119.604408 L1110.49122,119.604408 L1117.18369,123.09829 L1120.46632,123.09829 L1120.46632,120.765942 L1123.00322,120.765942 L1123.00322,116.294414 L1133.99675,116.294414 L1133.99675,113.896055 L1135.8881,113.896055 L1135.8881,111.995873 L1140.97812,111.995873 L1152.24641,101.76722 L1153.99227,101.76722 L1153.99227,124.127802 L1155.9655,124.127802 L1155.9655,118.86576 L1159.66632,118.86576 L1159.66632,117.949411 L1165.48586,117.949411 L1165.48586,117.988754 L1167.89556,117.988754 L1167.89556,122.914401 L1168.10465,122.914401 L1168.10465,119.604408 L1170.57795,119.604408 L1170.57795,120.181271 L1170.82162,120.181271 L1170.82162,119.102552 L1173.19675,119.102552 L1173.19675,109.30665 L1175.0881,109.30665 L1175.0881,106.916099 L1187.89108,106.916099 L1187.89108,108.754984 L1190.36439,108.754984 L1190.36439,122.178847 L1195.1655,122.178847 L1195.1655,115.55886 L1199.67565,115.55886 L1199.67565,120.339962 L1202.73091,120.339962 L1202.73091,123.09829 L1203.74932,123.09829 L1203.74932,114.455529 L1207.09556,114.455529 L1207.09556,122.730513 L1209.1324,122.730513 L1209.1324,117.213857 L1210.02162,117.213857 L1210.02162,115.856759 L1210.79086,115.856759 L1210.79086,115.309205 L1215.44649,115.309205 L1215.44649,115.856759 L1216.67045,115.856759 L1216.67045,117.213857 L1217.71622,117.213857 L1217.71622,122.85335 L1220.68378,122.85335 L1220.68378,120.181271 L1221.72955,120.181271 L1221.72955,119.102552 L1222.95351,119.102552 L1222.95351,111.084484 L1227.60914,111.084484 L1227.60914,119.102552 L1228.37838,119.102552 L1228.37838,120.181271 L1229.2676,120.181271 L1229.2676,122.85335 L1231.30444,122.85335 L1231.30444,117.988754 L1234.65068,117.988754 L1234.65068,124.858641 L1235.66909,124.858641 L1235.66909,122.666123 L1238.72435,122.666123 L1238.72435,118.86576 L1243.2345,118.86576 L1243.2345,124.127802 L1248.03561,124.127802 L1248.03561,113.457551 L1265.20325,124.712473 L1267.82205,124.712473 L1267.82205,122.081452 L1270.29535,122.081452 L1270.29535,124.712473 L1272.91414,124.712473 L1272.91414,120.765942 L1278.73368,120.765942 L1278.73368,126.027983 L1284.40773,126.027983 L1290.51825,122.519956 L1296.33779,122.519956 L1302.15733,119.450432 L1315.39678,119.450432 L1315.39678,124.858641 L1321.21631,124.858641 L1321.21631,111.703538 L1327.90878,111.703538 L1327.90878,122.081452 L1332.56442,122.081452 L1332.56442,125.150976 L1337.22005,125.150976 L1337.22005,122.519956 L1339.54786,122.519956 L1357.00648,121.796963 L1359.33429,123.396963 L1359.33429,125.735647 L1362.24406,125.735647 L1362.24406,120.181271 L1375.48351,120.181271 L1375.48351,123.250795 L1386.9771,123.250795 L1386.9771,127.197326 L1393.3786,127.197326 L1393.3786,125.004808 L1397.1613,125.004808 L1397.1613,127.197326 L1401.96242,127.197326 L1401.96242,129.828346 L1407.2,129.828346 L1407.2,131.68 L1404.38771,131.68 L1240.8,131.68 L1201.6,131.68 L1031.2,131.68 L852,131.68 L669.6,131.68 L572.8,131.68 L569.987708,131.68 L363.2,131.68 L363.2,127.781997 L370.7654,127.781997 L370.7654,124.663945 L376.390858,124.663945 L376.390858,115.309205 L381.046489,115.309205 L381.046489,124.663945 L386.283782,124.663945 L386.283782,120.181271 L387.329554,120.181271 L387.329554,119.102552 L393.978377,119.102552 L393.978377,120.181271 L394.867602,120.181271 L394.867602,124.566305 L396.904441,124.566305 L396.904441,117.988754 L400.250676,117.988754 L400.250676,124.858641 L401.269095,124.858641 L401.269095,122.666123 L404.324353,122.666123 L404.324353,118.86576 L408.834495,118.86576 L408.834495,124.127802 L413.635615,124.127802 L413.635615,113.457551 L416.108919,113.457551 L416.108919,111.995873 L428.911904,111.995873 L428.911904,113.896055 L430.803254,113.896055 L430.803254,124.712473 L433.422047,124.712473 L433.422047,122.081452 L435.89535,122.081452 L435.89535,124.712473 L438.514143,124.712473 L438.514143,120.765942 L444.333682,120.765942 L444.333682,126.027983 L450.007732,126.027983 L450.007732,107.903175 L451.753594,107.903175 L451.753594,106.88 L454.517875,106.88 L454.517875,108.049342 L456.118248,108.049342 L456.118248,122.519956 L461.937786,122.519956 L461.937786,114.334558 L467.757325,114.334558 L467.757325,119.450432 L480.996776,119.450432 L480.996776,124.858641 L481.9654,124.858641 L481.9654,124.663945 L486.816315,124.663945 L486.816315,111.703538 L493.508784,111.703538 L493.508784,122.081452 L497.483782,122.081452 L497.483782,120.181271 L498.529554,120.181271 L498.529554,119.102552 L505.147862,119.102552 L505.147862,115.503901 L507.912143,115.503901 L507.912143,113.603719 L519.987686,113.603719 L519.987686,115.503901 L522.606478,115.503901 L522.606478,123.396963 L524.835615,123.396963 L524.835615,113.457551 L527.308919,113.457551 L527.308919,111.995873 L540.111904,111.995873 L540.111904,113.896055 L542.003254,113.896055 L542.003254,123.250795 L544.622047,123.250795 L544.622047,122.081452 L547.09535,122.081452 L547.09535,123.250795 L549.714143,123.250795 L549.714143,120.765942 L555.533682,120.765942 L555.533682,126.027983 L558.978595,126.027983 L558.978595,125.004808 L561.207732,125.004808 L561.207732,107.903175 L562.953594,107.903175 L562.953594,106.88 L565.717875,106.88 L565.717875,108.049342 L567.318248,108.049342 L567.318248,122.519956 L573.137786,122.519956 L573.137786,114.334558 L578.957325,114.334558 L578.957325,119.450432 L592.196776,119.450432 L592.196776,124.858641 L598.016315,124.858641 L598.016315,111.703538 L604.708784,111.703538 L604.708784,122.081452 L607.662197,122.081452 Z" id="Combined-Shape-Copy-3" fill="#7D7D7D"></path>
                            </g>
                        </g>
                    </g>
                </g>
                <g id="titlearea" transform="translate(374.000000, 13.000000)">
                    <g transform="translate(0.000000, 4.247191)">
                        <path d="M17.6864088,43.4596854 C17.6864088,43.7873275 17.7206675,44.1058636 17.7891861,44.4153034 C17.8577047,44.7247431 17.9670065,45.0032347 18.1170949,45.2507865 C18.2671832,45.4983383 18.4629477,45.6967408 18.7043942,45.846 C18.9458406,45.9952592 19.2394873,46.0698876 19.5853431,46.0698876 C19.9311988,46.0698876 20.2248455,45.9952592 20.466292,45.846 C20.7077384,45.6967408 20.9035029,45.4983383 21.0535912,45.2507865 C21.2036796,45.0032347 21.3129814,44.7247431 21.3815,44.4153034 C21.4500186,44.1058636 21.4842774,43.7873275 21.4842774,43.4596854 C21.4842774,43.1174814 21.4500186,42.7862038 21.3815,42.4658427 C21.3129814,42.1454815 21.2036796,41.8597091 21.0535912,41.6085169 C20.9035029,41.3573246 20.7077384,41.1571019 20.466292,41.0078427 C20.2248455,40.8585835 19.9311988,40.7839551 19.5853431,40.7839551 C19.2394873,40.7839551 18.9458406,40.8585835 18.7043942,41.0078427 C18.4629477,41.1571019 18.2671832,41.3573246 18.1170949,41.6085169 C17.9670065,41.8597091 17.8577047,42.1454815 17.7891861,42.4658427 C17.7206675,42.7862038 17.6864088,43.1174814 17.6864088,43.4596854 Z M16.1496423,43.4596854 C16.1496423,42.8772106 16.2279481,42.3366092 16.384562,41.8378652 C16.541176,41.3391211 16.7663051,40.9040917 17.0599562,40.532764 C17.3536073,40.1614363 17.7141402,39.8702033 18.1415657,39.6590562 C18.5689912,39.4479091 19.0502455,39.3423371 19.5853431,39.3423371 C20.1269662,39.3423371 20.6098519,39.4479091 21.0340146,39.6590562 C21.4581773,39.8702033 21.8170788,40.1614363 22.1107299,40.532764 C22.404381,40.9040917 22.6295102,41.3391211 22.7861241,41.8378652 C22.942738,42.3366092 23.0210438,42.8772106 23.0210438,43.4596854 C23.0210438,44.0275983 22.942738,44.5572784 22.7861241,45.0487416 C22.6295102,45.5402047 22.404381,45.9679532 22.1107299,46.332 C21.8170788,46.6960468 21.4581773,46.9818192 21.0340146,47.1893258 C20.6098519,47.3968325 20.1269662,47.5005843 19.5853431,47.5005843 C19.0502455,47.5005843 18.5689912,47.3968325 18.1415657,47.1893258 C17.7141402,46.9818192 17.3536073,46.6960468 17.0599562,46.332 C16.7663051,45.9679532 16.541176,45.5402047 16.384562,45.0487416 C16.2279481,44.5572784 16.1496423,44.0275983 16.1496423,43.4596854 Z M28.6689051,47.3258427 L27.3474818,47.3258427 L27.3474818,46.5395056 L27.3181168,46.5395056 C27.1419261,46.8671477 26.9135342,47.1037746 26.6329343,47.2493933 C26.3523344,47.395012 26.0652131,47.4678202 25.771562,47.4678202 C25.399604,47.4678202 25.0945377,47.413214 24.856354,47.304 C24.6181703,47.194786 24.4305627,47.0400684 24.2935255,46.8398427 C24.1564884,46.639617 24.0602375,46.3957093 24.0047701,46.1081124 C23.9493026,45.8205154 23.9215693,45.5019793 23.9215693,45.1524944 L23.9215693,41.6795056 L25.3115109,41.6795056 L25.3115109,44.8685393 C25.3115109,45.3345192 25.3767658,45.6821786 25.5072774,45.9115281 C25.637789,46.1408776 25.8694436,46.2555506 26.2022482,46.2555506 C26.5807318,46.2555506 26.8548021,46.1299563 27.0244672,45.878764 C27.1941322,45.6275718 27.2789635,45.2143849 27.2789635,44.639191 L27.2789635,41.6795056 L28.6689051,41.6795056 L28.6689051,47.3258427 Z M29.7260438,41.6795056 L31.0474672,41.6795056 L31.0474672,42.7279551 L31.0670438,42.7279551 C31.1322996,42.5532126 31.2203936,42.3912142 31.3313285,42.2419551 C31.4422633,42.0926959 31.5695102,41.9652814 31.713073,41.8597079 C31.8566358,41.7541343 32.0099846,41.672225 32.1731241,41.6139775 C32.3362636,41.55573 32.5059261,41.5266067 32.6821168,41.5266067 C32.7734749,41.5266067 32.8746199,41.5448088 32.9855547,41.5812135 L32.9855547,43.0228315 C32.9202989,43.0082696 32.8419932,42.9955281 32.750635,42.9846067 C32.6592769,42.9736853 32.5711829,42.9682247 32.4863504,42.9682247 C32.2318527,42.9682247 32.0165118,43.0155501 31.8403212,43.1102022 C31.6641305,43.2048544 31.5222013,43.3340891 31.4145292,43.4979101 C31.3068571,43.6617312 31.2301827,43.8528528 31.1845036,44.0712809 C31.1388246,44.289709 31.1159854,44.5263358 31.1159854,44.7811685 L31.1159854,47.3258427 L29.7260438,47.3258427 L29.7260438,41.6795056 Z M37.9384453,43.0555955 L39.6220365,43.0555955 C39.9744178,43.0555955 40.2386998,42.9682256 40.4148905,42.7934831 C40.5910812,42.6187407 40.6791752,42.3347885 40.6791752,41.941618 C40.6791752,41.5630093 40.5910812,41.2881582 40.4148905,41.1170562 C40.2386998,40.9459542 39.9744178,40.8604045 39.6220365,40.8604045 L37.9384453,40.8604045 L37.9384453,43.0555955 Z M36.4016788,39.528 L40.1701825,39.528 C40.4834103,39.528 40.7656374,39.5844264 41.0168723,39.6972809 C41.2681071,39.8101354 41.483448,39.9648529 41.6629015,40.1614382 C41.8423549,40.3580235 41.97939,40.5855493 42.0740109,40.8440225 C42.1686319,41.1024957 42.2159416,41.3809873 42.2159416,41.6795056 C42.2159416,42.1382045 42.129479,42.5350096 41.9565511,42.8699326 C41.7836232,43.2048556 41.5013961,43.4596845 41.1098613,43.634427 L41.1098613,43.6562697 C41.2991031,43.7145171 41.4557147,43.8037073 41.5797007,43.9238427 C41.7036868,44.0439781 41.8048317,44.1859542 41.8831387,44.3497753 C41.9614456,44.5135963 42.0185436,44.6937968 42.0544343,44.890382 C42.090325,45.0869673 42.1147956,45.2835496 42.1278467,45.4801348 C42.1343723,45.6039107 42.1408978,45.7495273 42.1474234,45.9169888 C42.1539489,46.0844503 42.1653685,46.2555497 42.1816825,46.4302921 C42.1979964,46.6050346 42.2240984,46.7706734 42.2599891,46.9272135 C42.2958797,47.0837536 42.349715,47.2166287 42.4214964,47.3258427 L40.8847299,47.3258427 C40.7998974,47.0782909 40.7476935,46.7834174 40.7281168,46.4412135 C40.70854,46.0990095 40.6791754,45.7713724 40.6400219,45.4582921 C40.5878173,45.0505598 40.4768841,44.7520459 40.307219,44.5627416 C40.1375539,44.3734373 39.8602209,44.2787865 39.4752117,44.2787865 L37.9384453,44.2787865 L37.9384453,47.3258427 L36.4016788,47.3258427 L36.4016788,39.528 Z M46.7283577,43.8965393 C46.6631019,43.5033688 46.5472746,43.204855 46.3808723,43.0009888 C46.21447,42.7971226 45.9616075,42.695191 45.6222774,42.695191 C45.4004076,42.695191 45.2160628,42.7370558 45.0692372,42.8207865 C44.9224117,42.9045173 44.804953,43.008269 44.7168577,43.1320449 C44.6287623,43.2558208 44.5667703,43.3868757 44.5308796,43.5252135 C44.4949889,43.6635513 44.4737811,43.7873253 44.4672555,43.8965393 L46.7283577,43.8965393 Z M44.4672555,44.8794607 C44.4868322,45.3818452 44.6010282,45.7458865 44.8098467,45.9715955 C45.0186653,46.1973045 45.3188375,46.3101573 45.7103723,46.3101573 C45.9909722,46.3101573 46.232415,46.2318884 46.434708,46.0753483 C46.637001,45.9188082 46.7609852,45.7531694 46.8066642,45.578427 L48.0302044,45.578427 C47.834437,46.2555539 47.5342648,46.7397289 47.1296788,47.0309663 C46.7250929,47.3222037 46.2356817,47.4678202 45.6614307,47.4678202 C45.2633703,47.4678202 44.9044688,47.3968322 44.5847153,47.2548539 C44.2649619,47.1128757 43.9941544,46.9108328 43.7722847,46.6487191 C43.5504149,46.3866054 43.379121,46.0735299 43.2583978,45.7094831 C43.1376746,45.3454364 43.0773139,44.9449909 43.0773139,44.5081348 C43.0773139,44.0858406 43.1393059,43.692676 43.263292,43.3286292 C43.387278,42.9645824 43.563466,42.6496867 43.7918613,42.3839326 C44.0202566,42.1181784 44.2926955,41.9088547 44.6091861,41.7559551 C44.9256768,41.6030554 45.2764214,41.5266067 45.6614307,41.5266067 C46.0921189,41.5266067 46.4673342,41.6194373 46.7870876,41.8051011 C47.106841,41.990765 47.3694917,42.2401333 47.5750474,42.5532135 C47.7806032,42.8662937 47.9290579,43.2230542 48.0204161,43.6235056 C48.1117742,44.0239571 48.1444016,44.4426046 48.1182993,44.8794607 L44.4672555,44.8794607 Z M51.4952701,46.3101573 C51.7236654,46.3101573 51.9145357,46.2591915 52.0678869,46.1572584 C52.221238,46.0553253 52.3452222,45.9224503 52.4398431,45.7586292 C52.534464,45.5948082 52.6013502,45.4036865 52.6405036,45.1852584 C52.6796571,44.9668304 52.6992336,44.7447652 52.6992336,44.5190562 C52.6992336,44.2933472 52.6780258,44.071282 52.6356095,43.8528539 C52.5931932,43.6344259 52.5230443,43.4396638 52.4251606,43.2685618 C52.3272769,43.0974598 52.2016614,42.9591241 52.0483102,42.8535506 C51.8949591,42.747977 51.7073515,42.695191 51.4854818,42.695191 C51.2570864,42.695191 51.0662161,42.747977 50.912865,42.8535506 C50.7595138,42.9591241 50.6355297,43.0956396 50.5409088,43.2631011 C50.4462878,43.4305626 50.3794017,43.6235045 50.3402482,43.8419326 C50.3010947,44.0603606 50.2815182,44.2860663 50.2815182,44.5190562 C50.2815182,44.7447652 50.3027261,44.9668304 50.3451423,45.1852584 C50.3875586,45.4036865 50.4560762,45.5948082 50.5506971,45.7586292 C50.645318,45.9224503 50.7709335,46.0553253 50.9275474,46.1572584 C51.0841614,46.2591915 51.2734004,46.3101573 51.4952701,46.3101573 Z M48.9405182,41.6795056 L50.2619416,41.6795056 L50.2619416,42.4003146 L50.2815182,42.4003146 C50.4511833,42.0945153 50.6665242,41.8724501 50.9275474,41.7341124 C51.1885706,41.5957746 51.4756919,41.5266067 51.7889197,41.5266067 C52.1869801,41.5266067 52.5295679,41.6103362 52.8166934,41.7777978 C53.103819,41.9452593 53.3419991,42.1673245 53.5312409,42.444 C53.7204827,42.7206755 53.8607806,43.0428521 53.9521387,43.4105393 C54.0434968,43.7782266 54.0891752,44.1622901 54.0891752,44.5627416 C54.0891752,44.9413502 54.0434968,45.3053915 53.9521387,45.6548764 C53.8607806,46.0043613 53.7221141,46.3137964 53.536135,46.583191 C53.350156,46.8525856 53.1185014,47.06737 52.8411642,47.2275506 C52.5638271,47.3877311 52.2391843,47.4678202 51.8672263,47.4678202 C51.5539984,47.4678202 51.2652458,47.3968322 51.0009599,47.2548539 C50.7366739,47.1128757 50.5197016,46.9035519 50.3500365,46.6268764 L50.3304599,46.6268764 L50.3304599,49.3026067 L48.9405182,49.3026067 L48.9405182,41.6795056 Z M56.1545109,44.5081348 C56.1545109,44.7338438 56.1740874,44.9540888 56.2132409,45.1688764 C56.2523944,45.383664 56.3192805,45.5766059 56.4139015,45.7477079 C56.5085224,45.9188098 56.6341379,46.0553253 56.7907518,46.1572584 C56.9473657,46.2591915 57.1431302,46.3101573 57.3780511,46.3101573 C57.612972,46.3101573 57.8103678,46.2591915 57.9702445,46.1572584 C58.1301212,46.0553253 58.2573681,45.9188098 58.3519891,45.7477079 C58.44661,45.5766059 58.5134962,45.383664 58.5526496,45.1688764 C58.5918031,44.9540888 58.6113796,44.7338438 58.6113796,44.5081348 C58.6113796,44.2824258 58.5918031,44.0603606 58.5526496,43.8419326 C58.5134962,43.6235045 58.44661,43.4305626 58.3519891,43.2631011 C58.2573681,43.0956396 58.1301212,42.9591241 57.9702445,42.8535506 C57.8103678,42.747977 57.612972,42.695191 57.3780511,42.695191 C57.1431302,42.695191 56.9473657,42.747977 56.7907518,42.8535506 C56.6341379,42.9591241 56.5085224,43.0956396 56.4139015,43.2631011 C56.3192805,43.4305626 56.2523944,43.6235045 56.2132409,43.8419326 C56.1740874,44.0603606 56.1545109,44.2824258 56.1545109,44.5081348 Z M54.7645693,44.5081348 C54.7645693,44.0567168 54.8265614,43.6471704 54.9505474,43.2794831 C55.0745335,42.9117959 55.2507215,42.5987204 55.4791168,42.3402472 C55.7075121,42.081774 55.9815823,41.8815513 56.3013358,41.739573 C56.6210892,41.5975948 56.9799907,41.5266067 57.3780511,41.5266067 C57.7761115,41.5266067 58.1366444,41.5975948 58.4596606,41.739573 C58.7826768,41.8815513 59.0583784,42.081774 59.2867737,42.3402472 C59.515169,42.5987204 59.691357,42.9117959 59.8153431,43.2794831 C59.9393291,43.6471704 60.0013212,44.0567168 60.0013212,44.5081348 C60.0013212,44.9595528 59.9393291,45.3672791 59.8153431,45.7313258 C59.691357,46.0953726 59.515169,46.4066279 59.2867737,46.6651011 C59.0583784,46.9235743 58.7826768,47.1219768 58.4596606,47.2603146 C58.1366444,47.3986524 57.7761115,47.4678202 57.3780511,47.4678202 C56.9799907,47.4678202 56.6210892,47.3986524 56.3013358,47.2603146 C55.9815823,47.1219768 55.7075121,46.9235743 55.4791168,46.6651011 C55.2507215,46.4066279 55.0745335,46.0953726 54.9505474,45.7313258 C54.8265614,45.3672791 54.7645693,44.9595528 54.7645693,44.5081348 Z M60.9018467,41.6795056 L62.2232701,41.6795056 L62.2232701,42.7279551 L62.2428467,42.7279551 C62.3081025,42.5532126 62.3961965,42.3912142 62.5071314,42.2419551 C62.6180662,42.0926959 62.7453132,41.9652814 62.8888759,41.8597079 C63.0324387,41.7541343 63.1857875,41.672225 63.348927,41.6139775 C63.5120665,41.55573 63.681729,41.5266067 63.8579197,41.5266067 C63.9492778,41.5266067 64.0504228,41.5448088 64.1613577,41.5812135 L64.1613577,43.0228315 C64.0961019,43.0082696 64.0177961,42.9955281 63.926438,42.9846067 C63.8350798,42.9736853 63.7469858,42.9682247 63.6621533,42.9682247 C63.4076557,42.9682247 63.1923147,43.0155501 63.0161241,43.1102022 C62.8399334,43.2048544 62.6980042,43.3340891 62.5903321,43.4979101 C62.48266,43.6617312 62.4059856,43.8528528 62.3603066,44.0712809 C62.3146275,44.289709 62.2917883,44.5263358 62.2917883,44.7811685 L62.2917883,47.3258427 L60.9018467,47.3258427 L60.9018467,41.6795056 Z M66.4714015,41.6795056 L67.4893869,41.6795056 L67.4893869,42.7170337 L66.4714015,42.7170337 L66.4714015,45.5128989 C66.4714015,45.7750125 66.5105544,45.9497524 66.5888613,46.0371236 C66.6671683,46.1244948 66.8237798,46.1681798 67.0587007,46.1681798 C67.1370077,46.1681798 67.2120507,46.1645394 67.2838321,46.1572584 C67.3556135,46.1499775 67.4241311,46.1390563 67.4893869,46.1244944 L67.4893869,47.3258427 C67.3719264,47.3476855 67.2414168,47.3622472 67.097854,47.3695281 C66.9542913,47.376809 66.8139934,47.3804494 66.6769562,47.3804494 C66.4616121,47.3804494 66.2576907,47.3640676 66.0651861,47.3313034 C65.8726815,47.2985392 65.703019,47.2348319 65.5561934,47.1401798 C65.4093679,47.0455276 65.2935406,46.9108323 65.208708,46.7360899 C65.1238755,46.5613474 65.0814599,46.3320014 65.0814599,46.0480449 L65.0814599,42.7170337 L64.2396642,42.7170337 L64.2396642,41.6795056 L65.0814599,41.6795056 L65.0814599,39.9866966 L66.4714015,39.9866966 L66.4714015,41.6795056 Z M69.5840876,40.8057978 L68.194146,40.8057978 L68.194146,39.528 L69.5840876,39.528 L69.5840876,40.8057978 Z M68.194146,41.6795056 L69.5840876,41.6795056 L69.5840876,47.3258427 L68.194146,47.3258427 L68.194146,41.6795056 Z M70.6803796,41.6795056 L72.0018029,41.6795056 L72.0018029,42.4658427 L72.0311679,42.4658427 C72.2073585,42.1382006 72.4357504,41.8997536 72.7163504,41.7504944 C72.9969503,41.6012352 73.2840715,41.5266067 73.5777226,41.5266067 C73.9496807,41.5266067 74.254747,41.5830331 74.4929307,41.6958876 C74.7311143,41.8087421 74.9187219,41.9652799 75.0557591,42.1655056 C75.1927963,42.3657313 75.2890472,42.609639 75.3445146,42.897236 C75.399982,43.1848329 75.4277153,43.503369 75.4277153,43.8528539 L75.4277153,47.3258427 L74.0377737,47.3258427 L74.0377737,44.136809 C74.0377737,43.6708291 73.9725189,43.3231697 73.8420073,43.0938202 C73.7114957,42.8644708 73.4798411,42.7497978 73.1470365,42.7497978 C72.7685529,42.7497978 72.4944826,42.875392 72.3248175,43.1265843 C72.1551524,43.3777765 72.0703212,43.7909634 72.0703212,44.3661573 L72.0703212,47.3258427 L70.6803796,47.3258427 L70.6803796,41.6795056 Z M78.8438394,45.9934382 C79.0396068,45.9934382 79.2125321,45.9497532 79.3626204,45.862382 C79.5127088,45.7750108 79.6366929,45.6585176 79.7345766,45.5128989 C79.8324603,45.3672802 79.905872,45.2016414 79.9548139,45.0159775 C80.0037557,44.8303137 80.0282263,44.6355516 80.0282263,44.4316854 C80.0282263,44.1986955 80.0086498,43.9784505 79.9694964,43.7709438 C79.9303429,43.5634372 79.865088,43.3795963 79.7737299,43.2194157 C79.6823718,43.0592352 79.5616504,42.9318207 79.411562,42.8371685 C79.2614737,42.7425164 79.0722347,42.695191 78.8438394,42.695191 C78.648072,42.695191 78.4800408,42.738876 78.3397409,42.8262472 C78.1994409,42.9136184 78.0819822,43.0319318 77.9873613,43.181191 C77.8927404,43.3304502 77.8242228,43.5015496 77.7818066,43.6944944 C77.7393903,43.8874392 77.7181825,44.0894821 77.7181825,44.3006292 C77.7181825,44.5044954 77.7361276,44.7065383 77.7720182,44.906764 C77.8079089,45.1069898 77.869901,45.2871902 77.9579964,45.4473708 C78.0460917,45.6075514 78.161919,45.7386062 78.3054818,45.8405393 C78.4490445,45.9424724 78.6284953,45.9934382 78.8438394,45.9934382 Z M81.3496496,46.9654382 C81.3496496,47.1911472 81.3219163,47.4496165 81.2664489,47.7408539 C81.2109815,48.0320913 81.0918914,48.3033021 80.9091752,48.5544944 C80.7264589,48.8056866 80.4621769,49.0186508 80.1163212,49.1933933 C79.7704654,49.3681357 79.3071562,49.4555056 78.7263796,49.4555056 C78.4784075,49.4555056 78.2255451,49.4209217 77.9677847,49.3517528 C77.7100243,49.2825839 77.4751069,49.1751917 77.2630255,49.029573 C77.0509442,48.8839543 76.8747562,48.6964731 76.7344562,48.4671236 C76.5941562,48.2377741 76.5142191,47.962923 76.4946423,47.6425618 L77.8747956,47.6425618 C77.9400514,47.9337992 78.0672983,48.1358421 78.2565401,48.2486966 C78.445782,48.3615511 78.6643856,48.4179775 78.9123577,48.4179775 C79.3038925,48.4179775 79.5893823,48.2869227 79.7688358,48.024809 C79.9482892,47.7626953 80.0347519,47.4314177 80.0282263,47.0309663 L80.0282263,46.2883146 L80.0086496,46.2883146 C79.8585613,46.586833 79.6448518,46.8070779 79.3675146,46.9490562 C79.0901774,47.0910344 78.7981621,47.1620225 78.4914599,47.1620225 C78.1129762,47.1620225 77.7867021,47.087394 77.5126277,46.9381348 C77.2385534,46.7888757 77.0134242,46.5850125 76.8372336,46.3265393 C76.6610429,46.0680661 76.5321646,45.7659118 76.4505949,45.4200674 C76.3690251,45.074223 76.3282409,44.7083615 76.3282409,44.3224719 C76.3282409,43.9584251 76.3755506,43.6071253 76.4701715,43.2685618 C76.5647924,42.9299983 76.7034589,42.6314844 76.8861752,42.3730112 C77.0688914,42.114538 77.2956519,41.9088547 77.5664635,41.7559551 C77.8372751,41.6030554 78.1488669,41.5266067 78.5012482,41.5266067 C78.8340528,41.5266067 79.1260681,41.5957746 79.3773029,41.7341124 C79.6285378,41.8724501 79.8389846,42.1054366 80.0086496,42.4330787 L80.0282263,42.4330787 L80.0282263,41.6795056 L81.3496496,41.6795056 L81.3496496,46.9654382 Z M85.3334964,39.528 L86.8702628,39.528 L86.8702628,47.3258427 L85.3334964,47.3258427 L85.3334964,39.528 Z M88.0742263,41.6795056 L89.3956496,41.6795056 L89.3956496,42.4658427 L89.4250146,42.4658427 C89.6012053,42.1382006 89.8295971,41.8997536 90.1101971,41.7504944 C90.390797,41.6012352 90.6779182,41.5266067 90.9715693,41.5266067 C91.3435274,41.5266067 91.6485937,41.5830331 91.8867774,41.6958876 C92.124961,41.8087421 92.3125687,41.9652799 92.4496058,42.1655056 C92.586643,42.3657313 92.6828939,42.609639 92.7383613,42.897236 C92.7938287,43.1848329 92.821562,43.503369 92.821562,43.8528539 L92.821562,47.3258427 L91.4316204,47.3258427 L91.4316204,44.136809 C91.4316204,43.6708291 91.3663656,43.3231697 91.235854,43.0938202 C91.1053424,42.8644708 90.8736878,42.7497978 90.5408832,42.7497978 C90.1623996,42.7497978 89.8883293,42.875392 89.7186642,43.1265843 C89.5489992,43.3777765 89.4641679,43.7909634 89.4641679,44.3661573 L89.4641679,47.3258427 L88.0742263,47.3258427 L88.0742263,41.6795056 Z M98.5575182,44.2897079 L95.9929781,39.528 L97.7157226,39.528 L99.3503723,42.6078202 L100.975234,39.528 L102.68819,39.528 L100.094285,44.3333933 L100.094285,47.3258427 L98.5575182,47.3258427 L98.5575182,44.2897079 Z M103.275489,44.5081348 C103.275489,44.7338438 103.295065,44.9540888 103.334219,45.1688764 C103.373372,45.383664 103.440259,45.5766059 103.53488,45.7477079 C103.6295,45.9188098 103.755116,46.0553253 103.91173,46.1572584 C104.068344,46.2591915 104.264108,46.3101573 104.499029,46.3101573 C104.73395,46.3101573 104.931346,46.2591915 105.091223,46.1572584 C105.251099,46.0553253 105.378346,45.9188098 105.472967,45.7477079 C105.567588,45.5766059 105.634474,45.383664 105.673628,45.1688764 C105.712781,44.9540888 105.732358,44.7338438 105.732358,44.5081348 C105.732358,44.2824258 105.712781,44.0603606 105.673628,43.8419326 C105.634474,43.6235045 105.567588,43.4305626 105.472967,43.2631011 C105.378346,43.0956396 105.251099,42.9591241 105.091223,42.8535506 C104.931346,42.747977 104.73395,42.695191 104.499029,42.695191 C104.264108,42.695191 104.068344,42.747977 103.91173,42.8535506 C103.755116,42.9591241 103.6295,43.0956396 103.53488,43.2631011 C103.440259,43.4305626 103.373372,43.6235045 103.334219,43.8419326 C103.295065,44.0603606 103.275489,44.2824258 103.275489,44.5081348 Z M101.885547,44.5081348 C101.885547,44.0567168 101.94754,43.6471704 102.071526,43.2794831 C102.195512,42.9117959 102.3717,42.5987204 102.600095,42.3402472 C102.82849,42.081774 103.10256,41.8815513 103.422314,41.739573 C103.742067,41.5975948 104.100969,41.5266067 104.499029,41.5266067 C104.89709,41.5266067 105.257622,41.5975948 105.580639,41.739573 C105.903655,41.8815513 106.179357,42.081774 106.407752,42.3402472 C106.636147,42.5987204 106.812335,42.9117959 106.936321,43.2794831 C107.060307,43.6471704 107.122299,44.0567168 107.122299,44.5081348 C107.122299,44.9595528 107.060307,45.3672791 106.936321,45.7313258 C106.812335,46.0953726 106.636147,46.4066279 106.407752,46.6651011 C106.179357,46.9235743 105.903655,47.1219768 105.580639,47.2603146 C105.257622,47.3986524 104.89709,47.4678202 104.499029,47.4678202 C104.100969,47.4678202 103.742067,47.3986524 103.422314,47.2603146 C103.10256,47.1219768 102.82849,46.9235743 102.600095,46.6651011 C102.3717,46.4066279 102.195512,46.0953726 102.071526,45.7313258 C101.94754,45.3672791 101.885547,44.9595528 101.885547,44.5081348 Z M112.770161,47.3258427 L111.448737,47.3258427 L111.448737,46.5395056 L111.419372,46.5395056 C111.243182,46.8671477 111.01479,47.1037746 110.73419,47.2493933 C110.45359,47.395012 110.166469,47.4678202 109.872818,47.4678202 C109.500859,47.4678202 109.195793,47.413214 108.957609,47.304 C108.719426,47.194786 108.531818,47.0400684 108.394781,46.8398427 C108.257744,46.639617 108.161493,46.3957093 108.106026,46.1081124 C108.050558,45.8205154 108.022825,45.5019793 108.022825,45.1524944 L108.022825,41.6795056 L109.412766,41.6795056 L109.412766,44.8685393 C109.412766,45.3345192 109.478021,45.6821786 109.608533,45.9115281 C109.739044,46.1408776 109.970699,46.2555506 110.303504,46.2555506 C110.681987,46.2555506 110.956058,46.1299563 111.125723,45.878764 C111.295388,45.6275718 111.380219,45.2143849 111.380219,44.639191 L111.380219,41.6795056 L112.770161,41.6795056 L112.770161,47.3258427 Z M113.827299,41.6795056 L115.148723,41.6795056 L115.148723,42.7279551 L115.168299,42.7279551 C115.233555,42.5532126 115.321649,42.3912142 115.432584,42.2419551 C115.543519,42.0926959 115.670766,41.9652814 115.814328,41.8597079 C115.957891,41.7541343 116.11124,41.672225 116.27438,41.6139775 C116.437519,41.55573 116.607182,41.5266067 116.783372,41.5266067 C116.87473,41.5266067 116.975875,41.5448088 117.08681,41.5812135 L117.08681,43.0228315 C117.021554,43.0082696 116.943249,42.9955281 116.851891,42.9846067 C116.760532,42.9736853 116.672438,42.9682247 116.587606,42.9682247 C116.333108,42.9682247 116.117767,43.0155501 115.941577,43.1102022 C115.765386,43.2048544 115.623457,43.3340891 115.515785,43.4979101 C115.408113,43.6617312 115.331438,43.8528528 115.285759,44.0712809 C115.24008,44.289709 115.217241,44.5263358 115.217241,44.7811685 L115.217241,47.3258427 L113.827299,47.3258427 L113.827299,41.6795056 Z M120.502934,39.528 L122.039701,39.528 L122.039701,47.3258427 L120.502934,47.3258427 L120.502934,39.528 Z M123.243664,41.6795056 L124.565088,41.6795056 L124.565088,42.4658427 L124.594453,42.4658427 C124.770643,42.1382006 124.999035,41.8997536 125.279635,41.7504944 C125.560235,41.6012352 125.847356,41.5266067 126.141007,41.5266067 C126.512965,41.5266067 126.818032,41.5830331 127.056215,41.6958876 C127.294399,41.8087421 127.482007,41.9652799 127.619044,42.1655056 C127.756081,42.3657313 127.852332,42.609639 127.907799,42.897236 C127.963267,43.1848329 127.991,43.503369 127.991,43.8528539 L127.991,47.3258427 L126.601058,47.3258427 L126.601058,44.136809 C126.601058,43.6708291 126.535804,43.3231697 126.405292,43.0938202 C126.27478,42.8644708 126.043126,42.7497978 125.710321,42.7497978 C125.331838,42.7497978 125.057767,42.875392 124.888102,43.1265843 C124.718437,43.3777765 124.633606,43.7909634 124.633606,44.3661573 L124.633606,47.3258427 L123.243664,47.3258427 L123.243664,41.6795056 Z M132.757912,44.5081348 C132.757912,44.267864 132.735073,44.0385179 132.689394,43.8200899 C132.643715,43.6016618 132.571935,43.4087199 132.474051,43.2412584 C132.376167,43.0737969 132.253815,42.9409218 132.106989,42.8426292 C131.960163,42.7443366 131.782344,42.695191 131.573526,42.695191 C131.371233,42.695191 131.195045,42.7443366 131.044956,42.8426292 C130.894868,42.9409218 130.770884,43.0737969 130.673,43.2412584 C130.575116,43.4087199 130.503336,43.6016618 130.457657,43.8200899 C130.411978,44.0385179 130.389139,44.267864 130.389139,44.5081348 C130.389139,44.7411248 130.411978,44.9668304 130.457657,45.1852584 C130.503336,45.4036865 130.575116,45.5966284 130.673,45.7640899 C130.770884,45.9315514 130.894868,46.0644265 131.044956,46.1627191 C131.195045,46.2610117 131.371233,46.3101573 131.573526,46.3101573 C131.782344,46.3101573 131.960163,46.2610117 132.106989,46.1627191 C132.253815,46.0644265 132.376167,45.9315514 132.474051,45.7640899 C132.571935,45.5966284 132.643715,45.4036865 132.689394,45.1852584 C132.735073,44.9668304 132.757912,44.7411248 132.757912,44.5081348 Z M129.048139,39.528 L130.43808,39.528 L130.43808,42.3675506 L130.457657,42.3675506 C130.627322,42.0763132 130.857345,41.863349 131.147734,41.7286517 C131.438122,41.5939544 131.739925,41.5266067 132.053153,41.5266067 C132.307651,41.5266067 132.558882,41.5848534 132.806854,41.7013483 C133.054826,41.8178433 133.278324,41.9962235 133.477354,42.2364944 C133.676384,42.4767652 133.83789,42.7843801 133.961876,43.1593483 C134.085862,43.5343165 134.147854,43.9802671 134.147854,44.4972135 C134.147854,45.0141599 134.085862,45.4601105 133.961876,45.8350787 C133.83789,46.2100468 133.676384,46.5176617 133.477354,46.7579326 C133.278324,46.9982034 133.054826,47.1765837 132.806854,47.2930787 C132.558882,47.4095736 132.307651,47.4678202 132.053153,47.4678202 C131.681195,47.4678202 131.348396,47.4022928 131.054745,47.271236 C130.761093,47.1401791 130.539227,46.9181139 130.389139,46.6050337 L130.369562,46.6050337 L130.369562,47.3258427 L129.048139,47.3258427 L129.048139,39.528 Z M136.262131,44.5081348 C136.262131,44.7338438 136.281708,44.9540888 136.320861,45.1688764 C136.360015,45.383664 136.426901,45.5766059 136.521522,45.7477079 C136.616143,45.9188098 136.741758,46.0553253 136.898372,46.1572584 C137.054986,46.2591915 137.250751,46.3101573 137.485672,46.3101573 C137.720592,46.3101573 137.917988,46.2591915 138.077865,46.1572584 C138.237742,46.0553253 138.364989,45.9188098 138.459609,45.7477079 C138.55423,45.5766059 138.621117,45.383664 138.66027,45.1688764 C138.699424,44.9540888 138.719,44.7338438 138.719,44.5081348 C138.719,44.2824258 138.699424,44.0603606 138.66027,43.8419326 C138.621117,43.6235045 138.55423,43.4305626 138.459609,43.2631011 C138.364989,43.0956396 138.237742,42.9591241 138.077865,42.8535506 C137.917988,42.747977 137.720592,42.695191 137.485672,42.695191 C137.250751,42.695191 137.054986,42.747977 136.898372,42.8535506 C136.741758,42.9591241 136.616143,43.0956396 136.521522,43.2631011 C136.426901,43.4305626 136.360015,43.6235045 136.320861,43.8419326 C136.281708,44.0603606 136.262131,44.2824258 136.262131,44.5081348 Z M134.87219,44.5081348 C134.87219,44.0567168 134.934182,43.6471704 135.058168,43.2794831 C135.182154,42.9117959 135.358342,42.5987204 135.586737,42.3402472 C135.815133,42.081774 136.089203,41.8815513 136.408956,41.739573 C136.72871,41.5975948 137.087611,41.5266067 137.485672,41.5266067 C137.883732,41.5266067 138.244265,41.5975948 138.567281,41.739573 C138.890297,41.8815513 139.165999,42.081774 139.394394,42.3402472 C139.622789,42.5987204 139.798977,42.9117959 139.922964,43.2794831 C140.04695,43.6471704 140.108942,44.0567168 140.108942,44.5081348 C140.108942,44.9595528 140.04695,45.3672791 139.922964,45.7313258 C139.798977,46.0953726 139.622789,46.4066279 139.394394,46.6651011 C139.165999,46.9235743 138.890297,47.1219768 138.567281,47.2603146 C138.244265,47.3986524 137.883732,47.4678202 137.485672,47.4678202 C137.087611,47.4678202 136.72871,47.3986524 136.408956,47.2603146 C136.089203,47.1219768 135.815133,46.9235743 135.586737,46.6651011 C135.358342,46.4066279 135.182154,46.0953726 135.058168,45.7313258 C134.934182,45.3672791 134.87219,44.9595528 134.87219,44.5081348 Z M142.301526,44.355236 L140.637511,41.6795056 L142.223219,41.6795056 L143.113956,43.1538876 L143.994905,41.6795056 L145.531672,41.6795056 L143.867657,44.3224719 L145.737226,47.3258427 L144.151518,47.3258427 L143.09438,45.5456629 L142.037241,47.3258427 L140.480898,47.3258427 L142.301526,44.355236 Z" id="OurReportingInYourInbox" fill="#000000" fill-rule="nonzero"></path>
                        <path d="M7.70558394,4.65734831 C7.66788059,4.37339184 7.58304932,4.11310231 7.45108759,3.87647191 C7.31912586,3.63984151 7.15417617,3.43213573 6.95623358,3.25334831 C6.75829098,3.0745609 6.53443069,2.93521398 6.28464599,2.83530337 C6.03486128,2.73539276 5.7732982,2.6854382 5.49994891,2.6854382 C5.0003795,2.6854382 4.57622315,2.79323488 4.22746715,3.00883146 C3.87871115,3.22442804 3.59594026,3.51363864 3.37914599,3.87647191 C3.16235171,4.23930518 3.0044713,4.65208757 2.9055,5.11483146 C2.8065287,5.57757535 2.7570438,6.05608742 2.7570438,6.55038202 C2.7570438,7.02364282 2.8065287,7.48375057 2.9055,7.9307191 C3.0044713,8.37768763 3.16235171,8.77995327 3.37914599,9.13752809 C3.59594026,9.49510291 3.87871115,9.78168432 4.22746715,9.9972809 C4.57622315,10.2128775 5.0003795,10.3206742 5.49994891,10.3206742 C6.17860923,10.3206742 6.70880466,10.0893057 7.09055109,9.6265618 C7.47229753,9.16381791 7.70558352,8.55384648 7.79041606,7.79662921 L9.93949635,7.79662921 C9.88294132,8.50126195 9.73684303,9.13752525 9.50119708,9.7054382 C9.26555113,10.2733512 8.95450315,10.7571216 8.5680438,11.156764 C8.18158444,11.5564065 7.72915101,11.8613922 7.21072993,12.0717303 C6.69230884,12.2820685 6.12205421,12.387236 5.49994891,12.387236 C4.7270302,12.387236 4.03188508,12.2373723 3.4144927,11.9376404 C2.79710032,11.6379086 2.27633059,11.2251262 1.85216788,10.6992809 C1.42800518,10.1734356 1.10281865,9.55557658 0.87659854,8.84568539 C0.650378431,8.1357942 0.537270073,7.37070073 0.537270073,6.55038202 C0.537270073,5.7090295 0.650378431,4.92816091 0.87659854,4.20775281 C1.10281865,3.48734471 1.42800518,2.85896897 1.85216788,2.32260674 C2.27633059,1.78624451 2.79710032,1.36557456 3.4144927,1.06058427 C4.03188508,0.755593981 4.7270302,0.603101124 5.49994891,0.603101124 C6.05607334,0.603101124 6.58155592,0.692493488 7.07641241,0.871280899 C7.5712689,1.05006831 8.01427663,1.31035784 8.40544891,1.6521573 C8.79662118,1.99395677 9.11945128,2.4172559 9.37394891,2.92206742 C9.62844653,3.42687893 9.78868337,4.00530011 9.85466423,4.65734831 L7.70558394,4.65734831 Z M13.3045036,2.71698876 L11.2968102,2.71698876 L11.2968102,0.871280899 L13.3045036,0.871280899 L13.3045036,2.71698876 Z M11.2968102,3.97901124 L13.3045036,3.97901124 L13.3045036,12.1348315 L11.2968102,12.1348315 L11.2968102,3.97901124 Z M17.433,3.97901124 L18.9034234,3.97901124 L18.9034234,5.47766292 L17.433,5.47766292 L17.433,9.51613483 C17.433,9.89474347 17.4895542,10.1471454 17.6026642,10.2733483 C17.7157743,10.3995512 17.941991,10.4626517 18.2813212,10.4626517 C18.3944312,10.4626517 18.5028267,10.4573933 18.6065109,10.4468764 C18.7101952,10.4363595 18.809165,10.4205844 18.9034234,10.3995506 L18.9034234,12.1348315 C18.7337583,12.1663822 18.5452443,12.1874157 18.3378759,12.1979326 C18.1305075,12.2084495 17.927855,12.2137079 17.7299124,12.2137079 C17.4188598,12.2137079 17.1243067,12.1900452 16.8462445,12.1427191 C16.5681823,12.095393 16.3231142,12.0033715 16.1110328,11.8666517 C15.8989515,11.7299319 15.7316454,11.535372 15.6091095,11.2829663 C15.4865736,11.0305605 15.4253066,10.6992829 15.4253066,10.2891236 L15.4253066,5.47766292 L14.2093796,5.47766292 L14.2093796,3.97901124 L15.4253066,3.97901124 L15.4253066,1.5338427 L17.433,1.5338427 L17.433,3.97901124 Z M23.470219,13.1444494 C23.2534247,13.8070145 22.9518024,14.2802682 22.5653431,14.5642247 C22.1788837,14.8481812 21.641619,14.9901573 20.9535328,14.9901573 C20.7461644,14.9901573 20.5411555,14.9822697 20.3385,14.9664944 C20.1358445,14.950719 19.9308356,14.9323147 19.7234672,14.9112809 L19.7234672,13.065573 C19.9119839,13.0866068 20.1052107,13.1076403 20.3031533,13.1286742 C20.5010959,13.149708 20.6990355,13.1549663 20.8969781,13.1444494 C21.1609016,13.1128987 21.3564848,12.9972145 21.4837336,12.7973933 C21.6109824,12.597572 21.6746058,12.3767203 21.6746058,12.1348315 C21.6746058,11.956044 21.6463287,11.7877761 21.5897737,11.6300225 L19.0306715,3.97901124 L21.1656131,3.97901124 L22.8198394,9.56346067 L22.8481168,9.56346067 L24.4457883,3.97901124 L26.5241752,3.97901124 L23.470219,13.1444494 Z M31.3454672,0.871280899 L33.5652409,0.871280899 L33.5652409,10.0524944 L38.4855036,10.0524944 L38.4855036,12.1348315 L31.3454672,12.1348315 L31.3454672,0.871280899 Z M41.5818759,2.71698876 L39.5741825,2.71698876 L39.5741825,0.871280899 L41.5818759,0.871280899 L41.5818759,2.71698876 Z M39.5741825,3.97901124 L41.5818759,3.97901124 L41.5818759,12.1348315 L39.5741825,12.1348315 L39.5741825,3.97901124 Z M43.2219635,3.97901124 L45.1165474,3.97901124 L45.1165474,5.0832809 L45.1448248,5.0832809 C45.4087483,4.66260464 45.7268655,4.33658543 46.0991861,4.10521348 C46.4715067,3.87384154 46.8980195,3.7581573 47.3787372,3.7581573 C47.8406033,3.7581573 48.2624032,3.85806642 48.6441496,4.05788764 C49.0258961,4.25770886 49.3157362,4.61001995 49.5136788,5.11483146 C49.7304731,4.75725664 50.0250261,4.44175418 50.3973467,4.16831461 C50.7696673,3.89487504 51.2103186,3.7581573 51.7193139,3.7581573 C52.1057732,3.7581573 52.4639497,3.81074105 52.793854,3.91591011 C53.1237583,4.02107918 53.4065292,4.18934716 53.6421752,4.4207191 C53.8778211,4.65209104 54.0616222,4.95444757 54.1935839,5.32779775 C54.3255457,5.70114793 54.3915255,6.15073894 54.3915255,6.67658427 L54.3915255,12.1348315 L52.3838321,12.1348315 L52.3838321,7.51267416 C52.3838321,7.23923459 52.3744064,6.98157424 52.3555547,6.73968539 C52.3367031,6.49779654 52.2848617,6.28746157 52.2000292,6.10867416 C52.1151967,5.92988675 51.9903062,5.78791064 51.825354,5.68274157 C51.6604019,5.57757251 51.4365416,5.52498876 51.1537664,5.52498876 C50.8709913,5.52498876 50.6424181,5.58546007 50.4680401,5.70640449 C50.2936621,5.82734892 50.1569895,5.98510015 50.0580182,6.17966292 C49.959047,6.37422569 49.8930671,6.59507742 49.8600766,6.84222472 C49.8270862,7.08937202 49.8105912,7.33914481 49.8105912,7.59155056 L49.8105912,12.1348315 L47.8028978,12.1348315 L47.8028978,7.56 C47.8028978,7.31811115 47.798185,7.07885512 47.7887591,6.84222472 C47.7793333,6.60559432 47.7392741,6.38737179 47.6685803,6.18755056 C47.5978865,5.98772934 47.4800653,5.82734892 47.3151131,5.70640449 C47.150161,5.58546007 46.9074493,5.52498876 46.5869708,5.52498876 C46.4927124,5.52498876 46.3678219,5.54865145 46.2122956,5.59597753 C46.0567693,5.64330361 45.9059582,5.73269597 45.7598577,5.8641573 C45.6137572,5.99561863 45.4888667,6.18492011 45.3851825,6.43206742 C45.2814983,6.67921472 45.2296569,7.00260474 45.2296569,7.40224719 L45.2296569,12.1348315 L43.2219635,12.1348315 L43.2219635,3.97901124 Z M58.0393066,2.71698876 L56.0316131,2.71698876 L56.0316131,0.871280899 L58.0393066,0.871280899 L58.0393066,2.71698876 Z M56.0316131,3.97901124 L58.0393066,3.97901124 L58.0393066,12.1348315 L56.0316131,12.1348315 L56.0316131,3.97901124 Z M62.1678029,3.97901124 L63.6382263,3.97901124 L63.6382263,5.47766292 L62.1678029,5.47766292 L62.1678029,9.51613483 C62.1678029,9.89474347 62.2243571,10.1471454 62.3374672,10.2733483 C62.4505772,10.3995512 62.6767939,10.4626517 63.0161241,10.4626517 C63.1292341,10.4626517 63.2376297,10.4573933 63.3413139,10.4468764 C63.4449981,10.4363595 63.5439679,10.4205844 63.6382263,10.3995506 L63.6382263,12.1348315 C63.4685612,12.1663822 63.2800473,12.1874157 63.0726788,12.1979326 C62.8653104,12.2084495 62.6626579,12.2137079 62.4647153,12.2137079 C62.1536627,12.2137079 61.8591097,12.1900452 61.5810474,12.1427191 C61.3029852,12.095393 61.0579171,12.0033715 60.8458358,11.8666517 C60.6337544,11.7299319 60.4664483,11.535372 60.3439124,11.2829663 C60.2213765,11.0305605 60.1601095,10.6992829 60.1601095,10.2891236 L60.1601095,5.47766292 L58.9441825,5.47766292 L58.9441825,3.97901124 L60.1601095,3.97901124 L60.1601095,1.5338427 L62.1678029,1.5338427 L62.1678029,3.97901124 Z M66.1549124,9.48458427 C66.1549124,9.72647312 66.1996845,9.93417891 66.2892299,10.1077079 C66.3787754,10.2812368 66.4942402,10.4232129 66.6356277,10.5336404 C66.7770153,10.644068 66.9396086,10.7255728 67.1234124,10.7781573 C67.3072162,10.8307418 67.4980866,10.8570337 67.6960292,10.8570337 C67.8374168,10.8570337 67.9858715,10.8386294 68.1413978,10.8018202 C68.2969241,10.7650111 68.4383096,10.7071689 68.5655584,10.6282921 C68.6928072,10.5494153 68.7988463,10.4442478 68.8836788,10.3127865 C68.9685114,10.1813252 69.010927,10.0156864 69.010927,9.81586517 C69.010927,9.47932416 68.810631,9.22692219 68.4100328,9.05865169 C68.0094347,8.89038118 67.4509622,8.7221132 66.7345985,8.5538427 C66.4423976,8.48022435 66.1572702,8.39346117 65.879208,8.29355056 C65.6011458,8.19363995 65.3537213,8.06218059 65.136927,7.89916854 C64.9201327,7.73615649 64.7457574,7.53107989 64.6137956,7.28393258 C64.4818339,7.03678528 64.415854,6.73442875 64.415854,6.37685393 C64.415854,5.85100861 64.5077546,5.41982191 64.6915584,5.0832809 C64.8753622,4.74673989 65.1180739,4.48119198 65.4197007,4.28662921 C65.7213275,4.09206644 66.0606526,3.95534871 66.4376861,3.87647191 C66.8147196,3.79759511 67.2011732,3.7581573 67.5970584,3.7581573 C67.9929436,3.7581573 68.3770407,3.8002243 68.7493613,3.88435955 C69.1216819,3.9684948 69.4539377,4.11047091 69.7461387,4.31029213 C70.0383397,4.51011336 70.2810513,4.77566126 70.474281,5.10694382 C70.6675107,5.43822638 70.7829755,5.85626714 70.8206788,6.36107865 L68.9119562,6.36107865 C68.8836787,5.92988548 68.7375804,5.63804571 68.4736569,5.48555056 C68.2097335,5.33305542 67.8986855,5.25680899 67.5405036,5.25680899 C67.4273936,5.25680899 67.3048595,5.26469655 67.1728978,5.28047191 C67.0409361,5.29624727 66.9207584,5.3304267 66.8123613,5.38301124 C66.7039642,5.43559577 66.6120636,5.5118422 66.5366569,5.61175281 C66.4612502,5.71166342 66.4235474,5.84575197 66.4235474,6.01402247 C66.4235474,6.2138437 66.4895273,6.3768533 66.6214891,6.50305618 C66.7534508,6.62925906 66.9254697,6.73179736 67.1375511,6.81067416 C67.3496324,6.88955096 67.5923441,6.96053901 67.8656934,7.02364045 C68.1390427,7.08674189 68.4171008,7.15510076 68.6998759,7.2287191 C68.9920769,7.30233745 69.2772042,7.39172981 69.5552664,7.49689888 C69.8333286,7.60206794 70.0807532,7.74141486 70.2975474,7.91494382 C70.5143417,8.08847278 70.6887171,8.30406613 70.8206788,8.56173034 C70.9526406,8.81939455 71.0186204,9.1375262 71.0186204,9.51613483 C71.0186204,10.0524971 70.922007,10.5020881 70.7287774,10.8649213 C70.5355477,11.2277546 70.2834103,11.5195944 69.9723577,11.7404494 C69.661305,11.9613045 69.305485,12.1164265 68.9048869,12.2058202 C68.5042888,12.2952139 68.0966274,12.3399101 67.6818905,12.3399101 C67.2577278,12.3399101 66.8429972,12.2925847 66.4376861,12.1979326 C66.0323751,12.1032804 65.6718422,11.9455292 65.3560766,11.7246742 C65.0403111,11.5038191 64.7811044,11.2119793 64.5784489,10.8491461 C64.3757934,10.4863128 64.2650415,10.0314634 64.2461898,9.48458427 L66.1549124,9.48458427 Z" id="CityLimits" fill="#000000" fill-rule="nonzero"></path>
                        <path d="M1.80105109,13.7900225 L5.8729927,13.7900225 L13.6514453,27.7402247 L13.7036496,27.7402247 L13.7036496,13.7900225 L17.5406715,13.7900225 L17.5406715,34.5842697 L13.4426277,34.5842697 L5.69027737,20.663191 L5.63807299,20.663191 L5.63807299,34.5842697 L1.80105109,34.5842697 L1.80105109,13.7900225 Z M29.8348029,25.4394607 C29.6607875,24.391006 29.3519146,23.594969 28.9081752,23.0513258 C28.4644357,22.5076827 27.7901359,22.2358652 26.8852555,22.2358652 C26.2936029,22.2358652 25.8020166,22.3475045 25.4104818,22.5707865 C25.0189469,22.7940685 24.7057238,23.0707399 24.4708029,23.400809 C24.235882,23.7308781 24.0705698,24.0803577 23.9748613,24.4492584 C23.8791528,24.8181591 23.8225986,25.1482233 23.8051971,25.4394607 L29.8348029,25.4394607 Z M23.8051971,28.0605843 C23.8574017,29.4002764 24.1619242,30.3710532 24.7187737,30.9729438 C25.2756232,31.5748345 26.0760824,31.8757753 27.1201752,31.8757753 C27.8684417,31.8757753 28.5122893,31.6670583 29.0517372,31.249618 C29.5911852,30.8321777 29.9218096,30.3904742 30.0436204,29.9244944 L33.3063942,29.9244944 C32.7843478,31.7301663 31.9838886,33.0212995 30.9049927,33.7979326 C29.8260968,34.5745657 28.5210004,34.9628764 26.9896642,34.9628764 C25.9281699,34.9628764 24.9710992,34.7735749 24.1184234,34.3949663 C23.2657476,34.0163577 22.5435942,33.4775765 21.9519416,32.7786067 C21.360289,32.079637 20.9035053,31.2447689 20.5815766,30.2739775 C20.259648,29.3031862 20.0986861,28.2353317 20.0986861,27.070382 C20.0986861,25.944264 20.2639983,24.8958251 20.5946277,23.9250337 C20.9252571,22.9542423 21.3950918,22.1145204 22.004146,21.4058427 C22.6132001,20.697165 23.3397038,20.1389683 24.1836788,19.731236 C25.0276539,19.3235036 25.962973,19.1196404 26.9896642,19.1196404 C28.1381663,19.1196404 29.1387403,19.3671885 29.9914161,19.8622921 C30.8440919,20.3573957 31.5444936,21.0223778 32.0926423,21.8572584 C32.6407911,22.692139 33.0366703,23.6435003 33.280292,24.7113708 C33.5239136,25.7792413 33.6109201,26.8956346 33.5413139,28.0605843 L23.8051971,28.0605843 Z M51.160292,34.5842697 L47.3493723,34.5842697 L44.9479708,24.478382 L44.8957664,24.478382 L42.5987737,34.5842697 L38.7617518,34.5842697 L34.4809927,19.5273708 L38.3963212,19.5273708 L40.8760292,29.7497528 L40.9282336,29.7497528 L43.1730219,19.5273708 L46.7751241,19.5273708 L49.0721168,29.7206292 L49.1243212,29.7206292 L51.6040292,19.5273708 L55.4149489,19.5273708 L51.160292,34.5842697 Z M59.8523212,29.6915056 C59.8523212,30.1380696 59.9349773,30.5215265 60.100292,30.8418876 C60.2656067,31.1622488 60.4787724,31.4243585 60.7397956,31.6282247 C61.0008188,31.8320909 61.300991,31.9825613 61.6403212,32.0796404 C61.9796513,32.1767196 62.3320274,32.2252584 62.6974599,32.2252584 C62.9584831,32.2252584 63.2325533,32.1912812 63.5196788,32.1233258 C63.8068044,32.0553704 64.0678236,31.948585 64.3027445,31.8029663 C64.5376654,31.6573476 64.7334299,31.4631922 64.8900438,31.2204944 C65.0466577,30.9777965 65.1249635,30.6720018 65.1249635,30.3031011 C65.1249635,29.6817946 64.7551862,29.2158218 64.0156204,28.9051685 C63.2760547,28.5945153 62.2450285,28.2838667 60.9225109,27.9732135 C60.383063,27.8373027 59.8566741,27.6771245 59.3433285,27.4926742 C58.8299828,27.3082238 58.3731991,27.0655296 57.9729635,26.7645843 C57.5727279,26.4636389 57.2508041,26.085036 57.0071825,25.628764 C56.7635608,25.1724921 56.6417518,24.6142954 56.6417518,23.9541573 C56.6417518,22.9833659 56.8114144,22.1873289 57.1507445,21.5660225 C57.4900747,20.944716 57.9381578,20.4544737 58.4950073,20.0952809 C59.0518568,19.7360881 59.6783031,19.4836861 60.374365,19.3380674 C61.0704268,19.1924487 61.7838796,19.1196404 62.5147445,19.1196404 C63.2456095,19.1196404 63.9547119,19.1973026 64.642073,19.3526292 C65.3294341,19.5079558 65.9428294,19.7700656 66.4822774,20.1389663 C67.0217253,20.507867 67.4698084,20.9981093 67.8265401,21.6097079 C68.1832719,22.2213064 68.3964376,22.993074 68.4660438,23.9250337 L64.9422482,23.9250337 C64.8900435,23.1289848 64.6203236,22.5902037 64.1330803,22.3086742 C63.645837,22.0271447 63.0715945,21.886382 62.4103358,21.886382 C62.2015172,21.886382 61.9753005,21.9009437 61.7316788,21.9300674 C61.4880572,21.9591912 61.2661908,22.0222916 61.066073,22.1193708 C60.8659552,22.2164499 60.6962927,22.3572126 60.5570803,22.5416629 C60.4178679,22.7261133 60.3482628,22.9736614 60.3482628,23.2843146 C60.3482628,23.6532153 60.4700718,23.9541561 60.7136934,24.1871461 C60.9573151,24.420136 61.2748886,24.6094375 61.6664234,24.7550562 C62.0579582,24.9006749 62.5060413,25.0317298 63.0106861,25.1482247 C63.515331,25.2647197 64.0286689,25.3909207 64.5507153,25.5268315 C65.0901633,25.6627423 65.6165522,25.8277743 66.1298978,26.0219326 C66.6432434,26.2160909 67.1000272,26.4733467 67.5002628,26.7937079 C67.9004984,27.114069 68.2224221,27.5120875 68.4660438,27.9877753 C68.7096655,28.4634631 68.8314745,29.050783 68.8314745,29.7497528 C68.8314745,30.73996 68.6531113,31.5699742 68.2963796,32.2398202 C67.9396479,32.9096663 67.4741635,33.4484474 66.8999124,33.8561798 C66.3256614,34.2639122 65.6687628,34.5502913 64.9291971,34.7153258 C64.1896313,34.8803604 63.4370257,34.9628764 62.6713577,34.9628764 C61.8882881,34.9628764 61.1226315,34.8755065 60.374365,34.700764 C59.6260984,34.5260216 58.9604993,34.2347886 58.3775474,33.8270562 C57.7945956,33.4193238 57.3160603,32.8805427 56.941927,32.2106966 C56.5677937,31.5408506 56.3633286,30.7011286 56.3285255,29.6915056 L59.8523212,29.6915056 Z M71.102365,13.7900225 L74.8088759,13.7900225 L74.8088759,34.5842697 L71.102365,34.5842697 L71.102365,13.7900225 Z M86.8158832,25.4394607 C86.6418677,24.391006 86.3329949,23.594969 85.8892555,23.0513258 C85.445516,22.5076827 84.7712162,22.2358652 83.8663358,22.2358652 C83.2746832,22.2358652 82.7830968,22.3475045 82.391562,22.5707865 C82.0000272,22.7940685 81.6868041,23.0707399 81.4518832,23.400809 C81.2169623,23.7308781 81.0516501,24.0803577 80.9559416,24.4492584 C80.8602331,24.8181591 80.8036789,25.1482233 80.7862774,25.4394607 L86.8158832,25.4394607 Z M80.7862774,28.0605843 C80.838482,29.4002764 81.1430045,30.3710532 81.699854,30.9729438 C82.2567035,31.5748345 83.0571627,31.8757753 84.1012555,31.8757753 C84.849522,31.8757753 85.4933696,31.6670583 86.0328175,31.249618 C86.5722655,30.8321777 86.9028899,30.3904742 87.0247007,29.9244944 L90.2874745,29.9244944 C89.765428,31.7301663 88.9649689,33.0212995 87.886073,33.7979326 C86.8071771,34.5745657 85.5020806,34.9628764 83.9707445,34.9628764 C82.9092502,34.9628764 81.9521794,34.7735749 81.0995036,34.3949663 C80.2468279,34.0163577 79.5246745,33.4775765 78.9330219,32.7786067 C78.3413693,32.079637 77.8845856,31.2447689 77.5626569,30.2739775 C77.2407283,29.3031862 77.0797664,28.2353317 77.0797664,27.070382 C77.0797664,25.944264 77.2450786,24.8958251 77.575708,23.9250337 C77.9063374,22.9542423 78.3761721,22.1145204 78.9852263,21.4058427 C79.5942804,20.697165 80.3207841,20.1389683 81.1647591,19.731236 C82.0087341,19.3235036 82.9440533,19.1196404 83.9707445,19.1196404 C85.1192466,19.1196404 86.1198206,19.3671885 86.9724964,19.8622921 C87.8251721,20.3573957 88.5255739,21.0223778 89.0737226,21.8572584 C89.6218714,22.692139 90.0177506,23.6435003 90.2613723,24.7113708 C90.5049939,25.7792413 90.5920003,26.8956346 90.5223942,28.0605843 L80.7862774,28.0605843 Z M97.4133723,19.5273708 L100.128,19.5273708 L100.128,22.2941124 L97.4133723,22.2941124 L97.4133723,29.7497528 C97.4133723,30.4487226 97.51778,30.9146955 97.7265985,31.1476854 C97.9354171,31.3806753 98.353048,31.4971685 98.9795036,31.4971685 C99.1883222,31.4971685 99.388437,31.4874608 99.579854,31.4680449 C99.771271,31.4486291 99.9539845,31.4195058 100.128,31.3806742 L100.128,34.5842697 C99.8147722,34.6425171 99.4667464,34.6813482 99.0839124,34.700764 C98.7010784,34.7201799 98.3269507,34.7298876 97.9615182,34.7298876 C97.3872672,34.7298876 96.843477,34.6862027 96.3301314,34.5988315 C95.8167858,34.5114602 95.3643523,34.3415743 94.9728175,34.0891685 C94.5812827,33.8367628 94.2724099,33.4775754 94.0461898,33.0115955 C93.8199697,32.5456156 93.7068613,31.9340263 93.7068613,31.176809 L93.7068613,22.2941124 L91.462073,22.2941124 L91.462073,19.5273708 L93.7068613,19.5273708 L93.7068613,15.0132135 L97.4133723,15.0132135 L97.4133723,19.5273708 Z M106.601343,19.5273708 L109.315971,19.5273708 L109.315971,22.2941124 L106.601343,22.2941124 L106.601343,29.7497528 C106.601343,30.4487226 106.705751,30.9146955 106.914569,31.1476854 C107.123388,31.3806753 107.541019,31.4971685 108.167474,31.4971685 C108.376293,31.4971685 108.576408,31.4874608 108.767825,31.4680449 C108.959242,31.4486291 109.141955,31.4195058 109.315971,31.3806742 L109.315971,34.5842697 C109.002743,34.6425171 108.654717,34.6813482 108.271883,34.700764 C107.889049,34.7201799 107.514922,34.7298876 107.149489,34.7298876 C106.575238,34.7298876 106.031448,34.6862027 105.518102,34.5988315 C105.004757,34.5114602 104.552323,34.3415743 104.160788,34.0891685 C103.769254,33.8367628 103.460381,33.4775754 103.234161,33.0115955 C103.00794,32.5456156 102.894832,31.9340263 102.894832,31.176809 L102.894832,22.2941124 L100.650044,22.2941124 L100.650044,19.5273708 L102.894832,19.5273708 L102.894832,15.0132135 L106.601343,15.0132135 L106.601343,19.5273708 Z M120.174482,25.4394607 C120.000466,24.391006 119.691593,23.594969 119.247854,23.0513258 C118.804115,22.5076827 118.129815,22.2358652 117.224934,22.2358652 C116.633282,22.2358652 116.141695,22.3475045 115.750161,22.5707865 C115.358626,22.7940685 115.045403,23.0707399 114.810482,23.400809 C114.575561,23.7308781 114.410249,24.0803577 114.31454,24.4492584 C114.218832,24.8181591 114.162277,25.1482233 114.144876,25.4394607 L120.174482,25.4394607 Z M114.144876,28.0605843 C114.197081,29.4002764 114.501603,30.3710532 115.058453,30.9729438 C115.615302,31.5748345 116.415761,31.8757753 117.459854,31.8757753 C118.208121,31.8757753 118.851968,31.6670583 119.391416,31.249618 C119.930864,30.8321777 120.261488,30.3904742 120.383299,29.9244944 L123.646073,29.9244944 C123.124027,31.7301663 122.323567,33.0212995 121.244672,33.7979326 C120.165776,34.5745657 118.860679,34.9628764 117.329343,34.9628764 C116.267849,34.9628764 115.310778,34.7735749 114.458102,34.3949663 C113.605426,34.0163577 112.883273,33.4775765 112.29162,32.7786067 C111.699968,32.079637 111.243184,31.2447689 110.921255,30.2739775 C110.599327,29.3031862 110.438365,28.2353317 110.438365,27.070382 C110.438365,25.944264 110.603677,24.8958251 110.934307,23.9250337 C111.264936,22.9542423 111.734771,22.1145204 112.343825,21.4058427 C112.952879,20.697165 113.679383,20.1389683 114.523358,19.731236 C115.367333,19.3235036 116.302652,19.1196404 117.329343,19.1196404 C118.477845,19.1196404 119.478419,19.3671885 120.331095,19.8622921 C121.183771,20.3573957 121.884172,21.0223778 122.432321,21.8572584 C122.98047,22.692139 123.376349,23.6435003 123.619971,24.7113708 C123.863592,25.7792413 123.950599,26.8956346 123.880993,28.0605843 L114.144876,28.0605843 Z M126.073577,19.5273708 L129.597372,19.5273708 L129.597372,22.323236 L129.649577,22.323236 C129.823592,21.8572561 130.058509,21.4252604 130.354336,21.027236 C130.650162,20.6292115 130.989487,20.2894396 131.372321,20.0079101 C131.755155,19.7263806 132.164085,19.5079558 132.599124,19.3526292 C133.034163,19.1973026 133.486596,19.1196404 133.956438,19.1196404 C134.20006,19.1196404 134.46978,19.1681793 134.765606,19.2652584 L134.765606,23.109573 C134.59159,23.0707414 134.382775,23.0367642 134.139153,23.0076404 C133.895532,22.9785167 133.660614,22.9639551 133.434394,22.9639551 C132.755734,22.9639551 132.181491,23.090156 131.71165,23.3425618 C131.241808,23.5949676 130.86333,23.9395933 130.576204,24.3764494 C130.289079,24.8133056 130.084614,25.3229634 129.962803,25.9054382 C129.840992,26.487913 129.780088,27.118918 129.780088,27.7984719 L129.780088,34.5842697 L126.073577,34.5842697 L126.073577,19.5273708 Z M139.098569,29.6915056 C139.098569,30.1380696 139.181225,30.5215265 139.34654,30.8418876 C139.511855,31.1622488 139.725021,31.4243585 139.986044,31.6282247 C140.247067,31.8320909 140.547239,31.9825613 140.886569,32.0796404 C141.2259,32.1767196 141.578276,32.2252584 141.943708,32.2252584 C142.204731,32.2252584 142.478801,32.1912812 142.765927,32.1233258 C143.053053,32.0553704 143.314072,31.948585 143.548993,31.8029663 C143.783914,31.6573476 143.979678,31.4631922 144.136292,31.2204944 C144.292906,30.9777965 144.371212,30.6720018 144.371212,30.3031011 C144.371212,29.6817946 144.001434,29.2158218 143.261869,28.9051685 C142.522303,28.5945153 141.491277,28.2838667 140.168759,27.9732135 C139.629311,27.8373027 139.102922,27.6771245 138.589577,27.4926742 C138.076231,27.3082238 137.619447,27.0655296 137.219212,26.7645843 C136.818976,26.4636389 136.497052,26.085036 136.253431,25.628764 C136.009809,25.1724921 135.888,24.6142954 135.888,23.9541573 C135.888,22.9833659 136.057663,22.1873289 136.396993,21.5660225 C136.736323,20.944716 137.184406,20.4544737 137.741255,20.0952809 C138.298105,19.7360881 138.924551,19.4836861 139.620613,19.3380674 C140.316675,19.1924487 141.030128,19.1196404 141.760993,19.1196404 C142.491858,19.1196404 143.20096,19.1973026 143.888321,19.3526292 C144.575682,19.5079558 145.189078,19.7700656 145.728526,20.1389663 C146.267974,20.507867 146.716057,20.9981093 147.072788,21.6097079 C147.42952,22.2213064 147.642686,22.993074 147.712292,23.9250337 L144.188496,23.9250337 C144.136292,23.1289848 143.866572,22.5902037 143.379328,22.3086742 C142.892085,22.0271447 142.317843,21.886382 141.656584,21.886382 C141.447765,21.886382 141.221549,21.9009437 140.977927,21.9300674 C140.734305,21.9591912 140.512439,22.0222916 140.312321,22.1193708 C140.112203,22.2164499 139.942541,22.3572126 139.803328,22.5416629 C139.664116,22.7261133 139.594511,22.9736614 139.594511,23.2843146 C139.594511,23.6532153 139.71632,23.9541561 139.959942,24.1871461 C140.203563,24.420136 140.521137,24.6094375 140.912672,24.7550562 C141.304206,24.9006749 141.752289,25.0317298 142.256934,25.1482247 C142.761579,25.2647197 143.274917,25.3909207 143.796964,25.5268315 C144.336411,25.6627423 144.8628,25.8277743 145.376146,26.0219326 C145.889492,26.2160909 146.346275,26.4733467 146.746511,26.7937079 C147.146747,27.114069 147.46867,27.5120875 147.712292,27.9877753 C147.955914,28.4634631 148.077723,29.050783 148.077723,29.7497528 C148.077723,30.73996 147.899359,31.5699742 147.542628,32.2398202 C147.185896,32.9096663 146.720412,33.4484474 146.146161,33.8561798 C145.57191,34.2639122 144.915011,34.5502913 144.175445,34.7153258 C143.43588,34.8803604 142.683274,34.9628764 141.917606,34.9628764 C141.134536,34.9628764 140.36888,34.8755065 139.620613,34.700764 C138.872347,34.5260216 138.206747,34.2347886 137.623796,33.8270562 C137.040844,33.4193238 136.562308,32.8805427 136.188175,32.2106966 C135.814042,31.5408506 135.609577,30.7011286 135.574774,29.6915056 L139.098569,29.6915056 Z" id="Newsletters" fill="#FF0000" fill-rule="nonzero"></path>
                    </g>
                </g>
                <g id="SIGN-UP-button-45" transform="translate(546.000000, 19.000000)">
                    <g>
                        <g id="Rectangle">
                            <use fill="black" fill-opacity="1" filter="url(#filter-4)" xlink:href="#path-3"></use>
                            <use fill="#FF0000" fill-rule="evenodd" xlink:href="#path-3"></use>
                        </g>
                        <path d="M31.25,25.874 C31.25,26.3660025 31.3339992,26.7859983 31.502,27.134 C31.6700008,27.4820017 31.9039985,27.7669989 32.204,27.989 C32.5040015,28.2110011 32.848998,28.3729995 33.239,28.475 C33.6290019,28.5770005 34.0519977,28.628 34.508,28.628 C35.0000025,28.628 35.4199983,28.5710006 35.768,28.457 C36.1160017,28.3429994 36.3979989,28.1960009 36.614,28.016 C36.8300011,27.8359991 36.9859995,27.6290012 37.082,27.395 C37.1780005,27.1609988 37.226,26.9240012 37.226,26.684 C37.226,26.1919975 37.1150011,25.8290012 36.893,25.595 C36.6709989,25.3609988 36.4280013,25.1960005 36.164,25.1 C35.7079977,24.9319992 35.177003,24.7730008 34.571,24.623 C33.964997,24.4729993 33.2180044,24.2780012 32.33,24.038 C31.7779972,23.8939993 31.3190018,23.7050012 30.953,23.471 C30.5869982,23.2369988 30.2960011,22.9760014 30.08,22.688 C29.8639989,22.3999986 29.7110005,22.0940016 29.621,21.77 C29.5309995,21.4459984 29.486,21.1160017 29.486,20.78 C29.486,20.1319968 29.6209986,19.5710024 29.891,19.097 C30.1610013,18.6229976 30.5179978,18.2300016 30.962,17.918 C31.4060022,17.6059984 31.9099972,17.3750007 32.474,17.225 C33.0380028,17.0749992 33.6079971,17 34.184,17 C34.8560034,17 35.488997,17.0869991 36.083,17.261 C36.677003,17.4350009 37.1989977,17.6959983 37.649,18.044 C38.0990022,18.3920017 38.4559987,18.8209975 38.72,19.331 C38.9840013,19.8410025 39.116,20.4319966 39.116,21.104 L36.866,21.104 C36.8059997,20.2759959 36.5240025,19.6910017 36.02,19.349 C35.5159975,19.0069983 34.8740039,18.836 34.094,18.836 C33.8299987,18.836 33.5600014,18.8629997 33.284,18.917 C33.0079986,18.9710003 32.7560011,19.0609994 32.528,19.187 C32.2999989,19.3130006 32.1110008,19.4839989 31.961,19.7 C31.8109992,19.9160011 31.736,20.1859984 31.736,20.51 C31.736,20.9660023 31.8769986,21.3229987 32.159,21.581 C32.4410014,21.8390013 32.8099977,22.0339993 33.266,22.166 C33.3140002,22.1780001 33.5029983,22.2289996 33.833,22.319 C34.1630016,22.4090005 34.531998,22.5079995 34.94,22.616 C35.348002,22.7240005 35.7469981,22.8289995 36.137,22.931 C36.5270019,23.0330005 36.8059992,23.1079998 36.974,23.156 C37.3940021,23.2880007 37.7599984,23.4679989 38.072,23.696 C38.3840016,23.9240011 38.644999,24.1849985 38.855,24.479 C39.065001,24.7730015 39.2209995,25.0879983 39.323,25.424 C39.4250005,25.7600017 39.476,26.0959983 39.476,26.432 C39.476,27.1520036 39.3290015,27.7669975 39.035,28.277 C38.7409985,28.7870026 38.3540024,29.2039984 37.874,29.528 C37.3939976,29.8520016 36.8480031,30.0889993 36.236,30.239 C35.6239969,30.3890008 35.0000032,30.464 34.364,30.464 C33.6319963,30.464 32.9420032,30.3740009 32.294,30.194 C31.6459968,30.0139991 31.0820024,29.7380019 30.602,29.366 C30.1219976,28.9939981 29.7380014,28.5170029 29.45,27.935 C29.1619986,27.3529971 29.0120001,26.666004 29,25.874 L31.25,25.874 Z M42.338,17.306 L44.588,17.306 L44.588,30.158 L42.338,30.158 L42.338,17.306 Z M59.456,30.158 L58.016,30.158 L57.674,28.646 C57.073997,29.3300034 56.474003,29.8039987 55.874,30.068 C55.273997,30.3320013 54.5840039,30.464 53.804,30.464 C52.8439952,30.464 51.9830038,30.2870018 51.221,29.933 C50.4589961,29.5789982 49.8140026,29.0960031 49.286,28.484 C48.7579973,27.8719969 48.3530014,27.1580041 48.071,26.342 C47.7889985,25.5259959 47.648,24.6560046 47.648,23.732 C47.648,22.8199954 47.7889985,21.9560041 48.071,21.14 C48.3530014,20.3239959 48.7579973,19.6100031 49.286,18.998 C49.8140026,18.3859969 50.4589961,17.9000018 51.221,17.54 C51.9830038,17.1799982 52.8439952,17 53.804,17 C54.5000034,17 55.1629968,17.0929991 55.793,17.279 C56.4230031,17.4650009 56.9839975,17.7409982 57.476,18.107 C57.9680024,18.4730018 58.3759983,18.9319972 58.7,19.484 C59.0240016,20.0360028 59.2279995,20.6719964 59.312,21.392 L57.116,21.392 C57.0559997,20.9719979 56.9270009,20.6030016 56.729,20.285 C56.530999,19.9669984 56.2820015,19.7000011 55.982,19.484 C55.6819985,19.2679989 55.3460018,19.1060005 54.974,18.998 C54.6019981,18.8899995 54.212002,18.836 53.804,18.836 C53.1199965,18.836 52.5290024,18.9739986 52.031,19.25 C51.5329975,19.5260014 51.1280015,19.8949977 50.816,20.357 C50.5039984,20.8190023 50.2730007,21.3439971 50.123,21.932 C49.9729992,22.5200029 49.898,23.1199969 49.898,23.732 C49.898,24.3440031 49.9729992,24.9439971 50.123,25.532 C50.2730007,26.1200029 50.5039984,26.6449977 50.816,27.107 C51.1280015,27.5690023 51.5329975,27.9379986 52.031,28.214 C52.5290024,28.4900014 53.1199965,28.628 53.804,28.628 C54.3800028,28.6400001 54.8899977,28.5650008 55.334,28.403 C55.7780022,28.2409992 56.1529984,28.0070015 56.459,27.701 C56.7650015,27.3949985 56.9959992,27.0200022 57.152,26.576 C57.3080007,26.1319978 57.3919999,25.6400027 57.404,25.1 L53.984,25.1 L53.984,23.39 L59.456,23.39 L59.456,30.158 Z M62.7139999,17.306 L65.0899999,17.306 L70.9579999,26.774 L70.9939999,26.774 L70.9939999,17.306 L73.1359999,17.306 L73.1359999,30.158 L70.7599999,30.158 L64.9099999,20.708 L64.8559999,20.708 L64.8559999,30.158 L62.7139999,30.158 L62.7139999,17.306 Z M82.4599999,17.306 L84.7099999,17.306 L84.7099999,24.794 C84.7099999,25.2260022 84.7309997,25.6639978 84.7729999,26.108 C84.8150001,26.5520022 84.9349989,26.9509982 85.1329999,27.305 C85.3310009,27.6590018 85.6309979,27.9499989 86.0329999,28.178 C86.4350019,28.4060011 87.0019962,28.52 87.7339999,28.52 C88.4660035,28.52 89.0329979,28.4060011 89.4349999,28.178 C89.8370019,27.9499989 90.1369989,27.6590018 90.3349999,27.305 C90.5330009,26.9509982 90.6529997,26.5520022 90.6949999,26.108 C90.7370001,25.6639978 90.7579999,25.2260022 90.7579999,24.794 L90.7579999,17.306 L93.0079999,17.306 L93.0079999,25.532 C93.0079999,26.3600041 92.8820011,27.0799969 92.6299999,27.692 C92.3779986,28.3040031 92.0210022,28.8169979 91.5589999,29.231 C91.0969976,29.6450021 90.5420031,29.953999 89.8939999,30.158 C89.2459966,30.362001 88.5260038,30.464 87.7339999,30.464 C86.9419959,30.464 86.2220031,30.362001 85.5739999,30.158 C84.9259966,29.953999 84.3710022,29.6450021 83.9089999,29.231 C83.4469976,28.8169979 83.0900011,28.3040031 82.8379999,27.692 C82.5859986,27.0799969 82.4599999,26.3600041 82.4599999,25.532 L82.4599999,17.306 Z M96.4999999,17.306 L102.17,17.306 C103.082004,17.306 103.825997,17.4379987 104.402,17.702 C104.978003,17.9660013 105.421998,18.295998 105.734,18.692 C106.046001,19.088002 106.258999,19.5199977 106.373,19.988 C106.487,20.4560023 106.544,20.887998 106.544,21.284 C106.544,21.680002 106.487,22.1089977 106.373,22.571 C106.258999,23.0330023 106.046001,23.461998 105.734,23.858 C105.421998,24.254002 104.978003,24.5809987 104.402,24.839 C103.825997,25.0970013 103.082004,25.226 102.17,25.226 L98.7499999,25.226 L98.7499999,30.158 L96.4999999,30.158 L96.4999999,17.306 Z M98.7499999,23.39 L102.044,23.39 C102.296001,23.39 102.553999,23.3540004 102.818,23.282 C103.082001,23.2099996 103.324999,23.0930008 103.547,22.931 C103.769001,22.7689992 103.948999,22.5530014 104.087,22.283 C104.225001,22.0129987 104.294,21.674002 104.294,21.266 C104.294,20.8459979 104.234,20.4980014 104.114,20.222 C103.993999,19.9459986 103.832001,19.7270008 103.628,19.565 C103.423999,19.4029992 103.190001,19.2920003 102.926,19.232 C102.661999,19.1719997 102.380001,19.142 102.08,19.142 L98.7499999,19.142 L98.7499999,23.39 Z" id="SIGNUP" fill="#FFFFFF" fill-rule="nonzero"></path>
                    </g>
                </g>
            </g>
        </g>
    </g>
</svg>