<?xml version="1.0" encoding="UTF-8"?>
<svg width="33px" height="33px" viewBox="0 0 33 33" version="1.1" xmlns="http://www.w3.org/2000/svg" xmlns:xlink="http://www.w3.org/1999/xlink">
    <!-- Generator: Sketch 54.1 (76490) - https://sketchapp.com -->
    <title>close box</title>
    <desc>Created with Sketch.</desc>
    <defs>
        <polygon id="path-1" points="25.125 8.925 23.325 7.125 16.125 14.325 8.925 7.125 7.125 8.925 14.325 16.125 7.125 23.325 8.925 25.125 16.125 17.925 23.325 25.125 25.125 23.325 17.925 16.125"></polygon>
    </defs>
    <g id="Page-1" stroke="none" stroke-width="1" fill="none" fill-rule="evenodd">
        <g id="Direction-#1-grey-Revisions" transform="translate(-435.000000, -1528.000000)">
            <g id="bottom-popup" transform="translate(93.000000, 1528.000000)">
                <g id="close-bar">
                    <g id="close-box" transform="translate(342.000000, 0.000000)">
                        <rect id="Rectangle" stroke="#FF0000" fill="#FFFFFF" x="0.5" y="0.5" width="32" height="32"></rect>
                        <g id="NAV-/-Close-/-Grey" transform="translate(8.000000, 8.000000)">
                            <polygon id="Shape" fill="#6C6F76" points="18 1.8 16.2 0 9 7.2 1.8 0 0 1.8 7.2 9 0 16.2 1.8 18 9 10.8 16.2 18 18 16.2 10.8 9"></polygon>
                            <g id="Group" stroke-width="1" transform="translate(-7.125000, -7.125000)">
                                <mask id="mask-2" fill="white">
                                    <use xlink:href="#path-1"></use>
                                </mask>
                                <use id="Shape-Copy" fill="#6C6F76" xlink:href="#path-1"></use>
                                <g id="small-red-overlay" style="mix-blend-mode: color;" mask="url(#mask-2)" fill="#FF0000">
                                    <rect id="Rectangle" x="0" y="0" width="32.25" height="32.25"></rect>
                                </g>
                            </g>
                        </g>
                    </g>
                </g>
            </g>
        </g>
    </g>
</svg>