<?xml version="1.0" encoding="utf-8"?>
<!-- Generator: Adobe Illustrator 18.1.1, SVG Export Plug-In . SVG Version: 6.00 Build 0)  -->
<svg version="1.1" id="Layer_1" xmlns="http://www.w3.org/2000/svg" xmlns:xlink="http://www.w3.org/1999/xlink" x="0px" y="0px"
	 viewBox="245 77 776 100" enable-background="new 245 77 776 100" xml:space="preserve">
<filter  width="110.4%" height="131.1%" x="-5.2%" id="filter-4" filterUnits="objectBoundingBox" y="-11.1%">
	<feOffset  dx="0" in="SourceAlpha" result="shadowOffsetOuter1" dy="2"></feOffset>
	<feGaussianBlur  in="shadowOffsetOuter1" result="shadowBlurOuter1" stdDeviation="2"></feGaussianBlur>
	<feColorMatrix  type="matrix" values="0 0 0 0 0   0 0 0 0 0   0 0 0 0 0  0 0 0 0.272180944 0" in="shadowBlurOuter1">
		</feColorMatrix>
</filter>
<title>776x100 collapsed</title>
<desc>Created with Sketch.</desc>
<g id="Page-1">
	<g id="Direction-_x23_1-grey-Revisions" transform="translate(-93.000000, -205.000000)">
		<g id="_x37_76x100-collapsed" transform="translate(93.000000, 205.000000)">
			<rect id="Rectangle-Copy-2" x="245" y="77" fill="#EBEBEB" width="776" height="100"/>
			<g id="Skyline-Background">
				<g id="Rectangle-Copy-7">
				</g>
				<defs>
					<filter id="Adobe_OpacityMaskFilter" filterUnits="userSpaceOnUse" x="59" y="65" width="1187.3" height="112.4">
						<feColorMatrix  type="matrix" values="1 0 0 0 0  0 1 0 0 0  0 0 1 0 0  0 0 0 1 0"/>
					</filter>
				</defs>
				<mask maskUnits="userSpaceOnUse" x="59" y="65" width="1187.3" height="112.4" id="mask-2">
					<g filter="url(#Adobe_OpacityMaskFilter)">
						<rect id="path-1" x="245" y="77" fill="#FFFFFF" width="776" height="100"/>
					</g>
				</mask>
				<g id="Skyline" mask="url(#mask-2)">
					<g transform="translate(-186.000000, -12.000000)">
						<g>
							<path id="Combined-Shape" fill="#B6B6B6" d="M462.8,141v-18.6h3.2v-2.7h8.2v2.5h3v21.3h3.2h2.7v-1.8h14.8v-5h2v-35.3h3v-4.1
								h2.3v-5.3h2v5h2v4.6h3.4v30.8h7.2v-1.9h0.9V129v-2.4h2.5v3.9h0.6v1h1v0.5h7.7v8.7h0.7V133h5.2v-10.8h5.7v9.9h2v0.9h7.7v-22.7
								l12.9-14.7h2.5v41.5h4.3v-4.8h13.9v4.8h4.1V94.7h4.5V91h9.3v3.9h4.5v39.4h8.2v3.9h8v-18.3l2-1.6h10.7l2,2.1v21.8h5.7v12.6
								h5.5v34.4h-70.9v0.3H326.7v-23.5v-4.2h1v-9.3h1.1v-5.7h1.1v-1h0.6v-2.4h6.9v2.3h1v1.3h0.8v9.1h4.8h4.2v-20h1.3v-1.3h0.6v-0.9
								l3.7-2.8l3.5,3v0.8h0.5v15.9h6.9v-3.1H376V98.6h2.6v-1.8h3.3h0l0.3-19.7l0.4,19.7h3.3v2.1h2.9v33.8h8.8v20.9h6.1V152h2v3.9
								h3.8v-19.6h6.3v7.6h1.5v-25.8h11.5v36.7h1v-9h3.6v8.7h0.7V140h2.5v-9.5h13.6v22.8v6.3h4.1v-5.7h0.6v-2.5h0.8v-8.5h1.7v-8.8
								h3.6v6.9H462.8z"/>
							<path id="Combined-Shape_1_" fill="#4D4D4D" d="M477.2,157.7v-1.5v-13.5h1.1v-2.1l3.2-7.4V130l0.7-4.2l0.8,4.2v3.2l3.2,7.4
								v2.1h1.1v13.5v2.3h0.2v-7.1h3.5v-1.5h1.2v1.5h0.4v-0.7h2.5v1.4h1.1v-0.8h3.3v2.4h0.4v8.8h0.7v4.4h1.1v5.4h0.9v-11.2h1.2V156
								h0.8v-1.5h1.8v7.9h0.6v-1.7h1.3v-1.5h1.4v-6.3h0.8v-0.6h0.6v-1l1-1.4v-1.5h0.8v1.5l0.9,1.5v0.9h0.7v0.7h0.6v6.4h1.3v-14.3
								h5.5v9.9h4.3v-21.7h15.5v1.4h0.5v18.1v8.8h3.5v-8.2h2.3v-1.7h3.9v1.8c0,0,4.3,0.1,4.3,0c0-0.1,0-11.7,0-11.7h-0.7v-1.4h17.8
								v1.5H572v21.3h2.4v2.4h0.8v-16.7h3.7V147h6.1v2.1h3.7V168h8v1.8h5.3v-29.2h7.7v-3.7h3.8v-2.3h6.8v2.1h2.9v7.7h7.3v-2.2h4.9
								v2.4h3.8v34.5h0.8v-0.8h3.4v0.9h6.7v1.8h14.3v-6.3h23.5v1.9h17.3v2.2h14.5v3.2h27.9v4.3H623v1.3v0H378v-12V171h5.5v-12.4h13
								v8.1h2.7h1.8v-20.8h1.4v-1.2h0.8h0.2c0.4-1.6,1.9-2.8,3.6-2.8c1.8,0,3.2,1.2,3.6,2.8h1v1.3h1v12.2h3.1v10.2h0.5V158h0.8v-9.7
								h1v-0.9h0.6v-1.1l1.5-1.5h4.4l1.3,1.8v0.9h0.7v1h0.7v9.9h0.8v6.7h0.9v-10.5h0.7V153h0.7v-0.9h0.7v-0.9h2.1v0.9h0.7v1.1h0.6
								v1.5h0.5v0.9h1.2v2.3h1.9v-1.1h0.3v-1.2h0.8V154h0.3v-0.6h0.2v-0.8h1.3v0.8h2.4v1.7h1.8v-5.5h1.2l3.7,1.4v1.5h1.9v16.7
								c0,0,1.9,0.1,1.9,0c0-0.1,0-9.6,0-9.6h1v-0.8h0.2v-0.5h0.3v-0.4h1v0.5h0.3v0.5h0.3V157h2.4v13.4h0.4v-8.1h2v-10.9h1.9v-3.9
								h0.8v-1.7h2.1v1.7h0.6v0.6h0.6v2.8h0.7v1.3h3.4v1.8h0.8v5.4h0.7v1h0.8v0.9h0.4v-3.7H477.2z"/>
							<path id="Combined-Shape_2_" fill="#7D7D7D" d="M539,172.3v-5.6h4.6v7h2.5v-0.1h0.8v-0.1h1.3v-1.1h0.3v-0.9h5v-5.9h15.1v4
								h1.6v0.1h3.1v-3h1.4v-1.5h10.8v0.6h0.5v-1.3h4.5v1.3h1.8v7.4h5.1v1.9h3.5v2.4h1.7v-1.9h3v1.9h2.2v-5.5h0.1v-5h4.3V165h2.1
								v2.1h4.3v5.3h3.5v3.3h1.2v-0.3h2.3v-1.6h2.8v-0.1h2.1v-1.2h5.4v-6.8H651v4.1h8.1v-0.9h1.5V168h2.3v1h1.4v4.2h2.2v-7.4h2v-1.3
								h4.5v1.3h1.8v4h0.4v3.4h4.7v0.7h8.7v1.7h1.4v3.2h0.3v-6.8h5.6v0.2h2.3v6.6h2.7v-9h1.2v-1.3h9.3v1.3h1.2v3.6h3.1v0.3h2.6v1.6
								h2.2v1.7h1.1v2.2h9.1v-9h3.7v-1.8h1.8v1.8h3.7v4.5h3v2.8h10.7v-7.6h1.1v-1h13v3.6h9v3h1v-3.1h2.8v3.1h0.5v-6.4h1.7V168h3.9
								v0.5h7.1v1.3h1.2v3.6h3.1v3.7h5.9v2.2h9.1v-9h3.7v-1.8h1.8v1.8h3.7v3.6h8.2v1.6h2.3v2.1h2.8v-0.7h1.6v-7.9h13v3.6h1v-0.6h2.2
								v-2h10.1v-0.7h1.7V168h3.9v1.1h1.5v6.4h3.6V169h1.4v-1h0.2v-0.3h5.6v9.9h0.6v4.1h2.1v-1.9h0.7v-0.5h1.4V176h9.3v-2h1.6v-1.6
								h0.3v-1.8h4.9v1.8h5.6v1.2h2.1v0.1h2.8v1.6h2.3v2.9h2v-0.8h0.7v-0.6h7.1v-4.7h2.3v-0.5h1.4v-1.5h1.6v-2h10.8v1.6h2.1v0.2h2.8
								v2h2.3v2.6h3.4v1h2.8v-0.9h2.1V169h1.4v-1h0.2v-0.3h5.6v0.3h7.9v2h1.6v1.5h1.4v4.4h3.4v-2h1.6v-1.6h0.3v-1.8h4.9v1.8h5.6v1.2
								h2.1h1.5v-1.2h10.8v1.6h1.6v2h3.4v-4.4h1.4v-1.5h1.6v-2h7.9v-0.3h5.6v0.3h0.2v1h1.4v5.5h2.1v0.9h2.8v-1h3.4v-2.6h2.3v-2h2.8
								v-0.2h2.1V168h10.8v2h1.6v1.5h1.4v0.5h2.3v4.7h7.1v0.6h0.7v0.8h2v-2.9h2.3v-1.6h2.8v-0.1h2.1v-1.2h5.6v-1.8h4.9v1.8h0.3v1.6
								h1.6v2h9.3v3.3h1.4v0.5h0.7v2h2.8v-14.1h5.6v0.3h0.2v1h1.4v9.8h2.4v2.5h2.5v-7h3.4v-2.6h2.3v-2h10.2v2h2.2v8.5h2v2.5h0.9
								v-10.6h5.6v4.7h7.1v3.3h2.8v-4.7h2.3v-1.6h10.2v1.6h2.2v6.6h0.8v0.1h1.2v2h2.5v-4.7h11.2v2.6h9.7v3.4h5.4v-1.9h3.2v1.9h4.1
								v2.2h4.4v1.6h-2.4h-138h-33.1H891H739.8H585.9h-81.7h-2.4H327.4H245v-3.3h6.4v-2.7h4.7v-8h3.9v8h4.4v-3.8h0.9v-0.9h5.6v0.9
								h0.8v3.7h1.7v-5.6h2.8v5.8h0.9v-1.9h2.6v-3.2h3.8v4.5h4.1v-9.1h2.1v-1.2h10.8v1.6h1.6v9.2h2.2v-2.2h2.1v2.2h2.2v-3.4h4.9v4.5
								h4.8v-15.4h1.5V168h2.3v1h1.4v12.3h4.9v-7h4.9v4.4h5.3v-3.5h3.9v3.5h2v4.4h2.4v-3.8h0.9v-0.9h1.6v-6.3h5.6v8.8h0.8v-3.5h2.8
								v1.9h0.6v-0.9h2.9v-0.2h2.7v-2.9h2.3v-1.6h2.8v-0.1h2.1v-1.2h10.8v1.2h0.7v-1.2h10.8v1.6h1.6v8h2.2v-1h2.1v1h0.4v-13.1h1.5
								V168h2.3v1h1.4v10.8h1.5v1.5h3.4v-7h1.4v-5.5h1.5V168h2.3v1h1.4v9.7h4.9v-4.4h4.9v4.4h4.6v-6.6h5.6v6.6h0.9v2.2h2.4v-1.6h0.9
								v-0.9h1.6v-6.3h5.6v3.2h0.7v-1.6h7.2v-7h4.6v7h2.5v-0.1h0.8v-0.1h1.3v-1.1h0.3v-0.9h10.6v2h1.6v3.8h6.3v-7.6h3.3v7.6h3.1
								v-10.5h1.4v-1.5h10.8v1.5h1.4v4.1h3.6v3.5h1.2v0.8h5.7v0.1h3.5v2.4h6.9v-5.5h0.1v-5h4.3V165h2.1v2.1h4.3v5.3H539z"/>
							<path id="Combined-Shape-Copy-3" fill="#7D7D7D" d="M757.7,180.9v-3.7h5.4v-10.5h4.6v7h3.3v-0.2h1.6v-2h10.6v2h1.6v3.8h6.3
								v-7.6h3.3v7.6h3.1v-10.5h1.4v-1.5h10.8v1.5h1.4v4.1h3.6v4.3h6.9v0.1h3.5v2.4h7v-10.5h4.3V165h2.1v2.1h4.3v5.3h3.5v3.3h6.3v-2
								h2.1v-1.2h5.4v-6.8h15.1v4.1h8.1v-0.9h1.5V168h2.3v1h1.4v4.2h2.2v-7.4h2v-1.3h4.5v1.3h1.8v7.4h5.1v4.5h5.1v-2h3v4.8h2.2v-8.4
								h5.6v8.8h3.9v2.6h3.9v-2.2h2v-6h2.3v-1.6h10.2v1.6h2.2v6.7h2v2h2.5v-4.7h11.2v2.6h9.7v3.4h3.2v-6.4h4.6v-9h4v9h2.8v-3.2h1.4
								v-1.7h9.2v1.7h1.4v3.2h5.4v-6.6h2.8v6.6h2.7v-9h1.2v-1.3h9.3v1.3h1.2v3.6h3.1v3.7h5.9v2.2h9.1v-9h3.7v-1.8h1.8v1.8h3.7v4.5h3
								v2.8h11.9v-8.6h13v3.6h9v3h4.3v-6.4h1.7V168h3.9v1.1h1.5v6.4h4.4v3.9h4.4v-1.7h2.6v4.1h2.9v-2.4h11.2v4.7h2.5v-2h1.2V182h0.8
								v-6.6h2.2v-1.6h10.2v1.6h2.3v4.7h2.8v-3.3h7.1v-4.7h5.6v10.6h0.9v-2.5h2l2-0.1v-1.4h11.2v-4.4h4.9v7h2.5v-2.5h3.9l5.6,3h2.8
								v-2h2.1V176h9.3v-2h1.6v-1.6h4.3l9.5-8.7h1.5v19h1.7v-4.5h3.1v-0.8h4.9v0h2v4.2h0.2v-2.8h2.1v0.5h0.2v-0.9h2v-8.3h1.6v-2
								h10.8v1.6h2.1V181h4.1v-5.6h3.8v4.1h2.6v2.3h0.9v-7.4h2.8v7h1.7v-4.7h0.8v-1.2h0.6v-0.5h3.9v0.5h1v1.2h0.9v4.8h2.5v-2.3h0.9
								v-0.9h1v-6.8h3.9v6.8h0.6v0.9h0.8v2.3h1.7v-4.1h2.8v5.8h0.9v-1.9h2.6v-3.2h3.8v4.5h4.1v-9.1l14.5,9.6h2.2v-2.2h2.1v2.2h2.2
								v-3.4h4.9v4.5h4.8l5.2-3h4.9l4.9-2.6h11.2v4.6h4.9v-11.2h5.6v8.8h3.9v2.6h3.9v-2.2h2l14.7-0.6l2,1.4v2h2.5v-4.7h11.2v2.6h9.7
								v3.4h5.4v-1.9h3.2v1.9h4.1v2.2h4.4v1.6h-2.4h-138h-33.1h-143.8H963.9H810h-81.7h-2.4H551.5v-3.3h6.4v-2.7h4.7v-8h3.9v8h4.4
								v-3.8h0.9v-0.9h5.6v0.9h0.8v3.7h1.7v-5.6h2.8v5.8h0.9v-1.9h2.6v-3.2h3.8v4.5h4.1v-9.1h2.1v-1.2h10.8v1.6h1.6v9.2h2.2v-2.2
								h2.1v2.2h2.2v-3.4h4.9v4.5h4.8v-15.4h1.5V168h2.3v1h1.4v12.3h4.9v-7h4.9v4.4h11.2v4.6h0.8v-0.2h4.1v-11h5.6v8.8h3.4v-1.6h0.9
								v-0.9h5.6v-3.1h2.3v-1.6h10.2v1.6h2.2v6.7h1.9v-8.5h2.1v-1.2h10.8v1.6h1.6v8h2.2v-1h2.1v1h2.2v-2.1h4.9v4.5h2.9v-0.9h1.9
								v-14.6h1.5V168h2.3v1h1.4v12.3h4.9v-7h4.9v4.4h11.2v4.6h4.9v-11.2h5.6v8.8H757.7z"/>
						</g>
					</g>
				</g>
			</g>
			<g id="titlearea" transform="translate(256.000000, 4.000000)">
				<g enable-background="new    ">
					<path d="M273.8,137.6c0.2-0.6,0.5-1.2,1-1.7s0.9-0.8,1.5-1.1s1.3-0.4,2.1-0.4c0.8,0,1.5,0.1,2.1,0.4c0.6,0.3,1.1,0.6,1.5,1.1
						s0.7,1,1,1.7c0.2,0.6,0.3,1.3,0.3,2.1c0,0.7-0.1,1.4-0.3,2s-0.5,1.2-1,1.6c-0.4,0.5-0.9,0.8-1.5,1.1c-0.6,0.3-1.3,0.4-2.1,0.4
						c-0.8,0-1.5-0.1-2.1-0.4c-0.6-0.3-1.1-0.6-1.5-1.1c-0.4-0.5-0.7-1-1-1.6c-0.2-0.6-0.3-1.3-0.3-2
						C273.5,138.9,273.6,138.2,273.8,137.6z M275.8,140.9c0.1,0.4,0.3,0.8,0.5,1.1c0.2,0.3,0.5,0.6,0.8,0.8c0.3,0.2,0.8,0.3,1.3,0.3
						s0.9-0.1,1.3-0.3c0.3-0.2,0.6-0.4,0.8-0.8s0.4-0.7,0.5-1.1c0.1-0.4,0.1-0.8,0.1-1.2c0-0.4,0-0.9-0.1-1.3
						c-0.1-0.4-0.3-0.8-0.5-1.1s-0.5-0.6-0.8-0.8c-0.3-0.2-0.8-0.3-1.3-0.3s-0.9,0.1-1.3,0.3s-0.6,0.4-0.8,0.8
						c-0.2,0.3-0.4,0.7-0.5,1.1c-0.1,0.4-0.1,0.8-0.1,1.3C275.7,140.1,275.7,140.5,275.8,140.9z"/>
					<path d="M289.5,144.6v-1h0c-0.3,0.4-0.6,0.7-1,0.9s-0.8,0.3-1.2,0.3c-0.5,0-1-0.1-1.3-0.2c-0.3-0.1-0.6-0.3-0.8-0.6
						c-0.2-0.3-0.3-0.6-0.4-0.9c-0.1-0.4-0.1-0.8-0.1-1.2v-4.5h2v4.1c0,0.6,0.1,1,0.3,1.3c0.2,0.3,0.5,0.4,1,0.4
						c0.5,0,0.9-0.2,1.2-0.5c0.2-0.3,0.4-0.9,0.4-1.6v-3.8h2v7.2H289.5z"/>
					<path d="M294.8,137.4v1.3h0c0.1-0.2,0.2-0.4,0.4-0.6s0.3-0.4,0.5-0.5c0.2-0.1,0.4-0.2,0.7-0.3c0.2-0.1,0.5-0.1,0.7-0.1
						c0.1,0,0.3,0,0.4,0.1v1.8c-0.1,0-0.2,0-0.3,0c-0.1,0-0.3,0-0.4,0c-0.4,0-0.7,0.1-0.9,0.2c-0.3,0.1-0.5,0.3-0.6,0.5
						c-0.2,0.2-0.3,0.5-0.3,0.7s-0.1,0.6-0.1,0.9v3.3h-2v-7.2H294.8z"/>
					<path d="M307.8,134.6c0.4,0,0.9,0.1,1.2,0.2c0.4,0.1,0.7,0.3,0.9,0.6c0.3,0.3,0.5,0.5,0.6,0.9c0.1,0.3,0.2,0.7,0.2,1.1
						c0,0.6-0.1,1.1-0.4,1.5c-0.2,0.4-0.7,0.8-1.2,1v0c0.3,0.1,0.5,0.2,0.7,0.3c0.2,0.2,0.3,0.3,0.4,0.5c0.1,0.2,0.2,0.4,0.2,0.7
						s0.1,0.5,0.1,0.8c0,0.2,0,0.3,0,0.6s0,0.4,0,0.7c0,0.2,0.1,0.4,0.1,0.6c0.1,0.2,0.1,0.4,0.2,0.5h-2.2c-0.1-0.3-0.2-0.7-0.2-1.1
						c0-0.4-0.1-0.9-0.1-1.3c-0.1-0.5-0.2-0.9-0.5-1.1c-0.2-0.2-0.6-0.4-1.2-0.4h-2.2v3.9h-2.2v-10H307.8z M307,139.1
						c0.5,0,0.9-0.1,1.1-0.3c0.3-0.2,0.4-0.6,0.4-1.1c0-0.5-0.1-0.8-0.4-1.1c-0.3-0.2-0.6-0.3-1.1-0.3h-2.4v2.8H307z"/>
					<path d="M314.4,142.9c0.3,0.3,0.7,0.4,1.3,0.4c0.4,0,0.7-0.1,1-0.3c0.3-0.2,0.5-0.4,0.5-0.6h1.8c-0.3,0.9-0.7,1.5-1.3,1.9
						c-0.6,0.4-1.3,0.6-2.1,0.6c-0.6,0-1.1-0.1-1.5-0.3c-0.5-0.2-0.8-0.4-1.2-0.8s-0.6-0.7-0.7-1.2c-0.2-0.5-0.3-1-0.3-1.5
						c0-0.5,0.1-1,0.3-1.5s0.4-0.9,0.8-1.2c0.3-0.3,0.7-0.6,1.2-0.8c0.5-0.2,1-0.3,1.5-0.3c0.6,0,1.2,0.1,1.6,0.4
						c0.5,0.2,0.8,0.6,1.1,1s0.5,0.9,0.6,1.4c0.1,0.5,0.2,1,0.1,1.6H314C314,142.1,314.1,142.6,314.4,142.9z M316.7,139.1
						c-0.2-0.3-0.6-0.4-1.1-0.4c-0.3,0-0.6,0.1-0.8,0.2c-0.2,0.1-0.4,0.2-0.5,0.4c-0.1,0.2-0.2,0.3-0.3,0.5
						c-0.1,0.2-0.1,0.3-0.1,0.5h3.2C317.1,139.7,316.9,139.3,316.7,139.1z"/>
					<path d="M322.2,137.4v0.9h0c0.2-0.4,0.6-0.7,0.9-0.9c0.4-0.2,0.8-0.3,1.2-0.3c0.6,0,1.1,0.1,1.5,0.3c0.4,0.2,0.8,0.5,1,0.9
						c0.3,0.4,0.5,0.8,0.6,1.2c0.1,0.5,0.2,1,0.2,1.5c0,0.5-0.1,1-0.2,1.4c-0.1,0.4-0.3,0.8-0.6,1.2c-0.3,0.3-0.6,0.6-1,0.8
						c-0.4,0.2-0.9,0.3-1.4,0.3c-0.4,0-0.9-0.1-1.2-0.3c-0.4-0.2-0.7-0.5-0.9-0.8h0v3.4h-2v-9.8H322.2z M324.8,143.1
						c0.2-0.1,0.4-0.3,0.5-0.5c0.1-0.2,0.2-0.5,0.3-0.7c0.1-0.3,0.1-0.6,0.1-0.9s0-0.6-0.1-0.9c-0.1-0.3-0.2-0.5-0.3-0.7
						c-0.1-0.2-0.3-0.4-0.5-0.5c-0.2-0.1-0.5-0.2-0.8-0.2c-0.3,0-0.6,0.1-0.8,0.2c-0.2,0.1-0.4,0.3-0.5,0.5s-0.2,0.5-0.3,0.7
						c-0.1,0.3-0.1,0.6-0.1,0.9c0,0.3,0,0.6,0.1,0.9c0.1,0.3,0.2,0.5,0.3,0.7s0.3,0.4,0.5,0.5c0.2,0.1,0.5,0.2,0.8,0.2
						C324.3,143.3,324.6,143.2,324.8,143.1z"/>
					<path d="M328.9,139.4c0.2-0.5,0.4-0.9,0.8-1.2c0.3-0.3,0.7-0.6,1.2-0.8c0.5-0.2,1-0.3,1.5-0.3s1.1,0.1,1.5,0.3
						c0.5,0.2,0.9,0.4,1.2,0.8c0.3,0.3,0.6,0.7,0.8,1.2c0.2,0.5,0.3,1,0.3,1.6c0,0.6-0.1,1.1-0.3,1.6s-0.4,0.9-0.8,1.2
						s-0.7,0.6-1.2,0.8s-1,0.3-1.5,0.3s-1.1-0.1-1.5-0.3c-0.5-0.2-0.8-0.4-1.2-0.8c-0.3-0.3-0.6-0.7-0.8-1.2s-0.3-1-0.3-1.6
						C328.7,140.4,328.8,139.9,328.9,139.4z M330.8,141.8c0.1,0.3,0.2,0.5,0.3,0.7c0.1,0.2,0.3,0.4,0.5,0.5c0.2,0.1,0.5,0.2,0.8,0.2
						s0.6-0.1,0.8-0.2c0.2-0.1,0.4-0.3,0.5-0.5c0.1-0.2,0.2-0.5,0.3-0.7c0.1-0.3,0.1-0.6,0.1-0.8c0-0.3,0-0.6-0.1-0.9
						c-0.1-0.3-0.2-0.5-0.3-0.7s-0.3-0.4-0.5-0.5c-0.2-0.1-0.5-0.2-0.8-0.2s-0.6,0.1-0.8,0.2c-0.2,0.1-0.4,0.3-0.5,0.5
						c-0.1,0.2-0.2,0.5-0.3,0.7s-0.1,0.6-0.1,0.9C330.7,141.3,330.7,141.6,330.8,141.8z"/>
					<path d="M339.4,137.4v1.3h0c0.1-0.2,0.2-0.4,0.4-0.6s0.3-0.4,0.5-0.5c0.2-0.1,0.4-0.2,0.7-0.3c0.2-0.1,0.5-0.1,0.7-0.1
						c0.1,0,0.3,0,0.4,0.1v1.8c-0.1,0-0.2,0-0.3,0c-0.1,0-0.3,0-0.4,0c-0.4,0-0.7,0.1-0.9,0.2c-0.3,0.1-0.5,0.3-0.6,0.5
						c-0.2,0.2-0.3,0.5-0.3,0.7s-0.1,0.6-0.1,0.9v3.3h-2v-7.2H339.4z"/>
					<path d="M346.9,137.4v1.3h-1.5v3.6c0,0.3,0.1,0.6,0.2,0.7c0.1,0.1,0.3,0.2,0.7,0.2c0.1,0,0.2,0,0.3,0c0.1,0,0.2,0,0.3,0v1.5
						c-0.2,0-0.4,0-0.6,0.1c-0.2,0-0.4,0-0.6,0c-0.3,0-0.6,0-0.9-0.1s-0.5-0.1-0.7-0.2c-0.2-0.1-0.4-0.3-0.5-0.5
						c-0.1-0.2-0.2-0.5-0.2-0.9v-4.3h-1.2v-1.3h1.2v-2.2h2v2.2H346.9z"/>
					<path d="M347.9,136.2v-1.6h2v1.6H347.9z M349.9,137.4v7.2h-2v-7.2H349.9z"/>
					<path d="M353.3,137.4v1h0c0.3-0.4,0.6-0.7,1-0.9c0.4-0.2,0.8-0.3,1.2-0.3c0.5,0,1,0.1,1.3,0.2s0.6,0.3,0.8,0.6
						c0.2,0.3,0.3,0.6,0.4,0.9c0.1,0.4,0.1,0.8,0.1,1.2v4.5h-2v-4.1c0-0.6-0.1-1-0.3-1.3s-0.5-0.4-1-0.4c-0.5,0-0.9,0.2-1.2,0.5
						s-0.4,0.9-0.4,1.6v3.8h-2v-7.2H353.3z"/>
					<path d="M366.6,145.1c-0.1,0.4-0.2,0.7-0.5,1s-0.6,0.6-1.1,0.8c-0.5,0.2-1.2,0.3-2,0.3c-0.4,0-0.7,0-1.1-0.1s-0.7-0.2-1-0.4
						c-0.3-0.2-0.6-0.4-0.8-0.7s-0.3-0.6-0.3-1.1h2c0.1,0.4,0.3,0.6,0.5,0.8c0.3,0.1,0.6,0.2,0.9,0.2c0.6,0,1-0.2,1.2-0.5
						c0.3-0.3,0.4-0.8,0.4-1.3v-1h0c-0.2,0.4-0.5,0.7-0.9,0.8c-0.4,0.2-0.8,0.3-1.3,0.3c-0.5,0-1-0.1-1.4-0.3s-0.7-0.5-1-0.8
						c-0.3-0.3-0.4-0.7-0.6-1.2c-0.1-0.4-0.2-0.9-0.2-1.4c0-0.5,0.1-0.9,0.2-1.4c0.1-0.4,0.3-0.8,0.6-1.1c0.3-0.3,0.6-0.6,1-0.8
						c0.4-0.2,0.8-0.3,1.3-0.3c0.5,0,0.9,0.1,1.3,0.3c0.4,0.2,0.7,0.5,0.9,0.9h0v-1h1.9v6.8C366.7,144.4,366.7,144.8,366.6,145.1z
						 M363.9,142.7c0.2-0.1,0.4-0.3,0.5-0.4c0.1-0.2,0.2-0.4,0.3-0.6c0.1-0.2,0.1-0.5,0.1-0.7c0-0.3,0-0.6-0.1-0.8
						c-0.1-0.3-0.1-0.5-0.3-0.7s-0.3-0.4-0.5-0.5s-0.5-0.2-0.8-0.2c-0.3,0-0.5,0.1-0.7,0.2c-0.2,0.1-0.4,0.3-0.5,0.5
						c-0.1,0.2-0.2,0.4-0.3,0.7c-0.1,0.2-0.1,0.5-0.1,0.8c0,0.3,0,0.5,0.1,0.8c0.1,0.3,0.1,0.5,0.3,0.7c0.1,0.2,0.3,0.4,0.5,0.5
						c0.2,0.1,0.5,0.2,0.8,0.2C363.4,142.9,363.6,142.8,363.9,142.7z"/>
					<path d="M374.6,134.6v10h-2.2v-10H374.6z"/>
					<path d="M378.2,137.4v1h0c0.3-0.4,0.6-0.7,1-0.9c0.4-0.2,0.8-0.3,1.2-0.3c0.5,0,1,0.1,1.3,0.2s0.6,0.3,0.8,0.6
						c0.2,0.3,0.3,0.6,0.4,0.9c0.1,0.4,0.1,0.8,0.1,1.2v4.5h-2v-4.1c0-0.6-0.1-1-0.3-1.3s-0.5-0.4-1-0.4c-0.5,0-0.9,0.2-1.2,0.5
						c-0.2,0.3-0.4,0.9-0.4,1.6v3.8h-2v-7.2H378.2z"/>
					<path d="M387.7,134.6h2.5l2.3,3.9l2.3-3.9h2.5l-3.7,6.2v3.8h-2.2v-3.9L387.7,134.6z"/>
					<path d="M396.3,139.4c0.2-0.5,0.4-0.9,0.8-1.2c0.3-0.3,0.7-0.6,1.2-0.8c0.5-0.2,1-0.3,1.5-0.3s1.1,0.1,1.5,0.3
						c0.5,0.2,0.9,0.4,1.2,0.8c0.3,0.3,0.6,0.7,0.8,1.2c0.2,0.5,0.3,1,0.3,1.6c0,0.6-0.1,1.1-0.3,1.6c-0.2,0.5-0.4,0.9-0.8,1.2
						c-0.3,0.3-0.7,0.6-1.2,0.8s-1,0.3-1.5,0.3s-1.1-0.1-1.5-0.3s-0.8-0.4-1.2-0.8c-0.3-0.3-0.6-0.7-0.8-1.2c-0.2-0.5-0.3-1-0.3-1.6
						C396.1,140.4,396.2,139.9,396.3,139.4z M398.2,141.8c0.1,0.3,0.2,0.5,0.3,0.7c0.1,0.2,0.3,0.4,0.5,0.5s0.5,0.2,0.8,0.2
						s0.6-0.1,0.8-0.2c0.2-0.1,0.4-0.3,0.5-0.5c0.1-0.2,0.2-0.5,0.3-0.7c0.1-0.3,0.1-0.6,0.1-0.8c0-0.3,0-0.6-0.1-0.9
						c-0.1-0.3-0.2-0.5-0.3-0.7c-0.1-0.2-0.3-0.4-0.5-0.5c-0.2-0.1-0.5-0.2-0.8-0.2s-0.6,0.1-0.8,0.2c-0.2,0.1-0.4,0.3-0.5,0.5
						s-0.2,0.5-0.3,0.7c-0.1,0.3-0.1,0.6-0.1,0.9C398.1,141.3,398.1,141.6,398.2,141.8z"/>
					<path d="M409.8,144.6v-1h0c-0.3,0.4-0.6,0.7-1,0.9s-0.8,0.3-1.2,0.3c-0.5,0-1-0.1-1.3-0.2c-0.3-0.1-0.6-0.3-0.8-0.6
						c-0.2-0.3-0.3-0.6-0.4-0.9c-0.1-0.4-0.1-0.8-0.1-1.2v-4.5h2v4.1c0,0.6,0.1,1,0.3,1.3c0.2,0.3,0.5,0.4,1,0.4
						c0.5,0,0.9-0.2,1.2-0.5c0.2-0.3,0.4-0.9,0.4-1.6v-3.8h2v7.2H409.8z"/>
					<path d="M415,137.4v1.3h0c0.1-0.2,0.2-0.4,0.4-0.6c0.2-0.2,0.3-0.4,0.5-0.5c0.2-0.1,0.4-0.2,0.7-0.3c0.2-0.1,0.5-0.1,0.7-0.1
						c0.1,0,0.3,0,0.4,0.1v1.8c-0.1,0-0.2,0-0.3,0c-0.1,0-0.3,0-0.4,0c-0.4,0-0.7,0.1-0.9,0.2c-0.3,0.1-0.5,0.3-0.6,0.5
						s-0.3,0.5-0.3,0.7s-0.1,0.6-0.1,0.9v3.3h-2v-7.2H415z"/>
					<path d="M424.9,134.6v10h-2.2v-10H424.9z"/>
					<path d="M428.5,137.4v1h0c0.3-0.4,0.6-0.7,1-0.9c0.4-0.2,0.8-0.3,1.2-0.3c0.5,0,1,0.1,1.3,0.2s0.6,0.3,0.8,0.6
						c0.2,0.3,0.3,0.6,0.4,0.9c0.1,0.4,0.1,0.8,0.1,1.2v4.5h-2v-4.1c0-0.6-0.1-1-0.3-1.3c-0.2-0.3-0.5-0.4-1-0.4
						c-0.5,0-0.9,0.2-1.2,0.5c-0.2,0.3-0.4,0.9-0.4,1.6v3.8h-2v-7.2H428.5z"/>
					<path d="M436.9,134.6v3.6h0c0.2-0.4,0.6-0.6,1-0.8s0.8-0.3,1.3-0.3c0.4,0,0.7,0.1,1.1,0.2s0.7,0.4,1,0.7
						c0.3,0.3,0.5,0.7,0.7,1.2c0.2,0.5,0.3,1.1,0.3,1.7s-0.1,1.2-0.3,1.7c-0.2,0.5-0.4,0.9-0.7,1.2c-0.3,0.3-0.6,0.5-1,0.7
						s-0.7,0.2-1.1,0.2c-0.5,0-1-0.1-1.4-0.3s-0.7-0.5-1-0.9h0v0.9h-1.9v-10H436.9z M440.1,140.1c-0.1-0.3-0.2-0.5-0.3-0.7
						c-0.1-0.2-0.3-0.4-0.5-0.5s-0.5-0.2-0.8-0.2c-0.3,0-0.5,0.1-0.8,0.2c-0.2,0.1-0.4,0.3-0.5,0.5c-0.1,0.2-0.2,0.5-0.3,0.7
						c-0.1,0.3-0.1,0.6-0.1,0.9c0,0.3,0,0.6,0.1,0.9c0.1,0.3,0.2,0.5,0.3,0.7s0.3,0.4,0.5,0.5c0.2,0.1,0.5,0.2,0.8,0.2
						c0.3,0,0.6-0.1,0.8-0.2s0.4-0.3,0.5-0.5c0.1-0.2,0.2-0.5,0.3-0.7s0.1-0.6,0.1-0.9C440.2,140.7,440.2,140.4,440.1,140.1z"/>
					<path d="M443.5,139.4c0.2-0.5,0.4-0.9,0.8-1.2c0.3-0.3,0.7-0.6,1.2-0.8c0.5-0.2,1-0.3,1.5-0.3s1.1,0.1,1.5,0.3
						c0.5,0.2,0.9,0.4,1.2,0.8c0.3,0.3,0.6,0.7,0.8,1.2c0.2,0.5,0.3,1,0.3,1.6c0,0.6-0.1,1.1-0.3,1.6s-0.4,0.9-0.8,1.2
						c-0.3,0.3-0.7,0.6-1.2,0.8s-1,0.3-1.5,0.3s-1.1-0.1-1.5-0.3c-0.5-0.2-0.8-0.4-1.2-0.8c-0.3-0.3-0.6-0.7-0.8-1.2s-0.3-1-0.3-1.6
						C443.3,140.4,443.3,139.9,443.5,139.4z M445.3,141.8c0.1,0.3,0.2,0.5,0.3,0.7c0.1,0.2,0.3,0.4,0.5,0.5c0.2,0.1,0.5,0.2,0.8,0.2
						c0.3,0,0.6-0.1,0.8-0.2s0.4-0.3,0.5-0.5c0.1-0.2,0.2-0.5,0.3-0.7c0.1-0.3,0.1-0.6,0.1-0.8c0-0.3,0-0.6-0.1-0.9
						c-0.1-0.3-0.2-0.5-0.3-0.7c-0.1-0.2-0.3-0.4-0.5-0.5c-0.2-0.1-0.5-0.2-0.8-0.2c-0.3,0-0.6,0.1-0.8,0.2
						c-0.2,0.1-0.4,0.3-0.5,0.5c-0.1,0.2-0.2,0.5-0.3,0.7c-0.1,0.3-0.1,0.6-0.1,0.9C445.2,141.3,445.3,141.6,445.3,141.8z"/>
					<path d="M451.5,137.4h2.3l1.3,1.9l1.3-1.9h2.2l-2.4,3.4l2.7,3.8h-2.3l-1.5-2.3l-1.5,2.3h-2.2l2.6-3.8L451.5,137.4z"/>
				</g>
				<g enable-background="new    ">
					<path d="M256.1,86c-0.2-0.3-0.4-0.6-0.7-0.8c-0.3-0.2-0.6-0.4-1-0.6c-0.4-0.1-0.8-0.2-1.2-0.2c-0.7,0-1.4,0.1-1.9,0.4
						s-0.9,0.7-1.3,1.2c-0.3,0.5-0.6,1-0.7,1.6s-0.2,1.3-0.2,1.9c0,0.6,0.1,1.2,0.2,1.8c0.1,0.6,0.4,1.1,0.7,1.6
						c0.3,0.5,0.7,0.9,1.3,1.1c0.5,0.3,1.1,0.4,1.9,0.4c1,0,1.8-0.3,2.4-0.9c0.6-0.6,0.9-1.4,1-2.4h3.2c-0.1,0.9-0.3,1.8-0.7,2.5
						c-0.4,0.8-0.8,1.4-1.4,1.9c-0.6,0.5-1.2,0.9-2,1.2s-1.6,0.4-2.5,0.4c-1.1,0-2.2-0.2-3.1-0.6c-0.9-0.4-1.7-0.9-2.3-1.6
						s-1.1-1.5-1.4-2.5c-0.3-0.9-0.5-2-0.5-3.1c0-1.1,0.2-2.2,0.5-3.1c0.3-1,0.8-1.8,1.4-2.5c0.6-0.7,1.4-1.3,2.3-1.7
						c0.9-0.4,1.9-0.6,3.1-0.6c0.8,0,1.6,0.1,2.3,0.4c0.7,0.2,1.4,0.6,2,1s1.1,1,1.4,1.7s0.6,1.4,0.7,2.3h-3.2
						C256.4,86.7,256.3,86.3,256.1,86z"/>
					<path d="M261.8,84.5V82h3v2.5H261.8z M264.8,86.1V97h-3V86.1H264.8z"/>
					<path d="M273.1,86.1v2h-2.2v5.4c0,0.5,0.1,0.8,0.3,1c0.2,0.2,0.5,0.3,1,0.3c0.2,0,0.3,0,0.5,0c0.2,0,0.3,0,0.4-0.1V97
						c-0.3,0-0.5,0.1-0.8,0.1s-0.6,0-0.9,0c-0.5,0-0.9,0-1.3-0.1c-0.4-0.1-0.8-0.2-1.1-0.4c-0.3-0.2-0.6-0.4-0.7-0.8
						c-0.2-0.3-0.3-0.8-0.3-1.3v-6.4h-1.8v-2h1.8v-3.3h3v3.3H273.1z"/>
					<path d="M278.5,100.2c-0.6,0.4-1.4,0.6-2.4,0.6c-0.3,0-0.6,0-0.9,0c-0.3,0-0.6,0-0.9-0.1v-2.5c0.3,0,0.6,0.1,0.9,0.1
						c0.3,0,0.6,0,0.9,0c0.4,0,0.7-0.2,0.9-0.5s0.3-0.6,0.3-0.9c0-0.2,0-0.5-0.1-0.7l-3.8-10.2h3.2l2.5,7.4h0l2.4-7.4h3.1l-4.5,12.2
						C279.5,99.2,279.1,99.9,278.5,100.2z"/>
					<path d="M294.9,82v12.2h7.3V97h-10.6V82H294.9z"/>
					<path d="M303.8,84.5V82h3v2.5H303.8z M306.8,86.1V97h-3V86.1H306.8z"/>
					<path d="M312,86.1v1.5h0c0.4-0.6,0.9-1,1.4-1.3c0.6-0.3,1.2-0.5,1.9-0.5c0.7,0,1.3,0.1,1.9,0.4s1,0.7,1.3,1.4
						c0.3-0.5,0.8-0.9,1.3-1.3c0.6-0.4,1.2-0.5,2-0.5c0.6,0,1.1,0.1,1.6,0.2c0.5,0.1,0.9,0.4,1.3,0.7c0.4,0.3,0.6,0.7,0.8,1.2
						c0.2,0.5,0.3,1.1,0.3,1.8V97h-3v-6.2c0-0.4,0-0.7,0-1c0-0.3-0.1-0.6-0.2-0.8c-0.1-0.2-0.3-0.4-0.6-0.6c-0.2-0.1-0.6-0.2-1-0.2
						s-0.8,0.1-1,0.2c-0.3,0.2-0.5,0.4-0.6,0.6c-0.1,0.3-0.2,0.6-0.3,0.9c0,0.3-0.1,0.7-0.1,1v6h-3v-6.1c0-0.3,0-0.6,0-1
						c0-0.3-0.1-0.6-0.2-0.9c-0.1-0.3-0.3-0.5-0.5-0.6s-0.6-0.2-1.1-0.2c-0.1,0-0.3,0-0.6,0.1c-0.2,0.1-0.5,0.2-0.7,0.4
						c-0.2,0.2-0.4,0.4-0.6,0.8c-0.2,0.3-0.2,0.8-0.2,1.3V97h-3V86.1H312z"/>
					<path d="M328.2,84.5V82h3v2.5H328.2z M331.2,86.1V97h-3V86.1H331.2z"/>
					<path d="M339.5,86.1v2h-2.2v5.4c0,0.5,0.1,0.8,0.3,1c0.2,0.2,0.5,0.3,1,0.3c0.2,0,0.3,0,0.5,0c0.2,0,0.3,0,0.4-0.1V97
						c-0.3,0-0.5,0.1-0.8,0.1s-0.6,0-0.9,0c-0.5,0-0.9,0-1.3-0.1c-0.4-0.1-0.8-0.2-1.1-0.4c-0.3-0.2-0.6-0.4-0.7-0.8
						c-0.2-0.3-0.3-0.8-0.3-1.3v-6.4h-1.8v-2h1.8v-3.3h3v3.3H339.5z"/>
					<path d="M343.5,94.3c0.1,0.2,0.3,0.4,0.5,0.6c0.2,0.1,0.5,0.3,0.7,0.3s0.6,0.1,0.9,0.1c0.2,0,0.4,0,0.7-0.1s0.4-0.1,0.6-0.2
						c0.2-0.1,0.3-0.2,0.5-0.4c0.1-0.2,0.2-0.4,0.2-0.7c0-0.4-0.3-0.8-0.9-1c-0.6-0.2-1.4-0.4-2.5-0.7c-0.4-0.1-0.9-0.2-1.3-0.3
						c-0.4-0.1-0.8-0.3-1.1-0.5c-0.3-0.2-0.6-0.5-0.8-0.8c-0.2-0.3-0.3-0.7-0.3-1.2c0-0.7,0.1-1.3,0.4-1.7s0.6-0.8,1.1-1.1
						c0.4-0.3,1-0.4,1.5-0.5c0.6-0.1,1.1-0.2,1.7-0.2s1.2,0.1,1.7,0.2c0.6,0.1,1,0.3,1.5,0.6c0.4,0.3,0.8,0.6,1.1,1.1s0.5,1,0.5,1.7
						h-2.8c0-0.6-0.3-1-0.7-1.2c-0.4-0.2-0.9-0.3-1.4-0.3c-0.2,0-0.4,0-0.5,0c-0.2,0-0.4,0.1-0.5,0.1c-0.2,0.1-0.3,0.2-0.4,0.3
						c-0.1,0.1-0.2,0.3-0.2,0.5c0,0.3,0.1,0.5,0.3,0.7c0.2,0.2,0.5,0.3,0.8,0.4c0.3,0.1,0.7,0.2,1.1,0.3s0.8,0.2,1.2,0.3
						c0.4,0.1,0.9,0.2,1.3,0.4c0.4,0.1,0.8,0.3,1.1,0.6c0.3,0.2,0.6,0.5,0.8,0.9c0.2,0.3,0.3,0.8,0.3,1.3c0,0.7-0.1,1.3-0.4,1.8
						s-0.7,0.9-1.1,1.2c-0.5,0.3-1,0.5-1.6,0.6c-0.6,0.1-1.2,0.2-1.8,0.2c-0.6,0-1.2-0.1-1.8-0.2s-1.1-0.3-1.6-0.6s-0.9-0.7-1.2-1.2
						c-0.3-0.5-0.5-1.1-0.5-1.8h2.8C343.3,93.8,343.3,94.1,343.5,94.3z"/>
				</g>
				<g enable-background="new    ">
					<path fill="#FF0000" d="M253.3,103.2l11,17.7h0.1v-17.7h5.4v26.4h-5.8l-11-17.7H253v17.7h-5.4v-26.4H253.3z"/>
					<path fill="#FF0000" d="M280,125c0.8,0.8,1.9,1.1,3.4,1.1c1.1,0,2-0.3,2.7-0.8c0.8-0.5,1.2-1.1,1.4-1.7h4.6
						c-0.7,2.3-1.9,3.9-3.4,4.9c-1.5,1-3.4,1.5-5.6,1.5c-1.5,0-2.9-0.2-4.1-0.7c-1.2-0.5-2.2-1.2-3.1-2.1c-0.8-0.9-1.5-1.9-1.9-3.2
						c-0.5-1.2-0.7-2.6-0.7-4.1c0-1.4,0.2-2.8,0.7-4c0.5-1.2,1.1-2.3,2-3.2c0.9-0.9,1.9-1.6,3.1-2.1c1.2-0.5,2.5-0.8,4-0.8
						c1.6,0,3,0.3,4.3,0.9c1.2,0.6,2.2,1.5,3,2.5c0.8,1.1,1.3,2.3,1.7,3.6c0.3,1.4,0.5,2.8,0.4,4.3h-13.8
						C278.8,123,279.2,124.2,280,125z M286,114.9c-0.6-0.7-1.6-1-2.9-1c-0.8,0-1.5,0.1-2.1,0.4c-0.6,0.3-1,0.6-1.3,1.1
						c-0.3,0.4-0.6,0.9-0.7,1.3c-0.1,0.5-0.2,0.9-0.2,1.3h8.5C287,116.6,286.6,115.6,286,114.9z"/>
					<path fill="#FF0000" d="M312.1,129.6l-3.4-12.8h-0.1l-3.3,12.8h-5.4l-6.1-19.1h5.5l3.5,13h0.1l3.2-13h5.1l3.3,13h0.1l3.5-13
						h5.4l-6,19.1H312.1z"/>
					<path fill="#FF0000" d="M330.2,124.8c0.2,0.4,0.5,0.7,0.9,1c0.4,0.3,0.8,0.5,1.3,0.6s1,0.2,1.5,0.2c0.4,0,0.8,0,1.2-0.1
						c0.4-0.1,0.8-0.2,1.1-0.4c0.3-0.2,0.6-0.4,0.8-0.7s0.3-0.7,0.3-1.2c0-0.8-0.5-1.4-1.6-1.8c-1-0.4-2.5-0.8-4.4-1.2
						c-0.8-0.2-1.5-0.4-2.2-0.6c-0.7-0.2-1.4-0.5-1.9-0.9c-0.6-0.4-1-0.9-1.4-1.4c-0.3-0.6-0.5-1.3-0.5-2.1c0-1.2,0.2-2.2,0.7-3
						c0.5-0.8,1.1-1.4,1.9-1.9c0.8-0.5,1.7-0.8,2.7-1c1-0.2,2-0.3,3-0.3c1,0,2,0.1,3,0.3c1,0.2,1.8,0.5,2.6,1s1.4,1.1,1.9,1.9
						c0.5,0.8,0.8,1.8,0.9,2.9h-5c-0.1-1-0.5-1.7-1.1-2.1c-0.7-0.4-1.5-0.5-2.4-0.5c-0.3,0-0.6,0-1,0.1c-0.3,0-0.7,0.1-0.9,0.2
						c-0.3,0.1-0.5,0.3-0.7,0.5c-0.2,0.2-0.3,0.5-0.3,0.9c0,0.5,0.2,0.9,0.5,1.1c0.3,0.3,0.8,0.5,1.4,0.7c0.6,0.2,1.2,0.4,1.9,0.5
						c0.7,0.1,1.4,0.3,2.2,0.5c0.8,0.2,1.5,0.4,2.2,0.6c0.7,0.2,1.4,0.6,1.9,1c0.6,0.4,1,0.9,1.4,1.5c0.3,0.6,0.5,1.4,0.5,2.2
						c0,1.3-0.3,2.3-0.8,3.2c-0.5,0.9-1.2,1.5-2,2.1c-0.8,0.5-1.7,0.9-2.8,1.1c-1,0.2-2.1,0.3-3.2,0.3c-1.1,0-2.2-0.1-3.3-0.3
						c-1.1-0.2-2-0.6-2.8-1.1c-0.8-0.5-1.5-1.2-2-2.1c-0.5-0.9-0.8-1.9-0.9-3.2h5C329.8,124,330,124.4,330.2,124.8z"/>
					<path fill="#FF0000" d="M351,103.2v26.4h-5.3v-26.4H351z"/>
					<path fill="#FF0000" d="M360.8,125c0.8,0.8,1.9,1.1,3.4,1.1c1.1,0,2-0.3,2.7-0.8c0.8-0.5,1.2-1.1,1.4-1.7h4.6
						c-0.7,2.3-1.9,3.9-3.4,4.9c-1.5,1-3.4,1.5-5.6,1.5c-1.5,0-2.9-0.2-4.1-0.7c-1.2-0.5-2.2-1.2-3.1-2.1c-0.8-0.9-1.5-1.9-1.9-3.2
						c-0.5-1.2-0.7-2.6-0.7-4.1c0-1.4,0.2-2.8,0.7-4c0.5-1.2,1.1-2.3,2-3.2c0.9-0.9,1.9-1.6,3.1-2.1c1.2-0.5,2.5-0.8,4-0.8
						c1.6,0,3,0.3,4.3,0.9c1.2,0.6,2.2,1.5,3,2.5c0.8,1.1,1.3,2.3,1.7,3.6c0.3,1.4,0.5,2.8,0.4,4.3h-13.8
						C359.6,123,360,124.2,360.8,125z M366.7,114.9c-0.6-0.7-1.6-1-2.9-1c-0.8,0-1.5,0.1-2.1,0.4c-0.6,0.3-1,0.6-1.3,1.1
						c-0.3,0.4-0.6,0.9-0.7,1.3c-0.1,0.5-0.2,0.9-0.2,1.3h8.5C367.8,116.6,367.4,115.6,366.7,114.9z"/>
					<path fill="#FF0000" d="M386.9,110.5v3.5h-3.8v9.5c0,0.9,0.1,1.5,0.4,1.8s0.9,0.4,1.8,0.4c0.3,0,0.6,0,0.9,0
						c0.3,0,0.5-0.1,0.8-0.1v4.1c-0.4,0.1-0.9,0.1-1.5,0.1c-0.5,0-1.1,0-1.6,0c-0.8,0-1.6-0.1-2.3-0.2c-0.7-0.1-1.4-0.3-1.9-0.6
						s-1-0.8-1.3-1.4s-0.5-1.4-0.5-2.3V114h-3.2v-3.5h3.2v-5.7h5.3v5.7H386.9z"/>
					<path fill="#FF0000" d="M400,110.5v3.5h-3.8v9.5c0,0.9,0.1,1.5,0.4,1.8c0.3,0.3,0.9,0.4,1.8,0.4c0.3,0,0.6,0,0.8,0
						s0.5-0.1,0.8-0.1v4.1c-0.4,0.1-0.9,0.1-1.5,0.1c-0.5,0-1.1,0-1.6,0c-0.8,0-1.6-0.1-2.3-0.2c-0.7-0.1-1.4-0.3-1.9-0.6
						s-1-0.8-1.3-1.4s-0.5-1.4-0.5-2.3V114h-3.2v-3.5h3.2v-5.7h5.3v5.7H400z"/>
					<path fill="#FF0000" d="M408.1,125c0.8,0.8,1.9,1.1,3.4,1.1c1.1,0,2-0.3,2.7-0.8s1.2-1.1,1.4-1.7h4.6c-0.7,2.3-1.9,3.9-3.4,4.9
						c-1.5,1-3.4,1.5-5.5,1.5c-1.5,0-2.9-0.2-4.1-0.7c-1.2-0.5-2.2-1.2-3.1-2.1c-0.8-0.9-1.5-1.9-1.9-3.2c-0.5-1.2-0.7-2.6-0.7-4.1
						c0-1.4,0.2-2.8,0.7-4c0.5-1.2,1.1-2.3,2-3.2c0.9-0.9,1.9-1.6,3.1-2.1c1.2-0.5,2.5-0.8,4-0.8c1.6,0,3,0.3,4.3,0.9s2.2,1.5,3,2.5
						c0.8,1.1,1.3,2.3,1.7,3.6s0.5,2.8,0.4,4.3h-13.8C406.9,123,407.3,124.2,408.1,125z M414,114.9c-0.6-0.7-1.6-1-2.9-1
						c-0.8,0-1.5,0.1-2.1,0.4c-0.6,0.3-1,0.6-1.3,1.1c-0.3,0.4-0.6,0.9-0.7,1.3s-0.2,0.9-0.2,1.3h8.5
						C415.1,116.6,414.7,115.6,414,114.9z"/>
					<path fill="#FF0000" d="M428.7,110.5v3.6h0.1c0.2-0.6,0.6-1.1,1-1.6c0.4-0.5,0.9-0.9,1.4-1.3c0.5-0.4,1.1-0.6,1.7-0.8
						c0.6-0.2,1.3-0.3,1.9-0.3c0.3,0,0.7,0.1,1.1,0.2v4.9c-0.2,0-0.5-0.1-0.9-0.1c-0.3,0-0.7-0.1-1-0.1c-1,0-1.8,0.2-2.4,0.5
						c-0.7,0.3-1.2,0.8-1.6,1.3c-0.4,0.6-0.7,1.2-0.9,1.9c-0.2,0.7-0.3,1.5-0.3,2.4v8.6h-5.3v-19.1H428.7z"/>
					<path fill="#FF0000" d="M442.5,124.8c0.2,0.4,0.5,0.7,0.9,1c0.4,0.3,0.8,0.5,1.3,0.6s1,0.2,1.5,0.2c0.4,0,0.8,0,1.2-0.1
						c0.4-0.1,0.8-0.2,1.1-0.4c0.3-0.2,0.6-0.4,0.8-0.7s0.3-0.7,0.3-1.2c0-0.8-0.5-1.4-1.6-1.8c-1-0.4-2.5-0.8-4.4-1.2
						c-0.8-0.2-1.5-0.4-2.2-0.6c-0.7-0.2-1.4-0.5-1.9-0.9c-0.6-0.4-1-0.9-1.4-1.4c-0.3-0.6-0.5-1.3-0.5-2.1c0-1.2,0.2-2.2,0.7-3
						c0.5-0.8,1.1-1.4,1.9-1.9c0.8-0.5,1.7-0.8,2.7-1c1-0.2,2-0.3,3-0.3s2,0.1,3,0.3s1.8,0.5,2.6,1s1.4,1.1,1.9,1.9s0.8,1.8,0.9,2.9
						h-5c-0.1-1-0.5-1.7-1.1-2.1c-0.7-0.4-1.5-0.5-2.4-0.5c-0.3,0-0.6,0-1,0.1c-0.3,0-0.7,0.1-0.9,0.2c-0.3,0.1-0.5,0.3-0.7,0.5
						c-0.2,0.2-0.3,0.5-0.3,0.9c0,0.5,0.2,0.9,0.5,1.1c0.3,0.3,0.8,0.5,1.4,0.7c0.6,0.2,1.2,0.4,1.9,0.5c0.7,0.1,1.4,0.3,2.2,0.5
						c0.8,0.2,1.5,0.4,2.2,0.6c0.7,0.2,1.4,0.6,1.9,1c0.6,0.4,1,0.9,1.4,1.5c0.3,0.6,0.5,1.4,0.5,2.2c0,1.3-0.3,2.3-0.8,3.2
						s-1.2,1.5-2,2.1c-0.8,0.5-1.7,0.9-2.8,1.1c-1,0.2-2.1,0.3-3.2,0.3c-1.1,0-2.2-0.1-3.3-0.3c-1.1-0.2-2-0.6-2.8-1.1
						c-0.8-0.5-1.5-1.2-2-2.1c-0.5-0.9-0.8-1.9-0.9-3.2h5C442.2,124,442.3,124.4,442.5,124.8z"/>
				</g>
			</g>
			<g id="SIGN-UP-button" transform="translate(560.000000, 20.000000)">
				<g id="Rectangle">
					<g filter="url(#filter-4)">
						<polygon id="path-3_2_" points="245,77 380,77 380,122 245,122 						"/>
					</g>
					<g>
						<polygon id="path-3_1_" fill="#FF0000" points="245,77 380,77 380,122 245,122 						"/>
					</g>
				</g>
				<g enable-background="new    ">
					<path fill="#FFFFFF" d="M281.8,106.3c-0.8,0-1.5-0.1-2.1-0.3c-0.7-0.2-1.2-0.4-1.7-0.7l-0.6,0.6h-0.7l-0.1-4.5h0.8
						c0.2,0.4,0.4,0.9,0.7,1.4s0.6,0.9,0.9,1.3c0.4,0.4,0.8,0.7,1.2,1c0.4,0.2,1,0.4,1.6,0.4c0.8,0,1.4-0.2,1.8-0.6
						c0.4-0.4,0.6-0.9,0.6-1.5c0-0.5-0.2-0.9-0.5-1.2c-0.4-0.3-0.9-0.6-1.7-0.9c-0.5-0.2-0.9-0.3-1.4-0.4c-0.4-0.1-0.8-0.3-1.2-0.4
						c-0.8-0.3-1.5-0.8-1.9-1.4c-0.4-0.6-0.6-1.3-0.6-2.1c0-0.5,0.1-1,0.3-1.4c0.2-0.4,0.5-0.9,0.9-1.2c0.4-0.3,0.9-0.6,1.5-0.8
						c0.6-0.2,1.3-0.3,2-0.3c0.7,0,1.3,0.1,1.9,0.3s1.1,0.4,1.4,0.6l0.5-0.5h0.8l0.1,4.3h-0.8c-0.2-0.5-0.4-0.9-0.6-1.4
						c-0.2-0.5-0.5-0.9-0.8-1.2c-0.3-0.3-0.6-0.6-1-0.8c-0.4-0.2-0.8-0.3-1.3-0.3c-0.6,0-1.1,0.2-1.6,0.5c-0.4,0.4-0.6,0.8-0.6,1.3
						c0,0.5,0.2,0.9,0.5,1.2c0.3,0.3,0.9,0.6,1.6,0.8c0.4,0.1,0.9,0.3,1.3,0.4s0.9,0.3,1.2,0.4c0.8,0.3,1.5,0.8,1.9,1.4
						c0.4,0.6,0.7,1.3,0.7,2.2c0,0.5-0.1,1.1-0.4,1.6c-0.3,0.5-0.6,0.9-1,1.3c-0.5,0.4-1,0.7-1.6,0.9
						C283.4,106.2,282.7,106.3,281.8,106.3z"/>
					<path fill="#FFFFFF" d="M293.7,106h-5.6v-0.6c0.2,0,0.3,0,0.4,0s0.3,0,0.4-0.1c0.2-0.1,0.3-0.2,0.4-0.3
						c0.1-0.1,0.1-0.3,0.1-0.5v-5.1c0-0.2,0-0.4-0.1-0.5c-0.1-0.2-0.2-0.3-0.4-0.4c-0.1-0.1-0.3-0.1-0.5-0.2
						c-0.2-0.1-0.4-0.1-0.6-0.1v-0.6l4.3-0.2l0.1,0.1v7c0,0.2,0,0.4,0.1,0.5c0.1,0.1,0.2,0.3,0.4,0.3c0.1,0.1,0.2,0.1,0.4,0.1
						s0.3,0.1,0.4,0.1V106z M292.5,94c0,0.4-0.2,0.8-0.5,1.1c-0.3,0.3-0.7,0.5-1.2,0.5c-0.5,0-0.9-0.2-1.2-0.5
						c-0.3-0.3-0.5-0.7-0.5-1.1s0.2-0.8,0.5-1.1c0.3-0.3,0.8-0.5,1.2-0.5s0.9,0.2,1.2,0.5S292.5,93.6,292.5,94z"/>
					<path fill="#FFFFFF" d="M304.4,98.3h-1.9c0.2,0.3,0.4,0.5,0.5,0.8c0.1,0.3,0.2,0.6,0.2,0.9c0,0.4-0.1,0.8-0.3,1.1
						s-0.5,0.6-0.9,0.9c-0.4,0.2-0.8,0.4-1.3,0.5s-1,0.2-1.6,0.2h-1.4c-0.1,0.1-0.1,0.1-0.2,0.3c-0.1,0.1-0.1,0.2-0.1,0.3
						c0,0.3,0.1,0.4,0.3,0.5s0.6,0.2,1.1,0.2c0.5,0,1.1,0,1.6,0.1s0.9,0.1,1.2,0.1c0.3,0,0.7,0.1,1,0.2s0.6,0.3,0.9,0.5
						c0.3,0.2,0.5,0.5,0.7,0.8c0.2,0.3,0.3,0.7,0.3,1.1c0,0.4-0.1,0.9-0.3,1.3c-0.2,0.4-0.5,0.7-1,1c-0.5,0.3-1,0.5-1.7,0.7
						c-0.6,0.2-1.4,0.2-2.4,0.2c-1.5,0-2.7-0.2-3.5-0.6s-1.2-0.9-1.2-1.7c0-0.5,0.2-0.8,0.6-1.1c0.4-0.3,1.1-0.5,2-0.5v-0.1
						c-0.5-0.2-1-0.4-1.3-0.7c-0.3-0.3-0.5-0.7-0.5-1.1c0-0.2,0.1-0.5,0.2-0.6c0.1-0.2,0.3-0.3,0.5-0.4c0.2-0.1,0.4-0.2,0.6-0.3
						c0.2-0.1,0.4-0.1,0.6-0.2v-0.1c-0.8-0.3-1.4-0.7-1.7-1.1c-0.4-0.4-0.6-0.9-0.6-1.5c0-0.9,0.4-1.5,1.2-2.1
						c0.8-0.5,1.8-0.8,3-0.8c0.4,0,0.8,0,1.2,0.1c0.4,0.1,0.7,0.1,0.8,0.2h3.4V98.3z M301.7,107.3c0-0.2-0.1-0.4-0.2-0.6
						c-0.1-0.2-0.4-0.4-0.7-0.5c-0.2,0-0.6-0.1-1-0.1s-1.1,0-2,0c-0.2,0.2-0.4,0.4-0.5,0.6s-0.2,0.5-0.2,0.9c0,0.1,0,0.3,0.1,0.5
						c0.1,0.2,0.2,0.3,0.4,0.5c0.2,0.2,0.4,0.3,0.7,0.4c0.3,0.1,0.6,0.1,1.1,0.1c0.8,0,1.3-0.1,1.7-0.4
						C301.5,108.4,301.7,108,301.7,107.3z M300.3,99.9c0-0.7-0.1-1.2-0.3-1.6c-0.2-0.4-0.6-0.6-1-0.6c-0.2,0-0.4,0.1-0.6,0.2
						c-0.2,0.1-0.3,0.3-0.4,0.5c-0.1,0.2-0.2,0.4-0.2,0.7c0,0.3-0.1,0.5-0.1,0.8c0,0.6,0.1,1.2,0.3,1.6s0.5,0.6,1,0.6
						c0.4,0,0.7-0.2,1-0.6S300.3,100.6,300.3,99.9z"/>
					<path fill="#FFFFFF" d="M316.5,106h-5.3v-0.6c0.1,0,0.2,0,0.4,0s0.3,0,0.4-0.1c0.1-0.1,0.2-0.2,0.3-0.3s0.1-0.3,0.1-0.5v-4.1
						c0-0.6-0.1-1-0.3-1.3c-0.2-0.3-0.5-0.5-1-0.5c-0.2,0-0.5,0-0.7,0.1s-0.4,0.2-0.6,0.3c-0.2,0.1-0.3,0.2-0.4,0.4
						c-0.1,0.1-0.2,0.2-0.3,0.3v4.7c0,0.2,0,0.4,0.1,0.5s0.2,0.2,0.3,0.3c0.1,0.1,0.2,0.1,0.4,0.1s0.3,0.1,0.4,0.1v0.6h-5.3v-0.6
						c0.1,0,0.3,0,0.4,0c0.2,0,0.3,0,0.4-0.1c0.2-0.1,0.3-0.2,0.4-0.3s0.1-0.3,0.1-0.5v-5.1c0-0.2,0-0.4-0.1-0.5s-0.2-0.3-0.4-0.4
						c-0.1-0.1-0.2-0.1-0.4-0.2c-0.2,0-0.3-0.1-0.5-0.1v-0.6l4.2-0.2l0.1,0.1v1.3h0c0.2-0.1,0.4-0.3,0.6-0.5s0.5-0.4,0.7-0.5
						c0.2-0.1,0.5-0.3,0.9-0.4s0.7-0.1,1.1-0.1c1,0,1.7,0.3,2.1,0.8c0.5,0.5,0.7,1.3,0.7,2.2v4.3c0,0.2,0,0.4,0.1,0.5
						s0.2,0.2,0.4,0.3c0.1,0,0.2,0.1,0.3,0.1c0.1,0,0.3,0.1,0.5,0.1V106z"/>
					<path fill="#FFFFFF" d="M336.4,94.2c-0.2,0-0.4,0.1-0.7,0.1c-0.3,0.1-0.6,0.2-0.8,0.3c-0.2,0.1-0.4,0.4-0.5,0.8
						c-0.1,0.4-0.1,1-0.1,1.7v4.6c0,1.4-0.5,2.5-1.4,3.3s-2.2,1.2-3.7,1.2c-1.8,0-3.1-0.4-4.1-1.2s-1.5-1.9-1.5-3.4v-6.4
						c0-0.2,0-0.4-0.1-0.5c-0.1-0.1-0.2-0.3-0.5-0.4c-0.2-0.1-0.3-0.1-0.6-0.2s-0.4-0.1-0.5-0.1v-0.7h6.5v0.7c-0.2,0-0.4,0-0.6,0.1
						c-0.2,0-0.4,0.1-0.6,0.1c-0.2,0.1-0.4,0.2-0.4,0.4s-0.1,0.3-0.1,0.6v6.3c0,1.2,0.3,2.1,0.8,2.7c0.5,0.6,1.3,0.8,2.4,0.8
						c1,0,1.8-0.3,2.4-0.9c0.6-0.6,0.9-1.5,0.9-2.7v-4.2c0-0.8-0.1-1.3-0.2-1.7c-0.1-0.4-0.3-0.6-0.5-0.8c-0.2-0.1-0.4-0.2-0.8-0.4
						c-0.4-0.1-0.6-0.2-0.8-0.2v-0.7h5.4V94.2z"/>
					<path fill="#FFFFFF" d="M347.6,101.7c0,1.2-0.4,2.3-1.2,3.2c-0.8,0.9-1.9,1.3-3.1,1.3c-0.6,0-1-0.1-1.4-0.2
						c-0.4-0.1-0.6-0.3-0.9-0.4H341v2.5c0,0.2,0,0.4,0.1,0.5c0.1,0.2,0.2,0.3,0.4,0.3c0.2,0.1,0.4,0.1,0.7,0.2
						c0.3,0.1,0.5,0.1,0.7,0.1v0.7h-6.4v-0.7c0.1,0,0.3,0,0.6-0.1s0.4-0.1,0.5-0.1c0.2-0.1,0.3-0.2,0.4-0.3c0.1-0.2,0.1-0.3,0.1-0.5
						v-9c0-0.2-0.1-0.4-0.1-0.5c-0.1-0.1-0.2-0.3-0.3-0.4c-0.1-0.1-0.3-0.1-0.5-0.2c-0.2,0-0.4-0.1-0.6-0.1v-0.6l4.3-0.2l0.1,0.1v1
						l0.1,0c0.4-0.4,0.8-0.7,1.3-0.9c0.5-0.2,0.9-0.3,1.4-0.3c1.2,0,2.2,0.4,2.9,1.3C347.3,99.2,347.6,100.3,347.6,101.7z
						 M344.5,101.8c0-0.4,0-0.9-0.1-1.3s-0.2-0.8-0.3-1.1c-0.2-0.3-0.4-0.6-0.6-0.8s-0.6-0.3-1-0.3c-0.4,0-0.7,0.1-0.9,0.2
						c-0.2,0.1-0.4,0.3-0.6,0.5v5c0,0.1,0.1,0.3,0.2,0.5c0.1,0.2,0.2,0.3,0.3,0.4c0.1,0.2,0.3,0.3,0.5,0.4c0.2,0.1,0.4,0.1,0.6,0.1
						c0.6,0,1-0.3,1.4-0.9C344.3,103.9,344.5,103,344.5,101.8z"/>
				</g>
			</g>
		</g>
	</g>
</g>
</svg>
