<?xml version="1.0" encoding="utf-8"?>
<!-- Generator: Adobe Illustrator 18.1.1, SVG Export Plug-In . SVG Version: 6.00 Build 0)  -->
<svg version="1.1" id="Layer_1" xmlns="http://www.w3.org/2000/svg" xmlns:xlink="http://www.w3.org/1999/xlink" x="0px" y="0px"
	 viewBox="0 0 285 86.2" enable-background="new 0 0 285 86.2" xml:space="preserve">
<title>titlearea</title>
<desc>Created with Sketch.</desc>
<g>
	<g>
		<g id="Page-1">
			<g id="Direction-_x23_1-grey-Revisions" transform="translate(-275.000000, -752.000000)">
				<g id="footer-banner" transform="translate(93.000000, 725.000000)">
					<g id="titlearea" transform="translate(181.000000, 19.000000)">
						<g enable-background="new    ">
							<path d="M14.4,13.7c-0.2-0.4-0.5-0.7-0.9-1.1c-0.4-0.3-0.8-0.6-1.3-0.7c-0.5-0.2-0.9-0.2-1.5-0.2c-0.9,0-1.8,0.2-2.4,0.5
								C7.7,12.6,7,13,6.6,13.7c-0.4,0.6-0.7,1.4-0.9,2.1c-0.2,0.8-0.3,1.7-0.3,2.5s0.1,1.6,0.3,2.4c0.2,0.7,0.5,1.5,0.9,2.1
								c0.5,0.7,1,1.2,1.7,1.5c0.6,0.4,1.5,0.5,2.4,0.5c1.3,0,2.3-0.4,3-1.2c0.7-0.7,1.2-1.9,1.4-3.2h4.2c-0.1,1.3-0.4,2.3-0.8,3.3
								c-0.4,0.9-1.1,1.8-1.8,2.5c-0.7,0.7-1.6,1.3-2.6,1.6c-1.1,0.3-2.1,0.5-3.3,0.5c-1.5,0-2.8-0.2-4-0.7s-2.2-1.3-3-2.1
								c-0.8-0.9-1.5-2-1.9-3.3s-0.6-2.4-0.6-3.9s0.2-2.8,0.6-4.1s1.1-2.3,1.9-3.3c0.8-0.9,1.8-1.7,3-2.2C8,8.2,9.2,8,10.7,8
								c1.1,0,2.1,0.1,3,0.4c0.9,0.3,1.8,0.7,2.5,1.4c0.7,0.6,1.4,1.4,1.9,2.2s0.8,1.9,0.9,3h-4.2C14.9,14.5,14.7,14.1,14.4,13.7z"
								/>
							<path d="M21.8,11.7V8.5h3.9v3.2H21.8z M25.7,13.9V28h-3.9V13.9H25.7z"/>
							<path d="M36.5,13.9v2.6h-2.8v7c0,0.6,0.1,1.1,0.3,1.3c0.2,0.2,0.6,0.3,1.3,0.3c0.2,0,0.4,0,0.6,0c0.2,0,0.4,0,0.5-0.1v3
								c-0.3,0-0.7,0-1.1,0s-0.8,0-1.2,0c-0.6,0-1.2,0-1.7-0.1s-1.1-0.2-1.5-0.5c-0.4-0.2-0.7-0.5-0.9-1.1c-0.2-0.4-0.3-1.1-0.3-1.7
								v-8.4h-2.3v-2.6h2.3v-4h3.9v4.2L36.5,13.9L36.5,13.9L36.5,13.9z"/>
							<path d="M43.6,32.1c-0.7,0.5-1.8,0.7-3.2,0.7c-0.4,0-0.8,0-1.2,0s-0.8-0.1-1.2-0.1v-3.2c0.3,0,0.7,0.1,1.2,0.1
								c0.4,0,0.7,0,1.2,0c0.5-0.1,0.8-0.2,1.2-0.6c0.2-0.3,0.4-0.7,0.4-1.2c0-0.3-0.1-0.6-0.2-0.8l-5-13.3h4.1l3.2,9.7h0.1l3-9.7h4
								l-5.9,15.8C44.8,30.8,44.2,31.6,43.6,32.1z"/>
							<path d="M64.7,8.4v15.8h9.5v3.6H60.4V8.4H64.7z"/>
							<path d="M76.3,11.7V8.5h3.9v3.2H76.3z M80.2,13.9V28h-3.9V13.9H80.2z"/>
							<path d="M87,13.9v1.9l0,0c0.5-0.7,1.2-1.3,1.9-1.7c0.7-0.4,1.6-0.6,2.5-0.6c0.8,0,1.7,0.2,2.4,0.5s1.3,0.9,1.7,1.8
								c0.4-0.6,0.9-1.2,1.7-1.7c0.8-0.5,1.6-0.7,2.5-0.7c0.7,0,1.5,0.1,2.1,0.3s1.2,0.5,1.7,0.8c0.4,0.4,0.8,0.9,1.1,1.6
								c0.3,0.7,0.4,1.5,0.4,2.3v9.5h-3.9v-8c0-0.5,0-0.9-0.1-1.4c0-0.4-0.1-0.7-0.3-1.1c-0.2-0.3-0.4-0.5-0.7-0.7
								c-0.3-0.2-0.7-0.3-1.3-0.3c-0.5,0-0.9,0.1-1.4,0.3c-0.3,0.2-0.6,0.5-0.8,0.8s-0.3,0.7-0.4,1.2S96,19.6,96,20v7.9h-3.9V20
								c0-0.4,0-0.8,0-1.3c0-0.4-0.1-0.8-0.2-1.2c-0.1-0.3-0.3-0.6-0.6-0.8c-0.3-0.2-0.8-0.3-1.4-0.3c-0.2,0-0.4,0-0.7,0.1
								s-0.6,0.2-0.8,0.4c-0.2,0.2-0.5,0.5-0.7,0.9s-0.3,0.9-0.3,1.7v8.2h-3.9V13.9H87z"/>
							<path d="M108,11.7V8.5h3.9v3.2H108z M111.9,13.9V28H108V13.9H111.9z"/>
							<path d="M122.7,13.9v2.6h-2.8v7c0,0.6,0.1,1.1,0.3,1.3c0.2,0.2,0.6,0.3,1.3,0.3c0.2,0,0.4,0,0.6,0s0.4,0,0.5-0.1v3
								c-0.3,0.1-0.7,0.1-1.1,0.1s-0.8,0-1.2,0c-0.6,0-1.2,0-1.7-0.1s-1.1-0.2-1.5-0.5c-0.4-0.2-0.7-0.5-0.9-1.1
								c-0.2-0.4-0.3-1.1-0.3-1.7v-8.4h-2.3v-2.6h2.3V9.6h3.9v4.2L122.7,13.9L122.7,13.9L122.7,13.9z"/>
							<path d="M127.8,24.4c0.2,0.3,0.4,0.5,0.6,0.7c0.3,0.2,0.6,0.3,0.9,0.4c0.3,0.1,0.7,0.1,1.2,0.1c0.3,0,0.5,0,0.8-0.1
								s0.5-0.2,0.8-0.3c0.2-0.1,0.4-0.3,0.6-0.5c0.2-0.2,0.2-0.5,0.2-0.8c0-0.6-0.4-1.1-1.2-1.3c-0.7-0.3-1.9-0.6-3.3-0.8
								c-0.5-0.1-1.2-0.3-1.7-0.4c-0.5-0.2-1.1-0.4-1.5-0.7c-0.4-0.3-0.7-0.6-1.1-1.1c-0.2-0.4-0.4-0.9-0.4-1.6
								c0-0.9,0.2-1.7,0.5-2.2c0.3-0.6,0.8-1.1,1.4-1.4c0.6-0.3,1.3-0.5,2-0.7c0.7-0.1,1.5-0.2,2.2-0.2s1.5,0.1,2.2,0.2
								c0.7,0.1,1.4,0.4,1.9,0.7s1.1,0.8,1.4,1.4c0.4,0.5,0.6,1.3,0.6,2.2h-3.7c-0.1-0.7-0.3-1.3-0.8-1.5s-1.2-0.4-1.8-0.4
								c-0.2,0-0.4,0-0.7,0c-0.2,0-0.5,0.1-0.7,0.2s-0.4,0.2-0.5,0.4c-0.1,0.2-0.2,0.4-0.2,0.7c0,0.3,0.1,0.6,0.4,0.8
								c0.2,0.2,0.6,0.4,0.9,0.5c0.4,0.1,0.8,0.2,1.4,0.4c0.5,0.1,1.1,0.2,1.6,0.3c0.5,0.1,1.2,0.3,1.7,0.4c0.5,0.2,1.1,0.4,1.5,0.7
								c0.4,0.3,0.7,0.6,1.1,1.2c0.2,0.4,0.4,0.9,0.4,1.7c0,0.9-0.2,1.7-0.5,2.3c-0.4,0.6-0.8,1.2-1.5,1.5c-0.6,0.4-1.3,0.6-2.1,0.8
								c-0.7,0.1-1.6,0.2-2.3,0.2c-0.8,0-1.6-0.1-2.4-0.2c-0.7-0.2-1.5-0.4-2.1-0.8s-1.2-0.8-1.5-1.5c-0.4-0.6-0.6-1.4-0.6-2.3h3.7
								C127.6,23.7,127.6,24.1,127.8,24.4z"/>
						</g>
						<g enable-background="new    ">
							<path fill="#FF0000" d="M11.4,36l14.9,24.1h0.1V36h7.5v36H26L11.1,48H11v24H3.5V36H11.4z"/>
							<path fill="#FF0000" d="M47.7,65.6c1.1,1.1,2.6,1.6,4.6,1.6c1.5,0,2.7-0.3,3.8-1.1c1.1-0.7,1.7-1.5,1.9-2.3h6.3
								c-1.1,3.2-2.5,5.4-4.6,6.7c-2.1,1.4-4.6,2-7.6,2c-2.1,0-3.9-0.3-5.6-0.9c-1.7-0.6-3-1.6-4.2-2.8c-1.2-1.3-2-2.6-2.6-4.3
								c-0.6-1.7-0.9-3.6-0.9-5.6s0.3-3.8,0.9-5.5c0.6-1.7,1.6-3.2,2.7-4.4c1.2-1.3,2.6-2.2,4.2-2.9c1.7-0.7,3.5-1.1,5.5-1.1
								c2.2,0,4.2,0.4,5.8,1.3c1.7,0.8,3,2,4.1,3.5s1.8,3,2.3,4.9c0.4,1.9,0.6,3.8,0.5,5.8H45.9C46,63,46.5,64.7,47.7,65.6z
								 M55.8,52c-0.8-0.9-2.2-1.4-3.9-1.4c-1.2,0-2.1,0.2-2.8,0.6c-0.7,0.4-1.4,0.8-1.8,1.5c-0.4,0.5-0.7,1.2-0.9,1.8
								s-0.3,1.3-0.3,1.7h11.7C57.2,54.3,56.6,52.9,55.8,52z"/>
							<path fill="#FF0000" d="M91.3,72l-4.6-17.5h-0.1L82.1,72h-7.5l-8.3-26h7.6l4.8,17.6h0.1L83.1,46h7l4.4,17.6h0.1L99.4,46h7.4
								l-8.2,26H91.3z"/>
							<path fill="#FF0000" d="M115.8,65.4c0.3,0.5,0.7,1.1,1.3,1.4c0.5,0.3,1.1,0.6,1.8,0.7s1.4,0.2,2,0.2c0.5,0,1.1-0.1,1.6-0.2
								s1.1-0.3,1.5-0.5s0.8-0.6,1.2-1.1c0.3-0.4,0.4-0.9,0.4-1.6c0-1.1-0.7-1.9-2.1-2.4c-1.5-0.5-3.5-1.1-6-1.6
								c-1.1-0.2-2.1-0.5-3-0.8s-1.9-0.7-2.6-1.3c-0.7-0.5-1.4-1.2-1.9-2c-0.4-0.8-0.7-1.8-0.7-2.9c0-1.7,0.3-3,0.9-4.1
								s1.5-1.9,2.6-2.5s2.3-1.1,3.7-1.3s2.7-0.4,4.1-0.4s2.7,0.1,4.1,0.4c1.4,0.3,2.5,0.7,3.6,1.4c1.1,0.6,1.9,1.5,2.6,2.5
								c0.7,1.1,1.1,2.4,1.3,4h-6.8c-0.1-1.4-0.6-2.3-1.6-2.8c-0.9-0.5-2.1-0.7-3.4-0.7c-0.4,0-0.8,0-1.3,0.1
								c-0.4,0-0.9,0.2-1.3,0.3c-0.4,0.2-0.7,0.4-0.9,0.7c-0.3,0.3-0.4,0.7-0.4,1.3s0.2,1.2,0.7,1.6c0.4,0.4,1.1,0.7,1.9,0.9
								s1.6,0.5,2.6,0.6c0.9,0.2,2,0.4,2.9,0.6c1.1,0.2,2.1,0.5,3,0.8s1.9,0.7,2.6,1.4c0.7,0.5,1.4,1.3,1.9,2.1
								c0.4,0.8,0.7,1.9,0.7,3c0,1.7-0.3,3.2-1.1,4.3c-0.7,1.2-1.6,2.1-2.7,2.8c-1.1,0.7-2.4,1.2-3.8,1.5c-1.5,0.3-2.8,0.4-4.4,0.4
								c-1.5,0-2.9-0.1-4.4-0.4s-2.7-0.8-3.9-1.5c-1.2-0.7-2.1-1.7-2.7-2.8c-0.7-1.2-1.2-2.6-1.2-4.4h6.8
								C115.4,64.3,115.5,64.9,115.8,65.4z"/>
							<path fill="#FF0000" d="M144.2,36v36H137V36H144.2z"/>
							<path fill="#FF0000" d="M157.5,65.6c1.1,1.1,2.6,1.6,4.6,1.6c1.5,0,2.7-0.3,3.8-1.1c1.1-0.7,1.7-1.5,1.9-2.3h6.3
								c-1.1,3.2-2.5,5.4-4.6,6.7c-2.1,1.4-4.6,2-7.6,2c-2.1,0-3.9-0.3-5.6-0.9c-1.7-0.6-3-1.6-4.2-2.8c-1.2-1.3-2-2.6-2.6-4.3
								c-0.6-1.7-0.9-3.6-0.9-5.6s0.3-3.8,0.9-5.5c0.6-1.7,1.6-3.2,2.7-4.4s2.6-2.2,4.2-2.9c1.7-0.7,3.5-1.1,5.5-1.1
								c2.2,0,4.2,0.4,5.8,1.3c1.7,0.8,3,2,4.1,3.5s1.8,3,2.3,4.9c0.4,1.9,0.6,3.8,0.5,5.8h-18.7C155.9,63,156.4,64.7,157.5,65.6z
								 M165.5,52c-0.8-0.9-2.2-1.4-3.9-1.4c-1.2,0-2.1,0.2-2.8,0.6c-0.7,0.4-1.4,0.8-1.8,1.5c-0.4,0.5-0.7,1.2-0.9,1.8
								s-0.3,1.3-0.3,1.7h11.7C167,54.3,166.4,52.9,165.5,52z"/>
							<path fill="#FF0000" d="M192.9,46v4.8h-5.3v12.8c0,1.3,0.2,2,0.6,2.4c0.4,0.4,1.3,0.6,2.4,0.6c0.4,0,0.8,0,1.2,0
								s0.7-0.1,1.1-0.1V72c-0.6,0.1-1.3,0.2-2,0.2s-1.5,0-2.2,0c-1.2,0-2.2-0.1-3.2-0.2c-0.9-0.1-1.9-0.4-2.6-0.8
								c-0.7-0.4-1.4-1.1-1.8-1.9c-0.4-0.8-0.6-1.9-0.6-3.2V50.8h-4.2V46h4.3v-7.8h7.2V46H192.9L192.9,46L192.9,46z"/>
							<path fill="#FF0000" d="M210.7,46v4.8h-5.3v12.8c0,1.3,0.2,2,0.6,2.4c0.4,0.4,1.3,0.6,2.4,0.6c0.4,0,0.8,0,1.2,0
								s0.7-0.1,1.1-0.1V72c-0.6,0.1-1.3,0.2-2,0.2s-1.5,0-2.2,0c-1.2,0-2.2-0.1-3.2-0.2c-0.9-0.1-1.9-0.4-2.6-0.8
								c-0.7-0.4-1.4-1.1-1.8-1.9c-0.4-0.8-0.6-1.9-0.6-3.2V50.8H194V46h4.3v-7.8h7.2V46H210.7L210.7,46L210.7,46z"/>
							<path fill="#FF0000" d="M221.8,65.6c1.1,1.1,2.6,1.6,4.6,1.6c1.5,0,2.7-0.3,3.8-1.1c1.1-0.7,1.7-1.5,1.9-2.3h6.3
								c-1.1,3.2-2.5,5.4-4.6,6.7c-2.1,1.4-4.6,2-7.6,2c-2.1,0-3.9-0.3-5.6-0.9c-1.7-0.6-3-1.6-4.2-2.8c-1.2-1.3-2-2.6-2.6-4.3
								c-0.6-1.7-0.9-3.6-0.9-5.6s0.3-3.8,0.9-5.5c0.6-1.7,1.6-3.2,2.7-4.4s2.6-2.2,4.2-2.9c1.7-0.7,3.5-1.1,5.5-1.1
								c2.2,0,4.2,0.4,5.8,1.3c1.7,0.8,3,2,4.1,3.5s1.8,3,2.3,4.9c0.4,1.9,0.6,3.8,0.5,5.8h-18.7C220.1,63,220.7,64.7,221.8,65.6z
								 M229.9,52c-0.8-0.9-2.2-1.4-3.9-1.4c-1.2,0-2.1,0.2-2.8,0.6c-0.7,0.4-1.4,0.8-1.8,1.5c-0.4,0.5-0.7,1.2-0.9,1.8
								s-0.3,1.3-0.3,1.7h11.6C231.3,54.3,230.7,52.9,229.9,52z"/>
							<path fill="#FF0000" d="M249.7,46v4.8h0.1c0.3-0.8,0.8-1.6,1.4-2.2c0.5-0.7,1.3-1.3,2-1.8s1.6-0.8,2.4-1.2
								c0.8-0.3,1.7-0.4,2.6-0.4c0.4,0,0.9,0.1,1.6,0.2V52c-0.3-0.1-0.7-0.1-1.3-0.2c-0.5-0.1-0.9-0.1-1.4-0.1
								c-1.3,0-2.4,0.2-3.4,0.6c-0.9,0.4-1.7,1.1-2.2,1.8s-0.9,1.7-1.2,2.6c-0.2,1.1-0.3,2.1-0.3,3.3v12h-7.2V46H249.7z"/>
							<path fill="#FF0000" d="M268.6,65.4c0.3,0.5,0.7,1.1,1.3,1.4c0.5,0.3,1.1,0.6,1.8,0.7c0.7,0.1,1.4,0.2,2,0.2
								c0.5,0,1.1-0.1,1.6-0.2s1.1-0.3,1.5-0.5s0.8-0.6,1.2-1.1c0.3-0.4,0.4-0.9,0.4-1.6c0-1.1-0.7-1.9-2.1-2.4
								c-1.5-0.5-3.5-1.1-6-1.6c-1.1-0.2-2.1-0.5-3-0.8s-1.9-0.7-2.6-1.3c-0.7-0.5-1.4-1.2-1.9-2s-0.7-1.8-0.7-2.9
								c0-1.7,0.3-3,0.9-4.1s1.5-1.9,2.6-2.5s2.3-1.1,3.7-1.3c1.4-0.2,2.7-0.4,4.1-0.4s2.7,0.1,4.1,0.4c1.4,0.3,2.5,0.7,3.6,1.4
								c1.1,0.6,1.9,1.5,2.6,2.5c0.7,1.1,1.1,2.4,1.3,4h-6.8c-0.1-1.4-0.6-2.3-1.6-2.8c-0.9-0.5-2.1-0.7-3.4-0.7
								c-0.4,0-0.8,0-1.3,0.1c-0.4,0-0.9,0.2-1.3,0.3c-0.3,0.1-0.7,0.4-0.9,0.7c-0.3,0.3-0.4,0.7-0.4,1.3s0.2,1.2,0.7,1.6
								c0.4,0.4,1.1,0.7,1.9,0.9s1.6,0.5,2.6,0.6c0.9,0.2,2,0.4,2.9,0.6c1.1,0.2,2.1,0.5,3,0.8s1.9,0.7,2.6,1.4
								c0.7,0.6,1.4,1.3,1.9,2.1c0.4,0.8,0.7,1.9,0.7,3c0,1.7-0.3,3.2-1.1,4.3c-0.7,1.2-1.6,2.1-2.7,2.8c-1.1,0.7-2.4,1.2-3.8,1.5
								c-1.5,0.3-2.8,0.4-4.4,0.4c-1.5,0-2.9-0.1-4.4-0.4s-2.7-0.8-3.9-1.5c-1.2-0.7-2.1-1.7-2.7-2.8c-0.7-1.2-1.2-2.6-1.2-4.4h6.8
								C268.2,64.3,268.3,64.9,268.6,65.4z"/>
						</g>
					</g>
				</g>
			</g>
		</g>
	</g>
	<path id="OurReportingInYourInbox" d="M48.9,76.6c0,0.5,0.1,1,0.2,1.5c0.1,0.5,0.3,0.9,0.6,1.3c0.3,0.4,0.6,0.7,1.1,1
		c0.4,0.2,1,0.4,1.6,0.4s1.1-0.1,1.6-0.4c0.4-0.2,0.8-0.6,1.1-1c0.3-0.4,0.5-0.8,0.6-1.3c0.1-0.5,0.2-1,0.2-1.5
		c0-0.5-0.1-1.1-0.2-1.6s-0.3-1-0.6-1.4c-0.3-0.4-0.6-0.7-1.1-1c-0.4-0.2-1-0.4-1.6-0.4s-1.1,0.1-1.6,0.4c-0.4,0.2-0.8,0.6-1.1,1
		C49.4,74,49.2,74.5,49,75C48.9,75.5,48.9,76,48.9,76.6z M46.1,76.6c0-0.9,0.1-1.8,0.4-2.6c0.3-0.8,0.7-1.5,1.2-2.1s1.2-1.1,1.9-1.4
		s1.6-0.5,2.6-0.5c1,0,1.8,0.2,2.6,0.5c0.8,0.3,1.4,0.8,1.9,1.4s0.9,1.3,1.2,2.1c0.3,0.8,0.4,1.7,0.4,2.6c0,0.9-0.1,1.8-0.4,2.5
		c-0.3,0.8-0.7,1.5-1.2,2.1c-0.5,0.6-1.2,1-1.9,1.4c-0.8,0.3-1.6,0.5-2.6,0.5c-1,0-1.8-0.2-2.6-0.5s-1.4-0.8-1.9-1.4
		c-0.5-0.6-0.9-1.3-1.2-2.1C46.2,78.4,46.1,77.5,46.1,76.6z M68.5,82.8h-2.4v-1.3h-0.1c-0.3,0.5-0.7,0.9-1.2,1.1
		c-0.5,0.2-1,0.4-1.5,0.4c-0.7,0-1.2-0.1-1.6-0.3c-0.4-0.2-0.8-0.4-1-0.7c-0.2-0.3-0.4-0.7-0.5-1.2c-0.1-0.5-0.1-1-0.1-1.5v-5.6h2.5
		v5.1c0,0.7,0.1,1.3,0.4,1.7c0.2,0.4,0.6,0.6,1.2,0.6c0.7,0,1.2-0.2,1.5-0.6c0.3-0.4,0.5-1.1,0.5-2v-4.7h2.5V82.8z M70.4,73.7h2.4
		v1.7h0c0.1-0.3,0.3-0.5,0.5-0.8c0.2-0.2,0.4-0.4,0.7-0.6c0.3-0.2,0.5-0.3,0.8-0.4c0.3-0.1,0.6-0.1,0.9-0.1c0.2,0,0.3,0,0.5,0.1v2.3
		c-0.1,0-0.3,0-0.4-0.1c-0.2,0-0.3,0-0.5,0c-0.5,0-0.8,0.1-1.2,0.2c-0.3,0.2-0.6,0.4-0.8,0.6c-0.2,0.3-0.3,0.6-0.4,0.9
		s-0.1,0.7-0.1,1.1v4.1h-2.5V73.7z M85.1,75.9h3c0.6,0,1.1-0.1,1.4-0.4c0.3-0.3,0.5-0.7,0.5-1.4c0-0.6-0.2-1-0.5-1.3
		c-0.3-0.3-0.8-0.4-1.4-0.4h-3V75.9z M82.3,70.3h6.7c0.6,0,1.1,0.1,1.5,0.3c0.4,0.2,0.8,0.4,1.2,0.7c0.3,0.3,0.6,0.7,0.7,1.1
		c0.2,0.4,0.3,0.9,0.3,1.3c0,0.7-0.2,1.4-0.5,1.9c-0.3,0.5-0.8,0.9-1.5,1.2v0c0.3,0.1,0.6,0.2,0.8,0.4c0.2,0.2,0.4,0.4,0.5,0.7
		s0.2,0.6,0.3,0.9c0.1,0.3,0.1,0.6,0.1,0.9c0,0.2,0,0.4,0,0.7s0,0.5,0.1,0.8c0,0.3,0.1,0.5,0.1,0.8c0.1,0.3,0.2,0.5,0.3,0.6h-2.7
		c-0.2-0.4-0.2-0.9-0.3-1.4s-0.1-1.1-0.2-1.6c-0.1-0.7-0.3-1.1-0.6-1.4s-0.8-0.5-1.5-0.5h-2.7v4.9h-2.7V70.3z M100.8,77.3
		c-0.1-0.6-0.3-1.1-0.6-1.4c-0.3-0.3-0.8-0.5-1.4-0.5c-0.4,0-0.7,0.1-1,0.2s-0.5,0.3-0.6,0.5s-0.3,0.4-0.3,0.6
		c-0.1,0.2-0.1,0.4-0.1,0.6H100.8z M96.8,78.9c0,0.8,0.2,1.4,0.6,1.8c0.4,0.4,0.9,0.5,1.6,0.5c0.5,0,0.9-0.1,1.3-0.4
		c0.4-0.3,0.6-0.5,0.7-0.8h2.2c-0.4,1.1-0.9,1.9-1.6,2.3S99.9,83,98.9,83c-0.7,0-1.4-0.1-1.9-0.3c-0.6-0.2-1.1-0.6-1.5-1
		c-0.4-0.4-0.7-0.9-0.9-1.5s-0.3-1.2-0.3-1.9c0-0.7,0.1-1.3,0.3-1.9c0.2-0.6,0.5-1.1,0.9-1.5c0.4-0.4,0.9-0.8,1.5-1
		c0.6-0.2,1.2-0.4,1.9-0.4c0.8,0,1.4,0.1,2,0.4s1,0.7,1.4,1.2c0.4,0.5,0.6,1.1,0.8,1.7c0.2,0.6,0.2,1.3,0.2,2H96.8z M109.3,81.2
		c0.4,0,0.8-0.1,1-0.2c0.3-0.2,0.5-0.4,0.7-0.6c0.2-0.3,0.3-0.6,0.4-0.9c0.1-0.4,0.1-0.7,0.1-1.1c0-0.4,0-0.7-0.1-1.1
		c-0.1-0.4-0.2-0.7-0.4-0.9c-0.2-0.3-0.4-0.5-0.7-0.7c-0.3-0.2-0.6-0.3-1-0.3c-0.4,0-0.8,0.1-1,0.3c-0.3,0.2-0.5,0.4-0.7,0.7
		c-0.2,0.3-0.3,0.6-0.4,0.9c-0.1,0.4-0.1,0.7-0.1,1.1c0,0.4,0,0.7,0.1,1.1s0.2,0.7,0.4,0.9c0.2,0.3,0.4,0.5,0.7,0.6
		C108.6,81.1,108.9,81.2,109.3,81.2z M104.8,73.7h2.4v1.2h0c0.3-0.5,0.7-0.8,1.2-1.1s1-0.3,1.5-0.3c0.7,0,1.3,0.1,1.8,0.4
		c0.5,0.3,0.9,0.6,1.3,1.1c0.3,0.4,0.6,1,0.8,1.5c0.2,0.6,0.2,1.2,0.2,1.8c0,0.6-0.1,1.2-0.2,1.8c-0.2,0.6-0.4,1.1-0.7,1.5
		c-0.3,0.4-0.7,0.8-1.2,1c-0.5,0.3-1.1,0.4-1.7,0.4c-0.6,0-1.1-0.1-1.5-0.3c-0.5-0.2-0.9-0.6-1.2-1h0V86h-2.5V73.7z M117.7,78.3
		c0,0.4,0,0.7,0.1,1.1c0.1,0.3,0.2,0.7,0.4,0.9c0.2,0.3,0.4,0.5,0.7,0.7c0.3,0.2,0.6,0.2,1.1,0.2c0.4,0,0.8-0.1,1.1-0.2
		c0.3-0.2,0.5-0.4,0.7-0.7c0.2-0.3,0.3-0.6,0.4-0.9c0.1-0.3,0.1-0.7,0.1-1.1s0-0.7-0.1-1.1c-0.1-0.4-0.2-0.7-0.4-0.9
		c-0.2-0.3-0.4-0.5-0.7-0.7c-0.3-0.2-0.6-0.3-1.1-0.3c-0.4,0-0.8,0.1-1.1,0.3c-0.3,0.2-0.5,0.4-0.7,0.7c-0.2,0.3-0.3,0.6-0.4,0.9
		C117.7,77.6,117.7,77.9,117.7,78.3z M115.2,78.3c0-0.7,0.1-1.4,0.3-2c0.2-0.6,0.5-1.1,0.9-1.5c0.4-0.4,0.9-0.7,1.5-1
		c0.6-0.2,1.2-0.3,1.9-0.3c0.7,0,1.4,0.1,1.9,0.3c0.6,0.2,1.1,0.5,1.5,1c0.4,0.4,0.7,0.9,0.9,1.5c0.2,0.6,0.3,1.2,0.3,2
		c0,0.7-0.1,1.4-0.3,2c-0.2,0.6-0.5,1.1-0.9,1.5c-0.4,0.4-0.9,0.7-1.5,1c-0.6,0.2-1.2,0.3-1.9,0.3c-0.7,0-1.4-0.1-1.9-0.3
		c-0.6-0.2-1.1-0.5-1.5-1c-0.4-0.4-0.7-0.9-0.9-1.5S115.2,79,115.2,78.3z M126.2,73.7h2.4v1.7h0c0.1-0.3,0.3-0.5,0.5-0.8
		c0.2-0.2,0.4-0.4,0.7-0.6c0.3-0.2,0.5-0.3,0.8-0.4s0.6-0.1,0.9-0.1c0.2,0,0.3,0,0.5,0.1v2.3c-0.1,0-0.3,0-0.4-0.1s-0.3,0-0.5,0
		c-0.5,0-0.8,0.1-1.2,0.2c-0.3,0.2-0.6,0.4-0.8,0.6c-0.2,0.3-0.3,0.6-0.4,0.9s-0.1,0.7-0.1,1.1v4.1h-2.5V73.7z M136.1,73.7h1.8v1.7
		h-1.8v4.5c0,0.4,0.1,0.7,0.2,0.8c0.1,0.1,0.4,0.2,0.8,0.2c0.1,0,0.3,0,0.4,0c0.1,0,0.3,0,0.4-0.1v1.9c-0.2,0-0.4,0.1-0.7,0.1
		c-0.3,0-0.5,0-0.8,0c-0.4,0-0.8,0-1.1-0.1c-0.3-0.1-0.6-0.2-0.9-0.3c-0.3-0.2-0.5-0.4-0.6-0.6s-0.2-0.6-0.2-1.1v-5.3h-1.5v-1.7h1.5
		V71h2.5V73.7z M141.7,72.3h-2.5v-2h2.5V72.3z M139.2,73.7h2.5v9.1h-2.5V73.7z M143.7,73.7h2.4V75h0.1c0.3-0.5,0.7-0.9,1.2-1.1
		c0.5-0.2,1-0.4,1.5-0.4c0.7,0,1.2,0.1,1.6,0.3c0.4,0.2,0.8,0.4,1,0.8s0.4,0.7,0.5,1.2c0.1,0.5,0.1,1,0.1,1.5v5.6h-2.5v-5.1
		c0-0.7-0.1-1.3-0.4-1.7c-0.2-0.4-0.6-0.6-1.2-0.6c-0.7,0-1.2,0.2-1.5,0.6c-0.3,0.4-0.5,1.1-0.5,2v4.7h-2.5V73.7z M158.3,80.7
		c0.4,0,0.7-0.1,0.9-0.2s0.5-0.3,0.7-0.6c0.2-0.2,0.3-0.5,0.4-0.8c0.1-0.3,0.1-0.6,0.1-0.9c0-0.4,0-0.7-0.1-1.1
		c-0.1-0.3-0.2-0.6-0.4-0.9c-0.2-0.3-0.4-0.5-0.6-0.6c-0.3-0.2-0.6-0.2-1-0.2c-0.4,0-0.7,0.1-0.9,0.2c-0.3,0.1-0.5,0.3-0.6,0.6
		c-0.2,0.2-0.3,0.5-0.4,0.8s-0.1,0.6-0.1,1c0,0.3,0,0.7,0.1,1c0.1,0.3,0.2,0.6,0.3,0.9c0.2,0.3,0.4,0.5,0.6,0.6
		C157.6,80.6,157.9,80.7,158.3,80.7z M162.8,82.2c0,0.4,0,0.8-0.1,1.2c-0.1,0.5-0.3,0.9-0.6,1.3c-0.3,0.4-0.8,0.7-1.4,1
		c-0.6,0.3-1.4,0.4-2.5,0.4c-0.4,0-0.9-0.1-1.4-0.2s-0.9-0.3-1.3-0.5c-0.4-0.2-0.7-0.5-0.9-0.9c-0.3-0.4-0.4-0.8-0.4-1.3h2.5
		c0.1,0.5,0.3,0.8,0.7,1c0.3,0.2,0.7,0.3,1.2,0.3c0.7,0,1.2-0.2,1.5-0.6c0.3-0.4,0.5-1,0.5-1.6v-1.2h0c-0.3,0.5-0.7,0.8-1.1,1.1
		c-0.5,0.2-1,0.3-1.6,0.3c-0.7,0-1.3-0.1-1.8-0.4c-0.5-0.2-0.9-0.6-1.2-1c-0.3-0.4-0.5-0.9-0.7-1.5c-0.1-0.6-0.2-1.1-0.2-1.8
		c0-0.6,0.1-1.1,0.3-1.7c0.2-0.5,0.4-1,0.7-1.4c0.3-0.4,0.7-0.7,1.2-1c0.5-0.2,1-0.4,1.7-0.4c0.6,0,1.1,0.1,1.6,0.3s0.8,0.6,1.1,1.1
		h0v-1.2h2.4V82.2z M169.9,70.3h2.7v12.5h-2.7V70.3z M174.8,73.7h2.4V75h0.1c0.3-0.5,0.7-0.9,1.2-1.1c0.5-0.2,1-0.4,1.5-0.4
		c0.7,0,1.2,0.1,1.6,0.3c0.4,0.2,0.8,0.4,1,0.8s0.4,0.7,0.5,1.2s0.1,1,0.1,1.5v5.6h-2.5v-5.1c0-0.7-0.1-1.3-0.4-1.7
		c-0.2-0.4-0.6-0.6-1.2-0.6c-0.7,0-1.2,0.2-1.5,0.6c-0.3,0.4-0.5,1.1-0.5,2v4.7h-2.5V73.7z M193.5,77.9l-4.6-7.6h3.1l2.9,4.9
		l2.9-4.9h3.1l-4.6,7.7v4.8h-2.7V77.9z M202,78.3c0,0.4,0,0.7,0.1,1.1c0.1,0.3,0.2,0.7,0.4,0.9c0.2,0.3,0.4,0.5,0.7,0.7
		c0.3,0.2,0.6,0.2,1.1,0.2s0.8-0.1,1.1-0.2c0.3-0.2,0.5-0.4,0.7-0.7c0.2-0.3,0.3-0.6,0.4-0.9c0.1-0.3,0.1-0.7,0.1-1.1s0-0.7-0.1-1.1
		c-0.1-0.4-0.2-0.7-0.4-0.9c-0.2-0.3-0.4-0.5-0.7-0.7c-0.3-0.2-0.6-0.3-1.1-0.3s-0.8,0.1-1.1,0.3c-0.3,0.2-0.5,0.4-0.7,0.7
		c-0.2,0.3-0.3,0.6-0.4,0.9S202,77.9,202,78.3z M199.5,78.3c0-0.7,0.1-1.4,0.3-2c0.2-0.6,0.5-1.1,0.9-1.5c0.4-0.4,0.9-0.7,1.5-1
		c0.6-0.2,1.2-0.3,1.9-0.3s1.4,0.1,1.9,0.3c0.6,0.2,1.1,0.5,1.5,1c0.4,0.4,0.7,0.9,0.9,1.5c0.2,0.6,0.3,1.2,0.3,2
		c0,0.7-0.1,1.4-0.3,2s-0.5,1.1-0.9,1.5c-0.4,0.4-0.9,0.7-1.5,1c-0.6,0.2-1.2,0.3-1.9,0.3s-1.4-0.1-1.9-0.3c-0.6-0.2-1.1-0.5-1.5-1
		c-0.4-0.4-0.7-0.9-0.9-1.5C199.6,79.7,199.5,79,199.5,78.3z M219,82.8h-2.4v-1.3h-0.1c-0.3,0.5-0.7,0.9-1.2,1.1
		c-0.5,0.2-1,0.4-1.5,0.4c-0.7,0-1.2-0.1-1.6-0.3c-0.4-0.2-0.8-0.4-1-0.7c-0.2-0.3-0.4-0.7-0.5-1.2c-0.1-0.5-0.1-1-0.1-1.5v-5.6h2.5
		v5.1c0,0.7,0.1,1.3,0.4,1.7c0.2,0.4,0.6,0.6,1.2,0.6c0.7,0,1.2-0.2,1.5-0.6c0.3-0.4,0.5-1.1,0.5-2v-4.7h2.5V82.8z M220.9,73.7h2.4
		v1.7h0c0.1-0.3,0.3-0.5,0.5-0.8c0.2-0.2,0.4-0.4,0.7-0.6s0.5-0.3,0.8-0.4c0.3-0.1,0.6-0.1,0.9-0.1c0.2,0,0.3,0,0.5,0.1v2.3
		c-0.1,0-0.3,0-0.4-0.1c-0.2,0-0.3,0-0.5,0c-0.5,0-0.8,0.1-1.2,0.2c-0.3,0.2-0.6,0.4-0.8,0.6c-0.2,0.3-0.3,0.6-0.4,0.9
		s-0.1,0.7-0.1,1.1v4.1h-2.5V73.7z M232.8,70.3h2.7v12.5h-2.7V70.3z M237.7,73.7h2.4V75h0.1c0.3-0.5,0.7-0.9,1.2-1.1
		c0.5-0.2,1-0.4,1.5-0.4c0.7,0,1.2,0.1,1.6,0.3s0.8,0.4,1,0.8s0.4,0.7,0.5,1.2c0.1,0.5,0.1,1,0.1,1.5v5.6h-2.5v-5.1
		c0-0.7-0.1-1.3-0.4-1.7c-0.2-0.4-0.6-0.6-1.2-0.6c-0.7,0-1.2,0.2-1.5,0.6c-0.3,0.4-0.5,1.1-0.5,2v4.7h-2.5V73.7z M254.7,78.3
		c0-0.4,0-0.8-0.1-1.1c-0.1-0.4-0.2-0.7-0.4-0.9c-0.2-0.3-0.4-0.5-0.7-0.6c-0.3-0.2-0.6-0.2-1-0.2c-0.4,0-0.7,0.1-0.9,0.2
		s-0.5,0.4-0.7,0.6c-0.2,0.3-0.3,0.6-0.4,0.9c-0.1,0.4-0.1,0.7-0.1,1.1c0,0.4,0,0.7,0.1,1.1c0.1,0.4,0.2,0.7,0.4,0.9
		c0.2,0.3,0.4,0.5,0.7,0.6c0.3,0.2,0.6,0.2,0.9,0.2c0.4,0,0.7-0.1,1-0.2c0.3-0.2,0.5-0.4,0.7-0.6c0.2-0.3,0.3-0.6,0.4-0.9
		C254.7,79,254.7,78.6,254.7,78.3z M248.1,70.3h2.5v4.6h0c0.3-0.5,0.7-0.8,1.2-1s1.1-0.3,1.6-0.3c0.5,0,0.9,0.1,1.3,0.3
		c0.4,0.2,0.8,0.5,1.2,0.9c0.4,0.4,0.6,0.9,0.9,1.5c0.2,0.6,0.3,1.3,0.3,2.1c0,0.8-0.1,1.5-0.3,2.1c-0.2,0.6-0.5,1.1-0.9,1.5
		c-0.4,0.4-0.8,0.7-1.2,0.9c-0.4,0.2-0.9,0.3-1.3,0.3c-0.7,0-1.3-0.1-1.8-0.3c-0.5-0.2-0.9-0.6-1.2-1.1h0v1.2h-2.4V70.3z M261,78.3
		c0,0.4,0,0.7,0.1,1.1c0.1,0.3,0.2,0.7,0.4,0.9c0.2,0.3,0.4,0.5,0.7,0.7c0.3,0.2,0.6,0.2,1.1,0.2s0.8-0.1,1.1-0.2
		c0.3-0.2,0.5-0.4,0.7-0.7c0.2-0.3,0.3-0.6,0.4-0.9c0.1-0.3,0.1-0.7,0.1-1.1s0-0.7-0.1-1.1c-0.1-0.4-0.2-0.7-0.4-0.9
		c-0.2-0.3-0.4-0.5-0.7-0.7c-0.3-0.2-0.6-0.3-1.1-0.3s-0.8,0.1-1.1,0.3c-0.3,0.2-0.5,0.4-0.7,0.7c-0.2,0.3-0.3,0.6-0.4,0.9
		C261,77.6,261,77.9,261,78.3z M258.5,78.3c0-0.7,0.1-1.4,0.3-2c0.2-0.6,0.5-1.1,0.9-1.5c0.4-0.4,0.9-0.7,1.5-1
		c0.6-0.2,1.2-0.3,1.9-0.3s1.4,0.1,1.9,0.3s1.1,0.5,1.5,1c0.4,0.4,0.7,0.9,0.9,1.5c0.2,0.6,0.3,1.2,0.3,2c0,0.7-0.1,1.4-0.3,2
		s-0.5,1.1-0.9,1.5c-0.4,0.4-0.9,0.7-1.5,1s-1.2,0.3-1.9,0.3s-1.4-0.1-1.9-0.3c-0.6-0.2-1.1-0.5-1.5-1s-0.7-0.9-0.9-1.5
		S258.5,79,258.5,78.3z M271.8,78l-3-4.3h2.8l1.6,2.4l1.6-2.4h2.7l-3,4.2l3.3,4.8h-2.8l-1.9-2.9l-1.9,2.9h-2.8L271.8,78z"/>
</g>
</svg>
