<?xml version="1.0" encoding="utf-8"?>
<!-- Generator: Adobe Illustrator 18.1.1, SVG Export Plug-In . SVG Version: 6.00 Build 0)  -->
<svg version="1.1" id="Layer_1" xmlns="http://www.w3.org/2000/svg" xmlns:xlink="http://www.w3.org/1999/xlink" x="0px" y="0px"
	 viewBox="0 0 286 87" enable-background="new 0 0 286 87" xml:space="preserve">
<title>titlearea</title>
<desc>Created with Sketch.</desc>
<g id="Page-1">
	<g id="Direction-_x23_1-grey-Revisions" transform="translate(-275.000000, -752.000000)">
		<g id="footer-banner" transform="translate(93.000000, 725.000000)">
			<g id="titlearea" transform="translate(181.000000, 19.000000)">
				<g enable-background="new    ">
					<path d="M94.8,77.5v13.6h-2.9V77.5H94.8z"/>
					<path d="M99.8,81.3v1.4h0.1c0.3-0.5,0.7-0.9,1.4-1.3c0.5-0.2,1.1-0.4,1.7-0.4c0.7,0,1.3,0.1,1.8,0.3c0.4,0.2,0.8,0.4,1.1,0.8
						c0.2,0.4,0.4,0.7,0.5,1.3c0.1,0.5,0.2,1.1,0.2,1.7v6h-2.7v-5.6c0-0.8-0.1-1.4-0.4-1.8c-0.2-0.4-0.7-0.6-1.4-0.6
						c-0.7,0-1.3,0.2-1.6,0.6c-0.3,0.4-0.5,1.2-0.5,2.1V91h-2.7v-9.8h2.6V81.3z"/>
					<path d="M110.8,91.1l-3.4-9.8h2.8l2.1,6.7l0,0l2.1-6.7h2.6l-3.3,9.8H110.8z"/>
					<path d="M121.1,88.8c0.4,0.4,0.9,0.6,1.8,0.6c0.5,0,1.1-0.1,1.4-0.4c0.4-0.3,0.6-0.5,0.7-0.8h2.3c-0.4,1.2-0.9,2-1.8,2.5
						c-0.7,0.5-1.7,0.7-2.8,0.7c-0.7,0-1.5-0.1-2.1-0.4c-0.6-0.2-1.2-0.6-1.6-1.1c-0.4-0.4-0.7-0.9-0.9-1.6
						c-0.2-0.6-0.3-1.4-0.3-2.1s0.1-1.4,0.3-2c0.2-0.6,0.6-1.2,1.1-1.7c0.4-0.4,0.9-0.8,1.6-1.1c0.6-0.2,1.3-0.4,2-0.4
						c0.8,0,1.6,0.2,2.2,0.5c0.6,0.3,1.2,0.7,1.5,1.3c0.4,0.5,0.7,1.2,0.8,1.9c0.2,0.7,0.2,1.4,0.2,2.2h-7
						C120.5,87.7,120.7,88.3,121.1,88.8z M124.1,83.6c-0.3-0.3-0.8-0.5-1.5-0.5c-0.4,0-0.7,0.1-1.1,0.2c-0.3,0.1-0.5,0.3-0.6,0.5
						s-0.3,0.4-0.3,0.6c-0.1,0.2-0.1,0.4-0.1,0.6h4.4C124.7,84.5,124.5,83.9,124.1,83.6z"/>
					<path d="M131.3,88.7c0.1,0.2,0.3,0.4,0.4,0.5c0.1,0.1,0.4,0.2,0.6,0.3s0.5,0.1,0.7,0.1s0.4,0,0.6-0.1c0.2,0,0.4-0.1,0.5-0.2
						c0.1-0.1,0.3-0.2,0.4-0.4c0.1-0.1,0.2-0.3,0.2-0.6c0-0.4-0.3-0.7-0.8-0.9c-0.5-0.2-1.3-0.4-2.2-0.6c-0.4-0.1-0.7-0.2-1.2-0.3
						s-0.7-0.3-0.9-0.5c-0.3-0.2-0.5-0.4-0.7-0.7c-0.2-0.3-0.3-0.6-0.3-1.1c0-0.6,0.1-1.2,0.4-1.6c0.2-0.4,0.5-0.7,0.9-0.9
						c0.4-0.2,0.8-0.4,1.4-0.5s1.1-0.1,1.6-0.1s1.1,0,1.6,0.1s0.9,0.3,1.4,0.5c0.4,0.2,0.7,0.5,0.9,0.9c0.2,0.4,0.4,0.9,0.4,1.5
						h-2.5c0-0.5-0.2-0.8-0.6-1.1s-0.7-0.3-1.3-0.3c-0.1,0-0.3,0-0.5,0c-0.2,0-0.3,0.1-0.5,0.1c-0.1,0.1-0.3,0.1-0.4,0.3
						c-0.1,0.1-0.1,0.3-0.1,0.5s0.1,0.4,0.3,0.6c0.2,0.1,0.4,0.3,0.7,0.4c0.3,0.1,0.6,0.2,0.9,0.2s0.7,0.2,1.2,0.2
						c0.4,0.1,0.7,0.2,1.2,0.3c0.4,0.1,0.7,0.3,0.9,0.5c0.3,0.2,0.5,0.4,0.7,0.7c0.2,0.3,0.3,0.7,0.3,1.2c0,0.6-0.1,1.2-0.4,1.6
						c-0.3,0.4-0.6,0.7-1.1,1.1s-0.8,0.4-1.5,0.5c-0.5,0.1-1.1,0.2-1.7,0.2c-0.5,0-1.2-0.1-1.7-0.2c-0.5-0.1-1.1-0.3-1.5-0.5
						c-0.4-0.3-0.7-0.6-1.1-1.1c-0.3-0.4-0.4-0.9-0.4-1.7h2.5C131.2,88.2,131.2,88.5,131.3,88.7z"/>
					<path d="M144.7,81.3v1.8h-2v4.8c0,0.4,0.1,0.7,0.2,0.9c0.1,0.1,0.4,0.2,0.9,0.2c0.1,0,0.3,0,0.4,0c0.1,0,0.3,0,0.4-0.1v2.1
						c-0.2,0-0.5,0.1-0.7,0.1c-0.3,0-0.5,0-0.8,0c-0.4,0-0.8,0-1.2-0.1c-0.4-0.1-0.7-0.2-0.9-0.3c-0.3-0.2-0.5-0.4-0.6-0.7
						c-0.2-0.3-0.2-0.7-0.2-1.2v-5.8h-1.6v-1.8h1.6v-2.9h2.7v2.9L144.7,81.3L144.7,81.3z"/>
					<path d="M146,79.8v-2.2h2.7v2.2H146z M148.7,81.3v9.8h-2.7v-9.8H148.7z"/>
					<path d="M160,91.8c-0.1,0.5-0.3,0.9-0.7,1.4c-0.4,0.4-0.8,0.8-1.6,1.2c-0.6,0.3-1.6,0.4-2.7,0.4c-0.5,0-0.9-0.1-1.5-0.2
						c-0.5-0.1-0.9-0.3-1.4-0.5c-0.4-0.2-0.7-0.5-1.1-0.9c-0.3-0.4-0.4-0.8-0.4-1.5h2.6c0.1,0.5,0.4,0.8,0.7,1.1
						c0.3,0.2,0.8,0.3,1.3,0.3c0.7,0,1.3-0.2,1.7-0.6c0.3-0.4,0.5-1.1,0.5-1.7v-1.3l0,0c-0.3,0.5-0.7,0.9-1.3,1.2
						c-0.5,0.2-1.1,0.4-1.7,0.4c-0.7,0-1.4-0.1-1.9-0.4c-0.5-0.2-0.9-0.6-1.3-1.1s-0.6-0.9-0.7-1.6c-0.2-0.6-0.2-1.3-0.2-1.9
						s0.1-1.3,0.3-1.8c0.2-0.6,0.4-1.2,0.8-1.6c0.4-0.4,0.8-0.8,1.4-1.1c0.5-0.2,1.2-0.4,1.8-0.4c0.6,0,1.2,0.1,1.7,0.3
						c0.5,0.2,0.8,0.6,1.3,1.3l0,0v-1.3h2.5v9.1C160.2,90.9,160.1,91.3,160,91.8z M156.3,88.6c0.3-0.1,0.5-0.3,0.7-0.6
						c0.2-0.2,0.3-0.5,0.4-0.8s0.1-0.6,0.1-1.1c0-0.4,0-0.7-0.1-1.2c-0.1-0.3-0.2-0.6-0.4-0.9c-0.2-0.3-0.4-0.5-0.7-0.6
						c-0.3-0.2-0.6-0.2-1.1-0.2s-0.7,0.1-0.9,0.2c-0.2,0.1-0.5,0.3-0.6,0.6c-0.1,0.3-0.3,0.5-0.4,0.8c-0.1,0.3-0.1,0.7-0.1,1.1
						c0,0.3,0,0.7,0.1,1.1c0.1,0.3,0.2,0.6,0.3,0.9s0.4,0.5,0.6,0.6c0.3,0.2,0.6,0.3,1.1,0.3S156.1,88.7,156.3,88.6z"/>
					<path d="M162.2,84.4c0-0.6,0.2-1.2,0.5-1.6c0.3-0.4,0.6-0.7,1.1-1.1c0.4-0.2,0.9-0.4,1.5-0.5c0.5-0.1,1.1-0.2,1.6-0.2
						s0.9,0,1.5,0.1s0.9,0.2,1.4,0.4c0.4,0.2,0.7,0.5,1.1,0.8c0.3,0.3,0.4,0.8,0.4,1.5v5c0,0.4,0,0.8,0.1,1.3c0,0.4,0.1,0.7,0.3,0.9
						h-2.7c0-0.1-0.1-0.3-0.1-0.4c0-0.1-0.1-0.3-0.1-0.5c-0.4,0.4-0.9,0.7-1.5,0.9c-0.5,0.2-1.2,0.3-1.8,0.3c-0.4,0-0.9-0.1-1.3-0.2
						c-0.4-0.1-0.7-0.3-1.1-0.5c-0.3-0.2-0.5-0.5-0.7-0.9c-0.2-0.3-0.2-0.8-0.2-1.3c0-0.5,0.1-1.1,0.3-1.4s0.4-0.6,0.7-0.8
						s0.6-0.4,1.1-0.5c0.4-0.1,0.8-0.2,1.2-0.2c0.4-0.1,0.8-0.1,1.2-0.1c0.3,0,0.7-0.1,1.1-0.2s0.5-0.2,0.7-0.3
						c0.2-0.1,0.2-0.3,0.2-0.6c0-0.3,0-0.5-0.1-0.7c-0.1-0.2-0.2-0.3-0.4-0.4c-0.1-0.1-0.3-0.1-0.5-0.2s-0.4,0-0.6,0
						c-0.5,0-0.9,0.1-1.3,0.3c-0.3,0.2-0.5,0.6-0.5,1.2L162.2,84.4L162.2,84.4z M168.4,86.2c-0.1,0.1-0.2,0.2-0.4,0.2
						c-0.2,0.1-0.3,0.1-0.5,0.1s-0.4,0.1-0.6,0.1c-0.2,0-0.4,0.1-0.6,0.1c-0.2,0-0.4,0.1-0.6,0.1c-0.2,0.1-0.3,0.1-0.5,0.2
						s-0.2,0.2-0.3,0.4c-0.1,0.2-0.1,0.4-0.1,0.6c0,0.2,0,0.4,0.1,0.6c0.1,0.2,0.2,0.3,0.3,0.4c0.1,0.1,0.3,0.2,0.5,0.2
						s0.4,0.1,0.6,0.1c0.5,0,0.9-0.1,1.3-0.3c0.3-0.2,0.5-0.4,0.6-0.6c0.1-0.2,0.2-0.5,0.2-0.7s0-0.4,0-0.6v-0.9H168.4z"/>
					<path d="M178.6,81.3v1.8h-2v4.8c0,0.4,0.1,0.7,0.2,0.9c0.1,0.1,0.4,0.2,0.9,0.2c0.1,0,0.3,0,0.4,0c0.1,0,0.3,0,0.4-0.1v2.1
						c-0.2,0-0.5,0.1-0.7,0.1c-0.3,0-0.5,0-0.8,0c-0.4,0-0.8,0-1.2-0.1c-0.4-0.1-0.7-0.2-0.9-0.3c-0.3-0.2-0.5-0.4-0.6-0.7
						c-0.2-0.3-0.2-0.7-0.2-1.2v-5.8h-1.6v-1.8h1.6v-2.9h2.7v2.9L178.6,81.3L178.6,81.3z"/>
					<path d="M180,79.8v-2.2h2.7v2.2H180z M182.6,81.3v9.8h-2.7v-9.8H182.6z"/>
					<path d="M187.1,91.1l-3.4-9.8h2.8l2.1,6.7l0,0l2.1-6.7h2.6l-3.3,9.8H187.1z"/>
					<path d="M197.5,88.8c0.4,0.4,0.9,0.6,1.8,0.6c0.5,0,1.1-0.1,1.4-0.4c0.4-0.3,0.6-0.5,0.7-0.8h2.3c-0.4,1.2-0.9,2-1.8,2.5
						c-0.7,0.5-1.7,0.7-2.8,0.7c-0.7,0-1.5-0.1-2.1-0.4c-0.6-0.2-1.2-0.6-1.6-1.1c-0.4-0.4-0.7-0.9-0.9-1.6
						c-0.2-0.6-0.3-1.4-0.3-2.1s0.1-1.4,0.3-2c0.2-0.6,0.6-1.2,1.1-1.7c0.4-0.4,0.9-0.8,1.6-1.1c0.6-0.2,1.3-0.4,2-0.4
						c0.8,0,1.6,0.2,2.2,0.5c0.6,0.3,1.2,0.7,1.5,1.3c0.4,0.5,0.7,1.2,0.8,1.9c0.2,0.7,0.2,1.4,0.2,2.2h-7
						C196.8,87.7,197.1,88.3,197.5,88.8z M200.5,83.6c-0.3-0.3-0.8-0.5-1.5-0.5c-0.4,0-0.7,0.1-1.1,0.2c-0.3,0.1-0.5,0.3-0.6,0.5
						s-0.3,0.4-0.3,0.6c-0.1,0.2-0.1,0.4-0.1,0.6h4.4C201.1,84.5,200.8,83.9,200.5,83.6z"/>
					<path d="M218.3,77.5c0.6,0,1.2,0.1,1.7,0.3s0.9,0.4,1.3,0.8c0.3,0.3,0.6,0.7,0.8,1.2c0.2,0.4,0.3,0.9,0.3,1.5
						c0,0.8-0.2,1.5-0.5,2.1c-0.3,0.6-0.8,1.1-1.7,1.4l0,0c0.3,0.1,0.6,0.2,0.9,0.4c0.2,0.2,0.4,0.4,0.6,0.7
						c0.1,0.3,0.2,0.6,0.3,0.9c0.1,0.3,0.1,0.6,0.1,1.1c0,0.2,0,0.4,0,0.7c0,0.3,0,0.6,0.1,0.8c0,0.3,0.1,0.6,0.1,0.8
						c0.1,0.3,0.2,0.5,0.3,0.7h-2.9c-0.2-0.4-0.3-0.9-0.3-1.6s-0.1-1.2-0.2-1.7c-0.1-0.7-0.3-1.3-0.6-1.6c-0.3-0.3-0.8-0.5-1.6-0.5
						h-2.9V91h-2.9V77.4h7.2V77.5z M217.2,83.7c0.6,0,1.2-0.1,1.6-0.4c0.3-0.3,0.5-0.8,0.5-1.5c0-0.6-0.2-1.2-0.5-1.5
						c-0.3-0.3-0.8-0.4-1.6-0.4H214v3.8L217.2,83.7L217.2,83.7z"/>
					<path d="M227.3,88.8c0.4,0.4,0.9,0.6,1.8,0.6c0.5,0,1.1-0.1,1.4-0.4c0.4-0.3,0.6-0.5,0.7-0.8h2.3c-0.4,1.2-0.9,2-1.8,2.5
						c-0.7,0.5-1.7,0.7-2.8,0.7c-0.7,0-1.5-0.1-2.1-0.4c-0.6-0.2-1.2-0.6-1.6-1.1c-0.4-0.4-0.7-0.9-0.9-1.6
						c-0.2-0.6-0.3-1.4-0.3-2.1s0.1-1.4,0.3-2c0.2-0.6,0.6-1.2,1.1-1.7c0.4-0.4,0.9-0.8,1.6-1.1c0.6-0.2,1.3-0.4,2-0.4
						c0.8,0,1.6,0.2,2.2,0.5c0.6,0.3,1.2,0.7,1.5,1.3c0.4,0.5,0.7,1.2,0.8,1.9c0.2,0.7,0.2,1.4,0.2,2.2h-7
						C226.7,87.7,226.9,88.3,227.3,88.8z M230.4,83.6c-0.3-0.3-0.8-0.5-1.5-0.5c-0.4,0-0.7,0.1-1.1,0.2c-0.3,0.1-0.5,0.3-0.6,0.5
						c-0.1,0.2-0.3,0.4-0.3,0.6c-0.1,0.2-0.1,0.4-0.1,0.6h4.4C230.9,84.5,230.7,83.9,230.4,83.6z"/>
					<path d="M237.8,81.3v1.3l0,0c0.3-0.5,0.7-0.9,1.3-1.2c0.5-0.2,1.1-0.3,1.7-0.3c0.7,0,1.5,0.1,2,0.4c0.5,0.3,1.1,0.6,1.4,1.2
						c0.3,0.5,0.6,1.1,0.8,1.7c0.2,0.6,0.3,1.3,0.3,2c0,0.6-0.1,1.3-0.3,1.9c-0.2,0.6-0.4,1.2-0.8,1.6c-0.3,0.4-0.8,0.8-1.4,1.2
						c-0.5,0.3-1.2,0.4-1.9,0.4c-0.6,0-1.2-0.1-1.7-0.4c-0.5-0.2-0.9-0.6-1.3-1.1l0,0v4.6h-2.6V81.3L237.8,81.3L237.8,81.3z
						 M241.3,89.1c0.3-0.2,0.5-0.4,0.7-0.7c0.2-0.3,0.3-0.6,0.4-0.9c0.1-0.4,0.1-0.7,0.1-1.2s0-0.7-0.1-1.2
						c-0.1-0.4-0.2-0.7-0.4-1.1c-0.2-0.3-0.4-0.5-0.7-0.7c-0.3-0.2-0.6-0.3-1.1-0.3c-0.4,0-0.8,0.1-1.2,0.3
						c-0.3,0.2-0.5,0.4-0.7,0.7c-0.2,0.3-0.3,0.6-0.4,1.1c-0.1,0.4-0.1,0.7-0.1,1.2c0,0.4,0,0.7,0.1,1.2c0.1,0.4,0.2,0.7,0.4,0.9
						c0.2,0.3,0.4,0.5,0.7,0.7c0.3,0.2,0.6,0.3,1.1,0.3C240.7,89.3,241,89.2,241.3,89.1z"/>
					<path d="M246.9,84c0.2-0.6,0.6-1.2,1.1-1.6c0.4-0.4,0.9-0.8,1.6-1.1c0.6-0.2,1.3-0.4,2.1-0.4c0.7,0,1.5,0.1,2.1,0.4
						c0.6,0.2,1.2,0.6,1.6,1.1c0.4,0.4,0.7,0.9,1.1,1.6c0.2,0.6,0.3,1.4,0.3,2.1s-0.1,1.5-0.3,2.1c-0.2,0.6-0.6,1.2-1.1,1.6
						c-0.4,0.4-0.9,0.8-1.6,1.1c-0.6,0.2-1.4,0.3-2.1,0.3s-1.5-0.1-2.1-0.3c-0.6-0.2-1.2-0.6-1.6-1.1c-0.4-0.4-0.7-0.9-1.1-1.6
						c-0.2-0.6-0.3-1.4-0.3-2.1S246.7,84.7,246.9,84z M249.3,87.3c0.1,0.4,0.2,0.7,0.4,1.1c0.2,0.3,0.4,0.5,0.7,0.7
						c0.3,0.2,0.6,0.3,1.2,0.3c0.4,0,0.8-0.1,1.2-0.3c0.3-0.2,0.5-0.4,0.7-0.7c0.2-0.3,0.3-0.6,0.4-1.1c0.1-0.4,0.1-0.7,0.1-1.2
						c0-0.4,0-0.7-0.1-1.2c-0.1-0.4-0.2-0.7-0.4-1.1c-0.2-0.3-0.4-0.5-0.7-0.7c-0.3-0.2-0.7-0.3-1.2-0.3c-0.4,0-0.8,0.1-1.2,0.3
						c-0.3,0.2-0.5,0.4-0.7,0.7c-0.2,0.3-0.3,0.6-0.4,1.1c-0.1,0.4-0.1,0.7-0.1,1.2C249.2,86.6,249.3,87,249.3,87.3z"/>
					<path d="M261,81.3v1.8l0,0c0.1-0.3,0.3-0.6,0.5-0.8s0.4-0.5,0.7-0.6c0.3-0.1,0.5-0.3,0.8-0.4c0.3-0.1,0.6-0.1,0.9-0.1
						c0.2,0,0.4,0,0.6,0.1v2.5c-0.1,0-0.3,0-0.4-0.1c-0.2,0-0.3,0-0.5,0c-0.5,0-0.9,0.1-1.3,0.2c-0.3,0.2-0.6,0.4-0.8,0.6
						c-0.2,0.3-0.3,0.6-0.4,0.9c-0.1,0.4-0.1,0.8-0.1,1.3v4.4h-2.6v-9.8L261,81.3L261,81.3z"/>
					<path d="M271.2,81.3v1.8h-2v4.8c0,0.4,0.1,0.7,0.2,0.9c0.1,0.1,0.4,0.2,0.9,0.2c0.1,0,0.3,0,0.4,0c0.1,0,0.3,0,0.4-0.1v2.1
						c-0.2,0-0.5,0.1-0.7,0.1c-0.3,0-0.5,0-0.8,0c-0.4,0-0.8,0-1.2-0.1c-0.4-0.1-0.7-0.2-0.9-0.3c-0.3-0.2-0.5-0.4-0.6-0.7
						c-0.2-0.3-0.2-0.7-0.2-1.2v-5.8h-1.6v-1.8h1.6v-2.9h2.7v2.9L271.2,81.3L271.2,81.3z"/>
					<path d="M274.7,88.7c0.1,0.2,0.3,0.4,0.4,0.5c0.2,0.1,0.4,0.2,0.6,0.3s0.5,0.1,0.7,0.1c0.2,0,0.4,0,0.6-0.1
						c0.2,0,0.4-0.1,0.5-0.2c0.2-0.1,0.3-0.2,0.4-0.4c0.1-0.1,0.2-0.3,0.2-0.6c0-0.4-0.3-0.7-0.8-0.9c-0.5-0.2-1.3-0.4-2.2-0.6
						c-0.4-0.1-0.7-0.2-1.2-0.3s-0.7-0.3-0.9-0.5c-0.3-0.2-0.5-0.4-0.7-0.7c-0.2-0.3-0.3-0.6-0.3-1.1c0-0.6,0.1-1.2,0.4-1.6
						c0.2-0.4,0.5-0.7,0.9-0.9c0.4-0.2,0.8-0.4,1.4-0.5c0.5-0.1,1.1-0.1,1.6-0.1c0.5,0,1.1,0,1.6,0.1c0.5,0.1,0.9,0.3,1.4,0.5
						c0.4,0.2,0.7,0.5,0.9,0.9c0.2,0.4,0.4,0.9,0.4,1.5h-2.5c0-0.5-0.2-0.8-0.6-1.1s-0.7-0.3-1.3-0.3c-0.1,0-0.3,0-0.5,0
						s-0.3,0.1-0.5,0.1c-0.1,0.1-0.3,0.1-0.4,0.3c-0.1,0.1-0.1,0.3-0.1,0.5s0.1,0.4,0.3,0.6c0.2,0.1,0.4,0.3,0.7,0.4
						c0.3,0.1,0.6,0.2,0.9,0.2s0.7,0.2,1.2,0.2c0.4,0.1,0.7,0.2,1.2,0.3s0.7,0.3,0.9,0.5c0.3,0.2,0.5,0.4,0.7,0.7
						c0.2,0.3,0.3,0.7,0.3,1.2c0,0.6-0.1,1.2-0.4,1.6c-0.2,0.4-0.6,0.7-1.1,1.1c-0.4,0.3-0.8,0.4-1.5,0.5c-0.5,0.1-1.1,0.2-1.7,0.2
						c-0.5,0-1.2-0.1-1.7-0.2c-0.5-0.1-1.1-0.3-1.5-0.5c-0.4-0.3-0.7-0.6-1.1-1.1c-0.3-0.4-0.4-0.9-0.4-1.7h2.5
						C274.5,88.2,274.5,88.5,274.7,88.7z"/>
				</g>
				<g enable-background="new    ">
					<path d="M14.1,13.7c-0.2-0.4-0.5-0.7-0.9-1.1c-0.4-0.3-0.8-0.6-1.3-0.7c-0.5-0.2-0.9-0.2-1.5-0.2c-0.9,0-1.8,0.2-2.4,0.5
						c-0.6,0.4-1.3,0.8-1.7,1.5c-0.4,0.6-0.7,1.4-0.9,2.1c-0.2,0.8-0.3,1.7-0.3,2.5s0.1,1.6,0.3,2.4c0.2,0.7,0.5,1.5,0.9,2.1
						C6.8,23.5,7.3,24,8,24.3c0.6,0.4,1.5,0.5,2.4,0.5c1.3,0,2.3-0.4,3-1.2c0.7-0.7,1.2-1.9,1.4-3.2h4.2c-0.1,1.3-0.4,2.3-0.8,3.3
						c-0.4,0.9-1.1,1.8-1.8,2.5c-0.7,0.7-1.6,1.3-2.6,1.6c-1.1,0.3-2.1,0.5-3.3,0.5c-1.5,0-2.8-0.2-4-0.7c-1.2-0.5-2.2-1.3-3-2.1
						c-0.8-0.9-1.5-2-1.9-3.3S1,19.8,1,18.3s0.2-2.8,0.6-4.1c0.4-1.3,1.1-2.3,1.9-3.3c0.8-0.9,1.8-1.7,3-2.2S8.9,8,10.4,8
						c1.1,0,2.1,0.1,3,0.4c0.9,0.3,1.8,0.7,2.5,1.4c0.7,0.6,1.4,1.4,1.9,2.2c0.5,0.8,0.8,1.9,0.9,3h-4.2
						C14.6,14.5,14.4,14.1,14.1,13.7z"/>
					<path d="M21.6,11.7V8.5h3.9v3.2H21.6z M25.5,13.9V28h-3.9V13.9H25.5z"/>
					<path d="M36.3,13.9v2.6h-2.8v7c0,0.6,0.1,1.1,0.3,1.3s0.6,0.3,1.3,0.3c0.2,0,0.4,0,0.6,0c0.2,0,0.4,0,0.5-0.1v3
						c-0.3,0.1-0.7,0.1-1.1,0.1c-0.4,0-0.8,0-1.2,0c-0.6,0-1.2,0-1.7-0.1c-0.5-0.1-1.1-0.2-1.5-0.5c-0.4-0.2-0.7-0.5-0.9-1.1
						c-0.2-0.4-0.3-1.1-0.3-1.7v-8.4h-2.3v-2.6h2.3V9.6h3.9v4.2h2.8V13.9z"/>
					<path d="M43.4,32.2c-0.7,0.5-1.8,0.7-3.2,0.7c-0.4,0-0.8,0-1.2,0c-0.4,0-0.8-0.1-1.2-0.1v-3.2c0.3,0,0.7,0.1,1.2,0.1
						c0.4,0,0.7,0,1.2,0c0.5-0.1,0.8-0.2,1.2-0.6c0.2-0.3,0.4-0.7,0.4-1.2c0-0.3-0.1-0.6-0.2-0.8l-5-13.3h4.1l3.2,9.7h0.1l3-9.7h4
						l-5.9,15.9C44.7,30.9,44.1,31.7,43.4,32.2z"/>
					<path d="M64.6,8.4v15.9h9.5v3.6H60.3V8.4H64.6z"/>
					<path d="M76.3,11.7V8.5h3.9v3.2H76.3z M80.2,13.9V28h-3.9V13.9H80.2z"/>
					<path d="M87,13.9v1.9l0,0c0.5-0.7,1.2-1.3,1.9-1.7c0.7-0.4,1.6-0.6,2.5-0.6c0.8,0,1.7,0.2,2.4,0.5s1.3,0.9,1.7,1.8
						c0.4-0.6,0.9-1.2,1.7-1.7s1.6-0.7,2.5-0.7c0.7,0,1.5,0.1,2.1,0.3c0.6,0.2,1.2,0.5,1.7,0.8c0.4,0.4,0.8,0.9,1.1,1.6
						s0.4,1.5,0.4,2.3v9.5h-3.9v-8c0-0.5,0-0.9-0.1-1.4c0-0.4-0.1-0.7-0.3-1.1c-0.2-0.3-0.4-0.5-0.7-0.7s-0.7-0.3-1.3-0.3
						c-0.5,0-0.9,0.1-1.4,0.3c-0.3,0.2-0.6,0.5-0.8,0.8c-0.2,0.3-0.3,0.7-0.4,1.2S96,19.6,96,20v7.9h-3.9V20c0-0.4,0-0.8,0-1.3
						c0-0.4-0.1-0.8-0.2-1.2c-0.1-0.3-0.3-0.6-0.6-0.8c-0.3-0.2-0.8-0.3-1.4-0.3c-0.2,0-0.4,0-0.7,0.1c-0.3,0.1-0.6,0.2-0.8,0.4
						c-0.2,0.2-0.5,0.5-0.7,0.9c-0.2,0.4-0.3,0.9-0.3,1.7v8.2h-3.9V13.9H87z"/>
					<path d="M108.1,11.7V8.5h3.9v3.2H108.1z M112,13.9V28h-3.9V13.9H112z"/>
					<path d="M122.8,13.9v2.6h-2.8v7c0,0.6,0.1,1.1,0.3,1.3c0.2,0.2,0.6,0.3,1.3,0.3c0.2,0,0.4,0,0.6,0c0.2,0,0.4,0,0.5-0.1v3
						c-0.3,0.1-0.7,0.1-1.1,0.1c-0.4,0-0.8,0-1.2,0c-0.6,0-1.2,0-1.7-0.1c-0.5-0.1-1.1-0.2-1.5-0.5c-0.4-0.2-0.7-0.5-0.9-1.1
						c-0.2-0.4-0.3-1.1-0.3-1.7v-8.4h-2.3v-2.6h2.3V9.6h3.9v4.2h2.8V13.9z"/>
					<path d="M127.9,24.5c0.2,0.3,0.4,0.5,0.6,0.7c0.3,0.2,0.6,0.3,0.9,0.4c0.3,0.1,0.7,0.1,1.2,0.1c0.3,0,0.5,0,0.8-0.1
						c0.3-0.1,0.5-0.2,0.8-0.3c0.2-0.1,0.4-0.3,0.6-0.5s0.2-0.5,0.2-0.8c0-0.6-0.4-1.1-1.2-1.3c-0.7-0.3-1.9-0.6-3.3-0.8
						c-0.5-0.1-1.2-0.3-1.7-0.4c-0.5-0.2-1.1-0.4-1.5-0.7c-0.4-0.3-0.7-0.6-1.1-1.1c-0.2-0.4-0.4-0.9-0.4-1.6c0-0.9,0.2-1.7,0.5-2.2
						c0.3-0.6,0.8-1.1,1.4-1.4c0.6-0.3,1.3-0.5,2-0.7c0.7-0.1,1.5-0.2,2.2-0.2s1.5,0.1,2.2,0.2c0.7,0.1,1.4,0.4,1.9,0.7
						c0.5,0.3,1.1,0.8,1.4,1.4c0.4,0.5,0.6,1.3,0.6,2.2h-3.7c-0.1-0.7-0.3-1.3-0.8-1.5c-0.5-0.2-1.2-0.4-1.8-0.4c-0.2,0-0.4,0-0.7,0
						c-0.2,0-0.5,0.1-0.7,0.2c-0.2,0.1-0.4,0.2-0.5,0.4c-0.1,0.2-0.2,0.4-0.2,0.7c0,0.3,0.1,0.6,0.4,0.8c0.2,0.2,0.6,0.4,0.9,0.5
						c0.4,0.1,0.8,0.2,1.4,0.4c0.5,0.1,1.1,0.2,1.6,0.3c0.5,0.1,1.2,0.3,1.7,0.4c0.5,0.2,1.1,0.4,1.5,0.7c0.4,0.3,0.7,0.6,1.1,1.2
						c0.2,0.4,0.4,0.9,0.4,1.7c0,0.9-0.2,1.7-0.5,2.3c-0.4,0.6-0.8,1.2-1.5,1.5c-0.6,0.4-1.3,0.6-2.1,0.8c-0.7,0.1-1.6,0.2-2.3,0.2
						c-0.8,0-1.6-0.1-2.4-0.2c-0.7-0.2-1.5-0.4-2.1-0.8s-1.2-0.8-1.5-1.5c-0.4-0.6-0.6-1.4-0.6-2.3h3.7
						C127.7,23.8,127.7,24.2,127.9,24.5z"/>
				</g>
				<g enable-background="new    ">
					<path fill="#FF0000" d="M11.1,36.1l15,24.2h0.1V36.1h7.5v36.1h-7.9l-15-24.1h-0.1v24.1H3.2V36.1H11.1z"/>
					<path fill="#FF0000" d="M47.6,65.8c1.1,1.1,2.6,1.6,4.6,1.6c1.5,0,2.7-0.3,3.8-1.1c1.1-0.7,1.7-1.5,1.9-2.3h6.3
						c-1.1,3.2-2.5,5.4-4.6,6.7c-2.1,1.4-4.6,2-7.6,2c-2.1,0-3.9-0.3-5.6-0.9c-1.7-0.6-3-1.6-4.2-2.8c-1.2-1.3-2-2.6-2.6-4.3
						c-0.6-1.7-0.9-3.6-0.9-5.6c0-2,0.3-3.8,0.9-5.5c0.6-1.7,1.6-3.2,2.7-4.4c1.2-1.3,2.6-2.2,4.2-2.9c1.7-0.7,3.5-1.1,5.5-1.1
						c2.2,0,4.2,0.4,5.8,1.3c1.7,0.8,3,2,4.1,3.5c1.1,1.5,1.8,3,2.3,4.9c0.4,1.9,0.6,3.8,0.5,5.8H45.8
						C45.9,63.2,46.4,64.9,47.6,65.8z M55.7,52.2c-0.8-0.9-2.2-1.4-3.9-1.4c-1.2,0-2.1,0.2-2.8,0.6c-0.7,0.4-1.4,0.8-1.8,1.5
						c-0.4,0.5-0.7,1.2-0.9,1.8c-0.2,0.6-0.3,1.3-0.3,1.7h11.7C57.1,54.5,56.5,53.1,55.7,52.2z"/>
					<path fill="#FF0000" d="M91.3,72.2l-4.6-17.6h-0.1l-4.5,17.6h-7.5l-8.3-26.1h7.6l4.8,17.7h0.1l4.3-17.7h7l4.4,17.7h0.1
						l4.8-17.7h7.4l-8.2,26.1H91.3z"/>
					<path fill="#FF0000" d="M115.9,65.6c0.3,0.5,0.7,1.1,1.3,1.4c0.5,0.3,1.1,0.6,1.8,0.7s1.4,0.2,2,0.2c0.5,0,1.1-0.1,1.6-0.2
						c0.5-0.1,1.1-0.3,1.5-0.5c0.4-0.2,0.8-0.6,1.2-1.1c0.3-0.4,0.4-0.9,0.4-1.6c0-1.1-0.7-1.9-2.1-2.4c-1.5-0.5-3.5-1.1-6-1.6
						c-1.1-0.2-2.1-0.5-3-0.8c-0.9-0.3-1.9-0.7-2.6-1.3c-0.7-0.5-1.4-1.2-1.9-2c-0.4-0.8-0.7-1.8-0.7-2.9c0-1.7,0.3-3,0.9-4.1
						c0.6-1.1,1.5-1.9,2.6-2.5c1.1-0.6,2.3-1.1,3.7-1.3c1.4-0.2,2.7-0.4,4.1-0.4c1.4,0,2.7,0.1,4.1,0.4c1.4,0.3,2.5,0.7,3.6,1.4
						c1.1,0.6,1.9,1.5,2.6,2.5c0.7,1.1,1.1,2.4,1.3,4h-6.8c-0.1-1.4-0.6-2.3-1.6-2.8c-0.9-0.5-2.1-0.7-3.4-0.7c-0.4,0-0.8,0-1.3,0.1
						c-0.4,0-0.9,0.2-1.3,0.3c-0.4,0.2-0.7,0.4-0.9,0.7c-0.3,0.3-0.4,0.7-0.4,1.3c0,0.6,0.2,1.2,0.7,1.6c0.4,0.4,1.1,0.7,1.9,0.9
						c0.8,0.2,1.6,0.5,2.6,0.6c0.9,0.2,2,0.4,2.9,0.6c1.1,0.2,2.1,0.5,3,0.8s1.9,0.7,2.6,1.4c0.7,0.5,1.4,1.3,1.9,2.1
						c0.4,0.8,0.7,1.9,0.7,3c0,1.7-0.3,3.2-1.1,4.3c-0.7,1.2-1.6,2.1-2.7,2.8s-2.4,1.2-3.8,1.5c-1.5,0.3-2.8,0.4-4.4,0.4
						c-1.5,0-2.9-0.1-4.4-0.4c-1.5-0.3-2.7-0.8-3.9-1.5c-1.2-0.7-2.1-1.7-2.7-2.8c-0.7-1.2-1.2-2.6-1.2-4.4h6.8
						C115.5,64.5,115.6,65.1,115.9,65.6z"/>
					<path fill="#FF0000" d="M144.4,36.1v36.1h-7.2V36.1H144.4z"/>
					<path fill="#FF0000" d="M157.7,65.8c1.1,1.1,2.6,1.6,4.6,1.6c1.5,0,2.7-0.3,3.8-1.1c1.1-0.7,1.7-1.5,1.9-2.3h6.3
						c-1.1,3.2-2.5,5.4-4.6,6.7c-2.1,1.4-4.6,2-7.6,2c-2.1,0-3.9-0.3-5.6-0.9c-1.7-0.6-3-1.6-4.2-2.8c-1.2-1.3-2-2.6-2.6-4.3
						c-0.6-1.7-0.9-3.6-0.9-5.6c0-2,0.3-3.8,0.9-5.5c0.6-1.7,1.6-3.2,2.7-4.4s2.6-2.2,4.2-2.9c1.7-0.7,3.5-1.1,5.5-1.1
						c2.2,0,4.2,0.4,5.8,1.3c1.7,0.8,3,2,4.1,3.5c1.1,1.5,1.8,3,2.3,4.9c0.4,1.9,0.6,3.8,0.5,5.8H156
						C156.1,63.2,156.6,64.9,157.7,65.8z M165.8,52.2c-0.8-0.9-2.2-1.4-3.9-1.4c-1.2,0-2.1,0.2-2.8,0.6s-1.4,0.8-1.8,1.5
						c-0.4,0.5-0.7,1.2-0.9,1.8c-0.2,0.6-0.3,1.3-0.3,1.7h11.7C167.3,54.5,166.7,53.1,165.8,52.2z"/>
					<path fill="#FF0000" d="M193.3,46.1v4.8h-5.3v12.8c0,1.3,0.2,2,0.6,2.4c0.4,0.4,1.3,0.6,2.4,0.6c0.4,0,0.8,0,1.2,0
						c0.4,0,0.7-0.1,1.1-0.1v5.6c-0.6,0.1-1.3,0.2-2,0.2s-1.5,0-2.2,0c-1.2,0-2.2-0.1-3.2-0.2c-0.9-0.1-1.9-0.4-2.6-0.8
						c-0.7-0.4-1.4-1.1-1.8-1.9c-0.4-0.8-0.6-1.9-0.6-3.2V51h-4.3v-4.8h4.3v-7.8h7.2v7.8h5.3V46.1z"/>
					<path fill="#FF0000" d="M211.1,46.1v4.8h-5.3v12.8c0,1.3,0.2,2,0.6,2.4c0.4,0.4,1.3,0.6,2.4,0.6c0.4,0,0.8,0,1.2,0
						c0.4,0,0.7-0.1,1.1-0.1v5.6c-0.6,0.1-1.3,0.2-2,0.2s-1.5,0-2.2,0c-1.2,0-2.2-0.1-3.2-0.2c-0.9-0.1-1.9-0.4-2.6-0.8
						c-0.7-0.4-1.4-1.1-1.8-1.9s-0.6-1.9-0.6-3.2V51h-4.3v-4.8h4.3v-7.8h7.2v7.8h5.3V46.1z"/>
					<path fill="#FF0000" d="M222.3,65.8c1.1,1.1,2.6,1.6,4.6,1.6c1.5,0,2.7-0.3,3.8-1.1c1.1-0.7,1.7-1.5,1.9-2.3h6.3
						c-1.1,3.2-2.5,5.4-4.6,6.7c-2.1,1.4-4.6,2-7.6,2c-2.1,0-3.9-0.3-5.6-0.9c-1.7-0.6-3-1.6-4.2-2.8c-1.2-1.3-2-2.6-2.6-4.3
						c-0.6-1.7-0.9-3.6-0.9-5.6c0-2,0.3-3.8,0.9-5.5c0.6-1.7,1.6-3.2,2.7-4.4s2.6-2.2,4.2-2.9c1.7-0.7,3.5-1.1,5.5-1.1
						c2.2,0,4.2,0.4,5.8,1.3c1.7,0.8,3,2,4.1,3.5c1.1,1.5,1.8,3,2.3,4.9c0.4,1.9,0.6,3.8,0.5,5.8h-18.8
						C220.6,63.2,221.2,64.9,222.3,65.8z M230.4,52.2c-0.8-0.9-2.2-1.4-3.9-1.4c-1.2,0-2.1,0.2-2.8,0.6s-1.4,0.8-1.8,1.5
						c-0.4,0.5-0.7,1.2-0.9,1.8c-0.2,0.6-0.3,1.3-0.3,1.7h11.6C231.8,54.5,231.2,53.1,230.4,52.2z"/>
					<path fill="#FF0000" d="M250.3,46.1v4.8h0.1c0.3-0.8,0.8-1.6,1.4-2.2c0.5-0.7,1.3-1.3,2-1.8c0.7-0.5,1.6-0.8,2.4-1.2
						c0.8-0.3,1.7-0.4,2.6-0.4c0.4,0,0.9,0.1,1.6,0.2v6.6c-0.3-0.1-0.7-0.1-1.3-0.2c-0.5-0.1-0.9-0.1-1.4-0.1
						c-1.3,0-2.4,0.2-3.4,0.6c-0.9,0.4-1.7,1.1-2.2,1.8c-0.5,0.7-0.9,1.7-1.2,2.6c-0.2,1.1-0.3,2.1-0.3,3.3v12h-7.2V46.1H250.3z"/>
					<path fill="#FF0000" d="M269.2,65.6c0.3,0.5,0.7,1.1,1.3,1.4c0.5,0.3,1.1,0.6,1.8,0.7c0.7,0.1,1.4,0.2,2,0.2
						c0.5,0,1.1-0.1,1.6-0.2c0.5-0.1,1.1-0.3,1.5-0.5c0.4-0.2,0.8-0.6,1.2-1.1c0.3-0.4,0.4-0.9,0.4-1.6c0-1.1-0.7-1.9-2.1-2.4
						c-1.5-0.5-3.5-1.1-6-1.6c-1.1-0.2-2.1-0.5-3-0.8c-0.9-0.3-1.9-0.7-2.6-1.3c-0.7-0.5-1.4-1.2-1.9-2c-0.5-0.8-0.7-1.8-0.7-2.9
						c0-1.7,0.3-3,0.9-4.1c0.6-1.1,1.5-1.9,2.6-2.5c1.1-0.6,2.3-1.1,3.7-1.3c1.4-0.2,2.7-0.4,4.1-0.4c1.4,0,2.7,0.1,4.1,0.4
						c1.4,0.3,2.5,0.7,3.6,1.4c1.1,0.6,1.9,1.5,2.6,2.5c0.7,1.1,1.1,2.4,1.3,4h-6.8c-0.1-1.4-0.6-2.3-1.6-2.8
						c-0.9-0.5-2.1-0.7-3.4-0.7c-0.4,0-0.8,0-1.3,0.1c-0.4,0-0.9,0.2-1.3,0.3c-0.3,0.1-0.7,0.4-0.9,0.7c-0.3,0.3-0.4,0.7-0.4,1.3
						c0,0.6,0.2,1.2,0.7,1.6c0.4,0.4,1.1,0.7,1.9,0.9c0.8,0.2,1.6,0.5,2.6,0.6c0.9,0.2,2,0.4,2.9,0.6c1.1,0.2,2.1,0.5,3,0.8
						c0.9,0.3,1.9,0.7,2.6,1.4c0.7,0.6,1.4,1.3,1.9,2.1c0.4,0.8,0.7,1.9,0.7,3c0,1.7-0.3,3.2-1.1,4.3c-0.7,1.2-1.6,2.1-2.7,2.8
						s-2.4,1.2-3.8,1.5c-1.5,0.3-2.8,0.4-4.4,0.4c-1.5,0-2.9-0.1-4.4-0.4c-1.5-0.3-2.7-0.8-3.9-1.5c-1.2-0.7-2.1-1.7-2.7-2.8
						c-0.7-1.2-1.2-2.6-1.2-4.4h6.8C268.8,64.5,268.9,65.1,269.2,65.6z"/>
				</g>
			</g>
		</g>
	</g>
</g>
</svg>
