<?xml version="1.0" encoding="utf-8"?>
<!-- Generator: Adobe Illustrator 18.1.1, SVG Export Plug-In . SVG Version: 6.00 Build 0)  -->
<svg version="1.1" id="Layer_1" xmlns="http://www.w3.org/2000/svg" xmlns:xlink="http://www.w3.org/1999/xlink" x="0px" y="0px"
	 viewBox="0 0 79 25" enable-background="new 0 0 79 25" xml:space="preserve">
<g id="titlearea" transform="translate(256.000000, 4.000000)">
	<g enable-background="new    ">
		<path d="M-245.3,17c0.1-0.2,0.2-0.4,0.4-0.6s0.3-0.3,0.6-0.4c0.2-0.1,0.5-0.1,0.8-0.1c0.3,0,0.5,0,0.8,0.1
			c0.2,0.1,0.4,0.2,0.6,0.4s0.3,0.4,0.4,0.6c0.1,0.2,0.1,0.5,0.1,0.8c0,0.3,0,0.5-0.1,0.7s-0.2,0.4-0.4,0.6
			c-0.2,0.2-0.3,0.3-0.6,0.4c-0.2,0.1-0.5,0.1-0.8,0.1c-0.3,0-0.5,0-0.8-0.1c-0.2-0.1-0.4-0.2-0.6-0.4c-0.2-0.2-0.3-0.4-0.4-0.6
			c-0.1-0.2-0.1-0.5-0.1-0.7C-245.5,17.5-245.4,17.2-245.3,17z M-244.6,18.2c0,0.1,0.1,0.3,0.2,0.4c0.1,0.1,0.2,0.2,0.3,0.3
			s0.3,0.1,0.5,0.1s0.3,0,0.5-0.1s0.2-0.2,0.3-0.3c0.1-0.1,0.1-0.2,0.2-0.4s0.1-0.3,0.1-0.5c0-0.2,0-0.3-0.1-0.5
			c0-0.2-0.1-0.3-0.2-0.4s-0.2-0.2-0.3-0.3s-0.3-0.1-0.5-0.1s-0.3,0-0.5,0.1s-0.2,0.2-0.3,0.3c-0.1,0.1-0.1,0.3-0.2,0.4
			c0,0.2-0.1,0.3-0.1,0.5C-244.6,17.9-244.6,18-244.6,18.2z"/>
		<path d="M-239.6,19.6v-0.4h0c-0.1,0.2-0.2,0.3-0.4,0.3s-0.3,0.1-0.5,0.1c-0.2,0-0.4,0-0.5-0.1c-0.1-0.1-0.2-0.1-0.3-0.2
			c-0.1-0.1-0.1-0.2-0.2-0.3s0-0.3,0-0.5v-1.6h0.7v1.5c0,0.2,0,0.4,0.1,0.5c0.1,0.1,0.2,0.2,0.4,0.2c0.2,0,0.3-0.1,0.4-0.2
			c0.1-0.1,0.1-0.3,0.1-0.6v-1.4h0.7v2.7H-239.6z"/>
		<path d="M-237.6,16.9v0.5h0c0-0.1,0.1-0.2,0.1-0.2c0.1-0.1,0.1-0.1,0.2-0.2s0.2-0.1,0.2-0.1c0.1,0,0.2,0,0.3,0c0,0,0.1,0,0.2,0
			v0.7c0,0-0.1,0-0.1,0s-0.1,0-0.1,0c-0.1,0-0.2,0-0.3,0.1c-0.1,0-0.2,0.1-0.2,0.2c-0.1,0.1-0.1,0.2-0.1,0.3c0,0.1,0,0.2,0,0.3v1.2
			h-0.7v-2.7H-237.6z"/>
		<path d="M-232.8,15.9c0.2,0,0.3,0,0.4,0.1c0.1,0.1,0.2,0.1,0.3,0.2c0.1,0.1,0.2,0.2,0.2,0.3c0,0.1,0.1,0.3,0.1,0.4
			c0,0.2,0,0.4-0.1,0.6c-0.1,0.2-0.2,0.3-0.4,0.4v0c0.1,0,0.2,0.1,0.2,0.1c0.1,0.1,0.1,0.1,0.2,0.2s0.1,0.2,0.1,0.3s0,0.2,0,0.3
			c0,0.1,0,0.1,0,0.2c0,0.1,0,0.2,0,0.2c0,0.1,0,0.2,0,0.2c0,0.1,0,0.1,0.1,0.2h-0.8c0-0.1-0.1-0.3-0.1-0.4c0-0.2,0-0.3,0-0.5
			c0-0.2-0.1-0.3-0.2-0.4s-0.2-0.1-0.4-0.1h-0.8v1.4h-0.8v-3.7H-232.8z M-233.1,17.5c0.2,0,0.3,0,0.4-0.1s0.1-0.2,0.1-0.4
			c0-0.2,0-0.3-0.1-0.4c-0.1-0.1-0.2-0.1-0.4-0.1h-0.9v1H-233.1z"/>
		<path d="M-230.4,18.9c0.1,0.1,0.3,0.2,0.5,0.2c0.1,0,0.3,0,0.4-0.1c0.1-0.1,0.2-0.2,0.2-0.2h0.6c-0.1,0.3-0.3,0.5-0.5,0.7
			c-0.2,0.1-0.5,0.2-0.8,0.2c-0.2,0-0.4,0-0.6-0.1c-0.2-0.1-0.3-0.2-0.4-0.3c-0.1-0.1-0.2-0.3-0.3-0.4c-0.1-0.2-0.1-0.4-0.1-0.6
			c0-0.2,0-0.4,0.1-0.6c0.1-0.2,0.2-0.3,0.3-0.4c0.1-0.1,0.3-0.2,0.4-0.3c0.2-0.1,0.4-0.1,0.6-0.1c0.2,0,0.4,0,0.6,0.1
			c0.2,0.1,0.3,0.2,0.4,0.4s0.2,0.3,0.2,0.5c0,0.2,0.1,0.4,0.1,0.6h-1.9C-230.6,18.6-230.5,18.8-230.4,18.9z M-229.6,17.5
			c-0.1-0.1-0.2-0.1-0.4-0.1c-0.1,0-0.2,0-0.3,0.1c-0.1,0-0.1,0.1-0.2,0.1c0,0.1-0.1,0.1-0.1,0.2c0,0.1,0,0.1,0,0.2h1.2
			C-229.4,17.8-229.5,17.6-229.6,17.5z"/>
		<path d="M-227.5,16.9v0.3h0c0.1-0.1,0.2-0.2,0.3-0.3c0.1-0.1,0.3-0.1,0.5-0.1c0.2,0,0.4,0,0.5,0.1c0.2,0.1,0.3,0.2,0.4,0.3
			c0.1,0.1,0.2,0.3,0.2,0.5c0,0.2,0.1,0.4,0.1,0.5c0,0.2,0,0.3-0.1,0.5c0,0.2-0.1,0.3-0.2,0.4s-0.2,0.2-0.4,0.3
			c-0.1,0.1-0.3,0.1-0.5,0.1c-0.2,0-0.3,0-0.5-0.1c-0.1-0.1-0.3-0.2-0.3-0.3h0v1.3h-0.7v-3.6H-227.5z M-226.6,19
			c0.1,0,0.1-0.1,0.2-0.2c0-0.1,0.1-0.2,0.1-0.3c0-0.1,0-0.2,0-0.3s0-0.2,0-0.3c0-0.1-0.1-0.2-0.1-0.3c-0.1-0.1-0.1-0.1-0.2-0.2
			c-0.1,0-0.2-0.1-0.3-0.1c-0.1,0-0.2,0-0.3,0.1c-0.1,0-0.1,0.1-0.2,0.2c0,0.1-0.1,0.2-0.1,0.3c0,0.1,0,0.2,0,0.3c0,0.1,0,0.2,0,0.3
			s0.1,0.2,0.1,0.3c0,0.1,0.1,0.1,0.2,0.2s0.2,0.1,0.3,0.1C-226.8,19.1-226.7,19.1-226.6,19z"/>
		<path d="M-225.1,17.7c0.1-0.2,0.2-0.3,0.3-0.4c0.1-0.1,0.3-0.2,0.4-0.3c0.2-0.1,0.4-0.1,0.6-0.1s0.4,0,0.6,0.1
			c0.2,0.1,0.3,0.2,0.4,0.3c0.1,0.1,0.2,0.3,0.3,0.4c0.1,0.2,0.1,0.4,0.1,0.6c0,0.2,0,0.4-0.1,0.6c-0.1,0.2-0.2,0.3-0.3,0.4
			c-0.1,0.1-0.3,0.2-0.4,0.3c-0.2,0.1-0.4,0.1-0.6,0.1s-0.4,0-0.6-0.1c-0.2-0.1-0.3-0.2-0.4-0.3c-0.1-0.1-0.2-0.3-0.3-0.4
			c-0.1-0.2-0.1-0.4-0.1-0.6C-225.2,18-225.1,17.8-225.1,17.7z M-224.4,18.5c0,0.1,0.1,0.2,0.1,0.3c0,0.1,0.1,0.1,0.2,0.2
			s0.2,0.1,0.3,0.1s0.2,0,0.3-0.1s0.2-0.1,0.2-0.2c0-0.1,0.1-0.2,0.1-0.3c0-0.1,0-0.2,0-0.3c0-0.1,0-0.2,0-0.3
			c0-0.1-0.1-0.2-0.1-0.3c0-0.1-0.1-0.1-0.2-0.2s-0.2-0.1-0.3-0.1s-0.2,0-0.3,0.1s-0.1,0.1-0.2,0.2c0,0.1-0.1,0.2-0.1,0.3
			c0,0.1,0,0.2,0,0.3C-224.4,18.3-224.4,18.4-224.4,18.5z"/>
		<path d="M-221.3,16.9v0.5h0c0-0.1,0.1-0.2,0.1-0.2c0.1-0.1,0.1-0.1,0.2-0.2s0.2-0.1,0.2-0.1c0.1,0,0.2,0,0.3,0c0,0,0.1,0,0.2,0
			v0.7c0,0-0.1,0-0.1,0s-0.1,0-0.1,0c-0.1,0-0.2,0-0.3,0.1c-0.1,0-0.2,0.1-0.2,0.2c-0.1,0.1-0.1,0.2-0.1,0.3c0,0.1,0,0.2,0,0.3v1.2
			h-0.7v-2.7H-221.3z"/>
		<path d="M-218.5,16.9v0.5h-0.5v1.3c0,0.1,0,0.2,0.1,0.2s0.1,0.1,0.2,0.1c0,0,0.1,0,0.1,0c0,0,0.1,0,0.1,0v0.6c-0.1,0-0.1,0-0.2,0
			c-0.1,0-0.1,0-0.2,0c-0.1,0-0.2,0-0.3,0c-0.1,0-0.2,0-0.3-0.1c-0.1,0-0.1-0.1-0.2-0.2c0-0.1-0.1-0.2-0.1-0.3v-1.6h-0.4v-0.5h0.4
			v-0.8h0.7v0.8H-218.5z"/>
		<path d="M-218.1,16.5v-0.6h0.7v0.6H-218.1z M-217.4,16.9v2.7h-0.7v-2.7H-217.4z"/>
		<path d="M-216.1,16.9v0.4h0c0.1-0.2,0.2-0.3,0.4-0.3c0.1-0.1,0.3-0.1,0.5-0.1c0.2,0,0.4,0,0.5,0.1c0.1,0.1,0.2,0.1,0.3,0.2
			c0.1,0.1,0.1,0.2,0.2,0.3s0,0.3,0,0.5v1.6h-0.7v-1.5c0-0.2,0-0.4-0.1-0.5c-0.1-0.1-0.2-0.2-0.4-0.2c-0.2,0-0.3,0.1-0.4,0.2
			c-0.1,0.1-0.1,0.3-0.1,0.6v1.4h-0.7v-2.7H-216.1z"/>
		<path d="M-211.3,19.8c0,0.1-0.1,0.3-0.2,0.4s-0.2,0.2-0.4,0.3c-0.2,0.1-0.4,0.1-0.7,0.1c-0.1,0-0.3,0-0.4,0
			c-0.1,0-0.3-0.1-0.4-0.2c-0.1-0.1-0.2-0.2-0.3-0.3c-0.1-0.1-0.1-0.2-0.1-0.4h0.7c0,0.1,0.1,0.2,0.2,0.3c0.1,0.1,0.2,0.1,0.3,0.1
			c0.2,0,0.4-0.1,0.5-0.2c0.1-0.1,0.1-0.3,0.1-0.5v-0.3h0c-0.1,0.1-0.2,0.2-0.3,0.3c-0.1,0.1-0.3,0.1-0.5,0.1c-0.2,0-0.4,0-0.5-0.1
			c-0.1-0.1-0.3-0.2-0.4-0.3c-0.1-0.1-0.2-0.3-0.2-0.4c0-0.2-0.1-0.3-0.1-0.5c0-0.2,0-0.3,0.1-0.5s0.1-0.3,0.2-0.4
			c0.1-0.1,0.2-0.2,0.4-0.3c0.1-0.1,0.3-0.1,0.5-0.1c0.2,0,0.3,0,0.5,0.1c0.1,0.1,0.2,0.2,0.3,0.3h0v-0.4h0.7v2.5
			C-211.2,19.5-211.2,19.6-211.3,19.8z M-212.3,18.9c0.1,0,0.1-0.1,0.2-0.2c0.1-0.1,0.1-0.1,0.1-0.2c0-0.1,0-0.2,0-0.3
			c0-0.1,0-0.2,0-0.3s-0.1-0.2-0.1-0.3c0-0.1-0.1-0.1-0.2-0.2c-0.1,0-0.2-0.1-0.3-0.1c-0.1,0-0.2,0-0.3,0.1c-0.1,0-0.1,0.1-0.2,0.2
			c0,0.1-0.1,0.2-0.1,0.2s0,0.2,0,0.3c0,0.1,0,0.2,0,0.3c0,0.1,0.1,0.2,0.1,0.3c0,0.1,0.1,0.1,0.2,0.2c0.1,0,0.2,0.1,0.3,0.1
			C-212.4,18.9-212.3,18.9-212.3,18.9z"/>
		<path d="M-208.3,15.9v3.7h-0.8v-3.7H-208.3z"/>
		<path d="M-207,16.9v0.4h0c0.1-0.2,0.2-0.3,0.4-0.3c0.1-0.1,0.3-0.1,0.5-0.1c0.2,0,0.4,0,0.5,0.1c0.1,0.1,0.2,0.1,0.3,0.2
			c0.1,0.1,0.1,0.2,0.2,0.3s0,0.3,0,0.5v1.6h-0.7v-1.5c0-0.2,0-0.4-0.1-0.5c-0.1-0.1-0.2-0.2-0.4-0.2c-0.2,0-0.3,0.1-0.4,0.2
			c-0.1,0.1-0.1,0.3-0.1,0.6v1.4h-0.7v-2.7H-207z"/>
		<path d="M-203.5,15.9h0.9l0.9,1.4l0.9-1.4h0.9l-1.4,2.3v1.4h-0.8v-1.4L-203.5,15.9z"/>
		<path d="M-200.3,17.7c0.1-0.2,0.2-0.3,0.3-0.4c0.1-0.1,0.3-0.2,0.4-0.3c0.2-0.1,0.4-0.1,0.6-0.1s0.4,0,0.6,0.1
			c0.2,0.1,0.3,0.2,0.4,0.3c0.1,0.1,0.2,0.3,0.3,0.4c0.1,0.2,0.1,0.4,0.1,0.6c0,0.2,0,0.4-0.1,0.6c-0.1,0.2-0.2,0.3-0.3,0.4
			c-0.1,0.1-0.3,0.2-0.4,0.3c-0.2,0.1-0.4,0.1-0.6,0.1s-0.4,0-0.6-0.1c-0.2-0.1-0.3-0.2-0.4-0.3c-0.1-0.1-0.2-0.3-0.3-0.4
			c-0.1-0.2-0.1-0.4-0.1-0.6C-200.4,18-200.4,17.8-200.3,17.7z M-199.7,18.5c0,0.1,0.1,0.2,0.1,0.3c0,0.1,0.1,0.1,0.2,0.2
			s0.2,0.1,0.3,0.1s0.2,0,0.3-0.1s0.2-0.1,0.2-0.2c0-0.1,0.1-0.2,0.1-0.3c0-0.1,0-0.2,0-0.3c0-0.1,0-0.2,0-0.3
			c0-0.1-0.1-0.2-0.1-0.3c0-0.1-0.1-0.1-0.2-0.2s-0.2-0.1-0.3-0.1s-0.2,0-0.3,0.1s-0.1,0.1-0.2,0.2c0,0.1-0.1,0.2-0.1,0.3
			c0,0.1,0,0.2,0,0.3C-199.7,18.3-199.7,18.4-199.7,18.5z"/>
		<path d="M-195.4,19.6v-0.4h0c-0.1,0.2-0.2,0.3-0.4,0.3s-0.3,0.1-0.5,0.1c-0.2,0-0.4,0-0.5-0.1c-0.1-0.1-0.2-0.1-0.3-0.2
			c-0.1-0.1-0.1-0.2-0.2-0.3s0-0.3,0-0.5v-1.6h0.7v1.5c0,0.2,0,0.4,0.1,0.5c0.1,0.1,0.2,0.2,0.4,0.2c0.2,0,0.3-0.1,0.4-0.2
			c0.1-0.1,0.1-0.3,0.1-0.6v-1.4h0.7v2.7H-195.4z"/>
		<path d="M-193.5,16.9v0.5h0c0-0.1,0.1-0.2,0.1-0.2c0.1-0.1,0.1-0.1,0.2-0.2s0.2-0.1,0.2-0.1c0.1,0,0.2,0,0.3,0c0,0,0.1,0,0.2,0
			v0.7c0,0-0.1,0-0.1,0s-0.1,0-0.1,0c-0.1,0-0.2,0-0.3,0.1c-0.1,0-0.2,0.1-0.2,0.2c-0.1,0.1-0.1,0.2-0.1,0.3c0,0.1,0,0.2,0,0.3v1.2
			h-0.7v-2.7H-193.5z"/>
		<path d="M-189.8,15.9v3.7h-0.8v-3.7H-189.8z"/>
		<path d="M-188.5,16.9v0.4h0c0.1-0.2,0.2-0.3,0.4-0.3c0.1-0.1,0.3-0.1,0.5-0.1c0.2,0,0.4,0,0.5,0.1c0.1,0.1,0.2,0.1,0.3,0.2
			c0.1,0.1,0.1,0.2,0.2,0.3s0,0.3,0,0.5v1.6h-0.7v-1.5c0-0.2,0-0.4-0.1-0.5c-0.1-0.1-0.2-0.2-0.4-0.2c-0.2,0-0.3,0.1-0.4,0.2
			c-0.1,0.1-0.1,0.3-0.1,0.6v1.4h-0.7v-2.7H-188.5z"/>
		<path d="M-185.4,15.9v1.3h0c0.1-0.1,0.2-0.2,0.4-0.3c0.2-0.1,0.3-0.1,0.5-0.1c0.1,0,0.3,0,0.4,0.1c0.1,0.1,0.2,0.1,0.4,0.3
			c0.1,0.1,0.2,0.3,0.3,0.4c0.1,0.2,0.1,0.4,0.1,0.6c0,0.2,0,0.5-0.1,0.6c-0.1,0.2-0.1,0.3-0.3,0.4s-0.2,0.2-0.4,0.3
			s-0.3,0.1-0.4,0.1c-0.2,0-0.4,0-0.5-0.1c-0.2-0.1-0.3-0.2-0.3-0.3h0v0.3h-0.7v-3.7H-185.4z M-184.2,17.9c0-0.1-0.1-0.2-0.1-0.3
			s-0.1-0.1-0.2-0.2c-0.1,0-0.2-0.1-0.3-0.1c-0.1,0-0.2,0-0.3,0.1c-0.1,0-0.1,0.1-0.2,0.2c-0.1,0.1-0.1,0.2-0.1,0.3
			c0,0.1,0,0.2,0,0.3c0,0.1,0,0.2,0,0.3c0,0.1,0.1,0.2,0.1,0.3c0.1,0.1,0.1,0.1,0.2,0.2c0.1,0,0.2,0.1,0.3,0.1c0.1,0,0.2,0,0.3-0.1
			c0.1,0,0.1-0.1,0.2-0.2s0.1-0.2,0.1-0.3c0-0.1,0-0.2,0-0.3C-184.2,18.1-184.2,18-184.2,17.9z"/>
		<path d="M-183,17.7c0.1-0.2,0.2-0.3,0.3-0.4c0.1-0.1,0.3-0.2,0.4-0.3c0.2-0.1,0.4-0.1,0.6-0.1s0.4,0,0.6,0.1
			c0.2,0.1,0.3,0.2,0.4,0.3c0.1,0.1,0.2,0.3,0.3,0.4c0.1,0.2,0.1,0.4,0.1,0.6c0,0.2,0,0.4-0.1,0.6c-0.1,0.2-0.2,0.3-0.3,0.4
			c-0.1,0.1-0.3,0.2-0.4,0.3c-0.2,0.1-0.4,0.1-0.6,0.1s-0.4,0-0.6-0.1c-0.2-0.1-0.3-0.2-0.4-0.3c-0.1-0.1-0.2-0.3-0.3-0.4
			c-0.1-0.2-0.1-0.4-0.1-0.6C-183.1,18-183.1,17.8-183,17.7z M-182.3,18.5c0,0.1,0.1,0.2,0.1,0.3c0,0.1,0.1,0.1,0.2,0.2
			s0.2,0.1,0.3,0.1s0.2,0,0.3-0.1s0.2-0.1,0.2-0.2c0-0.1,0.1-0.2,0.1-0.3c0-0.1,0-0.2,0-0.3c0-0.1,0-0.2,0-0.3
			c0-0.1-0.1-0.2-0.1-0.3c0-0.1-0.1-0.1-0.2-0.2s-0.2-0.1-0.3-0.1s-0.2,0-0.3,0.1s-0.1,0.1-0.2,0.2c0,0.1-0.1,0.2-0.1,0.3
			c0,0.1,0,0.2,0,0.3C-182.4,18.3-182.4,18.4-182.3,18.5z"/>
		<path d="M-180.1,16.9h0.8l0.5,0.7l0.5-0.7h0.8l-0.9,1.2l1,1.4h-0.8l-0.6-0.8l-0.6,0.8h-0.8l1-1.4L-180.1,16.9z"/>
	</g>
	<g enable-background="new    ">
		<path d="M-251.8-2c-0.1-0.1-0.2-0.2-0.3-0.3c-0.1-0.1-0.2-0.2-0.4-0.2c-0.1,0-0.3-0.1-0.4-0.1c-0.3,0-0.5,0.1-0.7,0.2
			c-0.2,0.1-0.3,0.2-0.5,0.4c-0.1,0.2-0.2,0.4-0.3,0.6c-0.1,0.2-0.1,0.5-0.1,0.7c0,0.2,0,0.5,0.1,0.7c0.1,0.2,0.1,0.4,0.3,0.6
			c0.1,0.2,0.3,0.3,0.5,0.4c0.2,0.1,0.4,0.2,0.7,0.2c0.4,0,0.7-0.1,0.9-0.3c0.2-0.2,0.3-0.5,0.4-0.9h1.2c0,0.3-0.1,0.7-0.2,0.9
			c-0.1,0.3-0.3,0.5-0.5,0.7s-0.5,0.3-0.7,0.4c-0.3,0.1-0.6,0.2-0.9,0.2c-0.4,0-0.8-0.1-1.1-0.2s-0.6-0.3-0.9-0.6
			c-0.2-0.3-0.4-0.6-0.5-0.9c-0.1-0.3-0.2-0.7-0.2-1.1c0-0.4,0.1-0.8,0.2-1.1c0.1-0.4,0.3-0.7,0.5-0.9c0.2-0.3,0.5-0.5,0.9-0.6
			s0.7-0.2,1.1-0.2c0.3,0,0.6,0,0.9,0.1c0.3,0.1,0.5,0.2,0.7,0.4c0.2,0.2,0.4,0.4,0.5,0.6c0.1,0.2,0.2,0.5,0.3,0.8h-1.2
			C-251.7-1.7-251.8-1.8-251.8-2z"/>
		<path d="M-249.7-2.5v-0.9h1.1v0.9H-249.7z M-248.6-1.9v4h-1.1v-4H-248.6z"/>
		<path d="M-245.6-1.9v0.7h-0.8v2c0,0.2,0,0.3,0.1,0.4s0.2,0.1,0.4,0.1c0.1,0,0.1,0,0.2,0c0.1,0,0.1,0,0.2,0v0.8c-0.1,0-0.2,0-0.3,0
			c-0.1,0-0.2,0-0.3,0c-0.2,0-0.3,0-0.5,0c-0.2,0-0.3-0.1-0.4-0.1c-0.1-0.1-0.2-0.2-0.3-0.3c-0.1-0.1-0.1-0.3-0.1-0.5v-2.4h-0.7
			v-0.7h0.7v-1.2h1.1v1.2H-245.6z"/>
		<path d="M-243.6,3.3c-0.2,0.1-0.5,0.2-0.9,0.2c-0.1,0-0.2,0-0.3,0s-0.2,0-0.3,0V2.5c0.1,0,0.2,0,0.3,0c0.1,0,0.2,0,0.3,0
			c0.1,0,0.3-0.1,0.3-0.2s0.1-0.2,0.1-0.3c0-0.1,0-0.2,0-0.2l-1.4-3.7h1.2l0.9,2.7h0l0.9-2.7h1.1l-1.7,4.5
			C-243.2,2.9-243.4,3.1-243.6,3.3z"/>
		<path d="M-237.6-3.4v4.5h2.7v1h-3.9v-5.5H-237.6z"/>
		<path d="M-234.3-2.5v-0.9h1.1v0.9H-234.3z M-233.2-1.9v4h-1.1v-4H-233.2z"/>
		<path d="M-231.3-1.9v0.5h0c0.1-0.2,0.3-0.4,0.5-0.5s0.4-0.2,0.7-0.2c0.3,0,0.5,0,0.7,0.1s0.4,0.3,0.5,0.5c0.1-0.2,0.3-0.3,0.5-0.5
			S-228-2-227.7-2c0.2,0,0.4,0,0.6,0.1c0.2,0.1,0.3,0.1,0.5,0.2c0.1,0.1,0.2,0.3,0.3,0.4c0.1,0.2,0.1,0.4,0.1,0.7v2.7h-1.1v-2.3
			c0-0.1,0-0.3,0-0.4c0-0.1,0-0.2-0.1-0.3c0-0.1-0.1-0.2-0.2-0.2s-0.2-0.1-0.4-0.1s-0.3,0-0.4,0.1c-0.1,0.1-0.2,0.1-0.2,0.2
			c-0.1,0.1-0.1,0.2-0.1,0.3c0,0.1,0,0.2,0,0.4v2.2h-1.1v-2.2c0-0.1,0-0.2,0-0.4c0-0.1,0-0.2-0.1-0.3c0-0.1-0.1-0.2-0.2-0.2
			c-0.1-0.1-0.2-0.1-0.4-0.1c-0.1,0-0.1,0-0.2,0c-0.1,0-0.2,0.1-0.2,0.1c-0.1,0.1-0.1,0.2-0.2,0.3s-0.1,0.3-0.1,0.5v2.3h-1.1v-4
			H-231.3z"/>
		<path d="M-225.3-2.5v-0.9h1.1v0.9H-225.3z M-224.2-1.9v4h-1.1v-4H-224.2z"/>
		<path d="M-221.2-1.9v0.7h-0.8v2c0,0.2,0,0.3,0.1,0.4s0.2,0.1,0.4,0.1c0.1,0,0.1,0,0.2,0c0.1,0,0.1,0,0.2,0v0.8c-0.1,0-0.2,0-0.3,0
			c-0.1,0-0.2,0-0.3,0c-0.2,0-0.3,0-0.5,0c-0.2,0-0.3-0.1-0.4-0.1c-0.1-0.1-0.2-0.2-0.3-0.3c-0.1-0.1-0.1-0.3-0.1-0.5v-2.4h-0.7
			v-0.7h0.7v-1.2h1.1v1.2H-221.2z"/>
		<path d="M-219.7,1.1c0,0.1,0.1,0.2,0.2,0.2c0.1,0.1,0.2,0.1,0.3,0.1c0.1,0,0.2,0,0.3,0c0.1,0,0.2,0,0.2,0c0.1,0,0.2,0,0.2-0.1
			c0.1,0,0.1-0.1,0.2-0.2c0-0.1,0.1-0.1,0.1-0.2c0-0.2-0.1-0.3-0.3-0.4s-0.5-0.2-0.9-0.2c-0.2,0-0.3-0.1-0.5-0.1s-0.3-0.1-0.4-0.2
			c-0.1-0.1-0.2-0.2-0.3-0.3c-0.1-0.1-0.1-0.3-0.1-0.4c0-0.3,0-0.5,0.2-0.6c0.1-0.2,0.2-0.3,0.4-0.4c0.2-0.1,0.3-0.2,0.6-0.2
			c0.2,0,0.4-0.1,0.6-0.1s0.4,0,0.6,0.1c0.2,0,0.4,0.1,0.5,0.2s0.3,0.2,0.4,0.4c0.1,0.2,0.2,0.4,0.2,0.6h-1c0-0.2-0.1-0.4-0.2-0.4
			c-0.1-0.1-0.3-0.1-0.5-0.1c-0.1,0-0.1,0-0.2,0c-0.1,0-0.1,0-0.2,0.1c-0.1,0-0.1,0.1-0.2,0.1c0,0-0.1,0.1-0.1,0.2
			c0,0.1,0,0.2,0.1,0.2c0.1,0.1,0.2,0.1,0.3,0.2c0.1,0,0.2,0.1,0.4,0.1c0.1,0,0.3,0.1,0.5,0.1c0.2,0,0.3,0.1,0.5,0.1
			c0.2,0.1,0.3,0.1,0.4,0.2s0.2,0.2,0.3,0.3c0.1,0.1,0.1,0.3,0.1,0.5c0,0.3-0.1,0.5-0.2,0.7c-0.1,0.2-0.2,0.3-0.4,0.4
			c-0.2,0.1-0.4,0.2-0.6,0.2c-0.2,0-0.4,0.1-0.7,0.1c-0.2,0-0.5,0-0.7-0.1c-0.2,0-0.4-0.1-0.6-0.2c-0.2-0.1-0.3-0.3-0.4-0.4
			c-0.1-0.2-0.2-0.4-0.2-0.7h1C-219.8,0.9-219.8,1-219.7,1.1z"/>
	</g>
	<g enable-background="new    ">
		<path fill="#FF0000" d="M-252.8,4l4,6.5h0V4h2v9.7h-2.1l-4-6.5h0v6.5h-2V4H-252.8z"/>
		<path fill="#FF0000" d="M-243,12c0.3,0.3,0.7,0.4,1.2,0.4c0.4,0,0.7-0.1,1-0.3c0.3-0.2,0.5-0.4,0.5-0.6h1.7
			c-0.3,0.8-0.7,1.4-1.3,1.8s-1.2,0.5-2,0.5c-0.6,0-1.1-0.1-1.5-0.3c-0.4-0.2-0.8-0.4-1.1-0.8c-0.3-0.3-0.5-0.7-0.7-1.2
			s-0.3-1-0.3-1.5c0-0.5,0.1-1,0.3-1.5c0.2-0.5,0.4-0.8,0.7-1.2c0.3-0.3,0.7-0.6,1.1-0.8c0.4-0.2,0.9-0.3,1.5-0.3
			c0.6,0,1.1,0.1,1.6,0.3c0.4,0.2,0.8,0.5,1.1,0.9c0.3,0.4,0.5,0.8,0.6,1.3c0.1,0.5,0.2,1,0.1,1.6h-5.1
			C-243.5,11.3-243.3,11.7-243,12z M-240.9,8.3c-0.2-0.3-0.6-0.4-1.1-0.4c-0.3,0-0.6,0.1-0.8,0.2c-0.2,0.1-0.4,0.2-0.5,0.4
			c-0.1,0.2-0.2,0.3-0.3,0.5c0,0.2-0.1,0.3-0.1,0.5h3.1C-240.5,8.9-240.6,8.6-240.9,8.3z"/>
		<path fill="#FF0000" d="M-231.3,13.7l-1.3-4.7h0l-1.2,4.7h-2l-2.2-7h2l1.3,4.8h0l1.2-4.8h1.9l1.2,4.8h0l1.3-4.8h2l-2.2,7H-231.3z"
			/>
		<path fill="#FF0000" d="M-224.6,11.9c0.1,0.1,0.2,0.3,0.3,0.4c0.1,0.1,0.3,0.2,0.5,0.2c0.2,0,0.4,0.1,0.6,0.1c0.1,0,0.3,0,0.4,0
			c0.1,0,0.3-0.1,0.4-0.1c0.1-0.1,0.2-0.2,0.3-0.3c0.1-0.1,0.1-0.3,0.1-0.4c0-0.3-0.2-0.5-0.6-0.7c-0.4-0.1-0.9-0.3-1.6-0.4
			c-0.3-0.1-0.6-0.1-0.8-0.2c-0.3-0.1-0.5-0.2-0.7-0.3s-0.4-0.3-0.5-0.5s-0.2-0.5-0.2-0.8c0-0.5,0.1-0.8,0.3-1.1s0.4-0.5,0.7-0.7
			c0.3-0.2,0.6-0.3,1-0.4c0.4-0.1,0.7-0.1,1.1-0.1c0.4,0,0.8,0,1.1,0.1c0.4,0.1,0.7,0.2,1,0.4c0.3,0.2,0.5,0.4,0.7,0.7
			s0.3,0.6,0.3,1.1h-1.8c0-0.4-0.2-0.6-0.4-0.8c-0.3-0.1-0.6-0.2-0.9-0.2c-0.1,0-0.2,0-0.4,0s-0.2,0-0.3,0.1c-0.1,0-0.2,0.1-0.3,0.2
			c-0.1,0.1-0.1,0.2-0.1,0.3c0,0.2,0.1,0.3,0.2,0.4c0.1,0.1,0.3,0.2,0.5,0.3c0.2,0.1,0.4,0.1,0.7,0.2c0.3,0.1,0.5,0.1,0.8,0.2
			c0.3,0.1,0.6,0.1,0.8,0.2c0.3,0.1,0.5,0.2,0.7,0.4s0.4,0.3,0.5,0.6c0.1,0.2,0.2,0.5,0.2,0.8c0,0.5-0.1,0.8-0.3,1.2
			c-0.2,0.3-0.4,0.6-0.7,0.8s-0.6,0.3-1,0.4c-0.4,0.1-0.8,0.1-1.2,0.1c-0.4,0-0.8,0-1.2-0.1c-0.4-0.1-0.7-0.2-1-0.4
			s-0.6-0.4-0.7-0.8c-0.2-0.3-0.3-0.7-0.3-1.2h1.8C-224.7,11.6-224.7,11.8-224.6,11.9z"/>
		<path fill="#FF0000" d="M-217,4v9.7h-1.9V4H-217z"/>
		<path fill="#FF0000" d="M-213.4,12c0.3,0.3,0.7,0.4,1.3,0.4c0.4,0,0.7-0.1,1-0.3c0.3-0.2,0.5-0.4,0.5-0.6h1.7
			c-0.3,0.8-0.7,1.4-1.3,1.8s-1.2,0.5-2,0.5c-0.6,0-1.1-0.1-1.5-0.3c-0.4-0.2-0.8-0.4-1.1-0.8c-0.3-0.3-0.5-0.7-0.7-1.2
			s-0.3-1-0.3-1.5c0-0.5,0.1-1,0.3-1.5c0.2-0.5,0.4-0.8,0.7-1.2c0.3-0.3,0.7-0.6,1.1-0.8c0.4-0.2,0.9-0.3,1.5-0.3
			c0.6,0,1.1,0.1,1.6,0.3c0.4,0.2,0.8,0.5,1.1,0.9c0.3,0.4,0.5,0.8,0.6,1.3c0.1,0.5,0.2,1,0.1,1.6h-5.1
			C-213.8,11.3-213.7,11.7-213.4,12z M-211.2,8.3c-0.2-0.3-0.6-0.4-1.1-0.4c-0.3,0-0.6,0.1-0.8,0.2c-0.2,0.1-0.4,0.2-0.5,0.4
			c-0.1,0.2-0.2,0.3-0.3,0.5c0,0.2-0.1,0.3-0.1,0.5h3.1C-210.8,8.9-211,8.6-211.2,8.3z"/>
		<path fill="#FF0000" d="M-203.8,6.7v1.3h-1.4v3.5c0,0.3,0.1,0.5,0.2,0.7s0.3,0.2,0.7,0.2c0.1,0,0.2,0,0.3,0s0.2,0,0.3,0v1.5
			c-0.2,0-0.3,0-0.5,0.1c-0.2,0-0.4,0-0.6,0c-0.3,0-0.6,0-0.8-0.1c-0.3,0-0.5-0.1-0.7-0.2c-0.2-0.1-0.4-0.3-0.5-0.5
			c-0.1-0.2-0.2-0.5-0.2-0.9V7.9h-1.2V6.7h1.2V4.6h1.9v2.1H-203.8z"/>
		<path fill="#FF0000" d="M-199,6.7v1.3h-1.4v3.5c0,0.3,0.1,0.5,0.2,0.7s0.3,0.2,0.7,0.2c0.1,0,0.2,0,0.3,0s0.2,0,0.3,0v1.5
			c-0.2,0-0.3,0-0.5,0.1c-0.2,0-0.4,0-0.6,0c-0.3,0-0.6,0-0.8-0.1c-0.3,0-0.5-0.1-0.7-0.2c-0.2-0.1-0.4-0.3-0.5-0.5
			c-0.1-0.2-0.2-0.5-0.2-0.9V7.9h-1.2V6.7h1.2V4.6h1.9v2.1H-199z"/>
		<path fill="#FF0000" d="M-196,12c0.3,0.3,0.7,0.4,1.2,0.4c0.4,0,0.7-0.1,1-0.3c0.3-0.2,0.5-0.4,0.5-0.6h1.7
			c-0.3,0.8-0.7,1.4-1.3,1.8s-1.2,0.5-2,0.5c-0.6,0-1.1-0.1-1.5-0.3c-0.4-0.2-0.8-0.4-1.1-0.8c-0.3-0.3-0.5-0.7-0.7-1.2
			s-0.3-1-0.3-1.5c0-0.5,0.1-1,0.3-1.5c0.2-0.5,0.4-0.8,0.7-1.2c0.3-0.3,0.7-0.6,1.1-0.8c0.4-0.2,0.9-0.3,1.5-0.3
			c0.6,0,1.1,0.1,1.6,0.3c0.4,0.2,0.8,0.5,1.1,0.9c0.3,0.4,0.5,0.8,0.6,1.3c0.1,0.5,0.2,1,0.1,1.6h-5.1
			C-196.5,11.3-196.3,11.7-196,12z M-193.8,8.3c-0.2-0.3-0.6-0.4-1.1-0.4c-0.3,0-0.6,0.1-0.8,0.2c-0.2,0.1-0.4,0.2-0.5,0.4
			c-0.1,0.2-0.2,0.3-0.3,0.5c0,0.2-0.1,0.3-0.1,0.5h3.1C-193.4,8.9-193.6,8.6-193.8,8.3z"/>
		<path fill="#FF0000" d="M-188.4,6.7V8h0c0.1-0.2,0.2-0.4,0.4-0.6c0.2-0.2,0.3-0.3,0.5-0.5c0.2-0.1,0.4-0.2,0.6-0.3
			c0.2-0.1,0.5-0.1,0.7-0.1c0.1,0,0.3,0,0.4,0.1v1.8c-0.1,0-0.2,0-0.3,0s-0.2,0-0.4,0c-0.4,0-0.7,0.1-0.9,0.2
			c-0.2,0.1-0.4,0.3-0.6,0.5s-0.3,0.4-0.3,0.7c-0.1,0.3-0.1,0.6-0.1,0.9v3.2h-1.9v-7H-188.4z"/>
		<path fill="#FF0000" d="M-183.4,11.9c0.1,0.1,0.2,0.3,0.3,0.4c0.1,0.1,0.3,0.2,0.5,0.2c0.2,0,0.4,0.1,0.6,0.1c0.1,0,0.3,0,0.4,0
			c0.1,0,0.3-0.1,0.4-0.1c0.1-0.1,0.2-0.2,0.3-0.3c0.1-0.1,0.1-0.3,0.1-0.4c0-0.3-0.2-0.5-0.6-0.7c-0.4-0.1-0.9-0.3-1.6-0.4
			c-0.3-0.1-0.6-0.1-0.8-0.2c-0.3-0.1-0.5-0.2-0.7-0.3s-0.4-0.3-0.5-0.5s-0.2-0.5-0.2-0.8c0-0.5,0.1-0.8,0.3-1.1s0.4-0.5,0.7-0.7
			c0.3-0.2,0.6-0.3,1-0.4c0.4-0.1,0.7-0.1,1.1-0.1c0.4,0,0.8,0,1.1,0.1c0.4,0.1,0.7,0.2,1,0.4c0.3,0.2,0.5,0.4,0.7,0.7
			s0.3,0.6,0.3,1.1h-1.8c0-0.4-0.2-0.6-0.4-0.8c-0.3-0.1-0.6-0.2-0.9-0.2c-0.1,0-0.2,0-0.4,0s-0.2,0-0.3,0.1c-0.1,0-0.2,0.1-0.3,0.2
			c-0.1,0.1-0.1,0.2-0.1,0.3c0,0.2,0.1,0.3,0.2,0.4c0.1,0.1,0.3,0.2,0.5,0.3c0.2,0.1,0.4,0.1,0.7,0.2c0.3,0.1,0.5,0.1,0.8,0.2
			c0.3,0.1,0.6,0.1,0.8,0.2c0.3,0.1,0.5,0.2,0.7,0.4s0.4,0.3,0.5,0.6c0.1,0.2,0.2,0.5,0.2,0.8c0,0.5-0.1,0.8-0.3,1.2
			c-0.2,0.3-0.4,0.6-0.7,0.8s-0.6,0.3-1,0.4c-0.4,0.1-0.8,0.1-1.2,0.1c-0.4,0-0.8,0-1.2-0.1c-0.4-0.1-0.7-0.2-1-0.4
			s-0.6-0.4-0.7-0.8c-0.2-0.3-0.3-0.7-0.3-1.2h1.8C-183.5,11.6-183.4,11.8-183.4,11.9z"/>
	</g>
</g>
</svg>
