<?xml version="1.0" encoding="utf-8"?>
<!-- Generator: Adobe Illustrator 18.1.1, SVG Export Plug-In . SVG Version: 6.00 Build 0)  -->
<svg version="1.1" id="Layer_1" xmlns="http://www.w3.org/2000/svg" xmlns:xlink="http://www.w3.org/1999/xlink" x="0px" y="0px"
	 viewBox="0 0 285 86" enable-background="new 0 0 285 86" xml:space="preserve">
<title>titlearea</title>
<desc>Created with Sketch.</desc>
<g>
	<g id="Page-1">
		<g id="Direction-_x23_1-grey-Revisions" transform="translate(-275.000000, -752.000000)">
			<g id="footer-banner" transform="translate(93.000000, 725.000000)">
				<g id="titlearea" transform="translate(181.000000, 19.000000)">
					<g enable-background="new    ">
						<path d="M14.1,13.7c-0.2-0.4-0.5-0.7-0.9-1.1c-0.4-0.3-0.8-0.6-1.3-0.7c-0.5-0.2-0.9-0.2-1.5-0.2c-0.9,0-1.8,0.2-2.4,0.5
							c-0.6,0.4-1.3,0.8-1.7,1.5c-0.4,0.6-0.7,1.4-0.9,2.1c-0.2,0.8-0.3,1.7-0.3,2.5c0,0.8,0.1,1.6,0.3,2.4c0.2,0.7,0.5,1.5,0.9,2.1
							c0.5,0.7,1,1.2,1.7,1.5c0.6,0.4,1.5,0.5,2.4,0.5c1.3,0,2.3-0.4,3-1.2c0.7-0.7,1.2-1.9,1.4-3.2h4.2c-0.1,1.3-0.4,2.3-0.8,3.3
							c-0.4,0.9-1.1,1.8-1.8,2.5c-0.7,0.7-1.6,1.3-2.6,1.6c-1.1,0.3-2.1,0.5-3.3,0.5c-1.5,0-2.8-0.2-4-0.7c-1.2-0.5-2.2-1.3-3-2.1
							c-0.8-0.9-1.5-2-1.9-3.3S1,19.8,1,18.3s0.2-2.8,0.6-4.1s1.1-2.3,1.9-3.3c0.8-0.9,1.8-1.7,3-2.2C7.7,8.2,8.9,8,10.4,8
							c1.1,0,2.1,0.1,3,0.4c0.9,0.3,1.8,0.7,2.5,1.4c0.7,0.6,1.4,1.4,1.9,2.2c0.5,0.8,0.8,1.9,0.9,3h-4.2
							C14.6,14.5,14.4,14.1,14.1,13.7z"/>
						<path d="M21.5,11.7V8.5h3.9v3.2H21.5z M25.4,13.9v14.1h-3.9V13.9H25.4z"/>
						<path d="M36.2,13.9v2.6h-2.8v7c0,0.6,0.1,1.1,0.3,1.3c0.2,0.2,0.6,0.3,1.3,0.3c0.2,0,0.4,0,0.6,0c0.2,0,0.4,0,0.5-0.1v3
							C35.8,28,35.4,28,35,28s-0.8,0-1.2,0c-0.6,0-1.2,0-1.7-0.1c-0.5-0.1-1.1-0.2-1.5-0.5c-0.4-0.2-0.7-0.5-0.9-1.1
							c-0.2-0.4-0.3-1.1-0.3-1.7v-8.4h-2.3v-2.6h2.3V9.6h3.9v4.2L36.2,13.9L36.2,13.9L36.2,13.9z"/>
						<path d="M43.3,32.1c-0.7,0.5-1.8,0.7-3.2,0.7c-0.4,0-0.8,0-1.2,0c-0.4,0-0.8-0.1-1.2-0.1v-3.2c0.3,0,0.7,0.1,1.2,0.1
							c0.4,0,0.7,0,1.2,0c0.5-0.1,0.8-0.2,1.2-0.6c0.2-0.3,0.4-0.7,0.4-1.2c0-0.3-0.1-0.6-0.2-0.8l-5-13.3h4.1l3.2,9.7h0.1l3-9.7h4
							l-5.9,15.8C44.5,30.8,43.9,31.6,43.3,32.1z"/>
						<path d="M64.4,8.4v15.8h9.5v3.6H60.1V8.4H64.4z"/>
						<path d="M76,11.7V8.5h3.9v3.2H76z M79.9,13.9v14.1H76V13.9H79.9z"/>
						<path d="M86.7,13.9v1.9l0,0c0.5-0.7,1.2-1.3,1.9-1.7c0.7-0.4,1.6-0.6,2.5-0.6c0.8,0,1.7,0.2,2.4,0.5s1.3,0.9,1.7,1.8
							c0.4-0.6,0.9-1.2,1.7-1.7c0.8-0.5,1.6-0.7,2.5-0.7c0.7,0,1.5,0.1,2.1,0.3c0.6,0.2,1.2,0.5,1.7,0.8c0.4,0.4,0.8,0.9,1.1,1.6
							c0.3,0.7,0.4,1.5,0.4,2.3v9.5h-3.9v-8c0-0.5,0-0.9-0.1-1.4c0-0.4-0.1-0.7-0.3-1.1c-0.2-0.3-0.4-0.5-0.7-0.7
							c-0.3-0.2-0.7-0.3-1.3-0.3c-0.5,0-0.9,0.1-1.4,0.3c-0.3,0.2-0.6,0.5-0.8,0.8s-0.3,0.7-0.4,1.2c-0.1,0.5-0.1,0.9-0.1,1.3v7.9
							h-3.9V20c0-0.4,0-0.8,0-1.3c0-0.4-0.1-0.8-0.2-1.2c-0.1-0.3-0.3-0.6-0.6-0.8c-0.3-0.2-0.8-0.3-1.4-0.3c-0.2,0-0.4,0-0.7,0.1
							s-0.6,0.2-0.8,0.4c-0.2,0.2-0.5,0.5-0.7,0.9c-0.2,0.4-0.3,0.9-0.3,1.7v8.2h-3.9V13.9H86.7z"/>
						<path d="M107.7,11.7V8.5h3.9v3.2H107.7z M111.6,13.9v14.1h-3.9V13.9H111.6z"/>
						<path d="M122.4,13.9v2.6h-2.8v7c0,0.6,0.1,1.1,0.3,1.3c0.2,0.2,0.6,0.3,1.3,0.3c0.2,0,0.4,0,0.6,0c0.2,0,0.4,0,0.5-0.1v3
							c-0.3,0.1-0.7,0.1-1.1,0.1c-0.4,0-0.8,0-1.2,0c-0.6,0-1.2,0-1.7-0.1c-0.5-0.1-1.1-0.2-1.5-0.5c-0.4-0.2-0.7-0.5-0.9-1.1
							c-0.2-0.4-0.3-1.1-0.3-1.7v-8.4h-2.3v-2.6h2.3V9.6h3.9v4.2L122.4,13.9L122.4,13.9L122.4,13.9z"/>
						<path d="M127.5,24.4c0.2,0.3,0.4,0.5,0.6,0.7c0.3,0.2,0.6,0.3,0.9,0.4c0.3,0.1,0.7,0.1,1.2,0.1c0.3,0,0.5,0,0.8-0.1
							s0.5-0.2,0.8-0.3c0.2-0.1,0.4-0.3,0.6-0.5c0.2-0.2,0.2-0.5,0.2-0.8c0-0.6-0.4-1.1-1.2-1.3c-0.7-0.3-1.9-0.6-3.3-0.8
							c-0.5-0.1-1.2-0.3-1.7-0.4c-0.5-0.2-1.1-0.4-1.5-0.7c-0.4-0.3-0.7-0.6-1.1-1.1c-0.2-0.4-0.4-0.9-0.4-1.6
							c0-0.9,0.2-1.7,0.5-2.2c0.3-0.6,0.8-1.1,1.4-1.4c0.6-0.3,1.3-0.5,2-0.7c0.7-0.1,1.5-0.2,2.2-0.2c0.7,0,1.5,0.1,2.2,0.2
							c0.7,0.1,1.4,0.4,1.9,0.7c0.5,0.3,1.1,0.8,1.4,1.4c0.4,0.5,0.6,1.3,0.6,2.2h-3.7c-0.1-0.7-0.3-1.3-0.8-1.5
							c-0.5-0.2-1.2-0.4-1.8-0.4c-0.2,0-0.4,0-0.7,0c-0.2,0-0.5,0.1-0.7,0.2c-0.2,0.1-0.4,0.2-0.5,0.4c-0.1,0.2-0.2,0.4-0.2,0.7
							c0,0.3,0.1,0.6,0.4,0.8c0.2,0.2,0.6,0.4,0.9,0.5c0.4,0.1,0.8,0.2,1.4,0.4c0.5,0.1,1.1,0.2,1.6,0.3c0.5,0.1,1.2,0.3,1.7,0.4
							c0.5,0.2,1.1,0.4,1.5,0.7c0.4,0.3,0.7,0.6,1.1,1.2c0.2,0.4,0.4,0.9,0.4,1.7c0,0.9-0.2,1.7-0.5,2.3c-0.4,0.6-0.8,1.2-1.5,1.5
							c-0.6,0.4-1.3,0.6-2.1,0.8c-0.7,0.1-1.6,0.2-2.3,0.2c-0.8,0-1.6-0.1-2.4-0.2c-0.7-0.2-1.5-0.4-2.1-0.8
							c-0.6-0.4-1.2-0.8-1.5-1.5c-0.4-0.6-0.6-1.4-0.6-2.3h3.7C127.3,23.7,127.3,24.1,127.5,24.4z"/>
					</g>
					<g enable-background="new    ">
						<path fill="#FF0000" d="M11.1,36L26,60.1h0.1V36h7.5v36h-7.9L10.8,48h-0.1v24H3.2V36H11.1z"/>
						<path fill="#FF0000" d="M47.4,65.6c1.1,1.1,2.6,1.6,4.6,1.6c1.5,0,2.7-0.3,3.8-1.1c1.1-0.7,1.7-1.5,1.9-2.3H64
							c-1.1,3.2-2.5,5.4-4.6,6.7c-2.1,1.4-4.6,2-7.6,2c-2.1,0-3.9-0.3-5.6-0.9c-1.7-0.6-3-1.6-4.2-2.8c-1.2-1.3-2-2.6-2.6-4.3
							c-0.6-1.7-0.9-3.6-0.9-5.6s0.3-3.8,0.9-5.5c0.6-1.7,1.6-3.2,2.7-4.4c1.2-1.3,2.6-2.2,4.2-2.9c1.7-0.7,3.5-1.1,5.5-1.1
							c2.2,0,4.2,0.4,5.8,1.3c1.7,0.8,3,2,4.1,3.5c1.1,1.5,1.8,3,2.3,4.9c0.4,1.9,0.6,3.8,0.5,5.8H45.6C45.7,63,46.2,64.7,47.4,65.6
							z M55.5,52c-0.8-0.9-2.2-1.4-3.9-1.4c-1.2,0-2.1,0.2-2.8,0.6c-0.7,0.4-1.4,0.8-1.8,1.5c-0.4,0.5-0.7,1.2-0.9,1.8
							c-0.2,0.6-0.3,1.3-0.3,1.7h11.7C56.9,54.3,56.3,52.9,55.5,52z"/>
						<path fill="#FF0000" d="M91,72l-4.6-17.5h-0.1L81.8,72h-7.5l-8.3-26h7.6l4.8,17.6h0.1L82.8,46h7l4.4,17.6h0.1L99.1,46h7.4
							l-8.2,26H91z"/>
						<path fill="#FF0000" d="M115.5,65.4c0.3,0.5,0.7,1.1,1.3,1.4c0.5,0.3,1.1,0.6,1.8,0.7s1.4,0.2,2,0.2c0.5,0,1.1-0.1,1.6-0.2
							s1.1-0.3,1.5-0.5c0.4-0.2,0.8-0.6,1.2-1.1c0.3-0.4,0.4-0.9,0.4-1.6c0-1.1-0.7-1.9-2.1-2.4c-1.5-0.5-3.5-1.1-6-1.6
							c-1.1-0.2-2.1-0.5-3-0.8c-0.9-0.3-1.9-0.7-2.6-1.3c-0.7-0.5-1.4-1.2-1.9-2c-0.4-0.8-0.7-1.8-0.7-2.9c0-1.7,0.3-3,0.9-4.1
							s1.5-1.9,2.6-2.5c1.1-0.6,2.3-1.1,3.7-1.3s2.7-0.4,4.1-0.4c1.4,0,2.7,0.1,4.1,0.4c1.4,0.3,2.5,0.7,3.6,1.4
							c1.1,0.6,1.9,1.5,2.6,2.5c0.7,1.1,1.1,2.4,1.3,4h-6.8c-0.1-1.4-0.6-2.3-1.6-2.8c-0.9-0.5-2.1-0.7-3.4-0.7
							c-0.4,0-0.8,0-1.3,0.1c-0.4,0-0.9,0.2-1.3,0.3c-0.4,0.2-0.7,0.4-0.9,0.7c-0.3,0.3-0.4,0.7-0.4,1.3s0.2,1.2,0.7,1.6
							c0.4,0.4,1.1,0.7,1.9,0.9c0.8,0.2,1.6,0.5,2.6,0.6c0.9,0.2,2,0.4,2.9,0.6c1.1,0.2,2.1,0.5,3,0.8s1.9,0.7,2.6,1.4
							c0.7,0.5,1.4,1.3,1.9,2.1c0.4,0.8,0.7,1.9,0.7,3c0,1.7-0.3,3.2-1.1,4.3c-0.7,1.2-1.6,2.1-2.7,2.8c-1.1,0.7-2.4,1.2-3.8,1.5
							c-1.5,0.3-2.8,0.4-4.4,0.4c-1.5,0-2.9-0.1-4.4-0.4c-1.5-0.3-2.7-0.8-3.9-1.5c-1.2-0.7-2.1-1.7-2.7-2.8
							c-0.7-1.2-1.2-2.6-1.2-4.4h6.8C115.1,64.3,115.2,64.9,115.5,65.4z"/>
						<path fill="#FF0000" d="M143.9,36v36h-7.2V36H143.9z"/>
						<path fill="#FF0000" d="M157.2,65.6c1.1,1.1,2.6,1.6,4.6,1.6c1.5,0,2.7-0.3,3.8-1.1c1.1-0.7,1.7-1.5,1.9-2.3h6.3
							c-1.1,3.2-2.5,5.4-4.6,6.7c-2.1,1.4-4.6,2-7.6,2c-2.1,0-3.9-0.3-5.6-0.9c-1.7-0.6-3-1.6-4.2-2.8c-1.2-1.3-2-2.6-2.6-4.3
							c-0.6-1.7-0.9-3.6-0.9-5.6s0.3-3.8,0.9-5.5c0.6-1.7,1.6-3.2,2.7-4.4s2.6-2.2,4.2-2.9c1.7-0.7,3.5-1.1,5.5-1.1
							c2.2,0,4.2,0.4,5.8,1.3c1.7,0.8,3,2,4.1,3.5s1.8,3,2.3,4.9c0.4,1.9,0.6,3.8,0.5,5.8h-18.7C155.6,63,156.1,64.7,157.2,65.6z
							 M165.2,52c-0.8-0.9-2.2-1.4-3.9-1.4c-1.2,0-2.1,0.2-2.8,0.6c-0.7,0.4-1.4,0.8-1.8,1.5c-0.4,0.5-0.7,1.2-0.9,1.8
							c-0.2,0.6-0.3,1.3-0.3,1.7h11.7C166.7,54.3,166.1,52.9,165.2,52z"/>
						<path fill="#FF0000" d="M192.6,46v4.8h-5.3v12.8c0,1.3,0.2,2,0.6,2.4c0.4,0.4,1.3,0.6,2.4,0.6c0.4,0,0.8,0,1.2,0
							c0.4,0,0.7-0.1,1.1-0.1V72c-0.6,0.1-1.3,0.2-2,0.2s-1.5,0-2.2,0c-1.2,0-2.2-0.1-3.2-0.2c-0.9-0.1-1.9-0.4-2.6-0.8
							c-0.7-0.4-1.4-1.1-1.8-1.9c-0.4-0.8-0.6-1.9-0.6-3.2V50.8H176v-4.8h4.3v-7.8h7.2v7.8L192.6,46L192.6,46L192.6,46z"/>
						<path fill="#FF0000" d="M210.4,46v4.8h-5.3v12.8c0,1.3,0.2,2,0.6,2.4c0.4,0.4,1.3,0.6,2.4,0.6c0.4,0,0.8,0,1.2,0
							s0.7-0.1,1.1-0.1V72c-0.6,0.1-1.3,0.2-2,0.2c-0.7,0-1.5,0-2.2,0c-1.2,0-2.2-0.1-3.2-0.2c-0.9-0.1-1.9-0.4-2.6-0.8
							c-0.7-0.4-1.4-1.1-1.8-1.9c-0.4-0.8-0.6-1.9-0.6-3.2V50.8h-4.3v-4.8h4.3v-7.8h7.2v7.8L210.4,46L210.4,46L210.4,46z"/>
						<path fill="#FF0000" d="M221.5,65.6c1.1,1.1,2.6,1.6,4.6,1.6c1.5,0,2.7-0.3,3.8-1.1c1.1-0.7,1.7-1.5,1.9-2.3h6.3
							c-1.1,3.2-2.5,5.4-4.6,6.7c-2.1,1.4-4.6,2-7.6,2c-2.1,0-3.9-0.3-5.6-0.9c-1.7-0.6-3-1.6-4.2-2.8c-1.2-1.3-2-2.6-2.6-4.3
							c-0.6-1.7-0.9-3.6-0.9-5.6s0.3-3.8,0.9-5.5c0.6-1.7,1.6-3.2,2.7-4.4s2.6-2.2,4.2-2.9c1.7-0.7,3.5-1.1,5.5-1.1
							c2.2,0,4.2,0.4,5.8,1.3c1.7,0.8,3,2,4.1,3.5s1.8,3,2.3,4.9c0.4,1.9,0.6,3.8,0.5,5.8h-18.7C219.8,63,220.4,64.7,221.5,65.6z
							 M229.6,52c-0.8-0.9-2.2-1.4-3.9-1.4c-1.2,0-2.1,0.2-2.8,0.6c-0.7,0.4-1.4,0.8-1.8,1.5c-0.4,0.5-0.7,1.2-0.9,1.8
							c-0.2,0.6-0.3,1.3-0.3,1.7h11.6C231,54.3,230.4,52.9,229.6,52z"/>
						<path fill="#FF0000" d="M249.4,46v4.8h0.1c0.3-0.8,0.8-1.6,1.4-2.2c0.5-0.7,1.3-1.3,2-1.8c0.7-0.5,1.6-0.8,2.4-1.2
							c0.8-0.3,1.7-0.4,2.6-0.4c0.4,0,0.9,0.1,1.6,0.2v6.6c-0.3-0.1-0.7-0.1-1.3-0.2c-0.5-0.1-0.9-0.1-1.4-0.1
							c-1.3,0-2.4,0.2-3.4,0.6c-0.9,0.4-1.7,1.1-2.2,1.8c-0.5,0.7-0.9,1.7-1.2,2.6c-0.2,1.1-0.3,2.1-0.3,3.3v12h-7.2V46H249.4z"/>
						<path fill="#FF0000" d="M268.3,65.4c0.3,0.5,0.7,1.1,1.3,1.4c0.5,0.3,1.1,0.6,1.8,0.7c0.7,0.1,1.4,0.2,2,0.2
							c0.5,0,1.1-0.1,1.6-0.2c0.5-0.1,1.1-0.3,1.5-0.5c0.4-0.2,0.8-0.6,1.2-1.1c0.3-0.4,0.4-0.9,0.4-1.6c0-1.1-0.7-1.9-2.1-2.4
							c-1.5-0.5-3.5-1.1-6-1.6c-1.1-0.2-2.1-0.5-3-0.8s-1.9-0.7-2.6-1.3c-0.7-0.5-1.4-1.2-1.9-2c-0.5-0.8-0.7-1.8-0.7-2.9
							c0-1.7,0.3-3,0.9-4.1s1.5-1.9,2.6-2.5c1.1-0.6,2.3-1.1,3.7-1.3c1.4-0.2,2.7-0.4,4.1-0.4c1.4,0,2.7,0.1,4.1,0.4
							c1.4,0.3,2.5,0.7,3.6,1.4c1.1,0.6,1.9,1.5,2.6,2.5c0.7,1.1,1.1,2.4,1.3,4h-6.8c-0.1-1.4-0.6-2.3-1.6-2.8
							c-0.9-0.5-2.1-0.7-3.4-0.7c-0.4,0-0.8,0-1.3,0.1c-0.4,0-0.9,0.2-1.3,0.3c-0.3,0.1-0.7,0.4-0.9,0.7c-0.3,0.3-0.4,0.7-0.4,1.3
							s0.2,1.2,0.7,1.6c0.4,0.4,1.1,0.7,1.9,0.9c0.8,0.2,1.6,0.5,2.6,0.6c0.9,0.2,2,0.4,2.9,0.6c1.1,0.2,2.1,0.5,3,0.8
							s1.9,0.7,2.6,1.4c0.7,0.6,1.4,1.3,1.9,2.1c0.4,0.8,0.7,1.9,0.7,3c0,1.7-0.3,3.2-1.1,4.3c-0.7,1.2-1.6,2.1-2.7,2.8
							c-1.1,0.7-2.4,1.2-3.8,1.5c-1.5,0.3-2.8,0.4-4.4,0.4c-1.5,0-2.9-0.1-4.4-0.4c-1.5-0.3-2.7-0.8-3.9-1.5
							c-1.2-0.7-2.1-1.7-2.7-2.8c-0.7-1.2-1.2-2.6-1.2-4.4h6.8C267.9,64.3,268,64.9,268.3,65.4z"/>
					</g>
				</g>
			</g>
		</g>
	</g>
	<g enable-background="new    ">
		<path d="M46.2,74c0.4-0.9,0.7-1.6,1.2-2.1c0.5-0.5,1.2-1.1,1.9-1.4s1.6-0.5,2.6-0.5s1.8,0.2,2.6,0.5c0.7,0.4,1.4,0.9,1.9,1.4
			c0.5,0.5,0.9,1.2,1.2,2.1c0.4,0.9,0.4,1.8,0.4,2.6c0,0.9-0.2,1.8-0.4,2.6c-0.4,0.9-0.7,1.4-1.2,2.1c-0.5,0.5-1.2,1.1-1.9,1.4
			s-1.6,0.5-2.6,0.5c-0.9,0-1.8-0.2-2.6-0.5s-1.4-0.9-1.9-1.4c-0.5-0.5-0.9-1.2-1.2-2.1c-0.4-0.9-0.4-1.6-0.4-2.6
			C45.7,75.7,45.9,74.8,46.2,74z M48.7,78.2c0.2,0.5,0.4,0.9,0.5,1.4c0.4,0.4,0.7,0.7,1.1,0.9c0.4,0.2,0.9,0.4,1.6,0.4
			c0.7,0,1.2-0.2,1.6-0.4c0.4-0.2,0.7-0.5,1.1-0.9s0.5-0.9,0.5-1.4c0.2-0.5,0.2-1.1,0.2-1.6c0-0.5,0-1.1-0.2-1.6
			c-0.2-0.5-0.4-1.1-0.5-1.4c-0.4-0.4-0.7-0.7-1.1-0.9c-0.4-0.2-0.9-0.4-1.6-0.4c-0.7,0-1.2,0.2-1.6,0.4c-0.4,0.2-0.7,0.5-1.1,0.9
			c-0.4,0.4-0.5,0.9-0.5,1.4c-0.2,0.5-0.2,1.1-0.2,1.6C48.5,77.1,48.5,77.7,48.7,78.2z"/>
		<path d="M65.9,82.7v-1.2l0,0c-0.4,0.5-0.7,0.9-1.2,1.1c-0.5,0.2-1.1,0.4-1.6,0.4c-0.7,0-1.2,0-1.6-0.2c-0.4-0.2-0.7-0.4-1.1-0.7
			c-0.2-0.4-0.4-0.7-0.5-1.2c-0.2-0.5-0.2-1.1-0.2-1.6v-5.6h2.5v5.1c0,0.7,0.2,1.2,0.4,1.8c0.2,0.4,0.7,0.5,1.2,0.5
			c0.7,0,1.2-0.2,1.4-0.5c0.4-0.4,0.5-1.1,0.5-1.9v-4.7h2.5v9.1h-2.3V82.7z"/>
		<path d="M72.4,73.8v1.8l0,0c0.2-0.4,0.4-0.5,0.5-0.7c0.2-0.2,0.4-0.5,0.7-0.5c0.2-0.2,0.5-0.4,0.9-0.4c0.4-0.2,0.5-0.2,0.9-0.2
			c0.2,0,0.4,0,0.5,0v2.3c-0.2,0-0.2,0-0.4,0s-0.4,0-0.5,0c-0.5,0-0.9,0-1.2,0.2c-0.4,0.2-0.5,0.4-0.7,0.7c-0.2,0.2-0.4,0.5-0.4,0.9
			s-0.2,0.7-0.2,1.2v4h-2.5V74h2.3V73.8z"/>
		<path d="M88.8,70.3c0.5,0,1.1,0.2,1.6,0.4c0.5,0.2,0.9,0.4,1.2,0.7c0.4,0.4,0.5,0.7,0.7,1.1c0.2,0.4,0.2,0.9,0.2,1.4
			c0,0.7-0.2,1.4-0.5,1.9c-0.4,0.5-0.9,0.9-1.6,1.2l0,0c0.4,0.2,0.7,0.2,0.9,0.4c0.2,0.2,0.4,0.4,0.5,0.7c0.2,0.2,0.2,0.5,0.4,0.9
			c0,0.4,0.2,0.7,0.2,0.9c0,0.2,0,0.4,0,0.7c0,0.4,0,0.5,0,0.9s0,0.5,0.2,0.9c0,0.2,0.2,0.5,0.4,0.7h-2.8c-0.2-0.4-0.2-0.9-0.4-1.4
			c-0.2-0.5,0-1.1-0.2-1.6c-0.2-0.7-0.4-1.1-0.5-1.4c-0.4-0.4-0.9-0.5-1.6-0.5h-2.8v4.9h-2.8V70.5h7V70.3z M87.8,75.9
			c0.7,0,1.1-0.2,1.4-0.4c0.4-0.4,0.5-0.7,0.5-1.4c0-0.5-0.2-1.1-0.5-1.4c-0.4-0.4-0.9-0.4-1.4-0.4h-3v3.5H87.8z"/>
		<path d="M97.1,80.6c0.4,0.4,0.9,0.5,1.6,0.5c0.5,0,0.9-0.2,1.2-0.4c0.4-0.2,0.5-0.5,0.7-0.9h2.1c-0.4,1.1-0.9,1.9-1.6,2.3
			c-0.7,0.5-1.6,0.7-2.6,0.7c-0.7,0-1.4-0.2-1.9-0.4c-0.5-0.2-1.1-0.5-1.4-1.1c-0.4-0.5-0.7-0.9-0.9-1.6c-0.2-0.5-0.4-1.2-0.4-1.9
			s0.2-1.2,0.4-1.9c0.2-0.5,0.5-1.1,0.9-1.6c0.4-0.4,0.9-0.7,1.4-1.1c0.5-0.2,1.2-0.4,1.9-0.4s1.4,0.2,1.9,0.5s1.1,0.7,1.4,1.2
			c0.4,0.5,0.7,1.1,0.9,1.8c0.2,0.7,0.2,1.4,0.2,1.9h-6.5C96.6,79.8,96.7,80.3,97.1,80.6z M99.9,75.9c-0.4-0.4-0.7-0.5-1.4-0.5
			c-0.4,0-0.7,0-1.1,0.2c-0.4,0.2-0.5,0.4-0.7,0.5c-0.2,0.2-0.4,0.4-0.4,0.7c0,0.2-0.2,0.4-0.2,0.5h4
			C100.4,76.6,100.2,76.2,99.9,75.9z"/>
		<path d="M106.9,73.8V75l0,0c0.4-0.5,0.7-0.9,1.2-1.1c0.5-0.2,1.1-0.4,1.6-0.4c0.7,0,1.4,0.2,1.8,0.4c0.4,0.2,0.9,0.7,1.2,1.1
			c0.4,0.5,0.5,0.9,0.7,1.6c0.2,0.5,0.2,1.2,0.2,1.9c0,0.5,0,1.2-0.2,1.8c-0.2,0.5-0.4,1.1-0.7,1.6c-0.4,0.4-0.7,0.7-1.2,1.1
			c-0.5,0.4-1.1,0.4-1.8,0.4c-0.5,0-1.1-0.2-1.6-0.4c-0.5-0.2-0.9-0.5-1.2-1.1l0,0v4.2h-2.5V73.8C104.4,73.8,106.9,73.8,106.9,73.8z
			 M110.1,81c0.4-0.2,0.5-0.4,0.7-0.7c0.2-0.4,0.4-0.5,0.4-0.9s0.2-0.7,0.2-1.1s0-0.7-0.2-1.1c0-0.4-0.2-0.7-0.4-0.9
			c-0.2-0.2-0.4-0.5-0.7-0.7c-0.4-0.2-0.5-0.2-1.1-0.2c-0.4,0-0.7,0-1.1,0.2c-0.4,0.2-0.5,0.4-0.7,0.7c-0.2,0.4-0.4,0.5-0.4,0.9
			s-0.2,0.7-0.2,1.1s0,0.7,0.2,1.1c0,0.4,0.2,0.7,0.4,0.9c0.2,0.2,0.4,0.5,0.7,0.7c0.4,0.2,0.7,0.2,1.1,0.2
			C109.5,81.2,109.9,81.2,110.1,81z"/>
		<path d="M115.3,76.2c0.2-0.5,0.5-1.1,0.9-1.6c0.4-0.4,0.9-0.7,1.4-0.9c0.5-0.2,1.2-0.4,1.9-0.4s1.4,0.2,1.9,0.4
			c0.5,0.2,1.1,0.5,1.4,0.9c0.4,0.4,0.7,0.9,0.9,1.6c0.2,0.5,0.4,1.2,0.4,1.9c0,0.7-0.2,1.4-0.4,1.9c-0.2,0.5-0.5,1.1-0.9,1.6
			c-0.4,0.4-0.9,0.7-1.4,0.9s-1.2,0.4-1.9,0.4s-1.4-0.2-1.9-0.4c-0.5-0.2-1.1-0.5-1.4-0.9c-0.4-0.4-0.7-0.9-0.9-1.6
			c-0.2-0.5-0.4-1.2-0.4-1.9C115,77.5,115,76.9,115.3,76.2z M117.6,79.4c0,0.4,0.2,0.7,0.4,0.9c0.2,0.4,0.4,0.5,0.7,0.7
			c0.4,0.2,0.7,0.2,1.1,0.2c0.4,0,0.7,0,1.1-0.2c0.4-0.2,0.5-0.4,0.7-0.7c0.2-0.4,0.4-0.5,0.4-0.9s0.2-0.7,0.2-1.1s0-0.7-0.2-1.1
			c0-0.4-0.2-0.7-0.4-0.9c-0.2-0.2-0.4-0.5-0.7-0.7c-0.4-0.2-0.7-0.2-1.1-0.2c-0.4,0-0.7,0-1.1,0.2c-0.4,0.2-0.5,0.4-0.7,0.7
			c-0.2,0.4-0.4,0.5-0.4,0.9s-0.2,0.7-0.2,1.1C117.4,78.7,117.4,79.1,117.6,79.4z"/>
		<path d="M128.3,73.8v1.8l0,0c0.2-0.4,0.4-0.5,0.5-0.7c0.2-0.2,0.4-0.5,0.7-0.5c0.2-0.2,0.5-0.4,0.9-0.4c0.4-0.2,0.5-0.2,0.9-0.2
			c0.2,0,0.4,0,0.5,0v2.3c-0.2,0-0.2,0-0.4,0c-0.2,0-0.4,0-0.5,0c-0.5,0-0.9,0-1.2,0.2c-0.4,0.2-0.5,0.4-0.7,0.7
			c-0.2,0.2-0.4,0.5-0.4,0.9s-0.2,0.7-0.2,1.2v4H126V74h2.3V73.8z"/>
		<path d="M137.7,73.8v1.8H136v4.6c0,0.4,0,0.7,0.2,0.9c0.2,0.2,0.4,0.2,0.9,0.2c0.2,0,0.4,0,0.4,0c0.2,0,0.2,0,0.4,0v1.9
			c-0.2,0-0.5,0-0.7,0s-0.5,0-0.7,0c-0.4,0-0.7,0-1.1,0c-0.4,0-0.7-0.2-0.9-0.4c-0.2-0.2-0.5-0.4-0.7-0.7s-0.2-0.7-0.2-1.1v-5.3H132
			V74h1.6v-2.6h2.5V74h1.8V73.8z"/>
		<path d="M139,72.4v-2.1h2.5v2.1H139z M141.4,73.8v9.1H139v-9.1H141.4z"/>
		<path d="M145.8,73.8V75l0,0c0.4-0.5,0.7-0.9,1.2-1.2c0.5-0.2,1.1-0.4,1.6-0.4c0.7,0,1.2,0.2,1.6,0.4c0.4,0.2,0.7,0.4,1.1,0.7
			c0.2,0.4,0.4,0.7,0.5,1.2c0.2,0.5,0.2,1.1,0.2,1.6v5.6h-2.5v-5.1c0-0.7-0.2-1.2-0.4-1.8s-0.7-0.5-1.2-0.5c-0.7,0-1.2,0.2-1.4,0.5
			c-0.4,0.4-0.5,1.1-0.5,1.9v4.7h-2.5v-9.1h2.3V73.8z"/>
		<path d="M162.3,83.4c-0.2,0.5-0.4,0.9-0.7,1.2s-0.9,0.7-1.4,1.1c-0.5,0.4-1.4,0.4-2.5,0.4c-0.5,0-0.9,0-1.4-0.2
			c-0.5-0.2-0.9-0.4-1.2-0.5c-0.4-0.2-0.7-0.5-0.9-0.9c-0.2-0.4-0.4-0.9-0.4-1.4h2.5c0.2,0.5,0.4,0.9,0.7,1.1
			c0.4,0.2,0.7,0.4,1.2,0.4c0.7,0,1.2-0.2,1.6-0.7c0.4-0.4,0.5-0.9,0.5-1.6V81l0,0c-0.4,0.5-0.7,0.9-1.2,1.1
			c-0.5,0.2-1.1,0.4-1.6,0.4c-0.7,0-1.2-0.2-1.8-0.4c-0.5-0.2-0.9-0.5-1.2-1.1c-0.4-0.4-0.5-0.9-0.7-1.4s-0.2-1.2-0.2-1.8
			c0-0.5,0-1.2,0.2-1.8c0.2-0.5,0.4-1.1,0.7-1.4c0.4-0.4,0.7-0.7,1.2-1.1c0.5-0.2,1.1-0.4,1.8-0.4c0.5,0,1.1,0.2,1.6,0.4
			c0.5,0.2,0.9,0.5,1.1,1.1l0,0v-1.2h2.3v8.4C162.5,82.6,162.5,83.1,162.3,83.4z M159,80.5c0.4-0.2,0.5-0.4,0.7-0.5
			c0.2-0.2,0.4-0.5,0.4-0.9s0.2-0.5,0.2-0.9s0-0.7-0.2-1.1c0-0.4-0.2-0.7-0.4-0.9c-0.2-0.2-0.4-0.5-0.7-0.7
			c-0.4-0.2-0.5-0.2-1.1-0.2c-0.4,0-0.7,0-0.9,0.2c-0.2,0.2-0.5,0.4-0.7,0.5c-0.2,0.2-0.4,0.5-0.4,0.9s-0.2,0.7-0.2,1.1
			s0,0.7,0.2,1.1c0.2,0.4,0.2,0.5,0.4,0.9c0.2,0.4,0.4,0.5,0.7,0.7c0.2,0.2,0.5,0.2,1.1,0.2C158.4,80.6,158.8,80.6,159,80.5z"/>
		<path d="M172.5,70.3v12.4h-2.8V70.3C169.7,70.3,172.5,70.3,172.5,70.3z"/>
		<path d="M177,73.8V75l0,0c0.4-0.5,0.7-0.9,1.2-1.2c0.5-0.2,1.1-0.4,1.6-0.4c0.7,0,1.2,0.2,1.6,0.4c0.4,0.2,0.7,0.4,1.1,0.7
			c0.2,0.4,0.4,0.7,0.5,1.2c0.2,0.5,0.2,1.1,0.2,1.6v5.6h-2.5v-5.1c0-0.7-0.2-1.2-0.4-1.8c-0.2-0.5-0.7-0.5-1.2-0.5
			c-0.7,0-1.2,0.2-1.4,0.5c-0.4,0.4-0.5,1.1-0.5,1.9v4.7h-2.5v-9.1h2.3V73.8z"/>
		<path d="M188.8,70.3h3.2l3,4.9l3-4.9h3.2l-4.6,7.7v4.7h-2.8v-4.9L188.8,70.3z"/>
		<path d="M199.6,76.2c0.2-0.5,0.5-1.1,0.9-1.6c0.4-0.4,0.9-0.7,1.4-0.9c0.5-0.2,1.2-0.4,1.9-0.4c0.7,0,1.4,0.2,1.9,0.4
			c0.5,0.2,1.1,0.5,1.4,0.9c0.4,0.4,0.7,0.9,0.9,1.6c0.2,0.5,0.4,1.2,0.4,1.9c0,0.7-0.2,1.4-0.4,1.9c-0.2,0.5-0.5,1.1-0.9,1.6
			c-0.4,0.4-0.9,0.7-1.4,0.9s-1.2,0.4-1.9,0.4c-0.7,0-1.4-0.2-1.9-0.4c-0.5-0.2-1.1-0.5-1.4-0.9c-0.4-0.4-0.7-0.9-0.9-1.6
			c-0.2-0.5-0.4-1.2-0.4-1.9C199.3,77.5,199.5,76.9,199.6,76.2z M201.9,79.4c0,0.4,0.2,0.7,0.4,0.9c0.2,0.4,0.4,0.5,0.7,0.7
			c0.4,0.2,0.7,0.2,1.1,0.2c0.4,0,0.7,0,1.1-0.2c0.4-0.2,0.5-0.4,0.7-0.7c0.2-0.4,0.4-0.5,0.4-0.9s0.2-0.7,0.2-1.1s0-0.7-0.2-1.1
			c0-0.4-0.2-0.7-0.4-0.9c-0.2-0.2-0.4-0.5-0.7-0.7c-0.4-0.2-0.7-0.2-1.1-0.2c-0.4,0-0.7,0-1.1,0.2c-0.4,0.2-0.5,0.4-0.7,0.7
			c-0.2,0.4-0.4,0.5-0.4,0.9s-0.2,0.7-0.2,1.1C201.7,78.7,201.9,79.1,201.9,79.4z"/>
		<path d="M216.5,82.7v-1.2l0,0c-0.4,0.5-0.7,0.9-1.2,1.1c-0.5,0.2-1.1,0.4-1.6,0.4c-0.7,0-1.2,0-1.6-0.2c-0.4-0.2-0.7-0.4-1.1-0.7
			c-0.2-0.4-0.4-0.7-0.5-1.2c-0.2-0.5-0.2-1.1-0.2-1.6v-5.6h2.5v5.1c0,0.7,0.2,1.2,0.4,1.8c0.2,0.4,0.7,0.5,1.2,0.5
			c0.7,0,1.2-0.2,1.4-0.5c0.4-0.4,0.5-1.1,0.5-1.9v-4.7h2.5v9.1h-2.3V82.7z"/>
		<path d="M223.1,73.8v1.8l0,0c0.2-0.4,0.4-0.5,0.5-0.7c0.2-0.2,0.4-0.5,0.7-0.5c0.2-0.2,0.5-0.4,0.9-0.4c0.4-0.2,0.5-0.2,0.9-0.2
			c0.2,0,0.4,0,0.5,0v2.3c-0.2,0-0.2,0-0.4,0c-0.2,0-0.4,0-0.5,0c-0.5,0-0.9,0-1.2,0.2c-0.4,0.2-0.5,0.4-0.7,0.7
			c-0.2,0.2-0.4,0.5-0.4,0.9s-0.2,0.7-0.2,1.2v4h-2.5V74h2.3V73.8z"/>
		<path d="M235.4,70.3v12.4h-2.8V70.3C232.6,70.3,235.4,70.3,235.4,70.3z"/>
		<path d="M239.9,73.8V75l0,0c0.4-0.5,0.7-0.9,1.2-1.2c0.5-0.2,1.1-0.4,1.6-0.4c0.7,0,1.2,0.2,1.6,0.4c0.4,0.2,0.7,0.4,1.1,0.7
			c0.2,0.4,0.4,0.7,0.5,1.2c0.2,0.5,0.2,1.1,0.2,1.6v5.6h-2.5v-5.1c0-0.7-0.2-1.2-0.4-1.8c-0.2-0.5-0.7-0.5-1.2-0.5
			c-0.7,0-1.2,0.2-1.4,0.5c-0.4,0.4-0.5,1.1-0.5,1.9v4.7h-2.5v-9.1h2.3V73.8z"/>
		<path d="M250.5,70.3v4.6l0,0c0.4-0.5,0.7-0.9,1.2-1.1c0.5-0.2,1.1-0.4,1.6-0.4c0.5,0,0.9,0.2,1.4,0.4c0.5,0.2,0.9,0.5,1.2,0.9
			s0.7,0.9,0.9,1.4s0.4,1.4,0.4,2.1s-0.2,1.6-0.4,2.1c-0.2,0.5-0.5,1.1-0.9,1.4c-0.4,0.4-0.7,0.7-1.2,0.9s-0.9,0.4-1.4,0.4
			c-0.7,0-1.2-0.2-1.8-0.4c-0.5-0.2-0.9-0.5-1.2-1.1l0,0v1.2h-2.5V70.3C247.8,70.3,250.5,70.3,250.5,70.3z M254.5,77.1
			c0-0.4-0.2-0.7-0.4-0.9c-0.2-0.2-0.4-0.5-0.7-0.7c-0.2-0.2-0.5-0.2-0.9-0.2c-0.4,0-0.7,0-0.9,0.2c-0.4,0.2-0.5,0.4-0.7,0.7
			c-0.2,0.4-0.4,0.5-0.4,0.9s-0.2,0.7-0.2,1.1s0,0.7,0.2,1.1c0,0.4,0.2,0.7,0.4,0.9c0.2,0.4,0.4,0.5,0.7,0.7
			c0.4,0.2,0.5,0.2,0.9,0.2c0.4,0,0.7,0,0.9-0.2c0.2-0.2,0.5-0.4,0.7-0.7s0.4-0.5,0.4-0.9s0.2-0.7,0.2-1.1S254.5,77.5,254.5,77.1z"
			/>
		<path d="M258.7,76.2c0.2-0.5,0.5-1.1,0.9-1.6c0.4-0.4,0.9-0.7,1.4-0.9c0.5-0.2,1.2-0.4,1.9-0.4c0.7,0,1.4,0.2,1.9,0.4
			c0.5,0.2,1.1,0.5,1.4,0.9s0.7,0.9,0.9,1.6c0.2,0.5,0.4,1.2,0.4,1.9c0,0.7-0.2,1.4-0.4,1.9c-0.2,0.5-0.5,1.1-0.9,1.6
			c-0.4,0.4-0.9,0.7-1.4,0.9s-1.2,0.4-1.9,0.4c-0.7,0-1.4-0.2-1.9-0.4c-0.5-0.2-1.1-0.5-1.4-0.9s-0.7-0.9-0.9-1.6
			c-0.2-0.5-0.4-1.2-0.4-1.9C258.4,77.5,258.5,76.9,258.7,76.2z M261,79.4c0,0.4,0.2,0.7,0.4,0.9c0.2,0.4,0.4,0.5,0.7,0.7
			c0.4,0.2,0.7,0.2,1.1,0.2c0.4,0,0.7,0,1.1-0.2c0.4-0.2,0.5-0.4,0.7-0.7c0.2-0.4,0.4-0.5,0.4-0.9s0.2-0.7,0.2-1.1s0-0.7-0.2-1.1
			c0-0.4-0.2-0.7-0.4-0.9c-0.2-0.2-0.4-0.5-0.7-0.7c-0.4-0.2-0.7-0.2-1.1-0.2c-0.4,0-0.7,0-1.1,0.2c-0.4,0.2-0.5,0.4-0.7,0.7
			c-0.2,0.4-0.4,0.5-0.4,0.9s-0.2,0.7-0.2,1.1C260.8,78.7,261,79.1,261,79.4z"/>
		<path d="M268.7,73.8h2.8l1.6,2.3l1.6-2.3h2.8l-3,4.2l3.3,4.9H275l-1.9-2.8l-1.9,2.8h-2.8l3.3-4.7L268.7,73.8z"/>
	</g>
</g>
</svg>
