<svg xmlns="http://www.w3.org/2000/svg" xmlns:xlink="http://www.w3.org/1999/xlink" width="1240" height="138" version="1.1" viewBox="0 0 1240 138"><title>skyline background</title><desc>Created with Sketch.</desc><defs><rect id="path-1" width="1240" height="200" x="0" y="0"/></defs><g id="Page-1" fill="none" fill-rule="evenodd" stroke="none" stroke-width="1"><g id="Direction-#1-grey-Revisions" transform="translate(-93.000000, -787.000000)"><g id="footer-banner" transform="translate(93.000000, 725.000000)"><g id="skyline-background"><mask id="mask-2" fill="#fff"><use xlink:href="#path-1"/></mask><g id="Skyline" mask="url(#mask-2)"><g><g transform="translate(-382.000000, 42.000000)"><path id="Combined-Shape" fill="#B6B6B6" d="M322.6459,93.9967307 L322.6459,66.6933436 L327.358065,66.6933436 L327.358065,62.6559557 L339.474194,62.6559557 L339.474194,66.357231 L343.849126,66.357231 L343.849126,97.6042092 L348.603544,97.6042092 L352.6,97.6042092 L352.6,94.9550588 L374.476176,94.9550588 L374.476176,87.5535175 L377.505208,87.5535175 L377.505208,35.7402046 L381.880645,35.7402046 L381.880645,29.6841228 L385.2459,29.6841228 L385.2459,21.9459642 L388.274932,21.9459642 L388.274932,29.3475055 L391.303965,29.3475055 L391.303965,36.0768218 L396.352352,36.0768218 L396.352352,81.3536984 L406.972078,81.3536984 L406.972078,78.5216592 L408.355379,78.5216592 L408.355379,76.3302002 L408.355379,72.823866 L412.100412,72.823866 L412.100412,78.5890887 L412.977627,78.5890887 L412.977627,80.038823 L414.495883,80.038823 L414.495883,80.8242012 L425.969724,80.8242012 L425.969724,93.6095993 L427.080544,93.6095993 L427.080544,82.1628525 L434.720094,82.1628525 L434.720094,66.357231 L443.13424,66.357231 L443.13424,80.8242012 L446.163273,80.8242012 L446.163273,82.1628525 L457.606452,82.1628525 L457.606452,48.8617153 L476.790323,27.3288116 L480.492305,27.3288116 L480.492305,88.2262472 L486.887097,88.2262472 L486.887097,81.1608184 L507.416868,81.1608184 L507.416868,88.2262472 L513.474932,88.2262472 L513.474932,25.9833521 L520.206452,25.9833521 L520.206452,20.6 L534.005208,20.6 L534.005208,26.3194646 L540.736223,26.3194646 L540.736223,84.1888593 L552.852352,84.1888593 L552.852352,89.908324 L564.632258,89.908324 L564.632258,62.9925729 L567.66129,60.6372617 L583.479402,60.6372617 L586.508434,63.6653026 L586.508434,95.6277886 L594.922581,95.6277886 L594.922581,114.132651 L603,114.132651 L603,164.6 L498,164.6 L498,165 L121,165 L121,130.476093 L121,124.373723 L122.551996,124.373723 L122.551996,110.752963 L124.238948,110.752963 L124.238948,102.425419 L125.89216,102.425419 L125.89216,101.009399 L126.836853,101.009399 L126.836853,97.5367797 L137.059782,97.5367797 L137.059782,100.94197 L138.611777,100.94197 L138.611777,102.796281 L139.758905,102.796281 L139.758905,116.181038 L146.810363,116.181038 L153.052085,116.181038 L153.052085,86.8492031 L154.907732,86.8492031 L154.907732,84.961177 L155.818686,84.961177 L155.818686,83.6125868 L161.318149,79.5668165 L166.480222,83.9160196 L166.480222,85.1634655 L167.155003,85.1634655 L167.155003,108.46036 L177.445409,108.46036 L177.445409,103.942583 L194.045015,103.942583 L194.045015,31.6581528 L197.857526,31.6581528 L197.857526,28.9946874 L202.749687,28.9946874 L202.817165,28.9946874 L203.32325,0 L203.863075,28.9946874 L208.822713,28.9946874 L208.822713,32.0964446 L213.107571,32.0964446 L213.107571,81.7245607 L226.0971,81.7245607 L226.0971,112.4387 L235.071684,112.4387 L235.071684,110.179812 L238.074459,110.179812 L238.074459,115.945035 L243.776356,115.945035 L243.776356,87.1863506 L253.155808,87.1863506 L253.155808,98.2785043 L255.348846,98.2785043 L255.348846,60.4505517 L272.454537,60.4505517 L272.454537,114.293012 L274.006533,114.293012 L274.006533,101.110544 L279.269823,101.110544 L279.269823,113.92215 L280.315733,113.92215 L280.315733,92.5132816 L284.060766,92.5132816 L284.060766,78.5890887 L304.23671,78.5890887 L304.23671,112.135268 L304.23671,121.339395 L310.309737,121.339395 L310.309737,112.944422 L311.220691,112.944422 L311.220691,109.269514 L312.435296,109.269514 L312.435296,96.8287699 L314.965724,96.8287699 L314.965724,83.8485901 L320.36397,83.8485901 L320.36397,93.9967307 L322.6459,93.9967307 Z"/><path id="Combined-Shape" fill="#4D4D4D" fill-rule="nonzero" d="M344,118.488133 L344,116.301017 L344,96.4840678 L345.649485,96.4840678 L345.649485,93.4237288 L350.391753,82.5871186 L350.391753,77.8210169 L351.474227,71.6 L352.608247,77.8210169 L352.608247,82.5871186 L357.298969,93.4237288 L357.298969,96.4840678 L359,96.4840678 L359,116.301017 L359,119.667271 L359.235143,119.667271 L359.235143,109.296901 L364.454908,109.296901 L364.454908,107.029327 L366.204887,107.029327 L366.204887,109.206198 L366.778156,109.206198 L366.778156,108.2387 L370.459147,108.2387 L370.459147,110.324868 L372.058266,110.324868 L372.058266,109.206198 L376.885795,109.206198 L376.885795,112.683144 L377.54958,112.683144 L377.54958,125.593197 L378.57543,125.593197 L378.57543,132.063341 L380.174549,132.063341 L380.174549,139.954497 L381.471947,139.954497 L381.471947,123.476795 L383.191755,123.476795 L383.191755,115.94845 L384.368465,115.94845 L384.368465,113.801814 L386.993434,113.801814 L386.993434,125.351323 L387.868423,125.351323 L387.868423,122.872109 L389.799435,122.872109 L389.799435,120.604535 L391.881307,120.604535 L391.881307,111.292366 L393.088189,111.292366 L393.088189,110.445805 L393.963178,110.445805 L393.963178,109.024792 L395.381265,106.968859 L395.381265,104.791988 L396.557975,104.791988 L396.557975,107.059562 L397.885546,109.206198 L397.885546,110.536508 L398.851051,110.536508 L398.851051,111.594709 L399.726041,111.594709 L399.726041,120.967347 L401.717397,120.967347 L401.717397,100.014966 L409.924196,100.014966 L409.924196,114.497203 L416.230155,114.497203 L416.230155,82.6 L439.130746,82.6 L439.130746,84.6861678 L439.854875,84.6861678 L439.854875,111.292366 L439.854875,124.172184 L445.014296,124.172184 L445.014296,112.169161 L448.393567,112.169161 L448.393567,109.629478 L454.186601,109.629478 L454.186601,112.22963 C454.186601,112.22963 460.522733,112.44127 460.522733,112.22963 C460.522733,112.017989 460.522733,95.0565382 460.522733,95.0565382 L459.436539,95.0565382 L459.436539,93.0006047 L485.837088,93.0006047 L485.837088,95.2077098 L484.449173,95.2077098 L484.449173,126.530461 L488.039648,126.530461 L488.039648,130.007407 L489.216358,130.007407 L489.216358,105.547846 L494.768016,105.547846 L494.768016,102.796523 L503.789461,102.796523 L503.789461,105.940892 L509.250603,105.940892 L509.250603,133.635525 L521.138392,133.635525 L521.138392,136.226467 L529.047489,136.226467 L529.047489,93.3598719 L540.404902,93.3598719 L540.404902,87.9255069 L546.103817,87.9255069 L546.103817,84.6 L556.208276,84.6 L556.208276,87.7227321 L560.573403,87.7227321 L560.573403,99.0781217 L571.445802,99.0781217 L571.445802,95.8337247 L578.76143,95.8337247 L578.76143,99.3214514 L584.37951,99.3214514 L584.37951,149.9746 L585.632463,149.9746 L585.632463,148.839061 L590.644275,148.839061 L590.644275,150.21793 L600.506227,150.21793 L600.506227,152.854002 L621.725593,152.854002 L621.725593,143.648026 L656.484934,143.648026 L656.484934,146.446318 L682.150261,146.446318 L682.150261,149.609605 L703.612133,149.609605 L703.612133,154.313981 L745,154.313981 L745,160.6 L560,160.6 L560,162.569766 L560,162.6 L197,162.6 L197,144.973394 L197,137.959033 L205.116283,137.959033 L205.116283,119.818443 L224.366054,119.818443 L224.366054,131.64006 L228.378938,131.64006 L231.094423,131.64006 L231.094423,101.16387 L233.146123,101.16387 L233.146123,99.349811 L234.262489,99.349811 L234.503865,99.349811 C235.107306,96.9613001 237.279694,95.1774754 239.874491,95.1774754 C242.469288,95.1774754 244.641676,96.9613001 245.245117,99.349811 L246.75372,99.349811 L246.75372,101.315042 L248.292494,101.315042 L248.292494,119.243991 L252.848475,119.243991 L252.848475,134.149509 L253.632948,134.149509 L253.632948,118.881179 L254.809658,118.881179 L254.809658,104.580348 L256.348433,104.580348 L256.348433,103.189569 L257.223423,103.189569 L257.223423,101.556916 L259.486327,99.3195767 L266.033663,99.3195767 L267.994847,101.980197 L267.994847,103.370975 L268.990524,103.370975 L268.990524,104.822222 L269.986202,104.822222 L269.986202,119.364928 L271.162912,119.364928 L271.162912,129.169904 L272.460311,129.169904 L272.460311,113.77158 L273.516333,113.77158 L273.516333,111.564475 L274.572355,111.564475 L274.572355,110.264399 L275.628377,110.264399 L275.628377,108.873621 L278.76627,108.873621 L278.76627,110.173696 L279.731776,110.173696 L279.731776,111.776115 L280.636938,111.776115 L280.636938,113.98322 L281.391239,113.98322 L281.391239,115.340662 L283.14536,115.340662 L283.14536,118.666169 L285.893773,118.666169 L285.893773,117.04397 L286.297951,117.04397 L286.297951,115.340662 L287.42965,115.340662 L287.42965,112.988474 L287.848059,112.988474 L287.848059,112.108692 L288.157172,112.108692 L288.157172,110.879616 L290.05681,110.879616 L290.05681,112.108692 L293.641094,112.108692 L293.641094,114.618141 L296.326407,114.618141 L296.326407,106.515344 L298.076386,106.515344 L303.597872,108.571277 L303.597872,110.717914 L306.343529,110.717914 L306.343529,135.20771 C306.343529,135.20771 309.14953,135.41935 309.14953,135.20771 C309.14953,135.026304 309.14953,121.088284 309.14953,121.088284 L310.688305,121.088284 L310.688305,119.878912 L310.990026,119.878912 L310.990026,119.153288 L311.412435,119.153288 L311.412435,118.578836 L312.951209,118.578836 L312.951209,119.243991 L313.464134,119.243991 L313.464134,120.030083 L313.886543,120.030083 L313.886543,117.490401 L317.386502,117.490401 L317.386502,137.159232 L318.020115,137.159232 L318.020115,125.321088 L320.976976,125.321088 L320.976976,109.296901 L323.843321,109.296901 L323.843321,103.61285 L325.080376,103.61285 L325.080376,101.103401 L328.127753,101.103401 L328.127753,103.582615 L328.972571,103.582615 L328.972571,104.429176 L329.877733,104.429176 L329.877733,108.510809 L330.933754,108.510809 L330.933754,110.445805 L335.912144,110.445805 L335.912144,113.136659 L337.088854,113.136659 L337.088854,121.027816 L338.05436,121.027816 L338.05436,122.479063 L339.261242,122.479063 L339.261242,123.857204 L339.834511,123.857204 L339.834511,118.488133 L344,118.488133 Z"/><path id="Combined-Shape" fill="#7D7D7D" d="M435.552068,139.987755 L435.552068,131.722449 L442.413695,131.722449 L442.413695,142.004649 L446.044518,142.004649 L446.044518,141.821939 L447.235378,141.821939 L447.235378,141.640816 L449.136148,141.640816 L449.136148,139.994842 L449.64622,139.994842 L449.64622,138.702041 L457.089872,138.702041 L457.089872,130.069388 L479.529244,130.069388 L479.529244,135.946939 L481.914408,135.946939 L481.914408,136.130612 L486.550642,136.130612 L486.550642,131.722449 L488.590585,131.722449 L488.590585,129.518367 L504.53923,129.518367 L504.53923,130.436735 L505.306705,130.436735 L505.306705,128.6 L511.982882,128.6 L511.982882,130.436735 L514.579173,130.436735 L514.579173,141.273469 L522.182596,141.273469 L522.182596,144.136507 L527.308111,144.136507 L527.308111,147.702041 L529.78602,147.702041 L529.78602,144.946939 L534.236805,144.946939 L534.236805,147.702041 L537.520393,147.702041 L537.520393,139.629422 L537.734665,139.629422 L537.734665,132.273469 L544.039943,132.273469 L544.039943,129.15102 L547.192582,129.15102 L547.192582,132.273469 L553.49786,132.273469 L553.49786,139.987755 L558.690442,139.987755 L558.690442,144.763265 L560.434827,144.763265 L560.434827,144.379876 L563.890178,144.379876 L563.890178,142.004649 L568.044518,142.004649 L568.044518,141.821939 L571.136148,141.821939 L571.136148,139.994842 L579.089872,139.994842 L579.089872,130.069388 L601.529244,130.069388 L601.529244,136.130612 L613.509665,136.130612 L613.509665,134.878968 L615.691992,134.878968 L615.691992,133.6 L619.147343,133.6 L619.147343,135.061678 L621.14781,135.061678 L621.14781,141.273469 L624.339515,141.273469 L624.339515,130.436735 L627.306705,130.436735 L627.306705,128.6 L633.982882,128.6 L633.982882,130.436735 L636.579173,130.436735 L636.579173,136.288776 L637.202568,136.288776 L637.202568,141.273469 L644.182596,141.273469 L644.182596,142.29898 L657.014265,142.29898 L657.014265,144.829592 L659.091298,144.829592 L659.091298,149.57449 L659.520393,149.57449 L659.520393,139.629422 L667.88598,139.629422 L667.88598,139.926531 L671.233951,139.926531 L671.233951,149.57449 L675.228245,149.57449 L675.228245,136.288776 L676.985735,136.288776 L676.985735,134.390816 L690.726106,134.390816 L690.726106,136.288776 L692.483595,136.288776 L692.483595,141.508163 L697.116976,141.508163 L697.116976,142.004649 L700.984607,142.004649 L700.984607,144.379876 L704.258098,144.379876 L704.258098,146.885714 L705.904422,146.885714 L705.904422,150.04898 L719.32525,150.04898 L719.32525,136.763265 L724.757489,136.763265 L724.757489,134.07449 L727.473609,134.07449 L727.473609,136.763265 L732.905849,136.763265 L732.905849,143.406122 L737.379458,143.406122 L737.379458,147.518367 L753.291013,147.518367 L753.291013,136.288776 L754.954351,136.288776 L754.954351,134.865306 L774.286733,134.865306 L774.286733,140.084694 L787.547789,140.084694 L787.547789,144.513265 L789.079886,144.513265 L789.079886,139.926531 L793.233951,139.926531 L793.233951,144.513265 L793.938659,144.513265 L793.938659,135.181633 L796.495007,135.181633 L796.495007,133.6 L802.24679,133.6 L802.24679,134.390816 L812.726106,134.390816 L812.726106,136.288776 L814.483595,136.288776 L814.483595,141.508163 L819.116976,141.508163 L819.116976,146.885714 L827.904422,146.885714 L827.904422,150.04898 L841.32525,150.04898 L841.32525,136.763265 L846.757489,136.763265 L846.757489,134.07449 L849.473609,134.07449 L849.473609,136.763265 L854.905849,136.763265 L854.905849,142.004649 L867.109822,142.004649 L867.109822,144.379876 L870.565173,144.379876 L870.565173,147.518367 L874.645608,147.518367 L874.645608,146.517321 L876.954351,146.517321 L876.954351,134.865306 L896.286733,134.865306 L896.286733,140.084694 L897.741902,140.084694 L897.741902,139.161779 L901.015393,139.161779 L901.015393,136.173591 L915.938659,136.173591 L915.938659,135.181633 L918.495007,135.181633 L918.495007,133.6 L924.24679,133.6 L924.24679,135.181633 L926.483595,135.181633 L926.483595,144.513265 L931.85219,144.513265 L931.85219,135.061678 L933.852657,135.061678 L933.852657,133.6 L934.11402,133.6 L934.11402,133.185402 L942.479607,133.185402 L942.479607,147.676531 L943.419401,147.676531 L943.419401,153.686735 L946.582898,153.686735 L946.582898,150.957427 L947.645608,150.957427 L947.645608,150.226588 L949.75403,150.226588 L949.75403,145.368018 L963.495932,145.368018 L963.495932,142.370069 L965.86012,142.370069 L965.86012,139.994842 L966.303343,139.994842 L966.303343,137.322894 L973.577767,137.322894 L973.577767,139.994842 L981.863852,139.994842 L981.863852,141.821939 L984.955482,141.821939 L984.955482,142.004649 L989.109822,142.004649 L989.109822,144.379876 L992.565173,144.379876 L992.565173,148.582201 L995.582898,148.582201 L995.582898,147.436764 L996.645608,147.436764 L996.645608,146.517321 L1007.11402,146.517321 L1007.11402,139.629422 L1010.48857,139.629422 L1010.48857,138.855605 L1012.49593,138.855605 L1012.49593,136.633312 L1014.86012,136.633312 L1014.86012,133.645123 L1030.86385,133.645123 L1030.86385,135.94373 L1033.95548,135.94373 L1033.95548,136.173591 L1038.10982,136.173591 L1038.10982,139.161779 L1041.56517,139.161779 L1041.56517,142.918198 L1046.57777,142.918198 L1046.57777,144.448575 L1050.68666,144.448575 L1050.68666,143.069411 L1053.85219,143.069411 L1053.85219,135.061678 L1055.85266,135.061678 L1055.85266,133.6 L1056.11402,133.6 L1056.11402,133.185402 L1064.47961,133.185402 L1064.47961,133.645123 L1076.13988,133.645123 L1076.13988,136.633312 L1078.50407,136.633312 L1078.50407,138.855605 L1080.51143,138.855605 L1080.51143,145.368018 L1085.49593,145.368018 L1085.49593,142.370069 L1087.86012,142.370069 L1087.86012,139.994842 L1088.30334,139.994842 L1088.30334,137.322894 L1095.57777,137.322894 L1095.57777,139.994842 L1103.86385,139.994842 L1103.86385,141.821939 L1106.95548,141.821939 L1109.13615,141.821939 L1109.13615,139.994842 L1125.13988,139.994842 L1125.13988,142.370069 L1127.50407,142.370069 L1127.50407,145.368018 L1132.48857,145.368018 L1132.48857,138.855605 L1134.49593,138.855605 L1134.49593,136.633312 L1136.86012,136.633312 L1136.86012,133.645123 L1148.52039,133.645123 L1148.52039,133.185402 L1156.88598,133.185402 L1156.88598,133.6 L1157.14734,133.6 L1157.14734,135.061678 L1159.14781,135.061678 L1159.14781,143.069411 L1162.31334,143.069411 L1162.31334,144.448575 L1166.42223,144.448575 L1166.42223,142.918198 L1171.43483,142.918198 L1171.43483,139.161779 L1174.89018,139.161779 L1174.89018,136.173591 L1179.04452,136.173591 L1179.04452,135.94373 L1182.13615,135.94373 L1182.13615,133.645123 L1198.13988,133.645123 L1198.13988,136.633312 L1200.50407,136.633312 L1200.50407,138.855605 L1202.51143,138.855605 L1202.51143,139.629422 L1205.88598,139.629422 L1205.88598,146.517321 L1216.35439,146.517321 L1216.35439,147.436764 L1217.4171,147.436764 L1217.4171,148.582201 L1220.43483,148.582201 L1220.43483,144.379876 L1223.89018,144.379876 L1223.89018,142.004649 L1228.04452,142.004649 L1228.04452,141.821939 L1231.13615,141.821939 L1231.13615,139.994842 L1239.42223,139.994842 L1239.42223,137.322894 L1246.69666,137.322894 L1246.69666,139.994842 L1247.13988,139.994842 L1247.13988,142.370069 L1249.50407,142.370069 L1249.50407,145.368018 L1263.24597,145.368018 L1263.24597,150.226588 L1265.35439,150.226588 L1265.35439,150.957427 L1266.4171,150.957427 L1266.4171,153.872862 L1270.52039,153.872862 L1270.52039,133.185402 L1278.88598,133.185402 L1278.88598,133.6 L1279.14734,133.6 L1279.14734,135.061678 L1281.14781,135.061678 L1281.14781,149.50551 L1284.70552,149.50551 L1284.70552,153.149945 L1288.42223,153.149945 L1288.42223,142.918198 L1293.43483,142.918198 L1293.43483,139.161779 L1296.89018,139.161779 L1296.89018,136.173591 L1311.98461,136.173591 L1311.98461,139.161779 L1315.2581,139.161779 L1315.2581,151.574256 L1318.16787,151.574256 L1318.16787,155.252026 L1319.52039,155.252026 L1319.52039,139.629422 L1327.88598,139.629422 L1327.88598,146.517321 L1338.35439,146.517321 L1338.35439,151.344395 L1342.43483,151.344395 L1342.43483,144.379876 L1345.89018,144.379876 L1345.89018,142.004649 L1360.98461,142.004649 L1360.98461,144.379876 L1364.2581,144.379876 L1364.2581,154.102723 L1365.45162,154.102723 L1365.45162,154.246203 L1367.16787,154.246203 L1367.16787,157.169559 L1370.80508,157.169559 L1370.80508,150.226588 L1387.35439,150.226588 L1387.35439,154.063493 L1401.72138,154.063493 L1401.72138,158.996657 L1409.72324,158.996657 L1409.72324,156.256011 L1414.45162,156.256011 L1414.45162,158.996657 L1420.45302,158.996657 L1420.45302,162.285433 L1427,162.285433 L1427,164.6 L1423.48463,164.6 L1219,164.6 L1170,164.6 L957,164.6 L733,164.6 L505,164.6 L384,164.6 L380.484635,164.6 L122,164.6 L0,164.6 L0,159.727496 L9.4567505,159.727496 L9.4567505,155.829931 L16.4885719,155.829931 L16.4885719,144.136507 L22.3081107,144.136507 L22.3081107,155.829931 L28.8547281,155.829931 L28.8547281,150.226588 L30.161942,150.226588 L30.161942,148.87819 L38.4729708,148.87819 L38.4729708,150.226588 L39.5845027,150.226588 L39.5845027,155.707881 L42.1305509,155.707881 L42.1305509,147.485942 L46.3133444,147.485942 L46.3133444,156.073301 L47.5863685,156.073301 L47.5863685,153.332654 L51.4054408,153.332654 L51.4054408,148.582201 L57.043119,148.582201 L57.043119,155.159752 L63.0445184,155.159752 L63.0445184,141.821939 L66.1361483,141.821939 L66.1361483,139.994842 L82.1398799,139.994842 L82.1398799,142.370069 L84.5040676,142.370069 L84.5040676,155.890591 L87.7775581,155.890591 L87.7775581,152.601815 L90.8691881,152.601815 L90.8691881,155.890591 L94.1426787,155.890591 L94.1426787,150.957427 L101.417102,150.957427 L101.417102,157.534979 L108.509665,157.534979 L108.509665,134.878968 L110.691992,134.878968 L110.691992,133.6 L114.147343,133.6 L114.147343,135.061678 L116.14781,135.061678 L116.14781,153.149945 L123.422233,153.149945 L123.422233,142.918198 L130.696657,142.918198 L130.696657,149.31304 L138.488572,149.31304 L138.488572,144.136507 L144.308111,144.136507 L144.308111,149.31304 L147.24597,149.31304 L147.24597,155.829931 L150.854728,155.829931 L150.854728,150.226588 L152.161942,150.226588 L152.161942,148.87819 L154.520393,148.87819 L154.520393,139.629422 L162.88598,139.629422 L162.88598,152.601815 L164.130551,152.601815 L164.130551,147.485942 L168.313344,147.485942 L168.313344,150.226588 L169.161942,150.226588 L169.161942,148.87819 L173.405441,148.87819 L173.405441,148.582201 L177.434827,148.582201 L177.434827,144.379876 L180.890178,144.379876 L180.890178,142.004649 L185.044518,142.004649 L185.044518,141.821939 L188.136148,141.821939 L188.136148,139.994842 L204.13988,139.994842 L204.13988,141.821939 L205.136148,141.821939 L205.136148,139.994842 L221.13988,139.994842 L221.13988,142.370069 L223.504068,142.370069 L223.504068,154.063493 L226.777558,154.063493 L226.777558,152.601815 L229.869188,152.601815 L229.869188,154.063493 L230.509665,154.063493 L230.509665,134.878968 L232.691992,134.878968 L232.691992,133.6 L236.147343,133.6 L236.147343,135.061678 L238.14781,135.061678 L238.14781,150.957427 L240.417102,150.957427 L240.417102,153.149945 L245.422233,153.149945 L245.422233,142.918198 L247.509665,142.918198 L247.509665,134.878968 L249.691992,134.878968 L249.691992,133.6 L253.147343,133.6 L253.147343,135.061678 L255.14781,135.061678 L255.14781,149.31304 L262.422233,149.31304 L262.422233,142.918198 L269.696657,142.918198 L269.696657,149.31304 L276.520393,149.31304 L276.520393,139.629422 L284.88598,139.629422 L284.88598,149.31304 L286.24597,149.31304 L286.24597,152.601815 L289.854728,152.601815 L289.854728,150.226588 L291.161942,150.226588 L291.161942,148.87819 L293.520393,148.87819 L293.520393,139.629422 L301.88598,139.629422 L301.88598,144.379876 L302.890178,144.379876 L302.890178,142.004649 L313.552068,142.004649 L313.552068,131.722449 L320.413695,131.722449 L320.413695,142.004649 L324.044518,142.004649 L324.044518,141.821939 L325.235378,141.821939 L325.235378,141.640816 L327.136148,141.640816 L327.136148,139.994842 L327.64622,139.994842 L327.64622,138.702041 L343.409415,138.702041 L343.409415,141.640816 L345.820257,141.640816 L345.820257,147.15102 L355.092725,147.15102 L355.092725,135.946939 L359.914408,135.946939 L359.914408,147.15102 L364.550642,147.15102 L364.550642,131.722449 L366.590585,131.722449 L366.590585,129.518367 L382.53923,129.518367 L382.53923,131.722449 L384.579173,131.722449 L384.579173,137.783673 L389.957204,137.783673 L389.957204,142.918198 L391.696657,142.918198 L391.696657,144.028571 L400.156919,144.028571 L400.156919,144.136507 L405.308111,144.136507 L405.308111,147.702041 L415.520393,147.702041 L415.520393,139.629422 L415.734665,139.629422 L415.734665,132.273469 L422.039943,132.273469 L422.039943,129.15102 L425.192582,129.15102 L425.192582,132.273469 L431.49786,132.273469 L431.49786,139.987755 L435.552068,139.987755 Z"/><path id="Combined-Shape-Copy-3" fill="#7D7D7D" d="M759.577746,152.601815 L759.577746,147.15102 L767.552068,147.15102 L767.552068,131.722449 L774.413695,131.722449 L774.413695,142.004649 L779.235378,142.004649 L779.235378,141.640816 L781.64622,141.640816 L781.64622,138.702041 L797.409415,138.702041 L797.409415,141.640816 L799.820257,141.640816 L799.820257,147.15102 L809.092725,147.15102 L809.092725,135.946939 L813.914408,135.946939 L813.914408,147.15102 L818.550642,147.15102 L818.550642,131.722449 L820.590585,131.722449 L820.590585,129.518367 L836.53923,129.518367 L836.53923,131.722449 L838.579173,131.722449 L838.579173,137.783673 L843.957204,137.783673 L843.957204,144.028571 L854.156919,144.028571 L854.156919,144.136507 L859.308111,144.136507 L859.308111,147.702041 L869.734665,147.702041 L869.734665,132.273469 L876.039943,132.273469 L876.039943,129.15102 L879.192582,129.15102 L879.192582,132.273469 L885.49786,132.273469 L885.49786,139.987755 L890.690442,139.987755 L890.690442,144.763265 L900.044518,144.763265 L900.044518,141.821939 L903.136148,141.821939 L903.136148,139.994842 L911.089872,139.994842 L911.089872,130.069388 L933.529244,130.069388 L933.529244,136.130612 L945.509665,136.130612 L945.509665,134.878968 L947.691992,134.878968 L947.691992,133.6 L951.147343,133.6 L951.147343,135.061678 L953.14781,135.061678 L953.14781,141.273469 L956.339515,141.273469 L956.339515,130.436735 L959.306705,130.436735 L959.306705,128.6 L965.982882,128.6 L965.982882,130.436735 L968.579173,130.436735 L968.579173,141.273469 L976.182596,141.273469 L976.182596,147.885714 L983.78602,147.885714 L983.78602,144.946939 L988.236805,144.946939 L988.236805,151.926531 L991.520393,151.926531 L991.520393,139.629422 L999.88598,139.629422 L999.88598,152.601815 L1005.70552,152.601815 L1005.70552,156.43872 L1011.52506,156.43872 L1011.52506,153.149945 L1014.43483,153.149945 L1014.43483,144.379876 L1017.89018,144.379876 L1017.89018,142.004649 L1032.98461,142.004649 L1032.98461,144.379876 L1036.2581,144.379876 L1036.2581,154.246203 L1039.16787,154.246203 L1039.16787,157.169559 L1042.80508,157.169559 L1042.80508,150.226588 L1059.35439,150.226588 L1059.35439,154.063493 L1073.72138,154.063493 L1073.72138,158.996657 L1078.42083,158.996657 L1078.42083,149.57449 L1085.29101,149.57449 L1085.29101,136.288776 L1091.20257,136.288776 L1091.20257,149.57449 L1095.35663,149.57449 L1095.35663,144.829592 L1097.43367,144.829592 L1097.43367,142.29898 L1111.01427,142.29898 L1111.01427,144.829592 L1113.0913,144.829592 L1113.0913,149.57449 L1121.07989,149.57449 L1121.07989,139.926531 L1125.23395,139.926531 L1125.23395,149.57449 L1129.22825,149.57449 L1129.22825,136.288776 L1130.98573,136.288776 L1130.98573,134.390816 L1144.72611,134.390816 L1144.72611,136.288776 L1146.48359,136.288776 L1146.48359,141.508163 L1151.11698,141.508163 L1151.11698,146.885714 L1159.90442,146.885714 L1159.90442,150.04898 L1173.32525,150.04898 L1173.32525,136.763265 L1178.75749,136.763265 L1178.75749,134.07449 L1181.47361,134.07449 L1181.47361,136.763265 L1186.90585,136.763265 L1186.90585,143.406122 L1191.37946,143.406122 L1191.37946,147.518367 L1208.95435,147.518367 L1208.95435,134.865306 L1228.28673,134.865306 L1228.28673,140.084694 L1241.54779,140.084694 L1241.54779,144.513265 L1247.93866,144.513265 L1247.93866,135.181633 L1250.49501,135.181633 L1250.49501,133.6 L1256.24679,133.6 L1256.24679,135.181633 L1258.48359,135.181633 L1258.48359,144.513265 L1265.03424,144.513265 L1265.03424,150.207143 L1271.58488,150.207143 L1271.58488,147.676531 L1275.4194,147.676531 L1275.4194,153.686735 L1279.64561,153.686735 L1279.64561,150.226588 L1296.19492,150.226588 L1296.19492,157.169559 L1299.83213,157.169559 L1299.83213,154.246203 L1301.54838,154.246203 L1301.54838,154.102723 L1302.7419,154.102723 L1302.7419,144.379876 L1306.01539,144.379876 L1306.01539,142.004649 L1321.10982,142.004649 L1321.10982,144.379876 L1324.56517,144.379876 L1324.56517,151.344395 L1328.64561,151.344395 L1328.64561,146.517321 L1339.11402,146.517321 L1339.11402,139.629422 L1347.47961,139.629422 L1347.47961,155.252026 L1348.83213,155.252026 L1348.83213,151.574256 L1351.7419,151.574256 L1354.75403,151.383898 L1354.75403,149.31304 L1371.30334,149.31304 L1371.30334,142.918198 L1378.57777,142.918198 L1378.57777,153.149945 L1382.29448,153.149945 L1382.29448,149.50551 L1388.11402,149.50551 L1396.47961,153.872862 L1400.5829,153.872862 L1400.5829,150.957427 L1403.75403,150.957427 L1403.75403,145.368018 L1417.49593,145.368018 L1417.49593,142.370069 L1419.86012,142.370069 L1419.86012,139.994842 L1426.22265,139.994842 L1440.30801,127.209025 L1442.49034,127.209025 L1442.49034,155.159752 L1444.95688,155.159752 L1444.95688,148.582201 L1449.5829,148.582201 L1449.5829,147.436764 L1456.85732,147.436764 L1456.85732,147.485942 L1459.86945,147.485942 L1459.86945,153.643002 L1460.13081,153.643002 L1460.13081,149.50551 L1463.22244,149.50551 L1463.22244,150.226588 L1463.52703,150.226588 L1463.52703,148.87819 L1466.49593,148.87819 L1466.49593,136.633312 L1468.86012,136.633312 L1468.86012,133.645123 L1484.86385,133.645123 L1484.86385,135.94373 L1487.95548,135.94373 L1487.95548,152.723559 L1493.95688,152.723559 L1493.95688,144.448575 L1499.59456,144.448575 L1499.59456,150.424952 L1503.41363,150.424952 L1503.41363,153.872862 L1504.68666,153.872862 L1504.68666,143.069411 L1508.86945,143.069411 L1508.86945,153.413141 L1511.4155,153.413141 L1511.4155,146.517321 L1512.52703,146.517321 L1512.52703,144.820949 L1513.48857,144.820949 L1513.48857,144.136507 L1519.30811,144.136507 L1519.30811,144.820949 L1520.83806,144.820949 L1520.83806,146.517321 L1522.14527,146.517321 L1522.14527,153.566688 L1525.85473,153.566688 L1525.85473,150.226588 L1527.16194,150.226588 L1527.16194,148.87819 L1528.69189,148.87819 L1528.69189,138.855605 L1534.51143,138.855605 L1534.51143,148.87819 L1535.47297,148.87819 L1535.47297,150.226588 L1536.5845,150.226588 L1536.5845,153.566688 L1539.13055,153.566688 L1539.13055,147.485942 L1543.31334,147.485942 L1543.31334,156.073301 L1544.58637,156.073301 L1544.58637,153.332654 L1548.40544,153.332654 L1548.40544,148.582201 L1554.04312,148.582201 L1554.04312,155.159752 L1560.04452,155.159752 L1560.04452,141.821939 L1581.50407,155.890591 L1584.77756,155.890591 L1584.77756,152.601815 L1587.86919,152.601815 L1587.86919,155.890591 L1591.14268,155.890591 L1591.14268,150.957427 L1598.4171,150.957427 L1598.4171,157.534979 L1605.50966,157.534979 L1613.14781,153.149945 L1620.42223,153.149945 L1627.69666,149.31304 L1644.24597,149.31304 L1644.24597,156.073301 L1651.52039,156.073301 L1651.52039,139.629422 L1659.88598,139.629422 L1659.88598,152.601815 L1665.70552,152.601815 L1665.70552,156.43872 L1671.52506,156.43872 L1671.52506,153.149945 L1674.43483,153.149945 L1696.2581,152.246203 L1699.16787,154.246203 L1699.16787,157.169559 L1702.80508,157.169559 L1702.80508,150.226588 L1719.35439,150.226588 L1719.35439,154.063493 L1733.72138,154.063493 L1733.72138,158.996657 L1741.72324,158.996657 L1741.72324,156.256011 L1746.45162,156.256011 L1746.45162,158.996657 L1752.45302,158.996657 L1752.45302,162.285433 L1759,162.285433 L1759,164.6 L1755.48463,164.6 L1551,164.6 L1502,164.6 L1289,164.6 L1065,164.6 L837,164.6 L716,164.6 L712.484635,164.6 L454,164.6 L454,159.727496 L463.45675,159.727496 L463.45675,155.829931 L470.488572,155.829931 L470.488572,144.136507 L476.308111,144.136507 L476.308111,155.829931 L482.854728,155.829931 L482.854728,150.226588 L484.161942,150.226588 L484.161942,148.87819 L492.472971,148.87819 L492.472971,150.226588 L493.584503,150.226588 L493.584503,155.707881 L496.130551,155.707881 L496.130551,147.485942 L500.313344,147.485942 L500.313344,156.073301 L501.586369,156.073301 L501.586369,153.332654 L505.405441,153.332654 L505.405441,148.582201 L511.043119,148.582201 L511.043119,155.159752 L517.044518,155.159752 L517.044518,141.821939 L520.136148,141.821939 L520.136148,139.994842 L536.13988,139.994842 L536.13988,142.370069 L538.504068,142.370069 L538.504068,155.890591 L541.777558,155.890591 L541.777558,152.601815 L544.869188,152.601815 L544.869188,155.890591 L548.142679,155.890591 L548.142679,150.957427 L555.417102,150.957427 L555.417102,157.534979 L562.509665,157.534979 L562.509665,134.878968 L564.691992,134.878968 L564.691992,133.6 L568.147343,133.6 L568.147343,135.061678 L570.14781,135.061678 L570.14781,153.149945 L577.422233,153.149945 L577.422233,142.918198 L584.696657,142.918198 L584.696657,149.31304 L601.24597,149.31304 L601.24597,156.073301 L602.45675,156.073301 L602.45675,155.829931 L608.520393,155.829931 L608.520393,139.629422 L616.88598,139.629422 L616.88598,152.601815 L621.854728,152.601815 L621.854728,150.226588 L623.161942,150.226588 L623.161942,148.87819 L631.434827,148.87819 L631.434827,144.379876 L634.890178,144.379876 L634.890178,142.004649 L649.984607,142.004649 L649.984607,144.379876 L653.258098,144.379876 L653.258098,154.246203 L656.044518,154.246203 L656.044518,141.821939 L659.136148,141.821939 L659.136148,139.994842 L675.13988,139.994842 L675.13988,142.370069 L677.504068,142.370069 L677.504068,154.063493 L680.777558,154.063493 L680.777558,152.601815 L683.869188,152.601815 L683.869188,154.063493 L687.142679,154.063493 L687.142679,150.957427 L694.417102,150.957427 L694.417102,157.534979 L698.723244,157.534979 L698.723244,156.256011 L701.509665,156.256011 L701.509665,134.878968 L703.691992,134.878968 L703.691992,133.6 L707.147343,133.6 L707.147343,135.061678 L709.14781,135.061678 L709.14781,153.149945 L716.422233,153.149945 L716.422233,142.918198 L723.696657,142.918198 L723.696657,149.31304 L740.24597,149.31304 L740.24597,156.073301 L747.520393,156.073301 L747.520393,139.629422 L755.88598,139.629422 L755.88598,152.601815 L759.577746,152.601815 Z"/></g></g></g></g></g></g></g></svg>