<svg xmlns="http://www.w3.org/2000/svg" xmlns:xlink="http://www.w3.org/1999/xlink" width="1125" height="100" version="1.1" viewBox="0 0 1125 100"><title>Landing page skyline banner</title><desc>Created with Sketch.</desc><defs><rect id="path-1" width="1125" height="100" x="0" y="0"/></defs><g id="Page-1" fill="none" fill-rule="evenodd" stroke="none" stroke-width="1"><g id="newsletter-Landing-page-#4" transform="translate(-31.000000, -230.000000)"><g id="Landing-page-skyline-banner" transform="translate(31.000000, 230.000000)"><rect id="Rectangle-Copy-3" width="1125" height="100" x="0" y="0" fill="#EBEBEB"/><g id="skyline-Background"><mask id="mask-2" fill="#fff"><use xlink:href="#path-1"/></mask><g id="Skyline" mask="url(#mask-2)"><g><g transform="translate(-176.000000, -24.000000)"><path id="Combined-Shape" fill="#B6B6B6" d="M258.11672,75.1973846 L258.11672,53.3546749 L261.886452,53.3546749 L261.886452,50.1247645 L271.579355,50.1247645 L271.579355,53.0857848 L275.079301,53.0857848 L275.079301,78.0833674 L278.882835,78.0833674 L282.08,78.0833674 L282.08,75.9640471 L299.580941,75.9640471 L299.580941,70.042814 L302.004166,70.042814 L302.004166,28.5921637 L305.504516,28.5921637 L305.504516,23.7472982 L308.19672,23.7472982 L308.19672,17.5567714 L310.619946,17.5567714 L310.619946,23.4780044 L313.043172,23.4780044 L313.043172,28.8614575 L317.081881,28.8614575 L317.081881,65.0829587 L325.577662,65.0829587 L325.577662,62.8173273 L326.684303,62.8173273 L326.684303,61.0641602 L326.684303,58.2590928 L329.680329,58.2590928 L329.680329,62.8712709 L330.382101,62.8712709 L330.382101,64.0310584 L331.596707,64.0310584 L331.596707,64.659361 L340.775779,64.659361 L340.775779,74.8876794 L341.664435,74.8876794 L341.664435,65.730282 L347.776075,65.730282 L347.776075,53.0857848 L354.507392,53.0857848 L354.507392,64.659361 L356.930618,64.659361 L356.930618,65.730282 L366.085161,65.730282 L366.085161,39.0893722 L381.432258,21.8630493 L384.393844,21.8630493 L384.393844,70.5809978 L389.509677,70.5809978 L389.509677,64.9286547 L405.933494,64.9286547 L405.933494,70.5809978 L410.779946,70.5809978 L410.779946,20.7866817 L416.165161,20.7866817 L416.165161,16.48 L427.204166,16.48 L427.204166,21.0555717 L432.588978,21.0555717 L432.588978,67.3510875 L442.281881,67.3510875 L442.281881,71.9266592 L451.705806,71.9266592 L451.705806,50.3940583 L454.129032,48.5098094 L466.783521,48.5098094 L469.206747,50.9322421 L469.206747,76.5022309 L475.938065,76.5022309 L475.938065,91.3061211 L482.4,91.3061211 L482.4,131.68 L398.4,131.68 L398.4,132 L96.8,132 L96.8,104.380875 L96.8,99.4989783 L98.0415966,99.4989783 L98.0415966,88.6023702 L99.391158,88.6023702 L99.391158,81.9403351 L100.713728,81.9403351 L100.713728,80.8075194 L101.469483,80.8075194 L101.469483,78.0294238 L109.647825,78.0294238 L109.647825,80.7535758 L110.889422,80.7535758 L110.889422,82.2370249 L111.807124,82.2370249 L111.807124,92.9448304 L117.448291,92.9448304 L122.441668,92.9448304 L122.441668,69.4793625 L123.926186,69.4793625 L123.926186,67.9689416 L124.654949,67.9689416 L124.654949,66.8900695 L129.054519,63.6534532 L133.184178,67.1328157 L133.184178,68.1307724 L133.724002,68.1307724 L133.724002,86.7682877 L141.956327,86.7682877 L141.956327,83.1540662 L155.236012,83.1540662 L155.236012,25.3265223 L158.286021,25.3265223 L158.286021,23.1957499 L162.199749,23.1957499 L162.253732,23.1957499 L162.6586,0 L163.09046,23.1957499 L167.058171,23.1957499 L167.058171,25.6771557 L170.486057,25.6771557 L170.486057,65.3796485 L180.87768,65.3796485 L180.87768,89.9509604 L188.057347,89.9509604 L188.057347,88.1438496 L190.459567,88.1438496 L190.459567,92.7560278 L195.021085,92.7560278 L195.021085,69.7490805 L202.524647,69.7490805 L202.524647,78.6228034 L204.279076,78.6228034 L204.279076,48.3604414 L217.96363,48.3604414 L217.96363,91.4344095 L219.205226,91.4344095 L219.205226,80.8884348 L223.415858,80.8884348 L223.415858,91.1377197 L224.252586,91.1377197 L224.252586,74.0106253 L227.248613,74.0106253 L227.248613,62.8712709 L243.389368,62.8712709 L243.389368,89.7082141 L243.389368,97.0715161 L248.24779,97.0715161 L248.24779,90.3555374 L248.976553,90.3555374 L248.976553,87.415611 L249.948237,87.415611 L249.948237,77.4630159 L251.972579,77.4630159 L251.972579,67.0788721 L256.291176,67.0788721 L256.291176,75.1973846 L258.11672,75.1973846 Z"/><path id="Combined-Shape" fill="#4D4D4D" fill-rule="nonzero" d="M275.2,94.7905064 L275.2,93.0408136 L275.2,77.1872542 L276.519588,77.1872542 L276.519588,74.7389831 L280.313402,66.0696949 L280.313402,62.2568136 L281.179381,57.28 L282.086598,62.2568136 L282.086598,66.0696949 L285.839175,74.7389831 L285.839175,77.1872542 L287.2,77.1872542 L287.2,93.0408136 L287.2,95.7338171 L287.388114,95.7338171 L287.388114,87.4375208 L291.563927,87.4375208 L291.563927,85.6234618 L292.96391,85.6234618 L292.96391,87.3649584 L293.422525,87.3649584 L293.422525,86.5909599 L296.367318,86.5909599 L296.367318,88.2598942 L297.646613,88.2598942 L297.646613,87.3649584 L301.508636,87.3649584 L301.508636,90.1465155 L302.039664,90.1465155 L302.039664,100.474558 L302.860344,100.474558 L302.860344,105.650673 L304.139639,105.650673 L304.139639,111.963598 L305.177558,111.963598 L305.177558,98.7814361 L306.553404,98.7814361 L306.553404,92.7587604 L307.494772,92.7587604 L307.494772,91.0414512 L309.594747,91.0414512 L309.594747,100.281058 L310.294739,100.281058 L310.294739,98.2976871 L311.839548,98.2976871 L311.839548,96.4836281 L313.505045,96.4836281 L313.505045,89.0338927 L314.470551,89.0338927 L314.470551,88.356644 L315.170543,88.356644 L315.170543,87.2198337 L316.305012,85.5750869 L316.305012,83.8335903 L317.24638,83.8335903 L317.24638,85.6476493 L318.308437,87.3649584 L318.308437,88.4292063 L319.080841,88.4292063 L319.080841,89.2757672 L319.780833,89.2757672 L319.780833,96.7738776 L321.373917,96.7738776 L321.373917,80.0119728 L327.939357,80.0119728 L327.939357,91.5977627 L332.984124,91.5977627 L332.984124,66.08 L351.304596,66.08 L351.304596,67.7489342 L351.8839,67.7489342 L351.8839,89.0338927 L351.8839,99.3377475 L356.011437,99.3377475 L356.011437,89.7353288 L358.714853,89.7353288 L358.714853,87.7035828 L363.349281,87.7035828 L363.349281,89.7837037 C363.349281,89.7837037 368.418186,89.9530159 368.418186,89.7837037 C368.418186,89.6143915 368.418186,76.0452305 368.418186,76.0452305 L367.549231,76.0452305 L367.549231,74.4004837 L388.66967,74.4004837 L388.66967,76.1661678 L387.559338,76.1661678 L387.559338,101.224369 L390.431718,101.224369 L390.431718,104.005926 L391.373086,104.005926 L391.373086,84.4382766 L395.814413,84.4382766 L395.814413,82.2372184 L403.031568,82.2372184 L403.031568,84.7527135 L407.400482,84.7527135 L407.400482,106.90842 L416.910714,106.90842 L416.910714,108.981174 L423.237991,108.981174 L423.237991,74.6878975 L432.323921,74.6878975 L432.323921,70.3404055 L436.883053,70.3404055 L436.883053,67.68 L444.966621,67.68 L444.966621,70.1781857 L448.458722,70.1781857 L448.458722,79.2624973 L457.156641,79.2624973 L457.156641,76.6669797 L463.009144,76.6669797 L463.009144,79.4571612 L467.503608,79.4571612 L467.503608,119.97968 L468.50597,119.97968 L468.50597,119.071249 L472.51542,119.071249 L472.51542,120.174344 L480.404982,120.174344 L480.404982,122.283202 L497.380474,122.283202 L497.380474,114.91842 L525.187947,114.91842 L525.187947,117.157054 L545.720209,117.157054 L545.720209,119.687684 L562.889707,119.687684 L562.889707,123.451185 L596,123.451185 L596,128.48 L448,128.48 L448,130.055813 L448,130.08 L157.6,130.08 L157.6,115.978715 L157.6,110.367226 L164.093026,110.367226 L164.093026,95.8547543 L179.492843,95.8547543 L179.492843,105.312048 L182.70315,105.312048 L184.875538,105.312048 L184.875538,80.931096 L186.516898,80.931096 L186.516898,79.4798488 L187.409991,79.4798488 L187.603092,79.4798488 C188.085845,77.5690401 189.823755,76.1419803 191.899593,76.1419803 C193.97543,76.1419803 195.713341,77.5690401 196.196093,79.4798488 L197.402976,79.4798488 L197.402976,81.0520333 L198.633996,81.0520333 L198.633996,95.3951927 L202.27878,95.3951927 L202.27878,107.319607 L202.906359,107.319607 L202.906359,95.1049433 L203.847727,95.1049433 L203.847727,83.6642782 L205.078747,83.6642782 L205.078747,82.5516553 L205.778738,82.5516553 L205.778738,81.2455329 L207.589062,79.4556614 L212.82693,79.4556614 L214.395877,81.5841572 L214.395877,82.69678 L215.19242,82.69678 L215.19242,83.8577778 L215.988962,83.8577778 L215.988962,95.4919426 L216.93033,95.4919426 L216.93033,103.335923 L217.968249,103.335923 L217.968249,91.0172638 L218.813066,91.0172638 L218.813066,89.2515797 L219.657884,89.2515797 L219.657884,88.2115193 L220.502701,88.2115193 L220.502701,87.0988964 L223.013016,87.0988964 L223.013016,88.1389569 L223.785421,88.1389569 L223.785421,89.4208919 L224.50955,89.4208919 L224.50955,91.186576 L225.112991,91.186576 L225.112991,92.2725293 L226.516288,92.2725293 L226.516288,94.9329349 L228.715018,94.9329349 L228.715018,93.6351761 L229.038361,93.6351761 L229.038361,92.2725293 L229.94372,92.2725293 L229.94372,90.3907791 L230.278447,90.3907791 L230.278447,89.6869539 L230.525737,89.6869539 L230.525737,88.7036926 L232.045448,88.7036926 L232.045448,89.6869539 L234.912875,89.6869539 L234.912875,91.6945125 L237.061125,91.6945125 L237.061125,85.2122751 L238.461109,85.2122751 L242.878298,86.8570219 L242.878298,88.5743311 L245.074823,88.5743311 L245.074823,108.166168 C245.074823,108.166168 247.319624,108.33548 247.319624,108.166168 C247.319624,108.021043 247.319624,96.8706274 247.319624,96.8706274 L248.550644,96.8706274 L248.550644,95.9031293 L248.792021,95.9031293 L248.792021,95.3226304 L249.129948,95.3226304 L249.129948,94.8630688 L250.360968,94.8630688 L250.360968,95.3951927 L250.771307,95.3951927 L250.771307,96.0240665 L251.109234,96.0240665 L251.109234,93.9923205 L253.909201,93.9923205 L253.909201,109.727385 L254.416092,109.727385 L254.416092,100.256871 L256.781581,100.256871 L256.781581,87.4375208 L259.074657,87.4375208 L259.074657,82.8902797 L260.064301,82.8902797 L260.064301,80.8827211 L262.502203,80.8827211 L262.502203,82.8660922 L263.178057,82.8660922 L263.178057,83.5433409 L263.902186,83.5433409 L263.902186,86.808647 L264.747004,86.808647 L264.747004,88.356644 L268.729715,88.356644 L268.729715,90.5093273 L269.671083,90.5093273 L269.671083,96.8222525 L270.443488,96.8222525 L270.443488,97.9832502 L271.408993,97.9832502 L271.408993,99.0857631 L271.867609,99.0857631 L271.867609,94.7905064 L275.2,94.7905064 Z"/><path id="Combined-Shape" fill="#7D7D7D" d="M348.441655,111.990204 L348.441655,105.377959 L353.930956,105.377959 L353.930956,113.603719 L356.835615,113.603719 L356.835615,113.457551 L357.788302,113.457551 L357.788302,113.312653 L359.308919,113.312653 L359.308919,111.995873 L359.716976,111.995873 L359.716976,110.961633 L365.671897,110.961633 L365.671897,104.05551 L383.623395,104.05551 L383.623395,108.757551 L385.531526,108.757551 L385.531526,108.90449 L389.240514,108.90449 L389.240514,105.377959 L390.872468,105.377959 L390.872468,103.614694 L403.631384,103.614694 L403.631384,104.349388 L404.245364,104.349388 L404.245364,102.88 L409.586305,102.88 L409.586305,104.349388 L411.663338,104.349388 L411.663338,113.018776 L417.746077,113.018776 L417.746077,115.309205 L421.846489,115.309205 L421.846489,118.161633 L423.828816,118.161633 L423.828816,115.957551 L427.389444,115.957551 L427.389444,118.161633 L430.016315,118.161633 L430.016315,111.703538 L430.187732,111.703538 L430.187732,105.818776 L435.231954,105.818776 L435.231954,103.320816 L437.754066,103.320816 L437.754066,105.818776 L442.798288,105.818776 L442.798288,111.990204 L446.952354,111.990204 L446.952354,115.810612 L448.347862,115.810612 L448.347862,115.503901 L451.112143,115.503901 L451.112143,113.603719 L454.435615,113.603719 L454.435615,113.457551 L456.908919,113.457551 L456.908919,111.995873 L463.271897,111.995873 L463.271897,104.05551 L481.223395,104.05551 L481.223395,108.90449 L490.807732,108.90449 L490.807732,107.903175 L492.553594,107.903175 L492.553594,106.88 L495.317875,106.88 L495.317875,108.049342 L496.918248,108.049342 L496.918248,113.018776 L499.471612,113.018776 L499.471612,104.349388 L501.845364,104.349388 L501.845364,102.88 L507.186305,102.88 L507.186305,104.349388 L509.263338,104.349388 L509.263338,109.03102 L509.762054,109.03102 L509.762054,113.018776 L515.346077,113.018776 L515.346077,113.839184 L525.611412,113.839184 L525.611412,115.863673 L527.273039,115.863673 L527.273039,119.659592 L527.616315,119.659592 L527.616315,111.703538 L534.308784,111.703538 L534.308784,111.941224 L536.987161,111.941224 L536.987161,119.659592 L540.182596,119.659592 L540.182596,109.03102 L541.588588,109.03102 L541.588588,107.512653 L552.580884,107.512653 L552.580884,109.03102 L553.986876,109.03102 L553.986876,113.206531 L557.693581,113.206531 L557.693581,113.603719 L560.787686,113.603719 L560.787686,115.503901 L563.406478,115.503901 L563.406478,117.508571 L564.723538,117.508571 L564.723538,120.039184 L575.4602,120.039184 L575.4602,109.410612 L579.805991,109.410612 L579.805991,107.259592 L581.978887,107.259592 L581.978887,109.410612 L586.324679,109.410612 L586.324679,114.724898 L589.903566,114.724898 L589.903566,118.014694 L602.63281,118.014694 L602.63281,109.03102 L603.963481,109.03102 L603.963481,107.892245 L619.429387,107.892245 L619.429387,112.067755 L630.038231,112.067755 L630.038231,115.610612 L631.263909,115.610612 L631.263909,111.941224 L634.587161,111.941224 L634.587161,115.610612 L635.150927,115.610612 L635.150927,108.145306 L637.196006,108.145306 L637.196006,106.88 L641.797432,106.88 L641.797432,107.512653 L650.180884,107.512653 L650.180884,109.03102 L651.586876,109.03102 L651.586876,113.206531 L655.293581,113.206531 L655.293581,117.508571 L662.323538,117.508571 L662.323538,120.039184 L673.0602,120.039184 L673.0602,109.410612 L677.405991,109.410612 L677.405991,107.259592 L679.578887,107.259592 L679.578887,109.410612 L683.924679,109.410612 L683.924679,113.603719 L693.687857,113.603719 L693.687857,115.503901 L696.452138,115.503901 L696.452138,118.014694 L699.716486,118.014694 L699.716486,117.213857 L701.563481,117.213857 L701.563481,107.892245 L717.029387,107.892245 L717.029387,112.067755 L718.193522,112.067755 L718.193522,111.329424 L720.812314,111.329424 L720.812314,108.938873 L732.750927,108.938873 L732.750927,108.145306 L734.796006,108.145306 L734.796006,106.88 L739.397432,106.88 L739.397432,108.145306 L741.186876,108.145306 L741.186876,115.610612 L745.481752,115.610612 L745.481752,108.049342 L747.082125,108.049342 L747.082125,106.88 L747.291216,106.88 L747.291216,106.548322 L753.983685,106.548322 L753.983685,118.141224 L754.735521,118.141224 L754.735521,122.949388 L757.266318,122.949388 L757.266318,120.765942 L758.116486,120.765942 L758.116486,120.181271 L759.803224,120.181271 L759.803224,116.294414 L770.796746,116.294414 L770.796746,113.896055 L772.688096,113.896055 L772.688096,111.995873 L773.042675,111.995873 L773.042675,109.858315 L778.862214,109.858315 L778.862214,111.995873 L785.491081,111.995873 L785.491081,113.457551 L787.964385,113.457551 L787.964385,113.603719 L791.287857,113.603719 L791.287857,115.503901 L794.052138,115.503901 L794.052138,118.86576 L796.466318,118.86576 L796.466318,117.949411 L797.316486,117.949411 L797.316486,117.213857 L805.691216,117.213857 L805.691216,111.703538 L808.390858,111.703538 L808.390858,111.084484 L809.996746,111.084484 L809.996746,109.30665 L811.888096,109.30665 L811.888096,106.916099 L824.691081,106.916099 L824.691081,108.754984 L827.164385,108.754984 L827.164385,108.938873 L830.487857,108.938873 L830.487857,111.329424 L833.252138,111.329424 L833.252138,114.334558 L837.262214,114.334558 L837.262214,115.55886 L840.549324,115.55886 L840.549324,114.455529 L843.081752,114.455529 L843.081752,108.049342 L844.682125,108.049342 L844.682125,106.88 L844.891216,106.88 L844.891216,106.548322 L851.583685,106.548322 L851.583685,106.916099 L860.911904,106.916099 L860.911904,109.30665 L862.803254,109.30665 L862.803254,111.084484 L864.409142,111.084484 L864.409142,116.294414 L868.396746,116.294414 L868.396746,113.896055 L870.288096,113.896055 L870.288096,111.995873 L870.642675,111.995873 L870.642675,109.858315 L876.462214,109.858315 L876.462214,111.995873 L883.091081,111.995873 L883.091081,113.457551 L885.564385,113.457551 L887.308919,113.457551 L887.308919,111.995873 L900.111904,111.995873 L900.111904,113.896055 L902.003254,113.896055 L902.003254,116.294414 L905.990858,116.294414 L905.990858,111.084484 L907.596746,111.084484 L907.596746,109.30665 L909.488096,109.30665 L909.488096,106.916099 L918.816315,106.916099 L918.816315,106.548322 L925.508784,106.548322 L925.508784,106.88 L925.717875,106.88 L925.717875,108.049342 L927.318248,108.049342 L927.318248,114.455529 L929.850676,114.455529 L929.850676,115.55886 L933.137786,115.55886 L933.137786,114.334558 L937.147862,114.334558 L937.147862,111.329424 L939.912143,111.329424 L939.912143,108.938873 L943.235615,108.938873 L943.235615,108.754984 L945.708919,108.754984 L945.708919,106.916099 L958.511904,106.916099 L958.511904,109.30665 L960.403254,109.30665 L960.403254,111.084484 L962.009142,111.084484 L962.009142,111.703538 L964.708784,111.703538 L964.708784,117.213857 L973.083514,117.213857 L973.083514,117.949411 L973.933682,117.949411 L973.933682,118.86576 L976.347862,118.86576 L976.347862,115.503901 L979.112143,115.503901 L979.112143,113.603719 L982.435615,113.603719 L982.435615,113.457551 L984.908919,113.457551 L984.908919,111.995873 L991.537786,111.995873 L991.537786,109.858315 L997.357325,109.858315 L997.357325,111.995873 L997.711904,111.995873 L997.711904,113.896055 L999.603254,113.896055 L999.603254,116.294414 L1010.59678,116.294414 L1010.59678,120.181271 L1012.28351,120.181271 L1012.28351,120.765942 L1013.13368,120.765942 L1013.13368,123.09829 L1016.41631,123.09829 L1016.41631,106.548322 L1023.10878,106.548322 L1023.10878,106.88 L1023.31787,106.88 L1023.31787,108.049342 L1024.91825,108.049342 L1024.91825,119.604408 L1027.76442,119.604408 L1027.76442,122.519956 L1030.73779,122.519956 L1030.73779,114.334558 L1034.74786,114.334558 L1034.74786,111.329424 L1037.51214,111.329424 L1037.51214,108.938873 L1049.58769,108.938873 L1049.58769,111.329424 L1052.20648,111.329424 L1052.20648,121.259404 L1054.53429,121.259404 L1054.53429,124.201621 L1055.61631,124.201621 L1055.61631,111.703538 L1062.30878,111.703538 L1062.30878,117.213857 L1070.68351,117.213857 L1070.68351,121.075516 L1073.94786,121.075516 L1073.94786,115.503901 L1076.71214,115.503901 L1076.71214,113.603719 L1088.78769,113.603719 L1088.78769,115.503901 L1091.40648,115.503901 L1091.40648,123.282178 L1092.3613,123.282178 L1092.3613,123.396963 L1093.73429,123.396963 L1093.73429,125.735647 L1096.64406,125.735647 L1096.64406,120.181271 L1109.88351,120.181271 L1109.88351,123.250795 L1121.3771,123.250795 L1121.3771,127.197326 L1127.7786,127.197326 L1127.7786,125.004808 L1131.5613,125.004808 L1131.5613,127.197326 L1136.36242,127.197326 L1136.36242,129.828346 L1141.6,129.828346 L1141.6,131.68 L1138.78771,131.68 L975.2,131.68 L936,131.68 L765.6,131.68 L586.4,131.68 L404,131.68 L307.2,131.68 L304.387708,131.68 L97.6,131.68 L0,131.68 L0,127.781997 L7.5654004,127.781997 L7.5654004,124.663945 L13.1908575,124.663945 L13.1908575,115.309205 L17.8464886,115.309205 L17.8464886,124.663945 L23.0837825,124.663945 L23.0837825,120.181271 L24.1295536,120.181271 L24.1295536,119.102552 L30.7783766,119.102552 L30.7783766,120.181271 L31.6676022,120.181271 L31.6676022,124.566305 L33.7044407,124.566305 L33.7044407,117.988754 L37.0506755,117.988754 L37.0506755,124.858641 L38.0690948,124.858641 L38.0690948,122.666123 L41.1243527,122.666123 L41.1243527,118.86576 L45.6344952,118.86576 L45.6344952,124.127802 L50.4356147,124.127802 L50.4356147,113.457551 L52.9089187,113.457551 L52.9089187,111.995873 L65.711904,111.995873 L65.711904,113.896055 L67.6032541,113.896055 L67.6032541,124.712473 L70.2220465,124.712473 L70.2220465,122.081452 L72.6953505,122.081452 L72.6953505,124.712473 L75.3141429,124.712473 L75.3141429,120.765942 L81.1336817,120.765942 L81.1336817,126.027983 L86.807732,126.027983 L86.807732,107.903175 L88.5535936,107.903175 L88.5535936,106.88 L91.3178745,106.88 L91.3178745,108.049342 L92.9182477,108.049342 L92.9182477,122.519956 L98.7377865,122.519956 L98.7377865,114.334558 L104.557325,114.334558 L104.557325,119.450432 L110.790858,119.450432 L110.790858,115.309205 L115.446489,115.309205 L115.446489,119.450432 L117.796776,119.450432 L117.796776,124.663945 L120.683782,124.663945 L120.683782,120.181271 L121.729554,120.181271 L121.729554,119.102552 L123.616315,119.102552 L123.616315,111.703538 L130.308784,111.703538 L130.308784,122.081452 L131.304441,122.081452 L131.304441,117.988754 L134.650676,117.988754 L134.650676,120.181271 L135.329554,120.181271 L135.329554,119.102552 L138.724353,119.102552 L138.724353,118.86576 L141.947862,118.86576 L141.947862,115.503901 L144.712143,115.503901 L144.712143,113.603719 L148.035615,113.603719 L148.035615,113.457551 L150.508919,113.457551 L150.508919,111.995873 L163.311904,111.995873 L163.311904,113.457551 L164.108919,113.457551 L164.108919,111.995873 L176.911904,111.995873 L176.911904,113.896055 L178.803254,113.896055 L178.803254,123.250795 L181.422047,123.250795 L181.422047,122.081452 L183.89535,122.081452 L183.89535,123.250795 L184.407732,123.250795 L184.407732,107.903175 L186.153594,107.903175 L186.153594,106.88 L188.917875,106.88 L188.917875,108.049342 L190.518248,108.049342 L190.518248,120.765942 L192.333682,120.765942 L192.333682,122.519956 L196.337786,122.519956 L196.337786,114.334558 L198.007732,114.334558 L198.007732,107.903175 L199.753594,107.903175 L199.753594,106.88 L202.517875,106.88 L202.517875,108.049342 L204.118248,108.049342 L204.118248,119.450432 L209.937786,119.450432 L209.937786,114.334558 L215.757325,114.334558 L215.757325,119.450432 L221.216315,119.450432 L221.216315,111.703538 L227.908784,111.703538 L227.908784,119.450432 L228.996776,119.450432 L228.996776,122.081452 L231.883782,122.081452 L231.883782,120.181271 L232.929554,120.181271 L232.929554,119.102552 L234.816315,119.102552 L234.816315,111.703538 L241.508784,111.703538 L241.508784,115.503901 L242.312143,115.503901 L242.312143,113.603719 L250.841655,113.603719 L250.841655,105.377959 L256.330956,105.377959 L256.330956,113.603719 L259.235615,113.603719 L259.235615,113.457551 L260.188302,113.457551 L260.188302,113.312653 L261.708919,113.312653 L261.708919,111.995873 L262.116976,111.995873 L262.116976,110.961633 L274.727532,110.961633 L274.727532,113.312653 L276.656205,113.312653 L276.656205,117.720816 L284.07418,117.720816 L284.07418,108.757551 L287.931526,108.757551 L287.931526,117.720816 L291.640514,117.720816 L291.640514,105.377959 L293.272468,105.377959 L293.272468,103.614694 L306.031384,103.614694 L306.031384,105.377959 L307.663338,105.377959 L307.663338,110.226939 L311.965763,110.226939 L311.965763,114.334558 L313.357325,114.334558 L313.357325,115.222857 L320.125535,115.222857 L320.125535,115.309205 L324.246489,115.309205 L324.246489,118.161633 L332.416315,118.161633 L332.416315,111.703538 L332.587732,111.703538 L332.587732,105.818776 L337.631954,105.818776 L337.631954,103.320816 L340.154066,103.320816 L340.154066,105.818776 L345.198288,105.818776 L345.198288,111.990204 L348.441655,111.990204 Z"/><path id="Combined-Shape-Copy-3" fill="#7D7D7D" d="M607.662197,122.081452 L607.662197,117.720816 L614.041655,117.720816 L614.041655,105.377959 L619.530956,105.377959 L619.530956,113.603719 L623.388302,113.603719 L623.388302,113.312653 L625.316976,113.312653 L625.316976,110.961633 L637.927532,110.961633 L637.927532,113.312653 L639.856205,113.312653 L639.856205,117.720816 L647.27418,117.720816 L647.27418,108.757551 L651.131526,108.757551 L651.131526,117.720816 L654.840514,117.720816 L654.840514,105.377959 L656.472468,105.377959 L656.472468,103.614694 L669.231384,103.614694 L669.231384,105.377959 L670.863338,105.377959 L670.863338,110.226939 L675.165763,110.226939 L675.165763,115.222857 L683.325535,115.222857 L683.325535,115.309205 L687.446489,115.309205 L687.446489,118.161633 L695.787732,118.161633 L695.787732,105.818776 L700.831954,105.818776 L700.831954,103.320816 L703.354066,103.320816 L703.354066,105.818776 L708.398288,105.818776 L708.398288,111.990204 L712.552354,111.990204 L712.552354,115.810612 L720.035615,115.810612 L720.035615,113.457551 L722.508919,113.457551 L722.508919,111.995873 L728.871897,111.995873 L728.871897,104.05551 L746.823395,104.05551 L746.823395,108.90449 L756.407732,108.90449 L756.407732,107.903175 L758.153594,107.903175 L758.153594,106.88 L760.917875,106.88 L760.917875,108.049342 L762.518248,108.049342 L762.518248,113.018776 L765.071612,113.018776 L765.071612,104.349388 L767.445364,104.349388 L767.445364,102.88 L772.786305,102.88 L772.786305,104.349388 L774.863338,104.349388 L774.863338,113.018776 L780.946077,113.018776 L780.946077,118.308571 L787.028816,118.308571 L787.028816,115.957551 L790.589444,115.957551 L790.589444,121.541224 L793.216315,121.541224 L793.216315,111.703538 L799.908784,111.703538 L799.908784,122.081452 L804.564415,122.081452 L804.564415,125.150976 L809.220046,125.150976 L809.220046,122.519956 L811.547862,122.519956 L811.547862,115.503901 L814.312143,115.503901 L814.312143,113.603719 L826.387686,113.603719 L826.387686,115.503901 L829.006478,115.503901 L829.006478,123.396963 L831.334294,123.396963 L831.334294,125.735647 L834.244063,125.735647 L834.244063,120.181271 L847.483514,120.181271 L847.483514,123.250795 L858.977103,123.250795 L858.977103,127.197326 L862.736662,127.197326 L862.736662,119.659592 L868.23281,119.659592 L868.23281,109.03102 L872.962054,109.03102 L872.962054,119.659592 L876.285307,119.659592 L876.285307,115.863673 L877.946933,115.863673 L877.946933,113.839184 L888.811412,113.839184 L888.811412,115.863673 L890.473039,115.863673 L890.473039,119.659592 L896.863909,119.659592 L896.863909,111.941224 L900.187161,111.941224 L900.187161,119.659592 L903.382596,119.659592 L903.382596,109.03102 L904.788588,109.03102 L904.788588,107.512653 L915.780884,107.512653 L915.780884,109.03102 L917.186876,109.03102 L917.186876,113.206531 L920.893581,113.206531 L920.893581,117.508571 L927.923538,117.508571 L927.923538,120.039184 L938.6602,120.039184 L938.6602,109.410612 L943.005991,109.410612 L943.005991,107.259592 L945.178887,107.259592 L945.178887,109.410612 L949.524679,109.410612 L949.524679,114.724898 L953.103566,114.724898 L953.103566,118.014694 L967.163481,118.014694 L967.163481,107.892245 L982.629387,107.892245 L982.629387,112.067755 L993.238231,112.067755 L993.238231,115.610612 L998.350927,115.610612 L998.350927,108.145306 L1000.39601,108.145306 L1000.39601,106.88 L1004.99743,106.88 L1004.99743,108.145306 L1006.78688,108.145306 L1006.78688,115.610612 L1012.02739,115.610612 L1012.02739,120.165714 L1017.2679,120.165714 L1017.2679,118.141224 L1020.33552,118.141224 L1020.33552,122.949388 L1023.71649,122.949388 L1023.71649,120.181271 L1036.95594,120.181271 L1036.95594,125.735647 L1039.86571,125.735647 L1039.86571,123.396963 L1041.2387,123.396963 L1041.2387,123.282178 L1042.19352,123.282178 L1042.19352,115.503901 L1044.81231,115.503901 L1044.81231,113.603719 L1056.88786,113.603719 L1056.88786,115.503901 L1059.65214,115.503901 L1059.65214,121.075516 L1062.91649,121.075516 L1062.91649,117.213857 L1071.29122,117.213857 L1071.29122,111.703538 L1077.98369,111.703538 L1077.98369,124.201621 L1079.06571,124.201621 L1079.06571,121.259404 L1081.39352,121.259404 L1083.80322,121.107119 L1083.80322,119.450432 L1097.04267,119.450432 L1097.04267,114.334558 L1102.86221,114.334558 L1102.86221,122.519956 L1105.83558,122.519956 L1105.83558,119.604408 L1110.49122,119.604408 L1117.18369,123.09829 L1120.46632,123.09829 L1120.46632,120.765942 L1123.00322,120.765942 L1123.00322,116.294414 L1133.99675,116.294414 L1133.99675,113.896055 L1135.8881,113.896055 L1135.8881,111.995873 L1140.97812,111.995873 L1152.24641,101.76722 L1153.99227,101.76722 L1153.99227,124.127802 L1155.9655,124.127802 L1155.9655,118.86576 L1159.66632,118.86576 L1159.66632,117.949411 L1165.48586,117.949411 L1165.48586,117.988754 L1167.89556,117.988754 L1167.89556,122.914401 L1168.10465,122.914401 L1168.10465,119.604408 L1170.57795,119.604408 L1170.57795,120.181271 L1170.82162,120.181271 L1170.82162,119.102552 L1173.19675,119.102552 L1173.19675,109.30665 L1175.0881,109.30665 L1175.0881,106.916099 L1187.89108,106.916099 L1187.89108,108.754984 L1190.36439,108.754984 L1190.36439,122.178847 L1195.1655,122.178847 L1195.1655,115.55886 L1199.67565,115.55886 L1199.67565,120.339962 L1202.73091,120.339962 L1202.73091,123.09829 L1203.74932,123.09829 L1203.74932,114.455529 L1207.09556,114.455529 L1207.09556,122.730513 L1209.1324,122.730513 L1209.1324,117.213857 L1210.02162,117.213857 L1210.02162,115.856759 L1210.79086,115.856759 L1210.79086,115.309205 L1215.44649,115.309205 L1215.44649,115.856759 L1216.67045,115.856759 L1216.67045,117.213857 L1217.71622,117.213857 L1217.71622,122.85335 L1220.68378,122.85335 L1220.68378,120.181271 L1221.72955,120.181271 L1221.72955,119.102552 L1222.95351,119.102552 L1222.95351,111.084484 L1227.60914,111.084484 L1227.60914,119.102552 L1228.37838,119.102552 L1228.37838,120.181271 L1229.2676,120.181271 L1229.2676,122.85335 L1231.30444,122.85335 L1231.30444,117.988754 L1234.65068,117.988754 L1234.65068,124.858641 L1235.66909,124.858641 L1235.66909,122.666123 L1238.72435,122.666123 L1238.72435,118.86576 L1243.2345,118.86576 L1243.2345,124.127802 L1248.03561,124.127802 L1248.03561,113.457551 L1265.20325,124.712473 L1267.82205,124.712473 L1267.82205,122.081452 L1270.29535,122.081452 L1270.29535,124.712473 L1272.91414,124.712473 L1272.91414,120.765942 L1278.73368,120.765942 L1278.73368,126.027983 L1284.40773,126.027983 L1290.51825,122.519956 L1296.33779,122.519956 L1302.15733,119.450432 L1315.39678,119.450432 L1315.39678,124.858641 L1321.21631,124.858641 L1321.21631,111.703538 L1327.90878,111.703538 L1327.90878,122.081452 L1332.56442,122.081452 L1332.56442,125.150976 L1337.22005,125.150976 L1337.22005,122.519956 L1339.54786,122.519956 L1357.00648,121.796963 L1359.33429,123.396963 L1359.33429,125.735647 L1362.24406,125.735647 L1362.24406,120.181271 L1375.48351,120.181271 L1375.48351,123.250795 L1386.9771,123.250795 L1386.9771,127.197326 L1393.3786,127.197326 L1393.3786,125.004808 L1397.1613,125.004808 L1397.1613,127.197326 L1401.96242,127.197326 L1401.96242,129.828346 L1407.2,129.828346 L1407.2,131.68 L1404.38771,131.68 L1240.8,131.68 L1201.6,131.68 L1031.2,131.68 L852,131.68 L669.6,131.68 L572.8,131.68 L569.987708,131.68 L363.2,131.68 L363.2,127.781997 L370.7654,127.781997 L370.7654,124.663945 L376.390858,124.663945 L376.390858,115.309205 L381.046489,115.309205 L381.046489,124.663945 L386.283782,124.663945 L386.283782,120.181271 L387.329554,120.181271 L387.329554,119.102552 L393.978377,119.102552 L393.978377,120.181271 L394.867602,120.181271 L394.867602,124.566305 L396.904441,124.566305 L396.904441,117.988754 L400.250676,117.988754 L400.250676,124.858641 L401.269095,124.858641 L401.269095,122.666123 L404.324353,122.666123 L404.324353,118.86576 L408.834495,118.86576 L408.834495,124.127802 L413.635615,124.127802 L413.635615,113.457551 L416.108919,113.457551 L416.108919,111.995873 L428.911904,111.995873 L428.911904,113.896055 L430.803254,113.896055 L430.803254,124.712473 L433.422047,124.712473 L433.422047,122.081452 L435.89535,122.081452 L435.89535,124.712473 L438.514143,124.712473 L438.514143,120.765942 L444.333682,120.765942 L444.333682,126.027983 L450.007732,126.027983 L450.007732,107.903175 L451.753594,107.903175 L451.753594,106.88 L454.517875,106.88 L454.517875,108.049342 L456.118248,108.049342 L456.118248,122.519956 L461.937786,122.519956 L461.937786,114.334558 L467.757325,114.334558 L467.757325,119.450432 L480.996776,119.450432 L480.996776,124.858641 L481.9654,124.858641 L481.9654,124.663945 L486.816315,124.663945 L486.816315,111.703538 L493.508784,111.703538 L493.508784,122.081452 L497.483782,122.081452 L497.483782,120.181271 L498.529554,120.181271 L498.529554,119.102552 L505.147862,119.102552 L505.147862,115.503901 L507.912143,115.503901 L507.912143,113.603719 L519.987686,113.603719 L519.987686,115.503901 L522.606478,115.503901 L522.606478,123.396963 L524.835615,123.396963 L524.835615,113.457551 L527.308919,113.457551 L527.308919,111.995873 L540.111904,111.995873 L540.111904,113.896055 L542.003254,113.896055 L542.003254,123.250795 L544.622047,123.250795 L544.622047,122.081452 L547.09535,122.081452 L547.09535,123.250795 L549.714143,123.250795 L549.714143,120.765942 L555.533682,120.765942 L555.533682,126.027983 L558.978595,126.027983 L558.978595,125.004808 L561.207732,125.004808 L561.207732,107.903175 L562.953594,107.903175 L562.953594,106.88 L565.717875,106.88 L565.717875,108.049342 L567.318248,108.049342 L567.318248,122.519956 L573.137786,122.519956 L573.137786,114.334558 L578.957325,114.334558 L578.957325,119.450432 L592.196776,119.450432 L592.196776,124.858641 L598.016315,124.858641 L598.016315,111.703538 L604.708784,111.703538 L604.708784,122.081452 L607.662197,122.081452 Z"/></g></g></g></g><g id="titlearea" fill-rule="nonzero" transform="translate(463.000000, 8.000000)"><path id="OurReportingInYourInbox" fill="#000" d="M21.6182584,58.6255618 C21.6182584,59.0005637 21.662008,59.3651434 21.7495084,59.7193118 C21.8370089,60.0734802 21.9765908,60.392227 22.1682584,60.6755618 C22.3599261,60.9588965 22.6099236,61.1859776 22.9182584,61.3568118 C23.2265933,61.527646 23.6015896,61.6130618 24.0432584,61.6130618 C24.4849273,61.6130618 24.8599236,61.527646 25.1682584,61.3568118 C25.4765933,61.1859776 25.7265908,60.9588965 25.9182584,60.6755618 C26.1099261,60.392227 26.249508,60.0734802 26.3370084,59.7193118 C26.4245089,59.3651434 26.4682584,59.0005637 26.4682584,58.6255618 C26.4682584,58.2338932 26.4245089,57.8547303 26.3370084,57.4880618 C26.249508,57.1213933 26.1099261,56.7943132 25.9182584,56.5068118 C25.7265908,56.2193104 25.4765933,55.990146 25.1682584,55.8193118 C24.8599236,55.6484776 24.4849273,55.5630618 24.0432584,55.5630618 C23.6015896,55.5630618 23.2265933,55.6484776 22.9182584,55.8193118 C22.6099236,55.990146 22.3599261,56.2193104 22.1682584,56.5068118 C21.9765908,56.7943132 21.8370089,57.1213933 21.7495084,57.4880618 C21.662008,57.8547303 21.6182584,58.2338932 21.6182584,58.6255618 Z M19.6557584,58.6255618 C19.6557584,57.9588918 19.7557574,57.340148 19.9557584,56.7693118 C20.1557594,56.1984756 20.4432566,55.7005639 20.8182584,55.2755618 C21.1932603,54.8505597 21.6536724,54.5172297 22.1995084,54.2755618 C22.7453445,54.0338939 23.3599217,53.9130618 24.0432584,53.9130618 C24.7349286,53.9130618 25.3515891,54.0338939 25.8932584,54.2755618 C26.4349278,54.5172297 26.8932566,54.8505597 27.2682584,55.2755618 C27.6432603,55.7005639 27.9307574,56.1984756 28.1307584,56.7693118 C28.3307594,57.340148 28.4307584,57.9588918 28.4307584,58.6255618 C28.4307584,59.275565 28.3307594,59.881809 28.1307584,60.4443118 C27.9307574,61.0068146 27.6432603,61.496393 27.2682584,61.9130618 C26.8932566,62.3297305 26.4349278,62.6568106 25.8932584,62.8943118 C25.3515891,63.131813 24.7349286,63.2505618 24.0432584,63.2505618 C23.3599217,63.2505618 22.7453445,63.131813 22.1995084,62.8943118 C21.6536724,62.6568106 21.1932603,62.3297305 20.8182584,61.9130618 C20.4432566,61.496393 20.1557594,61.0068146 19.9557584,60.4443118 C19.7557574,59.881809 19.6557584,59.275565 19.6557584,58.6255618 Z M35.6432584,63.0505618 L33.9557584,63.0505618 L33.9557584,62.1505618 L33.9182584,62.1505618 C33.6932573,62.5255637 33.4015936,62.7963943 33.0432584,62.9630618 C32.6849233,63.1297293 32.3182603,63.2130618 31.9432584,63.2130618 C31.4682561,63.2130618 31.0786766,63.1505624 30.7745084,63.0255618 C30.4703402,62.9005612 30.2307593,62.7234796 30.0557584,62.4943118 C29.8807576,62.265144 29.7578421,61.9859801 29.6870084,61.6568118 C29.6161747,61.3276435 29.5807584,60.9630638 29.5807584,60.5630618 L29.5807584,56.5880618 L31.3557584,56.5880618 L31.3557584,60.2380618 C31.3557584,60.7713978 31.4390909,61.1693105 31.6057584,61.4318118 C31.7724259,61.6943131 32.0682563,61.8255618 32.4932584,61.8255618 C32.9765942,61.8255618 33.3265907,61.6818132 33.5432584,61.3943118 C33.7599262,61.1068104 33.8682584,60.6338984 33.8682584,59.9755618 L33.8682584,56.5880618 L35.6432584,56.5880618 L35.6432584,63.0505618 Z M36.9932584,56.5880618 L38.6807584,56.5880618 L38.6807584,57.7880618 L38.7057584,57.7880618 C38.7890922,57.5880608 38.9015911,57.402646 39.0432584,57.2318118 C39.1849258,57.0609776 39.3474242,56.9151457 39.5307584,56.7943118 C39.7140927,56.6734779 39.9099241,56.5797288 40.1182584,56.5130618 C40.3265928,56.4463948 40.5432573,56.4130618 40.7682584,56.4130618 C40.8849257,56.4130618 41.0140911,56.4338949 41.1557584,56.4755618 L41.1557584,58.1255618 C41.0724247,58.108895 40.9724257,58.0943119 40.8557584,58.0818118 C40.7390912,58.0693117 40.6265923,58.0630618 40.5182584,58.0630618 C40.1932568,58.0630618 39.9182596,58.1172279 39.6932584,58.2255618 C39.4682573,58.3338957 39.2870091,58.4818109 39.1495084,58.6693118 C39.0120077,58.8568127 38.9140921,59.0755605 38.8557584,59.3255618 C38.7974248,59.575563 38.7682584,59.8463937 38.7682584,60.1380618 L38.7682584,63.0505618 L36.9932584,63.0505618 L36.9932584,56.5880618 Z M47.4807584,58.1630618 L49.6307584,58.1630618 C50.0807607,58.1630618 50.4182573,58.0630628 50.6432584,57.8630618 C50.8682596,57.6630608 50.9807584,57.338064 50.9807584,56.8880618 C50.9807584,56.4547263 50.8682596,56.1401461 50.6432584,55.9443118 C50.4182573,55.7484775 50.0807607,55.6505618 49.6307584,55.6505618 L47.4807584,55.6505618 L47.4807584,58.1630618 Z M45.5182584,54.1255618 L50.3307584,54.1255618 C50.7307604,54.1255618 51.0911735,54.1901445 51.4120084,54.3193118 C51.7328434,54.4484791 52.0078406,54.6255607 52.2370084,54.8505618 C52.4661762,55.0755629 52.6411745,55.335977 52.7620084,55.6318118 C52.8828424,55.9276466 52.9432584,56.2463934 52.9432584,56.5880618 C52.9432584,57.1130644 52.8328429,57.5672265 52.6120084,57.9505618 C52.391174,58.333897 52.0307609,58.6255608 51.5307584,58.8255618 L51.5307584,58.8505618 C51.7724263,58.9172288 51.9724243,59.0193111 52.1307584,59.1568118 C52.2890926,59.2943125 52.4182579,59.4568109 52.5182584,59.6443118 C52.6182589,59.8318127 52.6911749,60.0380607 52.7370084,60.2630618 C52.782842,60.4880629 52.8140917,60.7130607 52.8307584,60.9380618 C52.8390918,61.0797292 52.8474251,61.2463942 52.8557584,61.4380618 C52.8640918,61.6297294 52.878675,61.8255608 52.8995084,62.0255618 C52.9203419,62.2255628 52.9536749,62.4151442 52.9995084,62.5943118 C53.045342,62.7734794 53.1140913,62.9255612 53.2057584,63.0505618 L51.2432584,63.0505618 C51.1349246,62.767227 51.0682586,62.4297304 51.0432584,62.0380618 C51.0182583,61.6463932 50.9807587,61.2713969 50.9307584,60.9130618 C50.8640914,60.4463928 50.7224262,60.1047295 50.5057584,59.8880618 C50.2890907,59.671394 49.9349276,59.5630618 49.4432584,59.5630618 L47.4807584,59.5630618 L47.4807584,63.0505618 L45.5182584,63.0505618 L45.5182584,54.1255618 Z M58.7057584,59.1255618 C58.6224247,58.6755595 58.4745095,58.3338963 58.2620084,58.1005618 C58.0495074,57.8672273 57.7265939,57.7505618 57.2932584,57.7505618 C57.0099237,57.7505618 56.7745094,57.798478 56.5870084,57.8943118 C56.3995075,57.9901456 56.249509,58.1088944 56.1370084,58.2505618 C56.0245079,58.3922292 55.945342,58.5422277 55.8995084,58.7005618 C55.8536749,58.8588959 55.8265918,59.0005612 55.8182584,59.1255618 L58.7057584,59.1255618 Z M55.8182584,60.2505618 C55.8432586,60.8255647 55.9890904,61.2422272 56.2557584,61.5005618 C56.5224264,61.7588964 56.9057559,61.8880618 57.4057584,61.8880618 C57.7640936,61.8880618 58.0724238,61.7984794 58.3307584,61.6193118 C58.5890931,61.4401442 58.7474248,61.2505628 58.8057584,61.0505618 L60.3682584,61.0505618 C60.1182572,61.8255657 59.7349277,62.3797268 59.2182584,62.7130618 C58.7015892,63.0463968 58.0765954,63.2130618 57.3432584,63.2130618 C56.8349226,63.2130618 56.3765938,63.1318126 55.9682584,62.9693118 C55.5599231,62.806811 55.2140932,62.5755633 54.9307584,62.2755618 C54.6474237,61.9755603 54.4286759,61.6172305 54.2745084,61.2005618 C54.120341,60.783893 54.0432584,60.3255643 54.0432584,59.8255618 C54.0432584,59.342226 54.1224243,58.8922305 54.2807584,58.4755618 C54.4390926,58.058893 54.6640903,57.69848 54.9557584,57.3943118 C55.2474266,57.0901436 55.5953397,56.8505627 55.9995084,56.6755618 C56.4036771,56.5005609 56.8515893,56.4130618 57.3432584,56.4130618 C57.8932612,56.4130618 58.3724231,56.5193107 58.7807584,56.7318118 C59.1890938,56.9443129 59.5245071,57.2297267 59.7870084,57.5880618 C60.0495097,57.9463969 60.2390912,58.3547262 60.3557584,58.8130618 C60.4724257,59.2713974 60.5140919,59.7505593 60.4807584,60.2505618 L55.8182584,60.2505618 Z M64.7932584,61.8880618 C65.0849266,61.8880618 65.3286741,61.829729 65.5245084,61.7130618 C65.7203427,61.5963945 65.8786745,61.4443127 65.9995084,61.2568118 C66.1203424,61.0693109 66.2057582,60.850563 66.2557584,60.6005618 C66.3057587,60.3505605 66.3307584,60.0963964 66.3307584,59.8380618 C66.3307584,59.5797272 66.3036754,59.325563 66.2495084,59.0755618 C66.1953415,58.8255605 66.1057591,58.6026461 65.9807584,58.4068118 C65.8557578,58.2109775 65.6953427,58.0526457 65.4995084,57.9318118 C65.3036741,57.8109779 65.0640932,57.7505618 64.7807584,57.7505618 C64.4890903,57.7505618 64.2453427,57.8109779 64.0495084,57.9318118 C63.8536741,58.0526457 63.6953424,58.2088942 63.5745084,58.4005618 C63.4536745,58.5922294 63.3682587,58.8130605 63.3182584,59.0630618 C63.2682582,59.313063 63.2432584,59.5713938 63.2432584,59.8380618 C63.2432584,60.0963964 63.2703415,60.3505605 63.3245084,60.6005618 C63.3786754,60.850563 63.4661745,61.0693109 63.5870084,61.2568118 C63.7078424,61.4443127 63.8682574,61.5963945 64.0682584,61.7130618 C64.2682594,61.829729 64.5099237,61.8880618 64.7932584,61.8880618 Z M61.5307584,56.5880618 L63.2182584,56.5880618 L63.2182584,57.4130618 L63.2432584,57.4130618 C63.4599262,57.06306 63.7349234,56.8088959 64.0682584,56.6505618 C64.4015934,56.4922277 64.7682564,56.4130618 65.1682584,56.4130618 C65.6765943,56.4130618 66.1140899,56.5088942 66.4807584,56.7005618 C66.8474269,56.8922294 67.1515906,57.1463935 67.3932584,57.4630618 C67.6349263,57.77973 67.8140912,58.1484764 67.9307584,58.5693118 C68.0474257,58.9901472 68.1057584,59.4297262 68.1057584,59.8880618 C68.1057584,60.3213973 68.0474257,60.7380598 67.9307584,61.1380618 C67.8140912,61.5380638 67.6370096,61.8922269 67.3995084,62.2005618 C67.1620072,62.5088967 66.8661769,62.7547275 66.5120084,62.9380618 C66.15784,63.121396 65.7432608,63.2130618 65.2682584,63.2130618 C64.8682564,63.2130618 64.4995101,63.1318126 64.1620084,62.9693118 C63.8245067,62.806811 63.5474262,62.56723 63.3307584,62.2505618 L63.3057584,62.2505618 L63.3057584,65.3130618 L61.5307584,65.3130618 L61.5307584,56.5880618 Z M70.7432584,59.8255618 C70.7432584,60.0838964 70.7682582,60.3359772 70.8182584,60.5818118 C70.8682587,60.8276464 70.9536745,61.0484775 71.0745084,61.2443118 C71.1953424,61.4401461 71.3557574,61.5963945 71.5557584,61.7130618 C71.7557594,61.829729 72.0057569,61.8880618 72.3057584,61.8880618 C72.6057599,61.8880618 72.8578407,61.829729 73.0620084,61.7130618 C73.2661761,61.5963945 73.4286745,61.4401461 73.5495084,61.2443118 C73.6703424,61.0484775 73.7557582,60.8276464 73.8057584,60.5818118 C73.8557587,60.3359772 73.8807584,60.0838964 73.8807584,59.8255618 C73.8807584,59.5672272 73.8557587,59.313063 73.8057584,59.0630618 C73.7557582,58.8130605 73.6703424,58.5922294 73.5495084,58.4005618 C73.4286745,58.2088942 73.2661761,58.0526457 73.0620084,57.9318118 C72.8578407,57.8109779 72.6057599,57.7505618 72.3057584,57.7505618 C72.0057569,57.7505618 71.7557594,57.8109779 71.5557584,57.9318118 C71.3557574,58.0526457 71.1953424,58.2088942 71.0745084,58.4005618 C70.9536745,58.5922294 70.8682587,58.8130605 70.8182584,59.0630618 C70.7682582,59.313063 70.7432584,59.5672272 70.7432584,59.8255618 Z M68.9682584,59.8255618 C68.9682584,59.3088925 69.0474243,58.8401472 69.2057584,58.4193118 C69.3640926,57.9984764 69.5890903,57.6401466 69.8807584,57.3443118 C70.1724266,57.048477 70.5224231,56.8193126 70.9307584,56.6568118 C71.3390938,56.494311 71.7974226,56.4130618 72.3057584,56.4130618 C72.8140943,56.4130618 73.2745064,56.494311 73.6870084,56.6568118 C74.0995105,56.8193126 74.4515903,57.048477 74.7432584,57.3443118 C75.0349266,57.6401466 75.2599243,57.9984764 75.4182584,58.4193118 C75.5765926,58.8401472 75.6557584,59.3088925 75.6557584,59.8255618 C75.6557584,60.342231 75.5765926,60.808893 75.4182584,61.2255618 C75.2599243,61.6422305 75.0349266,61.998477 74.7432584,62.2943118 C74.4515903,62.5901466 74.0995105,62.8172277 73.6870084,62.9755618 C73.2745064,63.1338959 72.8140943,63.2130618 72.3057584,63.2130618 C71.7974226,63.2130618 71.3390938,63.1338959 70.9307584,62.9755618 C70.5224231,62.8172277 70.1724266,62.5901466 69.8807584,62.2943118 C69.5890903,61.998477 69.3640926,61.6422305 69.2057584,61.2255618 C69.0474243,60.808893 68.9682584,60.342231 68.9682584,59.8255618 Z M76.8057584,56.5880618 L78.4932584,56.5880618 L78.4932584,57.7880618 L78.5182584,57.7880618 C78.6015922,57.5880608 78.7140911,57.402646 78.8557584,57.2318118 C78.9974258,57.0609776 79.1599242,56.9151457 79.3432584,56.7943118 C79.5265927,56.6734779 79.7224241,56.5797288 79.9307584,56.5130618 C80.1390928,56.4463948 80.3557573,56.4130618 80.5807584,56.4130618 C80.6974257,56.4130618 80.8265911,56.4338949 80.9682584,56.4755618 L80.9682584,58.1255618 C80.8849247,58.108895 80.7849257,58.0943119 80.6682584,58.0818118 C80.5515912,58.0693117 80.4390923,58.0630618 80.3307584,58.0630618 C80.0057568,58.0630618 79.7307596,58.1172279 79.5057584,58.2255618 C79.2807573,58.3338957 79.0995091,58.4818109 78.9620084,58.6693118 C78.8245077,58.8568127 78.7265921,59.0755605 78.6682584,59.3255618 C78.6099248,59.575563 78.5807584,59.8463937 78.5807584,60.1380618 L78.5807584,63.0505618 L76.8057584,63.0505618 L76.8057584,56.5880618 Z M83.9182584,56.5880618 L85.2182584,56.5880618 L85.2182584,57.7755618 L83.9182584,57.7755618 L83.9182584,60.9755618 C83.9182584,61.2755633 83.9682579,61.4755613 84.0682584,61.5755618 C84.1682589,61.6755623 84.3682569,61.7255618 84.6682584,61.7255618 C84.7682589,61.7255618 84.8640913,61.7213952 84.9557584,61.7130618 C85.0474256,61.7047284 85.1349247,61.6922285 85.2182584,61.6755618 L85.2182584,63.0505618 C85.0682577,63.0755619 84.9015927,63.0922284 84.7182584,63.1005618 C84.5349242,63.1088952 84.3557593,63.1130618 84.1807584,63.1130618 C83.9057571,63.1130618 83.645343,63.094312 83.3995084,63.0568118 C83.1536739,63.0193116 82.9370094,62.9463957 82.7495084,62.8380618 C82.5620075,62.7297279 82.4140923,62.5755628 82.3057584,62.3755618 C82.1974246,62.1755608 82.1432584,61.9130634 82.1432584,61.5880618 L82.1432584,57.7755618 L81.0682584,57.7755618 L81.0682584,56.5880618 L82.1432584,56.5880618 L82.1432584,54.6505618 L83.9182584,54.6505618 L83.9182584,56.5880618 Z M87.8932584,55.5880618 L86.1182584,55.5880618 L86.1182584,54.1255618 L87.8932584,54.1255618 L87.8932584,55.5880618 Z M86.1182584,56.5880618 L87.8932584,56.5880618 L87.8932584,63.0505618 L86.1182584,63.0505618 L86.1182584,56.5880618 Z M89.2932584,56.5880618 L90.9807584,56.5880618 L90.9807584,57.4880618 L91.0182584,57.4880618 C91.2432596,57.1130599 91.5349233,56.840146 91.8932584,56.6693118 C92.2515936,56.4984776 92.6182566,56.4130618 92.9932584,56.4130618 C93.4682608,56.4130618 93.8578402,56.4776445 94.1620084,56.6068118 C94.4661766,56.7359791 94.7057576,56.915144 94.8807584,57.1443118 C95.0557593,57.3734796 95.1786747,57.6526435 95.2495084,57.9818118 C95.3203421,58.3109801 95.3557584,58.6755598 95.3557584,59.0755618 L95.3557584,63.0505618 L93.5807584,63.0505618 L93.5807584,59.4005618 C93.5807584,58.8672258 93.4974259,58.4693131 93.3307584,58.2068118 C93.1640909,57.9443105 92.8682606,57.8130618 92.4432584,57.8130618 C91.9599227,57.8130618 91.6099262,57.9568104 91.3932584,58.2443118 C91.1765907,58.5318132 91.0682584,59.0047252 91.0682584,59.6630618 L91.0682584,63.0505618 L89.2932584,63.0505618 L89.2932584,56.5880618 Z M99.7182584,61.5255618 C99.9682597,61.5255618 100.189091,61.4755623 100.380758,61.3755618 C100.572426,61.2755613 100.730758,61.1422293 100.855758,60.9755618 C100.980759,60.8088943 101.074508,60.6193129 101.137008,60.4068118 C101.199509,60.1943107 101.230758,59.9713963 101.230758,59.7380618 C101.230758,59.4713938 101.205759,59.219313 101.155758,58.9818118 C101.105758,58.7443106 101.022426,58.533896 100.905758,58.3505618 C100.789091,58.1672275 100.634926,58.0213957 100.443258,57.9130618 C100.251591,57.8047279 100.009927,57.7505618 99.7182584,57.7505618 C99.4682572,57.7505618 99.253676,57.8005613 99.0745084,57.9005618 C98.8953409,58.0005623 98.7453424,58.1359776 98.6245084,58.3068118 C98.5036745,58.477646 98.4161754,58.6734774 98.3620084,58.8943118 C98.3078415,59.1151462 98.2807584,59.3463939 98.2807584,59.5880618 C98.2807584,59.8213963 98.3036749,60.052644 98.3495084,60.2818118 C98.395342,60.5109796 98.4745079,60.7172275 98.5870084,60.9005618 C98.699509,61.083896 98.8474242,61.2338945 99.0307584,61.3505618 C99.2140927,61.467229 99.4432571,61.5255618 99.7182584,61.5255618 Z M102.918258,62.6380618 C102.918258,62.8963964 102.882842,63.1922268 102.812008,63.5255618 C102.741175,63.8588968 102.589093,64.1693104 102.355758,64.4568118 C102.122424,64.7443132 101.784927,64.9880608 101.343258,65.1880618 C100.90159,65.3880628 100.309929,65.4880618 99.5682584,65.4880618 C99.2515902,65.4880618 98.9286767,65.4484789 98.5995084,65.3693118 C98.2703401,65.2901447 97.9703431,65.1672293 97.6995084,65.0005618 C97.4286737,64.8338943 97.203676,64.6193131 97.0245084,64.3568118 C96.8453409,64.0943105 96.7432586,63.7797303 96.7182584,63.4130618 L98.4807584,63.4130618 C98.5640922,63.7463968 98.7265906,63.9776445 98.9682584,64.1068118 C99.2099263,64.2359791 99.4890902,64.3005618 99.8057584,64.3005618 C100.305761,64.3005618 100.670341,64.1505633 100.899508,63.8505618 C101.128676,63.5505603 101.239092,63.1713974 101.230758,62.7130618 L101.230758,61.8630618 L101.205758,61.8630618 C101.014091,62.2047302 100.741177,62.456811 100.387008,62.6193118 C100.03284,62.7818126 99.6599271,62.8630618 99.2682584,62.8630618 C98.7849227,62.8630618 98.3682602,62.777646 98.0182584,62.6068118 C97.6682567,62.4359776 97.3807596,62.2026466 97.1557584,61.9068118 C96.9307573,61.610977 96.7661756,61.2651471 96.6620084,60.8693118 C96.5578412,60.4734765 96.5057584,60.0547307 96.5057584,59.6130618 C96.5057584,59.196393 96.5661745,58.7943137 96.6870084,58.4068118 C96.8078424,58.0193099 96.9849239,57.6776466 97.2182584,57.3818118 C97.4515929,57.085977 97.7411734,56.8505627 98.0870084,56.6755618 C98.4328435,56.5005609 98.8307562,56.4130618 99.2807584,56.4130618 C99.7057606,56.4130618 100.078673,56.4922277 100.399508,56.6505618 C100.720343,56.8088959 100.989091,57.0755599 101.205758,57.4505618 L101.230758,57.4505618 L101.230758,56.5880618 L102.918258,56.5880618 L102.918258,62.6380618 Z M108.005758,54.1255618 L109.968258,54.1255618 L109.968258,63.0505618 L108.005758,63.0505618 L108.005758,54.1255618 Z M111.505758,56.5880618 L113.193258,56.5880618 L113.193258,57.4880618 L113.230758,57.4880618 C113.45576,57.1130599 113.747423,56.840146 114.105758,56.6693118 C114.464094,56.4984776 114.830757,56.4130618 115.205758,56.4130618 C115.680761,56.4130618 116.07034,56.4776445 116.374508,56.6068118 C116.678677,56.7359791 116.918258,56.915144 117.093258,57.1443118 C117.268259,57.3734796 117.391175,57.6526435 117.462008,57.9818118 C117.532842,58.3109801 117.568258,58.6755598 117.568258,59.0755618 L117.568258,63.0505618 L115.793258,63.0505618 L115.793258,59.4005618 C115.793258,58.8672258 115.709926,58.4693131 115.543258,58.2068118 C115.376591,57.9443105 115.080761,57.8130618 114.655758,57.8130618 C114.172423,57.8130618 113.822426,57.9568104 113.605758,58.2443118 C113.389091,58.5318132 113.280758,59.0047252 113.280758,59.6630618 L113.280758,63.0505618 L111.505758,63.0505618 L111.505758,56.5880618 Z M124.893258,59.5755618 L121.618258,54.1255618 L123.818258,54.1255618 L125.905758,57.6505618 L127.980758,54.1255618 L130.168258,54.1255618 L126.855758,59.6255618 L126.855758,63.0505618 L124.893258,63.0505618 L124.893258,59.5755618 Z M130.918258,59.8255618 C130.918258,60.0838964 130.943258,60.3359772 130.993258,60.5818118 C131.043259,60.8276464 131.128674,61.0484775 131.249508,61.2443118 C131.370342,61.4401461 131.530757,61.5963945 131.730758,61.7130618 C131.930759,61.829729 132.180757,61.8880618 132.480758,61.8880618 C132.78076,61.8880618 133.032841,61.829729 133.237008,61.7130618 C133.441176,61.5963945 133.603674,61.4401461 133.724508,61.2443118 C133.845342,61.0484775 133.930758,60.8276464 133.980758,60.5818118 C134.030759,60.3359772 134.055758,60.0838964 134.055758,59.8255618 C134.055758,59.5672272 134.030759,59.313063 133.980758,59.0630618 C133.930758,58.8130605 133.845342,58.5922294 133.724508,58.4005618 C133.603674,58.2088942 133.441176,58.0526457 133.237008,57.9318118 C133.032841,57.8109779 132.78076,57.7505618 132.480758,57.7505618 C132.180757,57.7505618 131.930759,57.8109779 131.730758,57.9318118 C131.530757,58.0526457 131.370342,58.2088942 131.249508,58.4005618 C131.128674,58.5922294 131.043259,58.8130605 130.993258,59.0630618 C130.943258,59.313063 130.918258,59.5672272 130.918258,59.8255618 Z M129.143258,59.8255618 C129.143258,59.3088925 129.222424,58.8401472 129.380758,58.4193118 C129.539093,57.9984764 129.76409,57.6401466 130.055758,57.3443118 C130.347427,57.048477 130.697423,56.8193126 131.105758,56.6568118 C131.514094,56.494311 131.972423,56.4130618 132.480758,56.4130618 C132.989094,56.4130618 133.449506,56.494311 133.862008,56.6568118 C134.27451,56.8193126 134.62659,57.048477 134.918258,57.3443118 C135.209927,57.6401466 135.434924,57.9984764 135.593258,58.4193118 C135.751593,58.8401472 135.830758,59.3088925 135.830758,59.8255618 C135.830758,60.342231 135.751593,60.808893 135.593258,61.2255618 C135.434924,61.6422305 135.209927,61.998477 134.918258,62.2943118 C134.62659,62.5901466 134.27451,62.8172277 133.862008,62.9755618 C133.449506,63.1338959 132.989094,63.2130618 132.480758,63.2130618 C131.972423,63.2130618 131.514094,63.1338959 131.105758,62.9755618 C130.697423,62.8172277 130.347427,62.5901466 130.055758,62.2943118 C129.76409,61.998477 129.539093,61.6422305 129.380758,61.2255618 C129.222424,60.808893 129.143258,60.342231 129.143258,59.8255618 Z M143.043258,63.0505618 L141.355758,63.0505618 L141.355758,62.1505618 L141.318258,62.1505618 C141.093257,62.5255637 140.801594,62.7963943 140.443258,62.9630618 C140.084923,63.1297293 139.71826,63.2130618 139.343258,63.2130618 C138.868256,63.2130618 138.478677,63.1505624 138.174508,63.0255618 C137.87034,62.9005612 137.630759,62.7234796 137.455758,62.4943118 C137.280758,62.265144 137.157842,61.9859801 137.087008,61.6568118 C137.016175,61.3276435 136.980758,60.9630638 136.980758,60.5630618 L136.980758,56.5880618 L138.755758,56.5880618 L138.755758,60.2380618 C138.755758,60.7713978 138.839091,61.1693105 139.005758,61.4318118 C139.172426,61.6943131 139.468256,61.8255618 139.893258,61.8255618 C140.376594,61.8255618 140.726591,61.6818132 140.943258,61.3943118 C141.159926,61.1068104 141.268258,60.6338984 141.268258,59.9755618 L141.268258,56.5880618 L143.043258,56.5880618 L143.043258,63.0505618 Z M144.393258,56.5880618 L146.080758,56.5880618 L146.080758,57.7880618 L146.105758,57.7880618 C146.189092,57.5880608 146.301591,57.402646 146.443258,57.2318118 C146.584926,57.0609776 146.747424,56.9151457 146.930758,56.7943118 C147.114093,56.6734779 147.309924,56.5797288 147.518258,56.5130618 C147.726593,56.4463948 147.943257,56.4130618 148.168258,56.4130618 C148.284926,56.4130618 148.414091,56.4338949 148.555758,56.4755618 L148.555758,58.1255618 C148.472425,58.108895 148.372426,58.0943119 148.255758,58.0818118 C148.139091,58.0693117 148.026592,58.0630618 147.918258,58.0630618 C147.593257,58.0630618 147.31826,58.1172279 147.093258,58.2255618 C146.868257,58.3338957 146.687009,58.4818109 146.549508,58.6693118 C146.412008,58.8568127 146.314092,59.0755605 146.255758,59.3255618 C146.197425,59.575563 146.168258,59.8463937 146.168258,60.1380618 L146.168258,63.0505618 L144.393258,63.0505618 L144.393258,56.5880618 Z M152.918258,54.1255618 L154.880758,54.1255618 L154.880758,63.0505618 L152.918258,63.0505618 L152.918258,54.1255618 Z M156.418258,56.5880618 L158.105758,56.5880618 L158.105758,57.4880618 L158.143258,57.4880618 C158.36826,57.1130599 158.659923,56.840146 159.018258,56.6693118 C159.376594,56.4984776 159.743257,56.4130618 160.118258,56.4130618 C160.593261,56.4130618 160.98284,56.4776445 161.287008,56.6068118 C161.591177,56.7359791 161.830758,56.915144 162.005758,57.1443118 C162.180759,57.3734796 162.303675,57.6526435 162.374508,57.9818118 C162.445342,58.3109801 162.480758,58.6755598 162.480758,59.0755618 L162.480758,63.0505618 L160.705758,63.0505618 L160.705758,59.4005618 C160.705758,58.8672258 160.622426,58.4693131 160.455758,58.2068118 C160.289091,57.9443105 159.993261,57.8130618 159.568258,57.8130618 C159.084923,57.8130618 158.734926,57.9568104 158.518258,58.2443118 C158.301591,58.5318132 158.193258,59.0047252 158.193258,59.6630618 L158.193258,63.0505618 L156.418258,63.0505618 L156.418258,56.5880618 Z M168.568258,59.8255618 C168.568258,59.5505604 168.539092,59.288063 168.480758,59.0380618 C168.422425,58.7880605 168.330759,58.5672294 168.205758,58.3755618 C168.080758,58.1838942 167.924509,58.0318124 167.737008,57.9193118 C167.549507,57.8068112 167.322426,57.7505618 167.055758,57.7505618 C166.797424,57.7505618 166.572426,57.8068112 166.380758,57.9193118 C166.189091,58.0318124 166.030759,58.1838942 165.905758,58.3755618 C165.780758,58.5672294 165.689092,58.7880605 165.630758,59.0380618 C165.572425,59.288063 165.543258,59.5505604 165.543258,59.8255618 C165.543258,60.0922298 165.572425,60.3505605 165.630758,60.6005618 C165.689092,60.850563 165.780758,61.0713942 165.905758,61.2630618 C166.030759,61.4547294 166.189091,61.6068112 166.380758,61.7193118 C166.572426,61.8318124 166.797424,61.8880618 167.055758,61.8880618 C167.322426,61.8880618 167.549507,61.8318124 167.737008,61.7193118 C167.924509,61.6068112 168.080758,61.4547294 168.205758,61.2630618 C168.330759,61.0713942 168.422425,60.850563 168.480758,60.6005618 C168.539092,60.3505605 168.568258,60.0922298 168.568258,59.8255618 Z M163.830758,54.1255618 L165.605758,54.1255618 L165.605758,57.3755618 L165.630758,57.3755618 C165.847426,57.0422268 166.141173,56.7984792 166.512008,56.6443118 C166.882844,56.4901444 167.268256,56.4130618 167.668258,56.4130618 C167.99326,56.4130618 168.31409,56.4797278 168.630758,56.6130618 C168.947427,56.7463958 169.23284,56.9505604 169.487008,57.2255618 C169.741176,57.5005632 169.947424,57.852643 170.105758,58.2818118 C170.264093,58.7109806 170.343258,59.2213922 170.343258,59.8130618 C170.343258,60.4047314 170.264093,60.915143 170.105758,61.3443118 C169.947424,61.7734806 169.741176,62.1255604 169.487008,62.4005618 C169.23284,62.6755632 168.947427,62.8797278 168.630758,63.0130618 C168.31409,63.1463958 167.99326,63.2130618 167.668258,63.2130618 C167.193256,63.2130618 166.76826,63.1380625 166.393258,62.9880618 C166.018257,62.838061 165.734926,62.5838969 165.543258,62.2255618 L165.518258,62.2255618 L165.518258,63.0505618 L163.830758,63.0505618 L163.830758,54.1255618 Z M173.043258,59.8255618 C173.043258,60.0838964 173.068258,60.3359772 173.118258,60.5818118 C173.168259,60.8276464 173.253674,61.0484775 173.374508,61.2443118 C173.495342,61.4401461 173.655757,61.5963945 173.855758,61.7130618 C174.055759,61.829729 174.305757,61.8880618 174.605758,61.8880618 C174.90576,61.8880618 175.157841,61.829729 175.362008,61.7130618 C175.566176,61.5963945 175.728674,61.4401461 175.849508,61.2443118 C175.970342,61.0484775 176.055758,60.8276464 176.105758,60.5818118 C176.155759,60.3359772 176.180758,60.0838964 176.180758,59.8255618 C176.180758,59.5672272 176.155759,59.313063 176.105758,59.0630618 C176.055758,58.8130605 175.970342,58.5922294 175.849508,58.4005618 C175.728674,58.2088942 175.566176,58.0526457 175.362008,57.9318118 C175.157841,57.8109779 174.90576,57.7505618 174.605758,57.7505618 C174.305757,57.7505618 174.055759,57.8109779 173.855758,57.9318118 C173.655757,58.0526457 173.495342,58.2088942 173.374508,58.4005618 C173.253674,58.5922294 173.168259,58.8130605 173.118258,59.0630618 C173.068258,59.313063 173.043258,59.5672272 173.043258,59.8255618 Z M171.268258,59.8255618 C171.268258,59.3088925 171.347424,58.8401472 171.505758,58.4193118 C171.664093,57.9984764 171.88909,57.6401466 172.180758,57.3443118 C172.472427,57.048477 172.822423,56.8193126 173.230758,56.6568118 C173.639094,56.494311 174.097423,56.4130618 174.605758,56.4130618 C175.114094,56.4130618 175.574506,56.494311 175.987008,56.6568118 C176.39951,56.8193126 176.75159,57.048477 177.043258,57.3443118 C177.334927,57.6401466 177.559924,57.9984764 177.718258,58.4193118 C177.876593,58.8401472 177.955758,59.3088925 177.955758,59.8255618 C177.955758,60.342231 177.876593,60.808893 177.718258,61.2255618 C177.559924,61.6422305 177.334927,61.998477 177.043258,62.2943118 C176.75159,62.5901466 176.39951,62.8172277 175.987008,62.9755618 C175.574506,63.1338959 175.114094,63.2130618 174.605758,63.2130618 C174.097423,63.2130618 173.639094,63.1338959 173.230758,62.9755618 C172.822423,62.8172277 172.472427,62.5901466 172.180758,62.2943118 C171.88909,61.998477 171.664093,61.6422305 171.505758,61.2255618 C171.347424,60.808893 171.268258,60.342231 171.268258,59.8255618 Z M180.755758,59.6505618 L178.630758,56.5880618 L180.655758,56.5880618 L181.793258,58.2755618 L182.918258,56.5880618 L184.880758,56.5880618 L182.755758,59.6130618 L185.143258,63.0505618 L183.118258,63.0505618 L181.768258,61.0130618 L180.418258,63.0505618 L178.430758,63.0505618 L180.755758,59.6505618 Z"/><path id="CityLimits" fill="#000" d="M10.9,10.2419095 C10.8466664,9.88190772 10.7266676,9.55191102 10.54,9.25190952 C10.3533324,8.95190802 10.1200014,8.68857732 9.84,8.46190952 C9.5599986,8.23524172 9.2433351,8.05857682 8.89,7.93190952 C8.5366649,7.80524222 8.1666686,7.74190952 7.78,7.74190952 C7.0733298,7.74190952 6.4733358,7.87857482 5.98,8.15190952 C5.4866642,8.42524422 5.0866682,8.79190722 4.78,9.25190952 C4.4733318,9.71191182 4.2500007,10.2352399 4.11,10.8219095 C3.9699993,11.4085791 3.9,12.0152397 3.9,12.6419095 C3.9,13.2419125 3.9699993,13.82524 4.11,14.3919095 C4.2500007,14.958579 4.4733318,15.4685739 4.78,15.9219095 C5.0866682,16.3752451 5.4866642,16.7385748 5.98,17.0119095 C6.4733358,17.2852442 7.0733298,17.4219095 7.78,17.4219095 C8.7400048,17.4219095 9.4899973,17.1285791 10.03,16.5419095 C10.5700027,15.9552399 10.8999994,15.1819143 11.02,14.2219095 L14.06,14.2219095 C13.9799996,15.1152473 13.773335,15.9219059 13.44,16.6419095 C13.106665,17.3619131 12.6666694,17.9752403 12.12,18.4819095 C11.5733306,18.9885787 10.933337,19.3752415 10.2,19.6419095 C9.466663,19.9085775 8.6600044,20.0419095 7.78,20.0419095 C6.6866612,20.0419095 5.7033377,19.8519114 4.83,19.4719095 C3.9566623,19.0919076 3.220003,18.5685795 2.62,17.9019095 C2.019997,17.2352395 1.5600016,16.451914 1.24,15.5519095 C0.9199984,14.651905 0.76,13.6819147 0.76,12.6419095 C0.76,11.5752375 0.9199984,10.5852474 1.24,9.67190952 C1.5600016,8.75857162 2.019997,7.96191292 2.62,7.28190952 C3.220003,6.60190612 3.9566623,6.06857812 4.83,5.68190952 C5.7033377,5.29524092 6.6866612,5.10190952 7.78,5.10190952 C8.5666706,5.10190952 9.3099965,5.21524172 10.01,5.44190952 C10.7100035,5.66857732 11.3366639,5.99857402 11.89,6.43190952 C12.4433361,6.86524502 12.8999982,7.40190632 13.26,8.04190952 C13.6200018,8.68191272 13.8466662,9.41523872 13.94,10.2419095 L10.9,10.2419095 Z M18.82,7.78190952 L15.98,7.78190952 L15.98,5.44190952 L18.82,5.44190952 L18.82,7.78190952 Z M15.98,9.38190952 L18.82,9.38190952 L18.82,19.7219095 L15.98,19.7219095 L15.98,9.38190952 Z M24.66,9.38190952 L26.74,9.38190952 L26.74,11.2819095 L24.66,11.2819095 L24.66,16.4019095 C24.66,16.8819119 24.7399992,17.2019087 24.9,17.3619095 C25.0600008,17.5219103 25.3799976,17.6019095 25.86,17.6019095 C26.0200008,17.6019095 26.1733326,17.5952429 26.32,17.5819095 C26.4666674,17.5685761 26.606666,17.5485763 26.74,17.5219095 L26.74,19.7219095 C26.4999988,19.7619097 26.2333348,19.7885761 25.94,19.8019095 C25.6466652,19.8152429 25.3600014,19.8219095 25.08,19.8219095 C24.6399978,19.8219095 24.2233353,19.7919098 23.83,19.7319095 C23.4366647,19.6719092 23.0900015,19.5552437 22.79,19.3819095 C22.4899985,19.2085753 22.2533342,18.9619111 22.08,18.6419095 C21.9066658,18.3219079 21.82,17.9019121 21.82,17.3819095 L21.82,11.2819095 L20.1,11.2819095 L20.1,9.38190952 L21.82,9.38190952 L21.82,6.28190952 L24.66,6.28190952 L24.66,9.38190952 Z M33.2,21.0019095 C32.8933318,21.8419137 32.4666694,22.4419077 31.92,22.8019095 C31.3733306,23.1619113 30.6133382,23.3419095 29.64,23.3419095 C29.3466652,23.3419095 29.0566681,23.3319096 28.77,23.3119095 C28.4833319,23.2919094 28.1933348,23.2685763 27.9,23.2419095 L27.9,20.9019095 C28.166668,20.9285763 28.4399986,20.9552427 28.72,20.9819095 C29.0000014,21.0085763 29.2799986,21.0152429 29.56,21.0019095 C29.9333352,20.9619093 30.2099991,20.8152441 30.39,20.5619095 C30.5700009,20.3085749 30.66,20.0285777 30.66,19.7219095 C30.66,19.4952417 30.6200004,19.2819105 30.54,19.0819095 L26.92,9.38190952 L29.94,9.38190952 L32.28,16.4619095 L32.32,16.4619095 L34.58,9.38190952 L37.52,9.38190952 L33.2,21.0019095 Z M44.34,5.44190952 L47.48,5.44190952 L47.48,17.0819095 L54.44,17.0819095 L54.44,19.7219095 L44.34,19.7219095 L44.34,5.44190952 Z M58.82,7.78190952 L55.98,7.78190952 L55.98,5.44190952 L58.82,5.44190952 L58.82,7.78190952 Z M55.98,9.38190952 L58.82,9.38190952 L58.82,19.7219095 L55.98,19.7219095 L55.98,9.38190952 Z M61.14,9.38190952 L63.82,9.38190952 L63.82,10.7819095 L63.86,10.7819095 C64.2333352,10.2485735 64.6833307,9.83524432 65.21,9.54190952 C65.7366693,9.24857472 66.3399966,9.10190952 67.02,9.10190952 C67.6733366,9.10190952 68.2699973,9.22857492 68.81,9.48190952 C69.3500027,9.73524412 69.7599986,10.1819063 70.04,10.8219095 C70.3466682,10.3685739 70.7633307,9.96857792 71.29,9.62190952 C71.8166693,9.27524112 72.4399964,9.10190952 73.16,9.10190952 C73.7066694,9.10190952 74.213331,9.16857552 74.68,9.30190952 C75.146669,9.43524352 75.546665,9.64857472 75.88,9.94190952 C76.213335,10.2352443 76.4733324,10.6185738 76.66,11.0919095 C76.8466676,11.5652452 76.94,12.1352395 76.94,12.8019095 L76.94,19.7219095 L74.1,19.7219095 L74.1,13.8619095 C74.1,13.5152411 74.0866668,13.1885777 74.06,12.8819095 C74.0333332,12.5752413 73.9600006,12.3085773 73.84,12.0819095 C73.7199994,11.8552417 73.5433345,11.6752435 73.31,11.5419095 C73.0766655,11.4085755 72.760002,11.3419095 72.36,11.3419095 C71.959998,11.3419095 71.6366679,11.4185754 71.39,11.5719095 C71.1433321,11.7252436 70.9500007,11.9252416 70.81,12.1719095 C70.6699993,12.4185774 70.5766669,12.6985746 70.53,13.0119095 C70.4833331,13.3252444 70.46,13.6419079 70.46,13.9619095 L70.46,19.7219095 L67.62,19.7219095 L67.62,13.9219095 C67.62,13.6152413 67.6133334,13.311911 67.6,13.0119095 C67.5866666,12.711908 67.5300005,12.4352441 67.43,12.1819095 C67.3299995,11.9285749 67.1633345,11.7252436 66.93,11.5719095 C66.6966655,11.4185754 66.3533356,11.3419095 65.9,11.3419095 C65.766666,11.3419095 65.5900011,11.3719092 65.37,11.4319095 C65.1499989,11.4919098 64.9366677,11.605242 64.73,11.7719095 C64.5233323,11.938577 64.3466674,12.1785746 64.2,12.4919095 C64.0533326,12.8052444 63.98,13.2152403 63.98,13.7219095 L63.98,19.7219095 L61.14,19.7219095 L61.14,9.38190952 Z M82.1,7.78190952 L79.26,7.78190952 L79.26,5.44190952 L82.1,5.44190952 L82.1,7.78190952 Z M79.26,9.38190952 L82.1,9.38190952 L82.1,19.7219095 L79.26,19.7219095 L79.26,9.38190952 Z M87.94,9.38190952 L90.02,9.38190952 L90.02,11.2819095 L87.94,11.2819095 L87.94,16.4019095 C87.94,16.8819119 88.0199992,17.2019087 88.18,17.3619095 C88.3400008,17.5219103 88.6599976,17.6019095 89.14,17.6019095 C89.3000008,17.6019095 89.4533326,17.5952429 89.6,17.5819095 C89.7466674,17.5685761 89.886666,17.5485763 90.02,17.5219095 L90.02,19.7219095 C89.7799988,19.7619097 89.5133348,19.7885761 89.22,19.8019095 C88.9266652,19.8152429 88.6400014,19.8219095 88.36,19.8219095 C87.9199978,19.8219095 87.5033353,19.7919098 87.11,19.7319095 C86.7166647,19.6719092 86.3700015,19.5552437 86.07,19.3819095 C85.7699985,19.2085753 85.5333342,18.9619111 85.36,18.6419095 C85.1866658,18.3219079 85.1,17.9019121 85.1,17.3819095 L85.1,11.2819095 L83.38,11.2819095 L83.38,9.38190952 L85.1,9.38190952 L85.1,6.28190952 L87.94,6.28190952 L87.94,9.38190952 Z M93.58,16.3619095 C93.58,16.6685777 93.6433327,16.9319084 93.77,17.1519095 C93.8966673,17.3719106 94.059999,17.5519088 94.26,17.6919095 C94.460001,17.8319102 94.6899987,17.9352425 94.95,18.0019095 C95.2100013,18.0685765 95.4799986,18.1019095 95.76,18.1019095 C95.960001,18.1019095 96.1699989,18.0785764 96.39,18.0319095 C96.6100011,17.9852426 96.8099991,17.91191 96.99,17.8119095 C97.1700009,17.711909 97.3199994,17.578577 97.44,17.4119095 C97.5600006,17.245242 97.62,17.0352441 97.62,16.7819095 C97.62,16.3552407 97.3366695,16.0352439 96.77,15.8219095 C96.2033305,15.6085751 95.4133384,15.3952439 94.4,15.1819095 C93.9866646,15.0885757 93.5833353,14.9785768 93.19,14.8519095 C92.7966647,14.7252422 92.4466682,14.5585772 92.14,14.3519095 C91.8333318,14.1452418 91.5866676,13.8852444 91.4,13.5719095 C91.2133324,13.2585746 91.12,12.8752451 91.12,12.4219095 C91.12,11.7552395 91.2499987,11.2085783 91.51,10.7819095 C91.7700013,10.3552407 92.1133312,10.0185774 92.54,9.77190952 C92.9666688,9.52524162 93.446664,9.35191002 93.98,9.25190952 C94.513336,9.15190902 95.0599972,9.10190952 95.62,9.10190952 C96.1800028,9.10190952 96.7233307,9.15524232 97.25,9.26190952 C97.7766693,9.36857672 98.2466646,9.54857492 98.66,9.80190952 C99.0733354,10.0552441 99.4166653,10.3919074 99.69,10.8119095 C99.9633347,11.2319116 100.126666,11.7619063 100.18,12.4019095 L97.48,12.4019095 C97.4399998,11.8552401 97.2333352,11.4852438 96.86,11.2919095 C96.4866648,11.0985752 96.0466692,11.0019095 95.54,11.0019095 C95.3799992,11.0019095 95.2066676,11.0119094 95.02,11.0319095 C94.8333324,11.0519096 94.6633341,11.0952425 94.51,11.1619095 C94.3566659,11.2285765 94.2266672,11.3252422 94.12,11.4519095 C94.0133328,11.5785768 93.96,11.7485751 93.96,11.9619095 C93.96,12.2152441 94.0533324,12.4219087 94.24,12.5819095 C94.4266676,12.7419103 94.6699985,12.871909 94.97,12.9719095 C95.2700015,13.07191 95.6133314,13.1619091 96,13.2419095 C96.3866686,13.3219099 96.779998,13.4085757 97.18,13.5019095 C97.5933354,13.5952433 97.9966647,13.7085755 98.39,13.8419095 C98.7833353,13.9752435 99.1333318,14.1519084 99.44,14.3719095 C99.7466682,14.5919106 99.9933324,14.8652412 100.18,15.1919095 C100.366668,15.5185778 100.46,15.9219071 100.46,16.4019095 C100.46,17.0819129 100.323335,17.6519072 100.05,18.1119095 C99.7766653,18.5719118 99.4200022,18.9419081 98.98,19.2219095 C98.5399978,19.5019109 98.0366695,19.6985756 97.47,19.8119095 C96.9033305,19.9252434 96.3266696,19.9819095 95.74,19.9819095 C95.139997,19.9819095 94.5533362,19.9219101 93.98,19.8019095 C93.4066638,19.6819089 92.8966689,19.4819109 92.45,19.2019095 C92.0033311,18.9219081 91.6366681,18.5519118 91.35,18.0919095 C91.0633319,17.6319072 90.9066668,17.0552463 90.88,16.3619095 L93.58,16.3619095 Z"/><path id="Newsletters" fill="red" d="M2.2425,25.4888202 L7.3125,25.4888202 L16.9975,41.0563202 L17.0625,41.0563202 L17.0625,25.4888202 L21.84,25.4888202 L21.84,48.6938202 L16.7375,48.6938202 L7.085,33.1588202 L7.02,33.1588202 L7.02,48.6938202 L2.2425,48.6938202 L2.2425,25.4888202 Z M37.1475,38.4888202 C36.9308322,37.3188144 36.5462528,36.4304899 35.99375,35.8238202 C35.4412472,35.2171505 34.6016723,34.9138202 33.475,34.9138202 C32.7383296,34.9138202 32.1262524,35.0384023 31.63875,35.2875702 C31.1512476,35.5367381 30.7612515,35.845485 30.46875,36.2138202 C30.1762485,36.5821554 29.9704173,36.9721515 29.85125,37.3838202 C29.7320827,37.7954889 29.6616668,38.1638186 29.64,38.4888202 L37.1475,38.4888202 Z M29.64,41.4138202 C29.7050003,42.9088277 30.0841632,43.9921502 30.7775,44.6638202 C31.4708368,45.3354902 32.4674935,45.6713202 33.7675,45.6713202 C34.6991713,45.6713202 35.50083,45.4384059 36.1725,44.9725702 C36.84417,44.5067346 37.2558326,44.0138228 37.4075,43.4938202 L41.47,43.4938202 C40.8199968,45.5088303 39.8233401,46.9496492 38.48,47.8163202 C37.13666,48.6829912 35.5116762,49.1163202 33.605,49.1163202 C32.2833267,49.1163202 31.091672,48.9050723 30.03,48.4825702 C28.968328,48.0600681 28.0691704,47.4588241 27.3325,46.6788202 C26.5958296,45.8988163 26.0270853,44.967159 25.62625,43.8838202 C25.2254147,42.8004815 25.025,41.6088267 25.025,40.3088202 C25.025,39.0521473 25.2308313,37.882159 25.6425,36.7988202 C26.0541687,35.7154815 26.6391629,34.7784075 27.3975,33.9875702 C28.1558371,33.1967329 29.0604114,32.5738225 30.11125,32.1188202 C31.1620886,31.6638179 32.3266603,31.4363202 33.605,31.4363202 C35.0350071,31.4363202 36.280828,31.7125675 37.3425,32.2650702 C38.404172,32.817573 39.2762466,33.5596489 39.95875,34.4913202 C40.6412534,35.4229915 41.1341652,36.4846476 41.4375,37.6763202 C41.7408348,38.8679928 41.8491671,40.1138137 41.7625,41.4138202 L29.64,41.4138202 Z M63.7,48.6938202 L58.955,48.6938202 L55.965,37.4163202 L55.9,37.4163202 L53.04,48.6938202 L48.2625,48.6938202 L42.9325,31.8913202 L47.8075,31.8913202 L50.895,43.2988202 L50.96,43.2988202 L53.755,31.8913202 L58.24,31.8913202 L61.1,43.2663202 L61.165,43.2663202 L64.2525,31.8913202 L68.9975,31.8913202 L63.7,48.6938202 Z M74.5225,43.2338202 C74.5225,43.732156 74.6254156,44.1600684 74.83125,44.5175702 C75.0370844,44.875072 75.3024984,45.1675691 75.6275,45.3950702 C75.9525016,45.6225714 76.3262479,45.7904863 76.74875,45.8988202 C77.1712521,46.0071541 77.6099977,46.0613202 78.065,46.0613202 C78.3900016,46.0613202 78.7312482,46.0234039 79.08875,45.9475702 C79.4462518,45.8717365 79.7712485,45.752571 80.06375,45.5900702 C80.3562515,45.4275694 80.599999,45.2109049 80.795,44.9400702 C80.990001,44.6692355 81.0875,44.3279889 81.0875,43.9163202 C81.0875,43.2229834 80.6270879,42.7029886 79.70625,42.3563202 C78.7854121,42.0096518 77.5016749,41.6629886 75.855,41.3163202 C75.18333,41.1646528 74.5279199,40.9859046 73.88875,40.7800702 C73.2495801,40.5742359 72.6808358,40.3034052 72.1825,39.9675702 C71.6841642,39.6317352 71.2833349,39.2092394 70.98,38.7000702 C70.6766651,38.190901 70.525,37.5679906 70.525,36.8313202 C70.525,35.7479815 70.7362479,34.859657 71.15875,34.1663202 C71.5812521,33.4729834 72.1391632,32.9259056 72.8325,32.5250702 C73.5258368,32.1242349 74.305829,31.842571 75.1725,31.6800702 C76.039171,31.5175694 76.9274954,31.4363202 77.8375,31.4363202 C78.7475046,31.4363202 79.6304124,31.522986 80.48625,31.6963202 C81.3420876,31.8696544 82.10583,32.1621515 82.7775,32.5738202 C83.44917,32.9854889 84.0070811,33.5325668 84.45125,34.2150702 C84.8954189,34.8975736 85.1608329,35.758815 85.2475,36.7988202 L80.86,36.7988202 C80.7949997,35.9104824 80.4591697,35.3092385 79.8525,34.9950702 C79.2458303,34.680902 78.5308374,34.5238202 77.7075,34.5238202 C77.4474987,34.5238202 77.1658348,34.5400701 76.8625,34.5725702 C76.5591651,34.6050704 76.2829179,34.6754863 76.03375,34.7838202 C75.7845821,34.8921541 75.5733342,35.0492359 75.4,35.2550702 C75.2266658,35.4609046 75.14,35.7371518 75.14,36.0838202 C75.14,36.4954889 75.2916652,36.8313189 75.595,37.0913202 C75.8983348,37.3513215 76.2937476,37.5625694 76.78125,37.7250702 C77.2687524,37.887571 77.8266635,38.0338196 78.455,38.1638202 C79.0833365,38.2938209 79.7224967,38.4346528 80.3725,38.5863202 C81.04417,38.7379876 81.6995801,38.9221525 82.33875,39.1388202 C82.9779199,39.355488 83.5466642,39.6425684 84.045,40.0000702 C84.5433358,40.357572 84.9441652,40.8017342 85.2475,41.3325702 C85.5508349,41.8634062 85.7025,42.5188163 85.7025,43.2988202 C85.7025,44.4038257 85.4804189,45.3300665 85.03625,46.0775702 C84.5920811,46.825074 84.0125036,47.4263179 83.2975,47.8813202 C82.5824964,48.3363225 81.7645879,48.6559026 80.84375,48.8400702 C79.9229121,49.0242378 78.9858381,49.1163202 78.0325,49.1163202 C77.0574951,49.1163202 76.1041713,49.0188212 75.1725,48.8238202 C74.2408287,48.6288192 73.412087,48.3038225 72.68625,47.8488202 C71.960413,47.3938179 71.3645857,46.792574 70.89875,46.0450702 C70.4329143,45.2975665 70.1783335,44.3604925 70.135,43.2338202 L74.5225,43.2338202 Z M88.53,25.4888202 L93.145,25.4888202 L93.145,48.6938202 L88.53,48.6938202 L88.53,25.4888202 Z M108.095,38.4888202 C107.878332,37.3188144 107.493753,36.4304899 106.94125,35.8238202 C106.388747,35.2171505 105.549172,34.9138202 104.4225,34.9138202 C103.68583,34.9138202 103.073752,35.0384023 102.58625,35.2875702 C102.098748,35.5367381 101.708751,35.845485 101.41625,36.2138202 C101.123749,36.5821554 100.917917,36.9721515 100.79875,37.3838202 C100.679583,37.7954889 100.609167,38.1638186 100.5875,38.4888202 L108.095,38.4888202 Z M100.5875,41.4138202 C100.6525,42.9088277 101.031663,43.9921502 101.725,44.6638202 C102.418337,45.3354902 103.414994,45.6713202 104.715,45.6713202 C105.646671,45.6713202 106.44833,45.4384059 107.12,44.9725702 C107.79167,44.5067346 108.203333,44.0138228 108.355,43.4938202 L112.4175,43.4938202 C111.767497,45.5088303 110.77084,46.9496492 109.4275,47.8163202 C108.08416,48.6829912 106.459176,49.1163202 104.5525,49.1163202 C103.230827,49.1163202 102.039172,48.9050723 100.9775,48.4825702 C99.915828,48.0600681 99.0166703,47.4588241 98.28,46.6788202 C97.5433296,45.8988163 96.9745853,44.967159 96.57375,43.8838202 C96.1729147,42.8004815 95.9725,41.6088267 95.9725,40.3088202 C95.9725,39.0521473 96.1783313,37.882159 96.59,36.7988202 C97.0016687,35.7154815 97.5866629,34.7784075 98.345,33.9875702 C99.1033371,33.1967329 100.007911,32.5738225 101.05875,32.1188202 C102.109589,31.6638179 103.27416,31.4363202 104.5525,31.4363202 C105.982507,31.4363202 107.228328,31.7125675 108.29,32.2650702 C109.351672,32.817573 110.223747,33.5596489 110.90625,34.4913202 C111.588753,35.4229915 112.081665,36.4846476 112.385,37.6763202 C112.688335,38.8679928 112.796667,40.1138137 112.71,41.4138202 L100.5875,41.4138202 Z M121.29,31.8913202 L124.67,31.8913202 L124.67,34.9788202 L121.29,34.9788202 L121.29,43.2988202 C121.29,44.0788241 121.419999,44.5988189 121.68,44.8588202 C121.940001,45.1188215 122.459996,45.2488202 123.24,45.2488202 C123.500001,45.2488202 123.749165,45.237987 123.9875,45.2163202 C124.225835,45.1946534 124.453332,45.1621538 124.67,45.1188202 L124.67,48.6938202 C124.279998,48.7588205 123.846669,48.8021534 123.37,48.8238202 C122.893331,48.845487 122.427502,48.8563202 121.9725,48.8563202 C121.257496,48.8563202 120.58042,48.8075707 119.94125,48.7100702 C119.30208,48.6125697 118.738752,48.4229883 118.25125,48.1413202 C117.763748,47.8596521 117.379168,47.4588228 117.0975,46.9388202 C116.815832,46.4188176 116.675,45.7363244 116.675,44.8913202 L116.675,34.9788202 L113.88,34.9788202 L113.88,31.8913202 L116.675,31.8913202 L116.675,26.8538202 L121.29,26.8538202 L121.29,31.8913202 Z M132.73,31.8913202 L136.11,31.8913202 L136.11,34.9788202 L132.73,34.9788202 L132.73,43.2988202 C132.73,44.0788241 132.859999,44.5988189 133.12,44.8588202 C133.380001,45.1188215 133.899996,45.2488202 134.68,45.2488202 C134.940001,45.2488202 135.189165,45.237987 135.4275,45.2163202 C135.665835,45.1946534 135.893332,45.1621538 136.11,45.1188202 L136.11,48.6938202 C135.719998,48.7588205 135.286669,48.8021534 134.81,48.8238202 C134.333331,48.845487 133.867502,48.8563202 133.4125,48.8563202 C132.697496,48.8563202 132.02042,48.8075707 131.38125,48.7100702 C130.74208,48.6125697 130.178752,48.4229883 129.69125,48.1413202 C129.203748,47.8596521 128.819168,47.4588228 128.5375,46.9388202 C128.255832,46.4188176 128.115,45.7363244 128.115,44.8913202 L128.115,34.9788202 L125.32,34.9788202 L125.32,31.8913202 L128.115,31.8913202 L128.115,26.8538202 L132.73,26.8538202 L132.73,31.8913202 Z M149.63,38.4888202 C149.413332,37.3188144 149.028753,36.4304899 148.47625,35.8238202 C147.923747,35.2171505 147.084172,34.9138202 145.9575,34.9138202 C145.22083,34.9138202 144.608752,35.0384023 144.12125,35.2875702 C143.633748,35.5367381 143.243751,35.845485 142.95125,36.2138202 C142.658749,36.5821554 142.452917,36.9721515 142.33375,37.3838202 C142.214583,37.7954889 142.144167,38.1638186 142.1225,38.4888202 L149.63,38.4888202 Z M142.1225,41.4138202 C142.1875,42.9088277 142.566663,43.9921502 143.26,44.6638202 C143.953337,45.3354902 144.949994,45.6713202 146.25,45.6713202 C147.181671,45.6713202 147.98333,45.4384059 148.655,44.9725702 C149.32667,44.5067346 149.738333,44.0138228 149.89,43.4938202 L153.9525,43.4938202 C153.302497,45.5088303 152.30584,46.9496492 150.9625,47.8163202 C149.61916,48.6829912 147.994176,49.1163202 146.0875,49.1163202 C144.765827,49.1163202 143.574172,48.9050723 142.5125,48.4825702 C141.450828,48.0600681 140.55167,47.4588241 139.815,46.6788202 C139.07833,45.8988163 138.509585,44.967159 138.10875,43.8838202 C137.707915,42.8004815 137.5075,41.6088267 137.5075,40.3088202 C137.5075,39.0521473 137.713331,37.882159 138.125,36.7988202 C138.536669,35.7154815 139.121663,34.7784075 139.88,33.9875702 C140.638337,33.1967329 141.542911,32.5738225 142.59375,32.1188202 C143.644589,31.6638179 144.80916,31.4363202 146.0875,31.4363202 C147.517507,31.4363202 148.763328,31.7125675 149.825,32.2650702 C150.886672,32.817573 151.758747,33.5596489 152.44125,34.4913202 C153.123753,35.4229915 153.616665,36.4846476 153.92,37.6763202 C154.223335,38.8679928 154.331667,40.1138137 154.245,41.4138202 L142.1225,41.4138202 Z M156.975,31.8913202 L161.3625,31.8913202 L161.3625,35.0113202 L161.4275,35.0113202 C161.644168,34.4913176 161.936665,34.0092391 162.305,33.5650702 C162.673335,33.1209013 163.095831,32.7417385 163.5725,32.4275702 C164.049169,32.113402 164.558331,31.8696544 165.1,31.6963202 C165.641669,31.522986 166.204997,31.4363202 166.79,31.4363202 C167.093335,31.4363202 167.429165,31.4904863 167.7975,31.5988202 L167.7975,35.8888202 C167.580832,35.8454867 167.320835,35.8075704 167.0175,35.7750702 C166.714165,35.7425701 166.421668,35.7263202 166.14,35.7263202 C165.294996,35.7263202 164.580003,35.8671521 163.995,36.1488202 C163.409997,36.4304883 162.938752,36.8150678 162.58125,37.3025702 C162.223748,37.7900727 161.969167,38.358817 161.8175,39.0088202 C161.665833,39.6588235 161.59,40.3629831 161.59,41.1213202 L161.59,48.6938202 L156.975,48.6938202 L156.975,31.8913202 Z M173.1925,43.2338202 C173.1925,43.732156 173.295416,44.1600684 173.50125,44.5175702 C173.707084,44.875072 173.972498,45.1675691 174.2975,45.3950702 C174.622502,45.6225714 174.996248,45.7904863 175.41875,45.8988202 C175.841252,46.0071541 176.279998,46.0613202 176.735,46.0613202 C177.060002,46.0613202 177.401248,46.0234039 177.75875,45.9475702 C178.116252,45.8717365 178.441249,45.752571 178.73375,45.5900702 C179.026251,45.4275694 179.269999,45.2109049 179.465,44.9400702 C179.660001,44.6692355 179.7575,44.3279889 179.7575,43.9163202 C179.7575,43.2229834 179.297088,42.7029886 178.37625,42.3563202 C177.455412,42.0096518 176.171675,41.6629886 174.525,41.3163202 C173.85333,41.1646528 173.19792,40.9859046 172.55875,40.7800702 C171.91958,40.5742359 171.350836,40.3034052 170.8525,39.9675702 C170.354164,39.6317352 169.953335,39.2092394 169.65,38.7000702 C169.346665,38.190901 169.195,37.5679906 169.195,36.8313202 C169.195,35.7479815 169.406248,34.859657 169.82875,34.1663202 C170.251252,33.4729834 170.809163,32.9259056 171.5025,32.5250702 C172.195837,32.1242349 172.975829,31.842571 173.8425,31.6800702 C174.709171,31.5175694 175.597495,31.4363202 176.5075,31.4363202 C177.417505,31.4363202 178.300412,31.522986 179.15625,31.6963202 C180.012088,31.8696544 180.77583,32.1621515 181.4475,32.5738202 C182.11917,32.9854889 182.677081,33.5325668 183.12125,34.2150702 C183.565419,34.8975736 183.830833,35.758815 183.9175,36.7988202 L179.53,36.7988202 C179.465,35.9104824 179.12917,35.3092385 178.5225,34.9950702 C177.91583,34.680902 177.200837,34.5238202 176.3775,34.5238202 C176.117499,34.5238202 175.835835,34.5400701 175.5325,34.5725702 C175.229165,34.6050704 174.952918,34.6754863 174.70375,34.7838202 C174.454582,34.8921541 174.243334,35.0492359 174.07,35.2550702 C173.896666,35.4609046 173.81,35.7371518 173.81,36.0838202 C173.81,36.4954889 173.961665,36.8313189 174.265,37.0913202 C174.568335,37.3513215 174.963748,37.5625694 175.45125,37.7250702 C175.938752,37.887571 176.496664,38.0338196 177.125,38.1638202 C177.753336,38.2938209 178.392497,38.4346528 179.0425,38.5863202 C179.71417,38.7379876 180.36958,38.9221525 181.00875,39.1388202 C181.64792,39.355488 182.216664,39.6425684 182.715,40.0000702 C183.213336,40.357572 183.614165,40.8017342 183.9175,41.3325702 C184.220835,41.8634062 184.3725,42.5188163 184.3725,43.2988202 C184.3725,44.4038257 184.150419,45.3300665 183.70625,46.0775702 C183.262081,46.825074 182.682504,47.4263179 181.9675,47.8813202 C181.252496,48.3363225 180.434588,48.6559026 179.51375,48.8400702 C178.592912,49.0242378 177.655838,49.1163202 176.7025,49.1163202 C175.727495,49.1163202 174.774171,49.0188212 173.8425,48.8238202 C172.910829,48.6288192 172.082087,48.3038225 171.35625,47.8488202 C170.630413,47.3938179 170.034586,46.792574 169.56875,46.0450702 C169.102914,45.2975665 168.848334,44.3604925 168.805,43.2338202 L173.1925,43.2338202 Z"/></g></g></g></g></svg>