<svg xmlns="http://www.w3.org/2000/svg" width="19.869" height="16.237" viewBox="0 0 19.869 16.237"><defs><style>.cls-1{fill:none;stroke:#000;stroke-linecap:round;stroke-linejoin:round;stroke-width:1.5px}</style></defs><g id="Group_176" data-name="Group 176" transform="translate(0.75 0.75)"><g id="Regular_176" data-name="Regular 176"><path id="Shape_513" d="M483.2,305.064l-1.726-.74.9-1.972-2.1.7a3.663,3.663,0,0,0-6.164,2.712v.822c-2.909.6-5.449-.986-7.808-3.7q-.616,3.288,1.233,4.931l-2.7-.411a3.739,3.739,0,0,0,3.493,3.287l-2.26.822c.822,1.644,2.318,1.9,4.315,2.055a9.465,9.465,0,0,1-5.548,1.644c10.487,4.66,16.643-2.186,16.643-8.219v-.682Z" class="cls-1" data-name="Shape 513" transform="translate(-464.833 -302.064)"/></g></g></svg>